<svg xmlns="http://www.w3.org/2000/svg" height="150" viewBox="0 0 500 500"><style>.B{fill:#0a0a0a}.C{fill:#202020}.D{fill:#101010}.E{fill:#1b1b1b}.F{fill:#d1d1d1}.G{fill:#2d2d2d}.H{fill:#141414}.I{fill:#f3f3f3}.J{fill:#f4f4f4}.K{fill:#0d0d0d}.L{fill:#3a3a3a}.M{fill:#e5e5e5}.N{fill:#040404}.O{fill:#f9f9f9}.P{fill:#eee}.Q{fill:#f8f8f8}.R{fill:#f7f7f7}.S{fill:#fcfcfc}.T{fill:#fafafa}.U{fill:#a5a5a5}</style><path fill="#fdfdfd" d="M1 133V1h500v500H1zm40-26h-1a53 53 0 0 1-1 2l-1 1-2 2-1 1-3 4-1 2-2 6v165l1 40v51c0 6 1 13 6 17v1l3 4 1 2 8 7v1l3 2v1l4 4 2 2 11 10 2 2 11 11 4 4 3 2 6 5 4 4 3 2 2 2 8 5 12 6 1 1h1l7 3 3 1 2 1 2 1 6 2h1l7 2h2l7 2h3l5 1h3l17 2 48-1h49l20 1 27-1h5l7-1h3l13-2h2a80 80 0 0 1 8-2l6-3h2a337 337 0 0 1 22-11l7-6h1l2-1h1l2-3h1l4-4 3-2 5-5 4-3 5-5 1-2 6-5 1-2 3-4a212 212 0 0 1 11-12l7-11h1l4-6h1a8 8 0 0 1 2-2l1-3h1l1-2 2-2 5-6 2-1h3l-3-4 1-1-1-3v-47l1-24a64 64 0 0 0-1-4l1-28c3-4 3-6-1-8v-72l1-40 1-5-1-19 1-15-4 1v-3l-7-11-2-2-2-3-7-7-1-1-5-4v-1l-2-2-5-5-7-6-3-3-15-13v-1l-3-2v-1l-16-13-2-1-6-3-1-1-7-4-5-2-3-1-5-2-22-7a37 37 0 0 1-4 0l-4-1-5-1h-2a76 76 0 0 1-9-1l-22-1h-29l-19 1h-24l-24-1h-9l-7 1h-27l-7 1h-2l-4 1a9 9 0 0 1-3 0l-3 1a11 11 0 0 1-3 0l-5 2-2 1-3 1-3 1h-2s0 1 0 0l-7 4h-1l-4 2h-1l-2 2h-1l-10 6-5 3-13 11h-1l-3 3-2 2-2 2-4 3-3 4-1 1-8 8-2 3-3 4-2 2-1 2h-1l-5 6v1l-3 3-1 1-1 3h-1l-1 2h-1l-2 4-2 2-1 2M26 263v49h1v-54h-1v5m462-89v42h1v-46h-1z"/><path d="m70 433-2-2c-1-6-6-8-11-10l-2-2-4-4 2-5a24 24 0 0 0 2 0v-1l-2 1-5 2-2-6-6-2-1-1c2-5-2-3-3-5-3-5-4-10-4-15l-2-3v-3l1-30-1-2v-16l2-13-1-23-1-4v-39l-1-40v-81l3 8v-10h-3l1-3 2-6 1-1 3-4 1-1 2-3 2-2 2-2 1-2c5 0 3-2 3-4l2-2 2-3 1-1 4-1-2-2 1-1 5-2 1 2 1-1-2-1v-4h2l1 2 1-1-2-1v-2l2-2 3-4 2-3c6 1 9-3 8-8l1-1 3-4 4-3v4c-4 2-6 6-5 9l5-9c5-2 1-4 2-6l2-2 3-3 5-1 2-4 3 2 4-8 4-3c4 2 6 3 7-1l5-3-1-2 2-1 2-1 4-2 5-1h8l2 1v-1h-2l-5-3h2l2-1 4-1 1 2 1-2 5-3h6l3-1 4 1 6 1-3-2h6c3 1 6 3 7-2h4l8 1 9 1h6l9-1h13l2 2h41l2-2 9-1 29-1 6 2c2 4 5 1 7 0l9-1h2v1l-7 1v2l10-2 4-1 2 1h4l5 1v1l6 2 7 2c4 4 8 4 12 2l6 2 3 2 4 1 8 5 2 7 4-3 2 1 4 5 1 3 11 5-5 3h8l1 3c3 4 8 5 9 11h5l3 3c0 6 3 6 7 6l5 5 2 2a68 68 0 0 0 6 6l2 6 5 1 2 2-1 3h3l7 11 1 3a271 271 0 0 1-1 23v52l1 3 1 50-1 21h-2v-47l-1 45 1 2 1 64-1 15h1v-15l2 1v49a19 19 0 0 0 0 2l-1 3-2 1h-5l2 3-5 1 3 2-1 1-6 1 1 2h3l-2 3-2 2-2-3-3 6h-1l1 3c-5 2-6 7-8 11l-1 1c-5-1-1 2-2 3l-8 8c-6-1-3 2-3 5l-1 1-5-1-1 7-1 1h-7l2 5-4 3c-5-1-4 3-5 5l-3 2c-4-1-4 2-4 4l-5-1 2 4h-1l-2 1c-5 0-8 0-8 6l-6 3-7 2-2-2v3l-7 5h-2l-6 2-2 1-6 1h-2v-1l-2 1-11 3h-3l-5-2-2 2v1h-5l-24-1-3 1h-20l-2-1h-44l-3 1h-48l-4-1-17-5v3l-4 1-3-1-7-1-2-1-5-4-1 3-2-1-6-2h-1v-4l-2 3-3-1 2-4h-10v1l-1-1-6-6-3-1h-3l-8-5-3-2-2-2-5-4-5-5 1-2h-4l-4-4-9-14-2 3m94-292zm205 14v1h1l-1-2 1-2 8 9c-4 4 2 4 2 7l3-2 4 1 4 1 2-3 2 1c4 1 7-1 8-6h2c6-3 0-7 3-11l-5 2v-1l-3-2v-7l-4 2 1-4-2-1c0 1-1 2-3 2-2-1-4-3-5-6v-2h-3c-1-1-2-1-2-3v-2h-2s-1 0 0 0l1-4-1-1-4 3-2-4-2-2s-1 0 0 0l1-5-7 1v-2l-2-2s-1 0 0 0l-1-9 1-2-2-1-1 3-4 1c-2-1-4-4-6 0h-1l-1 3-2 1h-1l1 2-2 2-2 5c-1 3-4 6 0 10l3 1v2l1 4 1 3 2 6 7-3 3 5-2 1h1l2-2 8 10v2M174 390v1-1m200-229h-1v1l1-1m87-52h-1 1v1h1l-1-1M139 37h2l-3-1-1 1a8 8 0 0 1 2 0m253 288v1h4l3 3 3 1 1 1v2h-1v1l2-2v1l1 5 1-1 2-3h1l3-1 1-4 1-6V180l1-6c1-2-2-9-3-10h-2l-3 7-6 2c-2-6-3 1-5-1l1 4h-2l-2 2-1 5v142m8-282v-1l-1-1-1 1 2 1m-210 84v2l2 3 2 5 2 4v2l-4 2v-1l-3-2-2-6 1-3c-6-4-8-4-10 0 0 0 0 1 0 0l-5 5h-1a39 39 0 0 0-2 3l-4 3c-4 1-4 1-3 4l-4 3c-5 1-7 4-7 8l-3 2h-3l1 3h-2l-2 4-3 2-2 2s0 1 0 0l-4 5 1 1 3-2 9 8 2 4 4-1-1 4 5-3 2 3c2 2 2 4-2 6l-11-8c0-4-3-4-6-3l-3-2 2-4c-4 0-6-1-6 3l-1 9v117l2 7v3c2 2 4 5 1 8l2 2v1l3 7 1 3-1 6c-1-1-3-3-3-5l-4-2-3-4 3-2v-1l-18 5v1l-2 5c-3 1-4 3-4 7 0 6 3 7 9 7l1 3-6 1 1 1 11 2v2c-1 5 2 7 7 7l3 3c1 2 1 6 6 4l2 4 4 3c2 2 5 4 6 7l-4 4 5 1 7 2v2l1 3 1-1-1-2 1-2h2l5-3-3-2 3-2 1-4c2-5 6-9 0-14l2-3-2-1-2 3-3-4 1-2h-4l-2-3v-8l-5 4-4-5 1-5 1 1a32 32 0 0 1 4-1h1v1l4 2v1l3 2 2 4c0 6 4 9 11 9 3 3 5 0 7-2h2l4 2v1l-1 1-1 2 3 1h95l18 1 2 2h21l-3-4-1-2-1-2-2-4 3-4 4 4v1l3 3v3l9 5v2l2 7-4 2 8 3 1 4-2 3 4 1 3 3 3-5 2-1h2v-3h1l3-3 2-3 3-2 3-4 4-3 4-5 4-3 4-5 5-4 3-4 2-1c4 0 5-2 5-6h1l2-3-1-4-4-4c-2-4-5-5-10-5h-6l-2 1-3-1v1l-5 4c0 5-4 2-6 3l3 4-2 3h-1a39 39 0 0 0-1 3h-2l-2 4a8 8 0 0 1-3 1l-2-1-2-2-1 2 3 2v2l-5 3-1-1 2 2-5 4-2 3-3 2-2 3h-1l-1-1-6-5v-1h1l3-2c3 1 5 2 6-2v-3l2-4 2-1 3 2 3-6 1-4 3-2 2 2h1l-1-4h1l1 1 3 2 1-1-3-3 2-4h1l1-3h1l4-1c2 0 3 0 2-4h3l-1-2v-3l2-3-3-1v-1l-4-2-2-2c-2-2 0-4 2-6l1 2c-2 3 1 4 3 4v-1l2-1c5 1 2-3 3-6V184c-4-2-6 2-8 4l-6 2 2-7h1l3-3 4-2 5-1-5-5 3-4-7 1-2-4-2-1-3-2-3-5-1-6-6 1 1-2 2-1h-1l-2 2-3-4 2-1v-1h-5v-1a42 42 0 0 0-3-1l-3-4 2-4-1-1-4 3-8-7-2 3-1 1-2-1-2-10-2 3-2 2-65-1-14-1-11 1h-40l-1-2v-1l-1 3m-148 6-1 3h1l1-3v-3h-1v3m337-19 3 1v1l3 3c0 6 0 6 5 5l4 3 7 8-2 2v2l5-2v1l2 2v5h6l2 3 3 1 11-2 3-2 7-5 1-4h5l3-4 1 2c0 3 1 2 3 2l2 1v-1l-2-1v-4h3l3-3 10-8-3-2-1-2-3-2-3-4-1-7h-1l-3 3-1-2-2-1v-1l4-1-10-4-5-5-2-5 2-1h-1l-2 2-5-5c1-6 0-6-7-6l-2-3c2-3 1-5-2-6-4-1-6-4-9-7l-2 1-16-17c0-2 1-4-2-3-2 0-5-2-4 2l-2 1a10 10 0 0 0-1 3l-4 5-3 1 2 3h-2c-2 3-2 6 3 7v2l-4 2 3 3-6 1v-2h-1l-1 2-3 2-4-1c2 2 3 2 3 4l-6 8-1 2-3-2c1 4 1 9 7 10l4 6c0 3 2 4 5 4l5 6 2 2v1m50 40v2l-4 3-2 2v3h-3l2 2v3l-1 42-1 21 2 2-1 31-2 9v31l-1-1v-11h-1l1 13v19c1-1 2-3 4-3v15l1 3v3c1 3 3 4 7 4l1 1a73 73 0 0 0 4 1s0 0 0 1l7 1V206l1-5c4 0 3-3 3-5l-4-4 1-15 3-2v-28l-5 4-8 3-2-1h-2s-1 0 0 0v1m-319 6 2-1 4 4 1 5h1l4-2 5 2 2-1 4-2 5 3 1-1-4-5 4-3 2-1a6 6 0 0 1 0-2h2c3 0 3-2 3-5l8-6c5 1 5-3 5-7l2-1c7 0 8-2 8-9l2-1 2-3h2c2-2 2-4-1-6l-1-3 4-2 2 4 1-1-2-4-3 1-2-4v1l-2 3-2-3c-1-3 1-7-4-7l-1-2-6-1-1 1 3 4h-3l-2-2-1 1 2 4-3 1-4-1 2 4-14 13-4 6-1-1c-4-2-4 4-7 3l3 3-5 4h-5l1 5h-1l-8 1 1 2 4 1-6 5-2 3 2 1v2h1m286 213-2 2h-1l-2 4-5 4-2 3-6 5-3 4h-1l-4-2 1 5-4 5h-4l-4 5c-1 1-4 3 0 5v2a38 38 0 0 0 2 2v2a72 72 0 0 0 3 3l4 9-1 1c2 1 5 3 7 2 3-1 0-3 0-6h2c2-2 7-1 6-7l3-1 3-4h1l4-1-1-3 4-3c4 0 4-2 4-5l6-5 4-1-1-3 7-6 2-4h2l6 3v4l-1-1-6 1 1 5h-1l-2-1-2 4c-4 0-2 3-2 5h-1l-3-1-3 4c-3 1-1 2-1 4l-4-2v7l-1-1h-5l2 5h-2l-1-1h-1l3 2-2 1-7 2 2 3c-1 1-2 3-5 4l-1 2-3-1v5h-2l-4 2 3 4v2l2 7h3v3h2l-1 1 3 2 10-5 3 3 1-1-2-5h1l2-3 3-2 2-3 4-3h2v-1c1-1 8 1 3-5l8-7 2-3h1c2 1 2 1 2-4l5-3c5 1 6-2 5-6l5-4 3 1c-2-2 5-3 1-6l9-7 1-3 2-1 2 1v-4l2-1 2-2h1l1-1-1-2 1-1h2v-1l-3-1-2-1v-2l-5-1v-1l-2-3-1 3c-4-3-7-5-11-2l-2-3-1 1 3 4-7 4-6-1 1 8-1-1-3 1 1 3h-1l-3-2-1-7 10-11c3-2 3-5 0-8l-2-1c-1-6-5-4-10-5-3-2-6 0-9 1l-2-1-2 5-7 7-4 5h-1l-2 2m-220 4v-1l-1-1-1 1 2 1m216 85 1-1-1-1-1 2h1m-231-39-1 4-4 8 6 2v2h193v-1l-11-1 1-1h14l-2-7a12 12 0 0 0-1-2v-2l1-1-4-1c-3-7-9-9-15-9H175l-3 1-5 1-2 3-3 4h-1m-69 6-1 1 1 1 2-2h2l6 8v4h6l4 6 3 2v1l3 1 5 6 2 2v1l1 2a19 19 0 0 0 2-3l4-3 2 7 2 2 1-2-3-2 2-2 2-3-2-7 3-8-2-2v-7l4-3 3 3 8-2v1h1a9 9 0 0 1-1-3l2-4-3-1 4-6h6l-6-7v-1l-3-2-1-2-3-2v-1c-2-3 0-9-7-6l-2-3-1-5-4 1-3-4-3-2-1-2 1-5-5 1v-1l2-4-7 1-11-13 1-3-3-2-4 1c-3-5-7-1-11-1l-2-1-3 1c-4 0-5 1-3 5l-1-1-3 3-4 3c2 3 2 7 7 4l6 8a79 79 0 0 0 4 2l4 6 2 6 4-2 7 9-1 3 1 1 3-3 5 7c0 5 4 6 8 6l1 2c0 4 1 5 5 4l-1 1v4l-5 2-4-3-2-5 2-1h-1l-2 2-12-12-1-6-4 3-2-4-1-4-3 2-5-7 1-4-10-3-11-13c-2-2-3-2-4 1l-4 2-2 1-5 2h-2c-2-1-5-1-5 3 0 3-1 7 5 6l1 2 3 2 2 4c-2 4 2 1 3 2l2 3v1l2-1 4 6c-2 6 2 3 4 3l2 3c-3 3 1 3 2 5h3v1h2l11 12-1 1m240-309 2 1v-1l-2-1-2-2 1-2a4 4 0 0 1 2 1l2 2 1-1-4-2c1-1 1-2 3-2 3 0 3-2 3-5v-4l2-1v-3l-5-2H175l-2 2v1l-1 2 6 4h1l4 8 3 1 31 1 16 2 9-2 84 1 3 2h3m14-18 1 1 1-1-2-2h-2v1l2 1M143 450l1 3-4 9-1 2h236l1-4-2-2v-1l-2-2a10 10 0 0 1-1-3l-2-2v-1l-3-2H169l-17-1 2-1h206v-1H152c-3-2-2 1-3 3l-3 3-2-2v-3h-1v5M75 151l-2-1-3 1 3 3-1 55-1 3v58l2 4-1 39v1l-1 37 3 3 2-3 3-2h2l8-4 2-1c1-3 8-3 2-8l1-13 1 1v4h1V215l-1-7v-42l-3-3-3-6a66 66 0 0 0-3-1l1-3-1-1-3 3-4-3-4-1m407-29v30h1v-33h-1v3m-344-10 1-3 2 1h1v-1h-2l8-8h4v-5l5-5c1-5 1-9-5-10l-3-6-2-2v-1l2-3-1-1-4 4-7 5-3 4-2 1-6-7h1a27 27 0 0 0 2-3c1-1 2-3 4-3 2 3 4 1 5-1 2-2 1-3-1-4l1-1v-6a21 21 0 0 0-2-2l-2-5 3-1-1-1-3 2v-2l-2-6-4-1-1 3h-1c-5-2-6 5-9 5l1 3-4 3-2 3-5 4c-3-1-8 4-7 9l-1-1c-4 0-5 2-3 5l-1-1-2 4-3 1-3 5-5 3c-4-1-3 2-3 4l-5 4-3 4-2 1c-5 0-8 2-7 9h-3l-1-3-2 1 3 3-1 1-2 1 1 2-8 7-2 2 5 2c2 1 4 1 5 3 0 4 3 3 6 3l3 2c4 3 9 0 13 5l4 6c-2 3-1 4 2 3h4l5 3 5-1 4-2 4 1 1-6 3-3 2-3 6-5 2-3h1l2-3 3-2c6 1 6-2 5-6h2v1h1l-1-2h1l3-4h1m40 296h159v-3l3-2-1-3-2-3v-1l1-3h1v-1l-1 1-3 1v-2c1-5 1-6-5-5v-1l-4-3a148 148 0 0 0-17 0l-4 3H194c-5 0-10 1-13 5l-2-2-1 1 2 4-2 3-1 2-1 2-1 3v1l3 3M44 369v2l3-3 3-1 5-1c5 3 3-2 4-5l4-5 1-2v-8h1v6l1-10c0-2-1-3-4-4l1-9 3-4c-1-4 2-9-2-12l-2-1 1-7c3-3 4-6-1-9l1-7v-7l1-17c3-3 3-6-1-9l1-21 2-5-1-55v-20l-2-5 1-1c1-3 2-4-2-4l-3-2v-2c1-4-3-6-9-6l-1-2v-2h-1v3l-1-1-2-1a22 22 0 0 0 0 2l-1 3 1 17v214l-1 1m81-167v8l-2 6a642 642 0 0 1 2-36l1-2a44 44 0 0 1-4 0l-1-2-5-2-1-1-3-1-4-3c-3-3-3-3-4 1v157a24 24 0 0 1-1 6l1 3 2-2h1c3 2 5 2 6-1l2-4 3-1 6-1 2-1-2-2-1-2 2-17 1 4v10h1l1-31v-62h-1l-1 62V186h-1v16m290 80v46h1V177l-1 1v104m38-140 1 2-2 3v13l1 2-1 24 1 16v94l-1 49 1 9v4l2 3 5 5c1 2 2 6 6 2l3 2h2V133l-13 6h-2c-3-1-4 0-3 3m-65 137v-29h-1v46h1v-17M274 125h30v-1l-32-1h-14v2h16M159 65l-1 2h-1l-2 1a53 53 0 0 1 3 2l1 4 3 3 1 2c3 8 3 8 11 8h51l80 1 15 1 2-2 15 1c3 1 6 3 9-1l5-5 6-8c4 0 2-2 1-5l-4-3-5-1H206l-6 2-15-1-5-1h-21m186-28h31v-1H145v1h200m-205 2h-3l5 4 1 4 2 2 1 4a15 15 0 0 0 2 2l9 1h207l4-2 3-3a57 57 0 0 0 1-3l3-4v-4l-4-1H257zm91 373h57v-1h-94v1h37m-22-288h-15v1h38v-1zm-8-2h-7v1h38v-1zm185 109v1h1v-30h-1zm32 21v12h1v-30h-1zM304 122h-30zM155 33h-8v1h11v-1h-3m295 163v20h1v-23l-1 3m-64 86v-8h-1v14h1zm65-107v-3h-1v12h1zM107 351v-5h-2l2 5m289 19 1-3-2-1 1 4m-58-247 1 3h1l-2-3M70 91l3 1v-2l-3 1m331 272-2-1v2l2-1M127 196v4h1v-6l-1 1v1m319 152 2-2-1-1-1 3M128 179l-1-1v6h1zm354 4 1 1v-6h-1zm-227-63 1-1h-6v1zm131 181v-3h-1v6h1zM197 119h3v-1h-6v1zm-78 15 1 2 1-3-2 1m-19 37v5h1l-1-5m118-52 6 1v-1h-6m-90 96v-5h-1l1 5M39 396l-1-2-1 1 2 1M141 34h-2v1h5v-1a31 31 0 0 0-3 0m271 363h3l-1-2-2 2m-305-57h2l-1-1-1 1m312-7v-3h-1l1 3M372 64l1 1 1-1h-2m8-18h-2l1 1 1-1m-24 47-1-1-1 1h2M75 374l1-1-1-1v2m312-46v-2h-1l1 2m-6-2v3h1l-1-3M69 81l1-2-1-1v3m9 276-2-1-1 1h3m8-281 2-1-1-1-1 2m317-22 1-1-1-1v2m-52 360h1v-1l-1 1m-179-14v1h1l-1-1m187-300h-1v2l1-2M115 364v2l2-1-2-1m354-241h1v-3h-1v3M110 40v-1h-1l1 1M92 158l1 1 1-1h-2m24 174-1 2h1v-2m355 44v2h1l-1-2m-44-25 1-1v-1l-1 2m45-231h1v-3h-1v3m-284 0h1v-1h-3v1h2m288-12 1 1 1-2-2 1M166 98l1 2 1-1-2-1m272 276 1-1v-1l-1 2m-265 36v-1h-3v1a23 23 0 0 0 3 0m232-51h-2 2m-16 62h2-2m54 4v2-2m-75 17h-2v1l2-1m-241-21-1-1-1 1h2m-67-3-1 1 1 1v-2m109-6-1 1h2l-1-1m-52 1h-2 2m222-2-1-1-1 1h2m7 74 2 1v-1h-2m-222-21h-2 2m40-55 1 1 1-1h-2m211 44v-2 2m-3-9v2-2M355 24l-1-1-1 1h2M80 376l-1-1-1 1h2m389-2h-2 2m-5-1-1-1-1 1h2m-330 10 1-1-1-1v2m192-12 1 1 1-1h-2m-207-4v2-2m231-2h-2 2m-8-348h2v-1l-2 1m62 388 1 1 1-1h-2m-251-1 1-1-1-1v2m-11-15v2-2m-49-1v2-2m3-234-1-1-1 1h2m-9-91-1 1 1 1v-2m321 98-1 1 1 1v-2m-258-9v2-2m278-1v-2 2m-18-2 1 1 1-1h-2m-55-6h2-2m-281-1v-2 2m332-86h2-2M143 69l-1-1-1 1h2m229-12v2-2m43 0-1 1 1 1v-2M119 171h-2 2m-9-6-1 1 1 1v-2m-67-55-1 1 1 1v-2m328-2-1 1 1 1v-2m-5-4-1-1-1 1h2m109 7v2-2M349 99l1 1 1-1h-2m-190-4 1-1-1-1v2m194-7 1-1-1-1v2M159 78l-1-1-1 1h2m-4-5 1-1-1-1v2m307 55-1 1 1 1v-2m-121 1 1 1 1-1h-2m79 209h-2 2M396 46l1-1-1-1v2m-7 284v2-2m9 3h-2 2m-8-10-1-1v2l1-1m-259-6 1-1-1-1v2M106 49v2-2m252 304v1-1M109 152v-1h-1l1 1m0 253h1-1M92 153v-1 1m6 177-1 1 1-1m323 120-1-1 1 1m-78-48v-1 1m62-353v1-1M101 458h1-1M291 17l-1-1 1 1M60 134v-1 1M48 402v1h1l-1-1m26-257h-1 1m37-1v-1h-1l1 1m311 287h1-1M194 142v-1h-1l1 1m193 41-1 1 1-1m30 153v-1h-1l1 1m23 30 1-1-1 1m-44 47h1-1m-28 70v-1 1m-267-86v1-1M411 48l1 1-1-1M64 88h1-1m331 382h1v-1l-1 1M152 23h-1v1l1-1m-11 40-1 1h1v-1M97 166l-1 1 1-1m339 191-1-1 1 1m-57-34-1-1a2 2 0 0 0 1 1M369 62l1-1h-1v1m-6 382 1 1-1-1M136 74h1v-1l-1 1m243 404-1-1 1 1M143 61l1-1-1 1m195 328-1 1 1-1M177 126h-1 1m-45 339-1-1 1 1m234-308v-1 1m63 224h-1 1M162 98l-1-1 1 1m279-27 1 1v-1h-1m-7 368v1-1M389 32l1 1-1-1M165 361h-1 1m-10 69h-1 1m218 19v1-1M116 138v-1 1M42 365h-1 1m69-5h-1 1m51 59h-1 1m222-102v1-1M140 448h1-1m198-67h-1 1m54 37v-1 1m79-289h1-1M165 365h-1 1m-38-43h1-1m265 7v1-1m-256 56v1a1 1 0 0 0 0-1m-76 15v1-1m41-70h-1 1m55-232v-1 1M85 442v-1 1m309 24v1-1M100 161v1-1m364-50h1-1m-55-66h1-1m35 47v1-1M86 445h1-1m79-357v1-1m197 393v1-1M82 374v1-1m-28 40h1-1m87 39h-1 1m308-313h1-1m-63 192v1-1m47 103h1-1m39-51h-1 1M77 148v1-1m58-106v-1a1 1 0 0 0 0 1m25 42h1-1m258-19v1-1m-28 113h-1 1m22 279v1-1m-44-344s1 0 0 0m-317 0s1 0 0 0m94 333s0-1 0 0m224 0s-1 0 0 0M153 75s1 0 0 0m9 14s-1 0 0 0m279-1s0 1 0 0M75 90s0-1 0 0m7 263s0 1 0 0M54 97s0-1 0 0m404-12s0 1 0 0m-81 379s1 0 0 0m29-122s0-1 0 0m-52 143s0 1 0 0M170 102s-1 0 0 0m262-26s0-1 0 0m-62-42s0 1 0 0m61 39s0 1 0 0m-69 281s-1 0 0 0M148 104s0 1 0 0m-23-74s0-1 0 0m292 421s1 0 0 0M144 108s0-1 0 0m-6 344s-1 0 0 0m-79-55s1 0 0 0m339-228s0 1 0 0m-30 221s1 0 0 0M55 373s-1 0 0 0m365-212s0-1 0 0M394 42s0-1 0 0m-23 117s0-1 0 0m47 130s0 1 0 0M148 158s-1 0 0 0M57 400s0-1 0 0m41-223s1 0 0 0m291 17s-1 0 0 0M129 379s1 0 0 0M97 55s-1 0 0 0m281-5s0-1 0 0M92 384s0 1 0 0m383 2s0-1 0 0m-136 1s0-1 0 0M101 48s1 0 0 0m373 340s-1 0 0 0M120 172s1 0 0 0m-55 69s0-1 0 0m389-107s0-1 0 0m19-2s0 1 0 0m-9 0s1 0 0 0M124 41s0 1 0 0m206 88s0 1 0 0m95-62s0 1 0 0m-104 58s0-1 0 0m114 308s1 0 0 0M152 74s0-1 0 0m208 362s0-1 0 0m-261 2s1 0 0 0m44 3s-1 0 0 0m14-83s-1 0 0 0M32 145s0-1 0 0m294 223s0 1 0 0M104 153s0-1 0 0M53 369s0-1 0 0m395-220s1 0 0 0M113 405s1 0 0 0m248-257s1 0 0 0m62-82s-1 0 0 0m42 47s1 0 0 0M158 409s0-1 0 0m2-268s0-1 0 0m-47-1s0 1 0 0m328 0s-1 0 0 0m-250-3s1 0 0 0m34-122s1 0 0 0" class="N"/><path d="m486 330-2-1-1-64h3v37l1 3zm0-136-2-3v-52l1-1 1 15z" class="B"/><path d="m237 490 3-1h44l2 1h-49" class="C"/><path d="m486 153-1-16v-22l3-1-1 15 1 19-2 5z" class="I"/><path d="m29 289 2 4 1 23-2 13-1-40zM380 23c-4 2-8 2-12-2l-7-2-5-2h3z" class="B"/><path d="M241 13h24l8 1a1412 1412 0 0 1-40 0l8-1z" class="N"/><path d="m30 345 1 2-1 30v-32zM443 67l-5 1c-1-6-6-7-9-11l-1-3 15 13m-18-17-11-4-1-3-4-5 16 12" class="B"/><path d="M26 262v-4h1v54h-1v-50z" class="P"/><path d="m306 491 3-2a488 488 0 0 1-3 2" class="C"/><path d="M168 487v-3l16 5h-15l-1-2z" class="B"/><path d="M488 173v-3h1v46h-1z" class="J"/><path d="m241 13-8 1h-3a268 268 0 0 1-13-1z" class="G"/><path d="m70 434 2-4 9 14-11-10zm36-396-4 8-3-2-2 4-5 1 14-11zM77 64c1 5-2 9-8 8l8-8m43-35 2 2-5 3c-1 4-3 3-6 1l9-6zM30 380l2 3c0 5 1 10 4 15-5-4-6-11-6-18zm27 41c5 2 10 4 11 10l-11-10" class="B"/><path d="m273 14-8-1 19-1-9 2h-2zm62-1-9 1-7-1-6-1 22 1" class="G"/><path d="M172 489h13l4 1-17-1m207-7 7-5 2-1 6-2-15 8" class="C"/><path d="M111 468a7 7 0 0 1 3 0l3 1 6 6-12-7m347-51c2-4 3-9 8-11l-8 11M217 13v1a45 45 0 0 1-9 1v-2zm184 458c0-6 3-6 8-6l-8 6M40 404l6 2 2 6-8-8zm398 36v-6l5 1-5 5zm15-363c-4 0-7 0-7-6l7 6m14 329-2-3h1l3-6 2 3-4 6m-36 41-2-5h7l-5 5M201 15l-8-1v-1h7a5 5 0 0 1 1 2m272 82-5-1-2-6 7 7" class="B"/><path d="m348 489 11-3h2l-13 3z" class="C"/><path d="m124 476 10-1-2 3-8-2M407 37l-4 3-2-7 6 4zm72 354-4-2 5-1-2-3h5l-4 6zM181 13c-1 5-4 3-7 2v-1z" class="B"/><path d="m202 15-1-2h7v2h-6" class="G"/><path d="m487 273-1-8c4 2 4 4 1 8" class="I"/><path d="M338 490v-1l2-2 5 2-7 1zm-192-6 1-3 5 4-6-1" class="C"/><path d="M193 13v1a43 43 0 0 1-8-1h8z" class="G"/><path d="m60 87-5 2 5-6v4zm362 368c1-2 0-6 5-5l-5 5M401 32a51 51 0 0 1-8-4l8 4M53 410l-2 5-3-2c1-2 3-2 5-3zm392 24c-1-3-4-6 2-5l-2 5" class="B"/><path d="M154 486a33 33 0 0 1 7 1l-7-1" class="C"/><path d="M465 89a30 30 0 0 1-5-5l5 5M29 127h3v10l-2-9-1-1zm386 334c0-2 0-5 4-4l-4 4M87 54c-1 2 3 4-2 6v-4a6 6 0 0 1 2-2m341-1-8 1 5-3 3 2zm47 342h-3l-1-2h6l-2 2z" class="B"/><path d="m134 24-5 1 7-3-2 2" class="G"/><path d="m371 484 6-2-6 2" class="C"/><path d="m134 24 2-2 1-1 5 3z" class="B"/><path d="m363 486 6-1-6 1" class="C"/><path d="M174 14v1h-7v-1h7z" class="G"/><path d="m29 250 1 6-1-6" class="B"/><path d="m485 384 1-3 3 3z" class="I"/><path d="M36 399c1 1 5-1 3 4l-3-4M47 99c0 2 2 4-3 4l3-4m7-9 2 2-4 1 2-3zm113-76v1l4 2-6-1v-1l2-1zM31 118l-1 6 1-6" class="B"/><path d="m343 14-4 1-2-1h6z" class="G"/><path d="M93 456c2 0 3 1 5 3l-5-3m319 8-2-4 5 1-3 3M51 415l4 4-4-4M92 49a10 10 0 0 1-3 3l3-3M67 75l-3 4 3-4" class="B"/><path d="m152 16-5 3v-1z" class="G"/><path d="m36 113-3 4 3-4" class="B"/><path d="m168 487 1 1h-5l4-1zm-29-5 5 1-5-1" class="C"/><path d="M350 15h-4 4" class="G"/><path d="m81 59-3 4 3-4" class="B"/><path d="m129 25-4 2 4-2m36-10v1l-4-1h4" class="G"/><path d="m487 305-1-3 1 3" class="I"/><path d="M85 448h4l-1 2-3-2m50 32 2-3v4l-2-1z" class="B"/><path d="m158 15-3 1 3-1" class="G"/><path d="M455 420c1 0-3-3 2-2l-2 2" class="B"/><path d="m358 16-3 1v-1h3" class="G"/><path d="M477 102h-3l1-2 2 2M147 18v1l-1 2-1-2 2-1zM51 94l-2 3 2-3m358 371 2-1-2 1m-309-3h3-3" class="B"/><path d="M487 379v-2 2" class="I"/><path d="M389 26h-3 3m83 374 1-2-1 2" class="B"/><path d="m123 28-2 1 2-1m18-8-2 1 2-1" class="G"/><path d="m38 109-1 3 1-3m3-2-2 2 2-2m2-2-2 2 2-2m6-8-2 2 2-2m411-14-2-1 2 1M62 81v2h-2l2-2m423 34v1l-1-3 1 2z" class="B"/><path d="M475 395z" class="N"/><path d="m369 183-2 8-4 2-10 7-5 2-2 3-1 5v15l-1 43v24l2 6 5 4 20 12c-1 2-4 4-1 7l-16-8c-11-7-11-7-21 1l-2 2-2 2-2 2-6 5-2 2a100 100 0 0 1-7 7l2 5 4 10 2 2 1 2 2 3 3 5-1 1-3 5-7-12-2-2-1-3-2-2-1-3-4-6-5-2h-8a764 764 0 0 1-65-2l-7 2-5 1-2 1-2 1h-2l-2 1-2 2-4 8-7 17-2 2-5-1v-4l2-2 1-3 1-2 2-2 1-1 1-3 1-1 1-3 1-1 1-3 4-7-2-5-3-3-2-2-18-18c-2-3-5-3-8-2l-28 17-5 5-2-2c3-3 1-6-1-9l31-16c3-2 4-5 4-8l2-77c0-5 0-9-4-13l-9-7c3-2 3-4 1-7l11 6c3 1 5 1 7-2l17-19c6-7 7-12 3-21l-5-9 4-2c1 0 1 0 0 0l5 11 6 7 2 1 3 1h2l5 1h25c3 0 7 5 9-1l41-1h11l2-1 1-2 2-3 4-6 2-4 1-3 3-4 1-1 2-4 2-6v-2l1-3 2 11v3l-2 3-2 4a286 286 0 0 1-9 17l-1 2 2 4 3 5 2 2 1 1 2 2 2 2 12 13c3 4 5 5 9 2l22-11m-165-10-1 2c-9 8-16 17-22 27l38 24 3 1 17 10 3 1 1 1 3-1-2-3-9-17-2-3-9-15-2-2-1-3-2-2-7-14-2-2-2-4c-1-3-2-2-3 0h-1m41 92a33 33 0 0 0-3 0l-1 1h-2l-3 2-26 16-29 17 22 22c4 5 7 4 10-2l8-15 22-37 2-4m11-96h-41l3 9 2 3 4 6 3 4-1 2 3 2 10 20 2 2 1 2a34 34 0 0 0 2 2v2l3 4v2l3 2 3 6c3 5 5 5 10 0l1-3 11-18 1-3 5-7 1-4 8-13 3-4c0-2 1-5 3-7l1-4 3-4-11-1-24-1c-3-2-6-2-9 1m49 157 8-3 9-7 2-3 4-3 1-3h2l2-3 1-5-3-1-8-5-3-1v-1l-3-1-13-8a22 22 0 0 0-3-1l-28-17-3 1 3 6 10 18 2 2 8 15 2 2v1a17 17 0 0 1 2 3l5 9 3 5m-26-31-2-5-4-6-12-19c-3-4-4-4-7 0a138 138 0 0 0-5 8l-29 51c-2 1-2 4-3 6h82l-6-13-2-2-3-6-3-4-1-3a18 18 0 0 0-2-2l-1-3a21 21 0 0 0-2-2m-102-79v74c1 1-1 4 3 3l52-30 19-12-74-42v7m158 76 1 2 2-2v-82l-3 1h-2l-2 2-65 38 2 3 8 5 3 1 21 14 4 1v1l4 1 5 3 3 1 7 6 3 1 3 2 3 1v1h3m-20-78 16-9c4-2 5-4 2-8l-7-7-16-18-2 2-16 25-21 36v3h3l41-24m-141 60v5l1-7h-1v2m1 20v-4h-1l1 4" class="B"/><path d="m262 336 30 1h8l5 2 4 6 1 3 2 2 1 3 2 2a301 301 0 0 0 10 20l-19 1h-18l-95-1-1-2v-1l2-4 7-18 5-7 1-2a42 42 0 0 1 2-1h2l2-1h2a100 100 0 0 0 5-2l7-1 4-1h14l12 1h5z" class="S"/><path d="m163 422 2-4 2-2 6-1h2l5-1h158c6 0 12 2 16 9l1 2 1 2 1 2 2 7H162l-6-1 4-9 1-1 2-3z" class="R"/><path d="m317 143-2 3-2 4-4 6-1 3a16 16 0 0 1-1 2l-2 1h-11l-41 1-9 1h-25l-5-1a14 14 0 0 0-2 0l-3-1-2-2-6-6-4-11-1-3-2-4-2-5-2-2v-1a9 9 0 0 1 2-1h65l66 1a25 25 0 0 1 2 0l-3 6-2 4-1 1-2 4z" class="O"/><path d="m158 197 9 7c4 4 4 8 4 13l-2 77c0 3-1 6-4 8l-31 16V195l1-9 7 2 4 2 12 7z" class="S"/><path d="m374 458 1 2v4H141l-1-2 5-9 1-3 4-3h216a25 25 0 0 1 3 3l2 2 1 3 2 3" class="R"/><path d="M185 67h169l4 3-2 4-5 8-6 5H174c-8 0-8 0-11-8l-1-2-3-4-1-3a11 11 0 0 1 0-3h27z" class="J"/><path d="M63 235v54l-1 8 1 8-1 8 1 16-1 10v17l-3 6-5 3-5 2h-4V153l-1-16 1-3h2l4 2 8 5 1 2a58 58 0 0 0 2 2s0 0 0 1l1 3v2l1 18-1 66m-15 58v-57h-1v125h1zm11-25v-34h-1v46h1z" class="T"/><path fill="#fefefe" d="M442 201v151l-7-3h-1l-3-2-1-1-6-4v-2l-2-3v-16h1c1-3 2-6-1-8v-8h1l1-13-2-3v-78l1-42c3-2 1-4 0-5l1-3 2-2 3-3 3-1 1-1 8-3 1 26v24z"/><path d="M346 210v-5l3-3 4-2 7-2c2 6 5 0 8 2l-8-3 4-4 3-2 6-3h2c1 4 4 2 6 2v2l-3 6v115h3c-1 2 2 6-4 5l-4-2-2-2-20-12-4-4-3-6v-24l1-43zm21 98a30 30 0 0 1 3 0l1-1-1-1-2 2-1-1-1-1-1 1 2 1" class="T"/><path d="m453 147 1-4 4-4 13-6-1 100-2 5v120c0 2-1 5 2 5v5l-1 1-4-2-5-2-5-5-1-3-1-4-1-8 1-49V147z" class="J"/><path d="m146 52-1-3-2-3-1-3-1-4h230l4 1-1 4-2 4-1 3-3 2c-4-2-6-1-5 3H157l-9-1zm94-1h-86v1h142v-1zm97 3h23v-1h-62v1z" class="T"/><path fill="#fdfdfd" d="M73 313V154l1-1 2-1a28 28 0 0 1 3 1l5 3h2v1l3 1 3 5 1 8 1 39-1 56 1 27v30l-1 14-2 7-2 1-8 4h-2l-3 2-1 1-2-4v-35m3-143v177h1V160h-1v10m14 14v24h1v-35h-1v11m-11-12v12h1v-22h-1z"/><path d="m399 329-4-3-2-1-1-142 1-5a28 28 0 0 1 2-2h2l4-2v-1l6-3 5-1v164l-3 1-3-2-1-1-2-1-2-1h-2z" class="Q"/><path d="m124 305-1 18-5 5-3 1-8 5h-1l-3-1 1-6V169l4 1 4 2 3 2 1 1a179 179 0 0 0 5 2l2 1v86l1 41z" class="O"/><path d="M326 117H217l-32-1-2-1-4-8-2-3-1-4v-2h159c2 0 4 1 5 3l-1 2-1 2-3 4-1 3-2 3 1 1h-3l-4 1z" class="R"/><path d="m340 403-4 2H175l1-2h7l-6-2v-2l2-2 1-4 1-2c3-4 8-5 13-5l79 1 3 1h42l3-1h10l2 4 2 4v1l2 2 1 2 2 3z" class="O"/><path d="m462 387-2 1a17 17 0 0 0-1 3l-2 2-2 2-9 7-3 5-5 4-5 6-5 4-2 3-1 1-3 2-7 7-6 6-3 3-3 3-2 2a49 49 0 0 0-3 2l-1 1-2 3-10 5-1-3a5 5 0 0 0-2-1v-2l-5-8v-1l2-6 1-1a97 97 0 0 0 3-3s0 0 1 0l1-2 5-4 5-5v-2l2-1 3-3 1-1 4-4h1l6-7 1-1 7-7a78 78 0 0 0 9-9l1-1 2-2 1-1 5-5 7-6c4-4 7-2 11 1l3 1v1l5 2 2 2v1a18 18 0 0 1 0 1 80 80 0 0 0-1 3l-3 2zM385 45l2-1 5 2 16 17 12 11 3 3 7 7 5 4 1-1 2 5 5 5 6 6 2 2a53 53 0 0 1 2 2l4 4 3 3 3 2 2 2 1 3-10 8a25 25 0 0 0-3 2l-2 1a105 105 0 0 1-3 1l-1-1-2-1-6-6-2-3-4-3-2-2-6-6-21-22-24-23-2-2-1-7 1-1 1-3 4-6 2-2zM123 457l-6-6-2-2v-1l-2-2-6-5-5-5-7-7-2-2-11-12h-3l1-1-4-4-3-4-4-2-5-6-3-3-3-3-3-3-2-2-2-2-1-5 5-4 4-2 2-1 4-2h4l12 12 8 8 6 6 3 3 3 3 4 4 12 11 1-1 2 6 4 2v1l13 13 1 2-3 9-3 6-4 4-3-1-2-2zM58 111v-1h-1l4-2 8-8 1-1 4-4 4-4 3-3 5-5 4-4 2-2 3-2 4-4v-1l8-8 5-4 2-3 4-3 8-8h3l4 5v1h1l2 5a36 36 0 0 0 2 2v4l-1 2a25 25 0 0 1-1 1l-3 4-5 4-2 3-3 3-53 52-1 1-4 2a81 81 0 0 1-3-2l-6-4-5-3-2-3 7-7 2-3z" class="J"/><path d="m197 347-1 1-1 3-1 1-1 3v1l-2 2-2 2-1 3-1 3-2 3c-1 2-3 5-6 2l-11-10-2-3-3-3-4-3-2-3-3-2-2-3-4-4-11-10v-1l5-5 28-17c3-1 6-1 8 2l18 18 2 2 3 3 2 5-4 7a22 22 0 0 0-2 3z" class="Q"/><path d="M334 314c9-8 9-8 20-1a497 497 0 0 0 18 10 88 88 0 0 0 4 2h1a23 23 0 0 0 1 2l-1 3-5 5v1l-4 3h-1a33 33 0 0 0-1 3l-5 5-2 2-3 2-4 4-3 4-2 2-5 4-3 4h-1l-2 2h-4l-3-4-3-6-3-5-2-3a14 14 0 0 0-1-2l-2-3-4-9-2-5 7-7a47 47 0 0 0 2-2l6-5 2-2 2-2a57 57 0 0 0 3-2zm35-131-22 11c-4 3-6 2-9-2l-12-13a25 25 0 0 0-2-2l-2-2-1-1-2-2-3-5a58 58 0 0 1-1-4v-2l1-2 9-15 1-4 2-3 2-3 1-2 2-1 9 6a98 98 0 0 0 2 2l3 4 3 2v1l2 1 4 4 1-1-1 2 7 6 3 4 3 2v1l2 1 3 3a109 109 0 0 0 3 3v6a94 94 0 0 1-4 2 48 48 0 0 0-4 3z" class="R"/><path d="m192 145 5 9c4 9 3 14-3 21l-17 19c-2 3-4 3-7 2l-11-6-2-2-4-1v-1l-6-3-9-7v-3l1-1 1-2 3-2 3-3 2-2a25 25 0 0 0 2-2l2-2 7-8 5-4 3-3 3-3 3-3h1l4-4 1-1c2-1 4-1 5 1l3 3 3 5 2 3z" class="Q"/><path d="m102 147-4 2h-5l-5-3-5-2-5-7 22-22 33-33 1-1 3-4 7-5h3v1l2 3 3 5 5 10-5 5-4 5-8 8v1l-1-1-2 3-4 3v1c0 1 0 0 0 0a9 9 0 0 0-2 1 272 272 0 0 0-5 6l-3 3a40 40 0 0 0-2 2s-1 0-1 0l-2 3-6 5-2 3a106 106 0 0 1-4 3l-4 5zM87 376l-6-7-3-7h1l3-2 8-4c4-1 8-5 12 1l5 4 11 12a139 139 0 0 0 5 4l4 4 1 2 3 2 4 4 4 4 3 3 6 6 1 1a37 37 0 0 0 2 2l2 2 2 2 1 1-1 7-5 7-6 8-4-3-3-3-7-8-5-4-1-2-7-6-7-7a56 56 0 0 0-2-2l-8-8-5-5-5-5-3-3zm329 12-8 7-3 4-6 5-4 5-4 3-3 4-4 4-2 2-7 6-1 1-6 2-4-9-2-3a19 19 0 0 0-1-2l-2-3v-1l7-9v-1a22 22 0 0 0 1-1l4-4h1l3-3 4-4 5-5 3-3 5-5 2-3 2-2h1l1-2h1l5-5 7-7a173 173 0 0 1 3-3c3-2 6-4 10-1l9 4v1l2 1c3 2 3 5 0 7l-10 11-6 6-1 1-2 2zm-15-253-7-8-4-3v-1l-5-4v-1l-3-3h-1l-2-2-2-2-5-6-5-4-4-6-4-8h1l1-2 5-9 2-2 2-2a9 9 0 0 1 2-1l1 1 19 20 28 27 4 5 4 2v1l2 2 8 11-8 5-3 2-11 2a53 53 0 0 1-2-2l-3-3-5-4v-1l-2-2v-1l-3-1zM171 376c6 5 2 9-1 14l-1 4-2 3a103 103 0 0 0-3 4h-3l-7-7-7-7-4-4-3-3-5-4v-1l-3-2v-1l-7-7-1-1-4-4-3-3-8-8c0-3 1-5 4-6l17-7 3 3a72 72 0 0 0 3 3l5 5 4 4 4 4 3 2 5 6 3 3 4 4a24 24 0 0 0 2 1 134 134 0 0 0 5 5" class="J"/><path d="m366 114 1 1 4 4 1 1 2 2 2 3 3 2 1 1 2 2 2 3 3 2 5 6 3 2 1 1 4 4v1l3 2v1c3 2 5 5 1 8h-1l-8 5a13 13 0 0 0-2 1l-2 1h-5l-3-1v-1l-5-4-8-9h-1l-8-9-1 1-3-6-11-10a14 14 0 0 0-1-1 21 21 0 0 0-2-2c-4-3-1-6 1-9l1-5 2-3a83 83 0 0 0 2-2l2-3 6 2 6 6 1 1 2 2zm-196 13-2 1-7 9-2 1-6 7-7 6-4 4-2 2-2 2-3 4-2 2-4 2-2 1-6-2-5-3-5-4a13 13 0 0 0-2-1v-4l6-6 3-3 1-1 4-4 5-4 4-5 1-1 5-5 14-13a28 28 0 0 0 2-2l2-3 2-2a21 21 0 0 0 2-1l4-2 1 1 4 7 2 4 1 1 2 3v6l-1 1-3 2z" class="I"/><path d="m401 341 4 4 1 4-3 3h-1l-5 6-1 1-3 4-6 4-4 5-3 3-5 5-3 3-4 4-2 2-2 3h-1l-3 3-3 3-2 1c-4 4-4-2-7-3l-1-3-4-6-2-7 2-2h1l2-3 2-2 3-3 3-4v-1l5-3 3-3 2-2 3-3 1-1a12 12 0 0 0 2-2h1l1-3h1l10-11h1l1-1h7l9 5z" class="J"/><path d="m132 82-32 33-22 22c-4-4-9-1-13-4l4-2 3 1-2-2 53-52c1-1 1-2 3-2l6 6m288 37-28-27-19-20 5-1-3-3 5-2a929 929 0 0 1 45 45l-5 8z" class="B"/><path d="M471 363c-4 0-3-3-3-5V238l2-5 1 6z" class="P"/><path d="M162 436a7 7 0 0 1 3 0h179v2H162z" class="B"/><path d="M381 313h-3V198l2-6 1 27z" class="O"/><path d="M412 329V169l-5 1 3-6h2c1 1 4 8 3 10l-1 6v143l-2 6m3-156s-1 0 0 0M350 67H201l5-2h144v2M134 186v129l-2-6V192l1-9c0-4 2-3 6-3l-2 4-3 2zm-10 119a1285 1285 0 0 1 0-72h2v50l1 6v30h-1v-10l-2-4" class="B"/><path d="m94 293-1-27 1-57h1l1 6v81l-2-3z" class="D"/><path d="M153 444h207v1H153v-1" class="K"/><path d="M162 438h193v1H165l-3-1z" class="D"/><path d="M64 235v-66l-1-18 2 4v20l1 55-2 5zm8-26 1 64-2-3v-58l1-3m371-32-2-26 5-4v28l-3 2z" class="B"/><path d="M257 37H145v-1h112v1" class="D"/><path d="M95 209h-1l-1-38-1-8 3 3v43z" class="B"/><path d="M329 408H225v-1h104z" class="K"/><path d="m130 419 7 7v1c-4-2-7-2-10-1l9 6 1 7-13-13 5-3 1-4zm100-7h-36v-1h94v1z" class="B"/><path d="m321 387-3 1a6352 6352 0 0 1-12-2z" class="F"/><path d="M257 37v-1h87a1 1 0 0 1 0 1zM72 313l1 35 2 4-1 2-3-3 1-37v-1zm22-20 2 4a309 309 0 0 1 0 22l-1 4a32 32 0 0 0-1 0v-30zm227 94a315 315 0 0 1-15-1l3-3h17l4 3-9 1z" class="B"/><path d="M416 177v72h-1v-72h1" class="D"/><path d="M306 376h19c2 0 3 1 4 3h-21l-2-3zM63 329l-1-16h2c4 3 1 8 2 12l-3 4zm64-40v-63h1v60l-1 3m311-149-8-11h4c3 3 7 4 11 2l1 1-3 4-1-2-1 1 2 1h-4l-1 4m-19 165 1-32v11l2 6v15h-1a21 21 0 0 0-2 0z" class="B"/><path d="M217 117h24l-8 2-16-2z" class="H"/><path d="m346 129 11 9-7 4-2-7-1-2-1-4M62 356v-17c3 0 4 1 4 3l-1 10v-6h-1v8l-2 2zm68-20-17 6 2-5 18-5v1l-3 3m288-31h1c1 3-2 7 3 8v8l-4 4zM273 14h2l-2 2h-41l-2-2h3l2 1 38-1zm148 60c-5-3-8-7-12-11l1-2c3 3 5 6 9 7 3 1 4 3 2 6m-236-7h-25v-2h20l5 2" class="B"/><path d="M257 127" class="C"/><path d="m137 330 10 10h-5l-2-3a37 37 0 0 1-3-7zm346-65-1-2 1-45v47zM153 394l8 7-7-2-5-1 4-4m15-33 10 10c-6 0-10-3-10-10m215-24-10 11-4-4c2-1 6 2 6-3l5-4v-1zm-197 68h14l1 2v1h-16v-1l1-2zM55 376l-5 4 1 5c-5 1-4-3-4-6 0-4 3-4 5-3h3m361-87v39h-1v-39h1" class="B"/><path d="M209 124h23v1h-38v-1z" class="D"/><path d="M201 122h31v1h-38v-1z" class="K"/><path d="m161 137 7-9c1 7 0 9-7 9m-17 295 6-8h4l-2 5zm43-295-3-3c-1-2-3-2-5-1 1-4 3-4 9 0l-1 4zm-55 319 3-6 3 6-2 3-2 3zm-6-412-8 8-2-3c3 0 4-7 10-5z" class="B"/><path d="M344 37v-1h32v1h-32" class="D"/><path d="m145 350-4-3 1-7 1 3c4 3 4 3 2 7zm223 81 6-2c0 2 3 4 0 5-2 1-5-1-7-2a6 6 0 0 1 1-1z" class="B"/><path d="M273 124h31v1h-31v-1" class="K"/><path d="M386 231v-29h1v30h-1v-1m32 21v-18h1v30h-1zm25-51-1-8 4 3c0 2 1 5-3 5" class="B"/><path d="M453 185v16a156 156 0 0 1 0-16" class="G"/><path d="M305 87h16l-1 2-15-2zM107 62l-8 8c-1-4 4-9 8-8m197 60h-30zm-31 2v1h-15v-2l15 1m75 273c3 0 3 6 7 2l-2 5-3-3-4-1zm90-19c-1 3-3 4-5 6l-1-7 6 1zm-74-267c-3-1-5-3-7-6v-1l5-2zm-1 47-6-6 5-1zm-240 66v-7l2-8h1v16h-1l-2-1zM430 84l-7-7c7 0 8 0 7 7m-2-5s1 0 0 0M125 365l7 7c-5 1-8-1-7-7" class="B"/><path d="m366 404-7 9c-4-2-1-4 0-5l5-5 2 1z" class="D"/><path d="m68 100-7 8c-1-6 2-8 7-8m21 290-8-7 9 3zm289-229 5 4-3 3c0-3-6-3-2-7m-29 198 4-4h1l-2 6-3-2zM59 141l-8-5v-1c5 0 9 2 8 6m361 244 4-5 2 7-6-2z" class="B"/><path d="M381 190c-2 0-5 2-6-2l6-3z" class="O"/><path d="m90 355-8 5c-2-4-1-5 3-5l3-1 2 1m29 5 5 4-10-2-1-1zm334-213v14l-1-1 1-13M78 362l3 6c-5 4-5 0-7-3zm257 11 6 5-9-5h3zm-226-23 8 7c-5 0-8-1-8-7m47-317h2v1h-11v-1zm-49 301 8-5-2 4c-1 3-3 3-6 1zm26-265 3-4c3 0 4 1 2 3-1 2-3 4-5 1m24 22-4-9c5 0 5 4 4 9m-2 326 1-7 5 7h-6zm251-277 5 4-5 1zM117 406l6 6c-3 0-7-1-6-6M359 87l3 8c-5-1-5-6-6-10l3 2m53 318-6 7c-1-2-3-3 0-4l3-4zM159 151l-7 8c0-4 2-7 7-8m236 14 8-4c-1 4-4 6-8 4M63 305v-8c4 2 3 5 0 8m90-160 5-6c1 3 1 7-5 6M64 265l-1-8c4 2 4 5 1 8m112-165 1 5v2l-5-5 1-1v-1h3zm274 96 1-3v23h-1zM152 357l-3-3-1-6 4 4v5m9 9-4-3 4-5zm259 31-7 7c0-1-2-4 2-4l2-4 3 1zm-91 11v-3h7l1 3h-8zm59-151v23h-1v-23a1 1 0 0 1 1 0zm45 102-9-4c4 0 8-2 9 4M132 131l-4 4-3-2c3 1 3-5 7-2zm293 261-5 5-1-5h6zm-86-23 4-4h2v2c-1 4-3 3-6 2m46-250 5 4c-5 2-5 2-5-4m20 41c3-3 1-6-2-8l5-3c-3 4 3 8-3 11M107 360c-2 0-3-2-5-3l3-2 3 2zm294-19-9-5c4 0 7 1 9 5M76 410l4 4-3 1c-1-2-5-2-1-5zm357 7 5-6c1 4 0 7-5 6M133 49l-4-5h-3l1-3 4 1 2 7zm272 363-4 4v-6l4 2zM118 145l-3 3h-4l-1-2zM91 344l2-7c6 4-1 4-2 7m-9-200 6 2-4 1c-3 1-4 0-2-3zm375-34-4-3 2-4h1l1 7zM148 402l-6-6c6-3 4 3 6 6m301-300-5-5 9 4-4 1m-49 46-4-4 4-3zm-298-1 4-5v6l-4-1zm292 276-4 4-3-2 7-2zm16 17 4-5c6 5-1 3-2 5h-2zm-34-12 6-6c1 5-4 4-6 6m67-21 3-4c5 2-2 3 0 5l-3-1zM164 102l-4 2-3-3 1-1 6 2m169 289-2-4c5-1 5 0 4 6l-2-2zM85 60l-5 9c-1-3 1-7 5-9m20 347-4-4 3-3z" class="B"/><path d="M387 280h1v16h-1z" class="K"/><path d="M363 56c-1-4 1-5 4-2l-4 2" class="P"/><path d="m381 185-6 2-2 1c2-2 4-6 8-3" class="E"/><path d="m147 183 6 3-4 2-2-5zM95 385l5 4-3 2zm74-275-4-7c4 0 3 4 4 7m174 278 3 5-7-3 4-2zm36 50-2 6-3-4zM126 123l5-5c1 3 1 6-5 5m7 42 2-2 4 4-1 1-5-3zm-17-2 5 3-4 2zm368 166v15h-1l1-15zm-69-80h1v16h-1v-16zm6 16 1 8h-2zm-275-76-4-1-2-2c3-1 6-1 6 3z" class="B"/><path d="m140 186 2 2-7-2 2-1 3 1" class="F"/><path d="M386 283v5h-1v-14h1zm15-110v1l-4 1-1-3c2 2 3-5 5 1z" class="B"/><path d="M483 137v15h-1v-15h1z" class="D"/><path d="M225 407v1a162 162 0 0 1-16-1h16zm152-229v-5l5 4-5 1" class="B"/><path d="m424 342 5 4c-3 1-5 0-5-4" class="C"/><path d="m372 119-5-4 6-1zM102 436l5 5h-5z" class="B"/><path d="M452 345v8-8" class="G"/><path d="M337 87h8c-2 4-5 2-8 0M81 349l8-4zm57-177-1 4-2 2-1-1 4-5m10-71 4-4v4h-4m247 353 2-2 3 4-1 1zm-268-73-4-4 5-1zm217-242-2-2 3-3 1 1zM165 401l2-4 3 1-5 3M392 45l-5-1c-2-4 1-2 2-2 4-1 3 1 3 3m4 98-3-2 2-3 2 1zm-273-3-4 4-1-5zm291 215-3 4 1-5 2 1" class="B"/><path d="m361 347 5-5-2 5h-3z" class="C"/><path d="M319 14h7c-2 1-5 4-7 0m78 344 5-6c1 4 0 6-5 6m-24-42 4 2-1 2c-2 0-5-1-3-4zM337 14l2 1-9 2v-2zm40 43 1 7c-4-1-4-4-1-7M137 427l3 1-4 4 1-5z" class="B"/><path d="m435 350 7 2z" class="C"/><path d="m118 328 5-5 1 1-1 3z" class="L"/><path d="m405 331 1 1 1 2-1 3-1 1-1-6h1zm-28 115c2 1 3 4 4 6l-2 1zm-254-70c-2 0-3-1-4-3l6-1zm53-263 2-1 2 4-1 1-3-4z" class="B"/><path d="M357 104v1l-6-2c2-4 4-1 6 1z" class="C"/><path d="m173 115-2-1 2-5 3 4-3 2zM54 366l5-4c-1 2 1 7-5 4m397-191v9h-1v-12h1zm-71-48-3-2 3-3 1 1zm-3 45-3-3 6-1zm41 133-1-12h1zM147 72h-3l4-4 1 1-2 3zm258 327 3-3 2 2-5 1z" class="B"/><path d="m458 139-4 4-1-2 3-2a13 13 0 0 1 2 0z" class="G"/><path d="m49 121 2 3-5-1 3-2zm411 245 5 1c-3 5-4 1-5-1m-321 27-4-4 3-1zm-4-17 5 4c-4 2-4-2-5-4" class="B"/><path d="m326 361 3 6-4-5 1-1" class="C"/><path d="m98 71-3 3c-2-2-1-4 3-3M69 404l4 2c-2 1-6 4-4-2m105-280v-6c3 2 3 4 0 6M63 289v-6 6m333 120 3-5c1 3 1 5-3 5m-22-14-2 3-2-5zm26 22-3 3-2-4zM178 133l-5 4a24 24 0 0 1 5-4" class="B"/><path d="m372 335 5-5v4l-2 1h-3z" class="C"/><path d="m448 134 3-2v4c-2 0-3 1-3-2zm-113-21c-1-2 0-3 1-4h2c0 2 0 4-3 4zm66 22 2 1-4 3v-2l2-2zM125 414l4 4c-3 1-4 0-4-4m246-16-4 4 4-4M108 169h-4c1-3 1-3 4 0m45 18 3 1-4 3 1-4zm-80-34-3-2 3-1v3" class="B"/><path d="m176 401 7 2h-7v-2" class="F"/><path d="m376 380 4-5-4 5m27-14-4 4 4-4M137 125l-4 5a25 25 0 0 1 4-5" class="B"/><path d="m356 74 2-4c1 2 3 4-2 4" class="D"/><path d="m388 416 3-4 2 3zM56 128c2 0 3 1 5 3-2 0-5 1-5-3" class="B"/><path d="m326 117 4-1v2l-1 1-3-2z" class="H"/><path d="M171 376h-1l1-4 2 1-2 3m293 2-5-2h5v2" class="B"/><path d="M51 135v1l-4-2v-1l1 1h1l2 1z" class="M"/><path d="m107 352-2-6h2v6zm59 19-2-1 3-1-1 2m229-1v-4l2 1-2 3zm-11 2 3-5-3 5m-12-37h3c1 3 0 3-3 3v-3M142 156l4-4c0 2 0 4-4 4" class="B"/><path d="M423 164c1 1 3 3 0 4l-1-3v-1h1" class="F"/><path d="m98 399-3-2 2-2z" class="B"/><path d="m140 39 1 4-4-4zM95 323l1-4v9h-1z" class="D"/><path d="m359 349 2-2 1 4h-1zm73 36-2 2-1-2h3" class="B"/><path d="M123 185v-5h1l-1 5z" class="L"/><path d="m367 101 4 4c-2 0-4-1-4-4M63 149l-1-3c4-1 3 0 1 3m30 1 5-1-5 1M81 88c-1 1-1 2-3 2 0-1-1-4 3-2m272 59a6 6 0 0 1-3-1l5-1v1l-2 1zm25 244-3 4 3-4M166 144l-2 3c-2-2-2-2 2-3m-12-35-2 3-3-4z" class="B"/><path d="m345 111-1 4 1-4" class="C"/><path d="M335 395v-1l3-1-1 3-2-1zM90 79l-4 4 4-4m293 355-3 3v-4l3 1zm-230 10v1l-1 1-2 1c0-2-1-5 3-3m306-53a4 4 0 0 1 1-2l1 3-2-1" class="B"/><path d="M338 109h-2l2-4v4" class="E"/><path d="m368 74-1 2-4-3zM103 333l3 1-2 2-1-3m380-196h-1v-9h1v9z" class="B"/><path d="M345 365h-2l4-4-2 4" class="C"/><path d="m338 123 2 3h-1l-1-3M134 462l3 1-1 2-2-3zM70 91l3-1v2l-3-1zm386 48-3 2c-1-2 0-3 3-2m-11 234-3-3 1-1 2 4m-29-100v8h-1v-8h1z" class="B"/><path d="M209 407v1h-8v-1h8z" class="K"/><path d="M136 342c-1-1-2-1-2-3a7 7 0 0 1 2 3m-27-188v3h-2l2-3m17 39v8h-1v-8h1m275 170-2 1v-2l2 1M121 177l-5-2 5 2m305 247 2-3c0 4 0 4-2 3M127 196v-1l1-1v6h-1zm10-119-3 4 3-4m309 271 1-3 1 1-2 2zm-265 43-1 2-2-3 1-1 2 2m-53-211v4h-1v-6l1 2m15 203 4 3c-2 0-3-1-4-3" class="B"/><path d="M126 193h-1v-7h1v7z" class="D"/><path d="m382 116 3 2-3-2m100 67v-5h1v6l-1-1M368 387l3-3-3 3M86 156h-2l2-4 1 1zm71-51-1 2-2-3 1-1zM47 369l-3 2 1-2h2z" class="B"/><path d="M416 273h-1v-8h1v8" class="D"/><path d="m123 327 1-3 2 2-3 1zm240 20h1l3 2-1 1-3-3zM69 371h-4c1-3 2-3 4 0" class="B"/><path d="M185 407v1h-8v-1h8z" class="K"/><path d="M254 120h-4v-1h6l-2 1m132 181v3h-1v-6h1zM73 95l-3 4 3-4" class="B"/><path d="M125 225h1v8h-1v-8z" class="D"/><path d="m132 373 3 2-3-2m253 47 3-4-3 4" class="B"/><path d="M197 119h-3v-1h6v1z" class="H"/><path d="m146 165-2 3 2-3m-27-31 2-1-1 3-1-2" class="B"/><path d="M47 369h-2v-2a10 10 0 0 1 4 0l-2 2" class="M"/><path d="M350 67v-2l4 2h-4" class="D"/><path d="m133 115 4-3a13 13 0 0 1-4 3m-33 56 1 5h-1z" class="B"/><path d="M415 281h1v8h-1v-8zm-290-80h1v8h-1v-8z" class="D"/><path d="m329 367 3 4-3-4" class="C"/><path d="M218 119h6v1zm-90 96-1-5h1zm-20 183 2 1-2 3-1-1z" class="B"/><path d="M388 257h-1v-7h1z" class="K"/><path d="m379 53-1 3-2-2 3-1zm14 310 2-4-2 4m-312-3-2 2a8 8 0 0 1 2-2" class="B"/><path d="m351 370-3 3 3-3" class="C"/><path d="m388 476-2 1v-3l2 2" class="B"/><path d="m194 368-2 4v-2l2-2" class="F"/><path d="m359 359-3-2 1-1 2 3m31-235 3 3-3-3m-20 59 3-3-3 3m-9 212 2-3-2 3m-303-2 3 2c-1-1-5 2-3-2m119 14v1l-2-3 2 1v1zM39 396l-2-1 1-1z" class="B"/><path d="M372 336v2l-3 1 3-3" class="C"/><path d="M142 34h2v1h-5v-1h3zm-84 75-1 1-2-3 2-1 1 3zm354 288 2-2 1 2h-3zm-306-57 2-1 1 1h-3m323 48-3 3v-4zM124 180h-1v-2h3l-2 2zm0 245-4-2 4 2m292-36 2-3-2 3m-60 36-2-2 3 1-1 1" class="B"/><path d="M483 128h-1v-7h1z" class="D"/><path d="m149 161-1 2-2-2h3z" class="B"/><path d="M335 373h-3v-1l3-1v2" class="C"/><path d="M125 460h3l-2 2-1-2m294-127-1-3h1zM372 64h2l-1 1-1-1" class="B"/><path d="m74 153-1-2h3v1l-2 1z" class="M"/><g class="B"><path d="m459 375-2-1v-3zM380 46l-1 1-1-1h2zm-24 47h-2l1-1 1 1zM161 403l2 2-1 1-1-3z"/><use href="#B"/><path d="m57 111-1 2-1-1 2-1m82 48 1-2 1 1-2 1"/></g><path d="M375 44v-4 4" class="D"/><path d="M157 352h-3 3z" class="B"/><path d="M354 355h-1l3-3-2 3" class="C"/><path d="m387 328-1-2h1zm-228 25c1 0 2 0 3 2l-3-2m222-27 1 3h-1v-3zM68 80l1-2 1 1-2 1zm-21 53v1h-2v-2l2 1m107 219h-2l1-3 1 3z" class="B"/><path d="m359 415 2 2-2-2" class="D"/><path d="m466 121-1-3 1 3" class="B"/><path d="m336 371 2-2-2 2" class="C"/><path d="m333 116 3 1-1 1-2-2zM159 73l2 4-2-4" class="B"/><path d="m76 351 2-2-2 2" class="M"/><path d="m391 167 2-1-2 1M163 356l3 2-3-2m-86 2-2-1 1-1 1 2m290-4-3 3 3-3M87 377l3 2-3-2m307-2-2 3 2-3m-225 19 1-4-1 4" class="B"/><path d="M405 331v1h-1v1c-1 0 0 0 0 0l-1-2h2z" class="F"/><path d="M176 100h-3l3-2v2z" class="E"/><path d="m397 175 4-1-4 2v-1" class="F"/><path d="m399 451 1-3-1 3" class="B"/><path d="M335 394v1l-2-4 2 2v1z" class="F"/><g class="B"><path d="m357 398 3-3v3zM86 76l1-2 1 1-2 1"/><use x="328" y="-320" href="#B"/></g><path d="m431 348 3 1-3-1" class="C"/><path d="m140 462 1 2h-2l1-2" class="H"/><path d="m465 385 1-2 1 1-2 1z" class="B"/><path d="m146 450-1 3-2-4h1z" class="H"/><path d="m134 50 2-2 1 1a20 20 0 0 1-3 1m228 52v-3l2 1-2 2zM167 416l-2 2a5 5 0 0 1 2-2m197-24 2-3-2 3m-18-291h-2v-1l2 1zm4 313 2-1v1z" class="B"/><path d="m330 134-2 3v-3h2z" class="C"/><path d="m110 139 2-3-2 3m62 260 1 2h-1v-2z" class="B"/><path d="m185 369 2-3v3h-2z" class="C"/><path d="m362 419 2 3-2-3" class="D"/><path d="m422 337 2 2-2-2" class="F"/><path d="m467 381-1-1a9 9 0 0 1 3 0v1a11 11 0 0 1-2 0zM359 100l-1 2v-2h1M115 364l2 1-2 1v-2zm-62 23 2 2-2-2m416-265v-2h1v3h-1v-1M94 75l-2 2a5 5 0 0 1 2-2m24 56 2-3-2 3" class="B"/><path d="m376 324-3-1 3 1" class="C"/><path d="m386 383-2 2 2-2M171 127l2-2-2 2" class="B"/><path d="M194 137c1 0 2 1 2 3l-2-3m239 17-2 1-2-1v-1h2l2 1z" class="C"/><path d="m340 403-2-2 2 2" class="F"/><path d="m369 164-3-2 3 2m-3-50-2-2 2 2M110 40l-1-1h1v1zM76 152v-1l3 2-3-1zm16 6h2l-1 1-1-1m312 288 2-2-2 2M116 332v2h-1l1-2m28 117h-1v-4h1v4zm270-302 2 2-2-2m57 229 1 2h-1v-2zm-44-26 1-1v1h-1m-270-1 2 3h-2zm315-230v-2h1v3h-1v-1m-68 18 2 2-2-2m-216-17h-2v-1h3v1h-1z" class="B"/><path d="m157 67 1 3-3-2 2-1" class="D"/><path d="m172 138-2 3 2-3m304-31h2l-1 2-1-2m-147 12 1-1 2 2-3-1" class="B"/><path d="m191 373 1 2h-2l1-2z" class="U"/><path d="m166 98 2 1-1 1-1-2m272 275 1-1v1h-1m-266 37h-2v-1h3v1h-1m20-265-2-3 2 3m177 206-1 2 1-2m66 10-2-1 2 1m-31-9 2-2-2 2m-43 7-1 3-1-3h2m44 0h-2 2" class="B"/><path d="m453 358 2 2-2-2" class="G"/><path d="M389 421h2-2zm-251 20-1-2 1 2m247-9-1 2 1-2m-292-3-1 2-1-1 2-1zm264 0-1-2 1 2m-264-2 2 2h-2v-2zm350-2v2-2m-20 2 2-2-2 2" class="B"/><path d="m162 422-1 3v-2l1-1z" class="F"/><path d="M161 423v2l-1 1 1-3" class="D"/><path d="m368 442-2 1v-1h2zm-242-21h-1l1-1v1zm269 0-2-1h1l1 1zm-335-2v1l-1-1h1m58-2a15 15 0 0 1 1-1 13 13 0 0 1-1 1z" class="B"/><path d="M175 415h-2 2" class="F"/><path d="m169 412 1 1h-2a3 3 0 0 1 1-1zm-52 1h-2 2zm221-2h-1l1-1v1m-215 46 2 2-2-2m217 30-2 2 2-2m6-2h2v1l-2-1m15 0-2 1 2-1m-237-21h-2 2m267-2 1-2 1 1a6 6 0 0 1-2 1z" class="B"/><path d="m375 460-1-2 1 2" class="H"/><path d="m384 457 1 2-1-2m-219-48h1l-1 1v-1m217 46 2 1h-2v-1" class="B"/><path d="m374 457-2-2 2 2" class="H"/><path d="M375 453v-2 2z" class="B"/><path d="m371 452-2-2 2 2" class="H"/><path d="m115 449 2 2-2-2" class="B"/><path d="m369 449-2-2 2 2" class="H"/><path d="m112 447 3 1-3-1m260-3v2-2M61 373l-2 1 2-1" class="B"/><path d="m343 378-2 2v-2h2z" class="C"/><path d="M354 24h-1l1-1v1" class="B"/><path d="m345 375-1 2 1-2" class="C"/><path d="m176 377-2-1 1-1a6 6 0 0 1 1 2zm-97-1h-1l1-1v1zm390-2h-2 2zm-73-1-1 2 1-2m67 0h-1l1-1v1zm-329 9v-1l1 1h-1m264-11-1 2 1-2m-71 0h1l-1 1v-1" class="B"/><path d="M469 369h1l1 1-2-1" class="G"/><path d="M119 367v2-2m231-2h-2 2m4 0a19 19 0 0 1-1-1l1 1zM64 398l-1 1 1-1zm91 11-2-2 2 2M342 17l2-1v1h-2m63 388h1l-1 1v-1zm-254 0-2-2 2 2m215-1a4 4 0 0 1-2-1h2v1m-213-1v-1l1 1h-1m8-2h2l-2 2z" class="B"/><path d="m179 397-2 2 2-2m156-1h2v2l-2-2" class="F"/><path d="m455 395 2-2-2 2m-313-6v2-2m-49-1v2-2m370-1 2-2-2 2m-332-2-2-2 2 2M95 154h-1l1-1v1m327 10v1l-2-1h2M87 64v1l-1-1h1zm321 98v1l-1-1h1" class="B"/><path d="m425 159-1 2 1-2" class="F"/><path d="M109 158h2l-2 2v-2zm-20 0-3-1 3 1m340-4 2 1-2 1v-2zm-58 12-2-1 2 1m-221-14v2-2" class="B"/><path d="M160 65v2h-2l2-2z" class="D"/><path d="M428 151v-2 2m-17-2h1l-1 1v-1m-8 1-3-1 3 1m-46 0 1-1-1 1zm71-3 2-2-2 2m-68-3a16 16 0 0 1-1 1h-1l2-1zm-10 1-2-2 2 2m-288 0-2-2 2 2m293-2h2-2m-281-1v-2 2m321 34-2 1 2-1" class="B"/><path d="m146 53 2 2-2-2" class="D"/><path d="m113 55-1 3 1-3m25 2-1-2 1 2m268-1h2-2zM142 69h-1l1-1v1zm230-12v2-2zm43 1v1l-1-1h1zM115 173l-2-1 2 1m25-3-1 2 1-2m-21 1h-2 2m19-108v-2 2m-11 105 2-1-2 1m256-2 3 1-3-1m-273 0v1l-1-1h1zm236-65 2 1-1 1-1-2zm31 10 2 2-2-2m-240 1 2-2-2 2m-94-1v1l-1-1h1zm328-2v1l-1-1h1" class="B"/><path d="m347 108-1-1 1 1" class="C"/><path d="M177 107v-2l2 2h-2" class="E"/><path d="m451 105-2-2 2 2m-86-1h-1l1-1v1z" class="B"/><path d="m351 103-2 2 2-2" class="C"/><path d="M475 111v2-2z" class="B"/><path d="m339 103 1-2-1 2" class="E"/><path d="M350 99h1l-1 1v-1zm-191-5v-1l1 1h-1zm-99-7 2 1-1 1-1-2zm293 0v-1l1 1h-1m83 0a15 15 0 0 1 1-1l-1 1m-75-2-1 2 1-2M62 83l2 1-1 1-1-2zm96-5h-1l1-1v1z" class="B"/><path d="m325 128-2-1 2-1v2z" class="C"/><path d="M42 133v3h-1l1-3zm345 1-3-1 3-1zm-15-63h-2l1-1 1 1z" class="B"/><path d="m333 130-2 2 2-2" class="C"/><path d="m454 131 2-2-2 2" class="B"/><path d="m190 129 1 2-1-2" class="C"/><path d="M155 72v-1l1 1h-1zM42 133v-3h1l-1 3zm420-4v1l-1-1h1m-120 0h1l-1 1v-1m40 0-2-1 2-1zm-10 219-1 3 1-3M127 75l1-3-1 3" class="B"/><path d="m192 127-2 1v-2h1l1 1" class="C"/><path d="m121 128 2-2-2 2" class="B"/><path d="m343 125 2 2-2-2" class="C"/><path d="m149 75-2-2 2 2m225 46-2-1 2 1" class="B"/><path d="m183 115 2 1-2-1" class="H"/><path d="m463 116-2-1 2 1m-84-3 2 2-2-2m41 225h-2 2zM400 43l-2-1 1-1a6 6 0 0 1 1 2zm-4 2v-1l1 1h-1zm-11 0-2 2 2-2" class="B"/><path d="m143 47 2 2-2-2" class="D"/><path d="M399 329h2-2m-10 1v2-2m4-5 2 1-3-1h1z" class="B"/><path d="m379 327-2-2 2 2" class="C"/><path d="M398 333h-2 2z" class="B"/><path d="m408 334-1-2 2 1-1 1z" class="F"/><path d="m390 323-1 1v-2l1 1m-259-7v-1l1 1h-1zm254 20-1 1 1-1M106 49v2-2" class="B"/><path d="m366 342 1-2-1 2" class="C"/><path d="m371 51 1-2-1 2" class="D"/><path d="m359 353-1 1a3 3 0 0 1 1-1M109 152l-1-1h1v1" class="B"/><path d="m347 133 1 2-1-2" class="C"/><path d="M109 405h1-1M91 153l1-1-1 1m7 177-1 1 1-1zm323 120-1-1 1 1M142 24h2v1l-2-1zm190 96h2v1l-2-1zM139 37h-2l2-1v1m344 84h-1v-2h1zM343 402v-1 1m63-353-1 1a3 3 0 0 1 1-1M101 457l1 1h-1v-1zM291 17l-1-1 1 1zM60 134v-1 1M48 402l1 1h-1v-1zm26-256-1-1a3 3 0 0 1 1 1z" class="B"/><path d="M139 37v-1l2 1h-2" class="D"/><g class="B"><path d="m53 410 2-1v1h-2zm58-266-1-1h1v1m312 286v1-1M194 142l-1-1h1v1m193 41-1 1 1-1m30 153-1-1h1v1zm23 30 1-1-1 1m11-230h2v1l-2-1zm-54 276v1-1zM191 126h-1l1-2v2m176 357 1-1-1 1m-265-86-1 1v-1h1M49 133l-1 1v-3h1v2zm362-85 1 1-1-1M64 87l1 1-1-1zm331 383 1-1v1h-1M152 23l-1 1v-1h1m-11 40a3 3 0 0 1-1 1l1-1zM97 166a3 3 0 0 1-1 1l1-1zm339 191-1-1 1 1m-57-34-1-1 1 1zM369 62a3 3 0 0 1 1-1l-1 1m-6 382 1 1-1-1zM136 74l1-1v1h-1zm243 404a3 3 0 0 1-1-1l1 1zM143 61l1-1-1 1m195 328-1 1 1-1zM177 127l-1-1 1 1zm-25 302 1 2h-1v-2zm-20 36-1-1 1 1m234-308v-1 1m63 224h-1 1M162 98l-1-1 1 1m279-27h1v1l-1-1m-7 368v1-1M389 32l1 1-1-1M165 361h-1 1m-10 69h-1 1m218 19v1-1M116 138v-1 1M42 365h-1 1m69-5h-1 1m51 59h-1 1m299-310 1 1h-1v-1zm-77 208v1-1M140 448h1-1m321-339h-1 1zm-320 1h-1l2-1v1h-1m263 223-2 1v-1h2m-27 1v-1l1 1h-1m-39 47h-1 1m54 37v-1 1m79-289h1-1M165 365h-1 1m-38-43h1-1m265 7v1-1m-256 56v1-1m-76 15v1-1m41-70h-1 1m32-214 1 2h-1a9 9 0 0 1 0-1v-1m23-18v-1 1M85 442v-1 1m309 24v1-1"/><use href="#C"/><path d="M464 111h1-1m-90 50-1 1v-1a6 6 0 0 1 1 0zm35-116h1-1m-71 348 1-1v1h-1zM444 92v1-1M86 445h1-1m88-55v1-1zm-9-302v1-1m197 393v1-1M82 374v1-1m-28 40h1-1m87 39h-1 1m308-313h1-1m-63 192v1-1m47 103h1-1"/></g><path d="M345 367v-2 2" class="C"/><g class="B"><path d="M472 384h-1 1"/><use x="-23" y="-13" href="#C"/><path d="M135 42v-1 1m25 42h1-1m258-19v1-1m-28 113h-1 1m22 279v1-1m-43-304v-1 3-2m0 2 1 1h-1v-1"/><use href="#D"/><use x="-317" href="#D"/><use href="#E"/><path d="M369 446c-1 0 0 0 0 0"/><use href="#F"/></g><path d="m173 101-1 1 1-1" class="E"/><g class="B"><path d="M162 89c-1 0 0 0 0 0"/><use href="#G"/><use href="#H"/><use href="#I"/><use href="#J"/><path d="M458 85c0 1 0 0 0 0"/></g><path d="M377 464c1 0 0 0 0 0" class="H"/><g class="B"><use x="331" y="252" href="#H"/><path d="M391 462z"/><use x="-87" y="397" href="#G"/><path d="M152 101zm18 1c-1 0 0 0 0 0m262-26c0-1 0 0 0 0"/><use x="288" y="-319" href="#I"/><use x="349" y="-280" href="#I"/><use href="#K"/><path d="M148 104c0 1 0 0 0 0"/><use href="#L"/><path d="M379 453z"/><use href="#M"/><path d="M144 108c0-1 0 0 0 0m-6 344c-1 0 0 0 0 0m35-343z"/><use href="#N"/><path d="M174 390z"/><use x="316" y="-184" href="#I"/><use x="309" y="-7" href="#N"/><path d="M117 168"/><use x="-307" y="19" href="#K"/><path d="M400 43z"/><use x="295" y="131" href="#L"/></g><path d="m325 373-1-1 1 1" class="U"/><g class="B"><path d="M374 161zm-265-1z"/><use x="249" y="-404" href="#E"/><use x="296" y="69" href="#H"/><use x="336" y="-64" href="#I"/><path d="M360 398z"/><use x="-214" y="-196" href="#K"/><use x="3" y="303" href="#J"/><use href="#O"/><path d="M176 377z"/><use href="#P"/><use x="-288" y="-72" href="#M"/><use x="-265" y="-299" href="#K"/><use x="233" y="-396" href="#E"/><use x="10" y="31" href="#I"/><path d="M429 153v1-1c-1 0 0 0 0 0zm46 233c0-1 0 0 0 0m-59-209h-1 1"/><use x="214" y="357" href="#L"/><use x="-316" y="-403" href="#M"/><path d="M474 388c-1 0 0 0 0 0"/><use x="-33" y="97" href="#F"/><use x="11" y="144" href="#J"/><path d="M80 415h1-1"/><use x="309" y="-312" href="#E"/><path d="M473 132c0 1 0 0 0 0"/><use x="96" y="19" href="#D"/><use x="42" y="-312" href="#I"/><path d="M387 132z"/><use x="-111" y="41" href="#G"/><path d="M376 320zm6-193z"/><use x="343" y="-286" href="#I"/><use x="196" y="95" href="#L"/><use x="376" y="36" href="#N"/><use x="7" y="-372" href="#E"/></g><use x="235" y="406" class="D" href="#L"/><g class="B"><use x="1" y="261" href="#O"/><use x="-246" y="247" href="#P"/><path d="M412 440zm-255-82c-1 0 0 0 0 0"/><use x="-22" y="48" href="#J"/><path d="M326 368c0 1 0 0 0 0m105-215h-1 1"/><use x="50" y="56" href="#J"/><use x="-1" y="272" href="#J"/><use x="350" y="-28" href="#O"/><path d="M113 405c1 0 0 0 0 0"/><use x="-7" y="35" href="#D"/><use x="61" y="-288" href="#K"/><use x="367" y="-64" href="#O"/><use x="104" y="312" href="#J"/><path d="M164 141zm0 0zm-4 0c0-1 0 0 0 0"/><use x="-328" y="52" href="#G"/><use x="52" y="-54" href="#P"/><use x="38" y="62" href="#F"/><use x="127" y="-162" href="#O"/></g><path d="m276 258-8-4-2-3 65-38 3-2h4v82h-2l-1-1a47 47 0 0 0-3-1s0 0 0-1l-3-1-3-2-3-1-8-5-2-1-6-3-3-2v-1l-4-1-22-13-2-2z" class="Q"/><path d="M177 289v-80l74 42-19 12-53 29-2-3m6-5v3h1v-69h-1v66m-2-61v-4h-1v69h1zm0-6s0-1 0 0m100 80 1 3 2 3 1 2 3 5 3 5 2 3 6 12h-82c1-2 1-5 3-6l29-51 5-8c3-4 4-4 7 0l12 19 4 7 2 4a26 26 0 0 0 2 2" class="O"/><path d="M247 228v-1l-3-4v-2l-2-2-1-2-2-3-11-19-1-2v-2l-3-5-4-6a19 19 0 0 0-2-3l-3-8 10 1 1 4h-1v1l27 1h38v-2h-2l2-4h10l-3 5-2 3-3 7c-4 0-3 2-3 5l-7 13-2 3-4 8a16 16 0 0 0-1 2l-11 18-2 3c-4 5-6 5-9 0l-4-6a55 55 0 0 0-2-3m-25-49 1 1 1-1h-2m68 3s0-1 0 0" class="S"/><path d="m315 214-41 24h-3v-3l21-36 16-25 2-2 16 18 7 7c3 4 2 6-2 8l-16 9zm-76 22-17-10-3-1-38-23c6-10 13-19 22-27l2-2h3l2 4a63 63 0 0 1 2 3l7 13 2 2 1 3a14 14 0 0 0 2 2l9 16a19 19 0 0 0 2 3l9 16-1 4-1-2-3-1z" class="J"/><path d="m283 288-10-18v-5l28 16 3 2 13 7 3 2 1 1 2 1 8 5 3 1-1 5-3 2a13 13 0 0 0-1 1l-2 2-3 3-3 3-8 7-8 2-3-5-5-9-2-2v-1l-2-2-8-15a37 37 0 0 0-2-3zm-40-18-22 36-8 15c-3 6-6 7-10 2l-22-22 29-17 27-16 3-2h2l1 4" class="I"/><path d="m226 174-1-4 32-1h8l25 1-2 4h-62z" class="O"/><path d="m361 197-8 3 10-7-3 4h1" class="E"/><path d="m196 143 5 11a98 98 0 0 1-5-11" class="C"/><path d="m244 164 9-1c-2 6-6 1-9 1" class="E"/><path d="M245 335h-9a50 50 0 0 1 9 0" class="C"/><path d="M265 169h-8c2-3 5-3 8 0m79 99v8a39 39 0 0 1 0-8" class="E"/><path d="M273 264v6l-3-5 3-1" class="G"/><path d="M300 337h-8a43 43 0 0 1 8 0m-95 6-4 7a52 52 0 0 1 4-7m104 2-4-6 4 6m-32-55c-2-1-3-3-4-6l4 6" class="C"/><path d="m344 292 2 6-2-6" class="E"/><path d="m243 239 1-4 2 3-3 1z" class="L"/><path d="M290 189c-1-2-2-4 2-4l-2 4" class="M"/><path d="M262 336h-5 5m-59 1-2-5 2 5" class="C"/><path d="m224 186 3 4-3-4" class="F"/><path d="m220 337-5 1 5-1" class="C"/><path d="M174 274v-2h1l-1 7z" class="K"/><path d="m312 334 2 5-2-5" class="C"/><path d="m302 321 3 4-3-4" class="L"/><path d="m314 150 1-4-1 4" class="E"/><path d="m314 163 2 4-2-4m-83 172h-4 4m13-112 3 4-3-4m44 86-3-4 3 4" class="C"/><path d="m177 289 2 3c-3 2-1-1-2-3" class="P"/><path d="m240 266-3 2 3-2" class="F"/><path d="m321 353 2 3-2-3m-4-210 2-4-2 4m4-5 1-4-1 4" class="C"/><path d="m300 273 3 1-3-1" class="E"/><path d="m243 270-1-4 1-1 1 1z" class="F"/><path d="m321 316 3-3-3 3" class="E"/><path d="m175 294-1-4h1v4" class="K"/><path d="m326 140-1 4 1-4m-118 33h-3c1-2 2-3 3 0" class="C"/><path d="M294 162h3-3m44 49h-3 3" class="E"/><path d="m224 200-2-2a4 4 0 0 1 2 2" class="C"/><path d="m333 314-2 2 2-2" class="E"/><path d="m296 178 1-3-1 3" class="U"/><path d="m304 275 3 2-3-2" class="E"/><path d="m280 206 2-3-2 3" class="L"/><path d="m318 349 2 2-2-2m-127 9 2-2-2 2" class="C"/><path d="m334 300-3-1 3 1" class="E"/><path d="M194 355v-3 3m121 0-2-2 2 2m-126 8v-2 2" class="C"/><path d="M219 164h2-2m-7-1h2-2m93-1 2-1-2 1m-98-1 2 1-2-1" class="E"/><path d="M315 159v2-2" class="C"/><path d="m308 159 1-3-1 3m25 52-2 2 2-2m15-9-2 2 2-2" class="E"/><path d="m227 193 1 2-1-2m-6 2-2-2 2 2m-3-17 2 2-2-2m106-1 2 2-2-2m-112 2-2-2 2 2m110-4 2 2-2-2m-117-2-2 2 2-2m114-1 2 2-2-2m-36 117 2 2-2-2m1 13-2-2 2 2m-3-5-2-2 2 2" class="C"/><path d="M336 293h2-2m-13 0-2-1 2 1m9-2 3 1-3-1m-12 1-2-2 2 2m9-2h2-2" class="E"/><path d="M213 339h-2 2" class="C"/><path d="m331 307 2-2-2 2m-8-21 3 1-3-1m-19-4-2-1 2 1m9-2 2 1-2-1" class="E"/><path d="m209 340-2 1 2-1" class="C"/><path d="m276 259 2 1-2-1" class="L"/><path d="m329 318-2 2 2-2" class="E"/><path d="m198 329-2-2 2 2" class="C"/><path d="m321 325-2 2 2-2" class="E"/><path d="m177 213 1 2-1-2" class="P"/><path d="m293 317-2-2 2 2" class="C"/><path d="m295 309 2 2-2-2" class="L"/><path d="m327 310 2-2-2 2" class="E"/><path d="m293 306 2 2-2-2m-54-69h2-2" class="L"/><path d="m247 229 2 2-2-2m-12-11-2-2 2 2m-16 7 3 1-3-1" class="C"/><path d="m275 216 1-2-1 2" class="L"/><path d="m242 219 1 2-1-2m21 18 1-2-1 2m-24-22 2 2-2-2m-44 136 1-2-1 2m3-4 1-2-1 2m114 3-2-2 2 2" class="C"/><path d="m244 266-1-1 1 1" class="I"/><path d="M48 294v67h-1V236h1z" class="M"/><path d="M59 269v11h-1v-46h1z" class="I"/><path d="M420 273h1l1 16v1l-2-6v-11z" class="N"/><path d="M422 290v-1l2 3-1 13-1-15" class="F"/><path d="M422 313c-5-1-2-5-3-8h2l1 8z" class="N"/><path d="m423 321-1-8c3 2 2 5 1 8" class="F"/><path d="m360 198 1-1 7 3c-3-2-6 4-8-2zm9 110 1-2 1 1-2 1zm-2 0-2-1 1-1 1 2zm0 0h2-2z" class="O"/><path d="M240 51h56v1H154v-1z" class="I"/><path d="M336 54h-38v-1h62v1z" class="J"/><path d="M76 169v-9h1v187h-1z" class="M"/><path d="M90 183v-10h1v35h-1v-25z" class="J"/><path d="M79 171v-9h1v22h-1z" class="M"/><path d="M125 225v8h-1l-1-9 2 1zm84 182h-8l-1-1a586 586 0 0 1 25-1h104v2H225zm-32 0v-1l9-1-1 2zm268-276c-4 2-8 1-11-2h-4l-2-3-4-3-4-4 5-7 6 5 2 2 3 3-3 4 1 1 5-2 6 6m-16-10h2-2m9 8v-1 1" class="N"/><path d="m439 125-5 2-1-1 3-3 3 2zm-6-6-2-2 2 2" class="B"/><path d="m70 130 2 2-3-1 1-1m87 219v3h-3l-1-3-1 3-4-4 1 6-4-3c2-5 2-5-2-8l-1-3h5l5 5 3 2 2 2z" class="N"/><path d="m154 347-2-2 2 2m270-223 4 2-4-2m4 3 2 2-2-2" class="B"/><g class="N"><use x="26" y="-21" href="#P"/><path d="m137 427-1 5-9-6c3-1 6-1 10 1zm306-291-2-1 1-1 1 2z"/><use x="275" y="4" href="#F"/></g><path d="M183 284v-66h1v69h-1v-3zm-2-61v65h-1v-69h1v4zm0-6c0-1 0 0 0 0" class="P"/><path d="M226 174h64v2h-38l-27-1v-1h1z" class="J"/><path d="M223 179h1l-1 1v-1" class="Q"/><path d="M290 182c0-1 0 0 0 0" class="M"/><path d="M429 121h2-2m9 8v-1 1" class="B"/><defs><path id="B" d="M75 374v-2l1 1-1 1"/><path id="C" d="M100 161v1-1"/><path id="D" d="M368 113c1 0 0 0 0 0"/><path id="E" d="M145 446c0-1 0 0 0 0"/><path id="F" d="M153 75c1 0 0 0 0 0"/><path id="G" d="M441 88c0 1 0 0 0 0"/><path id="H" d="M75 90c0-1 0 0 0 0"/><path id="I" d="M82 353c0 1 0 0 0 0"/><path id="J" d="M54 97c0-1 0 0 0 0"/><path id="K" d="M362 354c-1 0 0 0 0 0"/><path id="L" d="M125 30c0-1 0 0 0 0"/><path id="M" d="M417 451c1 0 0 0 0 0"/><path id="N" d="M59 397c1 0 0 0 0 0"/><path id="O" d="M98 177c1 0 0 0 0 0"/><path id="P" d="M389 194c-1 0 0 0 0 0"/></defs></svg>