<svg xmlns="http://www.w3.org/2000/svg" xml:space="preserve" viewBox="0 0 481 677"><path fill="#FCFCFC" d="M482 236v442H1V1h481zM440.9 20.2c-2.1-.2-4.2-.7-6.3-.7h-273L45 19.7c-1.7 0-3.4 1-5.3 2.3l.1 621.6c0 2.5.2 5 0 8.3.5 4 3.6 2.3 5.5 2.3H429c1.6 0 3.3-.1 5.5.2h6.7c-.3-2.2-.4-3.8-.3-6.2l.1-332.2c0-1-.2-2 0-3.7-.1-2.4-.2-4.8 0-8-.1-5.1-.2-10.2 0-16-.1-13.1-.2-26.2 0-40-.1-5.1-.2-10.2 0-16-.1-2.4-.2-4.8 0-8-.1-2.4-.2-4.8 0-8-.1-2.4-.2-4.8 0-8-.1-5.1-.2-10.2 0-16-.1-5.1-.2-10.2 0-16-.1-5.1-.2-10.2 0-16V25.8c0-1-.2-2 0-3.5 0-.5-.2-1-.2-2.2m4.1 141.3V26.3h-.7V552h.7zm3 470v-45.2h-.7V648h.7zm0-66V554h-.7v21.7h.7zm-3.5 12.5-.5 5.9h1c0-1.8 0-3.6-.4-5.9"/><path d="M440.8 249c0 13 .2 26-.3 39.6-1.5 1.2-3.3 2-3.3 2.8-.4 3.7-.5 7.4 0 11 .1 1 2.3 1.7 3.6 2.6 0 2.4.2 4.8-.3 7.6-5.3.5-3.4 4.2-3.4 6.4l-.1 307c0 8.9-.7 17.8-1.3 26.8-.8 0-1.3 0-1.7-.4-2.2-.7-4.3-1.4-6.5-1.4H40.2l-.3-7.5c0-207.2 0-414.4.5-622 104.3-.5 208-.5 311.5 0-1.8 1-3.6 1.7-5.3 2.4 1.8 1.1 3.6 1.1 5.3 1 29.6-.8 59.3 2.2 88.9-1.9l.3 3c0 44.7 0 89.4-.6 134.6-1.5 1.2-3.3 2-3.3 2.8-.4 3.7-.5 7.4 0 11 .1 1 2.3 1.7 3.6 2.6 0 5 .2 10-.3 15.6-1.5 1.2-3.3 2-3.3 2.8-.4 3.7-.5 7.4 0 11 .1 1 2.3 1.7 3.6 2.6 0 2.4.2 4.8-.3 7.6-4.5.3-3.3 3.2-3.5 5.3-.3 3 1.5 3.2 3.8 3.1 0 2.4.2 4.8-.3 7.6-1.5 1.2-3.3 2-3.3 2.8-.4 3.7-.5 7.4 0 11 .1 1 2.3 1.7 3.6 2.6m-378 388 4.7-1.1c.2 0 .3.1.5 1 1.4.7 2.7 1.4 4.1 2.7 4.2-.2 8.5-.6 12.7-.6h216v-1H121c-16 0-32 0-48.2-.5-.3-.5-.5-1 .1-1.7H349c1.4 0 2.7.2 4.2 1 3.6.5 7.2.8 11.3 1.8 2.3 0 4.5.3 6.8.3 13.2 0 26.5 0 40.3.3h2c-1-.4-1.8-.8-2.6-1.7 0 0 0-.4.8-.5h4.8c-.7-1.3-1.1-2.2-1-3a28 28 0 0 0 3-1.4c-.3-.8-.4-1.7-1.2-2.9-1.1-.5-2.3-1.1-3-2.3 3.2.9 6.4 1.7 9.6 3.2l.3 1.6.6-.2-1-2.8c0-1.4 0-2.8.6-4.5V623h-.4c0 .6 0 1.3-.5 1.8-.2-.3-.5-.5-1-1.5 0-1.8.1-3.6.8-5.4l.7-.4c-.4-.2-.8-.4-1.5-1.5 0-2.3.2-4.7 1-7.2 2-2.9 2.8-5.6-1-8.8 0-5 .2-10 1-15.2 2-2.9 2.8-5.6-1-8.8 0-2.3.2-4.7 1-7.3.5-.4 1.2-.9 1.2-1.4.1-6.7.2-13.4 0-20.2 0-.7-1.2-1.5-2.2-3.1 0-7.7.2-15.4 1-23.2 2-2.9 2.9-5.6-1-8.8l-.1-108.1c0-1 .2-2 1-3.2.5-1.2 1.4-2.3 1.4-3.5.1-10.8.2-21.5 0-32.3 0-1.4-1.3-2.7-2.4-5V241c0-10.6.2-21.3 1-32.1 2.3-2.8 2.7-5.5-1-8.6V86.5c0-10.8-.2-21.6.1-33-.1-.5-.2-1-.1-2.4 0-1.6.2-3.3.9-5.3l.6-3.2c-1 .4-2 .9-3 .7-1.3-.5-2.7-.9-4.1-2l-1.6-6.2c-.6.7-1.4 1.7-3 2.9-.8-.1-1.5-.2-2.5-1-1.7-.3-3.4-1-5.1-1-22.6 0-45.1 0-67.7-.8-1.3-.7-2.5-2-3.7-2-2.8-.1-5.6.8-8.4.8-86.6 0-173.3 0-260.3-.5l-2.4-.3v.8c.9 0 1.8 0 2.6.5 0 .8.1 1.6-.5 2.6l-2.5 4.5c4.7 1 4.7 1 8 7.9-.2.2-.5.4-1.5.6-1.4-.4-2.9-.7-3.7-1.1l1.7-1a40 40 0 0 1-2.7-2.5l-5-1.5c-.9.8-3 2.2-.4 6l.1 4v557.5a78 78 0 0 1-.8 12v5.7c2.6-1 4-1.6 5.5-1.5 0 .4 0 .9-.6 1.6l.6 3.2-.2 1c-.3.9-.5 1.7-1.5 2.6l-4.5 1.7 4.7 3.4c.2-1.8.4-3 1.3-4.2M435 381.8V314h-.7v71.2c.5-1.8.6-2.3.7-3.5m0 240.7v-36.2h-.7V648h.7zm-1-62.8V576h.7v-21.8h-.7zm.4-383.8.8-13.8H434c0 4.4 0 8.8.3 13.8m-.4 118.9v9.2h.7v-14h-.5a203 203 0 0 0-.2 4.8m1-56V234h-.7v13.8h.7zm0-40V194h-.7v13.8h.7zm-1 21.1.2 4h.9l-.5-5.8-.5.6-.1 1.2m0 179.6.7.2.2-.4V394h-.9v5.5m1 19.7-.9-.7v5.3h.9v-4.6M59.6 39.8h-1.2v.5c.4 0 .8 0 1.2-.5m356.2 600.5.2.4c0-.1.1-.3-.2-.4m-111.3-1.9s0 .1 0 0m120-590"/><path fill="#030303" d="M436 652.8c.3-9 1-18 1-26.9V319c0-2.1-1.8-5.8 3.4-5.9.5 1 .7 2 .7 3 0 110.6 0 221.4-.6 332.6l-4.5 4.2m-396-1.4c129.3-.4 258.4-.4 387.5-.4 2.2 0 4.3.7 6.4 1.7l.1 1.2c-1.6 0-3.3.3-5 .3L45.5 654c-2 0-5 1.8-5.3-2.7"/><path fill="#272727" d="M352 21H40.5c1.2-.5 3-1.4 4.6-1.4h389.5c2 0 4.2.4 5.8 1-29.8.5-59 .5-88.4.4"/><path fill="#F4F4F4" d="M445 162v389.9h-.7V26.3h.7z"/><path fill="#030303" d="M352 21.4c29.3-.3 58.6-.3 88.4-.4.5.5.6 1 .5 1.7-29.7 4.4-59.4 1.4-89 2.3-1.7 0-3.5 0-5.3-1 1.7-.8 3.5-1.5 5.3-2.6"/><path fill="#F4F4F4" d="M448 632v15.9h-.7v-61.6h.7z"/><path fill="#030303" d="M441 304.6c-1.5-.5-3.7-1.2-3.8-2.2-.5-3.6-.4-7.3 0-11 0-.8 1.8-1.6 3.2-2.4.5 5 .6 10 .5 15.6m0-56c-1.4-.5-3.6-1.2-3.7-2.2-.5-3.6-.4-7.3 0-11 0-.8 1.8-1.6 3.2-2.4.5 5 .6 10 .5 15.6m0-72c-1.4-.5-3.6-1.2-3.7-2.2-.5-3.6-.4-7.3 0-11 0-.8 1.8-1.6 3.2-2.4.5 5 .6 10 .5 15.6m0 32c-1.4-.5-3.6-1.2-3.7-2.2-.5-3.6-.4-7.3 0-11 0-.8 1.8-1.6 3.2-2.4.5 5 .6 10 .5 15.6m0 16c-2.4.5-4.2.2-3.9-2.7.2-2.1-1-5 3.4-4.9.5 2.4.6 4.8.5 7.6"/><path fill="#F4F4F4" d="M448 566v9.9h-.7V554h.7z"/><path fill="#272727" d="M434.3 654c-.3-.3-.4-.5-.4-1 .5-.2 1-.2 1.8-.2l4.7-3.8c.5 1.5.7 3 .9 5.3-2.6 0-4.7 0-7-.2"/><path fill="#F4F4F4" d="M444.7 578.3c.2 2 .2 3.8.2 5.6h-1l.8-5.6"/><path fill="#FBFBFB" d="m422.8 401-.3 3v109l.4 8-.3 24c0 8.6.2 16.3.3 24l-.3 8c0 3.2.2 5.6.3 8l-.3 16c0 3.2.2 5.6.3 8l-.3 7.8c0 .9.2 1 .2 1.2a449 449 0 0 0-.3 6.2l-.7 4-14.8-15c0-.1-.2-.1-.2-.5-1.9-2.2-3.8-4-5.7-6.3l-2.2-2.7-3-3.2c-.2-1.7-.4-3-.4-4.8v-2.2l.1-55.4V80c0-1.5-.4-3-.8-4.6 0 0-.1-.1.3-.3 1-1.2 1.4-2.3 2.2-3.4l8.2-8.7.8-.6a41.4 41.4 0 0 0 3.8-5.4s.1.1.4 0c.8-.7 1.2-1.4 1.6-2h.3l5-5.5.9-.8a11 11 0 0 0 2-2.6h.3l2.2-.1c-.1 1.7-.2 3.4-.8 5.5-4.2.6-3 3.4-3 5.3v123.3c0 1.3.2 2.5.3 3.7h.7V59.2c.1-1.7 1.5-3.4 2.3-5.1l.2 32.4V201l.3 8-.3 31.9v120zm-3.8-68.5v179.2h.7V242h-.7zm0-127V232h.7v-37.7h-.7z"/><path fill="#F5F5F5" d="m58 623 .3-11.5V54l.1-4.7c1.2-.4 2.2 0 3.2.5 1.9 2 3.6 3.7 5.4 5.3v.3l2 2.2 2.6 3c1 1.3 2.1 2.2 3.2 3.4l2.3 2.4c1.3 1.5 2.5 2.7 3.8 3.8v.4c1 1.3 1.9 2.2 2.7 3.4-.2.5-.1.8 0 1.4-.2 152.4-.1 304.3-.1 456.3 0 23.2-.2 46.3-.6 69.6l-5.3 5.7-3.1 3.6-3.2 3.5-4.7 5c-1 1-1.6 1.9-2.4 3-.7.7-1.1 1.3-2 2-2.5 3-3.6 1.7-4.1-1"/><path fill="#F6F6F6" d="M410 37.7c.8.1 1.5.2 2.8.6-1.6 3-3.7 5.8-6.2 8.6l-2 2-4.2 4.5-6 6c-3.4 2-6.4 3.8-9.8 5.5h-16c-41.9-.2-83.3-.2-124.6-.2-1 0-2 .2-3.4.1h-128c-8.2-.4-15.9-.6-23.6-1.1l-1-.9c-.4-.4-.7-.6-1-1.1-.7-.8-1.4-1.2-2-2L73.1 47.6c-2.8-3.4-5.5-6.4-7.7-9.5H324l13.4-.2c14 .2 27.4.2 40.8.2 10.6 0 21.2-.3 31.8-.4"/><path fill="#F4F4F4" d="m353 636-4-.2H72a79 79 0 0 0-4 .3l-1-.3c-1-.5-1.4-1-1.5-1.6 3-3 5.9-6 9-8.9.8-.8 1.2-1.5 2-2.4 1.5-1.9 2.6-3.6 3.8-5.5l.5.2c1.6-1 2.9-2.3 4.5-3.6l1.3-1.6c3-1 5.7-2.5 8.5-2.7 6-.6 12-.5 18.3-.5h41c49.6.2 98.6.2 147.7.2 1 0 2-.3 3.3-.2h24c18.9.1 37.2 0 55.6.3 2.2 0 4.5 1.4 6.7 2.4l1.1 1.5c.8.8 1.5 1.2 2.2 1.7 0 .2.3.2.4.6.8.7 1.6 1.1 2.4 1.4v.5c1.9 2.2 3.7 4 5.6 6v.3c2.6 2.6 5 5 7.5 7.2v.3c-.1 1.8 5 3.2-.4 4.6H353"/><path fill="#030303" d="M337 37.8c-4.3 0-8.6.3-13 .3-86 0-172 0-258.5-.3-.5-.5-.5-.7-.5-1V34h260c2.7 0 5.5-1 8.3-.9 1.2 0 2.4 1.4 3.7 2.8v1.9M80.3 617.5a33.1 33.1 0 0 1-4.1 5.4 21 21 0 0 1-4.5-1.8l2.4 4.3a100 100 0 0 1-8.8 8.5 108 108 0 0 0-2.3-.9l.1-1a22 22 0 0 0-.1-3c0-.4 0-.9.3-1.9 0-1.4-.4-2.4-.7-3.3a6 6 0 0 1 2-1.8 8 8 0 0 1 2.5.1c0 .2.2.3.3.3-.2-.1-.3-.3-.4-.8V619c1.3-1.6 2.7-3.2 4.7-4.9 1.5-1.2 2.3-2.4 3.1-3.5.8-1.2 1.7-2.3 3-3.3.6.4 1 .6 1.2 1.1.7.8 1.4 1.2 2 1.7l.2.3c1 .4 2 .5 2.8 1 .3 1.1.7 2 1 2.7a16.6 16.6 0 0 1-4.4 3.4c-.6-.5-.8-.5-1-.5zm-2.3-4.8.1 1c.1-.4.3-.7 0-1m-4.5 4.8s-.1 0 0 0M73.3 48c3.8 3.8 7.7 7.6 11.5 12a8.9 8.9 0 0 1-2.1 3.1l-2 1-1-.1c-1.8-1-3.2-2-5-3.2-1.2-.3-2.2-.4-3.2-.5-.8-.8-1.6-1.6-2.5-3-.7-1.2-1.4-1.7-2-2.2v-.4l2-4.6c.3 0 .6-.3 1.2-.9a21 21 0 0 1 3-1.2m1.5 6.7.8-.9-.3-.3c-.3.3-.5.5-.5 1.2"/><path fill="#111" d="M337.4 37.9c-.4-.5-.4-1-.4-1.6 22.6-.3 45.1-.3 67.7-.2 1.7 0 3.4.6 5.2 1.3-10.5.4-21 .6-31.7.7a2682 2682 0 0 1-40.8-.2"/><path fill="#030303" d="M364 636c15.4 0 30.7 0 46.5.2.5.4.5.9.5.9v1.9l-39.7-.1c-2.3 0-4.5-.2-7-1-.3-1-.3-1.4-.3-1.8"/><path fill="#ECECEC" d="M422.4 53.8c-.9 2-2.3 3.7-2.3 5.4L420 177v6.9h-.8l-.2-3.7V57c0-2-1.2-4.7 2.9-5 .5.6.6 1.1.5 2"/><path fill="#111" d="M410.9 631.1c-2.5-2.3-5-4.6-7-7.3 2.8-1.3 6.8 2.6 7.9-3.2l-3.4-.2-1.5-7.2 14.9 15 .9-3.6c.4-.2.7 0 1.1.3l.2.1v5c-3.2-.9-6.4-1.7-10.2-2.3-1.3 1.3-2.1 2.4-2.9 3.4"/><path fill="#030303" d="M423.2 400.9c-.5-13-.6-26-.5-39.5.9 1 2.2 2.2 2.2 3.6.2 10.8.1 21.5 0 32.3 0 1.2-1 2.3-1.7 3.6M202 638h98.8v1c-32.6 0-65.3 0-98.3-.2a.9.9 0 0 1-.5-.8"/><path fill="#111" d="M407 46.8a110.3 110.3 0 0 0 8.3-11.7c.7 2.5 1.1 4.4 1.3 6.6l-4.3 2 .4 1 2.8-.1 1.7 5.1c-1.5 1.8-3 3.5-4.8 5-.7-1.8-1-3.2-1.1-5 .2-1.2.2-2.3.2-3.3l-1.1-.2c-.5 1-1 1.9-1.7 2.7l-1.8-2"/><path fill="#030303" d="m435 382.2-.7 3.1v-71.2h.7v68"/><path fill="#111" d="M435 623v24.9h-.7v-61.6h.7z"/><path fill="#030303" d="M176 639c-17.7 0-35.4 0-53.5-.2-.5-.3-.5-.8-.5-.8 17.7 0 35.4 0 53.5.3.5.2.5.7.5.7"/><path fill="#111" d="M121.5 638c.5 0 .5.5.5.7-12.4.3-24.8.2-37.2.3-4.2 0-8.5.4-12.6 0 .2-.7.5-.9.8-1z"/><path fill="#030303" d="M423.3 569c-.5-7.7-.6-15.4-.6-23.5.9.2 2.2 1 2.2 1.7v20.2c0 .5-.8 1-1.6 1.5"/><path fill="#111" d="M73.2 47.6c-.8.6-1.7.9-2.9 1.3-3.8-6.3-3.8-6.3-8.5-7.3.9-1.6 1.7-3 2.8-4.6.4 0 .4.3.4.8 2.7 3.4 5.4 6.4 8.2 9.8"/><path fill="#030303" d="M417.5 49.6c-.8-1.5-1.3-3-2-5l-2.8.2-.4-1.1 4.3-1.7c1.7.4 3 .8 4.1 1.8a14 14 0 0 0-.4 2.5s-.2-.2-.4-.1c-.8.9-1.4 1.8-2 2.7 0 .2 0 .3-.4.7M410.9 631c.8-1 1.6-2 2.7-3.1a15 15 0 0 1 4.1 2.2c.3 1.3.3 2 .3 2.8-.8.3-1.5.6-3 .8L411 631"/><path fill="#111" d="M62.3 624c.6.7 1 1.7 1 2.8l-5.8 2.4c0-2.3 0-4 .3-6 .8 2.5 1.9 3.8 4.5.8m-.8-574.6c-1-.3-1.9-.6-3.2-.6-2.7-2.6-.6-4 .4-4.8 2.4.7 3.7 1.1 5 2-.5 1.3-1 2-1.7 3zm115 589.6c-.5 0-.5-.5-.5-.7 8.4-.3 16.7-.3 25.5-.3.5 0 .5.5.5.7-8.4.3-16.7.3-25.5.3"/><path fill="#030303" d="M434 559.3V554h.7v21.8h-.7z"/><path fill="#111" d="M363.6 636c.4.5.4 1 .4 1.7a57 57 0 0 1-11-1.2 67 67 0 0 1 10.6-.6"/><path fill="#030303" d="M423.1 208.9c-.4-2.3-.5-4.7-.4-7.5 3.5 2 3.1 4.6.4 7.5"/><path fill="#111" d="M68.7 50c-.4 1.4-1 2.9-1.7 4.6a39 39 0 0 1-5.4-4.9c0-.3.2-.6.7-.7H64l4.7 1m342.2 581.4c1.2.5 2.4 1.3 3.9 2.4.7 1 1.1 1.9 1.8 3.2h-5.2c-.4 0-.4-.4-.4-.6 4.9-1.8-.2-3.2-.1-5"/><path fill="#030303" d="m62 637-.5 4.2-4.7-3.4c1.9-.7 3.2-1.2 4.9-1.5.3.2.3.7.3.7m361.3-28c-.5-2.4-.6-4.8-.6-7.6 3.7 1.9 3 4.6.6 7.5m11-433.3c-.2-4.7-.2-9-.2-13.5h1c-.2 4.6-.4 9.2-.9 13.5m-.2 118.7.2-4.2h.5V304h-.7zm1-55.1v8.7h-.7V234h.7zm-11.7 345.7c-.5-2.3-.6-4.7-.6-7.5 3.7 1.9 3 4.6.6 7.5M435 199.2v8.7h-.7V194h.7zm-11.7 321.7c-.5-2.3-.6-4.7-.6-7.5 3.8 1.9 2.9 4.6.6 7.5"/><path fill="#111" d="M420.6 46.2c-.2-.5-.2-1.2.2-2l3.2-1.6a21 21 0 0 1-1 3.4l-2.4.2"/><path fill="#030303" d="m72.9 637.8-.8 1a13.3 13.3 0 0 1-4-2.3 8 8 0 0 1 3.5-.6c.7.7 1 1.1 1.3 1.9"/><path fill="#111" d="M62.4 637c-.4 0-.4-.5-.4-.8l.9-2.9c.7 0 1.3.2 2 .7l1.9 1.9c-1.2.5-2.6.8-4.4 1"/><path fill="#030303" d="M64.3 49h-1.9c.3-1 .8-1.7 1.4-2.7 1 .4 1.7 1 2.5 1.7-.6.3-1.1.7-2 1M434 219.6v-.9l.6-.6.5 5.7h-.9l-.2-4.2m0 179.5V394h1v5.3c0 .2-.3.4-.3.4-.2 0-.4-.1-.7-.6m1 20.5v4.2h-1V419l.1-.5c.3.2.6.5.9 1"/><path fill="#111" d="M62.7 629.1c.4.7.5 1.5.4 2.6a5 5 0 0 1-.4-2.6m348.6 10c-.3-.1-.3-.6-.3-.9.8.2 1.7.6 2.5 1h-2.2"/><path fill="#030303" d="M65 34h-2.9l.1-.8c.8.1 1.6.2 2.6.5l.2.3m-5.4 6c-.4.3-.8.3-1.2.3v-.5c.4 0 .8 0 1.2.2"/><path fill="#111" d="m424 625 .1-2h.5c0 .6 0 1.1-.4 1.8l-.2.2m-5.7 7.8c-.3-.6-.3-1.3-.3-2.4.2.5.3 1.4.3 2.4"/><path fill="#030303" d="m424 630 .9 2-.6.2-.3-2v-.2m-.9-12c-.3-.2-.4-.3-.4-.7.6 0 1 .1 1.4.3l-1 .4"/><path fill="#111" d="M416 640.2v.5-.5"/><path fill="#030303" d="M304.5 638.5"/><path fill="#111" d="M424.5 48.5"/><path d="m407 613.1 1.4 7.3 3.4.2c-1.1 5.8-5 1.9-8 2.8-.4.2-.4.1-.2-.3 1-5.4-3.7-4.2-5.9-5.9l.3-.4.5-1.9-3.2.4s-.2 0-.3-.5c-.8-.9-1.5-1.3-2.2-1.7-.4-.3-.7-.6-1-1.6-1-6.7-6.5-5.2-9.9-5.3-16.5-.5-33-.2-49.5 0-1.1 0-2.3 1.8-3.4 2.8-7.7 0-15.4.2-23.6-.2-1.7-1-2.9-1.7-4-1.7H157.7c-1.2 0-2.5 1.3-3.8 2-13.4 0-26.7.1-40.6-.3-1.4-1-2.2-1.8-3-1.7-8.4.4-17-1.5-25 2l.8 3.4c-.2.5-.4 1-1 1.5-.5-.8-.9-1.6-1.4-3-1-.7-2-.8-2.8-1l.1-.2c-.6-.8-1.3-1.3-2.1-1.8a6 6 0 0 1-1-.9c1.5-2 3-4 5.3-6 1-2.5 1.7-4.7 1.7-7V252.4c0-4.3 1.3-8.6 1.8-13 .2-1.4.1-3-.2-4.4-.4-2.5-1.5-5-1.5-7.5-.1-48.8 0-97.6-.2-146.4 0-2-.7-4-1.2-6-.2-.3-.3-.6 0-1.5-.8-1.6-1.9-2.5-2.9-3.4l.1-.3A43 43 0 0 0 77 66c-.7-.6-1.4-1.2-2-2.6V61a196 196 0 0 1 4.8 3c.6.2 1 .1 1.2 0l2-1c1.1 0 1.6 0 2 .3 1 .1 2 0 3-.2.3.1.6.2 1 1a247 247 0 0 0 23 2.5c.4 0 .7-1 1-1.6 13 0 26-.2 39.6.2 1 1 1.6 1.7 2 1.7h20c.8 0 1.6-1.2 2.4-1.9 18.4 0 36.7-.2 55.6.3 3.3 2 6.1 3.3 8.4-.3l3-.3c41.3 0 82.7 0 124.6.6 3.3 2 6.1 3.3 8.4-.3 2.4 0 4.8-.2 7.6.2 2 .7 3.3 1 4.7 1 2 0 4.1-.2 6.1-.4l.3 1.2-2.3 1.9 3.6 3a7 7 0 0 1-2 3c-.8-.7-1-1.2-1.1-1.6l-.7 1 1.7 1.3c.3 1.5.8 3 .8 4.5v458c0 18.3 0 36.6-.5 55.4l-1.9 1.5 2 1 .6 5c1 1.5 2 2.2 3 3a52 52 0 0 0 8 9.1M189 196.7l-.3-.1c.2.1.3.3.6.8h1c-.4-.2-.8-.3-1.3-.7m-67.8-94.2 2.7 1.8c2 1 4.1 2 6.2 3.7l3.1 3c1-1.3 2-2.5 3.8-4h136.7c15.8 0 31.6.1 47.4 1-.1 3.9 2.8 2.8 4.9 3 2.9.3 3.3-1.5 4-4 7.7 0 15.4 0 23 .8l3.2 2c.6-1 1.6-2 1.7-3.2.2-1.2-.5-2.5-.6-4.7.3-3.8-2.7-2-4-2-18.8-.2-37.5-.3-56.2-1-2-.6-4-1.8-6-1.8H152c-1.4 0-2.7 1.6-4.8 2.7l-26.6.3-1 1.2 1.5.6s.2-.1.1.6m16.4 450.7-1 2.3-.7-.3-2.8-.8v5c.8.1 1.8.5 2.9.3 3-.4 6-1 10-1.7 16 0 32 .1 48.2 1 1.5.6 3 1.7 4.6 1.8 3 0 5.9-.7 8.8-.8h44.2c18.9.2 37.8.8 56.7.9 2.2 0 4.4-1.8 7.5-3 6.4 0 12.7.1 19.2 1 2.7.3 5.4 1.3 8 1 2.6-.3 3-2.3 0-4.3-.5-.6-1-1.2-1.3-2.6l4.7-7 5.1 4.2c.8-5.1 1.7-8.8 1.8-12.5.1-2.3-1.3-4.7-1.3-7V247.4c0-2.4.5-4.9.7-7.3.3-4.8.9-9.6.8-14.3 0-3.2-1.5-6.4-1.5-9.6-.2-28-.1-56-.1-84 0-1.3.2-2.7-.2-3.9-.3-.9-1.5-1.5-2.3-2.2l-1.8 3.2c-.9.8-1.7 1.5-2.8 1.5-1.2 0-3.4-.3-3.6.2-1 2.6-1.6 5.4-2.3 8.7-.6.5-1.2 1-2.5 1.4l-1.3 2.8h-1l-4 6.3c-.3.3-.7.6-1.9.9l-1.2 3a4 4 0 0 1-1.8.9l-3.4 1 .3 1c1.2 0 2.3 0 3.7 1v345c0 4.7 0 9.3-.8 14l-3.3 6 1 .2c1.2-1 2.4-2.2 4-3.2.2.3.3.6.3 1.6.6.4 1.3.9 2.5 1.5.2.4.5.8.5 2-.3 3 1.2 4 3.9 3.9v.7l5.5 9.1c-1.1.5-2.6.9-3.7 1.7-.8.6-1.2 1.7-2.5 2.5h-1.9c-.3-.3-.4-.5-.4-1.6a37 37 0 0 0-2-1.4v-.7a64 64 0 0 0-3.4-2.7c-1-1.1-1.8-2.3-2.6-4.1l-2-1.5.2-.7-.4-2c-2.9-1.7-5.8-3.1-8.7 1.4-15.4-.2-30.8-.3-46.3-1.2-1-.5-2.2-1.4-3.3-1.4h-98c-1.2 0-2.4 1.4-4.2 2.6-1 .9-2.1 1.8-3.3 2l-2.4-1.1c.3 1.2.5 2.4.6 4.2a30.3 30.3 0 0 1-5 4.2c-1 .7-2.3 2.3-3.3 2.2-6.7-.9-4.1 3.3-3.8 7-1 .9-2 1.8-3.8 2.8-.4.8-.7 1.5-1.2 2.1h-.6M284 463s.2-.2 0 .4c.6.6 1.1 1.2 2.2 2 .4.7.8 1.3 1 2.7a83 83 0 0 0 3.5 3.1c.8 1.2 1.6 2.4 2.3 4.3 1 1.8 2 3.6 3 6.3 1.2.7 2.3 1.3 3.9 2v1.2c.9.8 1.8 1.6 2.5 2.6 0 0 .2 0-.1.7 1 2.4.8 6 5.5 5.9.5.8 1 1.5 1.3 3l2.2 2-.2.9-2.2 4.3a356 356 0 0 0 4.1-2.5s.1 0 0 .7l1.9 3.5c.6 1 1.4 1.9 2.1 2.8l2-2.8 3-3.8V301.7c0-3-1-6.1-1.4-9.2l-1.3.2c0 1.4-.2 2.8 0 4.2.5 3 1.6 6 1.6 9 .2 11.3.2 22.6 0 34 0 1.7-.6 3.4-1 4.2v-22h-1.3L320 346c0 15.7 0 31.4-.6 47.7v22.2h.6c0-7.6 0-15.2.6-22.2l.3 28.2-.1 26.1c-.1 5.7-.5 11.4-.8 16.2v-14h-1.4c.5 5 1 10 1.4 15.8v29h.3l-.7-4.8-.2.1v12H318v-2.9l.1-316.4c0-4.2 1.5-8.4 2.3-12.6l-.8-.3-1 2 1.1-1.2c-1.2-.6-2.4-1.5-3.6-1.7-.5 0-1.3 1.4-2 2h-.6l-6.2 9.8h-1c-1 1.7-2 3.3-2.8 5.4 0 .4-.3.6-1.3.7-.4.6-.8 1.3-1.2 2.7-.6.6-1.2 1.2-2 1-4-4.4-1.3-8.2 1-12.2.8-1.4 1.2-3.2 2-4.6h.6c5 .2 3.1-3.2 3.1-6.2.5-.6 1-1.1 2.2-1.6l4.4.6c-1.9-1.7-2.7-2.4-3.2-3.7a55 55 0 0 1 5.7-7l1.2-1.9c-.6-.2-1.3-.4-2.8-.6l-141 .2-9 .3c-4.9 2.7-.4 4.4.8 6.3 1.2 2 2.5 4 4.3 5.5 1.4 1.2 3.5 1.5 5.7 2.6v1.2c.8 1.8 1.1 4 2.4 5.4 2 2.1 1.6 7 6.8 6.1v1.1c1.4 2.8 2.7 5.7 4.5 8.3.7 1 2.5 1.3 3.8 2l-.2.7c.7 4.7 4.4 7.1 8 9.9l-.2 1c2.2 2.7 4.4 5.3 7 8l-.1 1.2-4 4.4-5.1-3.6v-.5l-2.1-1.8.1-1a272 272 0 0 1-1.9-1.8s0 0 0-.7c-1-6.7-6.6-10.1-10.1-15-.3-.4-1.3-.2-2.1-.3 0 0-.2-.3 0-1.2.1-1 .2-1.9.6-3v-1c-.2.3-.3.8-1 1.1l-4.2-9.4-3.3 1.6s-.2.2 0-.6c-.2-3 0-6.2-1-9-.3-.8-4.3-.1-7-.3-.2-.2-.3-.4-.4-1.2l-.6-1.7-2.9-1a16.2 16.2 0 0 1 1.4 4.6c0 6.7-.2 13.4-1.2 20.3l-.7 14c0 .3 1 .5 2 1.7-.2 3-.3 6-1.1 9.2-2 2-2.5 3.7 1 5.4l-.6.6.6 1.7-.3.7s-.2-.2-.8.5l-.8 18.2c0 .2 1 .5 2 1.6-.2 1.7-.3 3.5-1.1 5.3-.8 4.1-2.3 8.2-2.3 12.3v187.8c0 1.2-.5 2.6 0 3.4.6 1 2 1.6 3.3 3.3 0 15 0 30-.3 45.3v2.3l1.2 1 .7-1.5.7.1c.7 3 1.5 5.8 2 9.3 0 .4 0 .8.3 1.5-.2 0-.3-.2-.8-.2l-.2.4h-.1l-.2-.3h-.6c-.4.8-.8 1.5-1.1 2.7-.2.2-.3.3-1 .4-.7 0-1.3.1-2-.4l-1.7-.6c.6.7 1.2 1.4 2.2 2.3.3.2.5.5 0 1.3 1.7.5 3.3 1.4 5 1.4h92.2l4.5.1c15.5.4 31.1.7 46.7.8 1 0 2.1-2 3.8-3.4-.3-1.9-.7-3.8-.8-6.5-.8-2.8.7-7.6-5-5.8 0 0-.2.3 0-.5-2.4-4-3.1-9.4-9.2-10.7l.2-1.2c0-.6 0-1.1.8-1.7l1.9-1.5-1.4-1.1c-.4.9-.8 1.7-1.9 2.6-.4 0-.9 0-1.9-.3-.2-.5-.5-1 0-2 .2-1.2.4-2.5 1-4v-1c-.2.4-.3.9-1 1a295 295 0 0 1-5.6-1.9l.1-1.2c-.6-2.4-.8-5.2-5-4.9v-1.2c-.1-4.1-.8-7.8-6.8-7.6-.4-.9-.8-1.8-1.2-3.5-.6-5-1.2-9.8-1.2-14.4 1 1.1 1.9 2.2 2.4 4.1l3 2.7c0 .3 0 .5-.7 1l-1 4 1.4.3c0-.7.1-1.4 1-2.1h1.2M385 85.9h-.9l-2.4 3.4c-.3.2-.5.5-1.4.6h-1.8c-2 .8-4.6 1.2-5.8 2.7-1.4 1.6-1.5 4.3 2 5.4v154.5c0 1.5-.1 3-1 4.5-.5 1.7-1.6 3.4-1.6 5v256.8H371V263.6c0-1.5.2-3-.1-4.5-.3-.8-1.5-1.3-2.8-2.6-.4-13.8-1-27.7-1.2-41.5 0-10.2.8-20.4.8-30.6-.1-20.4-.5-40.7-.8-61v-11.5c-.1-1.2-1-2.3-1.5-3.4-1 .9-2.2 1.8-3.4 3.2-.4.4-.7.9-1.6 1.3l-.7 2.9v423.5c0 5.8 0 11.7-.7 17.6-2.9 4 .6 5.5 3.1 7.1 3.7 2.5 4.5 2 4.8-2.3.2-2.7.7-5.3 1.1-7.2l.3 3.4h.7c0-1.4 0-2.8.4-4.4 0 0 .4 0 .5 1v21.1h1v-25.5l.1-4.1v-19.3c-.1-2.7.7-4.2 3.8-2.9 0 16.4 0 32.8.2 49.2 0 2.3 1.3 4.5 2 7.5 2 2.8 4 5.5 6 9-.3 1.1-.7 2.3-1.7 3.5-.9 1.2-1.7 2.4-3.3 3.4-.8-1-1.6-2.2-1.8-3.7l1-3.4-3.7 1.1.3-.7 1.1-3.7c-1.8.5-3 .9-4 1 0 0-.2.2 0-.6a22.7 22.7 0 0 0-5.2-3.2H117.4c-2.4 0-4.8 1.4-7.6 1.4-3.4-2-4.7-4.5-3.1-8.5.6-1.6.3-3.6.3-5.4V118.3c0-1.4.2-2.8-.1-4-.3-.9-1.3-1.5-2.3-3.2-.6-6 1.6-12.5-2-18.2l.9-1-.7-.3c-.3.4-.6 1-1.6 1.3-2.8-2.4-5.5-4.8-8.3-7.9l-2.5-3-1 1c1.2 1 2.3 2 3.4 3.9V505c0 26.7-.2 53.3-.8 80l-1.6 1.3c.7.2 1.4.5 2.5 1.3 1 .3 2 .6 3 1.6l1 2.4 1-.6-2.6-3c1.2-1.3 2.4-2.7 4.3-4 3 1 7-.5 8.5 4.2-1 1-2 1.9-3.7 2.9-.8 1.3-1.6 2.6-2.5 4.4-.2.3-.5.5-1.4.5-.3.6-.6 1.2-1.1 2.8 1.6.5 3.2 1.3 4.8 1.3 16.3.1 32.5.2 49 1 2 .3 3.8.9 5.8.9h138.9c9 0 17.9.8 26.8.9 1.5 0 3-1.7 5.3-2.8h30.5c6 0 12.2.3 18.6 1 .9-.7 2.3-1.2 2.5-2 .4-2 .3-4 1-6 3.2 1 2.2-1.5 3-3 .4-1 .7-2 .9-3.8.1-1.4.2-2.8 1-4l2.9 1.5v-62.3a14.4 14.4 0 0 1-3.9 4.6c.1-19.3.2-38.7 1-58.5 4-3.1 3.7-7.5 3.5-12 0-2.7-.3-5.6 0-8.4 1-8-1.5-15-4.4-23l-.1-119.2c0-6 .2-12 1-18.3.2-1.6 0-3.9 1-4.7 5-4.2 1.9-9.7 2.3-14.6.2-3.2-2.1-2.5-4.2-1.7v-35c0-10.3.2-20.6 1.1-30.2 1-.3 2.9-.6 2.9-.8-.4-5 2.3-10.1-1.4-15-1.2-1.7-.6-5-.3-7.4.3-1.7 2-3.3 2-5v-53.8c0-1.3-.2-2.6-.4-4l-1.5.2c0 2.2.3 4.4 0 6.6a4.1 4.1 0 0 1-2.5 2.9c.1-7.4.2-14.8 1-22.1l3.2 1.6V88.4c-1.6.7-2.7 1.2-4.2 1 0-1.1 0-2.3.4-3.6.1-.2.3-.5 1-.8l1-2.5c-1.3.1-2.6.3-4-.1l-.5-1.7-1 1c.5.4 1 .8 1.6 1.8l-.1 1V86M127.4 548.4l-1.2 4 1.2.2c.6-1.5 1.1-3 2.4-4.6.7-1 1.4-2 2.3-3.6 0-.4 0-.7.6-1.2.4-.2.8-.4 1.4 0l5.3 5.1v-4.7a35.9 35.9 0 0 1-3.6-3.5l1-.2a421 421 0 0 0 2.2-3.7c.1-.1.3-.3 1.3-.3 1.5-2.2 3-4.3 4.5-6.8l1-.1 2.1-3h.6l2.7.6 3.6-8.7 1.7 2.1 1.1-1-4.3-4.7c.1-.4.2-.8 1-1.6.2-.7.6-1.5.7-2.3.7-22.5 1.8-45 1.9-67.7.2-92 0-183.9 0-275.8V162h-1V447h-1v-5.4c0-92.1 0-184.2.2-276.3 0-2.9 1.2-5.7 1.7-8.5.2-.9 0-1.8 0-3l-1.1 1.3c-3.7-3.5-7.1-6.7-11.2-10.3-2-2.5-4-5-5.3-7.6h1.4l.8-5.9c1 .5 2.3 1.1 3.7 2l.3.2c-.2-.1-.3-.3-.3-1 .7-.6 1.4-1 2.8-1.3 1.7 2 3.4 4 5 6.6l2.5 1.7c2.9 4.3 6.9 5.2 12 5.2 48.2-.3 96.4-.2 144.6-.3 2.6 0 5.2-.3 8.6-.3 1-1.5 2-2.9 3.3-4 0 0-.2-.3.5-.2l4.6-5.8h.7l1.5-2.8a42 42 0 0 1 6.2-5.4c.4-.8 1-1.5 1.6-3a5 5 0 0 1 2.8.5l1.2 1.2c.2-.2.5-.6.4-.7L341 122c.8-1.3 1.6-2.6 3-4.1-.5-1.6-.7-4-1.8-4.6-1.7-.8-4.4-.9-5.1 2.9H212.9c-4.6 0-9.3-.2-14-1.1-1.1-.4-2.1-1-3.2-1h-45.3c-1.1 0-2.3 1.2-4.3 2-3.4 0-6.7 0-10.5-.7l-3.5-1.3c.4 1.8.7 2.8.3 4l-1 .9.7.5c.3-.5.6-1 1.6-1.5.6 0 1.3 0 2.4.2v1.2c-1.4 2.5-2.8 5-4.7 7.4l-3-.4.4 2.3c0 .8.2 1.6 0 3 .1.4.2.8 0 2.2.1 9 .2 18 0 28V369c0 5.4.2 10.7 0 16.9 0 13 .2 26 0 40 .1 18.4.2 36.7 0 56 0 18.7.2 37.4 0 56.8.2.8.2 1.5 0 3 0 1.5 0 3-.6 4.7 0 .5-.2 1-.8 2m-15-454.3c-.2 3.7 2.6 1.8 3.8 1.8h239.4l4.4-.1V95H119.1c-2 0-4.1-.7-5.3-1h246v-1H117.7c-1.6 0-3.1.7-5.4 1.1m210.7 114v-37c-1 12-1 24.2-.9 36.2 0 .6.6 1.1.9 2.6v302h1V213.7c0-1.6-.7-3.1-1-5.6m-18 367.3c-.4 3.5 1.7 3.6 4.3 3.6h37.3c3.5.1 5-1 4.9-4.7.8 0 1.6 0 2.5 1-.4 5 3.2 3.5 6.8 3.6l-3.4-1.6 3.6-6.4-1.2-1c-.8.7-1.5 1.4-2.8 1.6-2.4-3.7-5.8-4.5-10.2-4.5-72 .2-143.9.1-215.8.3-2.7 0-5.4 1.7-8.8 2.7-3.5 1.6-4.2 4-1.6 5.8.1.1 1-.8 2.3-1.5 1.8 0 3.5.1 5.2 1 3.6 2.8 7 2.4 9.7-1 2.4 0 4.9 0 7.4 1 3.4 2.7 6 2.4 8.6-1h71.3c10.6 0 21.2.5 31.8.5 16.1 0 32.2-.2 48.2.6M116.9 111.1v-.8c-1-.7-1.9-1.8-3-2.1-.4-.1-1.7 1.4-1.9 2.3-.5 2.2-1 4.5-1 6.8v436.9c0 4.7-.7 9.4-1 13.6 6.7 4.2 10.4.8 13.5-4-3.2-4.4-4.1-9.5-.2-12.9-.8-2.2-2.2-4.2-2.2-6.2-.1-48.4-.3-96.8 0-145.2.1-10.5 1-20.9.6-31.5-.6-14 .3-28 .2-42.1 0-9.1-.7-18.2-.7-27.2 0-10.6.7-21.1.7-31.7 0-9.8-.8-19.6-.9-29.4V134.2c0-1.8.7-3.5 1-4.3v110c.8-.5 1-1 1-1.4V132.7c0-1.2-.7-2.5-1-4.5l-2.6-9.9c0-.4.1-.8.8-1.5.7-3 1-5.7-3.3-5.7M111 89c2.2.7 4.3 1.7 6.4 1.7l237 .2c6.7 0 13.6.9 17.8-6.3 0 0 .3 0 .7.6l1.3 1.2.5-.8c-.7-.3-1.3-.7-2-1.7 1.8-2 3.9-3.8 5.4-6 1-1.5 3.4-4-1.3-5.2-5-.6-10-1.7-15.1-1.7-45.4-.1-90.8-.2-136.1 0-17.5 0-35 .7-52.4.8-7.6 0-15.2-.8-22.8-.8a1947 1947 0 0 0-43 0c-3.3 0-6.7 1-11.3 1.6 1.8 2 2.9 3.1 4.6 4.3.4.7.8 1.4 1.2 2.8 1.1 1 2.2 2 3.9 3.3.8.8 1.6 1.7 2.2 3.4a44 44 0 0 0 3 2.7M330.5 581h29.2v-.7H113v.7zm-109-3h-99c-2.3 0-4.6-1.1-7.3-1.8l-1.2 2.5H256v-.7zM90 110.5V98.3h-.7V233h.7zm36 189v-57.2h-.7V368h.7zm-3 224v-97.2h-.7V544h.7zM313.5 68h-39.2v.7H368V68zM90 460.5v-34.8h-1.3v45.6H90zm-2 35.2v40.6h1.4v-45.6h-1a145 145 0 0 0-.4 5M189.5 69h42.2v-.7h-53.5v.7zM157 507.2V460h-.7v52h.5l.2-4.8m-31-124.4v-4.7h-.7v45.8h.7zM87 275.9l-.2-3.8h-.5V306h.7zM261.8 68H242v.7h23.3c-2-.5-2.4-.6-3.6-.7M389 475l.3 5.4c2.2-4.4 2.1-5.5-.3-5.4M89 248.8l.5.1.3-.2V241h-1.1c0 2.4 0 4.8.3 7.8m1 155-.8-2.3-1.1.2.3 6.7h1.3l.3-4.6m300.8-28v-5.2l-2 .3c.5 1.8 1 3.7 2 4.9M90 550l-.2-4.4-1.9.6c.7 1.5 1.4 3 2.2 3.8m-3.4-230-.7 9.9h1c0-3 0-6.2-.3-9.8m233.7-61.7.5-4.7h-1.6c.1 1.5.3 3.1 1.1 4.7M87 421.2V416h-.7v7.7h.5l.2-2.6m-1-167.8.3 2.5h.3v-5.7H86zm1 289.4V538l-1.2.1c.3 1.8.7 3.6 1.2 4.7M324 166l-.2-4h-.9l.5 5.8.5-.6.1-1.2m-4.4 111.3 1.2-2.6-1.3-.3a7 7 0 0 0 .1 3m78.3 330-1.3-.9-.4 1.3c.5.1 1 .1 1.7-.4M327 526l.6-1-2.1-.3c.3.4.6.8 1.5 1.3m2.4 6.7 1.6 1 .4-.8a3 3 0 0 0-2-.2M355.3 118l1.5-.2-.4-1.3c-.4.3-.8.6-1.1 1.5M333 140.7l-.2-1.5-1.3.4c.3.4.6.8 1.5 1.1m61.8 471 1.6-.6-.4-.8c-.5.3-1 .7-1.2 1.4m-44.2-489.4-.9-.9-.5 1.6c.4 0 .8-.1 1.4-.7m3.5 432.6 1.4-.4-.6-1a3 3 0 0 0-.8 1.4m2.2 10.3h1.2v-.5c-.4 0-.8 0-1.2.5m-36.1-282.8-.8.9.3.3c.3-.3.5-.5.5-1.2m6.2-140.2 1-.2c-.4-.1-.7-.2-1 .2m-8 372h1v-.5c-.3 0-.7 0-1 .5m-123-309.9-.7-.9-.4.4c.3.3.6.5 1.2.5m162.9-105-.4 1.2h1.3c-.1-.4-.2-.8-.9-1.1m-51 400.9-.8-.8-.3.3c.3.3.6.6 1.2.5M87.6 68.8h-1.2v.5c.4 0 .8 0 1.2-.5m259.3 53.4c-.1-.1-.2-.3-.4-.3l-.3.2v2h.5l.2-1.9M90.5 590.8l-.3 1.1.3.4c0-.4.2-.8 0-1.5M333 134.7l.8-.8-.3-.3c-.2.3-.5.5-.5 1.1M106.8 96.5l1.1.3.3-.3c-.3 0-.7-.2-1.4 0M327 531.7l-.5.8c.3-.2.5-.3.5-.8M159.5 160.2l.3-1.1-.3-.3c-.1.3-.2.7 0 1.4m3.7 354-.5.4c.2 0 .5 0 .5-.3m21.6-324.5-.5.2c.1 0 .3.1.4-.2M93.7 81.5l.7.1c-.2 0-.3-.2-.7-.1m289.8-4-.7-.1c.2.1.3.2.7.1m-257.8 467s-.1 0 0 0M371.4 89.5s.1 0 0 0m-284.8 399s-.1 0 0 0m2.8-232s.1 0 0 0m-2.8 9s-.1 0 0 0m-2 339s-.1 0 0 0m60.8-507s.1 0 0 0m-32 8s.1 0 0 0m207.2 412s-.1 0 0 0m-127-316.1s0 .1 0 0m-68 311s0 .1 0 0"/><path fill="#ECECEC" d="M419 332v-89.9h.7v269.6h-.7z"/><path d="M406.6 47c.8.5 1.3 1.1 2.3 2.1 1 .6 1.6.7 2.1.9l1 4.7c.1.4 0 .4-.2.3l-3.2-1.5 1.6 3.7s-.2-.2-.4-.1c-1.5 1.8-2.7 3.6-3.8 5.5-.1.1-.2.3-.9.4-2.7 1.1-4.7 2.2-7 3.4l-3.4-7a41 41 0 0 1 5.9-5.6c2.3-.6 4-1.5 5.9-2.4l-1.7-2.5c.5-.6 1-1.3 1.8-2m-3.4 13.3.5-.2c-.1 0-.3-.1-.5.2"/><path fill="#111" d="M394.4 59.4c1.5 2.4 2.7 4.9 3.7 7 2.3-1.2 4.3-2.3 6.7-3.3-2.1 2.9-4.6 5.8-7.5 8.7a31 31 0 0 1-3.9-3l2.3-1.7-.3-1.3-6 .5c-1.5 0-2.9-.4-4.4-1 3-2.1 6-4 9.3-5.9"/><path fill="#ECECEC" d="M419 205v-10.9h.7V232h-.7z"/><path fill="#111" d="M406.8 612.7c-1.9-1.5-3.8-3.4-5.7-5.6 2 1.5 3.8 3.4 5.7 5.6m-.5-550.2a24.6 24.6 0 0 1 3.6-5.4c-.9 1.8-2.1 3.6-3.6 5.4m4.2-5.4c-.7-.9-1.1-1.8-1.9-3.6l3.2 1.5c-.1.7-.5 1.4-1.3 2.1m-15 538.6c-.8 0-1.5-.3-2.2-.7l1.7-1c.4.4.6.9.5 1.7m3.4 8a9 9 0 0 1-2.9-2.4 9 9 0 0 1 2.9 2.4m19.4-554.9c.2-.8.8-1.7 1.7-2.6-.2.9-.8 1.7-1.7 2.6m-23.5 26.7-1.6-1.2.7-1 .6 1.7.3.5m-311.2-.2c.5 1.6 1.3 3.6 1.3 5.7.1 48.8 0 97.6.2 146.4 0 2.5 1.1 5 1.5 7.5.3 1.5.4 3 .2 4.4-.5 4.4-1.7 8.7-1.7 13L85 594.2c0 2.2-.7 4.4-1.4 6.8-.3-23-.1-46.2-.1-69.4V75.3m-6.4-9c1.2.8 2.5 2 3.8 3.5-1.3-.8-2.5-2-3.8-3.5m-2.4-5.6a6 6 0 0 1 .1 2.4 9.5 9.5 0 0 1-3.2-2.6c1-.2 1.9-.1 3.1.2m-.2 549.8c-.5 1.1-1.3 2.3-2.5 3.4a9.9 9.9 0 0 1 2.5-3.4m6.4-540c1 .5 2 1.4 3 2.8-1.1-.6-2-1.5-3-2.8M67 622c-.6 0-1.2 0-2.2-.2.2-1 .9-1.9 1.8-2.8.4.7.4 1.5.4 2.6v.4m0-566.7a4 4 0 0 1 2 1.6c-.7-.2-1.3-.7-2-1.6m109.6 9.5c-.4.9-1.2 2-2 2-6.6.2-13.3.2-20 0-.4 0-1-.6-1.5-1.4 7.6-.5 15.3-.6 23.5-.6m-64 0c.1.8-.2 1.8-.5 1.8-7.7-.6-15.3-1.2-23-2.3 7.6-.1 15.3.1 23.5.5m292-15.8a12 12 0 0 1 1.9 2.4c-1.8.9-3.6 1.8-5.6 2.3 1-1.8 2.1-3.2 3.6-4.7m-28 15.8c-1.8 3.8-4.6 2.6-7.4.6 2.3-.5 4.7-.6 7.5-.6m-136 0c-1.9 3.8-4.7 2.6-7.5.6 2.3-.5 4.7-.6 7.5-.6"/><path fill="#030303" d="M88 62.8c-1 .5-2 .6-2.7.4.7-.7 1.2-1 1.7-1.2l1 .8"/><path fill="#111" d="M87 61.7c-.5.6-1 .8-1.7 1.2l-2 .1c.3-.8.8-1.6 1.6-2.7.7.2 1.4.6 2 1.4m67.5 547.5c.9-.8 2.2-2.1 3.4-2.1h143.5c1.2 0 2.4.7 3.6 1.5a5.5 5.5 0 0 1-2.8.8c-49 0-98.1 0-147.7-.2m175 0c.7-1.2 1.9-3 3-3 16.5-.2 33-.5 49.5 0 3.4.1 8.8-1.4 9.9 5-2.3-.3-4.6-1.7-6.8-1.7l-55.6-.4m-242.8 3.3c-.7-1-1-2.1-1.3-3.4 8.1-3.4 16.7-1.5 25-2 .9 0 1.7.8 2.6 1.7-5.9.5-11.8.4-17.8 1-2.8.2-5.4 1.7-8.5 2.7m311.1 5.2c2.2 1.3 7 .1 5.9 5.5a34 34 0 0 1-5.9-5.5m-323.2 7.7c-1-1-1.6-2.1-2.8-4.2l4.2 2c-.2.7-.6 1.4-1.4 2.2m320.9-9.6c1-.5 2-.7 3.1-.8a23 23 0 0 1-.6 2c-1 0-1.7-.5-2.5-1.2m-2.6-2.3a4 4 0 0 1 2.2 1.3c-.7-.1-1.4-.5-2.2-1.3m-313.8-5c.8.1 1.5.6 2.1 1.4-.7-.3-1.4-.7-2-1.5m2.1 2q1-.2 2.6.4-1 .2-2.6-.4m-3 2.4c.2.3 0 .6 0 1v-1m2.1 4.7c-.2 0-.4-.3-.6-.5l.7.2-.1.3M67 622l.4.4c-.1 0-.2 0-.3-.3l-.1-.1m7.5-567.6c.2-.5.4-.7.7-1l.3.3c-.2.3-.5.6-1 .7m6.2 9.6-.6.2c-.1-.2.4-.2.6-.2"/><path fill="#030303" d="M411.3 49.8c-.9 0-1.4-.1-2.1-.6.2-1.1.7-2 1.2-3l1.1.2c0 1 0 2-.2 3.4"/><path fill="#FCFCFC" d="m180.6 192.7.4.6a2886 2886 0 0 0 12 15.7s0 0 0 .3l1.8 2.2.1.7c.8 1 1.3 1.5 1.9 2v.3a84 84 0 0 0 5 6.8l.1.4c7.3 10.3 14.7 20.2 21.8 30.2 1.2 1.8 2.1 4.2 2.1 6.4l-.1 157.4c0 2.2-.8 4.6-2 6.4a5793 5793 0 0 1-59.6 81l-1.6-.3-.1-45.8V261.4c0-3.4-.1-7-.3-10.4l.3-6a1990.2 1990.2 0 0 0-.3-19.3l.3-1.5c0-.9-.2-1-.3-1.2.1-.2.2-.3.3-1.2a94 94 0 0 0-.3-4.8l.3-10c0-5.6-.2-10.2-.3-15 .1-6.7.2-13.4.7-20.5.7-.6 1.1-.7 1.5-.9.3.2.4.4.8 1 2.7 3.6 5.1 6.7 7.6 9.7 0 0 .2-.2.2.2 2.5 4 5.1 7.7 7.7 11.2M166 328.5v-70.2h-.7V496h.7z"/><path fill="#FAFAFA" d="m299.2 191.5 2.1-2.2a30 30 0 0 0 1.6-2.3c.3-.1.6-.3 1-1l3.1-5s.3 0 .6-.4l6.7-9.4s-.2 0 .3-.2c1 2.3 2 4.6 2 6.9V504l-3.5-2.2s0 .1 0-.2c-.6-1-1.2-1.6-1.8-2.2l-.2-.7a17 17 0 0 0-2-2.2l-1.6-2.8a293 293 0 0 0-5-6.2s-.1.1-.1-.3c-.8-1.2-1.6-2-2.4-3l-.4-.7c-.8-1-1.3-1.7-1.8-2.8l-4.7-6-2.7-4c-1.2-1.4-2-2.4-3-3.3l-1.4-2.5c-.7-1-1.3-1.6-1.8-2.1 0 0-.2.2 0-.2-.6-1-1.2-1.6-1.9-2.2l-.4-1.1-2.4-3c-1-1-1.9-2.2-3.2-3.8L256 424.3a10.9 10.9 0 0 1-2.2-5.8V258.7c0-2.2.5-4.8 1.7-6.5 8-11.3 16.5-22.4 24.6-33.6 6.5-9 12.8-18 19.2-27.1"/><path fill="#F8F8F8" d="M330.3 524.3a25 25 0 0 0-1-1.6l-2.3-1.8c.1-.3 0-.6-.4-1.3a49 49 0 0 1-.8-2.6l.2-14V155l1.5-1.3a31 31 0 0 0 1.6-2.7 10.7 10.7 0 0 0 1.5-1.2 515 515 0 0 0 4.3-5.8s.3-.1.7-.3c.8-1 1.2-1.8 1.6-2.6l2.1-1.8a495 495 0 0 0 5.9-7.8l3.1-2.6c1.1.2 2 .8 2 1.5.2 3.3 0 6.7 0 10l.2 400v5l-1.7.7c-.2-.6-.4-1.3-.8-1.8L334 529v-.3l-3.7-4.4"/><path fill="#FBFBFB" d="m199.3 203.4-.2-.7c-2.6-3.6-5-6.9-7.6-10.2v-.3c-2.8-3.9-5.6-7.3-8.3-10.8l-.1-.7-9-11.9-.3-1-10-13.8 8.4-.3c47-.1 94-.1 141.5.2.6 1 .5 1.6.4 2.1l-5.4 7.4a22 22 0 0 0-1.4 2.6 36 36 0 0 0-2 2.2l-3.6 5.6-.2.1c-18 24-35.5 48-53.2 71.8-.9 1.3-2.2 2.7-3.6 3.1-6.3 2-11.6-.2-15.7-5.6-7.5-10.3-15.2-20.4-22.8-30.6 0 0 0-.4-.3-.8-2.3-3.1-4.5-5.8-6.6-8.4"/><path fill="#FCFCFC" d="m286 479.2.2 1 4.6 5.2.2.8 4.7 6 1 2a37 37 0 0 0 2 2.4s0 .3.2.7c3 4 5.9 7.5 8.8 11 0 0 .3-.2.1.3 1.5 2.3 3.2 4.2 4.9 6.1.3 2 .7 3.8.4 5.7a7 7 0 0 1-2.7-1.5l-1.7-3-1 .8c1 .9 1.9 1.7 2.5 3a5 5 0 0 1-2.3.6c-40.5.3-81 .5-121.6.6a164 164 0 0 1-18.3-1.2l-1.4-4.1c.1.1.2.2.7.3h24.5c-6.2-.9-12.4-.8-18.7-1-1.4 0-2.8-1.4-4.2-2.4 20.6-28.5 41-56.6 61.6-84.7 3-4.2 13.5-4.2 16.6 0l19 25.5c3.8 5 7.9 10 11.8 15l1.6 3 6.4 7.9M241.5 516h14.2v-.7H226v.7zm-34-2H221v-.7h-23.7v.7zm98 1.4s0 .1 0 0m-81-1.8s0-.1 0 0m-31 0s0-.1 0 0"/><path fill="#FDFDFD" d="m129 385-.2-16c0-69 0-138 .5-207.5.8-.5 1.3-.5 2-.2.4 2.2.7 4.2.7 6.2v211.4l.3 5.5h1.4l.3-5.1V142.9c0-1.2.4-2.6-.1-3.5-.6-1-2-1.6-2.8-2.7-.6-1.4-1.3-2.6-2-3.7-.1-.5-.2-.9.3-1.7 1.2-.5 1.8-.6 2.7-.6l4 3.6c.2.5.4.7.8 1 .5.8 1 1.3 1.5 1.9l6.5 8c1.6 2 3 3.2 4 4.9 1.5 2.5 2.7 5.2 3.6 8-.8 2-1.4 3.8-1.4 5.6-.1 68.5 0 136.9-.5 205.3-1 .4-2.1.7-2.3 1.3-.4.8-.3 2-.3 3v95.3c0 2.2-.5 4.6 3 4.9v7.9l.4 39-3.6 5.5h-.2c-1 1.1-1.7 2.1-2.4 3.1 0 0-.4 0-.7.4-2 2.3-3.5 4.4-5 6.4a53 53 0 0 0-3.5 4.2l-.5.4c-.8.8-1.2 1.5-1.7 2.2-.3.2-.7.4-1.5.3-1.3-.8-2.3-1.3-3.2-2 0-.7-.1-1.4.3-2.6.8-1.2 1.5-1.8 1.5-2.5v-51.9c0-1-1.2-2-1.8-3-.1-18.3-.2-36.6.3-55.5.8-1.3 1.5-2 1.5-2.6v-34.9c0-1-1.2-2-1.9-2.9m3.1 41.3v54h1.4c.2-.6.5-1.2.5-1.8v-50.3c0-.8-1-1.7-1.8-1.9m17.3-271-1.2-.3.5 1.6c.3-.3.6-.6.7-1.4"/><path fill="#111" d="M278 467.8a268 268 0 0 1-11.9-14.5c-6.4-8.4-12.6-17-19-25.5-3.1-4.2-13.5-4.2-16.6 0a100601 100601 0 0 0-61.8 84.7l-1.8 1.3c-.7-2.9-1.5-5.8-2.5-9l-.2-1.5L204 449c6.6-9 13.2-17.9 19.6-27 1.3-1.8 2-4.2 2-6.4.2-52.5.3-105 .2-157.4 0-2.2-.9-4.6-2.1-6.4-7.1-10-14.5-20-21.5-30.3.6-.8 1-1 1.3-1.4l-.5-.6-1.2 1.7c-1.7-2.1-3.3-4.3-5-6.7 1.4.5 2.8 1.5 5.3 3 1-1 2.4-2.6 4-4.6 7.7 9.8 15.4 20 23 30.2 4 5.4 9.3 7.5 15.6 5.6 1.4-.4 2.7-1.8 3.6-3l53.2-72c-.3 1.5-.7 3.3-1.6 4.7-2.2 4-4.9 7.8-.8 12.6a833 833 0 0 1-19 27.5c-8.2 11.2-16.6 22.3-24.7 33.6a11.8 11.8 0 0 0-1.7 6.5v159.8c0 2 1 4.1 2.2 5.8l20.1 28 2 15.5m-41.8-209.3c-.3 1.7-.9 3.5-.9 5.3v145.4c0 7.2 1.2 8 9 5.6v-42.9l-.1-107.4c0-2.2-1.4-4.3-2.4-7-1.7.2-3.3.3-5.6 1"/><path fill="#ECECEC" d="M102 93c4.2 5.6 2 12 2.6 19v451c0 7.5 1.5 15.4-5.7 21-1.2 1.3-2.4 2.7-3.3 4.3l.2.2c-1-.3-2-.6-3-1.5a26 26 0 0 0-.2-2l.2-80 .1-418.6v-.8c2.8 2.5 5.5 4.9 8.7 7.3l.4.1"/><path fill="#F8F8F8" d="M377 579.9c-.7-2.3-2-4.5-2-6.8-.2-16.4-.2-32.8-.2-50V302.5l-.3-45.6.2-4.5c0-51.5 0-103 .3-155.2 1.1-1.9 2-3 3.3-4.4 1.1-1 1.9-2 2.6-3l1.2-.9c1.2-1.2 2-2.1 2.7-3.1l.5-.1 1.2.1v4.2c0 4.5.2 8.2.3 12l-.3 22.9v56.5c0 6 .2 12.2.4 18.3l-.4 31c0 11.6 0 23.2.2 35.6.2 7.3.2 14 .1 20.6l-.3 18v120l.3 43-.3 59v20.7c0 11.5.2 23 .3 34.4 0 1.4-.2 2.8-.6 4.9-3.2-2-6.2-4.6-9.1-7.1M153 137a487 487 0 0 0-5.5-6.5l-11.3-12-.3-.8V116l11 .2c18 0 35-.2 52.1-.3 4.6 0 9.3.3 14 .3h125c2.3.6 3.9 1.2 5.4 1.8-.8 1.4-1.6 2.7-2 4.3.3.4.1.4.1.4-.8 0-1.6 0-3 .5-.9 1.2-1.4 2-2 2.6l-5.8 5.8a18 18 0 0 0-1.7 2.4s0 0-.3 0c-1.9 2-3.4 3.8-5 5.7 0 0 .2.2-.2.2a27.1 27.1 0 0 0-3.7 4c-2.6.1-5.2.4-7.8.4-48.2 0-96.4 0-144.6.3-5.1 0-9.1-.9-12.3-5.6l-2.1-2m46.6-18H146c18 1 35.8 1 53.7 1 .2 0 .4-.6-.2-1m123.3 414.1a336 336 0 0 1 3 4c1.2 1.3 2.2 2 3.1 2.8v.4c.7.8 1.3 1.3 2 1.8 0 .4.1.6.7 1.2l2.2 2.4c2.6 2.9 5.1 5.5 7.7 8 .5.7 1 1.3 1.6 2.4-2.7 1-5.4 1.5-8.2 2l-20-.3H200.4c-2.1 0-4.3.3-6.4.4l-49-.3-7.6-.1c-.4 0-.6-1.5-1-2.3l.4-.2c.7-.8 1-1.4 1.4-2.1l.2-.1c.8-.7 1.2-1.4 1.6-2.1 1-1 2-2 3.5-3.2l7.4-8.8a510 510 0 0 0 4.7-4.6l1.5-2c1-1 2.2-1.8 4-2.7h74c10.2 0 20.5-.2 30.8-.4l47 .4c2.3 0 3.9-.2 5.7 0l2.4 1.2v.4c.7.8 1.3 1.3 2 1.8m11 20.9h-91.8v.6h94.5v-.5a67 67 0 0 0-2.8-.1"/><path fill="#F4F4F4" d="m375.6 593.2 2.8 3.8c.4 1.4.4 2.5.4 3.5-6.1-.1-12.2-.4-18.3-.4H156.4l-3.4.3-48.8-.3c-1.6 0-3.2-.8-4.4-1.8a38 38 0 0 0 1.3-2.3c.3 0 .6-.2 1.2-.8l2.8-4.1 3.4-3.3c.8-1 1.2-1.7 1.6-2.4 2.5-.7 4.9-2.1 7.3-2.1 82.7-.1 165.5 0 248.9.2a59 59 0 0 1 4.4 3.8s.2-.2 0 .2c.9 1.3 1.8 2.1 2.7 3l.1.3c.7 1 1.4 1.7 2 2.4"/><path fill="#F5F5F5" d="M377 73.5c4.5.5 2.2 3 1.1 4.5-1.5 2.2-3.6 4-5.3 6.5.2.5-.1.2-.1.2h-.5C368 92 361 91 354.4 91c-79 0-158 0-237-.2-2.1 0-4.2-1-6.7-2.1a45 45 0 0 0-2.6-3l-2.6-3L102 79l-1.8-2.5c1.2-1.2 2.8-2.6 4.5-2.6l264.9-.1c2.5 0 5-.3 7.4-.4"/><path fill="#111" d="M119.5 119c.9 3 1.7 6.1 2.5 9.6v.4c-.3 1.7-1 3.4-1 5.2v103.4c0 9.8 1 19.6 1 29.4 0 10.6-.8 21.1-.8 31.7 0 9 .7 18 .7 27.2 0 14-.8 28.1-.2 42.1.5 10.6-.5 21-.5 31.5-.4 48.4-.2 96.8-.1 145.2 0 2 1.4 4 2.2 6.2-4 3.4-3 8.5.2 12.9-3.1 4.8-6.8 8.2-13.5 4 .3-4.2 1-8.9 1-13.6V117.3c0-2.3.5-4.6 1-6.8.2-1 1.5-2.4 1.9-2.3 1.1.3 2 1.3 2.7 2.4-1.2.8-2.6 1.3-2.7 1.8-.2 3 0 6 0 9l-.2 433.9v9.1c6.3-2.7 5.6-7.5 5.6-12v-426l.2-7.4m-4.8 448.6.9-.8-.4-.4c-.3.3-.6.6-.5 1.2"/><path fill="#E9E9E9" d="m119.5 118.7-.2 7.8v425.8c0 4.6.7 9.4-5.6 12.1v-9.1l.2-434c0-2.9-.2-6 0-8.9 0-.5 1.5-1 2.6-1.4.4.1.4 0 .5.4l2.6 5.6-.1 1.7"/><path fill="#E4E4E4" d="M361 113c.3-.4.6-.9 1.5-1.6 4.7-.5 2.6 2.7 2.6 4.2V558l-.2 5-1.6.4-3.7-6.6.1-17.5V122c0-2 0-4 .3-6.6l1-2.3"/><path fill="#E9E9E9" d="M354 574.4a133 133 0 0 0-3.3-.2l-45.6.3c-16 .1-32.1.3-48.2.3-10.6 0-21.2-.5-31.8-.5H153c-3.2 0-5.5 0-7.8.2l-8.2-.3-7 .2H128c-1.7 0-3.4 0-5.7-.2-.2-1.5.2-2.9.6-4.2 2.6-1 5.3-2.7 8-2.7 72-.2 143.9-.1 215.8-.3 4.4 0 7.8.8 10.5 5a9.9 9.9 0 0 1-3.3 2.4"/><path fill="#E4E4E4" d="m121.1 100 26.8-.2h145.7l3.4-.3 56.1.4c1.4 0 4.4-1.8 3.7 2.5a291 291 0 0 0-3.8 4.6h-24l-8 .2-47.4-.3H136.1l-6.1.3c-2.1-1-4.2-1.9-6.5-3.4l-2.3-2s-.2.1 0-.2a4.3 4.3 0 0 0 0-1.5"/><path fill="#080808" d="m374.6 321 .2 3-.1 198.6c-3 0-3.8 1.5-3.7 4.2.1 6.4 0 12.8-.3 19.8-.5.5-.7.5-1 0-.3-3.3-1-6.2-.9-9.1.2-8.7.7-17.4 1.1-26.6a126.6 126.6 0 0 0 0-5.2l-.9-2.1V498l.2-.1c.1-.8 0-1.3-.3-2.1-.5-.5-.8-.7-1.1-1.4 0-15.7 0-31 .3-46.4 0-.9-.1-1.5-.3-2.5 0-4.7 0-9 .2-13.5 0-.5 0-.8-.2-1.5 0-1.4 0-2.4.3-3.5.4-.4.7-.7.9-1.4a40 40 0 0 0-.2-1.4c-.4-3-1-5.6-1-8.2l-1-47.6c0-1.2-.3-2.8.3-3.4 4.8-5.2 1.5-10.6 1-16 0-.5-.1-.8-.3-1.3 0-.2 0-.6.3-.7 0-.9-.1-1.5-.3-2.6 0-12 0-23.7.2-35.4l-.2-1.6.8-50.2c.8.6 2 1.1 2.3 2 .3 1.3.1 2.9.1 4.4V518.8h1c0-65.6 0-131.2.3-197.3 1-.5 1.6-.5 2.3-.5"/><path fill="#3A3A3A" d="M369.9 511.4c-.4 8.7-.9 17.4-1 26-.1 3 .5 6 .9 9.7a117.2 117.2 0 0 1 0 6.5l-.9.1-.9.1c-.4 2.7-.9 5.3-1 8-.4 4.3-1.2 4.8-4.9 2.3-2.5-1.6-6-3-2.8-7.2 1.5 2.2 2.8 4.4 4 6.6l1.6-.4c0-1.6.3-3.3.3-5l-.1-442.5c0-1.5 2-4.7-2.5-4.5.6-.8 1.7-1.7 2.8-2.6.5 1 1.4 2.2 1.4 3.4.2 3.8 0 7.6 0 11.4.3 20.4.8 40.7.9 61 0 10.3-.9 20.5-.8 30.7.2 13.8.8 27.7 1.5 41.9 0 16.9-.4 33.5-.6 50.8v1.4a53735 53735 0 0 0 0 35.7v4.3c.8 5.3 4 10.7-.7 15.9-.6.6-.3 2.2-.2 3.4l.9 47.6c0 2.6.6 5.2.8 8.4l-.8 1.9v73.2c.2 3.1.5 5.9.9 9l1.2 2.9"/><path fill="#111" d="M341.7 553.4a50.3 50.3 0 0 1-7.8-8.1V543c.7-.9 1-2 1.9-2.6 1.1-.8 2.6-1.2 3.7-1.7-2-3.4-3.8-6.2-5.5-9.4 4.7 4.7 9.4 9.8 14 15 .4.4.6 1.1.8 1.7l1.7-.6v-5l-.1-400.1v-10c-.1-.7-1-1.3-2-1.8a6 6 0 0 1 1.1-2.5c.8.7 2 1.3 2.3 2.2.4 1.2.2 2.6.2 4v83.9c0 3.2 1.6 6.4 1.6 9.6 0 4.7-.5 9.5-.8 14.3-.2 2.4-.8 4.9-.8 7.3v283.3c0 2.3 1.5 4.7 1.4 7-.1 3.7-1 7.4-1.8 12.5l-5.1-4.2-4.8 7.4M152.9 158c-1.3-2.7-2.5-5.4-4-8-1-1.6-2.4-2.9-3.7-4.7 3.4 3 6.8 6.2 10.5 9.7l1.1-1.3c0 1.2.2 2.1 0 3-.5 2.8-1.7 5.6-1.7 8.5l-.1 276.3v5.4h1V162h1v4.9c0 92 .1 183.9-.1 275.8 0 22.6-1.2 45.2-2 67.7 0 .8-.4 1.6-1.2 2-.5-115.7-.5-231-.5-346.5l-.3-8M313 502.3c1 .2 2 .8 3.6 1.8v-8.8c0-105.8 0-211.5-.2-317.3 0-2.3-.9-4.6-1.8-6.8.1-.6.9-2 1.4-2 1.2.2 2.4 1 3.6 1.7l-1.1 1.2 1-2 .8.3c-.8 4.2-2.3 8.4-2.3 12.6V502h1.3v-11.9h.2l.7 4.7h-.3V465c.3-5.7.7-11.4.8-17v-26.2c0-9.4-.1-18.8-.5-28.5l-.3-.3v-48c.3-1.7 1-3.4 1-5.2v-34c-.1-3-1.2-6-1.7-9-.2-1.3 0-2.7 0-4.1l1.3-.2c.5 3 1.3 6.2 1.3 9.2l.1 200.6-3 3.8-2 2.8c-.7-1-1.5-1.8-2.1-2.8-.7-1.1-1.2-2.3-1.8-3.9m5.5-326.7s-.1 0 0 0M110 585c-.3 1.1-.7 1.8-1.4 2.5-2-4-6-2.6-9.3-3.5 6.8-5.6 5.3-13.5 5.3-21V114.4l.1-2c.9.4 2 1 2.2 1.9.3 1.2 0 2.6 0 4v452.5c0 1.8.4 3.8-.2 5.4-1.6 4-.3 6.6 3.3 8.8M376.9 73.2a38 38 0 0 1-7.3.7h-265c-1.6.1-3.2 1.5-4.7 2.6-1-.7-2-1.9-3.8-3.8 4.6-.7 8-1.6 11.3-1.6 14.4-.2 28.7-.2 43 0 7.6 0 15.2.9 22.8.8 17.5 0 35-.8 52.4-.8 45.3-.2 90.7-.2 136 0 5.1 0 10.1 1.1 15.3 2"/><path fill="#E9E9E9" d="M152.5 158c.5 2.6.7 5.3.7 8 0 115.3 0 230.7.2 346.6v2.4c-.7 2.2-1.3 3.6-1.9 5l-.5-38.6V163.7c0-1.8.7-3.7 1.5-5.6"/><path fill="#111" d="M161.8 251c.5 3.5.7 7 .7 10.4 0 65 0 129.8-.2 195.1-1.2-.3-2.6-.8-3.2-1.9-.5-.8 0-2.2 0-3.4V263.4c0-4 1.5-8.2 2.7-12.3m148.8 268.1 2.2 1.3c-.8 1.3-1.9 3.3-2.9 3.3-15.6 0-31.2-.4-46.7-.8h-96.8c-1.6 0-3.2-1-4.1-1.8l2.6-.6 3.1-.5c6.1.3 12.2.9 18.3.8 40.6-.1 81-.3 121.6-.6.6 0 1.3 0 2.3-.6l.4-.5"/><path fill="#080808" d="M297 99.2a10 10 0 0 1-3.4.6l-145.3-.1c1-1 2.2-2.6 3.6-2.6H291c2 0 4 1.2 6 2.1"/><path fill="#111" d="M153.1 600.8c1-.5 2.2-.7 3.3-.7l172.3.1c-1 1-2.5 2.7-4 2.7-9-.1-17.9-.8-26.8-.9h-139c-1.9 0-3.8-.6-5.8-1.2M387.3 200a214 214 0 0 1-.9-18.6c0-18.6 0-37.2.2-56 1-1.7 2.1-2.9 2.3-4.2.4-2.2.1-4.4.1-6.6l1.5-.1c.2 1.3.5 2.6.5 4l-.1 53.8c0 1.6-1.7 3.2-2 5-.3 2.4-1 5.6.3 7.2 3.7 5 1 10.1 1.4 15.1 0 .2-1.9.5-3.3.4m-64.3 9c.3 1.5 1 3 1 4.6v298.2h-1V209M194 558.6a27.3 27.3 0 0 1 6.4-.8l114.2.1c-1.8 1.2-4 3-6.2 3-19-.1-37.8-.7-56.7-.9h-44.2c-3 0-5.9.9-8.8.8-1.6 0-3-1.2-4.7-2.2m193.1 23.6a1149.6 1149.6 0 0 1-.5-54.8l3.8-6v62.4a93 93 0 0 0-3.3-1.6m-121.3-53.3c-10.2.6-20.5.8-30.7.8a6683 6683 0 0 1-73.7-.2c.7-1 2-2.4 3.1-2.4h98c1.1 0 2.2.9 3.3 1.8"/><path fill="#080808" d="M112.7 94c2.4.3 4.4 1 6.5 1H359.9v.8l-4.3.2H116.2c-1.2-.1-4 1.8-3.5-2"/><path fill="#111" d="M330 581H113.1v-.7h246.6v.7z"/><path fill="#080808" d="M113.5 94c1-.3 2.6-1 4.2-1H359.9v1z"/><path fill="#111" d="M374.7 320.6c-.8.4-1.4.4-2.4.4-.3-19.6-.3-39.3-.2-59 0-1.6 1-3.3 2-5 .5 15.2.7 30.4.7 45.7a664 664 0 0 1 0 17.9M305 574.9c15-.5 30-.6 45.3-.6 1.1 3.7-.3 4.8-3.8 4.8-12.4-.2-24.8-.1-37.3 0-2.6 0-4.7-.2-4.2-4.2m82-107c-.4-14-.5-28-.4-42.6 2.8 6.8 5.4 14 4.3 22-.3 2.7-.1 5.6 0 8.4.2 4.4.5 8.8-3.9 12.1M222 578h33.9v.7H114l1.2-2.5c2.7.7 5 1.7 7.3 1.7l99.5.1M90 111V233h-.7V98.3h.7zm46 8c3.8 3.5 7.4 7.4 11.1 11.6-.6.8-1.3 1.2-2 2l-.1.4-3.6-1.8c-.3 2.2-.6 4-1.3 5.6-1.3-.9-2.3-1.3-3.2-1.7-.4 0-.6-.3-.9-1.1a79.2 79.2 0 0 0-4-7c1.3-2.5 2.7-5 4-8"/><path fill="#080808" d="M126 300v67.9h-.7V242.3h.7z"/><path fill="#111" d="M123 524v19.9h-.7V426.3h.7z"/><path fill="#E9E9E9" d="M129 481.4c.7.6 1.9 1.5 1.9 2.5v51.9c0 .7-.7 1.3-1.5 2.1a1995 1995 0 0 1-.5-56.5"/><path fill="#111" d="M122 129c.3 1.2 1 2.5 1 3.7v105.8c0 .5-.2 1-1 1.4V129m77-13.5c-17 .5-34 .6-51.6.6.7-.8 1.9-2 3-2h45.3c1 0 2.1.6 3.2 1.4M314 68h53.9v.7h-93.6V68zM90 461v10.3h-1.3v-45.6H90zm-2 34.3.3-4.6h1.1v45.6H88z"/><path fill="#E9E9E9" d="M128.9 385.4c.8.6 2 1.5 2 2.5v34.9c0 .7-.7 1.3-1.5 2.1-.4-13-.5-26-.5-39.5"/><path fill="#111" d="M387.1 286.9c-.2-6.5-.2-13.2-.2-20 1.8-2 4.1-2.7 3.9.5-.4 4.9 2.8 10.4-2.4 14.6-1 .8-.7 3.1-1.3 4.9m0-184.8c-.4-3.8-.5-7.5-.5-11.7l4-2v15.3c-1.2-.7-2.2-1.1-3.5-1.6M163.5 154c3.6 4.5 6.8 9 10 13.7-1.7-.4-3.8-.7-5.2-1.9-1.8-1.5-3.1-3.5-4.3-5.5-1.2-2-5.7-3.6-.5-6.3"/><path fill="#E9E9E9" d="M131 161h-1.6c-.4-9-.5-18-.5-27.6.9.7 1.6 1.9 2.2 3.8L131 161"/><path fill="#111" d="M172.8 181c-2.6-2.7-5-5.8-7.5-9.3 2.3-.3 6.3-1 6.6-.2 1 2.8.8 6 1 9.4M189 69h-10.9v-.6h53.5v.7zm-32 438.7a312 312 0 0 1-.2 4.3h-.5v-51.8h.7z"/><path fill="#080808" d="M126 383.3v40.6h-.7v-45.8h.7z"/><path fill="#111" d="M193 208.7c-4-4.8-7.9-10-12-15.4.6-.2 1.6-.4 1.9 0 3.5 4.9 9.2 8.3 10 15.4m-12.1-16.4a111 111 0 0 1-8-10.7c1-.9 2.1-1.4 3.4-2.1 1.4 3.1 2.8 6.3 4.5 9.5h.3c0 1 0 1.9-.2 3.3m-29.4 328 2-5c1.6 1 2.9 2.4 4.2 3.7l-1 1-1.8-2.1-3.6 8.7-3-.7c.8-1.8 2-3.5 3.2-5.6M323 209c-.3-.6-.9-1.1-.9-1.7 0-12 0-24.1.9-36.2V209m-149-39.8c3 3.5 6 7.3 9 11.5-5 1.3-4.6-3.6-6.6-5.7-1.3-1.3-1.6-3.6-2.3-5.8M87 276.4V306h-.7v-34h.5l.2 4.4m49.1 279c.7 1 .9 2.3 1.3 2.4 2.2.2 4.5 0 7.2.2a78 78 0 0 1-8.7 1.7c-1 .2-2.1-.2-3-.2v-5c.9.1 1.9.4 3.2.9m26-329.7.2 18.8c-.7.2-1.8 0-1.8-.3.2-6 .5-12.1 1.2-18.5.3-.2.4 0 .4 0m183-94.5a61 61 0 0 1-5.7 7.8c.3-2.6.9-5.4 1.9-8 .2-.5 2.4-.2 3.8.2m8.9 443.6c1.1-1 2.3-1.6 3.6-2.6.7-1 1.4-1.6 2.2-2.2l1.2.9-3.6 6.4 3.4 1.6c-3.6-.1-7.2 1.5-6.8-4m-33-467.3c2.4-.5 4.8-.6 7.6-.5.6 2.4.2 4.2-2.7 3.9-2.1-.2-5 .9-5-3.4m-137.7 74.2c2.7 3 5.4 6.5 8.2 10.3-1.2-.3-3-.6-3.7-1.6-1.8-2.6-3.1-5.5-4.5-8.7M378 93l-3 3.8c-3.8 0-3.7-2.6-2.3-4.2 1.2-1.5 3.8-1.9 6-2.4L378 93m-43 465.5c2.8-.9 5.5-1.4 8.4-2.2 2.6 1.3 2.3 3.3-.3 3.6-2.6.4-5.3-.7-8-1.4M150.6 539c-2 2.8-4.4 5.6-7 8.4-.8-3-3.4-7 3.3-6.2 1 .1 2.2-1.5 3.7-2.2m157.1-31a122 122 0 0 1-8.7-10.7c5.8.9 6.5 6.3 8.7 10.7"/><path fill="#2E2E2E" d="M377 580.2c3 2.2 6 4.8 9.3 7.2 0 .8-.3 1.7-1.1 2.5a86 86 0 0 0-2.1-1c-2-2.8-4-5.5-6-8.7"/><path fill="#F4F4F4" d="M166.8 514.1c.6-.6 1.1-.9 1.8-1.2 1.7.6 3.1 2 4.5 2 6.3.2 12.5.1 18.7 1-8 0-16.2 0-24.7-.2-.5-.5-.4-.9-.3-1.6"/><path fill="#111" d="M161.7 192.2c.5 4.6.7 9.2.6 14.3-.7.2-1.8 0-1.8-.3.2-4.6.5-9.3 1.2-14"/><path fill="#080808" d="M369.9 554.1a7 7 0 0 1 .2-2.8c.5-.3.7-.3.9-.3v24.7h-1l-.1-21.6"/><path fill="#111" d="M296 492a31.2 31.2 0 0 1-4.8-5.7c1.7.2 3.5.8 5.5 1.5l.3.2c-.2 1.2-.4 2.5-1 4m57-384.6a24.7 24.7 0 0 1 3.6-4.5c.7 1.2 1.4 2.5 1.2 3.7 0 1.1-1 2.1-1.7 3.2-1-.7-2-1.3-3.1-2.4m-67 371.4c-2-2-4.1-4.5-6.2-7.3 5.3-.8 6 2.9 6.1 7.3m-94.5-286c2.6 3 5 6.2 7.6 9.9-3.3-2.4-7-4.8-7.6-9.8M320 393v22.8h-.6c0-7.4 0-14.8.3-22.5l.3-.3M262.2 68l3.2.7H242V68h20M320 345l-1.4-22.8h1.4V345"/><path fill="#2E2E2E" d="M131.7 127a58 58 0 0 1 4.3 6.7c-1.3-.7-2.5-1.8-4-3.4-1.3-1.2-2.3-1.7-3.3-2.3l-.3-1.6c1 .1 2 .2 3.3.5"/><path fill="#111" d="M134 543c.3-1.1.7-1.8 1.4-2.5 1.4.8 2.5 1.7 4 3.1v4.7L134 543m209.8-425c-1.8-.5-3.4-1.1-5.3-1.9-.6-3.6 2-3.5 3.8-2.7 1.1.5 1.3 3 1.5 4.7M314 171.2c-1.8 3-3.9 6-6.3 9.3 1.8-3 3.9-6.2 6.3-9.3m-1.1 343.1a34.1 34.1 0 0 1-5.1-5.6c5.9-2.4 4.4 2.4 5 5.6M130 107.6c1.7-.5 3.5-.6 5.6-.5-.5 1.4-1.5 2.6-2.5 3.8l-3.1-3.3m69.2 96.2c2.2 2.2 4.4 4.9 6.5 7.9a67 67 0 0 1-6.5-8M379 600.9c-.2-1.3-.2-2.4-.2-3.7.8-1.6 1.6-2.8 2.8-4l.4-.1c-.1 2 0 4-.4 6-.2.9-1.6 1.4-2.6 1.8m-60.6-71.4-5.1.2c1.7-4.4 4.6-3 7.2-1-1 .5-1.6.7-2.1.8m-188.3 45c2 0 4-.1 6.4 0-1.4 3.3-4.8 3.7-8.4.5 0-.4.4-.6.7-.3.6.2 1 0 1.3-.1m172-400.6a24 24 0 0 1 3.2-5.5c.4 2.3 2.3 5.7-3.1 5.5m87 300.7c2.2.3 2.4 1.4 0 5.8v-5.8M88.7 248.5l-.1-7.5h1.1v7.7l-.3.2c-.2 0-.3 0-.7-.4M320 465l-1.4-14.8h1.4V465m-180.1 70.9a39 39 0 0 1 4.5-6.4 39 39 0 0 1-4.5 6.4m5.2 39c2.3-.5 4.6-.6 7.4-.6-1.4 3.4-4 3.7-7.4.6m-22.5-5c0 1.4-.4 2.8-.6 4.4-.4.7-1.3 1.6-1.4 1.5-2.6-1.7-1.9-4.2 2-5.8M90 404.2a167 167 0 0 1-.3 4.1h-1.3l-.3-6.6 1-.2.9 2.7"/><path fill="#F4F4F4" d="M168 519.7c-1 .6-1.9.7-3.3.6-.7-.6-.9-1-1.1-1.4l.6-.8 1.8-2s.2-.4.4-.4a22 22 0 0 1 1.6 4"/><path fill="#2E2E2E" d="M293 475.1a24.9 24.9 0 0 1 4.5 5.6c-.7.3-1 .3-1.5.3-1-1.9-2-3.7-3-5.9"/><path fill="#111" d="M325.4 517c.6.7.8 1.4 1 2.5-1.2 1.5-2.4 2.6-3.5 3.7l-1-.2c1-2 2.1-4 3.5-6M291 485c-1.5-1.2-3-2.8-4.5-4.7 3.7-.9 3.9 2 4.5 4.7m11.5 2.9c1.7 1.5 3.2 3.4 4.8 5.6-4.1.8-3.8-2.8-4.8-5.6"/><path fill="#3A3A3A" d="M324 139.8c1.3-2 2.8-3.8 4.7-5.7a35.7 35.7 0 0 1-4.6 5.7"/><path fill="#111" d="M390.6 376c-.8-1.4-1.3-3.3-1.8-5.1l2-.3c0 1.7 0 3.5-.2 5.5M89.9 550.4c-.7-1.2-1.4-2.7-2-4.2l1.8-.6.2 4.8M334.6 144c-1 1.8-2.3 3.6-4 5.6a32.2 32.2 0 0 1 4-5.6m-214.7-27c-1.1-1.7-2-3.5-3-5.6 4.3-.3 4 2.4 3 5.5M385 83l4-.5c-.4.8-.8 1.7-1.7 2.3a109 109 0 0 0-2.3-.9s0-.4 0-.7V83M86.7 320.4c.2 3.3.2 6.4.2 9.5h-1c.2-3.3.4-6.6.8-9.5m233.3-62c-.5-1.6-.7-3.2-.8-4.7h1.6c-.2 1.6-.3 3.1-.8 4.7m10.2 266.3c1.3 1 2.5 2.3 3.8 4-2.7.5-4.2-.7-3.8-4m-194.4-409v2c-.8.3-1.5.3-2.5.3h-.3l-.9-3.9c1.5.5 2.5 1 3.7 1.6"/><path fill="#E9E9E9" d="M129 541.4c1 .2 2 .7 3 1.6.1.7 0 1-.4 1.7-1.2.7-2 1-3 1.4l.3-4.7"/><path fill="#111" d="M157 532c-.3 1-.7 1.5-1.3 2-.6-1-.8-2.2-1.1-3.4a9 9 0 0 1 2.5 1.4m226 57.3c.5-.1 1 .1 1.8.6-.1 1.7.9 4.2-2.6 3.1h-.3l1-3.7m-9.4.9c-1.1-.6-2-1.4-3-2.6 1.3-.6 2.5-1 4.3-1.5l-1.3 4"/><path fill="#3A3A3A" d="M320.2 144c.7-1.5 1.8-2.8 3.2-4.2-.8 1.3-1.8 2.7-3.2 4.1"/><path fill="#111" d="M306.7 181c-.6 1.5-1.6 3-3 4.7.7-1.5 1.6-3.1 3-4.7m69.2 412c-1-.5-1.7-1.1-2.4-2.1 1-.6 2-1 3.6-1.5-.4 1.6-.7 2.5-1.2 3.6m-5.1-6c-1.4-.9-2.7-2-4.1-3.5 1.3.8 2.7 2 4 3.4M87 421.5l-.2 2.3h-.5v-7.7h.7zm42 126.7-1.6 4.4-1.2-.3c.4-1.3.8-2.6 1.8-4 .7-.2.9-.2 1-.1M161.9 217c.5 1.3.6 2.7.5 4.5-3.4-.8-2.8-2.5-.5-4.5m120 243.5c.4-.1.5-.2.4.2l-.2 2.1-.2 2.2-1.5-.3c.4-1.3.8-2.7 1.5-4.2"/><path fill="#2E2E2E" d="M129.4 548h-1.2c-.2-.5 0-1 .3-1.8a55 55 0 0 1 3-1.2c-.3 1-1 2-2 3"/><path fill="#111" d="M325.6 155c.4.5.4 1 .3 1.7-1.4.3-2.5.3-3.7.3l-.3-1 3.7-1m-18 11c0-.7.3-1.4 1-2.2 1 .5 1.8 1.2 3.7 2.9l-4.7-.6M296 481.4c.4-.4.8-.4 1.6-.3a8 8 0 0 1 1.8 2.4c-1-.4-2.2-1-3.4-2.1m15.2 18.3c.7.3 1.3.9 2 1.8a24 24 0 0 1-4.3 2.9l2.3-4.7M86 253v-2.8h.6v5.6l-.3.1a70 70 0 0 1-.3-2.9m1 290.1c-.5-1.4-.9-3.2-1.2-5H87v5M299 494l1.2-2.6 1.4 1.2-2.3 1.4h-.3M162 169.4l-1-2a7 7 0 0 1 2.7 1.2c-.7.5-1.3.7-1.8.8m162-3v.9c0 .2-.3.4-.5.6l-.5-5.7h.9l.2 4.2M92.9 86l-3.4-3 .9-.9 2.5 3.3v.6"/><path fill="#272727" d="M102 79.4c1 .7 2.1 1.8 3.2 3.2-1-.7-2.2-1.8-3.3-3.2"/><path fill="#111" d="m319.4 277.2.1-2.7 1.3.3c-.4.9-.8 1.8-1.4 2.4M104.8 591c-.5 1.2-1.3 2.5-2.5 3.8.5-1.2 1.3-2.5 2.5-3.8m40.7-62.1c.4-1 1-2 2-3-.3.9-1 2-2 3m-9.1 11c.4-1 1.1-2.1 2.1-3.3-.4 1-1 2.1-2.1 3.3"/><path fill="#2E2E2E" d="M329 539.6c-1-.4-1.9-1.2-2.8-2.3 1 .4 1.9 1.2 2.9 2.3"/><path fill="#111" d="M300 484.6a9 9 0 0 1 2.5 2.6 9 9 0 0 1-2.5-2.6"/><path fill="#2E2E2E" d="M378.3 93c0-.8.2-1.6.6-2.6a3 3 0 0 1 1.7-.5c-.4 1-1.2 2-2.3 3m6.1-7c-.4 1-1 2-2.1 3 .4-1 1-2 2.1-3m-97 381.8c1 .6 1.8 1.6 2.8 2.9-1-.6-2-1.5-2.9-2.9"/><path fill="#111" d="m161 520-1.7-2.1c.5.2 1 .4 1.7 1v1m236.8 87.9c-.6.2-1 .2-1.6.1l.4-1.3c.4.3.8.6 1.2 1.2M302.5 187c0 .6-.4 1.3-1.1 2 0-.7.4-1.4 1.1-2m24.3 339c-.6-.5-1-.9-1.2-1.3l2.1.3c-.2.3-.4.6-.9 1"/><path fill="#949494" d="M162 169.6a4 4 0 0 1 1.7-.6c.5.3.6.7.7 1.3-.5.5-.9.6-1.6.8-.5-.5-.7-.8-.9-1.5"/><path fill="#111" d="M329.7 532.5c.7 0 1.3.2 1.8.4l-.4.8c-.5-.3-1-.7-1.4-1.2M92.3 585c.4.4.4.9.4 1.7-.9 0-1.6-.2-2.3-.4.5-.5 1-.9 1.9-1.3m263-467.2c.3-.6.7-.9 1.1-1.2l.4 1.3c-.5 0-1 .1-1.6-.1m-22.4 23c-.6-.4-.9-.8-1.2-1.2l1.3-.4c0 .5.1 1-.1 1.6m61.9 470.7a4 4 0 0 1 1.4-1.2l.4.9c-.5.1-1 .3-1.8.3"/><path fill="#434343" d="M314.4 156c-.2-.5-.1-1.1-.2-2.1.5-.2 1.2 0 1.8.2-.4.7-.8 1.3-1.6 2"/><path fill="#949494" d="M164 503.1c.2.5.2 1 0 1.6 0 .3 0 .3-.3.3l-1.7-.1c0-.6 0-1.1.3-1.9.7-.1 1.1 0 1.7.1"/><path fill="#2E2E2E" d="M136.9 135.3c1 .2 1.9.6 3 1.4-.2.3-.5.4-1.1.4-.9-.5-1.4-1-1.9-1.8"/><path fill="#111" d="M350.6 122.6c-.5.3-1 .4-1.3.4l.5-1.6c.3.3.6.6.8 1.2"/><path fill="#E9E9E9" d="M128.7 128.3c1 .3 2 .8 3 1.8-.5.6-1.1.7-2.2.9-.5-.7-.6-1.5-.8-2.7"/><path fill="#111" d="m385 83-1.6-1.3 1-1 .6 2v.3M95.9 588.5l2 2.5-1 .6a52 52 0 0 1-1-2.7c-.1-.4 0-.3 0-.4"/><path fill="#272727" d="M161.3 520c-.2 0-.3-.5-.3-.7a6 6 0 0 1 2.3-.4c.5.4.7.8 1.1 1.5-.3.4-.9.5-1.9.6l-1.2-1"/><path fill="#2E2E2E" d="M279.3 456.8c.9.4 1.6 1.2 2.3 2.3a6.1 6.1 0 0 1-2.3-2.4"/><path fill="#111" d="M354.1 554.6c.3-.6.6-.9 1-1.2l.5 1.1c-.5.1-1 .3-1.5.1M166 516l-1.8 1.8c.1-.5.5-1.2 1.4-2 .4 0 .5.3.5.3h-.1"/><path fill="#030303" d="M368 554.2c0-.4.5-.4.7-.4.3 1.4.3 2.8.3 4.1h-.8l-.2-3.7"/><path fill="#272727" d="M108 86c.9.5 1.6 1.3 2.4 2.5A6.5 6.5 0 0 1 108 86"/><path fill="#111" d="M371 550.6c-.2.4-.4.4-.9.3-.3-1-.3-2-.3-3.4.2-.4.4-.4.9-.5.3 1 .3 2.1.3 3.6"/><path fill="#2E2E2E" d="M323 532.8c-.7-.2-1.3-.7-2-1.5.7.2 1.4.7 2 1.5"/><path fill="#111" d="M341.7 122.6a15 15 0 0 1 1.7 1.3l-.4.6-1.3-1.5c-.2-.3 0-.3 0-.4"/><path fill="#2E2E2E" d="M331 541.8c-.7-.2-1.3-.7-2-1.5.7.1 1.4.6 2 1.5"/><path fill="#111" d="M337 125.8c0-.7.6-1.4 1.5-2.2-.2.7-.7 1.4-1.5 2.2"/><path fill="#2E2E2E" d="M333.6 543c.4.6.3 1.1.3 2-.7-.2-1.3-.8-2-1.6.5-.4 1-.4 1.7-.4"/><path fill="#3A3A3A" d="M329.3 134c.1-.7.5-1.4 1.3-2.1a4 4 0 0 1-1.3 2"/><path fill="#2E2E2E" d="M284.1 463c.6.3 1.2 1 1.6 1.8-.6-.2-1.1-.8-1.6-1.7"/><path fill="#111" d="M356.4 565c.4-.3.8-.3 1.2-.3v.5c-.4 0-.8 0-1.2-.2"/><path fill="#2E2E2E" d="M282.4 463c-.4-.6-.3-1.2-.2-2.2.8.2 1.4.8 2 1.7-.5.4-1 .4-1.8.5"/><path fill="#111" d="M139.6 551c0 .7-.4 1.4-1.1 2.2 0-.7.4-1.4 1.1-2.2m180.9-268.4c-.2.5-.4.7-.7 1l-.3-.3c.2-.3.5-.6 1-.7"/><path fill="#3A3A3A" d="M153 137.4c.6.1 1.2.6 1.8 1.4-.6-.2-1.2-.6-1.9-1.4"/><path fill="#111" d="M137.9 553.2c0 .7-.4 1.3-1 2.1 0-.6.3-1.4 1-2.1"/><path fill="#3A3A3A" d="M326.5 142c.3-.2.6-.1 1 0h-1"/><path fill="#111" d="M328.7 151c0 .8-.5 1.5-1.2 2.4 0-.7.4-1.5 1.2-2.3m8.1-10c0 .8-.4 1.6-1.2 2.4 0-.7.5-1.5 1.2-2.4M327 521.2c.7.2 1.4.6 2 1.4-.6-.1-1.2-.6-2-1.4M102.4 93h-.3l.8-1.4.7.4a4 4 0 0 1-1.2 1m94.5 121c-.6-.3-1.1-.8-1.7-1.7.6.2 1.2.8 1.7 1.6m121.6 300c.4-.2.8-.2 1.2-.2v.5c-.4 0-.8 0-1.2-.2M195 211c-.7-.2-1.2-.8-1.9-1.8.6.3 1.3.9 1.9 1.8m.5-6.6a2 2 0 0 1-1-.7l.4-.4c.2.3.5.6.6 1M162 505.3c.5-.3.9-.3 1.7-.2 0 .5-.2 1-.4 1.6-.4-.4-.8-.7-1.3-1.4M100.8 596c0 .6-.3 1.1-1 1.8 0-.6.4-1.2 1-1.8"/><path fill="#2E2E2E" d="M358.8 99.4c.4.3.5.7.6 1.1H358c.1-.4.3-.8.7-1.1m-238 .7c.4.4.5.8.5 1.4-.6.2-1.2 0-1.7-.2.3-.4.6-.8 1.2-1.2m.3 2c.8.2 1.4.7 2 1.5-.6-.2-1.3-.6-2-1.4m263.8-18c.7 0 1.3.2 2 .6.2.5.1.8-.2 1h-1.4c-.4-.5-.4-.9-.4-1.6"/><path fill="#111" d="M307.4 500.5c-.4-.1-.7-.4-1-.7l.3-.3c.3.2.6.5.7 1"/><path fill="#3A3A3A" d="M360.7 113c0 .6-.2 1.1-.7 1.8 0-.5.2-1.1.7-1.8"/><path fill="#111" d="M309.1 497c.7.1 1.3.7 2 1.7-.7-.3-1.4-.9-2-1.8M87.6 69c-.4.3-.8.3-1.2.3v-.5c.4 0 .8 0 1.2.2m285.2 15.8c.6.2 1.2.6 1.9 1l-.5.7c-.4-.4-.9-.8-1.4-1.5-.1-.3.2 0 0-.2"/><path fill="#2E2E2E" d="M318.6 529.6c.3-.3 1-.5 2-.6.4.5.5.9.5 1.6-.8 0-1.6-.4-2.5-1"/><path fill="#111" d="m133 118-1 1.5-.5-.5 1.2-1h.3m214 4.5a11 11 0 0 1-.3 1.6h-.5v-2l.3-.2c.2 0 .3.2.4.6M299 496c-.7-.2-1.3-.8-2-1.8.5-.3 1-.3 1.8-.3h.3l-.1 2.1M90.7 591l-.2 1.4c-.1-.1-.4-.3-.3-.4 0-.4.2-.7.5-1m242-456.3c.2-.5.5-.7.7-1l.3.3c-.3.3-.5.5-1 .7M107 96.3l1.3.2-.3.3c-.4 0-.7-.2-1-.5M327.2 532l-.7.6c.2-.3.3-.5.7-.6M159.3 160l.2-1.3.3.3c0 .4-.2.8-.5 1m4 354.3c-.1.2-.4.2-.6.2l.6-.2M189 197l1.3.4c-.4 0-.7 0-1.2-.2l-.1-.2m-4.2-7h-.5.5m-3.8-1 .4-1.3c0 .4 0 .7-.2 1.2l-.2.1M93.7 81.4l.6.2c-.3 0-.5 0-.6-.2M297 488l.4-1.3c0 .3 0 .7-.2 1.2l-.2.1m86.3-410.4-.6-.2c.2 0 .5 0 .6.2M384.5 74.6c0-.1 0 0 0 0m-13 14.8s-.1 0 0 0M162 223.1c.2 0 .3.2.3.6-.3 0-.4-.3-.3-.6"/><path fill="#949494" d="M162 225.7v-.3c-.1-.1 0 .1 0 .2.1 0 0 0 0 0"/><path fill="#111" d="M84.5 604.5s.1 0 0 0"/><path fill="#080808" d="M145.5 97.5"/><path fill="#111" d="m145 133 .4.4c-.1 0-.2 0-.3-.3l-.1-.1"/><path fill="#3A3A3A" d="M327.5 147.5"/><path fill="#111" d="m189 197-.4-.4c.1 0 .2 0 .3.3l.1.1m131.5 320.6s.1 0 0 0m-127-316.1c.1 0 0-.1 0 0"/><path fill="#FCFCFC" d="M166 516v-.2h-.3l.3.3"/><path fill="#111" d="M403.2 60h.5-.5"/><path fill="#F4F4F4" d="M166 329v166.9h-.7V258.3h.7z"/><path d="m201.8 221.3 1.2-1.7.5.6-1.3 1-.4.1"/><path fill="#F4F4F4" d="M241 516h-14.9v-.7h29.6v.7z"/><path fill="#F8F8F8" d="M207 514h-9.8v-.7h23.7v.7z"/><path fill="#F4F4F4" d="M310.4 519c.2.2.1.3.1.3l-2.8-2.6 1-.8 1.7 3m-4.8-3.4"/><path fill="#F8F8F8" d="M131.3 161.3c-.3-8-.3-15.7-.3-23.8 1 .3 2.3 1 2.9 2 .5.8.1 2.2.1 3.4v236.4c0 1.7-.2 3.4-.3 5h-1.4l-.3-5.4V167.5c0-2-.3-4-.7-6.2M150.6 369c.4 34.4.4 68.7.4 103.5-3.5.7-3-1.7-3-3.9v-95.4c0-1-.1-2 .3-3 .2-.5 1.2-.8 2.3-1.2m-18.2 57c.7.5 1.5 1.4 1.5 2.2v50.3c0 .6-.2 1.2-.4 1.8h-1.4c0-18 0-36 .3-54.3"/><path fill="#E9E9E9" d="M149.6 155.5c-.2.5-.5.8-.8 1l-.5-1.5c.4 0 .8.1 1.3.5M242 258c.7 2.1 2 4.2 2 6.4.2 35.8.1 71.6.1 107.4v42.9c-7.7 2.4-9 1.6-9-5.6l.1-145.4c0-1.8.6-3.6 1.5-5.3l5.3-.4"/><path fill="#3A3A3A" d="M242 257.8c-1.5.4-3 .5-4.9.4 1.4-.4 3-.5 4.8-.4"/><path fill="#F4F4F4" d="M200 119c.2.4 0 1-.2 1-17.9 0-35.8 0-53.7-1H200m134.4 435 2.3.1v.5h-94.5v-.6z"/><path d="M114.5 567.4c.1-.4.4-.7.7-1l.4.4c-.3.2-.6.5-1 .6m15.2 7c0 .2-.4.4-.8.3 0-.3.3-.4.8-.3"/><path fill="#030303" d="M368.6 508.1c-.3-2.7-.6-5.5-.5-8.7.5-.4.7-.4.9-.4v4.9c.4 1.2.7 1.6 1 2 0 .5 0 1-.4 1.8-.5.4-.8.4-1 .4m-.8-10.1v-2.7c.3-.2.6 0 1 .8l.2 1.9h-1.2"/><path d="M368.7 508.5c.1-.4.4-.4 1-.5.3.8.3 1.7.2 3-.4-.5-.8-1.3-1.2-2.5"/><path fill="#030303" d="M368 347c-.2-.4-.2-.9-.2-1.8.2.3.4 1 .3 1.8"/><path d="M370 505.7q-.5-.3-1-1.4.5.2 1 1.4m-.8-7.8c-.2-.3-.2-.8-.2-1.6.2.3.3.8.2 1.6"/><path fill="#030303" d="M368 448c-.2-.4-.2-.9-.2-1.8.2.3.4 1 .3 1.8"/><path d="M367.8 498.2c.2-.2.4-.2.9-.2.3 0 .3.5.3.8-.2.2-.4.2-.9.2-.3-.2-.3-.3-.3-.8m.2-66.2c-.2 0-.2-.3-.2-.8.2 0 .3.3.2.8"/><path fill="#030303" d="M368 427c-.2 0-.2-.3 0-.7.6-.3.8-.3 1-.3l-1 1"/><path d="M368 309c-.2 0-.2-.3-.2-.8.2 0 .3.3.2.8m1 116.6c-.2.4-.4.4-.9.4 0-.3.1-.7.5-1.2.3 0 .3.3.4.8m-1-76.6c-.2 0-.2-.3-.2-.8.2 0 .3.3.2.8m-49.5-173.4s.1 0 0 0"/></svg>