<svg version="1.1" id="Layer_1" xmlns="http://www.w3.org/2000/svg" xmlns:xlink="http://www.w3.org/1999/xlink" x="0px" y="0px"
	 width="100%" viewBox="0 0 592 592" enable-background="new 0 0 592 592" xml:space="preserve">
<path fill="#000000" opacity="1.000000" stroke="none" 
	d="
M338.660156,33.068447 
	C346.205048,34.313183 353.409637,34.100388 360.516632,34.466942 
	C381.216705,35.534557 401.452637,39.219582 421.314087,44.593380 
	C445.156555,51.044289 467.706238,60.713207 488.247528,74.794724 
	C498.847595,82.061310 508.701569,90.112411 517.699585,99.250542 
	C526.768433,108.460709 533.622437,119.285492 539.664368,130.565887 
	C547.680237,145.531738 553.497986,161.505661 557.935059,177.812485 
	C562.295532,193.838150 564.996582,210.313080 567.129028,226.807175 
	C572.401245,267.585999 571.393982,308.546082 569.954346,349.482758 
	C569.493286,362.594055 568.733337,375.780579 566.802063,388.737701 
	C561.890259,421.691437 553.055481,453.317200 534.272461,481.583588 
	C519.950439,503.136566 502.552490,521.405640 480.217529,534.449402 
	C457.661987,547.621887 433.189880,555.942261 407.579956,561.172974 
	C379.670593,566.873535 351.411285,569.132263 323.085266,571.309814 
	C303.095337,572.846558 283.117493,572.421021 263.164948,572.069092 
	C228.199402,571.452271 193.879349,566.164307 160.872955,554.121704 
	C135.390991,544.824341 112.873238,530.582947 93.208496,511.924683 
	C78.541489,498.008331 68.039101,481.080383 59.749916,462.868713 
	C52.374294,446.664215 47.617165,429.532410 43.695816,412.140167 
	C38.893467,390.840454 36.950527,369.209473 34.555534,347.574860 
	C31.513351,320.094086 30.005760,292.579865 30.986214,265.009033 
	C31.854956,240.579590 34.689941,216.351898 40.281990,192.394836 
	C44.464966,174.474396 50.257565,157.212509 58.239723,140.818451 
	C64.911301,127.116135 73.690887,114.590004 82.967705,102.333214 
	C101.380577,78.005592 126.395042,63.891750 154.290115,54.175907 
	C172.189560,47.941536 190.847488,44.357887 209.472000,40.652363 
	C229.098083,36.747562 248.932083,34.817024 268.745972,33.209431 
	C285.462830,31.853107 302.373718,32.871670 319.198730,32.873291 
	C325.529480,32.873898 331.860199,32.970821 338.660156,33.068447 
M157.426437,280.776306 
	C156.684402,282.633423 156.133209,284.596802 155.168488,286.329987 
	C149.971588,295.666534 150.681793,305.157043 154.232376,314.751190 
	C155.098145,317.090637 156.178955,319.354767 156.966476,321.718292 
	C161.314545,334.767639 165.137787,348.014435 170.039734,360.850342 
	C175.081177,374.051453 179.279648,387.497314 183.364716,400.986816 
	C185.903091,409.368866 189.723236,415.829651 198.832169,418.813782 
	C212.575165,423.316040 225.999008,428.789917 239.571960,433.814514 
	C258.614319,440.863861 277.662109,447.898834 296.724213,454.894531 
	C300.622253,456.325043 304.543640,456.105408 308.457489,454.702393 
	C340.540649,443.201416 372.093781,430.274506 404.317505,419.144440 
	C411.888550,416.529419 417.433014,411.641479 419.437256,403.301483 
	C421.260437,395.715027 424.170654,388.426422 426.478577,380.971039 
	C432.423920,361.765503 439.111572,342.773163 446.059570,323.900665 
	C450.454407,311.963196 454.220947,300.403076 449.065277,287.636871 
	C444.711304,276.855896 441.127716,265.762573 437.249054,254.791260 
	C431.163177,237.576508 425.074585,220.362503 419.070953,203.118973 
	C416.356964,195.323792 413.634674,187.799957 404.810089,184.537308 
	C374.080627,173.175873 343.019012,162.700943 312.758575,150.077469 
	C308.778717,148.417236 304.576355,147.690430 300.087616,148.963638 
	C279.445587,154.818680 259.942657,163.816544 239.659363,170.650726 
	C226.908051,174.947113 214.721954,180.834183 201.712830,184.384689 
	C193.309326,186.678223 187.933395,191.634064 185.324051,200.064896 
	C181.746841,211.622986 177.788422,223.066589 173.823074,234.500183 
	C168.545654,249.716934 163.104385,264.876862 157.426437,280.776306 
M543.595520,282.872681 
	C528.344482,262.305206 513.093506,241.737732 497.819275,221.139008 
	C495.435059,222.942154 494.751831,224.641937 494.029541,226.313721 
	C484.801880,247.672089 475.937592,269.198761 466.163116,290.303833 
	C462.473816,298.269867 462.948517,305.685394 466.139526,312.853455 
	C475.467377,333.806885 484.746399,354.772552 493.373627,376.026794 
	C494.120483,377.866791 494.252075,380.389374 496.906952,381.197723 
	C499.635284,379.796600 501.541046,377.479675 503.305206,375.089783 
	C517.226562,356.230591 531.074890,337.328979 545.680115,318.972351 
	C555.673462,306.412170 554.993774,297.234528 544.959534,284.618683 
	C544.648743,284.227875 544.355835,283.822815 543.595520,282.872681 
M98.631035,372.923798 
	C100.808662,375.799591 103.304115,378.330200 106.493980,380.579163 
	C107.176376,379.432037 107.662773,378.592499 108.169762,377.765625 
	C112.715004,370.352295 115.544464,362.157928 118.923615,354.211548 
	C125.681267,338.320282 132.618774,322.503479 139.167221,306.526917 
	C140.605164,303.018677 140.298981,298.993164 138.685043,295.317139 
	C134.348984,285.441040 129.979553,275.579468 125.681526,265.686859 
	C120.059937,252.747833 114.535156,239.766632 108.880142,226.842331 
	C107.122917,222.826248 105.316528,222.610275 102.335762,225.778183 
	C101.880669,226.261841 101.476768,226.798019 101.084045,227.335388 
	C86.275482,247.599045 72.068642,268.295715 56.252693,287.831146 
	C49.153671,296.599640 49.814102,307.901672 56.717892,316.970032 
	C60.831253,322.373138 65.166077,327.609589 69.214348,333.059906 
	C78.917732,346.123962 88.510658,359.270081 98.631035,372.923798 
M188.547775,440.932861 
	C187.366043,437.301392 186.315994,433.620392 184.973999,430.049164 
	C182.498901,423.462494 178.854156,417.808472 171.771729,415.356018 
	C167.375229,413.833557 163.020218,412.088287 158.289459,411.836639 
	C146.716476,411.221100 135.692856,408.149139 124.759956,404.544189 
	C112.560905,400.521729 110.893356,401.767426 110.220955,414.805481 
	C110.195221,415.304474 110.222527,415.807312 110.176941,416.303955 
	C108.901459,430.199524 107.603333,444.092987 106.344254,457.990021 
	C105.338028,469.096130 104.256844,480.197632 103.447067,491.318481 
	C103.021698,497.160370 104.448906,498.708160 110.322487,499.478821 
	C115.758102,500.192047 121.254318,500.105774 126.719017,500.386078 
	C147.992798,501.477203 169.248398,502.817993 190.563644,503.005859 
	C195.270233,503.047333 197.131882,501.775726 196.857300,496.836792 
	C195.821655,478.208710 194.093185,459.707977 188.547775,440.932861 
M308.641907,551.261841 
	C334.973877,538.657227 360.055603,523.735901 386.486176,509.912842 
	C384.234283,508.562042 382.713501,507.599274 381.147034,506.717712 
	C359.559875,494.568939 336.482056,485.325745 314.924438,473.216553 
	C304.882538,467.575867 296.412872,468.957550 287.322754,473.705475 
	C266.861877,484.392548 246.159424,494.590942 225.364151,504.608154 
	C222.473862,506.000397 219.198746,506.892761 216.296844,509.981598 
	C222.283218,512.995300 227.919800,515.653625 233.389572,518.619507 
	C251.338455,528.352234 269.132385,538.375549 287.189545,547.901062 
	C293.525452,551.243347 300.119812,555.392395 308.641907,551.261841 
M416.648895,158.894043 
	C417.417908,162.126205 418.758911,165.342300 418.850311,168.593536 
	C419.142670,178.994354 426.088104,182.648163 434.544495,185.198044 
	C451.392670,190.278381 468.217468,195.437378 485.025543,200.648987 
	C490.245483,202.267517 491.202362,201.775314 491.734253,196.414932 
	C493.129150,182.357285 494.597321,168.306229 495.877686,154.238113 
	C496.990387,142.012558 498.292358,129.782959 498.766602,117.526367 
	C499.267365,104.585739 498.348480,103.851509 485.269409,103.216042 
	C461.846436,102.078003 438.414185,101.129784 414.984558,100.131241 
	C412.993164,100.046371 410.990814,100.138359 408.996643,100.222618 
	C407.129578,100.301506 406.267609,101.385292 406.533600,103.196091 
	C407.329193,108.612076 407.941132,114.071472 409.077545,119.417686 
	C411.805237,132.250320 414.435669,145.096130 416.648895,158.894043 
M307.955627,132.495605 
	C333.752747,119.648018 360.040527,107.777107 385.319916,94.536102 
	C385.070709,92.500587 384.082336,92.109589 383.225311,91.653236 
	C360.485809,79.544914 337.737274,67.453537 314.995667,55.349133 
	C311.128052,53.290554 307.175323,51.645550 302.640533,52.090023 
	C295.721375,52.768204 290.247345,56.833084 284.666534,60.255032 
	C267.360016,70.866829 248.572617,78.678741 231.149216,89.034454 
	C227.296265,91.324493 222.446411,92.062569 219.247345,96.235458 
	C222.033783,98.478065 224.608414,100.201012 227.472244,101.572121 
	C247.856659,111.331535 268.406647,120.751717 288.335358,131.444672 
	C294.371826,134.683609 300.618500,136.844208 307.955627,132.495605 
M415.253876,454.649506 
	C412.413635,468.308716 409.585754,481.970520 406.727722,495.626007 
	C405.384796,502.042480 405.994232,502.880981 412.651672,502.834656 
	C432.631714,502.695648 452.576996,501.590179 472.525757,500.590576 
	C478.842560,500.274017 485.166504,500.080292 491.477783,499.681610 
	C494.908081,499.464935 498.513275,498.832245 498.699829,494.439423 
	C498.925354,489.127380 498.979675,483.758514 498.476929,478.474304 
	C496.919434,462.104950 496.045319,445.675415 493.903198,429.354279 
	C492.723297,420.364563 492.166321,411.293091 491.308014,402.037476 
	C489.878937,402.141327 489.046783,402.090607 488.270111,402.274445 
	C467.222717,407.256134 446.795959,414.302734 426.248199,420.946808 
	C423.297638,421.900879 421.627594,423.896240 420.869171,426.935547 
	C418.654297,435.811462 416.833069,444.761536 415.253876,454.649506 
M188.007462,148.675476 
	C188.733627,145.436554 189.507782,142.207535 190.177200,138.956909 
	C192.352905,128.391800 194.522385,117.825195 196.626495,107.245689 
	C197.460785,103.050873 195.950974,100.978691 191.342697,101.317596 
	C186.207367,101.695274 181.039719,101.607864 175.891159,101.836197 
	C154.457581,102.786736 133.028564,103.847084 111.591614,104.711578 
	C106.038628,104.935509 104.189293,106.533890 104.189705,112.109154 
	C104.190933,128.443817 106.448273,144.610626 107.806290,160.843399 
	C108.692467,171.436066 109.420547,182.057404 110.808617,192.588226 
	C112.138313,202.676239 112.447044,202.530609 122.310410,200.042114 
	C140.866013,195.360626 158.858887,188.870316 177.119980,183.243118 
	C180.031311,182.345993 181.551941,180.831116 182.124451,177.836655 
	C183.932785,168.378540 185.926208,158.955811 188.007462,148.675476 
M333.718781,471.771484 
	C354.093445,481.197388 373.598663,492.523926 395.539703,500.738037 
	C400.743744,476.273132 405.779022,452.601776 410.814270,428.930450 
	C410.335205,428.504761 409.856110,428.079041 409.377045,427.653351 
	C378.155151,437.586517 347.976685,450.346558 316.663574,462.036591 
	C321.779327,467.386200 328.105377,468.198639 333.718781,471.771484 
M241.216187,159.725403 
	C256.048737,153.273804 271.933563,149.328140 287.699036,141.515808 
	C276.522583,136.115494 266.961945,131.555984 257.454559,126.887878 
	C243.433411,120.003532 229.456482,113.029236 215.448151,106.118668 
	C208.836151,102.856834 207.632889,103.537018 206.156082,110.540504 
	C202.351334,128.583893 198.369888,146.590149 194.599457,164.640564 
	C193.838242,168.284760 192.315140,171.983871 193.962784,176.183945 
	C210.114304,172.456970 224.795395,164.753906 241.216187,159.725403 
M403.089386,138.308472 
	C400.938049,128.069641 398.725311,117.843140 396.665009,107.586006 
	C395.818817,103.373138 393.760803,102.671249 389.892303,104.143112 
	C380.222382,107.822258 371.528656,113.412514 362.252411,117.851219 
	C348.936310,124.223022 335.634216,130.625275 322.381531,137.127365 
	C320.618286,137.992447 318.203857,138.428513 317.543457,141.533493 
	C348.419647,153.110962 378.867706,165.367050 409.921204,175.951721 
	C410.299286,175.452774 410.677338,174.953827 411.055389,174.454880 
	C408.438904,162.686951 405.822388,150.919022 403.089386,138.308472 
M249.544647,447.964325 
	C231.099716,441.065308 212.654785,434.166290 194.009247,427.192261 
	C193.273636,434.493866 204.627213,491.570801 208.305115,499.602539 
	C222.642639,497.273438 234.278015,488.303467 247.052734,482.339172 
	C259.840668,476.368683 273.329773,471.508148 285.807465,463.083649 
	C274.094391,456.411346 261.793823,453.231049 249.544647,447.964325 
M150.770813,334.579590 
	C149.111633,329.971832 148.119553,325.079681 145.292572,320.963593 
	C143.531693,321.550476 143.222275,322.979279 142.729538,324.128418 
	C137.243530,336.923279 131.835266,349.751434 126.376846,362.558197 
	C123.318077,369.734802 120.107544,376.848358 117.147263,384.064880 
	C114.845734,389.675476 115.911865,391.681763 121.637207,393.567780 
	C124.794121,394.607697 127.908394,395.782043 131.083374,396.761261 
	C144.403549,400.869263 157.731949,404.951111 171.079651,408.968384 
	C172.596619,409.424927 174.378922,410.300507 175.796204,408.839844 
	C177.177200,407.416504 175.781082,406.057465 175.312988,404.726440 
	C167.180389,381.601562 159.033829,358.481628 150.770813,334.579590 
M120.718544,229.683578 
	C128.554352,247.822525 136.390152,265.961456 144.225967,284.100403 
	C144.746292,284.141449 145.266617,284.182465 145.786957,284.223480 
	C155.953323,254.907532 166.119690,225.591583 176.581726,195.423096 
	C173.187073,196.086380 171.064713,196.433502 168.974808,196.920151 
	C152.929443,200.656418 137.281860,205.734207 121.678696,210.964584 
	C116.173576,212.809982 114.991592,215.196365 117.110497,220.657623 
	C118.190582,223.441452 119.973106,225.946030 120.718544,229.683578 
M477.219208,239.865616 
	C480.156006,232.801743 483.170441,225.768845 486.004883,218.664139 
	C488.255188,213.023575 487.821564,212.373123 482.148224,210.522568 
	C467.158295,205.633041 452.234802,200.529831 437.162201,195.912170 
	C434.286255,195.031113 431.387726,192.435715 427.455811,194.322433 
	C435.565765,224.063583 447.264526,252.378586 457.875244,281.603058 
	C465.999786,268.586731 471.420593,254.557983 477.219208,239.865616 
M446.804932,404.374695 
	C448.050659,403.915100 449.280273,403.404633 450.544647,403.003937 
	C460.830170,399.744354 471.146423,396.579651 481.403137,393.232239 
	C487.624512,391.201874 488.361298,389.848724 485.914581,383.922211 
	C477.562927,363.692322 469.048126,343.529724 460.557709,323.357391 
	C460.075317,322.211273 459.644867,320.748505 457.629303,321.014160 
	C453.283203,330.083344 450.886383,339.935028 447.523895,349.434631 
	C441.108765,367.558594 434.717010,385.691040 428.405334,403.851166 
	C426.923706,408.114197 428.231354,409.466858 432.600708,408.360352 
	C437.105377,407.219482 441.558044,405.873444 446.804932,404.374695 
M528.947205,453.482422 
	C534.935303,442.087585 539.315186,430.167542 542.019897,417.520142 
	C543.094116,412.497375 541.722900,410.317993 537.252563,409.193329 
	C527.574097,406.758392 517.915222,404.240082 508.203644,401.944916 
	C502.679352,400.639313 502.040588,401.142181 502.226135,406.904236 
	C502.948212,429.332794 505.603333,451.608307 507.831085,473.914246 
	C508.095398,476.560638 507.757263,479.527740 509.580597,481.824493 
	C512.240723,481.210510 513.588623,479.543518 515.017883,477.894470 
	C521.114258,470.860596 524.390747,462.237549 528.947205,453.482422 
M101.467522,200.223251 
	C99.176971,174.173523 96.886429,148.123795 94.520164,121.212936 
	C92.893555,122.555389 92.064903,123.085045 91.428314,123.788506 
	C85.039207,130.848801 80.204735,138.902481 75.666336,147.259277 
	C68.350288,160.730759 64.297295,175.147232 61.555706,190.077881 
	C60.973427,193.248932 61.990936,194.724976 64.996933,195.390945 
	C68.883766,196.252075 72.691536,197.503220 76.599930,198.226776 
	C83.780815,199.556122 90.601891,202.481934 97.962074,202.968216 
	C99.572113,203.074585 101.498573,203.715454 101.467522,200.223251 
M504.212219,163.601852 
	C503.827759,176.067841 501.097107,188.472916 502.632538,201.327164 
	C513.838257,200.026672 524.221191,197.984253 534.425232,194.946503 
	C537.879639,193.918152 539.411621,191.911026 538.830505,188.338593 
	C538.058594,183.593811 537.758606,178.713089 536.432312,174.129044 
	C532.780029,161.504883 527.805420,149.355911 521.408997,137.866104 
	C518.071045,131.870132 514.140930,126.203827 510.478271,120.388626 
	C509.885132,120.474777 509.291992,120.560936 508.698853,120.647087 
	C506.323914,134.539322 505.707916,148.668228 504.212219,163.601852 
M74.528831,447.038055 
	C79.799706,459.275604 84.025436,472.094696 93.875710,482.023315 
	C96.406853,455.338593 100.300850,429.010468 101.755013,401.884766 
	C88.973747,402.751526 77.322540,405.901550 65.650452,408.902191 
	C63.785706,409.381592 63.755711,410.859802 64.173340,412.518738 
	C67.048851,423.941162 69.714195,435.422974 74.528831,447.038055 
M66.807747,205.577347 
	C58.053299,204.730728 57.582344,205.063751 56.327759,211.355743 
	C53.788727,224.089447 52.520931,236.970673 52.144775,249.915527 
	C51.904026,258.200439 51.030731,266.529175 52.219929,276.449890 
	C67.981117,255.259109 83.960052,236.072647 97.347115,213.957047 
	C86.730209,211.030365 77.179520,208.397598 66.807747,205.577347 
M546.187012,397.534302 
	C549.172668,381.153839 549.449036,364.521271 550.679565,347.982849 
	C551.130920,341.917511 550.752319,335.790405 550.752319,329.691498 
	C550.372681,329.525940 549.992981,329.360352 549.613342,329.194794 
	C534.841431,349.129425 519.896973,368.941254 505.841064,390.339447 
	C519.071838,394.592926 531.474548,396.936127 543.648376,400.129242 
	C545.146484,400.522156 545.729553,399.505432 546.187012,397.534302 
M83.733559,393.966980 
	C88.075066,392.771515 93.035103,393.356934 97.234055,389.300262 
	C82.447701,368.923279 67.809677,348.750732 53.171658,328.578186 
	C52.730106,328.746887 52.288551,328.915588 51.847000,329.084320 
	C52.997028,341.071869 54.061634,353.068420 55.324402,365.044098 
	C56.316200,374.450012 57.257710,383.880402 59.385044,393.115326 
	C59.945202,395.547028 59.490013,399.424042 64.041214,398.555267 
	C70.393707,397.342590 76.852730,396.569794 83.733559,393.966980 
M547.409790,236.925598 
	C545.812500,227.272598 545.138855,217.481049 542.983582,207.907501 
	C542.502380,205.770065 542.159241,203.835205 539.317200,204.521393 
	C528.238892,207.196182 516.946777,209.033401 505.270844,212.836975 
	C519.658264,233.944885 534.714905,253.779510 550.270630,273.447449 
	C550.689270,261.306427 549.154846,249.541763 547.409790,236.925598 
M149.439804,511.157806 
	C140.975571,511.681702 132.495667,509.103363 123.777855,510.769073 
	C124.762703,513.523010 126.918411,514.381592 128.442749,515.843384 
	C132.718658,519.943909 138.263123,521.996948 143.265839,524.915894 
	C155.630005,532.130188 168.369537,538.420654 182.556259,541.386169 
	C186.803772,542.274048 189.122375,541.299866 190.349777,537.040222 
	C192.143448,530.815369 194.291504,524.692993 196.264206,518.519165 
	C197.286255,515.320557 196.594727,513.387939 192.731094,513.385559 
	C178.587891,513.376770 164.516312,511.917389 149.439804,511.157806 
M134.593002,93.526855 
	C153.828934,92.603310 173.062485,91.623886 192.302750,90.801979 
	C196.295013,90.631432 197.217178,88.933235 196.145172,85.365349 
	C194.522018,79.963005 192.957840,74.540352 191.511887,69.088326 
	C190.656998,65.864960 189.005249,65.236694 185.679443,65.728188 
	C168.862549,68.213425 153.355682,74.408539 138.302826,81.924347 
	C132.003860,85.069374 126.054337,88.846069 119.627159,93.451225 
	C124.914474,94.282875 129.333252,93.711349 134.593002,93.526855 
M422.269958,89.955208 
	C441.542938,90.940445 460.768738,93.210327 481.490173,92.806625 
	C461.114777,77.796936 439.688843,68.669502 416.941925,62.315620 
	C414.700012,61.689377 413.861755,62.699043 413.301544,64.495537 
	C411.175476,71.313004 409.103302,78.147713 406.916504,84.945580 
	C406.000946,87.791756 407.161835,89.111816 409.859192,89.308456 
	C413.675659,89.586685 417.503662,89.705795 422.269958,89.955208 
M460.588104,523.080383 
	C467.206848,519.510254 474.466980,516.930481 480.813995,510.170898 
	C455.331116,511.331482 431.206909,511.994293 406.762146,513.911987 
	C407.592590,521.982178 410.412231,529.091797 412.694153,536.329712 
	C413.513702,538.929260 415.405853,538.463562 417.559479,538.049072 
	C432.387024,535.195862 446.274841,529.669006 460.588104,523.080383 
M203.189682,528.695129 
	C202.625504,530.612549 202.004028,532.515198 201.506760,534.449768 
	C198.927887,544.482544 199.702133,545.598633 209.938934,546.846985 
	C220.337067,548.115051 230.703415,549.856323 241.139389,550.539246 
	C250.781998,551.170227 260.498413,550.673523 271.426300,550.673523 
	C269.037781,549.160706 267.854156,548.227295 266.526428,547.597961 
	C249.993942,539.761597 234.114777,530.678345 217.908218,522.221069 
	C207.528091,516.804321 207.451401,516.951294 203.189682,528.695129 
M391.598938,83.952606 
	C394.848480,85.550606 396.872009,84.911980 397.803070,81.082863 
	C399.094879,75.770058 400.589539,70.496048 402.254852,65.287781 
	C403.664795,60.878170 402.215546,58.985371 397.724640,58.066402 
	C381.394775,54.724842 364.902283,52.939781 348.274231,52.295223 
	C343.391663,52.105961 338.495605,52.266094 333.605713,52.266094 
	C333.498505,52.710590 333.391296,53.155087 333.284119,53.599583 
	C352.497345,63.602169 371.710602,73.604752 391.598938,83.952606 
M401.850800,536.547791 
	C400.472290,531.769836 399.076721,526.996765 397.720520,522.212524 
	C396.578278,518.182983 394.314880,517.440063 390.582275,519.265259 
	C374.917450,526.925110 359.781769,535.563110 344.498993,543.931030 
	C340.365143,546.194458 336.170868,548.347595 331.348999,550.898010 
	C341.266754,552.188110 350.091400,550.179932 358.935669,549.169739 
	C372.103394,547.665588 385.267792,546.084412 398.252380,543.130005 
	C402.363892,542.194519 403.419342,541.025330 401.850800,536.547791 
M255.104874,53.759308 
	C236.804474,55.774300 218.417221,57.279675 200.502472,62.546471 
	C201.061249,68.545166 203.013672,73.683174 204.474487,78.936073 
	C206.191284,85.109398 207.068466,85.423103 212.690369,82.535149 
	C224.508621,76.464134 236.418823,70.571388 248.212540,64.453636 
	C254.440994,61.222748 260.503998,57.672935 267.456970,53.814728 
	C262.901520,52.944870 259.452545,53.117710 255.104874,53.759308 
z"/>
</svg>