<svg xmlns="http://www.w3.org/2000/svg" width="100%" viewBox="0 0 484 712" height="150" xmlns:v="https://vecta.io/nano"><style><![CDATA[.B{fill:#bbb}.C{fill:#444}.D{fill:#1d1d1d}.E{fill:#292929}.F{fill:#2e2e2e}.G{fill:#f7f7f7}.H{fill:#f1f1f1}.I{fill:#323232}.J{fill:#f8f8f8}.K{fill:#fdfdfd}.L{fill:#f6f6f6}.M{fill:#e9e9e9}]]></style><path d="M485 192v521H1V1h484v191m-40.427 122.5l-.142-92.483-.188-141.974c-.001-4.886-1.982-8.501-5.566-11.647-7.115-6.245-14.524-12.245-20.995-19.116-9.688-10.286-20.946-14.602-35.157-14.118-22.47.765-44.986.193-67.482.24l-206.959.355c-10.017-.01-18.125 3.279-25.253 9.879-7.788 7.211-15.116 15.031-23.533 21.414-6.796 5.153-8.191 11.321-8.175 19.034l.524 350.433.295 178.459c-.001 5.16 1.732 8.785 5.514 12.089 8.488 7.418 16.89 14.948 25.04 22.733 7.501 7.165 16.141 10.59 26.537 10.544l157.467-.397 126.476-.129c6.722.002 12.806-1.133 17.732-6.266 3.678-3.832 7.78-7.254 11.594-10.961 4.871-4.736 9.13-10.294 14.591-14.179 6.215-4.421 8.223-9.769 8.205-16.966l-.525-296.946z" class="K"/><path fill="#0c0c0c" d="M444.573 315l.525 296.446c.018 7.196-1.991 12.545-8.205 16.966-5.461 3.885-9.72 9.444-14.591 14.179-3.813 3.707-7.916 7.129-11.594 10.961-4.926 5.133-11.01 6.268-17.732 6.266-42.159-.013-84.317.052-126.476.129l-157.467.397c-10.395.046-19.036-3.38-26.537-10.544-8.15-7.785-16.552-15.316-25.04-22.733-3.781-3.304-5.515-6.93-5.514-12.089l-.295-178.459-.524-350.433c-.016-7.713 1.378-13.881 8.175-19.034 8.417-6.383 15.745-14.203 23.533-21.414 7.128-6.6 15.237-9.889 25.253-9.879l206.959-.355c22.496-.047 45.011.525 67.482-.24 14.211-.484 25.469 3.831 35.157 14.118 6.471 6.87 13.879 12.87 20.995 19.116 3.584 3.146 5.564 6.761 5.566 11.647l.188 141.974.142 92.983M193.591 469.892c.387-.663.774-1.327 1.63-2.377.635-.777 1.269-1.554 2.574-2.42 1.129-1.658 2.258-3.316 3.776-5.22.254-.193.424-.444 1.138-.827.419-.689.838-1.378 1.757-2.386.573-.801 1.147-1.601 2.359-2.545.689-1.055 1.377-2.11 2.469-3.522.301-.441.601-.881 1.552-1.471 1.039-1.382 2.077-2.764 3.648-4.483.864-1.171 1.728-2.341 3.255-3.627 1.535-1.918 3.07-3.836 5.057-6.049.254-.47.508-.94 1.363-1.615.405-.689.81-1.377 1.633-2.23.271-.165.445-.401 1.161-.892.636-1.094 1.272-2.189 2.273-3.671.1-.338.2-.676.911-1.373l2.387-9.256c.11-7.65.219-15.3.9-23.544l.26-15.861.08-40.558.35-50.662c-.403-1.429-.805-2.858-1.25-5.015-.117-.715-.234-1.431-.123-2.866l-9.657-16.467c-1.361-1.321-2.722-2.641-4.137-4.627-1.233-1.225-2.467-2.451-3.958-4.207-.696-.694-1.391-1.388-1.998-2.755-1.004-.784-2.007-1.568-3.271-2.875-.593-.488-1.187-.976-1.742-2.143-.647-.808-1.293-1.615-2.107-2.885-.193-.293-.464-.462-.795-1.134-.755-.896-1.509-1.793-2.405-3.014 0 0-.314-.164-.512-.699-.713-.556-1.426-1.112-2.369-2.076 0 0-.261-.39-.121-1.044-1.785-1.926-3.57-3.852-5.539-5.658 0 0 .145-.164.044-.833-1.66-1.764-3.321-3.528-5.092-5.675 0 0-.318-.241-.273-.905-1.208-1.209-2.416-2.419-3.821-3.428 0 0 .203-.194.236-.836-.664-.498-1.327-.996-2.098-1.862 0 0-.305-.23-.344-.92l-7.304-8.423c-.281-.278-.561-.556-.638-1.445-.624-.494-1.248-.988-2.296-2.077-.665 1.041-1.912 2.081-1.913 3.123l-.077 273.792c0 4.49.069 8.981-.229 14.068l1.433 1.382c.651-.987 1.303-1.975 2.084-2.926 0 0 0-.135.625-.031.481-.629.963-1.259 2.04-2.098.802-.959 1.604-1.919 3.036-2.923.465-.615.93-1.23 1.858-2.314 1.562-1.782 3.124-3.564 5.352-5.439 1.146-1.643 2.293-3.286 3.892-5.076.309-.165.476-.421 1.09-.975.397-.687.793-1.375 1.252-2.024 0 0-.045-.057.59-.103m153.33-327.518c-.721-.424-1.442-.848-2.654-1.362-.227-.412-.454-.825-.478-2.04-.688-.619-1.377-1.238-2.756-1.853-1.299.312-2.599.624-4.651.943-.738 1.117-1.476 2.233-2.328 3.984-1.207 1.711-2.414 3.421-4.446 5.085-.788 1.487-1.576 2.974-2.363 4.745 0 0-.257.121-.965.094l-3.644 1.161c.759 1.094 1.281 1.847 1.715 3.235-1.16 1.529-2.32 3.059-4.194 4.74-1.594 1.985-2.317 3.807 1.39 5.185.304.638.608 1.276.664 2.696 1.638 1.987 3.276 3.975 5.388 6.164.2.451.401.903.529 2.008l1.031 1.32c.124-.106.368-.285.354-.308-.295-.489-.619-.96-.275-1.635 2.5-1.883 5.001-3.765 8.222-5.636.49-.689.98-1.378 1.659-2.693 1.897-1.763 3.794-3.526 6.425-5.322.438-.742.876-1.485 1.426-2.859 1.785-1.775 3.57-3.551 6.175-5.221 2.711-2.021 3.114-3.961-.15-5.808 0 0-.026.055-.056-.628-.69-.439-1.379-.878-2.627-1.409a6.06 6.06 0 0 1-1.425-2.33c-.655-.528-1.31-1.056-1.894-1.624 0 0-.042.069-.073-.633m42.944 421.71c-.19-1.046-.379-2.092-.42-4.058l.023-416.893c0-2.991-.009-5.982.326-9.626l-.96-3.1-7.62 7.65c-.376.386-.752.771-1.818 1.123l-8.753 8.225c-.489.561-.977 1.123-2.206 1.698-5.155 5.893-4.908 12.78-3.485 20.782l-.346 115.102c-.016 4.64-.201 9.28-.943 14.307-.19 1.787-.544 3.575-.547 5.362l-.123 131.342-.514 93.325c-.003.919 1.333 1.841 2.337 3.375.003.448.006.896-.496 1.842 2.106 5.508 3.627 11.357 6.554 16.387 1.568 2.695 5.558 3.981 8.872 5.961 0 0 .203.369.271 1.052 1.844 1.588 3.689 3.176 6.152 4.986.533.378 1.066.756 1.423 1.542.127.268.224.546.407 1.428.618-.382 1.236-.763 1.87-1.812M263.998 234.001s-.052-.035.636-.149l4.458-8.706c1.386-2.022 2.772-4.044 4.812-6.13l1.096-2.645s.341-.269 1.015-.343l.903-2.913c.235-.514.47-1.029 1.245-1.85.334-.723.668-1.446 1.306-2.365 0 0 .128-.339.663-.659.293-.745.585-1.489 1.328-2.648.504-.882 1.009-1.764 2.179-2.735 1.116-1.954 2.233-3.908 3.855-6.27.545-1.132 1.09-2.264 2.256-3.53.354-.71.708-1.42 1.51-2.572.643-1.072 1.287-2.145 2.582-3.415l10.776-17.93c-3.224.226-4.948.347-7.595.364l-48.729.006c-7.775.095-15.55.191-24.165-.009l-29.069.269.421 2.126s.327.218.236.912L198 176s-.007.005-.036.74l13.981 22.099c.385.373.77.745 1.096 1.829l6.289 8.904c.908 1.466 1.816 2.931 2.739 5.108l7.639 11.399c.472.623.944 1.246 1.346 2.495.612.529 1.223 1.059 1.981 2.163.352.705.703 1.409.968 2.741.508.551 1.016 1.103 1.932 1.923 0 0 .145.466-.003 1.074a28.7 28.7 0 0 0 1.936 1.973c.056.163.112.326.058 1.182l3.135 3.75s.063.421-.062 1.081l2.29 1.987c.567.856 1.134 1.711 1.621 3.19.58.488 1.16.976 2.231 1.943.964.534 1.928 1.069 3.302 2.082.834-.918 1.667-1.837 2.572-3.234 0 0 .363-.32 1.028-.393.977-1.694 1.953-3.387 2.995-5.567 0 0 .328-.365.998-.413l4.199-7.57c.147-.11.295-.22 1.012-.468.238-.69.475-1.38.75-2.019m73.721-112.977c1.061-1.074 2.122-2.149 3.258-3.789.389-.392.779-.784 1.892-1.286.282-.827.564-1.654 1.159-3.018.741-.946 1.481-1.892 2.844-2.928l1.451-3.307c.693-.875 1.387-1.751 2.742-2.711.6-1.082 1.201-2.164 1.905-3.915 1.205-1.996 2.409-3.993 4.142-6.127-.324-.668-.648-1.335-1.927-1.999l-76.898.048-137.702-.585c-.476.599-1.48 1.55-1.35 1.746 3.78 5.675 7.673 11.275 11.912 17.109 0 0 .011.426-.118 1.163 1 1.187 2 2.374 3.462 3.921.168.554.337 1.108.513 2.411 1.166.661 2.333 1.322 3.987 2.127.334.379.669.759 1.053 1.791 1.317.446 2.634.893 4.884 1.226l23.936.172 140.66.576L337 121s-.007-.005.719.024M153.042 557.337c.634.319 1.269.638 2.628.83 1.587-.893 3.649-1.417 4.68-2.742l15.723-20.478c1.611-2.745.812-4.693-2.444-6.467-1.856-2.551-3.712-5.103-5.575-8.217-.714.149-1.427.297-2.584.726-.317.145-.633.291-1.607.204-.651.505-1.302 1.011-2.213 1.835 0 0-.387.141-1.106.113a39.44 39.44 0 0 0-1.694 2.639c-1.303 1.063-2.605 2.126-4.579 3.211-.399.709-.798 1.419-1.464 2.733-2.981 3.069-5.962 6.138-9.665 9.327-2.039 2.941-1.797 5.04 2.635 6.039.424.61.848 1.221 1.195 2.509l2.52 1.805c1.228 1.778 2.457 3.556 3.552 5.934m8.009-383.896c.62.535 1.24 1.07 2.565 1.864 3.564 1.491 6.051.102 8.003-2.911 1.169-1.805 2.457-3.533 4.241-5.29.158-.681.315-1.361.394-2.832-.817-2.325-1.635-4.651-2.286-7.636a77.28 77.28 0 0 0-2.248-2.162l-8.273-11.751c-5.166-7.165-5.186-7.149-11.7-1.382-.62.549-1.261 1.072-2.568 1.648-.342.75-.684 1.5-1.215 2.842-.995 1.053-1.99 2.105-3.696 3.214-2.522 1.437-3.626 3.033.058 5.363 5.611 6.117 11.221 12.233 16.725 19.034m104.76 74.252l-2.464 8.174c-.036 1.051-.073 2.102-.638 3.394l.533 1.524c.625-.572 1.25-1.144 2.471-2.003 3.253-3.691 6.757-7.192 9.716-11.105l43.54-58.134c3.382-4.556 2.465-8.057-3.272-11.824-4.479-2.941-4.52 2.818-6.868 4.162-.763.437-1.081 1.639-1.623 2.477l-22.162 34.258-19.234 29.077m-30.05 190.812c-1.402-2.488-2.155-1.446-3.312.859-4.204 4.462-8.628 8.738-12.573 13.419l-43.949 52.664c-4.377 5.251-4.384 5.245.296 10.13 7.536 7.867 7.425 7.796 13.329-1.461l39.922-62.545c2.362-3.815 7.509-6.662 6.286-13.065M417.46 618.908c3.764-3.831 3.498-5.9-1.491-7.849-.363-.603-.727-1.205-1.03-2.539-2.619-2.518-5.238-5.036-8.404-7.709-.236-.485-.473-.969-.618-2.198-1.02-.849-2.039-1.698-3.629-2.848-1.077-1.301-2.155-2.602-3.262-4.496-.687-.042-1.374-.084-2.772.104-.735-.065-1.471-.131-2.56-.751-1.189.883-2.377 1.766-3.809 3.259l-12.065 11.85c-2.308 2.188-2.47 4.209-.633 6.846 4.917 7.06 9.804 14.151 14.381 21.433 2.02 3.213 3.595 3.071 6.187.814 6.228-5.423 12.62-10.657 19.707-15.914M322.593 143.55c1.518-2.512 3.036-5.024 5.034-7.536.222-.665.444-1.329.36-2.922-1.911-.294-3.821-.842-5.732-.844l-149.58-.075c-.93 0-1.86.307-2.99.505.343 1.359.608 2.41.585 4.241.63.672 1.261 1.344 2.458 2.227.527 1.057 1.055 2.115 1.407 3.961.907 1.636 1.814 3.271 3.073 5.076 0 0-.033.389-.118 1.156 1.562 1.895 3.123 3.79 5.293 6.013 1.865 1.308 3.729 2.616 5.69 4.535.973.048 1.945.096 3.809.04 2.359.231 4.718.462 7.408 1.371.765.238 1.531.683 2.296.684l96.858-.038c1.194-.003 2.384-1.106 4.182-2.045a2.88 2.88 0 0 1 1.656.544c.581-.382 1.162-.765 2.165-1.57.567-.141 1.134-.281 2.492-.124 2.027-1.178 4.054-2.356 6.312-4.187 1.892-2.53 3.784-5.06 6.455-7.718.276-.88.552-1.76.885-3.294m13.212 43.459c-.133.833-.267 1.666-.319 3.367l-.201 51.846-.888 71.348c-.113.817-.324 1.634-.325 2.451l-.199 178.837c-.001 1.715.747 3.43 1.356 5.767.028.652.056 1.304-.25 2.711a53.2 53.2 0 0 0 1.582 3.236c.047.422.094.845-.509 1.475-2.043 2.988.988 3.067 2.72 4.574.135.371.269.743.203 1.744.522.589 1.044 1.179 2.065 2.12.317.51.634 1.021.86 2.198.932.805 1.864 1.61 3.236 2.919 1.581 1.601 3.161 3.203 4.745 5.424 1.315.56 2.629 1.121 4.881 1.299.235-1.772.674-3.543.674-5.315l-.026-193.993.545-160.168-1.341-2.453-3.764 4.498c-4.785 5.326-9.57 10.653-15.044 16.116m87.965 406.065l-.018-482.594c0-2.823.135-5.646.668-8.76l-.697-2.509c.045-1.055.09-2.11.675-3.498l-1.413-2.338-5.129 4.947s-.292-.036-1.019-.195c-.615.608-1.23 1.216-1.981 2.131 0 0-.335-.004-1.114-.118-.53.726-1.06 1.453-1.68 2.622-.185.282-.446.406-1.525.337-.459.743-.918 1.487-1.46 2.875-1.075 1.322-2.151 2.644-3.944 4.034-3.782 4.656-6.172 9.856-6.084 16.89l-.166 37.471.063 337.264-.681 69.918c.928 2.924-.746 6.908 3.87 8.624 0 0 .058.423-.067 1.096.558.589 1.117 1.179 2.177 2.168 1.002 1.347 2.004 2.695 2.903 4.826.748.516 1.497 1.033 2.847 1.766 1.681 1.628 3.362 3.255 5.044 5.593l4.283 2.711c.21.319.421.637.691 1.647l3.702 2.524c.076-1.507.151-3.015.034-5.173.07-.441.141-.883.674-1.607l-.653-2.654m-96.42-380.57v-14.637l-1.543-.587c-3.592 4.192-7.399 8.22-10.739 12.604l-41.201 54.305c-6.263 7.945-9.765 16.305-9.926 26.398l-2.023 92.904c-.681 17.191 4.59 32.327 12.402 47.029 2.161 4.066 3.808 8.536 6.6 12.112 9.998 12.803 20.445 25.253 30.6 37.935 4.886 6.101 9.5 12.419 14.237 18.638l1.593-.62V212.504M72.466 146.5v455.145c3.947-2.906 7.071-4.827 9.747-7.245 9.234-8.344 14.978-18.511 15.049-31.257l.483-113.952.617-304.381c.015-12.928-1.88-25.596-9.501-36.603-4.113-5.942-9.295-10.805-16.395-15.325V146.5M132.035 368.5l.742-186.383c.142-20.225-6.094-37.172-22.452-49.74-.806-.619-1.812-.977-3.217-1.715v433.631c4.048-3.403 7.046-6.448 10.532-8.755 9.263-6.131 13.593-14.672 13.64-25.636l.755-161.402m8.957 0v158.321c2.285-1.41 3.757-2.123 5.004-3.118 9.722-7.756 16.384-17.031 16.377-30.241l.14-289.824c.01-6.377-.923-12.302-4.577-17.515-4.484-6.397-8.802-13.047-16.944-17.081V368.5M196.5 56.233h-81.842l8.452 15.157c4.309 7.52 10.47 11.738 19.518 11.31 4.977-.235 9.983.221 14.977.254l171.892 1.258c13.159.173 25.74-.544 37.977-5.888 7.875-3.439 14.303-12.55 13.75-22.091-61.213 0-122.468 0-184.723 0m59 555.89l-107.441.327c-18.208-.068-25.259 7.379-32.296 26.556h266.236c-.457-2.169-.69-3.953-1.213-5.648-4.306-13.961-14.44-21.647-29.856-21.678-31.476-.062-62.953.268-95.43.442m-31.997-40.279l-47.446-.684c-15.025.03-32.145 13.848-35.859 28.44-.269 1.057-.249 2.187-.386 3.496h217.903c-4.892-6.939-9.639-12.542-13.093-18.852-4.46-8.147-10.631-10.613-19.747-10.648l-101.371-1.751m19.03-122.874l-11.679 18.552-31.473 48.407c-2.145 3.349-3.507 7.198-5.454 11.289h110.841c-1.598-3.214-2.576-5.807-4.067-8.06l-14.321-21.011-34.742-52.862c-2.637-3.99-4.345-3.883-6.951.043-.642.968-1.2 1.993-2.155 3.641m70.3 90.519c-4.746-1.359-9.481-3.849-14.239-3.894-33.131-.315-66.269-.306-99.4.024-8.984.09-17.073 3.041-22.527 11.264-3.287 4.955-7.093 9.487-7.657 16.137h160.037c-2.569-10.009-9.228-16.476-16.213-23.532M254.598 322.5l-.065-41.445c-.03-4.149-.403-8.3-.737-12.44-.233-2.89-1.057-4.713-4.846-4.648-3.782.065-4.487 1.823-4.693 4.793-.161 2.32-.654 4.63-.66 6.945l-.171 138.81c.009 4.573 1.174 9.228 2.432 13.667.405 1.428 2.763 2.978 4.365 3.144 1.008.104 2.874-2.09 3.286-3.554.707-2.511.759-5.257.77-7.905l.319-97.367M378.449 88.983c4.163 4.466 8.507 8.78 12.425 13.451 2.678 3.192 4.915 2.713 7.406.159 6.463-6.627 13.012-13.178 19.207-20.047.83-.92.532-4.211-.452-5.193-5.618-5.603-11.72-10.719-17.415-16.25-3.025-2.939-5.252-2.742-7.633.558l-14.67 20.067c-1.84 2.491-1.195 4.614 1.13 7.254M95.33 633.223l5.879 4.77 16.405-21.816c3.147-3.997 2.92-7.655-.344-11.134-3.962-4.223-8.26-8.129-12.261-12.318-2.232-2.337-4.094-2.242-6.284-.031l-19.827 20.042c-.647.684-.159 3.438.716 4.399 4.884 5.369 10.049 10.482 15.716 16.087M89.144 94.397l4.176 4.226c7.555 7.814 8.916 7.8 16.362-.22.451-.486.823-1.047 1.285-1.521 10.942-11.217 10.996-11.252 1.938-24.061-3.492-4.939-7.284-9.666-11.126-14.736L80.65 75.843c-2.796 2.361-2.799 5.363-.842 7.962 2.678 3.556 5.882 6.715 9.336 10.591m223.307 425.734c.599.231 1.258.757 1.789.65 7.707-1.548 10.561-8.25 5.845-14.523-5.776-7.684-12.172-14.902-17.981-22.562l-35.679-47.69c-.869-1.159-2.12-2.03-3.692-3.502-1.993 8.625 1.73 14.507 5.571 20.366l44.146 67.261m-98.344-284.728l19.191 22.878 2.025-.935c-.729-3.02-.733-6.497-2.304-8.985l-29.184-44.843-19.902-29.878c-3.5 4.714-6.573 8.641-9.337 12.774-.492.735-.116 2.677.557 3.471l38.954 45.518m-69.68-101.452c6.922-7.185 6.992-8.84.73-16.717l-3.684-4.694-13.814-16.879-19.32 18.062c6.547 7.546 12.49 14.857 18.93 21.701 8.391 8.919 9.212 8.719 17.158-1.473M117.278 570.77c-2.311 2.38-4.862 4.583-6.814 7.228-.787 1.067-.982 3.744-.222 4.59 4.841 5.387 9.906 10.593 15.21 15.522.867.805 4.179.622 4.845-.256 6.306-8.305 12.43-16.761 18.214-25.435.991-1.486 1-4.888-.045-6.239-3.604-4.662-7.876-8.807-12.642-13.959l-18.546 18.55m263.724-447.295c1.848-2.135 3.909-4.128 5.452-6.464.758-1.148 1.309-3.64.672-4.314-5.619-5.948-11.526-11.624-17.771-17.799l-21.535 29.089c-.652.906-.428 3.29.331 4.215 3.363 4.101 7.188 7.821 10.611 11.877 2.258 2.676 3.959 2.183 6.101-.067l16.138-16.537m-12.185 475.812c.484.045 1.191.321 1.421.101 5.735-5.5 11.5-10.975 16.997-16.707.588-.613.054-3.237-.796-4.148l-21.609-22.598c-2.666-2.885-4.635-2.494-6.924.068-3.314 3.711-6.842 7.26-9.824 11.22-.852 1.131-.856 3.977-.012 5.136 6.528 8.962 13.36 17.703 20.746 26.927m-23.891-45.734l2.176-2.03c6.064-5.666 6.172-8.802.237-14.852-3.003-3.061-6.138-6.011-9.397-8.796-7.61-6.502-9.856-6.129-15.01 2.615-.643 1.091-.567 3.299.128 4.371 4.211 6.494 8.493 12.964 13.162 19.132 3.623 4.785 4.164 4.587 8.705-.44z"/><path fill="#fbfbfb" d="M327.35 213.004v285.582l-1.593.62-14.237-18.638-30.6-37.935c-2.792-3.575-4.44-8.045-6.6-12.112-7.812-14.702-13.083-29.838-12.402-47.029 1.226-30.947 1.531-61.932 2.023-92.904.161-10.094 3.663-18.454 9.926-26.398 14.064-17.841 27.43-36.231 41.201-54.305 3.34-4.384 7.147-8.412 10.739-12.604l1.543.587v15.137z"/><path d="M188.777 221.089s.318.241.302.798c1.726 2.3 3.467 4.044 5.209 5.787 0 0-.145.164-.147.456l5.4 6.021s.261.39.369.97c.892 1.064 1.675 1.547 2.458 2.031 0 0 .314.164.183.629.752 1.369 1.635 2.272 2.519 3.176.348.046.619.215.847 1.092.701 1.383 1.368 2.181 2.034 2.98.593.488 1.187.976 1.9 2.064 1.1 1.383 2.081 2.165 3.062 2.948.696.694 1.391 1.388 2.123 2.718 1.349 1.836 2.663 3.036 3.976 4.236 1.361 1.321 2.722 2.641 4.144 4.606 3.163 5.944 6.265 11.243 9.367 16.543.117.715.234 1.431.094 2.726.243 2.116.742 3.651 1.242 5.187l-.521 50.511c-.676 1.537-1.117 2.473-1.123 3.411l-.175 49.794c0 1.069.537 2.138.825 3.207-.11 7.65-.219 15.3-.722 23.532-1.13 3.399-1.868 6.216-2.605 9.034-.1.338-.2.676-.84 1.233-1.151 1.358-1.761 2.497-2.372 3.635-.078.307-.252.543-1.111.766-.94.831-1.293 1.604-1.645 2.377a3.41 3.41 0 0 1-1.348 1.475c-2.102 2.077-3.619 4.088-5.135 6.098-.864 1.171-1.728 2.341-3.212 3.679-1.639 1.6-2.659 3.033-3.678 4.465-.301.441-.601.881-1.464 1.495-1.223 1.28-1.884 2.386-2.545 3.492-.573.801-1.147 1.601-2.309 2.562-.992.874-1.394 1.587-1.797 2.301-.085.308-.255.558-1.057.876-1.665 1.811-2.782 3.498-3.899 5.185-.635.777-1.269 1.554-2.454 2.534-.939.875-1.326 1.547-1.714 2.22 0 0 .045.057-.34.045-.741.739-1.098 1.49-1.455 2.241-.026.349-.193.606-1.083.805-1.713 1.735-2.845 3.435-3.977 5.134-1.562 1.782-3.124 3.564-5.239 5.581-1.014.864-1.474 1.494-1.934 2.123-.802.959-1.604 1.919-3.022 2.945-1.094.687-1.572 1.308-2.049 1.928 0 0 0 .135-.343.095-1.175.302-2.007.645-2.839.987l-.106-13.471.077-273.792c.001-1.042 1.248-2.082 2.094-2.513.758 1.099 1.335 1.589 1.912 2.078.281.278.561.556.991 1.421 2.497 3.233 4.845 5.879 7.193 8.525 0 0 .305.23.292.777.684 1.017 1.381 1.487 2.078 1.956 0 0-.203.194-.177.442 1.268 1.446 2.509 2.645 3.75 3.844m-15.777 60.442v200.757l1.31-.008V270.718l-1.31-.011v10.824m.001-44.61v14.402l1.3-.066v-17.579l-.918-.003c-.126.79-.253 1.58-.382 3.246m3.812 246.819l.476-.347c-.221.024-.441.047-.476.347z" class="K"/><path fill="#f5f5f5" d="M72.466 146V92.881c7.101 4.52 12.282 9.383 16.395 15.325 7.621 11.008 9.516 23.675 9.501 36.603l-.617 304.381-.483 113.952c-.071 12.746-5.815 22.913-15.049 31.257-2.676 2.418-5.801 4.339-9.747 7.245V146z"/><path d="M405.849 109.941l3.591-4.355 1.839-2.453c.336.036.596-.088 1.146-.666l2.095-2.213s.335.004.733-.136c1.035-.704 1.672-1.268 2.31-1.832 0 0 .292.036.747-.137l5.548-2.103-.166 3.728c.069 1.121.168 1.678.268 2.235l-.207 8.469-.016 483.229c.052 1.19.138 1.746.223 2.302l-.302 2.031c-1.295.888-2.5 1.07-3.705 1.251l-.911-1.435c-1.521-1.3-2.762-2.121-4.003-2.942l-5.406-5.325-2.382-2.108-3.238-4.557c-.761-1.119-1.291-1.722-1.82-2.326 0 0-.058-.423-.266-.864l-3.16-8.673.18-69.428-.063-337.264.312-38.199 6.655-16.231z" class="L"/><path d="M132.017 369l-.738 160.902c-.046 10.964-4.376 19.505-13.64 25.636-3.486 2.307-6.485 5.351-10.532 8.755V130.662c1.406.738 2.412 1.096 3.217 1.715 16.358 12.568 22.594 29.515 22.452 49.74L132.017 369z" class="G"/><path d="M387.765 564.061a13.62 13.62 0 0 1-1.924-1.597l-5.895-5.206s-.203-.369-.537-.715c-9.331-4.999-11.894-13.792-14.586-22.501-.003-.448-.006-.896-.063-2.117l-.229-20.721.189-206.876c.001-1.807-.275-3.614-.422-5.421l.307-13.92.441-115.918 4.131-19.98c.488-.561.977-1.123 2.04-1.846 3.34-2.784 6.104-5.406 8.869-8.028.376-.386.752-.771 1.72-1.25 2.944-1.33 5.296-2.567 7.648-3.804l.015 8.973-.432 417.649c-.696 1.597-.983 2.438-1.27 3.278M367.999 378.5V226.318l-.717.004v176.552l.717.006V378.5m-.994 63.556v45.717l.641-.012v-48.462l-.519-.006c-.04.644-.081 1.287-.122 2.763z" class="K"/><path d="M140.992 368V169.042c8.142 4.034 12.46 10.684 16.944 17.081 3.654 5.213 4.587 11.138 4.577 17.515l-.14 289.824c.007 13.21-6.655 22.484-16.377 30.241-1.247.995-2.719 1.708-5.004 3.118V368z" class="J"/><path d="M197 56.233h184.223c.554 9.541-5.875 18.652-13.75 22.091-12.236 5.344-24.817 6.061-37.977 5.888l-171.892-1.258c-4.994-.033-10-.489-14.977-.254-9.047.427-15.208-3.791-19.518-11.31l-8.452-15.157H197z" class="G"/><path d="M256 612.119l94.93-.439c15.416.03 25.55 7.716 29.856 21.678.523 1.695.756 3.479 1.213 5.648H115.763c7.037-19.177 14.088-26.624 32.296-26.556l107.941-.33z" class="J"/><path d="M349.877 526.405l-4.968-5.372c-1.123-1.384-2.02-2.201-2.917-3.018l-1.139-2.01c-.684-1.076-1.18-1.674-1.677-2.271-.135-.371-.269-.743-.464-1.635-.71-1.767-1.359-3.014-2.009-4.261l-.133-1.748c-.413-1.49-.835-2.5-1.257-3.509l.004-2.624-.117-8.144.209-168.921-.404-9.893.28-70.777.432-52.438.778-2.913 14.892-16.365c1.738-.581 2.937-.777 4.137-.972l-.115 159.481.026 193.993c0 1.772-.439 3.543-1.265 5.181l-4.293-1.785z" class="G"/><path d="M224.004 571.853l100.871 1.742c9.116.035 15.287 2.501 19.747 10.648 3.455 6.31 8.201 11.914 13.093 18.852H139.813c.137-1.309.117-2.44.386-3.496 3.714-14.592 20.834-28.409 35.859-28.44 15.815-.032 31.631.435 47.946.694z" class="L"/><path fill="#f9f9f9" d="M140.969 91.898l137.318.094 77.432.311c.645.832.755 1.305.865 1.778l-3.977 6.42-2.204 3.568-2.509 2.988c-.834 1.253-1.239 2.144-1.644 3.035l-2.651 3.272c-.771 1.187-1.112 1.941-1.454 2.694l-1.526 1.552-3.628 3.384s.007.005-.388-.001l-7.577 2.112-140.162-.033-24.625-.353-4.245-1.697-1.368-1.517-3.63-2.497-.768-2.181-3.07-4.138c0 0-.011-.426-.15-.895l-3.14-5.566-6.898-12.329z"/><path d="M242.714 448.645l1.975-3.316c2.606-3.926 4.314-4.033 6.951-.043l34.742 52.862 14.321 21.011c1.491 2.254 2.469 4.847 4.067 8.06H193.928c1.948-4.091 3.31-7.941 5.454-11.289l31.473-48.407c3.976-6.13 7.791-12.365 11.859-18.877z" class="J"/><path fill="#fcfcfc" d="M279.598 208.559s-.128.339-.663.459c-.794.931-1.053 1.742-1.312 2.553-.235.514-.47 1.029-1.056 1.944-.643 1.13-.934 1.858-1.226 2.586l-.701.565c-.704 1.001-1.047 1.708-1.39 2.414l-4.587 6.512-4.717 8.374s.052.035-.27.026c-.547.716-.773 1.441-.998 2.166l-.897.62-4.413 7.329-.675.694-3.314 5.31c0 0-.363.32-.696.655l-2.65 2.42c-.964-.534-1.928-1.069-3.112-2.145a11.97 11.97 0 0 0-1.931-2.025l-1.915-3.074c-.793-1.051-1.373-1.596-1.952-2.14l-.177-.91c-1.046-1.644-1.979-2.799-2.911-3.954l-.304-.938c-.641-1.01-1.146-1.571-1.652-2.132l-.29-.901c-.663-.995-1.182-1.555-1.7-2.115-.352-.705-.703-1.409-1.092-2.731-.65-1.135-1.262-1.654-1.874-2.172-.472-.623-.944-1.246-1.376-2.518-2.538-4.253-5.117-7.857-7.695-11.461-.908-1.466-1.816-2.931-2.859-5.041-2.122-3.42-4.108-6.196-6.094-8.972a4.08 4.08 0 0 1-1.148-1.74c-3.578-6.515-7.125-12.432-10.775-18.284-.885-1.419-2.113-2.624-3.184-3.927 0 0 .007-.005.047-.383-.718-1.422-1.475-2.466-2.233-3.51 0 0-.327-.218-.231-.85l.214-1.556c9.446-.069 18.892-.138 28.776.313 1.23 1.335 2.002 2.833 2.819 2.859 6.295.196 12.604.241 18.893-.035.966-.042 1.85-1.964 2.771-3.016l48.606.04c3.885 1.085 3.186 2.824 1.996 4.981-2.253 4.085-4.318 8.273-6.46 12.418-.643 1.072-1.287 2.145-2.476 3.475-.892.988-1.238 1.718-1.584 2.448-.545 1.132-1.09 2.264-2.233 3.617-1.706 2.193-2.815 4.165-3.924 6.137-.504.882-1.009 1.764-2.103 2.903-.818 1.075-1.045 1.894-1.273 2.712m14.993-33.57l2.626-.716h-72.124l-.003.721 69.501-.005z"/><path d="M174.31 142.318l-1.889-3.613-1.863-2.565-.873-3.462c1.13-.199 2.06-.505 2.99-.505l149.58.075c1.911.003 3.821.551 5.513 1.506a48.35 48.35 0 0 0-.621 2.262l-4.847 8.07-1.372 2.887c-1.892 2.53-3.784 5.06-6.139 7.921-2.522 1.407-4.581 2.482-6.639 3.558l-2.187.535c-.98.407-1.474.701-1.969.995-.456-.028-.912-.055-2.134.005-2.588.215-4.411.455-6.233.454l-85.77-.098c-3.633-.002-7.266.181-10.899.278l-7.756-.872c-1.528-.277-2.377-.375-3.226-.473-1.864-1.308-3.729-2.616-5.907-4.428l-4.894-6.276s.033-.389-.112-.833c-1.014-2.103-1.883-3.762-2.753-5.42m42.077-7.32h7.411l-.057-.734h-37.672l-.005.734h30.324z" class="L"/><path d="M313.156 539.678c6.663 6.866 13.323 13.333 15.891 23.341H169.011c.564-6.65 4.37-11.182 7.657-16.137 5.455-8.222 13.543-11.174 22.527-11.264l99.4-.024c4.758.045 9.493 2.535 14.561 4.084z" class="J"/><path d="M254.598 323l-.319 96.867c-.012 2.649-.063 5.394-.77 7.905-.412 1.464-2.278 3.658-3.286 3.554-1.602-.166-3.96-1.716-4.365-3.144-1.258-4.438-2.423-9.093-2.432-13.667l.171-138.81c.006-2.315.499-4.625.66-6.945.206-2.97.911-4.729 4.693-4.793 3.789-.065 4.613 1.759 4.846 4.648.334 4.141.707 8.292.737 12.44l.065 41.945z" class="M"/><path d="M378.238 88.684c-2.114-2.34-2.759-4.463-.919-6.954l14.67-20.067c2.381-3.3 4.607-3.497 7.633-.558 5.694 5.532 11.796 10.647 17.415 16.25.984.982 1.283 4.272.452 5.193-6.196 6.869-12.745 13.42-19.207 20.047-2.491 2.554-4.728 3.033-7.406-.159-3.918-4.671-8.263-8.985-12.637-13.751zM95.031 633.021c-5.368-5.403-10.533-10.516-15.417-15.885-.875-.962-1.363-3.716-.716-4.399 6.456-6.825 13.214-13.363 19.827-20.042 2.19-2.212 4.053-2.307 6.284.031 4 4.189 8.299 8.095 12.261 12.318 3.263 3.479 3.49 7.137.344 11.134-5.487 6.97-10.682 14.17-16.405 21.816l-6.178-4.972zm299.016-41.845l2.783.263 2.225.422 3.55 4.383 3.221 3.113c.236.485.473.969 1.052 1.858l8.001 8.036a59.15 59.15 0 0 0 1.435 2.282c3.006 2.741 1.878 5.03.386 7.322l-18.946 15.967c-2.591 2.256-4.167 2.399-6.187-.814-4.577-7.281-9.463-14.373-14.381-21.433-1.837-2.638-1.675-4.658.633-6.846l12.508-12.191a125.26 125.26 0 0 1 3.719-2.362zM88.906 94.123c-3.216-3.603-6.421-6.762-9.099-10.318-1.957-2.599-1.954-5.601.842-7.962l21.129-17.759c3.842 5.07 7.633 9.798 11.126 14.736 9.057 12.808 9.004 12.844-1.938 24.061-.462.474-.834 1.035-1.285 1.521-7.446 8.021-8.807 8.035-16.362.22l-4.414-4.5z" fill="#f3f3f3"/><path fill="#eee" d="M235.518 439.122c1.467 5.786-3.68 8.633-6.042 12.448l-39.922 62.545c-5.904 9.257-5.793 9.328-13.329 1.461-4.68-4.885-4.673-4.879-.296-10.13l43.949-52.664c3.945-4.681 8.369-8.957 13.169-13.559 1.221-.128 1.846-.115 2.471-.102z"/><path d="M312.227 519.846l-43.922-66.976c-3.841-5.859-7.564-11.741-5.571-20.366 1.572 1.471 2.823 2.343 3.692 3.502l35.679 47.69c5.809 7.661 12.205 14.878 17.981 22.562 4.716 6.273 1.861 12.975-5.845 14.523-.531.107-1.19-.419-2.013-.935zm-98.372-284.693l-38.702-45.267c-.673-.794-1.048-2.736-.557-3.471 2.765-4.133 5.838-8.06 9.337-12.774l19.902 29.878 29.184 44.843c1.572 2.487 1.576 5.965 2.304 8.985l-2.025.935-19.443-23.129z" class="M"/><path d="M144.164 134.194c-7.684 9.949-8.505 10.149-16.896 1.23-6.439-6.844-12.382-14.156-18.93-21.701l19.32-18.062 13.814 16.879c1.257 1.541 2.446 3.137 3.684 4.694 6.262 7.877 6.192 9.532-.993 16.959zm-26.681 436.29l18.341-18.264c4.767 5.152 9.038 9.297 12.642 13.959 1.045 1.351 1.035 4.754.045 6.239-5.784 8.674-11.908 17.131-18.214 25.435-.666.877-3.979 1.061-4.845.256-5.304-4.929-10.369-10.135-15.21-15.522-.759-.845-.565-3.523.222-4.59 1.952-2.645 4.503-4.847 7.019-7.514zm263.278-446.75l-15.897 16.278c-2.142 2.25-3.843 2.743-6.101.067-3.423-4.056-7.248-7.776-10.611-11.877-.759-.926-.982-3.309-.331-4.215l21.535-29.089 17.771 17.799c.637.674.086 3.166-.672 4.314-1.543 2.336-3.605 4.33-5.693 6.724zM368.493 599.08l-20.422-26.72c-.844-1.159-.84-4.005.012-5.136 2.982-3.961 6.51-7.509 9.824-11.22 2.288-2.562 4.258-2.953 6.924-.068 7.071 7.654 14.496 14.98 21.609 22.598.85.91 1.384 3.534.796 4.148-5.497 5.732-11.262 11.207-16.997 16.707-.23.22-.936-.056-1.745-.308z" class="H"/><path d="M263.239 259.019c.036-1.051.073-2.102.564-3.655 1.182-3.007 1.91-5.511 2.637-8.016l18.606-28.732 22.162-34.258c.542-.838.86-2.04 1.623-2.477 2.348-1.344 2.389-7.103 6.868-4.162 5.736 3.767 6.653 7.268 3.272 11.824l-43.54 58.134c-2.959 3.913-6.463 7.414-10.326 11.184a40.46 40.46 0 0 1-1.865.159z" class="M"/><path d="M175.311 167.098l-3.691 5.296c-1.952 3.013-4.439 4.403-8.335 2.46l-2.126-2.097-17.109-18.883c.125-1.984.527-3.435.93-4.886l3.391-3.536a17.86 17.86 0 0 0 1.485-2.506l1.893-1.607c6.514-5.767 6.533-5.783 11.7 1.382 2.802 3.885 5.518 7.832 8.504 12.286a18 18 0 0 0 1.851 2.287c.817 2.325 1.635 4.651 2.205 7.508-.397 1.12-.547 1.707-.697 2.295z" class="H"/><path fill="#eee" d="M348.852 145.348l1.779 1.982a25.54 25.54 0 0 0 2.338 1.723s.026-.055.069.383l-.713 5.265-5.716 5.745-1.799 2.473-6.105 5.659-1.966 2.31-7.891 5.633-.649-.016-.855-1.805-4.887-6.494-1.18-2.489c-.315-1.97-.361-3.366-.407-4.762l3.814-5.071 2.303-3.886c0 0 .257-.121.596-.374l2.85-4.446 3.998-5.551 2.703-3.572c1.299-.312 2.599-.624 4.333-.614l2.119 2.333.985 1.598c.997.809 1.689 1.256 2.382 1.703 0 0 .042-.069.044.274.62.894 1.238 1.446 1.856 1.997z"/><path d="M147.048 548.92l-1.575-2.355-1.61-5.635 9.393-9.558c.862-1.035 1.274-1.72 1.686-2.405l4.373-3.501c.96-.974 1.453-1.637 1.947-2.3 0 0 .387-.141.835-.236 1.106-.566 1.764-1.037 2.422-1.508.317-.145.633-.291 1.525-.489l2.016-.11c1.856 2.551 3.711 5.103 5.771 8.292l1.587 5.999-15.07 20.308c-1.03 1.326-3.093 1.849-5.139 2.506-.985-.555-1.51-.874-2.035-1.193l-3.937-5.847c-.898-.998-1.544-1.484-2.191-1.969z" class="H"/><path fill="#eee" d="M344.701 553.847c-4.316 4.733-4.857 4.932-8.48.147-4.669-6.167-8.95-12.638-13.162-19.132-.696-1.072-.771-3.281-.128-4.371 5.155-8.745 7.401-9.117 15.01-2.615 3.259 2.785 6.394 5.736 9.397 8.796 5.935 6.05 5.827 9.186-.237 14.852-.725.677-1.451 1.353-2.4 2.323z"/><path d="M363.978 299.099c.465 1.614.741 3.421.74 5.228l-.189 206.876.083 20.415c-.803-.454-2.139-1.377-2.136-2.296l.514-93.325.123-131.342c.002-1.788.356-3.575.865-5.556z" class="I"/><path d="M334.701 313.285a66.17 66.17 0 0 1 .708 9.607l-.209 168.921.011 7.833c-.591-1.358-1.339-3.073-1.338-4.788l.199-178.837c.001-.817.212-1.634.629-2.737z" class="C"/><path d="M199.124 160.959c3.467-.436 7.1-.619 10.733-.617l85.77.098c1.822.001 3.644-.238 5.93-.279-.728.677-1.919 1.78-3.113 1.783l-96.858.038c-.766-.001-1.531-.446-2.462-1.023z" class="D"/><path d="M233.149 392.681c-.573-.772-1.11-1.842-1.11-2.911l.175-49.794c.006-.938.448-1.874 1.042-2.957.388 13.07.449 26.287.438 39.504a240.52 240.52 0 0 1-.546 16.158z" class="B"/><path d="M248.672 169.668c-.544 1.212-1.427 3.133-2.393 3.176-6.289.275-12.599.231-18.893.035-.817-.025-1.589-1.523-2.399-2.712 7.757-.468 15.533-.563 23.686-.499z" class="G"/><path d="M364.569 534.29c2.945 8.46 5.507 17.253 14.63 22.222-2.771-1.605-6.76-2.891-8.329-5.586-2.927-5.03-4.448-10.879-6.302-16.637z" class="I"/><path d="M197.978 176.373c1.085.936 2.313 2.141 3.198 3.56 3.651 5.852 7.197 11.769 10.678 18.033-4.7-6.828-9.295-14.026-13.876-21.593zm95.538 10.795c1.817-4.046 3.882-8.235 6.135-12.319 1.19-2.157 1.889-3.896-1.534-4.928 1.553-.434 3.277-.555 6.501-.781l-11.102 18.029z" class="B"/><path d="M140.777 91.653l7.09 12.575 2.958 5.455c-3.918-5.254-7.811-10.854-11.591-16.529-.13-.196.874-1.147 1.542-1.501z" class="F"/><path d="M368.805 149.095c-.975 6.381-2.32 12.769-3.846 19.508-1.432-6.721-1.68-13.609 3.846-19.508z" class="I"/><path d="M232.638 277.781c-3.216-4.94-6.318-10.239-9.312-15.916 3.214 4.934 6.32 10.245 9.312 15.916z" class="B"/><path d="M405.491 109.976c-1.811 5.133-3.981 10.301-6.38 15.732-.15-5.842 2.239-11.043 6.38-15.732z" class="E"/><path d="M222.061 214.326a115.66 115.66 0 0 1 7.608 10.821c-2.612-3.245-5.106-6.855-7.608-10.821zm157.678-75.13c-2.42 2.639-5.184 5.261-8.303 7.866 2.416-2.639 5.187-5.261 8.303-7.866zm9.883-5.363c-2.522 1.564-4.874 2.801-7.593 3.982 1.869-2.348 4.104-4.64 6.803-7.408.453 1.464.707 2.282.79 3.426zm-206.807 79.892c-2.329-2.301-4.677-4.947-7.003-7.938 2.343 2.301 4.663 4.947 7.003 7.938z" class="B"/><path d="M414.909 608.886c-2.583-2.178-5.136-4.722-7.758-7.593a84 84 0 0 1 7.758 7.593z" class="E"/><path d="M213.07 200.313c2.016 2.42 4.002 5.196 5.955 8.337-2.017-2.417-4.001-5.199-5.955-8.337z" class="B"/><path d="M398.515 571.307c1.234 2.499 2.218 5.243 3.208 8.363-4.204-1.21-2.53-5.194-3.208-8.363zm21.467 28.331c1.175-.527 2.38-.708 3.772-1.271.111 1.126.035 2.633-.04 4.14-1.234-.841-2.468-1.683-3.732-2.869z" class="E"/><path d="M329.276 123.378c2.145-.977 4.538-1.684 7.326-2.387-2.096.888-4.587 1.773-7.326 2.387z" class="F"/><path d="M199.612 233.823c-1.871-1.582-3.671-3.492-5.379-5.753 1.879 1.574 3.664 3.5 5.379 5.753z" class="B"/><path d="M417.08 618.882c1.112-2.318 2.24-4.607-.513-7.253 4.391 1.379 4.657 3.448.513 7.253zm7.047-523.002l-5.737 2.146c1.283-1.516 2.938-3.084 4.594-4.651.471.779.942 1.558 1.143 2.504z" class="E"/><path d="M177.133 148.955c1.569 1.54 3.096 3.464 4.633 5.728-1.552-1.554-3.113-3.45-4.633-5.728z" class="D"/><path d="M264.29 233.909c1.085-2.586 2.514-5.228 4.249-8.009-1.098 2.559-2.501 5.255-4.249 8.009z" class="C"/><path d="M229.842 425.363c.432-2.637 1.169-5.455 2.22-8.403-.429 2.654-1.172 5.439-2.22 8.403z" class="B"/><path d="M257.703 244.082c.984-2.322 2.304-4.669 3.955-7.058-.985 2.316-2.303 4.675-3.955 7.058z" class="C"/><path d="M379.98 557.599c1.823 1.24 3.68 2.821 5.552 4.754-1.829-1.236-3.674-2.824-5.552-4.754z" class="I"/><path d="M217.417 441.071c1.185-1.953 2.701-3.964 4.577-5.893-1.176 1.999-2.711 3.917-4.577 5.893zM194.238 227.34c-1.691-1.409-3.433-3.153-5.103-5.261 1.732 1.399 3.392 3.163 5.103 5.261z" class="B"/><path d="M322.334 168.596c1.668 1.624 3.213 3.638 4.774 6.003a35.98 35.98 0 0 1-4.774-6.003z" class="D"/><path d="M143.501 540.99c.797 1.644 1.233 3.348 1.72 5.445-3.878-.345-4.121-2.444-1.72-5.445z" class="C"/><path d="M266.126 247.52c-.413 2.332-1.141 4.836-2.17 7.475.417-2.345 1.137-4.824 2.17-7.475zm17.181-44.62c.776-1.928 1.885-3.9 3.338-5.889-.772 1.937-1.889 3.891-3.338 5.889z" class="B"/><path d="M355.74 169.192c-1.415.539-2.615.734-4.16 1.047.781-1.203 1.908-2.523 3.034-3.843.447.818.894 1.636 1.126 2.797z" class="C"/><path d="M308.545 158.599c1.663-1.224 3.722-2.3 6.128-3.381-1.679 1.173-3.706 2.351-6.128 3.381z" class="D"/><path d="M336.378 507.942c.975 1.143 1.625 2.39 2.15 3.921-1.488-.75-4.519-.829-2.15-3.921z" class="C"/><path d="M352.735 154.753c-.158-1.662.094-3.271.278-5.3 3.246 1.392 2.843 3.332-.278 5.3z" class="D"/><path d="M175.746 535.031c-.788-1.701-1.249-3.488-1.681-5.67 2.82.892 3.619 2.84 1.681 5.67z" class="C"/><path d="M197.46 465.139c.782-1.642 1.899-3.329 3.369-5.018-.776 1.657-1.905 3.315-3.369 5.018z" class="B"/><path d="M253.712 250.074c.656-1.624 1.645-3.284 2.948-5.031-.662 1.607-1.639 3.301-2.948 5.031z" class="C"/><path d="M186.434 478.117c.799-1.653 1.931-3.353 3.417-5.014-.792 1.682-1.938 3.325-3.417 5.014z" class="B"/><path d="M144.624 149.017c-.047 1.423-.449 2.874-.887 4.722-3.094-1.662-1.99-3.257.887-4.722z" class="C"/><path d="M233.992 285.679c-.632-1.16-1.132-2.695-1.353-4.447.681 1.213 1.084 2.642 1.353 4.447z" class="B"/><path d="M174.223 142.712c.957 1.264 1.826 2.923 2.664 4.941-.938-1.276-1.845-2.911-2.664-4.941z" class="D"/><path d="M218.985 256.66c-1.286-.868-2.6-2.068-3.82-3.638 1.326.855 2.56 2.081 3.82 3.638zM188.8 220.757c-1.264-.867-2.505-2.066-3.673-3.612 1.28.862 2.488 2.071 3.673 3.612zm21.72 228.441c.694-1.358 1.714-2.791 3.087-4.222-.685 1.384-1.723 2.766-3.087 4.222z" class="B"/><path d="M320.513 161.031c.403 1.32.45 2.716.529 4.536-3.203-.653-2.479-2.475-.529-4.536zm6.119-9.046c-.302 1.148-.958 2.283-1.904 3.582-.812-.588-1.335-1.341-2.093-2.435l3.998-1.147z" class="D"/><path d="M170.506 492.121c.999-.641 1.831-.983 2.941-1.304-.373 1.009-1.024 1.997-1.676 2.984-.478-.461-.955-.921-1.266-1.68z" class="B"/><path d="M330.02 147.155c-.424 1.421-1.261 2.819-2.437 4.327.449-1.377 1.237-2.863 2.437-4.327z" class="D"/><path d="M349.878 526.715c1.232.24 2.466.791 3.823 1.666-1.192-.235-2.507-.796-3.823-1.666z" class="C"/><path d="M160.02 121.349c1.16.179 2.346.684 3.754 1.428-1.094-.208-2.412-.655-3.754-1.428zm-8.926-10.292c1 .838 1.935 2.044 2.903 3.59-.967-.848-1.967-2.035-2.903-3.59zm186.262 9.952c.727-1.017 1.817-2.019 3.226-3.115-.741.981-1.802 2.055-3.226 3.115z" class="F"/><path d="M415.038 595.271c1.241.466 2.482 1.287 3.756 2.435-1.23-.475-2.493-1.277-3.756-2.435z" class="E"/><path d="M237.981 239.285c.987.808 1.92 1.963 2.818 3.454-.98-.812-1.927-1.96-2.818-3.454z" class="C"/><path d="M387.677 564.264c.375-1.044.662-1.885 1.284-3.022.525.75.714 1.796.568 3.269-.774.549-1.212.67-1.649.792-.066-.289-.163-.568-.202-1.039z" class="B"/><path d="M393.87 590.899c-.915.951-2.007 1.625-3.421 2.335.867-.846 2.055-1.729 3.421-2.335z" class="E"/><path d="M336.758 138.06c-.399 1.047-1.174 2.098-2.27 3.251.418-1.014 1.156-2.131 2.27-3.251z" class="D"/><path d="M405.871 598.985c-1.013-.505-1.982-1.383-2.982-2.59.988.519 2.007 1.368 2.982 2.59z" class="E"/><path d="M155 117.383c1.084.332 2.172 1.038 3.382 2.051-1.045-.354-2.211-1.015-3.382-2.051z" class="F"/><path d="M206.506 454.188c.342-1.034 1.003-2.141 2.024-3.242-.328 1.06-1.016 2.115-2.024 3.242z" class="B"/><path d="M350.735 104.027c.283-1.003.896-2.049 1.821-3.192-.289.985-.89 2.067-1.821 3.192z" class="F"/><path d="M250.239 253.426c.567-.934 1.339-1.629 2.409-2.42a8.55 8.55 0 0 1-2.409 2.42z" class="C"/><path d="M212.958 249.702c-1.025-.446-2.006-1.229-2.977-2.35 1.014.445 2.018 1.229 2.977 2.35zm-17.197-77.242c.803.697 1.561 1.741 2.276 3.166-.802-.686-1.562-1.753-2.276-3.166z" class="B"/><path d="M341.945 518.349c.943.484 1.84 1.301 2.743 2.433-.925-.49-1.857-1.295-2.743-2.433z" class="C"/><path d="M226.644 430.32c.291-1.046.902-2.185 1.87-3.349-.279 1.069-.915 2.163-1.87 3.349zM205.08 240.642c-.892-.59-1.775-1.494-2.457-2.7.956.594 1.711 1.49 2.457 2.7zm30.56 198.171c-.747.296-1.372.283-2.308.232.275-1.987 1.028-3.029 2.308-.232zm27.334-179.673c.683-.147 1.101-.174 1.832-.136-.313.636-.938 1.209-1.563 1.781-.178-.508-.355-1.016-.268-1.645z" class="B"/><path d="M188.025 159.581c.801-.208 1.65-.109 2.732.219-.739.182-1.712.135-2.732-.219z" class="D"/><path d="M335.147 502.958c.589.632 1.01 1.642 1.248 2.863-.595-.688-1.005-1.587-1.248-2.863z" class="C"/><path d="M202.27 236.883c-.684-.216-1.468-.7-2.244-1.559.72.18 1.432.736 2.244 1.559z" class="B"/><path d="M346.562 110.048c.094-.846.499-1.737 1.206-2.675-.097.846-.496 1.738-1.206 2.675z" class="F"/><path d="M207.971 244.688c-.686-.459-1.352-1.257-1.97-2.409.696.454 1.342 1.262 1.97 2.409zm23.118-16.426c.647.205 1.259.724 1.836 1.572-.647-.2-1.259-.729-1.836-1.572zm-56.921 262.53c.165-.672.643-1.293 1.439-1.875-.163.668-.645 1.297-1.439 1.875zm5.074-4.947c.145-.607.606-1.237 1.388-1.867-.143.615-.608 1.23-1.388 1.867z" class="B"/><path d="M339.075 514.049c.597.283 1.093.88 1.528 1.78-.584-.287-1.106-.876-1.528-1.78zm-171.018 6.495c-.476.301-.957.32-1.791.252.36-.236 1.073-.385 1.791-.252zm-3.867.765c-.329.587-.988 1.058-1.964 1.464.333-.57.984-1.075 1.964-1.464zm-3.288 1.845c-.134.677-.628 1.339-1.45 2.024.145-.665.617-1.351 1.45-2.024zm-6.297 5.825c-.076.674-.488 1.359-1.216 2.091.082-.662.481-1.371 1.216-2.091zm-7.596 20.28c.685.147 1.332.633 1.965 1.44-.677-.153-1.34-.627-1.965-1.44zm6.1 7.778c.592.019 1.117.338 1.739.957-.537-.019-1.172-.338-1.739-.957z" class="C"/><path d="M387.937 565.6c.379-.418.817-.54 1.583-.755a2.97 2.97 0 0 1-1.583.755z" class="I"/><path d="M402.13 580.936c.592.267 1.121.87 1.632 1.789-.577-.274-1.135-.863-1.632-1.789zm5.069 6.938c.725.163 1.399.718 2.133 1.607-.688-.182-1.436-.699-2.133-1.607zm-8.159 3.691c-.535.177-1.084.059-1.854-.241.466-.139 1.153-.097 1.854.241zm25.151 4.304c-.317-.415-.402-.97-.355-1.701.284.403.435.982.355 1.701z" class="E"/><path d="M149.517 142.968c-.023.688-.383 1.398-1.053 2.189.032-.668.374-1.418 1.053-2.189z" class="C"/><path d="M337.1 170.894c.156-.653.674-1.299 1.511-2.003-.17.631-.66 1.32-1.511 2.003z" class="D"/><path d="M175.586 167.101c-.125-.59.025-1.178.461-1.902.129.544-.029 1.225-.461 1.902z" class="C"/><path d="M345.177 162.902c.112-.668.592-1.353 1.376-2.141-.133.64-.571 1.382-1.376 2.141z" class="D"/><path d="M356.849 94.012c-.374-.404-.485-.877-.652-1.711.268.307.592.975.652 1.711z" class="F"/><path d="M304.138 160.212c.35-.525.845-.818 1.613-1.014-.307.48-.888.863-1.613 1.014z" class="D"/><path d="M173.886 156.965c-.623-.254-1.163-.838-1.673-1.735.605.26 1.181.832 1.673 1.735z" class="C"/><path d="M352.955 148.711c-.659-.11-1.332-.561-2.044-1.335.65.116 1.34.555 2.044 1.335zm-31.637-1.804c-.03-.721.329-1.505.953-2.496-.012.673-.288 1.553-.953 2.496zm27.552-1.918c-.636-.193-1.253-.744-1.909-1.619.617.205 1.272.733 1.909 1.619z" class="D"/><path d="M191.455 472.121c.063-.649.42-1.4 1.131-2.158-.043.681-.44 1.368-1.131 2.158z" class="B"/><path d="M346.937 142.726c-.677-.096-1.369-.543-2.121-1.307.662.108 1.384.531 2.121 1.307zm-3.25-3.352c-.663-.269-1.224-.939-1.875-1.934.599.295 1.288.913 1.875 1.934zm-173.273-2.845c.663.318 1.181 1.026 1.724 2.07-.607-.336-1.237-1.008-1.724-2.07zm156.973-.515c-.106-.533.028-1.067.534-1.797.15.467-.072 1.132-.534 1.797z" class="D"/><path d="M342.508 116.004c-.02-.698.321-1.452.935-2.37-.009.661-.291 1.488-.935 2.37z" class="F"/><path d="M410.908 103.117c-.12.705-.611 1.393-1.426 2.147.136-.677.595-1.42 1.426-2.147zm13.281-1.251c-.33-.412-.43-.969-.398-1.705.297.401.463.981.398 1.705zm-10.059-1.668c-.187.696-.764 1.335-1.66 2.049.211-.652.741-1.379 1.66-2.049zm3.069-1.99c-.274.644-.911 1.207-1.878 1.758.285-.621.9-1.23 1.878-1.758z" class="E"/><path d="M161.105 173.099c.651.207 1.249.755 1.827 1.625-.64-.213-1.26-.748-1.827-1.625z" class="C"/><path d="M193.273 469.915c.071-.65.458-1.322 1.162-2.004-.071.654-.458 1.317-1.162 2.004zm9.122-10.83c.088-.676.491-1.389 1.233-2.104-.08.688-.499 1.377-1.233 2.104zm21.474-25.633c.052-.67.405-1.443 1.136-2.193-.026.713-.431 1.401-1.136 2.193z" class="B"/><path d="M244.951 249.328c.61.183 1.18.677 1.725 1.474-.605-.186-1.185-.674-1.725-1.474zm-3.89-5.195c.642.215 1.221.759 1.768 1.619-.632-.219-1.231-.754-1.768-1.619zm-5.055-7.961c.579.257 1.085.818 1.516 1.677-.579-.259-1.085-.816-1.516-1.677zm26.957-.083c-.06-.656.165-1.381.694-2.122.066.674-.172 1.364-.694 2.122zm-28.916-2.924c.562.246 1.08.806 1.539 1.667-.567-.251-1.075-.802-1.539-1.667zm39.53-14.117c.016-.674.359-1.38.995-2.175-.027.655-.348 1.399-.995 2.175z" class="C"/><path d="M185.221 216.482c-.714-.149-1.411-.619-2.041-1.452.73.135 1.394.633 2.041 1.452z" class="B"/><path d="M275.678 216.064c-.045-.691.246-1.419.819-2.274.027.661-.228 1.449-.819 2.274z" class="C"/><path d="M277.893 211.417c-.011-.657.248-1.469.89-2.301.048.701-.286 1.425-.89 2.301zm1.972-3.018c-.04-.659.188-1.477.78-2.345.072.696-.22 1.44-.78 2.345zm-105.113-4.581c-.679-.184-1.256-.673-1.801-1.475.656.181 1.279.675 1.801 1.475zm114.688-10.695c.036-.663.382-1.393 1.05-2.16-.032.673-.386 1.383-1.05 2.16z" class="B"/><path d="M336.15 186.941c.163.705-.02 1.479-.473 2.41-.138-.676-.005-1.509.473-2.41z" class="C"/><path d="M328.163 176.832c.036-.327.295-.326.353-.211l.997 1.55c.014.023-.23.202-.354.308-.344-.44-.688-.88-.995-1.647z" class="D"/><path d="M195.425 169.737c.326.277.287.584.102 1.335-.253-.14-.36-.721-.102-1.335z" class="B"/><path d="M173.001 281.037v-10.33l1.31.011V482.28l-1.31.008V281.037zm.002-44.554l.381-2.808.918.003v17.579l-1.3.066.002-14.84zm3.718 247.12c.128-.162.348-.185.569-.209-.159.116-.317.231-.569.209z" class="G"/><path d="M367.999 379v23.88l-.717-.006V226.321l.717-.004V379zm-.994 62.64l.122-2.347.519.006v48.462l-.641.012V441.64z" class="H"/><path fill="#eee" d="M294.185 174.992l-69.095.003.003-.721h72.124l-3.032.718z"/><path d="M215.903 134.998h-29.839l.005-.734h37.672l.057.734h-7.895z" class="H"/></svg>