<svg version="1.1" id="Layer_1" xmlns="http://www.w3.org/2000/svg" xmlns:xlink="http://www.w3.org/1999/xlink" x="0px" y="0px"
	 width="100%" viewBox="0 0 592 592" enable-background="new 0 0 592 592" xml:space="preserve">
<path fill="#000000" opacity="1.000000" stroke="none" 
	d="
M25.855934,282.994507 
	C19.493477,266.447723 14.399071,249.917755 11.977377,232.722000 
	C8.522120,208.187164 8.278770,183.843033 14.827378,159.522430 
	C21.001566,136.592377 31.247187,115.840759 46.340137,97.829620 
	C56.992332,85.117836 69.535065,74.109093 83.872742,65.273865 
	C101.087692,54.665592 119.500763,47.212414 139.316635,43.668930 
	C156.268738,40.637550 173.413055,41.190308 190.544647,42.875488 
	C209.896759,44.779087 228.445206,50.042580 246.256546,57.309555 
	C264.048798,64.568733 281.714203,72.477776 296.962311,84.642792 
	C300.174164,87.205208 303.134369,85.203079 305.758057,83.805389 
	C312.508118,80.209480 319.158905,76.393631 325.636047,72.326065 
	C338.107697,64.493996 351.645203,59.054440 365.381195,54.004238 
	C378.990570,49.000603 392.841919,44.732048 407.248260,42.961990 
	C424.983124,40.782963 442.831238,40.613010 460.520630,43.354725 
	C477.917206,46.051067 494.377533,52.004402 509.734253,60.528900 
	C525.913391,69.509933 540.240417,80.856384 552.830017,94.647636 
	C568.460144,111.769600 578.581421,131.675278 585.124268,153.560013 
	C592.590027,178.531921 593.088013,204.080612 589.864929,229.739548 
	C587.369446,249.605881 581.872742,268.646057 574.194641,287.207825 
	C567.190796,304.139557 559.139893,320.435638 549.651489,336.077667 
	C531.590210,365.852509 510.314880,393.172363 487.803406,419.709595 
	C470.895050,439.641693 452.615509,458.270874 435.218567,477.724854 
	C424.309326,489.924042 411.601105,500.515778 399.685181,511.813110 
	C383.151306,527.488647 366.037170,542.513245 348.657104,557.238708 
	C336.094360,567.882751 323.746002,578.781799 310.605377,588.732971 
	C304.594421,593.284973 298.588898,593.431396 292.378174,589.035767 
	C281.075043,581.036194 271.019806,571.526611 260.402527,562.700867 
	C249.522766,553.656921 238.591522,544.629883 228.294861,534.944702 
	C220.927048,528.014404 213.396545,521.230835 206.110321,514.199585 
	C196.328796,504.760284 186.019791,495.811462 176.162033,486.417542 
	C161.585403,472.526764 148.093597,457.577484 134.311005,442.910828 
	C118.698975,426.297394 104.226456,408.731934 90.379898,390.658539 
	C78.245537,374.820007 66.452789,358.693451 56.030476,341.665833 
	C48.503578,329.368591 41.428478,316.772736 34.679756,304.030457 
	C31.195616,297.451996 28.861977,290.264221 25.855934,282.994507 
M134.068848,202.503036 
	C136.803329,209.992691 139.296326,217.581619 142.325409,224.950165 
	C147.684006,237.985413 152.307983,251.314499 160.916901,262.881653 
	C168.246155,272.729401 176.023209,282.205933 183.527802,291.902740 
	C190.734268,301.214355 198.382919,310.182404 205.746368,319.374237 
	C213.835510,329.471924 221.383850,340.044037 229.998062,349.666138 
	C236.215042,356.610504 239.841019,365.487671 247.377396,371.396637 
	C253.007339,375.810822 259.193542,379.341766 264.967438,383.502930 
	C275.191895,390.871582 285.442871,398.203888 295.624115,405.631775 
	C299.724976,408.623657 303.156067,407.968536 307.461365,405.380219 
	C314.918274,400.897186 321.298889,395.056519 328.306915,390.034424 
	C338.407593,382.796082 348.961487,376.108948 357.749176,367.054962 
	C365.639893,358.925018 372.415894,349.950928 379.524414,341.198944 
	C395.777374,321.188385 411.712311,300.927948 427.805237,280.792877 
	C439.198883,266.537384 449.669067,251.897018 456.231506,234.737320 
	C461.105408,221.992844 465.962311,209.240570 471.001831,196.561371 
	C473.136383,191.190948 473.014313,190.862549 467.439270,188.967529 
	C448.701630,182.598419 430.021332,176.060608 411.290375,169.671661 
	C404.423065,167.329300 397.217377,166.088257 390.144653,167.712250 
	C371.688324,171.950150 353.173126,176.098969 335.015930,181.423950 
	C317.781677,186.478271 300.706177,189.299194 282.990875,184.924530 
	C259.914795,179.226074 236.855118,173.460709 213.765106,167.819382 
	C209.077744,166.674179 204.253937,165.903839 199.490524,167.453415 
	C179.931793,173.816055 160.381104,180.204193 140.853592,186.661957 
	C129.489365,190.420090 129.511658,190.487488 134.068848,202.503036 
M445.230042,106.260231 
	C442.367310,104.531662 439.921967,102.318787 437.495209,100.020699 
	C426.883881,89.972015 416.245331,79.949127 405.455658,70.093094 
	C400.518250,65.582870 396.502289,65.656837 390.611298,69.213211 
	C385.432617,72.339546 381.468750,76.839165 376.905701,80.654320 
	C360.860504,94.069687 344.501160,107.108818 328.415710,120.476883 
	C324.138702,124.031342 319.441956,127.221359 315.798126,131.908722 
	C318.099030,133.893127 320.573364,134.755432 323.123413,135.420746 
	C340.573456,139.973557 358.056061,144.404602 375.473724,149.077744 
	C388.482330,152.567963 401.403656,153.012253 414.270844,148.697403 
	C430.638092,143.208862 447.004425,137.704468 462.932068,131.007141 
	C467.459808,129.103302 467.662231,127.779282 464.091248,124.330627 
	C457.998077,118.446182 451.869202,112.598640 445.230042,106.260231 
M162.708633,102.218864 
	C154.749115,109.019135 147.193237,116.245422 139.801514,123.657097 
	C135.141327,128.329880 135.427368,130.496719 141.389557,132.543411 
	C156.299789,137.661789 171.357224,142.389221 186.091812,147.969940 
	C198.900711,152.821304 211.497009,153.425354 224.648331,149.735428 
	C241.106903,145.117569 257.722565,141.061096 274.255798,136.706772 
	C278.318298,135.636841 282.324036,134.351486 287.130524,132.937241 
	C281.223053,127.469658 276.109039,122.577263 270.730957,117.889763 
	C251.820740,101.407677 232.262772,85.723289 212.723846,70.013573 
	C205.940170,64.559364 201.241257,65.222031 194.881989,71.415344 
	C184.415253,81.608971 173.789200,91.639000 162.708633,102.218864 
M445.920013,396.817474 
	C446.841431,383.353638 446.680725,369.870544 446.511841,356.393219 
	C446.435638,350.311768 445.252991,349.554443 439.641083,351.397278 
	C419.610107,357.974945 399.636047,364.729950 379.549530,371.132629 
	C370.042572,374.163025 363.315491,379.134155 362.456207,389.952087 
	C362.143768,393.885529 360.922333,397.745514 360.132782,401.642487 
	C357.830872,413.003784 355.444550,424.349396 353.307037,435.741608 
	C352.779541,438.552979 351.337891,441.366211 352.220398,444.375824 
	C352.961792,444.495728 353.450165,444.658539 353.931824,444.640594 
	C379.676422,443.680359 405.349182,441.264252 431.118896,440.825104 
	C434.907104,440.760559 438.155243,439.101318 441.515808,437.705597 
	C444.002228,436.672943 444.779907,434.836182 444.839630,432.192047 
	C445.098907,420.708893 445.541199,409.229858 445.920013,396.817474 
M214.577423,442.842804 
	C226.311920,442.520111 237.984512,444.202942 250.349472,444.713989 
	C248.633560,435.244415 247.209976,426.615356 245.483292,418.047333 
	C243.124374,406.342224 240.602295,394.668518 238.003235,383.014130 
	C237.216492,379.486267 235.308731,376.952454 231.537521,375.497711 
	C212.933228,368.321045 194.004227,362.092163 175.123016,355.719452 
	C169.058792,353.672668 162.968307,351.703613 156.700806,349.636658 
	C155.549286,353.707794 155.637787,357.387421 155.703690,360.992706 
	C156.138550,384.783112 156.790543,408.569824 157.155151,432.361023 
	C157.228439,437.143433 159.055466,439.468445 163.796265,439.750031 
	C180.400909,440.736176 197.001724,441.786835 214.577423,442.842804 
M76.402374,268.838867 
	C71.326019,279.316254 66.198883,289.769440 61.194992,300.281311 
	C58.740685,305.437134 59.188770,306.216888 64.528038,308.328247 
	C67.768822,309.609772 70.828285,311.484253 74.160843,312.376953 
	C92.412659,317.266174 110.327881,323.199585 128.234772,329.190948 
	C133.328522,330.895294 138.685516,331.812805 144.183487,333.155029 
	C145.356537,324.466187 144.573685,316.305389 145.410797,308.190277 
	C146.466309,297.957855 147.096313,287.573456 146.580566,277.321533 
	C146.174881,269.257324 145.430222,260.267914 136.475174,256.126251 
	C123.467079,250.110107 110.971199,243.204575 98.748352,235.762543 
	C94.987816,233.472900 92.911812,234.752960 91.115463,238.650620 
	C86.534996,248.589096 81.543671,258.338226 76.402374,268.838867 
M541.211365,306.751495 
	C543.144043,304.493774 542.667480,302.119659 541.485229,299.760101 
	C539.475342,295.748657 537.379456,291.780151 535.382812,287.762238 
	C527.109253,271.113312 518.778625,254.491760 510.671509,237.761963 
	C509.120331,234.561050 507.226624,233.968689 504.365387,235.386536 
	C502.433533,236.343842 500.638000,237.573227 498.762268,238.647278 
	C488.382538,244.590637 478.226044,250.984512 467.533661,256.299957 
	C460.273529,259.909119 456.504333,264.383392 456.832520,272.832794 
	C457.407532,287.636444 457.155212,302.470642 457.407043,317.289368 
	C457.490723,322.210968 458.058258,327.124359 458.383820,331.747223 
	C460.296997,332.674713 461.516907,331.856567 462.765320,331.552582 
	C481.179077,327.068848 498.790985,319.926422 517.189514,315.292908 
	C525.144897,313.289429 533.332642,311.316193 541.211365,306.751495 
M279.890533,440.428131 
	C276.339386,443.175476 272.851562,446.010376 269.215912,448.640900 
	C266.569153,450.555878 265.645508,453.006195 266.460693,456.035736 
	C268.915955,465.160370 271.153839,474.360535 274.053284,483.345093 
	C280.678619,503.875031 287.493744,524.347534 294.577179,544.723267 
	C296.487091,550.217163 297.269653,556.251648 300.818787,561.365479 
	C303.152130,559.971497 303.381378,557.950928 304.014557,556.094482 
	C310.334503,537.564392 316.740417,519.063599 323.045685,500.528564 
	C327.703186,486.837433 332.217651,473.097656 336.863159,459.402374 
	C338.000977,456.048004 337.318329,453.590485 334.809601,450.894318 
	C326.697388,442.175934 316.687866,435.856873 307.384857,428.665649 
	C302.754425,425.086273 298.782410,425.554688 294.132507,429.130615 
	C289.517700,432.679779 285.007202,436.364532 279.890533,440.428131 
M84.843735,204.674255 
	C85.994789,206.305252 87.375160,207.822723 88.250130,209.590378 
	C90.190834,213.511093 92.452095,213.795639 95.476410,210.771820 
	C100.529495,205.719467 105.779099,200.856812 110.693130,195.674545 
	C114.336113,191.832764 116.025574,186.970154 116.802063,181.737946 
	C118.622810,169.469238 117.964615,157.242340 116.900772,144.947220 
	C116.202591,136.878113 116.509102,136.810471 108.638901,137.512314 
	C90.267776,139.150574 71.889984,140.719452 53.505726,142.202759 
	C45.468914,142.851227 44.705418,144.191422 48.905327,151.181595 
	C49.076439,151.466385 49.192959,151.785873 49.377865,152.060242 
	C61.063583,169.399902 72.753769,186.736557 84.843735,204.674255 
M549.058594,142.557480 
	C543.543518,141.091034 537.836792,141.289597 532.225037,140.750290 
	C518.187805,139.401260 504.114197,138.434723 490.058594,137.273392 
	C486.739777,136.999191 485.228882,138.124039 485.263397,141.735168 
	C485.366760,152.554565 485.102051,163.377151 485.164978,174.197418 
	C485.198395,179.939087 486.766937,185.365555 489.724091,190.315369 
	C493.494110,196.625702 499.183228,201.371353 503.647644,207.132141 
	C505.397003,209.389542 506.729584,212.293991 510.675873,213.753220 
	C528.148621,191.851547 541.523804,167.168900 558.657349,143.624054 
	C554.486877,143.193069 552.197876,142.956497 549.058594,142.557480 
M229.055573,487.558655 
	C218.877838,497.020508 218.820160,497.938934 227.782089,506.591431 
	C244.511169,522.742920 262.474945,537.462524 280.534454,552.070068 
	C281.629456,552.955811 282.614288,554.335999 285.553406,552.993225 
	C276.634277,522.294861 265.376312,492.241211 255.375870,460.267456 
	C246.064560,469.956024 237.828751,478.525543 229.055573,487.558655 
M360.308777,474.189056 
	C356.964813,470.728210 353.735504,467.145111 350.229126,463.857513 
	C348.445435,462.185120 346.453949,460.915955 345.202850,464.892548 
	C340.069946,481.207092 334.797974,497.479431 329.403259,513.709534 
	C325.681244,524.907288 321.359955,535.910583 318.600342,547.413635 
	C318.129791,549.375000 316.940125,551.386841 318.397949,553.699402 
	C321.587982,552.467773 324.170593,550.633972 326.478851,548.586670 
	C343.887390,533.145935 361.119354,517.504639 378.632874,502.184906 
	C381.948547,499.284576 381.530548,497.060303 379.261597,494.272217 
	C373.585754,487.297791 367.285614,480.904419 360.308777,474.189056 
M139.745621,107.254333 
	C150.548050,97.422043 161.352325,87.591751 172.152069,77.756523 
	C176.978271,73.361343 181.795425,68.956223 187.138794,64.079048 
	C184.044022,63.281918 182.008041,62.496193 179.910095,62.259251 
	C165.606079,60.643768 151.353790,60.958553 137.250214,64.033844 
	C127.648476,66.127510 118.307243,68.866577 110.327431,75.072731 
	C107.885612,76.971802 107.707649,78.488113 108.746437,81.369461 
	C111.055534,87.774315 114.363533,93.741196 116.377098,100.288155 
	C118.127426,105.979210 120.869026,111.360992 123.077309,116.917305 
	C124.350418,120.120644 126.204620,120.710464 128.686035,118.307175 
	C132.261627,114.844162 135.719208,111.259270 139.745621,107.254333 
M530.547363,225.833160 
	C540.641846,229.197327 550.762756,232.484848 560.820679,235.955063 
	C566.643005,237.963913 567.671326,237.601410 568.923157,231.542374 
	C573.158813,211.040207 572.750366,190.508926 568.560425,170.086029 
	C567.630920,165.554916 567.226318,160.641983 564.022949,155.707565 
	C560.659241,160.223663 557.549500,164.034225 554.835327,168.108292 
	C544.980225,182.900757 535.324646,197.826172 525.460022,212.612183 
	C519.565247,221.447769 519.693054,222.103241 530.547363,225.833160 
M62.787197,191.710632 
	C54.511627,180.186569 47.637054,167.683960 38.021812,155.682861 
	C29.141872,183.300598 27.670408,210.043900 34.804993,237.264389 
	C49.761204,233.721664 63.432034,229.176315 76.950859,224.108200 
	C80.109764,222.923965 81.115929,221.938324 79.515160,218.415665 
	C75.217430,208.958069 68.541344,201.058884 62.787197,191.710632 
M422.084442,62.265408 
	C420.193329,62.526707 418.048920,62.152634 416.873077,64.218460 
	C417.444580,66.216484 419.070496,67.195892 420.312653,68.518135 
	C431.811676,80.758957 444.982178,91.223572 456.906677,103.017220 
	C462.210846,108.263184 467.975769,113.042030 473.503326,118.063995 
	C475.950897,120.287689 477.794678,120.250237 479.187378,116.943687 
	C484.346283,104.695564 489.565643,92.472923 494.751404,80.236107 
	C495.703400,77.989746 495.052979,76.583099 492.731384,75.532928 
	C487.597443,73.210579 482.472137,70.918953 477.085724,69.206314 
	C459.460541,63.602310 441.417603,61.366280 422.084442,62.265408 
M446.566925,293.529724 
	C446.538544,288.259125 446.935059,282.958313 445.512756,277.738068 
	C438.166901,283.754822 381.777740,355.471466 381.320618,360.119720 
	C388.550201,356.701874 396.103210,355.662781 403.237427,352.999573 
	C415.509155,348.418579 427.889954,344.122498 440.287109,339.888733 
	C444.735992,338.369385 446.953766,336.178436 446.756287,330.936951 
	C446.299500,318.813049 446.582977,306.661255 446.566925,293.529724 
M156.185699,289.547668 
	C155.989578,304.017151 155.863831,318.488220 155.537720,332.954773 
	C155.472824,335.833710 156.686630,337.184143 159.158142,338.104462 
	C178.447678,345.287598 197.707306,352.551331 217.017807,359.677307 
	C218.537094,360.237946 220.303955,361.623077 222.713608,359.426422 
	C201.134247,332.366425 179.558304,305.310699 157.982376,278.254974 
	C157.382111,278.460510 156.781845,278.666077 156.181580,278.871643 
	C156.181580,282.104309 156.181580,285.337006 156.185699,289.547668 
M79.748695,128.913986 
	C89.245316,129.153030 98.609337,127.655205 108.021523,126.775673 
	C111.757370,126.426559 113.031357,125.346375 111.942078,121.000420 
	C109.050652,109.464256 103.059799,99.225197 99.099487,88.156609 
	C97.016014,82.333557 95.778625,82.107933 90.345337,85.316910 
	C89.211250,85.986717 88.166496,86.825836 87.144859,87.665176 
	C77.623207,95.487839 69.227989,104.501045 60.515568,113.164673 
	C55.807026,117.846840 53.022396,123.868698 49.978378,131.221024 
	C60.403130,130.417313 69.604553,129.707916 79.748695,128.913986 
M544.901001,118.637154 
	C533.456970,105.126175 521.839783,91.810516 505.212097,83.018974 
	C499.343414,97.219353 493.691559,110.895035 487.999969,124.666916 
	C497.218140,127.431572 545.152893,131.442673 551.207825,130.036850 
	C550.028564,125.958160 546.967590,122.939156 544.901001,118.637154 
M122.681305,365.293610 
	C118.946259,367.447235 115.156937,369.512848 111.488571,371.774628 
	C105.627640,375.388306 105.650711,375.496368 110.042122,380.917786 
	C118.811836,391.744415 127.480484,402.655792 136.425781,413.335419 
	C138.862259,416.244324 140.983368,419.771240 144.776215,421.223022 
	C146.079208,420.073547 145.773666,418.829498 145.774200,417.718842 
	C145.783432,398.582886 145.766327,379.446899 145.727631,360.310974 
	C145.725296,359.156647 145.579361,357.985596 145.352219,356.851990 
	C144.739441,353.794159 143.480408,352.621552 140.147964,354.279114 
	C134.150925,357.262115 128.922333,361.379028 122.681305,365.293610 
M460.912689,353.487732 
	C457.600037,352.745789 457.423676,354.880554 457.354248,357.263855 
	C456.764648,377.509216 456.098053,397.753754 457.067535,418.005524 
	C457.110840,418.909729 456.706543,420.068298 458.069916,420.584717 
	C458.464355,420.348267 458.942383,420.160675 459.294495,419.836365 
	C472.550262,407.627228 483.170807,393.153656 494.320831,379.129913 
	C496.380402,376.539520 494.796326,375.379028 492.902100,373.997955 
	C482.847961,366.667725 472.180267,360.292572 460.912689,353.487732 
M204.619736,453.171875 
	C194.452042,451.922272 184.287201,452.165680 173.619476,452.499329 
	C176.384399,458.210510 181.105988,461.078522 184.413498,465.179749 
	C190.890182,473.210815 198.992325,479.600433 206.698929,486.379547 
	C209.091019,488.483734 210.916489,488.330109 213.524094,486.229950 
	C224.042648,477.758331 232.476959,467.141022 242.664352,458.346100 
	C243.311234,457.787628 244.266830,457.011719 243.617645,455.537659 
	C231.075241,453.705170 218.262329,454.217682 204.619736,453.171875 
M369.191956,454.934326 
	C365.802887,455.121368 362.413818,455.308380 357.906525,455.557129 
	C361.570984,459.599182 364.589172,462.639160 367.450439,465.748596 
	C373.954712,472.816895 380.937622,479.444122 387.705994,486.270477 
	C389.817017,488.399597 391.632233,488.371613 394.208862,486.562164 
	C403.945374,479.724579 411.675415,470.723633 420.421295,462.826630 
	C423.521179,460.027649 427.700897,458.001404 427.955414,452.488678 
	C408.474976,451.603027 389.302155,453.587463 369.191956,454.934326 
M113.368240,357.791168 
	C120.725075,353.496704 128.473740,349.777344 135.782135,343.099762 
	C113.787148,335.080811 92.594131,328.408875 70.848129,321.994568 
	C71.114967,325.748596 72.787323,327.907257 73.960884,330.246704 
	C79.787819,341.862305 88.366844,351.669250 95.274117,362.576050 
	C96.687912,364.808472 98.610992,365.116730 100.898926,364.429260 
	C105.253075,363.120911 109.052162,360.742706 113.368240,357.791168 
M513.446838,352.963257 
	C520.219055,343.826782 525.929199,334.050903 532.083862,323.782410 
	C528.872925,323.113068 526.807922,323.190857 524.686829,323.848389 
	C507.074127,329.308380 489.436005,334.688507 472.090851,340.970154 
	C470.561981,341.523865 468.623779,341.650299 468.379150,343.755615 
	C468.171326,345.544006 469.662384,346.429626 470.898163,347.181793 
	C479.273743,352.279358 487.521088,357.629120 496.163055,362.234650 
	C503.252350,366.012695 504.438965,365.343323 509.212067,358.799835 
	C510.487488,357.051361 511.772034,355.309601 513.446838,352.963257 
M295.818207,158.503571 
	C295.817047,155.505600 295.811493,152.507629 295.815582,149.509659 
	C295.824615,142.912704 295.113708,142.240433 288.501648,143.884262 
	C271.903229,148.010788 255.321259,152.208466 238.786636,156.581589 
	C236.100052,157.292160 232.899643,157.400452 230.222763,160.628693 
	C252.330536,165.966507 273.438751,172.307755 295.818512,176.495422 
	C295.818512,170.097809 295.818512,164.798813 295.818207,158.503571 
M128.326416,147.653122 
	C128.337036,156.144440 128.450958,164.637436 128.311188,173.126282 
	C128.248795,176.915359 129.348145,178.425476 133.291107,177.114761 
	C143.673813,173.663300 154.088531,170.306702 164.512497,166.981262 
	C171.078949,164.886429 177.684982,162.915665 184.428268,160.841553 
	C181.574020,157.035385 134.798996,140.016937 128.838806,140.342331 
	C128.002762,142.399506 128.443649,144.583405 128.326416,147.653122 
M428.316711,154.970749 
	C424.928619,156.824478 419.806549,155.661331 417.970337,160.999283 
	C424.621490,163.042984 431.197113,164.690552 437.490387,167.081467 
	C447.878021,171.027924 458.770508,173.308411 469.177032,177.144669 
	C472.455841,178.353363 473.757782,177.161957 473.725830,173.719574 
	C473.631744,163.583511 473.621857,153.445404 473.721802,143.309494 
	C473.756195,139.820175 472.523407,138.773300 469.197968,139.996384 
	C455.823517,144.915466 442.425415,149.770172 428.316711,154.970749 
M346.407562,166.743240 
	C355.000641,164.747162 363.593689,162.751068 372.589172,160.661514 
	C370.847290,158.121826 369.012939,157.762421 367.274689,157.325378 
	C356.489899,154.613922 345.681976,151.993912 334.906769,149.245163 
	C327.842987,147.443176 320.838989,145.406219 313.771881,143.618164 
	C311.133759,142.950699 307.723083,142.493484 307.719574,146.409653 
	C307.711212,155.806656 306.649658,165.273849 308.523438,175.355118 
	C321.201965,172.695755 333.602478,170.756012 346.407562,166.743240 
M64.258720,269.766998 
	C68.759293,260.342316 73.244827,250.910370 77.777039,241.500931 
	C78.438377,240.127899 79.346436,238.750870 78.355972,237.315155 
	C77.323410,235.818436 75.633789,236.201981 74.233704,236.637146 
	C64.102089,239.786255 53.924225,242.810745 43.907619,246.296051 
	C38.518753,248.171112 37.497158,251.200104 39.276840,256.466888 
	C40.071510,258.818604 40.498363,261.301453 41.377155,263.616608 
	C44.753574,272.511841 47.339443,281.766815 53.062378,290.350098 
	C57.983078,284.044342 60.275810,276.855011 64.258720,269.766998 
M563.294922,254.801544 
	C564.199402,251.749634 563.993958,249.350021 560.379333,248.080948 
	C550.384033,244.571701 540.476318,240.812454 530.474243,237.323395 
	C528.407104,236.602325 526.155640,235.310074 523.102173,237.311890 
	C531.535400,254.515976 538.876221,272.308075 548.414978,290.021881 
	C556.487122,279.372620 559.237488,267.235687 563.294922,254.801544 
M252.223419,387.963928 
	C249.308273,388.474152 251.004730,390.625458 251.222961,391.703186 
	C253.359955,402.256470 255.721451,412.764160 258.003510,423.288208 
	C259.104279,428.364685 259.311523,433.696930 262.069489,438.763947 
	C270.350372,434.778900 276.877869,429.090790 283.433014,423.585815 
	C290.317810,417.804016 289.989563,415.412415 282.803101,409.561432 
	C282.160156,409.037964 281.497894,408.523956 280.789185,408.097656 
	C270.953461,402.181519 262.087677,394.897064 252.223419,387.963928 
M332.968506,434.548248 
	C335.107513,436.399170 337.412842,437.930237 340.993622,438.729675 
	C344.581238,421.979523 348.122742,405.444702 351.607788,389.173462 
	C349.717682,388.123413 348.831512,388.695465 348.047791,389.287170 
	C337.038483,397.599213 325.614594,405.360107 315.001801,414.201324 
	C312.825592,416.014252 312.970398,417.525574 314.696228,419.642792 
	C319.628174,425.693176 326.453339,429.348846 332.968506,434.548248 
M103.392540,219.022415 
	C100.800720,222.954422 102.711555,225.725418 105.968376,227.789169 
	C109.890129,230.274261 113.859123,232.739761 117.855934,235.042618 
	C122.456375,237.693283 126.880157,240.669907 131.611465,243.090469 
	C132.938065,243.769165 134.575333,244.297897 135.886658,243.263550 
	C137.344498,242.113602 136.500763,240.493362 136.120270,239.086929 
	C132.772720,226.713577 126.471481,215.438354 122.764999,203.185593 
	C121.718246,199.725311 119.320671,199.156876 116.885796,202.100540 
	C112.444962,207.469391 108.149971,212.958862 103.392540,219.022415 
M474.811859,216.229568 
	C471.612061,225.079163 466.373291,233.245819 465.147736,242.481613 
	C466.652710,243.519424 467.490723,243.283081 468.216278,242.921066 
	C478.446075,237.816818 488.366486,232.159973 498.035950,226.064926 
	C499.683533,225.026352 500.103699,223.419159 499.192291,221.728790 
	C494.941284,213.844421 488.750000,207.460236 483.181396,200.200623 
	C478.545593,204.803635 477.340515,210.437378 474.811859,216.229568 
M263.366913,97.117737 
	C272.940247,105.285248 283.263275,112.553391 292.317444,121.349068 
	C294.517975,123.486748 295.834930,122.822189 296.820312,119.842216 
	C298.645874,114.321228 294.913239,105.849747 289.114014,102.645493 
	C278.388123,96.719093 267.251312,91.513733 257.017029,84.692528 
	C254.145493,82.778633 250.866058,81.696747 246.572113,81.486282 
	C251.338486,87.925034 257.610687,91.741066 263.366913,97.117737 
M312.398834,103.928131 
	C307.671204,107.634483 306.610962,112.590454 309.256775,120.527779 
	C325.421356,107.514702 341.723663,95.113121 356.775879,81.141678 
	C340.806946,86.104782 327.526306,95.990097 312.398834,103.928131 
z"/>
</svg>