<svg version="1.1" id="Layer_1" xmlns="http://www.w3.org/2000/svg" xmlns:xlink="http://www.w3.org/1999/xlink" x="0px" y="0px"
	 width="100%" viewBox="0 0 544 816" enable-background="new 0 0 544 816" xml:space="preserve">
<path fill="#000000" opacity="1.000000" stroke="none" 
	d="
M148.917908,696.036377 
	C138.700836,681.251831 128.231857,667.049500 119.558159,651.690796 
	C112.149216,638.571655 104.732063,625.428162 98.071297,611.924133 
	C91.949509,599.512756 86.299347,586.819031 81.855553,573.674866 
	C77.447182,560.635498 72.905937,547.612732 69.262032,534.352112 
	C66.289574,523.535095 63.087421,512.687012 62.541424,501.305511 
	C62.377621,497.890900 61.576843,494.373932 60.369419,491.166779 
	C56.470543,480.810638 58.342644,469.782440 56.268402,459.223389 
	C52.485893,439.968445 54.286007,420.460846 53.956966,401.053711 
	C53.813427,392.587830 53.572659,384.084473 54.209190,375.661041 
	C54.527199,371.452820 55.865486,367.296844 56.216824,362.945831 
	C56.977806,353.521698 57.918140,344.056671 59.691616,334.781708 
	C62.946960,317.756836 65.604607,300.614380 71.097298,284.022766 
	C73.462410,276.878540 74.493240,269.117645 77.029099,262.011383 
	C79.513695,255.048798 81.980797,247.940781 85.274048,241.335648 
	C88.765770,234.332458 91.180336,226.943298 94.359863,219.842255 
	C104.221382,197.817856 115.559799,176.620102 128.576019,156.322479 
	C144.934418,130.812973 163.440155,107.037033 184.504440,85.151031 
	C196.881348,72.291313 209.868805,60.282520 223.607056,48.914532 
	C233.713303,40.551922 243.907242,32.326717 254.274170,24.299679 
	C264.771393,16.171741 276.222778,16.184999 287.146057,23.998241 
	C304.159546,36.167698 319.665405,50.158333 335.717163,63.498219 
	C344.580353,70.864006 351.924805,79.665764 360.129272,87.641350 
	C371.412262,98.609581 381.175232,110.947990 390.514221,123.479279 
	C398.884766,134.711105 407.335052,145.945770 414.600403,158.067032 
	C420.538422,167.973770 426.838715,177.749435 432.471252,187.807510 
	C438.510376,198.591782 443.405731,210.066910 448.587250,221.347504 
	C454.182129,233.528107 459.215302,245.921326 464.124695,258.364594 
	C465.734650,262.445160 466.466034,266.904510 467.953613,271.120239 
	C470.854767,279.342194 473.178284,287.726318 475.117340,296.269958 
	C477.722870,307.750153 479.617615,319.357452 482.134186,330.841003 
	C490.643036,369.668488 487.918945,409.057953 487.812012,448.277283 
	C487.782318,459.169189 485.881592,470.150085 484.545837,481.012756 
	C483.611877,488.607697 481.447235,496.232849 479.852020,503.849854 
	C477.712891,514.064026 475.675201,524.305908 473.220001,534.445251 
	C471.623901,541.036926 469.243958,547.434570 467.422028,553.976624 
	C463.321747,568.699585 457.480652,582.767456 451.228058,596.652100 
	C443.601746,613.587341 435.401276,630.282959 426.113495,646.355652 
	C415.490875,664.738159 404.042297,682.607544 390.812103,699.324402 
	C380.724487,712.070374 370.167542,724.294800 359.098785,736.223755 
	C347.096252,749.158997 334.310333,761.158875 321.101105,772.707764 
	C309.515015,782.837585 297.214661,792.179749 284.917114,801.455322 
	C277.676697,806.916626 269.257568,805.719360 261.571564,802.647888 
	C250.782776,798.336487 242.911285,789.560913 233.965286,782.517883 
	C225.685196,775.998962 217.801773,768.896240 209.791412,762.049805 
	C197.371429,751.434509 186.157776,739.712891 175.021698,727.938660 
	C165.685760,718.067810 157.706528,706.913818 148.917908,696.036377 
M185.789246,410.218536 
	C185.666306,418.060333 186.450912,425.870728 187.947800,433.509949 
	C190.752487,447.823486 194.193817,462.011139 197.269974,476.272827 
	C200.660446,491.991699 203.580261,507.822479 207.400772,523.434265 
	C209.646164,532.609680 211.367279,541.888794 213.140976,551.120605 
	C216.717010,569.733215 222.360641,587.306519 233.423767,602.936157 
	C243.097458,616.602844 254.267548,629.131592 263.573853,643.075195 
	C269.188354,651.487366 272.936676,651.538635 279.532654,643.651794 
	C280.063843,643.016724 280.475159,642.282532 280.956421,641.604492 
	C289.897125,629.009155 298.368408,616.082275 308.112427,604.056641 
	C312.664886,598.438232 317.212097,592.964661 319.391113,585.560913 
	C322.069641,576.460205 324.496124,567.354126 326.516418,558.087708 
	C329.656128,543.687073 333.455933,529.430725 336.626953,515.036377 
	C342.057343,490.386047 347.269775,465.687164 352.466095,440.986023 
	C354.514069,431.251007 357.141754,421.640839 357.018890,411.498810 
	C356.910797,402.579010 354.914734,394.102417 353.031433,385.487061 
	C349.127502,367.628479 345.840759,349.635986 342.161499,331.727051 
	C338.485992,313.836578 334.598450,295.989746 330.886475,278.106659 
	C328.662354,267.391632 326.275421,256.697144 322.684906,246.370758 
	C318.174133,233.397568 311.034882,221.913345 302.370178,211.179428 
	C292.677979,199.172684 283.762573,186.536652 274.584717,174.118561 
	C272.284241,171.005859 270.387909,171.004211 267.952118,174.010010 
	C262.843140,180.314560 258.041290,186.843140 253.136063,193.296738 
	C243.104843,206.494354 233.503677,219.991913 224.316696,233.756546 
	C219.290085,241.287827 218.541641,250.501923 216.714172,259.299896 
	C211.583038,284.002686 205.485458,308.504669 200.352768,333.207153 
	C196.675568,350.904633 192.411591,368.475250 189.162796,386.273987 
	C187.761124,393.953094 186.248917,401.569977 185.789246,410.218536 
M437.149017,455.660828 
	C439.736084,452.013550 441.689209,447.989227 444.240234,444.279724 
	C448.182434,438.547089 453.058533,433.465302 456.192871,427.149994 
	C460.620941,418.227936 461.976868,408.847412 458.256104,399.677368 
	C454.709045,390.935455 448.245026,383.737122 442.996002,375.910675 
	C435.718750,365.059967 428.653503,354.078033 421.557587,343.111206 
	C417.833099,337.354980 414.365997,331.249786 409.304871,326.592163 
	C406.774078,327.097565 406.341370,329.041748 405.683563,330.681335 
	C404.138336,334.532928 402.846680,338.489105 401.228607,342.308105 
	C395.268219,356.375885 389.306488,370.444397 383.174408,384.437775 
	C376.996826,398.535095 372.716461,412.202850 380.082520,427.767334 
	C389.063751,446.744568 396.203339,466.578766 403.747406,486.204437 
	C405.048279,489.588654 404.187958,495.138214 409.876740,496.382202 
	C416.162140,489.060547 420.498444,480.604736 425.782959,472.798096 
	C429.490814,467.320618 433.038940,461.735077 437.149017,455.660828 
M115.716980,352.147095 
	C106.894821,365.233978 98.503006,378.591003 89.039307,391.270447 
	C80.842422,402.252594 80.456421,419.127197 88.443680,430.576782 
	C101.256409,448.943665 113.330933,467.809509 125.345551,486.713470 
	C127.555176,490.190155 128.946457,495.079559 134.254776,496.361084 
	C135.544128,494.028442 137.026352,491.968201 137.896790,489.675659 
	C146.260513,467.646790 156.134979,446.254425 165.148483,424.502045 
	C167.731201,418.269104 168.311478,411.164673 165.427826,405.025238 
	C161.833832,397.373413 159.819321,389.217346 156.448532,381.491943 
	C149.103775,364.658661 142.760544,347.388733 135.977142,330.309509 
	C135.387909,328.825989 135.112915,326.769348 132.994598,326.784149 
	C131.094971,326.797394 130.381241,328.576752 129.508224,329.992126 
	C125.068436,337.190216 120.607964,344.375549 115.716980,352.147095 
M135.640671,591.953613 
	C135.267410,595.095825 134.776260,598.229248 134.541718,601.381775 
	C133.626587,613.682190 133.985489,625.764099 142.254517,635.979736 
	C149.287872,644.668884 159.269714,649.817383 167.985336,656.408264 
	C176.131668,662.568665 184.611801,668.354858 192.836716,674.461243 
	C197.123062,677.643494 200.934952,681.656067 206.393936,683.154907 
	C207.877609,680.737366 207.630554,678.379517 207.646698,676.070374 
	C207.759613,659.915283 208.640076,643.793640 209.559830,627.668213 
	C210.289078,614.882935 210.495300,602.172852 204.613724,590.124634 
	C202.625931,586.052734 200.319641,582.769653 196.525803,580.360107 
	C193.166290,578.226379 189.481537,576.284485 186.812515,573.439697 
	C175.760147,561.659180 163.003937,551.715454 151.632889,540.290833 
	C149.016006,537.661560 146.004333,535.425293 142.743988,532.640625 
	C141.823181,537.357056 140.615494,541.358276 140.323990,545.425110 
	C139.230759,560.677124 136.324738,575.746399 135.640671,591.953613 
M340.031921,141.532669 
	C338.691711,140.997650 337.614502,139.687027 335.259949,140.273193 
	C335.093903,152.027512 333.938660,163.887726 334.203766,175.835342 
	C334.323700,181.238647 333.871002,186.655823 333.646057,192.065384 
	C333.170685,203.497879 331.516602,215.076889 335.368469,226.171951 
	C337.099854,231.159134 337.677429,237.216721 342.839630,240.327133 
	C355.080811,247.702866 364.570496,258.252136 374.995331,267.719727 
	C381.631927,273.746918 388.126770,279.931946 394.616577,286.118164 
	C397.431183,288.801117 399.457520,287.580383 401.006378,284.899139 
	C401.812286,283.504028 402.289734,281.788177 402.450439,280.170990 
	C404.815094,256.372986 408.244476,232.640900 407.940979,208.656601 
	C407.800537,197.556519 402.435242,188.457336 394.251770,181.482574 
	C387.344940,175.595886 379.422852,170.914597 372.088684,165.511734 
	C361.535309,157.737366 351.107483,149.792511 340.031921,141.532669 
M207.691544,209.499527 
	C207.691544,186.331421 207.691544,163.163300 207.691544,140.137177 
	C204.798157,139.806702 203.815201,141.109940 202.563690,141.866455 
	C195.163727,146.339676 188.670364,152.038467 181.782242,157.203491 
	C169.768143,166.212189 156.656586,173.690796 145.676773,184.170013 
	C138.529739,190.991196 134.643402,198.702972 134.602722,208.618088 
	C134.581604,213.768448 135.292679,218.843399 135.482300,223.892960 
	C135.987122,237.334991 137.888931,250.641495 138.565125,264.057129 
	C138.881134,270.326508 140.554977,276.532928 140.178986,282.899353 
	C140.037643,285.292816 140.985062,287.248352 143.030914,288.317627 
	C145.315002,289.511383 146.722794,287.597809 148.115707,286.223999 
	C150.483856,283.888306 152.882538,281.569000 155.078003,279.075195 
	C166.192413,266.450378 178.867767,255.375977 191.421402,244.336823 
	C207.139038,230.515366 207.703613,231.157410 207.691544,209.499527 
M404.417175,565.986145 
	C404.231201,563.496826 403.830017,561.001465 403.900726,558.519409 
	C404.091553,551.820984 403.336975,545.201538 402.055664,538.679932 
	C401.019409,533.405884 398.346558,532.705078 394.554352,536.416016 
	C392.299805,538.622253 390.447144,541.243958 388.160461,543.411621 
	C371.682556,559.031677 355.223358,574.674011 338.528351,590.059753 
	C335.999237,592.390503 335.174469,594.598877 335.182068,597.784485 
	C335.245392,624.276001 335.194794,650.767700 335.217133,677.259399 
	C335.218475,678.855408 334.729889,680.606201 336.233063,682.196106 
	C336.749451,682.092346 337.487488,682.147522 337.958282,681.819275 
	C346.658264,675.754028 355.426453,669.779358 363.973419,663.503967 
	C372.784119,657.034851 381.000519,649.683472 390.169586,643.797119 
	C398.354187,638.542847 403.014526,631.084839 407.142151,622.875671 
	C408.071259,621.027771 408.116089,619.139282 408.069794,617.079285 
	C407.692535,600.295349 406.471680,583.577087 404.417175,565.986145 
M245.579697,131.894806 
	C251.250534,135.657394 256.892029,139.465225 262.600708,143.169510 
	C268.015930,146.683350 272.076263,146.462097 277.331543,142.881653 
	C279.650146,141.301971 282.172668,139.976257 284.719360,138.784729 
	C294.069855,134.409943 302.671539,128.736694 311.461731,123.402328 
	C314.199188,121.741089 315.857513,118.979980 313.942139,115.760078 
	C307.454193,104.853127 300.652740,94.131119 294.251404,83.174690 
	C289.427368,74.917946 284.362274,66.820824 279.373230,58.671841 
	C277.344391,55.358006 275.390015,52.342499 271.586182,51.698845 
	C267.973419,51.087521 266.639954,54.538464 265.034424,56.912952 
	C252.406143,75.589752 240.211044,94.516685 230.104935,114.741310 
	C227.933350,119.087128 226.922928,119.815315 232.872284,123.639427 
	C236.919571,126.240959 240.938477,128.886658 245.579697,131.894806 
M309.028503,699.474121 
	C305.247864,694.535767 299.309082,692.623413 294.402802,689.300049 
	C289.068176,685.686401 283.210632,682.734009 277.309418,680.102539 
	C272.587097,677.996765 267.238434,678.126892 262.784821,680.690796 
	C252.013016,686.891968 241.481781,693.520813 230.985687,700.185364 
	C227.671387,702.289856 226.394699,705.167969 229.158112,709.031555 
	C231.937347,712.917358 234.033478,717.260925 236.592255,721.324890 
	C245.839981,736.012390 254.635605,750.983765 263.676025,765.802795 
	C268.019409,772.922424 274.989349,772.935303 278.680359,765.503845 
	C282.610352,757.591125 288.121033,750.718811 292.403534,743.058350 
	C298.486786,732.176819 305.542755,721.879761 311.532990,710.915833 
	C314.231079,705.977417 314.177094,702.904419 309.028503,699.474121 
M185.729126,336.430786 
	C190.426941,314.432709 195.149231,292.439758 199.795883,270.430908 
	C200.485489,267.164612 202.130234,263.781372 199.659119,260.439087 
	C197.051239,260.864929 195.337189,262.482544 193.668106,264.039307 
	C178.749313,277.954010 163.874863,291.916321 148.973801,305.850067 
	C144.923492,309.637421 144.052353,313.846100 146.450134,318.851624 
	C149.240631,324.676971 151.430283,330.760529 153.972992,336.689331 
	C159.981354,350.699127 165.265717,365.019073 170.878052,379.199677 
	C171.346100,380.382233 171.672089,381.812714 174.043808,382.182343 
	C179.867645,367.795197 182.067810,352.348938 185.729126,336.430786 
M375.388733,533.859985 
	C381.447174,528.231873 387.578888,522.679688 393.527985,516.938293 
	C395.914001,514.635620 398.307343,511.912750 397.320801,508.236298 
	C396.161560,503.916443 394.899353,499.538300 392.972382,495.526215 
	C386.744659,482.559845 381.948853,469.005646 376.260406,455.821869 
	C373.882629,450.311005 371.656647,444.734619 369.004028,438.323700 
	C364.924774,447.765442 364.109955,456.942505 361.665039,465.662903 
	C357.872131,479.191406 356.049866,493.217499 352.416107,506.852417 
	C348.156067,522.837280 345.955139,539.317993 341.483948,555.283936 
	C340.749023,557.908386 340.703644,560.831665 342.802490,562.978210 
	C345.101868,562.798157 346.007538,561.240479 347.249939,560.192993 
	C356.903198,552.054382 364.862366,542.112183 375.388733,533.859985 
M156.072693,523.435608 
	C170.001221,537.396423 183.528076,551.805969 200.086929,564.149170 
	C200.055344,547.783813 177.500961,445.072021 173.100067,440.708649 
	C170.646027,445.259216 168.914444,449.989075 167.060974,454.721161 
	C160.161819,472.335266 152.908722,489.810608 145.822220,507.351685 
	C145.111771,509.110260 145.193253,510.764008 146.346344,512.532349 
	C148.917404,516.475281 152.027115,519.886414 156.072693,523.435608 
M343.145355,268.708496 
	C344.078857,273.588226 344.919617,278.487885 345.963379,283.343933 
	C349.051727,297.712524 351.940582,312.125641 354.968201,326.504517 
	C358.575562,343.636841 362.072815,360.785797 366.259583,377.787720 
	C366.640594,379.334900 366.854767,381.150360 368.826080,381.482819 
	C370.144257,381.310852 370.657196,380.447906 371.051300,379.517059 
	C378.873474,361.040100 385.085571,341.907776 393.555298,323.702423 
	C397.533417,315.151520 396.150085,309.154663 389.158264,301.988068 
	C375.345703,287.830261 360.082550,275.226044 346.550446,260.822052 
	C345.524628,259.730164 344.263916,258.770416 342.542297,260.139893 
	C342.689117,262.704010 342.080780,265.351624 343.145355,268.708496 
M459.448242,338.886322 
	C459.854248,334.584137 457.603455,330.842896 456.875092,326.764954 
	C453.111206,305.691101 445.323181,285.876892 437.880585,265.923920 
	C434.102539,255.795319 428.543854,246.460678 425.324249,236.118546 
	C424.868805,234.655518 424.213013,232.875534 421.726318,233.085754 
	C421.535797,233.832275 421.248016,234.588196 421.158112,235.366974 
	C419.481659,249.890656 417.669281,264.401459 416.243958,278.950043 
	C415.612579,285.394470 414.615540,292.141144 415.819763,298.356262 
	C418.253632,310.917389 423.238800,322.656982 430.905884,333.155182 
	C436.086548,340.248932 441.347717,347.284912 445.998047,354.781769 
	C449.340576,360.170410 452.698334,365.683777 457.751587,370.948059 
	C461.315735,360.150726 459.222321,349.844696 459.448242,338.886322 
M417.363312,559.954285 
	C420.514679,569.363220 419.173187,579.537048 422.064545,589.479675 
	C428.228180,582.300354 432.143585,574.340454 435.783966,566.414551 
	C442.955597,550.800232 446.388519,533.983887 449.858063,517.249695 
	C451.608551,508.806824 452.859680,500.261536 454.522583,491.799072 
	C456.666382,480.889099 458.008362,469.876953 458.933746,458.814301 
	C459.102509,456.796692 459.501465,454.480347 457.833221,452.688141 
	C456.303284,452.628967 455.747345,453.762482 455.132568,454.697937 
	C444.479370,470.907715 433.974426,487.216827 423.158295,503.316925 
	C417.742645,511.378265 415.644379,519.960144 415.790405,529.656128 
	C415.938538,539.493774 417.422424,549.227539 417.363312,559.954285 
M125.130821,519.188904 
	C123.915283,511.125122 120.024551,504.213867 116.050735,497.255707 
	C110.604584,487.719452 103.241089,479.516357 97.682358,470.046021 
	C95.705406,466.677917 93.434105,463.359650 91.106796,460.154327 
	C88.891945,457.103821 86.502457,454.180176 84.131287,451.125427 
	C87.094849,500.065704 99.018021,546.354797 120.352684,590.211914 
	C122.775192,574.673523 125.200317,559.241028 126.485382,543.714111 
	C127.132599,535.893982 128.137817,527.772827 125.130821,519.188904 
M101.498611,281.036774 
	C101.412628,283.942780 100.008179,286.454895 99.123184,289.128876 
	C92.424561,309.368774 87.808563,330.083496 85.268410,351.247101 
	C84.532425,357.379059 84.156319,363.554199 83.522232,370.767517 
	C91.411743,364.754608 94.716805,356.713104 99.505959,349.983673 
	C105.068306,342.167755 110.109001,333.928925 115.819427,326.176483 
	C121.331375,318.693573 125.419724,310.306793 126.478882,301.277893 
	C127.574539,291.937775 127.054146,282.359161 125.701820,272.889984 
	C124.387871,263.689514 123.867409,254.378479 122.787529,245.140640 
	C122.256439,240.597397 122.162605,235.908279 120.292000,230.437820 
	C113.534286,247.797058 106.911880,263.763489 101.498611,281.036774 
M319.677917,172.500336 
	C319.672150,162.517654 319.695770,152.534805 319.632568,142.552490 
	C319.621613,140.821869 320.423096,138.586990 318.336761,137.608704 
	C316.701599,136.841980 315.128540,138.097076 313.720245,138.933731 
	C304.592346,144.356491 295.556976,149.939026 286.347198,155.217789 
	C283.086182,157.086899 283.441467,158.556870 285.195099,161.459549 
	C289.657837,168.846603 295.221252,175.416306 300.157715,182.441193 
	C306.195282,191.032913 311.492340,200.212372 319.677521,208.881897 
	C319.677521,196.336411 319.677521,184.918350 319.677917,172.500336 
M319.607819,633.518677 
	C319.459869,627.532654 320.123596,621.475464 318.353699,614.981262 
	C307.989685,628.687622 298.453064,642.085388 289.377686,655.810547 
	C282.165161,666.718384 282.226624,666.998352 294.484467,672.714722 
	C300.789642,675.655090 306.694641,679.230957 312.356354,683.242004 
	C313.984192,684.395142 315.770294,686.026367 317.724670,685.258057 
	C320.195465,684.286804 319.555756,681.581543 319.564392,679.512390 
	C319.626770,664.512817 319.603516,649.512939 319.607819,633.518677 
M251.238892,152.283066 
	C241.998337,147.438797 233.449127,141.297989 223.591019,136.726959 
	C223.591019,160.036972 223.591019,182.514923 223.591019,205.518265 
	C227.247742,203.792725 229.415955,201.300217 231.346802,198.698318 
	C239.343521,187.922302 247.729721,177.425400 254.692963,165.904831 
	C259.879608,157.323578 259.964172,157.374695 251.238892,152.283066 
M245.470688,645.000793 
	C238.855698,635.013062 232.524857,624.806946 223.833191,616.155762 
	C223.833191,639.178955 223.833191,661.774353 223.833191,684.925293 
	C236.013763,680.147278 246.545059,674.212646 256.671814,667.504639 
	C258.831604,666.074036 258.800812,664.309265 257.478149,662.368958 
	C253.648163,656.750549 249.797165,651.146362 245.470688,645.000793 
M362.571381,133.918808 
	C357.598846,128.429443 353.711548,121.946274 347.432861,117.646919 
	C345.153625,116.086197 343.271240,116.502831 341.887177,118.549057 
	C340.520599,120.569397 340.831146,122.567833 342.930573,124.188873 
	C345.152374,125.904388 347.293030,127.730247 349.407562,129.578354 
	C355.197479,134.638718 361.508789,138.974930 368.829468,144.212708 
	C367.716309,139.407822 365.086639,137.106979 362.571381,133.918808 
M363.276550,688.750244 
	C365.160370,685.803284 367.044189,682.856323 368.928009,679.909363 
	C358.767944,684.249817 351.619843,692.225952 343.143066,698.415039 
	C340.928101,700.032288 340.907104,702.420959 342.958130,704.415100 
	C344.974609,706.375732 347.065674,706.299377 349.010101,704.196411 
	C353.607056,699.224731 358.204224,694.253235 363.276550,688.750244 
M182.010635,684.511536 
	C179.546127,682.750549 178.016800,679.353333 174.208633,679.640442 
	C173.988968,681.204773 174.915741,681.769958 175.532135,682.523438 
	C181.073700,689.297729 186.592819,696.090454 192.145981,702.855225 
	C193.443253,704.435547 194.303162,707.073669 197.031693,706.112183 
	C198.855621,705.469482 200.831696,704.266907 201.354935,702.259766 
	C202.013763,699.732544 199.837204,698.441345 198.161301,697.131226 
	C192.964539,693.068665 187.725800,689.059814 182.010635,684.511536 
M175.940628,140.482559 
	C177.323624,141.709305 178.010193,140.265533 178.831604,139.660492 
	C185.471710,134.769562 192.066742,129.817383 198.714798,124.937378 
	C200.045212,123.960785 201.843536,123.303070 201.524887,121.269867 
	C201.157471,118.925491 199.332733,117.594978 197.358017,116.672058 
	C195.440765,115.776001 194.227051,117.276787 193.165955,118.504440 
	C189.928085,122.250557 186.473526,125.835655 183.326370,129.609421 
	C180.648727,132.820160 176.867065,135.459671 175.940628,140.482559 
M210.095871,99.699875 
	C208.390121,102.428589 209.481934,104.426216 211.848480,105.968178 
	C214.403259,107.632774 216.145065,105.660431 217.249542,104.037560 
	C220.011230,99.979675 223.542328,96.462700 225.553635,91.852570 
	C226.696381,89.233253 228.540771,86.903175 227.735107,82.750053 
	C220.930618,87.819687 216.094330,93.872292 210.095871,99.699875 
M227.416779,737.234741 
	C224.846085,730.144653 220.574127,724.018066 216.419083,717.825989 
	C215.427109,716.347656 215.387360,713.416748 212.365005,714.875549 
	C209.467239,716.274231 207.926208,720.629028 209.573807,722.728455 
	C213.904068,728.246399 219.443176,732.584595 224.300598,737.591919 
	C225.108459,738.424683 226.160370,739.171326 227.416779,737.234741 
M330.739410,716.963684 
	C328.859894,715.358093 327.397278,715.324707 325.883148,717.653442 
	C323.347107,721.553955 320.428040,725.204346 317.863525,729.087646 
	C316.525574,731.113586 315.435638,733.364807 315.594482,736.250244 
	C317.747498,736.511780 319.418762,735.919312 320.782074,734.658081 
	C324.443512,731.270752 328.017822,727.789368 331.642242,724.361755 
	C334.267151,721.879456 334.341644,719.549255 330.739410,716.963684 
M320.453918,87.127136 
	C318.956085,85.988388 317.770172,84.276131 314.801178,84.211113 
	C317.190277,93.503700 323.180420,100.101830 327.894409,107.419334 
	C335.274872,103.227394 335.353455,102.449501 329.823364,96.952522 
	C326.777893,93.925262 323.898956,90.730515 320.453918,87.127136 
z"/>
</svg>