<svg xmlns="http://www.w3.org/2000/svg" viewBox="0 0 688 688" xml:space="preserve"><path d="M661.520264 514.933411c-4.170227 16.130859-8.32312 31.885193-13.442017 47.352111-3.130432 9.458619-6.163879 19.011597-10.213684 28.088135-5.193665 11.64032-14.72821 19.987732-24.19104 28.107117-14.925354 12.806518-32.267273 21.130737-50.785034 27.594177-23.273377 8.123413-47.500489 11.183289-71.586365 15.211304-21.164612 3.539551-42.469299 5.939209-63.78421 8.260681-12.565003 1.368591-25.148712 2.682007-37.757569 3.507996-32.092834 2.102356-64.23883 2.94635-96.381317 1.832824-22.449493-.777771-44.776748-3.262024-66.98854-6.786377-20.926972-3.320556-41.405304-8.372436-61.260712-15.686218-20.034027-7.379639-39.559013-16.132141-55.940788-30.099487-14.985131-12.776489-26.828095-28.151489-35.595269-46.08551-10.604354-21.6922-15.459964-44.827637-19.885803-68.226716-2.167354-11.458679-3.673259-22.99707-5.136078-34.541137-2.29306-18.095978-4.93354-36.190308-6.125126-54.370636-1.02029-15.566834-2.679821-31.072388-3.67641-46.639923-1.852574-28.938752-2.262516-57.889801-1.710156-86.849701.329735-17.28775 1.46605-34.598694 3.949414-51.715027 3.216972-22.172653 6.707302-44.331589 13.661129-65.758026 6.652462-20.497879 15.29507-40.039185 27.206417-58.06826 10.381195-15.713036 24.479881-27.251419 40.224563-37.29699 12.873642-8.213768 26.613846-14.261997 41.016632-18.844791 16.01857-5.096913 32.610062-7.67638 49.177292-10.43924 11.487717-1.915767 23.029618-3.257164 34.565201-4.538658 14.046799-1.560474 28.204086-2.110596 42.306778-3.186939 19.390747-1.479935 38.776215-3.028919 58.161499-4.579302 6.632141-.530416 13.303589-.796379 19.923218-1.051636 11.48352-.442808 22.866638-1.911079 34.342621-2.458984 27.957122-1.334786 55.907226-2.355515 83.884613-1.824154 17.989929.341671 35.908722 2.20318 53.021942 8.093557 16.124695 5.550148 30.991943 13.684964 44.244568 24.550076 10.125244 8.301052 20.423828 16.412372 30.211242 25.097263 9.204285 8.167504 17.011719 17.673912 23.875733 27.925476 10.696045 15.974892 18.800598 33.238594 25.092346 51.333275 2.995422 8.614533 5.22168 17.500565 7.689148 26.293701 3.899963 13.897492 6.497559 28.076905 8.757507 42.311463 4.468811 28.147613 6.197937 56.48941 5.957093 84.982055-.195679 23.148926.358825 46.306977-2.10022 69.393128-2.358338 22.140686-4.307007 44.288208-8.238587 66.279663-2.630004 14.710785-5.740539 29.346588-8.026733 44.122223-.964722 6.235168-3.823547 12.01416-4.443298 18.711487m-190.948822 37.88916c-2.663208-5.172791-4.964814-10.576599-8.082978-15.458863-3.732635-5.844421-8.353515-10.140075-16.404663-10.152832-45.462921-.07196-90.925293-.539672-136.387512-.914978-5.654999-.04663-11.377624.151795-16.947327-.629699-11.550476-1.620667-22.108276 1.196838-32.374206 6.001037-1.690216.790955-2.83429 2.148743-4.009827 3.61847-4.674667 5.844299-6.177017 13.232055-9.790985 19.56665-6.652832 11.661133-13.373581 23.284241-20.147934 34.875305-5.27211 9.020691-10.712845 17.942688-15.992554 26.958985-2.955368 5.046997-5.735473 10.196655-8.713882 15.513061h315.644134c-5.032897-8.47998-9.39273-16.043945-13.965332-23.477051-6.178527-10.043823-11.782501-20.421936-17.869598-30.524292-4.930206-8.182373-9.852173-16.415039-14.957336-25.375793m170.124603-97.32254V194.037872c-7.444885 4.082505-13.637634 7.574189-19.917664 10.9012-11.466552 6.074722-22.512024 12.896347-33.773376 19.321899-14.697754 8.386353-28.824219 17.780197-43.86322 25.611313-3.260681 1.697906-5.302002 4.181396-6.048767 8.005951-2.386231 12.221374-1.267456 24.595398-1.522461 36.863312-.886109 42.625274-.948853 85.266998-1.568604 127.898925-.128479 8.842377 1.618103 17.11847 4.453247 25.384064 1.606018 4.68219 4.833069 7.720734 8.952088 9.322907 17.489257 6.802765 32.755981 17.642791 49.069152 26.562988 11.644654 6.367462 22.865479 13.50592 34.375306 20.12677 2.797851 1.609405 5.844604 3.018402 9.843628 3.129761 0-17.082276 0-33.874573.000671-51.666931M231.500122 70.298782c-9.230286.259003-18.497848-.489189-27.542007.428498-.653672 2.26149.445877 3.412437 1.168731 4.680664 2.874237 5.042778 5.860489 10.025116 8.610993 15.134407 13.06163 24.263092 27.72731 47.621101 40.94667 71.757774 5.646393 10.309448 12.587006 12.726486 22.974121 12.611923 25.650483-.282928 51.311921-.225036 76.961029.187882 27.964417.450226 55.922059 1.998352 83.88852 1.430511 11.089782-.225174 21.937805-3.075424 27.351593-14.384475 4.59082-9.589951 9.305572-19.067093 14.565887-28.319779 6.89209-12.122887 14.48169-23.825416 20.943543-36.226074 3.967041-7.61303 9.038116-14.709351 13.038147-22.374924 2.088989-4.003288 1.565918-4.8069-3.031372-4.965988-1.830445-.063339-3.664673-.021759-5.497162-.021355-91.126252.02005-182.252472.040818-274.378693.060936M78.30072 237.499969v270.434998c1.964737-.494507 2.669838-.520599 3.212532-.830841 11.106034-6.347992 22.473633-12.2146 33.391106-18.922943 10.302391-6.330444 21.178924-11.719879 31.580536-17.897644 8.121841-4.823761 15.788406-10.567352 24.449249-14.293976 10.887161-4.68457 12.184448-13.104157 12.158951-23.486084-.102173-41.643494.298828-83.288849.654266-124.932343.062424-7.312744.05896-14.630889.847687-21.95111 1.252045-11.620209.178711-22.822876-6.945374-32.849259-1.845474-2.597336-3.026763-5.488449-6.341171-6.568802-8.601196-2.803634-15.89035-8.067291-23.718887-12.370575-20.972038-11.528198-41.336426-24.060775-61.943138-36.193557-2.055878-1.21045-4.054703-2.864807-7.344879-2.765778 0 14.052094 0 27.840012-.000878 42.627914m449.032166 1.764649c2.650635 3.21637 5.915405 2.779709 9.041748 1.149994 8.382324-4.369553 16.803711-8.693405 24.958923-13.464005 23.912781-13.988449 47.698486-28.194122 71.54718-42.292343 4.45575-2.634018 4.638062-4.395843.987061-7.939667-11.815491-11.468643-23.687378-22.883041-35.316956-34.538467-20.455627-20.501122-40.708862-41.204247-61.167175-61.702675-2.145935-2.150177-4.234497-4.634346-7.560974-6.040047-5.634339 6.570534-9.716004 13.988816-13.921448 21.293335-7.0531 12.250702-13.779358 24.690682-20.903442 36.89914-8.015747 13.736542-16.321717 27.30368-24.496887 40.94725-1.728608 2.884873-1.260712 5.423966.433715 8.366715 3.919434 6.806717 10.405152 11.14273 15.609009 16.656677 13.00528 13.780182 26.783264 26.831116 40.789246 40.664093m2.870239 222.485199c-5.600342 5.441559-11.969055 10.012237-17.335449 15.746246-8.157044 8.71576-16.178742 17.564392-24.953583 25.698456-5.702606 5.286163-11.007385 11.000366-16.522125 16.490967-2.174134 2.164612-2.532013 4.878479-1.416291 7.372864 1.684449 3.765686 2.73996 7.833496 5.211335 11.249145 6.90509 9.543518 12.215179 20.096192 18.22171 30.167786 10.290832 17.255615 20.376678 34.639648 30.777862 51.841858 4.711854 7.792724 3.730835 10.825683 13.087647 1.638488.712524-.699523 1.338501-1.487304 2.05304-2.184448 11.917724-11.625732 23.651428-23.430115 35.329101-35.300537 19.47876-19.800171 39.487915-39.078003 59.22699-58.623047 2.61206-2.586365 2.895202-5.077759-.839783-7.206299-8.504455-4.846496-16.916382-9.855194-25.386658-14.762085-23.431091-13.573669-46.905944-27.073089-69.856933-41.455749-2.17334-1.361908-4.398377-2.479797-7.596863-.673645m-413.780792 95.336426c23.876358 23.885925 47.752716 47.77185 71.65393 71.682678 4.382019-4.1026 7.06604-8.120911 9.474152-12.272705 9.078095-15.651428 17.966232-31.412903 27.028763-47.073487 7.982269-13.793884 16.077698-27.522583 24.181137-41.24591 1.754684-2.971558 1.621338-5.269287-.8367-8.018738-3.779068-4.22699-8.065827-7.889282-12.008103-11.902801-14.685242-14.950562-29.584045-29.677765-44.592621-44.301239-2.702057-2.632721-4.956421-3.160187-8.366394-1.624299-16.39917 7.386445-31.062958 17.838959-46.65419 26.635285-10.772522 6.077667-21.878036 11.785187-32.096702 18.944122-5.830735 4.08487-12.340119 7.195282-18.49804 10.822357-1.881813 1.108399-4.151329 2.457581-1.726806 4.970765 10.606399 10.994201 21.294021 21.910034 32.441574 33.383972m93.564132-449.480988c-7.796844-10.105736-12.253845-22.357948-20.346115-32.317818-3.359039 1.268372-5.746536 3.352791-7.953125 5.595475-6.635696 6.744262-13.048492 13.712417-19.795608 20.341476-12.549668 12.330132-25.400253 24.355209-37.890274 36.744484-12.272202 12.173218-24.199867 24.693008-36.383515 36.956619-5.698547 5.735916-5.738044 6.961258 1.504128 11.233612 10.59771 6.251954 21.469971 12.046372 31.972214 18.450653 19.721824 12.026413 39.955055 23.20694 59.296211 35.860444 3.573944 2.338195 7.161072 1.718429 10.222107-.664612 3.525863-2.74495 6.756759-5.900666 9.920929-9.072373 9.284713-9.306762 18.445175-18.73735 27.708267-28.065872 6.322861-6.367493 12.734863-12.646438 19.10965-18.962311 2.553817-2.530227 3.20166-5.412552 1.410995-8.606048-5.60376-9.993836-11.196838-19.994492-16.905517-29.928467-7.098969-12.353287-15.10167-24.180878-21.870347-37.565262m-16.660278 313.893891v18.691894c2.938492.164948 4.491364-.843201 6.010071-1.822937 11.726883-7.56488 24.351654-13.558868 36.182968-20.9841 13.636856-8.55838 27.842865-16.20813 41.775513-24.297608 10.885528-6.320251 21.617096-12.915191 32.626251-19.010223 11.016602-6.099091 21.375763-13.312378 32.720917-18.863068 4.250213-2.079406 4.092926-4.162384-.033051-6.631744-15.121673-9.050018-30.259857-18.073548-45.454376-27.000519-16.055878-9.433044-32.235931-18.655304-48.264572-28.133942-16.30893-9.644409-32.484711-19.513824-48.761795-29.212524-1.884522-1.122894-4.043549-1.785034-6.801956-2.97403 0 53.664856 0 106.452027.00003 160.238801m185.598862-25.014374c-5.445313-9.699189-10.858856-19.416443-16.352051-29.08844-2.116394-3.726471-3.603149-3.831787-5.57132-.459107-9.697448 16.617524-19.276519 33.304474-29.038543 49.88385-16.673889 28.318146-33.476471 56.560517-50.164459 84.870392-2.7529 4.670075-5.197297 9.522003-8.04303 14.766724h179.702392c-1.5289-4.909821-4.771118-7.94931-6.900879-11.644898-8.184692-14.20227-16.306549-28.441223-24.567779-42.598815-6.023895-10.323487-12.242371-20.533265-18.351074-30.807435-6.792054-11.423584-13.557984-22.862701-20.713257-34.922271m-28.694184-210.579529h-80.564453c7.324555 12.993332 14.122834 25.316788 21.17096 37.495651 11.215088 19.379151 22.609711 38.654312 33.904114 57.987625 10.622406 18.183014 21.201751 36.391175 31.829589 54.570984 1.745392 2.985596 3.260468 4.009705 5.514344.030487 9.000824-15.890625 18.199341-31.670471 27.44046-47.423401 6.052795-10.317901 12.753906-20.279998 18.365143-30.826873 9.213501-17.317566 19.924652-33.733109 29.634124-50.744828 3.822968-6.69812 7.865448-13.27095 11.830109-19.938049-2.273773-1.457214-4.323242-1.007996-6.254608-1.019348-9.497376-.055832-18.995422.010391-28.493164-.005844-21.149048-.036179-42.298035-.095795-64.376618-.126404m174.538849 86.66391c-.283142-3.197663.573731-6.522247-.697815-9.67041-2.551757.489593-4.334167 1.715362-6.197998 2.813018-12.60318 7.421998-25.195007 14.86435-37.85614 22.186524-12.337646 7.13504-24.784149 14.081818-37.126007 21.209656-11.075531 6.396423-22.081085 12.914306-33.104156 19.401275-11.306855 6.653931-22.628846 13.283295-33.879761 20.030823-4.418121 2.64975-4.203858 4.203339.469269 6.758514 6.257049 3.421296 12.53656 6.81073 18.681396 10.426331 15.833069 9.31601 31.372528 19.155853 47.444214 28.035461 21.672028 11.973847 42.447357 25.458985 64.140137 37.3667 5.862945 3.218322 10.860504 8.032867 18.135467 10.230194 0-56.308808 0-112.058319-.008606-168.788086m-251.301941-56.54596c-4.044372-6.855575-8.322296-13.587494-12.042572-20.614669-2.119171-4.002869-3.687927-4.281525-6.886764-1.091324-8.936432 8.912292-18.203796 17.491974-27.183334 26.362076-8.511887 8.408142-16.81456 17.027816-25.232483 25.531448-2.007996 2.028458-2.339249 3.782425.147079 5.79422 2.969788 2.403015 6.1371 4.390259 9.45427 6.303833 20.81961 12.010193 41.507293 24.249023 62.245483 36.400513 19.45578 11.400054 39.125214 22.436157 58.23407 34.428955 2.215942 1.390747 4.551086 3.474884 8.0289 2.542877-.427643-1.188782-.67511-2.310547-1.203461-3.279144-6.114715-11.209687-13.055542-21.963257-19.195373-33.124817-7.526978-13.683075-16.016266-26.772156-23.598755-40.40915-7.173126-12.900817-14.909729-25.488296-22.76706-38.844818m197.047974-16.028625c-3.186462-2.540405-5.225891-6.439423-10.417999-8.54689-27.094818 46.287155-54.176666 92.552108-81.391175 139.043686 3.091462 1.177825 4.561799-.236542 6.115876-.988556 14.086212-6.815949 27.142944-15.445435 40.66983-23.245881 20.121979-11.603637 40.118256-23.425567 60.143585-35.196258 10.560639-6.207428 21.041901-12.55011 31.621094-18.725418 2.606689-1.521576 2.746948-2.956146.726868-5.036621-3.121277-3.214661-5.944214-6.745651-9.251191-9.748856-13.059844-11.860306-25.003143-24.846344-38.216888-37.555206m-17.233063 213.287781c-20.779998-12.461274-42.230316-23.78241-62.621765-36.912903-3.195404-2.057556-6.244232-5.032623-12.262756-4.324738 26.638061 47.434143 54.686981 93.119019 81.702057 139.875 2.878326-2.356933 5.328521-4.088104 7.454223-6.153259 7.60965-7.393189 15.115845-14.893005 22.648987-22.364777 9.30719-9.231323 18.601074-18.476074 27.903259-27.712432 1.827088-1.814057 1.807312-3.172303-.535888-4.737732-4.17218-2.787323-8.749573-4.804322-13.047211-7.321503-16.918396-9.909302-33.737579-19.988068-51.240906-30.347656m-135.765991-2.234528c7.650391-12.458832 15.391174-24.867279 22.417877-38.209595-5.795868-.37091-133.741699 73.540558-139.710083 80.163117 2.977188 3.641266 5.731629 7.609863 9.075791 10.996124 14.238556 14.41806 28.651642 28.663666 43.001022 42.97226 4.80954 4.795898 5.086426 4.739166 9.303009-.799408 7.08725-9.309113 11.878204-19.970276 17.757141-29.990143 12.608795-21.490113 25.191986-42.99527 38.155243-65.132355z"/></svg>