<svg xmlns="http://www.w3.org/2000/svg" height="150" viewBox="0 0 800 576"><style>.B{fill:#060606}.C{fill:#191919}.D{fill:#595959}.E{fill:#aeaeae}.F{fill:#bebebe}.G{fill:#444}.H{fill:#010101}.I{fill:#d4d4d4}.J{fill:#fcfcfc}.K{fill:#f1f1f1}</style><path fill="#fefefe" d="M1 190V1h800v576H1zm554 213 1-1 1-1 4-5 2-1 4-4 1-1 10-10 24-24 43-44 10-12h1l4-5h1l31-30 31-31a692 692 0 0 0 23-23l7-8 4-2 16-16c4-5 7-10 8-17v-3a49 49 0 0 1 0-5v-8l-11-12-15-13-28-26c-12-9-25-16-38-24l-29-17-1-1-7-5c-20-16-43-19-68-18h-24l-101 1-3 1-24-1-16 1-9-1-22 1-9-1-32 1-18-1h-4l-107-1c-11 0-23 2-34 4-8 1-16 5-23 11l-2 1-34 17-9 5-1 1-8 4h-1l-3 2-5 2-4 2-6 4-1 1-14 11-6 4-1 2-17 16-10 10-2 1-7 8c-4 6-8 12-6 21v4l2 7 12 12 22 24 18 18 1 1 2 2 11 11 5 4v1l16 15v1a244 244 0 0 1 19 19l11 10 1 2 4 4 2 3 13 11 2 4 4 2 1 2 7 8 10 12 14 15 19 18 3 3 13 13 5 5 10 10 14 13v1l7 6v1l3 2v1l1 2 38 39 12 9 1 2 15 15 2 3 36 36 10 8v1l3 1v1l4 2c15 3 24-4 34-18l16-16 9-8 4-3 18-18 10-12h1l3-3h1l1-3 2-1 14-13 17-17 15-14 8-10h1l3-5 3-1a54 54 0 0 0 1-2z"/><path d="m563 395-2 2-5 4h-3l-7 4 1 4v2h-2l-2 2h-1l-5-1 1 6-6 6v-6h-1l-3 10-3 3-7 2 1 4a3 3 0 0 1-1 1l-5-2 2 6-7 5-5 6-4 4c-3 0-5 1-4 3l-3 3-1 3v1l-2 2-3 1-2-2-5 5c-3 2-5 4-5 9l-5 5-7 4 1 2-3 2-1-4-2 1 1 5-3 4-2 1-3 3c-8 0-9 1-9 9l-3 2c-6-2-5 2-5 5h-5l1 3-3 5h-1l-2 3-2 2-3-3v6l-2 3h-1l-5 1c-3 1-6 4-8 0l-10 3v-6h8v-1l-8 1c-3 0-5-2-7 1l-4-4 2-3-3-2h-4v-9l-9 1v-1l1-6-5 3v-2l-3-2v-1l1-5-6 2-2-4-1-4-3 2-2-4-2-2s-1 1 0 0c0-4-2-3-4-3h-2l-1-3-3-3-8-9v-6l-5 2v-1c0-3-2-5-5-4l-2-3v-3l-3 2-2-4 2-3-5 1v-3a10 10 0 0 0 1 0v-1l-2 1-12-11 3-2-1-1-5 1v-1a39 39 0 0 1 1-3h-1l-3 2-2-4-4-3-4-4-2-3c0-5-3-5-6-5l-1 1-1-1-6-7v-2l4-3-6 1-4-3 1-6-5 2v-1c0-4-2-4-5-4l-1-2-1-5-3 2a5 5 0 0 1-1-2l-1-8-1 1-2 4-2-3-3-2v-1l-2-2c0-4-2-4-5-4v-1c0-7-2-8-9-8v-1c2-5-1-6-4-5l-4-3-1-2c2-3 3-5-2-5a75 75 0 0 1-5 0l1-1c0-3-1-3-3-3v-3l2-1-1-1-1 2-3 1-2-3-2-2c0-5-2-6-7-6l-8-10c1-6 0-6-6-5l-1-2-1-8-4 1c0-4-1-6-5-3l-4-5c1-5-2-5-6-5l-1-2c0-5-4-5-7-5l-1-1c1-5 1-7-4-9l-7-5h-1l-4-4a136 136 0 0 0 0-5l-3 1-4-3-1-2-4-3h-2v-2l1-3-2 1h-1c0-4-2-5-5-5l-3-4c1-4-2-3-4-3h-2v-2l3-2-1-1-3 2-1-1-4-11-2 2-5-3-2-4-3 2-1-1v-5h-2a39 39 0 0 1-5-5l-4-3-4-4c0-4-1-5-4-5l-2-5h-1l2-6-8 1-5-5h6c-2-5-6-4-10-4v-6c-2-3-4-1-7 0l-1-1 2-4-1-1-3 2-2-4 3-1-1-1-2 2-3-3v-12l2-5 3-3 2-2h-1l-1 2-2-2 7-8c4 0 10-5 11-11l1-2c4 2 2-2 3-3l5-4c4 2 6 1 9-1l-5-2 2-2h6l-3-4 1-3h2l8-2-2-3 2-1 2-3 9-8 2-1 6-2 8-2-4-2 5-2 1 1 1 2v-3l1-2h1l7-4 2-1h3c3 4 4-1 6-1l13-5-4-1 16-8 5 1c0-4 5-5 7-5 4-1 3-3 3-4l2-2 4-2 7-3 12-4 5-1h5l6 1h45l11 1 13-3 6 1 8-1 18 1c3 3 6 4 9 0l12-1h19l24 1 8-1h40l16 1-6 1h-49l61 1 8-1 30 1 4-2h8c3 2 6 4 8-1a406 406 0 0 1 27 2h61c6 0 11 2 16-1h2l6 3-2-3 10 2 1 2 1-2 9 2-3 2 1 1 5-1c1 4 3 3 5 2l15 9-1 4 5-1 4 1h1l3 5 1 4h5l13 7 1 5 1-1v-3l5 3 6 3c1 6 4 6 9 6h2c-1 6 2 1 4 2v1l-1 2 5 5 2-3 31 27v6l4-3 4 1v3l-1 3 1 1 1-3 11 10-4 2 1 1h8l4 5 1 9 3 3-1 3c-2 2-3 3-1 6v2c-4 1-5 2-3 6l-3 5-7 2c-3 2-5 4-4 8l-2 2-1 1-3 1 1 1v3l-3 2-1-1h-2 1v1l-1 1c-5-1-5 1-4 4l-1 1-2 2-2 1h-2l2 1-2 4-5 3-5-3 2 6-3 2c-5 1-6 3-6 7l-5 4-2-2-2 2 3 1-13 13h-6l2 4-8 6-1-1s-1 0 0 0l1 1-4 6c-3 0-7 0-5 5-3 2-3 8-8 6l-1 1c0 4-2 5-5 4l-1 2v1l-1 2-6 8-5 5h-2c-2 0-5 0-3 3l-12 13c-6-2-4 3-5 5l-7 7v-2h-1l1 2-3 4-3 3-9 8-2 2c-6 1-8 3-7 8l-1 1-4 1 2 1-3 2-2-1-1 2h3l-5 5-5-1 1 5-2 1-2 4-3 1v-3l-1 1 1 2-4 3h-2v1h2l-4 4-2-1 2 1-3 4-9 2 4 3-1 4m-77-72h-3l-1-1v2l1 7-3 4v2l1 1-1 2h-1l-6 11a55 55 0 0 1 1 4l-2 2-2 2-2 1 3 1h1l-1 1-1 5-2 2-1 1 1 2-1 2h-1c-4 0-3 2-3 4l-1 2-5 1v-2c1-3 5-6 2-11l4-9 3-1-3-2-1-2 2-2h3l-3-2 2-3v-3l2-1h3a13 13 0 0 1-2-1l-1-2v-1l1-1 1-4 2-2 2-2h2l-1-5 1-3c4-2 4-2 2-5v-7l2-1c4-1 3-5 3-9l3-5 7-1-2-1v-7a70 70 0 0 1-1-4v-2l1-1c2-2 5-4 3-8l1-5v-5l-2-2-3-2-1 1 3 3v1l-2 1-4 2-2 3 3 2c-2 1-4 2-1 4l-3 3-7 7-1 6-5 13h-1l-2 7-2 1-5 1 2 4c-4-1-6 1-6 4 1 2 0 5-1 5-3 0-3 2-3 4 1 3 0 3-2 2v-3h-2l2 5c-2 4-1 10-7 11l-1 3-5 11-3 7c-2 4-3 8-7 10s-2 4 0 7h-1l-4 6-13 21-5 10v52c0 3-2 7-1 10s-3 8 3 11v4l-2 1-2 1c-1 5 0 7 7 5l-1-4a17 17 0 0 1 0-2l2-1 1-4 2-2 1-3 1-2v-3l2-2h7l-2-6 1-1 2 5 2 2 1 5 1 3 4-5v-2h1l1-3 1 1v1l3-1 2-6 2-2h4v-1l-4-2v-1h1l3-1 2 1-2-4 4-1c5 0 5-1 5-10l1-3h3l1-3 2-6h1l4-1 1 2 1-1v-5l2-1 1-3h1c1-2 6-1 2-6l-1-2 3-9 1-3 2-2 2-2 3 2v-12c0-2 3-5-2-7l2-3v-2h1c3-3 2-6 1-10l1-1v1l2 2 1-1a17 17 0 0 1-1-3 125 125 0 0 1-1-5v-3l2-1 1 1 1 2 1-1-2-3-1-3v-4l1-1a28 28 0 0 1 0-4l2-3h2l3 4h-1c-2 4 1 3 2 4l-1 3-2 1 2 2-2 7-2-1v1l2 3v11l4 1 3-2 2 2 1-1-2-3 3-4 2 6c2-3 2-6-1-9l2-4h1l2-3 4-4 2-3h5v-2l-4-1 2-1 2-3 1-2c7 2 3-3 4-5h1l3-3-3-2 9-12 1-2 3-2 2-4 2-1 2 2 2 4-5 5c2 0 2 1 3 2v1l-1 1h-1l-2 1 2 2 2 2 2-2h3l2-3c3-1 6-1 6-6v-1h1l1-2 3-2 6-7 5-2 1 5c3-3 3-6 2-10a7 7 0 0 1 3-1l2-1-1-2v-2l4-2c1 4 4 3 7 1-3-1-5-1-7-3l2-1h2l2-3 2-3h1c1-1 5-1 3-5l3-2 6-3h4l-2-4 6-8h2l3 3v-6l3-4h2l3 1-1-4v-1h3c4-1 6-3 7-8l9-11 2-1 1 2 2-3h3l3-4 4-3 1-3 2-4h1a48 48 0 0 1 3 0h5l-1-4 3-2 2-4 8-7 7-2c-3 0-4-1-5-2l8-10 2-1c4 0 5-2 5-6l3-1c5 1 5-2 5-5h1l3 1h1v-2l3-8-4-4-3-3-8 2-11-1c-3-1-6-3-9 1-9 0-18 3-26 5h-3l1 3-3 5s0 1 0 0l-5 3-6-4-1-2 1-2v-3l-2-2v3l-1 1-1-1a68 68 0 0 0-4 0l-1-1-4-2h-9l-1-2-2 2-10-1-19 1-5-1-3 1-2-1v-2l-8-2c-4-1-6 1-6 5a12 12 0 0 1-2 2l-1-1-1-1-4 1-4 1h-3l-4-1h-2l-2 3-3 1h-3l2 2-3 8a45 45 0 0 0-1 4l-1 5-1 4-1 4-3 1 1 1 2 1v4l-1 2-1 8v1l-1 7-2 1-1 2-4-3v9l2 5 1 4-1 1h-1c-3-1-2 1-2 3v5h-2l2 3-3 11-2 3 1 5a29 29 0 0 1 1 3l-2 3h-1v4l1 2-1 2h-4l-2-12 1-1 2-3 1-1-1-1-2 2-2-1v-6c1-5-2-4-5-3l1 4-1 1-2 8v3l-2 1-3 1-5 2 3 7 1 2-1 1v5l-2 2-3 2-2-1-2 1 4 7v2l-1 2-2 1a28 28 0 0 0 0 3v2l-1 2-1 2s0 1 0 0m-70-210-1 1 1 1 1-2h-1m185 3v1l1 1 1-1-2-1m44 24-1-1-1 1 2 2 1 1 1-1-2-2M513 393l-3 1c-5-2-5 2-5 6v2l-2 3-2 2-2-1 1-4-1-1-2 7-2 2h-4l1 8-7 8-1 3-3 3-3 4c-3 0-2 2-1 4l5-1 2-3 1-1h1l2-3 11-11v1l3 1 2-4 2-2h2l-1-3 5-7h1l1 1 7 1-2-7v-3h4l3 2-1-6c1-1 5-2 2-5l2-1 2-2h1l5-4 6-2-1-5v-2h5l4-2-4-3 5-4 3 2 1-1-3-3 3-3c3 4 6 1 8 0l-3-4 5-3 2 2 12-22 1 4 2-1-1-8-4 1-1-1-2 3s1 0 0 0l-5 5h-1l-2-1v5l-1-1-4-1 2 5-1-1c-3 1-6 1-8 3-1 1-3 4 0 7l-6 4-3-3 1 6-4 4h-1c-2 1-5 1-7 3-2 1-2 6-6 7l1 3v1l-4 2-3-2c-1 2-4 5 0 7l-1 1-3 3-1 1h-2l-2 1 1 2v1h-2M363 80l-2 1 1 1 3-2 2-1 2 2 2 3 3 6 4-3v5l6-1 3 2v1l6 1 6 1c6 0 11-3 12-7h3l4 1 2-3c4 0 7-3 8-7h1l2-2h2l3 2-1-5h2c4 4 7 4 9 1l4-5c3-1 4-3 1-6v-1l3-1 1 2 1-1-2-3-3-2h-10c-1 2-4 1-8 0l-4-1-24-1c-2 0-3 3-6 5l-6-1-23-1-2 2-15-1c-6-7-9-1-14 2l9 3 2 3 2 4h-1v1l3-1 1 1 1 5 6-3 2 2-1 2M89 190v1l4 1h2v2l-1 1c-3-1-2 1-1 2l10 9 3-1 2 4 2 5 2 2c1 3 8 6 12 5l-1 1c-1 3-2 5 1 6l2-5v2l2 5 4-1v2c2 3 4 8 10 8v2c1 5 4 8 9 8v1l2 1v1l1 7c5-1 6-1 8 6h1l6 4 3 3c1 5 5 5 10 6v2c-1 4 1 6 6 4v3l-1 1v1l2-3 5 5c-2 5 3 2 5 3l2 4 3 1-1 1-1 5 4-3c1 2 3 3 3 5 0 4 2 5 6 3l-1 1 3 2v1l3 2v1l4 2 3 4c0 3 1 6 5 5l1 2c0 5 2 7 8 8l3 1 1 1 2 2v1l2 2 4 3 1 1 1 1v1l2 2c2 3 3 3 5 0h2v-4l-5-5-3-6-2 3-1-3 1-3-4-5-1-2-3-2c1-3-3-7-7-8l-3-3v-1c1-3 0-5-3-5l-1-3c0-3-1-4-5-4v-3c-2-7-4-14-10-19l3-1 1-4 7 12c-1 4 2 1 3 3l2 1 3 7c2 4 7 6 5 12l3 3c4 3 7 5 8 11 0 4 2 5 7 4v4l-3-2 3 6 4-2 3 5 1 5v5h2v-5l13 20h1l2 4 11 14-2 1 1 1 3-2 3-1v-9l-1-4v-9l2-3 2-2v4l2 2v5l-1 1 3 1h1l1 1-1 1-1 3c-2 4-1 7 3 9v9l3 4v3l-1 2h1l1-2 2 1-1 2 1 9-1 2 1 1 2-2 4 5 4 9c1 7 6 10 10 15h2v2l3 4 2 2 1 3c0 5 2 9 7 12l4 5 6 6c-1 6 0 7 5 5l-1 1c2 6 2 6 10 6l-3-4h1l1-5 4-3 3 2 1 5c-1 3-1 4 3 3l-1 1 3 3-1 2c-1 7 0 9 6 11 3 1 3 1 4-4v-3l-1-3 1-1c2-2 2-3-1-5l-1-2v-15l1-18-1-7 1-1c3-3 2-5-2-7v-1c1-3 2-5-2-7v-2l-1-2v-3l1-1-2-1 2-4-4-5-3-1-2-2v-4c2-4-1-4-4-5v-2l2-2-7-9v-2l1-1h3c-1-4 2-3 4-3l7 12 4 2v-4l1-72 1-43v-18l-1-36 1-3-2-8-1-17v-10l-1-5v-3l1-1v-1l-2 2-2-2h-7l-4-1a114 114 0 0 0-5 0l-5-1v-2l1-2c-2 0-5-1-6 3l-6 1h-28l-18-1-5-1 8-3c-9-2-10-2-11 4l-5-1 1-1 3-1-1-1-4 2c-2 1-6-2-8 2h-1c-3-5-7-3-10-3l-3 4h-1l-8-1v9c1 3 0 8 6 7v2l-1 3 3 1 2 1 2 1v2l4 6v1l3 9 3 3 3 3v4h2l1 1 1 2 1 6c0 2 1 3 3 3v6l3 1c1 2 0 6 5 6l3 7 5 5 1 2v2c-1 4 3 10 8 12l1 1v1l1 2v2c-1 3-2 6 4 6l1 1v2c0 4 1 8 5 10l3 2v1l2 5 3 7 1 4-3 3h7l6 10 1 3v1l3 5 13 22-2 6-5 1-1-1v-3l-1-5-3-10c0-2 0-4-4-2l-4-1-1-1-1-2 1-1c-1-2 1-6-3-5v-1l-2-9c0-3 0-5-4-6l-5-2-1-3c2-4 0-5-4-5a10 10 0 0 1 0-3 71 71 0 0 1-2-3l-1-3-2-2v-1l-2-9h-5l-1-6-6-12 1-5c-4-3-11-4-11-2-1 3-3 6 2 9l-1 3-2 6 7 4v2l2 4 1 5 2 10 4 1-1 2c0 3 0 5 3 5v1c2 4 0 8 5 10v3l3 5v2c0 4 0 6 4 8v3l-2 1 5 3v3l-4 4-2-1-5-12c-1-5-5-9-6-14 0-4-3-7-3-12-1-4-6-8-9-12v-3l-3-14-6-8v-1c3-7-4-9-6-13h-1l1 6-1 7c0 1-2 2-1 3l2 9 3 5-1 1-2 4 5 3v1l-1 1v4l1 3v6h-5l-5-18-5-24-2-12c-1-4 0-9-2-12-4-5-5-11-7-16l-1-12-1-5-2-5c-3-4 0-11-4-16 0-3 4-7-2-9l-3-12 1-1-2-1-1-6 1-1-13-3-7-2-1-1-2 2-5 1-4-1-6-3-1-2-2 3-5-1-2-2-2 2-2 1-2-1-5-1h-16l-2-1v1l2 1-1 2-2-1-2-2-2-1-1 4h-4l-15 3c-2 1-4 4-3 7l2 6-4 1-3-6 1-3-3 2-5-5 2-2-7-1-2-1c-5-1-10 0-15-2-4-1-7-1-12 1l-19-1 1-1-3-2c-3 1-7-2-9 4l-1 7 3 9 3-2 4 5 1 4 2-2h3v3m626-67-2-2v-1c0-4-3-3-6-3v-1l-2-3-3-4 1-1-1-1-2 2-4-3h-6l-2-2v-3l-7-2-1 2-7-5v-4l-4 3-1-2-8-6-2-3 3-1-1-1-4 2-2-2c-1 0-3 2-4 1l-2-3-4-1c-3-3-6-3-9-2l-4-4-7-4 2-1 3-1-1-1a75 75 0 0 1-3 2l-2 1-2 4-1 4c-3 0-7 0-5-6l-2 1-5-7v-1l-1-5 2-1c-4 0-8 1-9 6l-47-1-3-3h-6l-6 1v7l-1 2h1l2-2h2v1l2 7-2 1-6-4a156 156 0 0 1-6 2l-1-2-4-3 5-3c-10 0-18 1-23-8l-4 4c-3-3-7-2-12-2l-1-1c-4-5-9-2-12 1-7 4-7 5-14 4l-4 1-15 13v3h-2c-5-3-4 2-5 5h-3l-5 1-2-2-4 5c-4 3-6 8-12 6-3-1-3 1-3 4l3 7 12 4c4 1 9-1 10 5l5 1 10 4 7 2 9 2 4-1 2 2 12 8-9 3-1-1c-4-2-7-5-12-3v-1l-1-3-6-1c-4-2-9-1-12-6-1-2-6-4-8-3-5 2-6-1-7-3l-7-1-4 2-2-2a55 55 0 0 1-3 0s0 0 0-1l-1-2-6 1-1 5-1 20-1 8 3 2v2l8 7h2l21-1 7-3 4 1 18 4c3 0 6 1 8-1 5-3 9-4 14 0h2c3-4 7-3 11-3l4-2h2l3-2-4-4c-5 0-9-2-9-7-4 4-7 3-11-4l20 5 7 3h1l-1-1 1-2 1 1 4 1v1c-1 4 1 5 4 6h15v1h-6v1h15l-2-1 8-9h2l-2 5c5-4 7-10 15-11l-7 12-2-2-2 7c2 3 2 2 7 2l14 2c1 1 3-1 4-1h15l22 1c7-1 14 3 20-1l2 1 4 4-1-4 5-6c0-2 0-5-4-6l-2-3-1-4v-4h-4l-1-4-5-8-2 1-3-3-2-6h-12l-5 3-1 2-10-2v-2l9-4c0-4 0-4-3-6v-5l-5 1 1-3c-9 2-13-6-21-6l1-2 12-1-2 4 6-2v6c7-5 15-1 23-1l1-3c-3-1-5-1-7-3l1-1c3 1 5 1 5-3v-5l2-2 2 2-2 15v1l4-2-2 6 4 3 4-1 1 2c-1 4 2 6 6 5 4 0 7 0 6 6l3-2 20 8c-4 2-8 4-13 1v-4c-2 1-7-2-7 4h-1l-1 4 3 2 2 6c0 3 0 4 4 4l1 2c1 6 7 12 12 11l1 1 8 6c0-2 1-3 3-4l5 1 4 1c10 0 19-1 29 4v-1l-4-5 2 1 4-3-4-4v-3l-6-1c-3 1-6 0-8-2l-6-4 3-2h4l14 6v1l7-1h2l3-1v-11h4c-4-4-7-1-10-1l-2-5-2-2M174 98l-2-2h1c4-4 4-4 1-7h1c3 0 5 0 5-4 0-2 0-4-4-5v-5c0-2-2-3-3-4l-2-2-11 5-5-1-2 2-4-2-1 2 5 2 1 3-1-1-4 4-2-1-6 1v-1l-13 9-1 3h-2c-4 0-7 0-8 5l-1-1-2-4-1 1 1 5-1-1c-6-1-10 2-11 7h-1l-3-3c-2 6-6 9-11 12 1 4-2 7-7 9-4 1-5 4-3 7l-4 6 3 1v1l4 2 8-1-1-4h2l3 1c0 3 2 4 4 3l2-6c2 1 4 0 3-4h1l1 1h5c4-4 12-3 16-8 4-3 9-4 14-6l7-3c5 1 7-1 7-6l1 1c1 6 3 1 5 1l-2-4h2c6 4 13 0 13-7h1l2 1 1 3 1-1-2-4m71-26h1l4 8-1-1-3 3-4 1-3 2h-3l-2-3-3 6-2-1c-5-2-8 3-13 3l-1 4h-3l-4-2-2 5-9 4-3-1 1 4 1 5 1 1v1c-5 6 1 6 3 8v5l-12-6v-1c-6-5-11-6-16-1l-3 1 1 2-5 4-1-1v1l2 2-4 3v-2h-2l2 3-4 6-6 1 2 1-5 7 1-10h1l6-2-4-5 4 1 1-1-5-5-4-1-4-2-1-1-1 1 2 2h-8l-2 6h-2l-4 3-5 1-3 3-2-1-1-3h-1l-1 6-1-1c-6-3-11 2-15 5l-2 3h-1l-4 3-4 1c-2 0-5-1-5 4v2l-2 1 1 2h3c16-1 32 2 48-4 5-1 11-1 12-7l5 3 4 5 4 2 7 2a32 32 0 0 1 4-4l15 1 3 3 5-1h16l2-1c5 6 5 1 7-2h7v1l2 5 6-7h3l5-2-1-1h-4l-4-4-1-3-2 1-2-2 1-2-1-3h5l5 5 1-5 2 3c0 5 3 5 7 4l2 3 1 6 8-5h1v1l5-1 12-3a55 55 0 0 1 3-2h2l7-3 12-2 4 4h-5l-2 1 3 2v1l-10 2-3-4-6 2 6 4a28 28 0 0 0 1 3l1 2 6 2h61l6 1c3 2 11 0 15-3l9 1c2-1 7 3 5-5v-5l1-2c1-5 3-10-1-15l1-2c1-2 3-5-2-7v-4l-5-2a37 37 0 0 0-3 3h-3l-14 3-1-3-3 7h-2c-5-1-9 1-12 5h-2l-5 2-5 1-6 3-1-1h-5l-13 5c-2-1-6 2-6-3l1-2 6-2c4 1 7 0 10-4l7-2 21-7 6-1 5-3 9-5 6-2 2-2h2c4-1 5-3 2-8l-4 3-2-3c-3-5-4-6-7-4v-1l2-3 1-2-1-1-2 3h-4v-1c0-4-3-2-6-2l-1-1-4-4-1 2v-2l-4-2-1-1-3-7 3-2-1-1-4 3h-7l-2-2-5-2-5-4-5-5-6 3-8-1-13-3 3 6h-2c-4-3-5-1-6 3h-3l-3 1-5 2-1-2h-1l1 3-1-1-2 2h-2l-7-1v5h-4l-4-3-3 2-2-3 6-2 3-2a65 65 0 0 1 3-3h1l2 3c1-3 2-5-3-5h-68l-3 3c-5 3-5 6-3 13l-2 3-3 4 3 5 1 3 1 2 2-3 2 1 9 2 5-4 3-4 2-3 4-1a72 72 0 0 0 3 1 44 44 0 0 1 2-3l10-2v2l9-1-5-4v-1h2l3-2h3l4-1m323 257h-1l1 1 4-1h1l-1-1-4 1m-65-102c4-1 1-3 1-6l6-9 1 1 1-1-2-2 1-1h4l-3-4 7-6v-5l7-13 2-2 1-4-3-6-2 3c-3-2-6-5-9-5-4 2-8-1-12-1-10 2-21 0-31 0a711 711 0 0 0-66 4c-2 0-5 2-3 6l-1 9 1 3-1 37v13l-1 41v26l-1-5v-18l-1 34c0 2 0 5 4 6l-1 18-3 1c0 3 2 3 4 4v12c0 2-1 3-3 3v-13h-1v18l5 2v9c-1 1-5 4 1 5l1 7a29 29 0 0 1 0 2l3 1c6-3 6-10 10-14l8-13 2-2c1-3 0-7 2-9 5-3 5-9 8-13l2-7 10-16 6-9c3-6 4-13 10-17l3-3c0-5 4-9 5-13l2-4 4-4h1a15 15 0 0 1-1-3l5-3v-4l1-2 1-3 4-5 2-7 6-9h2v-4h1M284 403l-2 5h9l-1 1 3 2 17 18-2 3c4 2 9 1 7 7h6l-1-8c0-3-2-4-4-4 0-3 0-5-4-5-1-1-2-1-2-3 0-7 0-7-8-7v-1l2-4h-1l-4 2v-1l-3-9-5 2-5-6c-1-4-6-6-8-4l-2 3 4 2-1 1c-1 4 1 6 5 6m112-73v62h1v-95h-1zM249 58h-47v1h53v-1zm32 330 7 1-6-4-3 2 2 1m76-348h-11v1h22v-1h-11M175 157h9v-1h-14v1h5m-8-92-6 3 1 1 5-4m394 94-3 1 5 2 1-1-3-2M338 68v-3l-4 1v1l4 1m-71 120-4 1 1 2 3-3m382-41 1 4 1-1-2-3M364 482l-4 4c4 0 6-1 4-4M141 244l-2-3-1 2 3 1m576-142 3 2 1-2h-4M392 504l-3-2-1 2h4m-45-177 2 3 1-1-3-2M148 152h1c0 1 0 0 0 0l-1-4-1 1zm114 188-3-1v1h3m222 79-2 3 1 1 1-4m-172-4h1l1-3-1-1-1 4m16-355v-2l-3 2 1 1 2-1M120 92v-1l-3-1-1 1 4 1m40 171h-2l-1 1 3-1m541-121 1-2h-2l1 2M515 269l2-1-1-1-1 2M373 161l1-2h-2l1 2m-116-10 1 2 2-2h-3m239 224-2-1v2l2-1m18-212 2 1v-2l-2 1m76 149 2 1v-2l-2 1M243 78l3-1-1-1-2 2M89 198l2 3 1-1c-1-1-1-2-3-2m307 88v2h1v-6h-1zm292-71 1 1v-6h-1v5M331 40l-1 1h6v-1h-5m217 300-2 2 1 1 1-3m-149 40v4h1v-6l-1 1v1m124 47v2l1-1-1-1m188-312 2-1-2-1v2M344 492l-2-2-1 1 3 1m255-194h1l1-3h-1zm-421-18-2-1v2l2-1m94-53-1-1v5h1zM134 85v-2l-1 1 1 1m129 275-1-1-1 1h2m21-300 2 1 1-1h-3m-93 35-2 1 1 1 1-2m46 49v2l1-1-1-1m390 126 2 1v-2l-2 1m-468 32h2l-1-1-1 1m-7-5 1-2-1-1v3m170 124h1l-1-3h-1zM65 206l-1-2-1 1 2 1M612 66l1 1 1-1h-2M226 286l-2 2h1a7 7 0 0 0 1-2m395-10 1 1 1-1h-2m65-61h-2l1 1 1-1m-574 40 1-2-1-1v3m507-94-1 1 1 1v-2m57-1v2l1-1-1-1M121 264l-1-1-1 1h2m176 130-2-1v2l2-1m279-71-1 1 1 1v-2m69-268-2-1-1 1h3M324 427l-1 2 1 1v-3M146 77l-1 2 1 1v-3m-9 87-2-1v2l2-1m391 234v2h1l-1-2m-197 41 1-2h-1v2m-59-287-3-1v1h3M128 271l-1 2h2l-1-2m131 88h-2l1 1 1-1m253 55 1-1-2-1 1 2m119-301h1v-1h-3v1h2m43-33 3 1v-1h-3M484 315l-1 2h1v-2m-335-25-2-1v1h2m370-88 1 1 1-2-2 1m-67 298 1-1-1-1v2m-132-75v-2 2m-41 2-1 1 1 1v-2M622 46l-1-1-1 1h2M508 442l-1 1 1 1v-2m-33-3h-2 2M195 58l-1-1-1 1h2m300 371v2-2M135 72l1-1h-2l1 1m-5 164h2-2m-45-10-1-1-1 1h2m29-2h2-2m-43-9h2-2m638 27-1-1-1 1h2M67 210h2-2m38 0h1v-2h-1v2m-6-1v-2 2M257 73h2-2m23 200 1-2h-1v2M617 65l-1 1 1 1v-2m5 1-1-1-1 1h2M500 272h-2 2m-182 0-1-1-1 1h2m-152-2h-2 2m-51-12h2-2m531-4-1-1-1 1h2m10-10-1-1-1 1h2m-144-91v-2 2m-228-1h2-2m-18-4-1 1 1 1v-2m462-12h1v-2h-1v2m-402-7-1-1-1 1h2m-194-4 1-1-1-1v2m589 29h-2 2M72 111l1-1-1-1v2m53-21h-2 2m-46 8-1 1 1 1v-2m23-1-1 1 1 1v-2m609 93 1-1-1-1v2m-185-4 1 1 1-1h-2m200-9v-2 2M674 76l-1 1 1 1v-2m-434 88v2-2m105 0h-2 2m266-2h-1v1l1-1m95-2v2-2m-207 1h-2 2m148-4h2-2M487 300h-2 2m-235 51h-2 2M456 60v-2 2m-3 259-1 1 1 1v-2m88 18v-2 2m71-50v-2 2m-1 52h2-2m56-266v-1 1M399 388h1-1m2 83h-1 1m177-150v1-1m-101 17-1 1 1-1m-56 48v-1 1m84-157-1 1 1-1M392 409l1-1-1 1m-87-37-1 1h1v-1M98 88v1-1m45 201 1 1-1-1m143 7v-1h-1l1 1m-10 61-1 1 1-1m252-3v1h1l-1-1m-80-229-1-1 1 1m-113 1h1v-1l-1 1m153 274 1-1h-1v1M74 140l-1 1h1v-1m590 95h1-1m-539-2h1v-1l-1 1m23-168h1v-1l-1 1m374 169-1 1 1-1M33 149h-1 1m366 341v1h1l-1-1M282 151h-1 1m123 386v1-1M240 76v1-1m378 28h-1 1m-542 0v1-1m477 266h-1 1m65-297v1-1m-73 261h-1 1m-124 42h1-1M212 91v-1 1m424 22v-1 1m-448 0v1-1m247-28v-1 1m-62 403v-1 1m173-112v1a1 1 0 0 0 0-1m-21-223v-1 1m-197-23v1-1m72 350h1-1m-19 0h-1 1m227-184v1-1m97-52h1-1M312 418h1-1m-14-178v-1 1m367-2h-1 1M401 416h1-1m-4 16h1-1M617 71h1-1m12 251v-1 1m-356 72h1-1m431-194v1-1M465 446h-1 1m153-113h-1 1m-73-2h1-1M86 192v1-1m430 85h-1 1m-44 9h1-1M216 86s0-1 0 0m161-28s-1 0 0 0m113 355s0 1 0 0M81 96s0 1 0 0m389 257s0 1 0 0M369 57s1 0 0 0m-64 304s0 1 0 0M277 66s-1 0 0 0m212 345s0-1 0 0m216-302s0 1 0 0M301 274s-1 0 0 0m241 136s-1 0 0 0m-78-41s0-1 0 0m-147-94s1 0 0 0m227 52s0-1 0 0M193 161s1 0 0 0m391 1s0-1 0 0m96 0s0-1 0 0M262 60s0-1 0 0m-5 0s0-1 0 0m288 269s0-1 0 0M354 469s-1 0 0 0m125-139s0-1 0 0M304 455s0-1 0 0m337-323s-1 0 0 0M297 420s1 0 0 0m352-171s0 1 0 0m-488 56s0 1 0 0M32 145s1 0 0 0m610 165s-1 0 0 0M323 58s0-1 0 0m206 161s0-1 0 0m-60 262s0 1 0 0" class="H"/><path d="M198 39h-5l-5 1-12 4-7 3-4 2a19 19 0 0 0-2 2 56 56 0 0 0-4 0c6-6 14-10 22-11 11-2 23-4 34-4l107 1h4a105 105 0 0 1-21 1h-99l-8 1z" class="D"/><path d="m728 225 3-2 3-3 5-3a411 411 0 0 1-16 17l-31 31-32 30 6-8 1-2v-1l1-2c3 1 5 0 5-4l1-1c5 2 5-4 8-6l5-5 4-6 8-6 4-4 13-13 1-1 6-5 5-6z" class="G"/><path d="m755 127-4-1-4-3-31-27-6-4-1-1-3-2-2-1-9-5-6-3-5-3-2-1-13-7-6-4-3-4 29 16c13 8 26 15 38 24l28 26zM521 38h-24l-8 1h-8l-24-1 2-1h102l-5 1zm96 3-10-2h-6l-7-1-9-1c24-2 47 1 67 17l7 6-4-1-4-3-15-9-5-2-1-1-2-1-9-2h-2" class="D"/><path d="m456 38 25 1-4 2-30-1-8 1-61-1h49l6-1v-1h23z" class="B"/><path d="M282 436a3 3 0 0 0 0 1l4 3 2 3 3 1v1l2 2 13 11c1 0 0 0 0 0l1 3 2 2a103 103 0 0 0 3 4l2 1 3 4 5 4 1 2-12-9-38-39-1-2 4 2 2 2 4 4z" class="E"/><path d="m584 36 10 2 7 1c-5 3-10 1-16 1h-11a11629 11629 0 0 1-53-1l35-1 5-1h8l8-1z" class="B"/><path d="M653 300a10 10 0 0 1 2 0l-10 12-44 44v-2l2-2 6-7 2-2 9-8 3-3 3-4 7-7 5-5 12-13 3-3z" class="G"/><path d="m193 346 2 2 3 2 2 4h1l6 6 1 2 4 2v1a50 50 0 0 0 4 5l1 2-19-17a500 500 0 0 1-23-28l10 10 6 6v1l2 2z" class="E"/><path d="m26 172 2 4 2 3 2 1 6 5v1l4 4 5 6 9 9 1 4-22-23-12-12-2-8 2 3 3 3z" class="G"/><path d="M363 517v1l4 3v1l9 8v1l1 2-36-36h1l2 2h1l2 2 2 3 3 2 4 4 4 4 3 3z" class="E"/><path d="m576 377 4-3 3-2 2-3 2-2 4-3 5-5v-1l3-2h2l-23 24-11 10 2-4 3-4 4-4v-1z" class="G"/><path d="M392 543v1c5 1 10 2 14 1l10-5 2-3 3-2a65 65 0 0 1 3-3 27 27 0 0 0 2-3s1 0 1 0c-9 14-18 21-33 18-2 0-3-2-4-3l2-1z" class="E"/><path d="M117 74h-3l8-5 35-16-9 6-16 8z" class="D"/><path d="m469 487 5-5 11-9-10 11a947 947 0 0 1-23 21l2-3a56 56 0 0 0 1-1l3-4h1l1-2 4-2 5-6zm40-40 6-5 3-4 2-1 3-2-16 17-14 13-1-2h1l2-3h1l3-3 4-4 6-6z" class="E"/><path d="m59 114-2 2-4 3-5 4-3 3-2 2-7 5 10-10a368 368 0 0 1 16-13l-3 4z" class="G"/><path d="m525 431 3-3 4-4 7-6 4-5 2-2a7 7 0 0 1 2 0l-8 10-15 14-1-1 2-3z" class="E"/><path d="m33 139-7 9-1 4-2 5-2 5c-2-8 2-14 6-20l8-7-2 4z" class="G"/><path d="m246 399 1 2 5 5 4 4v1l4 2 2 2v2a255 255 0 0 1-24-23v-1l3 1 1 2 4 3z" class="E"/><path d="M128 278h1l7 5c5 2 5 4 4 8l-11-10a40 40 0 0 0-1-3" class="B"/><path d="m377 38-8 1a429 429 0 0 1 8-1" class="D"/><path d="m60 210 5 4 3 3 5 5 2 3v2a430 430 0 0 1-17-18l2 1z" class="G"/><path d="M159 310c4-3 5-1 5 3l4-1 1 8-2-1a15 15 0 0 1-2-1l-3-3-2-3-1-2z" class="B"/><path d="M756 201v-3l2-2 1-1 2-2 1-1a176 176 0 0 1 10-7l-16 16z" class="G"/><path d="m438 516 3-3h2l-15 16h-1l2-5h1l3-3 5-5" class="E"/><path d="m485 473-10 9c-1-5 1-7 4-9l5-5 2 2v2l-1 1M148 59l9-6 2-2h3c1 1 2 3-2 4-2 0-7 1-7 5l-5-1zM33 139l2-4 1-2 8-4c-1 5-7 10-11 10" class="B"/><path d="m94 247 2-1 4 3 3 4 5 5a5 5 0 0 0 1 1l1 1a10 10 0 0 1 0 2l-16-15z" class="G"/><path d="m338 492 1 2-15-14h2l9 10 3 2zM159 310v1a257 257 0 0 1-14-13h3l2 2 4 5 5 5z" class="E"/><path d="m767 141-11-10-1-1v-2a205 205 0 0 1 15 12l-1 1a70 70 0 0 0-2 0zM408 38a305 305 0 0 1-22 0h22m364 147h-1l1-2 4-6 2-5a11 11 0 0 1 1-2 5 5 0 0 1 1-1c0 6-3 11-8 16zM73 101h-3l14-11-9 9-2 2z" class="D"/><path d="m547 409-1-4 7-4v4l-2 2-4 2zm233-248-3-3-1-9 5 4v7l-1 1" class="B"/><path d="M225 378v1l5 4 2 3 1 2-13-12v-1z" class="E"/><path d="m110 263 2-1 4 3 1 2 4 3v3l-11-10" class="G"/><path d="m781 153-5-5-5-4-1-3a154 154 0 0 1 11 12z" class="D"/><path d="m380 535 5 4 2 3-10-8v-1l3 2" class="E"/><path d="m89 241-11-11h3l8 11z" class="G"/><path d="M433 38h-16 16z" class="D"/><path d="m387 542-1-3c1-3 3-1 6-1v5l-2 1v-1l-3-1zm182-156-2 4-1 1h-2l-4-3zM70 101l1 1 2 3-8 2v-2zm-49 61 2-5a75 75 0 0 1 0 12l-2-3v-4" class="B"/><path d="m452 505-8 8h-1l7-8a8 8 0 0 0 2 0z" class="E"/><path d="m750 204 1-1h2a69 69 0 0 1-8 8v-2l1-1 4-4z" class="G"/><path d="m262 417 6 6-6-6m-95-97h2l1 2 4 5a80 80 0 0 1-7-7z" class="E"/><path d="m96 83 4 2-8 2-1-1 5-3z" class="B"/><path d="m128 278 1 3-8-8h1l2 1 4 4z" class="G"/><path d="m148 298-3-1a29 29 0 0 1-4-4c3 0 7 0 7 5z" class="B"/><path d="m741 212 2-1h2a55 55 0 0 1-6 6l2-4v-1z" class="G"/><path d="m781 168-2 1c-3-2-2-3 1-5l1 1z" class="B"/><path d="m112 75-7 4 7-4" class="D"/><path d="m276 429-4-2h-1l-1-3c3 0 6 0 6 5" class="B"/><path d="m577 36-8 1 8-1" class="D"/><path d="m327 480-3-1-1-1v-1l4-3v6z" class="B"/><path d="m655 300 5-5-5 5" class="G"/><path d="m235 389 2 2 1 2-5-4v-1l2 1" class="E"/><path d="m92 242 1 1 1 1v2l-5-4v-1l3 1" class="G"/><path d="m91 86 1 1-6 2 5-3" class="D"/><path d="m557 401 4-4-4 4" class="E"/><path d="M81 230h-3l-2-1 3-3z" class="B"/><path d="M547 409a14 14 0 0 1 4-2l-4 4v-2z" class="E"/><path d="M564 391h2l-3 4 1-4" class="G"/><path d="m781 165-1-1v-3h1v4" class="D"/><path d="M486 472v-2l3-1-3 3M162 315l3 2-3-2m58 60-3-2v-1l3 3z" class="E"/><path d="M553 403v-2l2 1v1h-2z" class="G"/><path d="m104 79-1 2h-2l3-2z" class="D"/><path d="M492 463v2l-1 1 1-3z" class="B"/><path d="m270 424 1 2-2-1 1-1zm117 118 2 1-2-1m166-138 2-1-2 2v-1m-64 65 1-2-1 2m-150 26h2v2l-2-2z" class="E"/><path d="M65 105v2h-1l1-2z" class="G"/><path fill="#fafafa" d="M403 185v-10l2-2 28-3 72-1c6 0 12 3 18 4 3 1 3 3 2 6l-24 44-16 30h-1l-38 69-5 11-14 24-17 29-4 3v-14l-3-126v-64"/><path d="m294 222-1-3-3-4-3-5v-1l-6-10-4-7v-2l-3-4-1-1-2-4v-1l-1-9h3l7-1 4-1h6l7-1h32l28 1 7 1 21 3c4 0 4 2 5 5l1 13 1 18v88l1 19v71l-1 4-20-36-25-42-9-14v-1l-4-6v-1l-2-2-2-3a13 13 0 0 1 0-2l-2-3-3-4v-2l-1-2-3-5-3-6-2-2h-1a32 32 0 0 1 0-3l-2-3-2-3-6-11v-1l-4-6v-1l-2-2-1 1v-1l-1-3-3-5z" class="J"/><path fill="#fafafa" d="m637 171 2 1h3l2 1 2 1-1 3-1 2v1l-2 2-2 3-2 3-2 2-2 3-6 9-2 3-4 5v1l-2 2-1 2-3 3-3 5v1l-1 1-9 13v1h-1l-1 2-3 5-1 1-4 5-6 9-2 3-8 11-2 2-3 6-3 4-2 2-2 3v2l-2 2-3 3-7 11-2 3a10 10 0 0 0-2 3h-1l-3 5-1 1-2 4-2 2-8 13-2 1-17 25-1 2-10 12h-2l1-9 3-22 1-2 1-7 1-3 1-7 1-2 4-22v-2h1l2-9v-1l1-6a14 14 0 0 1 1-3l1-5 1-3 1-4v-5l1-1 5-23v-2l3-14v-2l1-1 1-7 1-2 1-7a11 11 0 0 1 1-2l5-21v-2l2-9 1-2 2-1 2-1 2 1 4-2h4a124 124 0 0 0 10 0l8-2a60 60 0 0 1 7 0 52 52 0 0 0 3 0h39l1 1h5l3 1h4z"/><path fill="#f8f8f8" d="M177 166h3l21-1h3l19 2 5 1 12 2c4 1 9-1 11 4 1 3 3 6 3 10l20 80 20 86c3 9 4 19 6 28l-1 1-4-3-13-17-27-38-6-9-16-21v-1l-16-23-3-4-12-17-1-1-15-22-1-1-30-42c-4-6-4-7 3-9l19-5z"/><path fill="#f9f9f9" d="m529 74 2 1 6 3 64 27v1l-2 5-23 14-23 16-2 1c-7 5-14 7-22 5l-12-4-4-1a62 62 0 0 0-2-1l-40-15a72 72 0 0 0-3-1l-3-2-48-17-3-3 3-4 19-11 2-1 6-5h1l4-2c9-5 19-11 28-14 9-4 19-4 29 0z"/><path d="m259 146-2 1-1-1-11-7-15-11-15-8-16-9-2-2h-1c0-3 0-5 3-6l7-2 24-10 20-9c2 0 3-2 5-4h5l39-14c7-2 15-3 21 1l26 16 15 8 11 8 4 6-13 5-12 7h-5l-40 15-10 5h-3l-3 2-3 1-3 1-3 1-7 1-15 5z" class="J"/><path fill="#f7f7f7" d="M85 166h20l13 1c12 2 23 5 28 18l5 9 12 16-1 1 3 3v1l4 5 2 4 3 3 1 2 5 6v1l2 2 1 3 2 2 6 8v1l3 3a6 6 0 0 1 1 2 69 69 0 0 0 6 8l5 7 2 2-1 1 2 2v1c0 3 2 5 5 5l1 3 2 2 6 9 2 2v1l2 2h1v3l3 2v1l4 5 1 1v2l3 3 6 9a97 97 0 0 0 8 10l2 4 2 4-2 3-1-1-2-2-3-1v-1l-2-2v-1l-2-2h-1l-1-2-3-3-3-3-10-11-16-15-2-2v-1l-24-24-8-5-1-2-7-6-16-14-2-2v-1l-9-8-1-1-9-9-1-1a183 183 0 0 0-4-4l-2-2a21 21 0 0 0-1-2l-13-12-8-8-6-6-2-2-1-1a260 260 0 0 0-5-5l-12-14-1-1v-4l9-2z"/><path fill="#f5f5f5" d="m606 285-3 3-4 4-3 3-1 1-2 2-2 2-4 3-7 8-5 5h-1l-5 6-3 3-2 2-5 3-6 7-2-3v-1l3-4 5-6 4-7 1-1 4-6 3-5 2-4 2-1 2-3 3-4 1-3h1l2-3 2-3 2-3v-1l2-2 13-18 11-18h1l4-7 1-1 5-7 1-1 1-2 12-17 3-5 1-1 1-2 1-1 12-17 1-1c4-4 8-6 13-8 15-4 30-4 44-1l6 2-6 8-5 5a80 80 0 0 1-3 2 130 130 0 0 0-7 6l-23 23-4 4-4 4-10 10h-1l-4 4-1 1-3 1-11 11-5 5-2 3-4 4-5 5a4 4 0 0 0-1 1 54 54 0 0 1-2 1l-14 15z"/><path d="m469 338-1 1-1 2v2l-1 1a29 29 0 0 0-1 3l-1 4-1 1-1 3-5 14-1 2-10 27-1 3a50 50 0 0 0-3 6l-8 24-1 2-10 27v2l-4 11-1 1-2 6-1 3a14 14 0 0 0-1 2 58 58 0 0 1-1 2l-1 3-1 2-2 4a8 8 0 0 1-1 1l-2-1v-55c-1-14 2-28 11-41l9-18h1l24-43 11-23c2-2 3-3 3-5l2-1 3-7h1l13-24a101 101 0 0 0 6-11l1-3 4-1v3c-2 2-2 4-3 7l-1 1v4l-2 2-1 3v3h-1a239 239 0 0 0-8 21v1l-1 2-2 5-1 2-1 2-1 3-1 2-3 10a51 51 0 0 1 0 3z" class="K"/><path d="M383 405v1l2 4v2a836 836 0 0 0 7 28l3 4v5a273 273 0 0 1-4 42l-10-25-4-7c-1-8-3-15-8-20l-1-2-1-2v-2a169 169 0 0 0-4-14l-3-2 1-2-1-3-14-37-3-11-12-26-9-25-12-29 1-3 3 1 8 15 11 19c3 4 3 11 9 13l1 3 4 10 2 1 1 2a339 339 0 0 0 10 19l3 2v1l3 4 1 3 2 2 1 3 7 14 1 2 5 10z" class="J"/><path fill="#f4f4f4" d="m492 355-1 2-1 8-1 2v6l-1 3-2 4v5l-1 2-1 4-1 2v5h-1l-2 9-1 2v2l-1 3a84 84 0 0 0-6 13l-1 2-8 11h-1l-5 9h-1l-13 18v1l-5 6-2 4h-1l-2 3h-1l-3-2 2-8 9-24v-2l2-1a230 230 0 0 0 7-21l2-4v-1l1-1a448 448 0 0 0 10-29l2-3 3-9v-1l1-3a13 13 0 0 0 1-3 5 5 0 0 1 1-2l2-5v-1l2-3 2-7 1-1 2-6 1-2 1-2v-3l5-12v-1l1-1 1-3v-2l2-6 1-2 1-2 2-6v-2l2-3 5-10 1-5v-2l1-1 2-6 1-2 1-2a71 71 0 0 0 3-1l-1 4-2 12v3l-1 1-1 6-1 3-1 6v2l-1 2v4h-1v4l-1 1v3l-2 7-1 5-1 2a45 45 0 0 0-1 10l-1 5-1 4-1 3z"/><path fill="#ededed" d="M293 299v-2l-3-16v-7l6 8 9 23v2l19 51 8 17v2l4 9 14 36 1 3 3 6 1 2 1 3v2l10 24 2 3 5 16-1 1-5-3v-1l-5-5v-1a742 742 0 0 0-18-25l-2-2v-1l-3-3a21 21 0 0 0-1-2l-11-16-4-8-6-15v-3l-3-10-1-5-3-13a28 28 0 0 0 0-2l-4-15v-1l-2-5v-2l-3-12v-2l-2-5-1-4-3-14v-2a193 193 0 0 0-2-6z"/><path d="m673 97 7 4 8 4 3 2 16 9v1l6 4v1l2 1v1l2 1 2 5c2 5 6 8 3 13a22 22 0 0 1-3-1l-63-26-27-11-1-2-5-10-2-16v-4a138 138 0 0 1 14 5l33 16 2 2 3 1zm-559 3h1l1-1h1l8-5h2l21-11h1l5-3 19-9c1 1 3 2 3 4v6l-1 8-1 1-2 6v1a18 18 0 0 0-1 2s0 0-1 0l-12 7a34 34 0 0 0-2 0 65 65 0 0 0-3 2s-1 0-1 0l-28 12-22 10-1 1-12 5h-2l-11 3v-2c8-11 15-22 26-30v-1l12-6z" class="K"/><path fill="#f2f2f2" d="m414 117 3 1 44 16 12 4 1 1c8 3 16 5 23 9l8 5a93 93 0 0 0-2 0l-45 1h-17l-37-4v-1l-2-10 1-20 1-5 7 2 3 1zm23-42-2 1-3 2h-1a31 31 0 0 0-3 2l-15 8-2 1-12 6-7-1-5-1-3-2v-1a76 76 0 0 0-6-3l-9-6-2-2-3-1-2-2-12-8-2-2-3-4h55l51 2-1 2-13 9z"/><path fill="#fefefe" d="M389 116v2l1 3-1 4-1 2 1 17 2 2v5h-3l-3-1-10-1-6 3h-71c1-5 6-9 12-9 3 0 4-1 4-3h3l8-2 33-12 9-5h2l4 1 16-6m-43 32h14v-1h-30v1zm18 1h-2v1h5v-1h-3m-59-1s-1 0 0 0"/><path fill="#f7f7f7" d="M188 118h1l14 9 27 19 3 4-8 2-8 1h-48l-2-1-10-1h-2l1-9 13-19c8-10 8-10 19-5z"/><path d="M542 68v-1l-1-3h60l7 1v1l2 23a23 23 0 0 0 0 2l-6 2-29-12-17-6-2-1-6-3h-2l-6-3z" class="K"/><path fill="#f2f2f2" d="M262 64h-2l-12 5-1 1-5 2h-1l-4 1-2 2h-2l-19 8-5 1-8 4h-2l-3 1-5 1c-3 0-4-1-3-4l1-11 1-2 3-11h44a336 336 0 0 1 25 2z"/><path fill="#e9e9e9" d="m149 121 4 2-3 11h-1c-9 14-21 20-38 19H84v-3l6-3 3-1 5-3a482 482 0 0 0 23-9l4-2 4-2 5-2 1-1 14-6zm516 32-1-2-12-10a12 12 0 0 1-1-2l-4-5-2-5-2-6h2l8 3 41 18 17 8v3h-36l-10-2z"/><path d="M451 417v1l-2 2v3l-1 1-1 3-1 2h-1l-2 1 2 1-4 10-1 4-1 2-5 11-7 21-2-1-3-5v1l2 6h-5l-1-6 1-1 5-8-1-3 1-2 8-19 2-8 1-2 4-7 6-20v-3l1-3 5-9 6-18v-2h2c3 4-1 7-2 11a10 10 0 0 0 0 2v-1l6-1 1 1-1 2-2 5v3l-2 1-2 7-1 2-1 4-1 2-1 2-1 3-1 5zm102-275 23-17 23-14 2-5c3 1 3 1 3 5l-9 4v2l11 2v1l-48 31 1 2c28 2 57 2 86 0l-2-7c4 0 4 3 4 5l-5 6 1 4-4-4-2-1c-6 4-13 0-20 1l-22-1h-15c-1 0-3 2-4 1l-14-2c-5 0-5 1-7-2l2-7 2 2 7-12c-8 1-10 7-15 11l2-5z" class="B"/><path d="m255 322 27 37 13 17 4 3 1-1c-2-9-3-19-6-28l-20-86-20-80c0-4-2-7-3-10-2-5-7-3-11-4l-12-2 5-1h2l7 1 13 3-1 1 1 7v1l4 13 2 9c4 4 1 11 4 15l2 5 1 5 1 12c2 5 3 11 7 16 2 3 1 8 2 12l2 12 5 24 6 18 1 6c4 2 3 4 1 6v4l3 13 3 3v6l1 10 1 3v9l-4 1-12-14-3-4-14-20-2-5-4-5-2-2-2-4-3-6z" class="C"/><path d="M711 155v-3l-17-8-41-18-8-3c-1-6 4-3 6-4v4c5 3 9 1 13-1l-20-8-3 2c1-6-2-6-6-6-4 1-7-1-6-5l27 11 63 27-6 1v-1l-14-6h-4l-3 2 6 4c2 2 5 3 8 2l6 1v3l4 4-5 2" class="B"/><path d="m485 253 16-30 24-44c1-3 1-5-2-6-6-1-12-4-18-4l-72 1-28 3-2 2c-2-3 1-5 3-5a563 563 0 0 1 66-4c10 0 21 2 31 0 4 0 8 3 12 1 3 0 6 3 10 5l3 3v4l-2 2-7 14-1 4-6 7a41 41 0 0 0-2 3 34 34 0 0 0 0 2l-6 11-2 5-3 4-5 10-3 6-3 6h-3z" class="C"/><path d="m558 75 17 6 29 12 6-2 7 2-1 3c-8 0-16-4-23 1v-6l-6 2 2-4-12 1-1 2c8 0 13 8 21 6l-1 3 5-1v5l-64-27a68 68 0 0 1-6-3l5-2 7 4c3 2 6 7 10 1v4l8-3-3-4z" class="B"/><path d="m333 315-11-18-8-15-3-1-1 3 12 29 9 25 12 26 3 11 14 37v3l-4-7-3-8-1-3-1-1-4-11-1-2-2-7-1-1-2-6-3-8-3-7-2-4a40 40 0 0 0-1-3 29 29 0 0 0-1-3l-3-9-1-1-2-6a57 57 0 0 1-1-2l-5-11-2-5v-2l-5-12-2-5-2-4v-1l-4-10a78 78 0 0 1 0-4l-1-7h1l4 4 9 15 3 5 6 10 1 3 2 3 2 3 1 2 1 5z" class="F"/><path fill="#e9e9e9" d="m520 399-1 1-2 3h-1l-1 2h-1l-1 2h-1l-8 8-5 6-12 11-2 3h-4v-3l3-4a50 50 0 0 0 2-2l6-8 4-5 5-6 3-2 1-3 4-3 2-2 2-2 2-2 3-4 1-1 4-3v-2l3-1 4-5h2l4 2-5 8-2 2-2 2-5 4v1l-2 3z"/><path d="m402 225 1 24 2 126h-1v-9l-3-5 2-4v-36l-1-16-1-26 1-41v-13z" class="C"/><path d="m199 111 1 1 7 5 30 19v5l-5-5h-5l1 3-1 2-14-8-10-6-2-3-1-5c-2-2-8-2-3-8h2zm374 189-3 4-3 6-3 5-1 1-5 7-4 6-3 2-3-1 5-5-2-5-2-2a13 13 0 0 0 0-2l3-2 4-3-3-1 7-11 3-3 2-2 7 3 1 3m-15 9s0 1 0 0" class="B"/><path d="m536 378-4-1 1-2 1-2 9-10h1l4-4 1-2 6-6 9-8 3-3 2-2 2-2 5-5 2 2-18 22-1 1-3 4-4 3v1l-6 6-1 1-2 3h-1l-6 4z" class="I"/><path d="m529 74-23-8c-10-4-20-4-29 0-9 3-19 9-28 14l-4 2v-3a525 525 0 0 1 19-14c7 1 7 0 14-4 3-3 8-6 12-1l1 1c5 0 9-1 12 2l4-4c5 9 13 8 23 8l-5 3 4 4z" class="B"/><path d="m426 382-9 18c-9 13-12 27-11 41v50c-6-2-2-7-3-10s1-7 1-10v-52l5-10 13-21 4-6z" class="C"/><path d="m436 87-19 12-3 4 3 3 48 17 3 2-3 1a99 99 0 0 1-16-5l-10-3-5-1c-1-6-6-4-10-5l-12-4-3-7c0-3 0-5 3-4 6 2 8-3 12-6l4-5 2 2 5-1z" class="B"/><path d="m301 411 1 1 8 8a91 91 0 0 0 2 3l4 4v1l2 5-1 1-7-5-17-19-2-1-1-1-5-5-1-1-4-6v-4l6 3 5 6a225 225 0 0 0 8 8l2 2z" class="F"/><path d="M84 153h27c17 1 29-5 38-19v10l5-7-2-1 6-1-7 12-5-2c-1 6-7 6-12 7-16 6-32 3-48 4h-3l-1-2a23 23 0 0 1 2-1zm282-1h3l2 1 5 1c-3 3-11 5-14 3l-6-1h-61l-6-3 9-1 63 1 5-1z" class="B"/><path d="M165 215v-1l-2-4h4l5-1-3-4-9-14-1-2-2-3-4-4-3-6c-1-3 1-6 3-7l15-3h5l2-2 2 2-19 5c-7 2-7 3-3 9l30 42c-2 0-3-2-5-3l-11-8 2 10-2-1-4-5z" class="C"/><path d="m361 88-15-7-26-16c-6-4-14-3-21-1l-39 14h-3l2-2 3-1 8-4h1l3-1h1l6-3a14 14 0 0 0 2-1l3-1 6-2a19 19 0 0 0 2 0l10-3 9 1 10 2 6 4 4 3 2 2 12 7 1 1 4 2 1 1 4 2 2 1a31 31 0 0 1 2 2z" class="F"/><path d="m505 153-8-5c-7-4-15-6-23-9l9-4-12-9 40 15v3l-7-3-20-5c4 7 7 8 11 4 0 5 4 7 9 7l4 4-3 2z" class="B"/><path d="m441 333 5-11 38-69a8 8 0 0 1 2 2v3l-1 3-4 4v1l-4 5-2 4c-1 4-5 8-5 13l-3 3c-6 4-7 11-10 17l-6 9-10 16z" class="C"/><path d="m338 299 9 14 25 42 20 36-3-2-8-12-10-17-13-23-3-4v-2l-1-2-6-11-2-2-3-4-3-7a40 40 0 0 1-2-6z" class="D"/><path d="M334 354c2 2 3 4 3 7l-2-2-6 2 1 5 2 9-8-17-19-51c3 4 8 8 9 12l3 12c1 5 5 9 6 14l5 12 2 1 4-4zm128-38-11 23-24 43c-2-3-3-4 0-7s5-6 7-10l3-7 5-11 1-3c6-1 5-7 7-12 2 0 3 0 2-3 0-2 0-4 3-4 1 0 2-3 1-5 0-3 2-5 6-4z" class="C"/><path d="m451 64-51-2c2-2 3-5 5-5l24 1 4 1c4 1 7 2 8 0h10l3 3-3 2" class="B"/><path d="m394 316-2-19v-82l2 1a11 11 0 0 1 0 2l-1 3v50l1 2z" class="D"/><path d="m611 89-3-23 5 6 2-1c-2 6 2 6 6 6l2 16 4 10-3 1-4-3 2-6-4 2v-1l2-15-2-2-2 2v5c0 4-2 4-5 3z" class="B"/><path d="m715 180 6-8-6-2c-14-3-29-3-44 1-5 2-9 4-13 8l2-6 2-1c8-3 17-6 27-6h8a178 178 0 0 1 22 2l4 3-3 9h-5z" class="C"/><path d="M495 343v-3h1l3-1v-13h-1l2-7h3c2 3 0 7 5 8v4c-1 3-6 4-2 7v3l-1 1-1 3 1 3-1 2h-1l-3 1-3-3-2-5zm-49-188 12-1 45-1-4 2c-4 0-8-1-11 3h-2c-5-4-9-3-14 0-2 2-5 1-8 1l-18-4z" class="B"/><path d="m406 389 4-3 17-29 13-24-1 7c-3 4-3 10-8 13-2 2-1 6-2 9l-2 2-8 13c-4 4-4 11-10 14l-3-2z" class="C"/><path d="M255 79c-2 1-3 3-5 3l-20 9-24 10-7 2c-3 1-3 3-3 6l-1-6 2-2 10-4 5-2 3-1 15-7h1l5-2 3-1 3-1 4-1 4-2 5-1z" class="F"/><path d="m404 151 37 3-6 3-21 1h-2l-8-7zM299 353l-3-3-3-13v-4c2-2 3-4-1-6l-1-6h7l1 4c0 2-4 5 1 5v15l4-1v2l-2 2-3 5zm-4-28v2-2z" class="B"/><path d="m151 194-5-9c-5-13-16-16-28-18l-13-1c4-2 7-2 11-1 5 2 10 2 15 2l3 1 4 4a149 149 0 0 1 6 5 123 123 0 0 0 9 11l-1 5-1 1z" class="C"/><path d="M102 131a351 351 0 0 1 49-23c1 5-1 7-6 6l-7 3c-5 2-10 3-14 6-5 5-12 4-16 8h-6zm96-92 8-1h67l-13 3-11-1h-45l-6-1" class="B"/><path d="m237 136-30-19-7-5a282 282 0 0 1 30 16l15 11 11 7-7-1-2-2-7-5-3-2z" class="F"/><path d="M461 133a1081 1081 0 0 1-41-17l7 1c1 2 2 5 7 3 2-1 7 1 8 3 3 5 8 4 12 6l6 1 1 3z" class="B"/><path d="m151 147 7-12 4-6v-1l3-4 6-6 1-2c5-5 10-4 16 1v1c-11-5-11-5-19 5l-13 19-1 9v1l-4-5z" class="D"/><path d="M102 106c-11 9-18 20-26 31h-3l4-6c-2-3-1-6 3-7 5-2 8-5 7-9 5-3 9-6 11-12l4 3zm458 249 18-22 1-5h3l1 8-2 1-1-4-12 22-2-2-6 3v-1z" class="B"/><path d="m367 121-9 5-33 12-8 1 11-5h2l5-2 6-2 4-2a36 36 0 0 0 2 0l12-5h2l6-2z" class="I"/><path d="M233 291a681 681 0 0 1 22 31 55 55 0 0 0-3 1c-1-5-4-7-8-10l-3-3c2-6-3-8-5-12l-3-7z" class="C"/><path d="M503 350h1l-3 22-1 9h2l9-12-1 5-1 2-4 5v1l-4 2-3-2v-11l1-2 1-8 1-2 1-4v-2l1-3z" class="D"/><path d="m517 144 12 3c8 2 15 0 22-5l-8 9 2 1h-15v-1h6v-1h-15c-3-1-5-2-4-6zM371 360l10 17c-1 0-4-1-3 3h-4l-4-14 1-6m-146-60v-1l-2-2-6-9-2-2-1-3-1-4c4 0 3-5 5-6l2 2v4l-3 1c6 5 8 12 10 19a2 2 0 0 1-2 1z" class="B"/><path d="m296 135 10-5 40-15h3c-7 4-14 6-22 9l-7 3-9 3-7 3-8 2z" class="F"/><path d="m298 152-9 1-1-1 3-4 9-4 7-2 3-1 4-1c0 2-1 3-4 3-6 0-11 4-12 9" class="I"/><path d="m394 273-1-2v-50l1-2a962 962 0 0 1 0 54z" class="C"/><path d="M185 153h32c-1 3-1 8-6 2l-2 1h-16l-5 1a47 47 0 0 1-3-4zm483-59-33-16c3-2 6-2 9 1l4 1 2 3c1 1 3-1 4-1l3 2 3 3 8 7z" class="B"/><path d="m377 459 4 7 10 25 2-6 1 6v5l-1 1-5-8-1-2-1-3v-1l-2-4-2-5-5-15zM177 273l8 5 24 24v1l-3-1-2-3-3-2-2-3a99 99 0 0 0-10-8l-1 1v-3l-6-5-1-1-4-5z" class="F"/><path d="m318 283-10-14-4-4h-1l1 7c-5-2-3-5-2-8 0-2 7-1 11 2l-1 5 6 12" class="C"/><path d="m351 115 12-7 13-5-4-6h3l3 3v5h-1l-3 1-6 3z" class="F"/><path d="m391 191-1-13c-1-3-1-5-5-5l-21-3 3-1a52 52 0 0 1 10 1h5l6 1 3 1v4l1 4v11h-1z" class="D"/><path d="m351 115 17-6-8 5-5 3-6 1-21 7 22-10h1z" class="C"/><path d="m437 75 14-9c3 2 2 4-1 5l-4 5c-2 3-5 4-9-1zm-35 230 1 16c-4 0-4-3-4-5l1-34v18l2 5" class="B"/><path d="M345 449a558 558 0 0 1 11 18l-4-5c-5-3-7-7-7-13" class="C"/><path d="m211 305 16 15c4 3 7 7 9 11l-3-2a17 17 0 0 0-1-2l-5-4a126 126 0 0 1-4-4 66 66 0 0 0-3-3l-3-3-2-3-4-5z" class="F"/><path d="m427 479 7-21 5-11-8 24-2 8 3 3 1 2h-5l-1-5" class="C"/><path d="M708 155h1l5 5v1c-9-5-19-4-29-4l-4-1 26-1v1z" class="B"/><path d="m484 279-13 23 4-12 2-6 7-7v2z" class="C"/><path d="m111 209 13 12c-4 1-11-2-12-5l-2-2-1-5h2" class="B"/><path d="m395 444-3-4-6-28 4 5v2l1 3 1 2v3l2 6v2l1 6v3z" class="F"/><path d="m310 429 7 5 1-1-3-5c3-1 5 0 5 3l1 8h-6c2-6-3-5-7-7zM173 71l-19 9-1-4 2-3 5 1 11-5 2 2zm26 17h2l6-1-2 4-5 4-9-3v-2h5l3-2" class="B"/><path d="m678 216 22-23-8 11-3 3-7 8-4 1z" class="C"/><path d="M153 252a365 365 0 0 1 17 15l-1 1-7-3c-2-7-3-7-8-6zm453-133a23 23 0 0 1 0-2l5-3h12l2 7h-1c-7-7-7-7-15-3l-2 2-1-1zm-491 17-17 7 2-3c4-3 9-8 15-4" class="B"/><path d="m203 127 10 6 14 8a31 31 0 0 1 3 2v2l-27-18zm310 240a607 607 0 0 1 18-22l-5 5a12 12 0 0 1-1 2l-2 3-1 2a19 19 0 0 0-1 2l-3 3-3 5h-2z" class="D"/><path d="m148 83-21 10 1-2 13-9v1h7m405-20h-10l-1-1-1 2 1 3-3 1c0-2-2-5-1-7l6-1h6l3 3zM273 171h-3l-3 3 4 6v1a10 10 0 0 0-1 2c-5 1-4-4-5-7v-9l8 1v3z" class="B"/><path d="m352 345 4 1 3 3 3 9v5l-10-18" class="C"/><path d="m543 363-9 10-1 2h-2l-2-2c4-1 4-6 6-7 2-2 5-2 8-3" class="B"/><path d="m201 164-21 2v-3h16l5 1" class="C"/><path d="M390 116a257 257 0 0 1-17 6l-4-1 10-5 3-1 3-1 5 2" class="I"/><path d="m644 180 1-1h1l7 3-5 5c-5 0-4-3-4-5z" class="B"/><path d="m357 169-28-1a426 426 0 0 1 28 0v1" class="D"/><path d="M580 169h-11c-1-4 1-6 5-5l8 3-2 2z" class="B"/><path d="m370 366 4 14-1 1-4-5-2-2a37 37 0 0 1-1-3 81 81 0 0 0-1-4l5-1m-150-91-2-2-1-3v-2l16 22-2-1-2-2z" class="C"/><path d="M250 58h5v1h-53v-1h48z" class="B"/><path d="m305 304-9-22 6 8 3 14z" class="C"/><path d="M415 540c-3 2-5 4-9 5s-9 0-14-1l10-3c2 4 5 1 8 0l5-1zM353 61l-8 1 2 4-8-3c5-3 8-9 14-2z" class="B"/><path d="m391 146-2-2a382 382 0 0 1 1-19l1 1v3l1 14a22 22 0 0 1-1 3z" class="I"/><path d="M191 90v2h-3a20 20 0 0 1-2 0l-1-3 1-8 2-4 1-2-1 11c-1 3 0 4 3 4" class="D"/><path d="m89 136 12-5c1 3-1 4-3 3l-2 6c-2 1-4 0-4-3l-3-1zm633 7c3-5-1-8-3-12 3-1 6-4 10 0h-4v11l-3 1" class="B"/><path d="m352 345 10 18 1 3-3-2a352 352 0 0 1-10-19h2" class="F"/><path d="m105 205-2 1-10-9c-1-1-2-3 2-2h2l6 6 2 4zm53-99 12-7c1 7-6 11-12 7m126 63h-5l-4-1 2-4c3 0 7-2 10 3l-3 2zm113 169v51a1 1 0 0 1-1 0v-51h1" class="B"/><path d="M526 245a252 252 0 0 1-5 22l2-12v-2l1-5a84 84 0 0 1 2-3z" class="D"/><path d="M259 147a385 385 0 0 1 22-7v2h-3l-3 2-12 3h-4z" class="F"/><path d="M314 140h-4l1-2 12-5c2-1 3 0 5 1l-11 5-3 1z" class="C"/><path d="m255 78-4 2-5-8a7 7 0 0 1 1-2h1v1l3 3 3-2 5 4-2 2h-2zm95-10 11 8-5 3-1-5-2-1-3-5zm63 21 15-9c-1 4-4 7-8 7l-2 3-5-1zM117 74l15-7 4 1-13 5c-2 0-3 5-6 1z" class="B"/><path d="m379 116-10 5h-2l-5 1 2-6 1 3 14-3z" class="C"/><path d="M393 61zm314 55-16-9 5-1 5 3 4 4 2 3z" class="B"/><path d="m648 187 5-5 4-3c-3 6-7 12-12 17l3-9z" class="C"/><path d="m540 187-5 20v-6l1-4a38 38 0 0 0 1-4l1-5 2-1z" class="D"/><path d="m92 242-2-1-9-11 5 3 2-2z" class="B"/><path d="m444 467 12-18v4l-6 9-3 2-1 2-2 1z" class="C"/><path d="m150 134 4-11 4 4-1 1-4-1 4 5-7 2z" class="B"/><path d="m377 459 5 15-4-1-3-16 2 2zm-81-178-6-8-1-5h1c2 4 9 6 6 13" class="C"/><path d="m496 289-3-6 6-2 1 2-1 2-1 4h-2z" class="B"/><path d="m77 174 12 13h-4l-1-2-5-6z" class="C"/><path d="m526 239-2-4v-9l4 3-2 10z" class="B"/><path d="m606 285 13-14-5 8a108 108 0 0 0-3 3l-5 3" class="D"/><path d="m652 141 12 10c-5 2-11-4-12-10M56 205l-8-9 7-2-2 6h1l2 5zm320 325-8-8 8-1zm110-132v11l-4-2h-1v-2l1-2v-5h4zM149 121l-14 6 2-6 8-1 4 1" class="B"/><path d="m290 281 3 16-3-4-2-9c-1-1 1-2 2-3z" class="C"/><path d="m225 153 8-3-3-4v-1a7 7 0 0 1 2 0l4 5-1 2-2 1h-8" class="D"/><path d="M296 135a76 76 0 0 1 8-2v2l-5 2-11 2h-1v-1l3-1 4-1 2-1zm-73 32-19-2 2-1 3 1h8l6 2z" class="C"/><path d="m229 87-13 7v-4c5 0 8-5 13-3" class="B"/><path d="m536 379 6-5v3l-5 6-6 4zm-238-58h-2l-1-6-1-3v-4l1-1 3 14z" class="C"/><path d="m563 343-8 8c-3-2-1-5 0-6 2-2 5-2 8-2zM347 78l-12-6 8-1 4 7z" class="B"/><path d="m369 376 4 6 1 1 3 10-7-13-1-4" class="F"/><path d="m635 77-14-5 3-3 7 4 4 4z" class="B"/><path d="M341 329c-5-2-5-9-8-13l1-1h1l1 3 6 9-1 2z" class="F"/><path d="m153 188-4-5 4-1 4 4-4 2" class="B"/><path d="m390 417-4-5-1-2v-3l3 1 4 5zm-63 7a214 214 0 0 1 10 15c-4-5-9-8-10-15" class="C"/><path d="m201 124 2 3-14-8 12 5z" class="D"/><path d="m628 124 2-2 5 8 1 5h-1l-7-11z" class="B"/><path d="M214 83a267 267 0 0 1 19-7l-4 2-10 4a20 20 0 0 0-3 2l-2-1z" class="D"/><path d="m114 100-12 6c1-5 5-8 12-6m190-40-9 2-4-5 13 3m-149 93v-2l2 1 10 1a5 5 0 0 1 2 0l-3 4-7-2-4-2" class="B"/><path d="M612 169h-19a213 213 0 0 1 19 0" class="D"/><path d="m463 440 8-11 2 2v1a33 33 0 0 0-2 2l-1 1-2 3-5 2z" class="C"/><path d="m175 89 1-8c4 0 4 2 4 4 0 4-2 4-5 4" class="B"/><path d="M394 484v-16l1 15-1 1" class="F"/><path d="m38 185-6-5c2-1 4-3 6 0v5z" class="B"/><path d="m85 166-9 2v4l-2 1 1-7 10-1v1m574 68 10-10-2 5-2 2-3 3h-3zM317 400l6 15-5-5v-1l-1-9z" class="C"/><path d="m608 65-7-1c0-5 4-6 8-6l-2 1zM391 191h1l1 16-1 2zM189 75l-1 2c-3-6-3-9 2-12v8a8 8 0 0 1-1 2zM76 139a115 115 0 0 1 10-3l2 4-8 1-4-2" class="B"/><path d="m304 276 4 10-7-4 3-6" class="C"/><path d="m450 505-7 8h-2c0-7 1-8 9-8zm0-43 6-9c0 8 0 9-6 9m-151-54-7-6 4-3 3 9z" class="B"/><path d="M315 260h1l1 2 4 6 1 4c-4-2-8-8-7-12" class="C"/><path d="m772 183-1 2-9 7c-2-3 0-5 3-7l7-2zm-481-36-3 5-1-3-6-4 6-2z" class="B"/><path d="m376 154-4-1 13-2h3l-3 3z" class="C"/><path d="M396 329v-32h1v32a1 1 0 0 1-1 0m240-194 4-1v4l1 5h-1l-5-7 1-1zM323 63l-10-2 5-3 5 5zm396 105-10-2 7-2 3 4zM286 395l-6-3v3l-4-1 2-3c2-2 7 0 8 4z" class="B"/><path d="M459 369h-2l5-14 1 2v2l-4 10z" class="C"/><path d="m511 278 2 11c1 0 0 0 0 0l-3-2-2-3 1-6h2z" class="B"/><path d="m373 481-5-16 3 5 3 6-1 5z" class="C"/><path d="m640 251 10-10a92 92 0 0 1-9 10h-1z" class="D"/><path d="m299 137 5-2c0 5 4 2 7 3l-1 2-3 1h-2zm192 150v6l2 1-7 1v-2l1-6a4 4 0 0 1 1 0h3z" class="B"/><path d="m326 299-6-10h4z" class="C"/><path d="M639 251h2c0 5-2 7-6 8a19 19 0 0 1 0-3l4-5zm-406 79 3 1 1 1 3 2 1 3c-6 0-8-2-8-7zm376 15-6 7c-2-4 0-6 6-7" class="B"/><path d="m306 353 4 14h-2l-1-2-1-6-2-2 1-4h1z" class="C"/><path d="m408 500 1 3c-7 2-8 0-7-6h3v5l1-2zM220 375l-3-3-1-2c7 0 9 1 9 8l-5-3" class="B"/><path d="m526 239 2-9 1-1h1l-3 14-1-4" class="D"/><path d="m85 165-10 1c1-6 5-3 8-4l2 3m57 75 9 8c-5 1-8-2-9-8" class="B"/><path d="m372 97-11-8h3v1l4 2 1 1 3 4z" class="F"/><path d="m542 68 6 3-3 5-3-8zM177 273l4 5c-4-1-8-1-9-7h1a109 109 0 0 0 3 1l1 1zm360 110 5-6 1 4-6 2zm-227 36-8-7c8 0 8 0 8 7M186 81l-1 8-3-4 4-4m215 280 3 5-5-1v-18h1l1 14z" class="B"/><path d="m486 294-1 1-2 6h-1a266 266 0 0 1 4-8z" class="F"/><path d="m388 489 5 8v2c-6-1-7-3-5-10z" class="C"/><path d="m511 397-3 2h-3c0-3 0-7 6-5v3zm-198-15 1 5v6l-3-3v-8h2m243-22 3-4h1l4 4c-2 1-5 4-8 0" class="B"/><path d="M334 291v1l1 5c-4-2-5-6-5-11l2 3a8 8 0 0 0 2 2zm33 188 6 3 3 3c-8 0-8 0-9-6zm10-86a116 116 0 0 1-3-10l7 9-2 2h-1l-1-1z" class="C"/><path d="M369 81c3 2 6 3 8 6l-3 3-3-6-2-3z" class="B"/><path d="m245 327-5-8v-1c3 1 7 5 6 9a5 5 0 0 0-1 0z" class="C"/><path d="m132 230 9 9c-5 0-7-5-9-9" class="B"/><path d="m392 143-1-14c4 4 2 9 1 14" class="C"/><path d="m519 403 2 6-7-2 1-2 2-2h2zM399 95l12-5c-1 3-6 6-12 5M229 78l4-2 5 4-9 1z" class="B"/><path d="m311 167-14 1v-1h14z" class="D"/><path d="m349 343-2-1-4-10 4 4 2 5v2z" class="F"/><path d="m359 123-11 5c2-4 6-6 11-5" class="C"/><path d="m249 145 7 2h1l-7 5-1-7zm-42 214-6-5h4c5 0 4 2 2 5m99-7-1 1-3 3-3 3v-6l4-3 3 1v1z" class="B"/><path d="m305 240 6 11h-1l-4-7-1-4z" class="E"/><path d="M211 305a57 57 0 0 1 4 5c-4 2-6 1-6-3 0-2-2-3-3-5l3 1z" class="B"/><path d="m347 336-4-5-1-2v-2h3l2 9z" class="C"/><path d="M74 173h3l2 6-3 3zm422 240-4 4-1-7h5v3z" class="B"/><path d="m311 297 5 10h-3l-2-10z" class="C"/><path d="m259 345 5 5-1 3h-3l-1-6v-2zM710 92l6 3-2 4-5-5 1-2zm-405 74-2 1c0-6 1-6 10-4l-8 3m383-62c-2 0-5-1-7-3v-2l7 2zm-23 49 10 2-2 4zM493 302l-1 6h-1l-4-6 2-1 3 1h1z" class="B"/><path d="m392 209 1-1a43 43 0 0 1 2 7h-3v-6z" class="C"/><path d="m42 190-4-4c4 0 8-1 10 4h-6" class="B"/><path d="M248 71v-1l12-6-3 3-2 1-7 3z" class="D"/><path d="m379 105-1-5 3-3c3 5 2 7-2 8m-154 49 8-1-6 6zm156 381-4-2-1-2 4-1 3 2-2 3M281 388l-2-1 3-2a13 13 0 0 1 6 4z" class="B"/><path d="M313 382h-2v-2l-2-8 1-3 3 13z" class="C"/><path d="m695 83 8 5c-4 1-7 1-8-5M53 119l4-3 5 2c-3 2-5 3-9 1m244 48v1h-7l-1-1c1-4 5-1 8-2v2zm-45 156 3-1 3 6c-4 1-6 0-6-5z" class="B"/><path d="m281 199 5 10h-2l-3-10z" class="D"/><path d="M583 310c1 3 1 6-2 9l-2-5 1-3 3-1zm80-245 6 4h-5l-1-4zM174 327l-4-5c6-1 7-1 6 5h-2zM305 39h8c-2 4-5 3-8 0m53 1h10v1h-22v-1zm131-1 8-1c-2 5-5 3-8 1m-16 98c-4 0-7-1-11-3 4-2 7 1 11 3" class="B"/><path d="m486 325-5 12v-2l2-5 3-5z" class="E"/><path d="m402 139 2 10-3-2 1-8zm-93 233 2 8c-4-1-5-4-2-8" class="B"/><path d="m311 131 9-4c-2 4-5 5-9 4" class="C"/><path d="M374 476a19 19 0 0 1-2-6l6 3-4 3zm158-52-4 4 3-10h1zM261 202l-2-9c6 1 2 5 2 9" class="B"/><path d="m506 266-1-3c3-1 6-2 5 3z" class="C"/><path d="m284 403 6 5h-8l2-5m101-249 3-2 3-1c2 7-3 3-6 3" class="B"/><path d="m477 350-1 1h-2l5-10v1a16 16 0 0 1-1 2l-1 6z" class="C"/><path d="m378 395 1-1 1 2 2 5 1 4-5-10" class="F"/><path d="m509 278-1 6h-1l2-12 1 1v3l-1 2" class="E"/><path d="M486 398h-3v-5l1-2c5 1 2 4 2 7z" class="C"/><path d="m259 347 1 6h-3v-1l-2-2v-1l2-3 2 1" class="F"/><path d="m342 327-5-8 4 2 1 6z" class="C"/><path d="m436 478 2-4h3l-3 5-2 1v-2zm292-253-5 6c-1-3 0-5 5-6" class="B"/><path d="M314 393v-6l3 10h-3zM105 205a19 19 0 0 1-2-4l8 8h-2l-4-4m352 244 5-8-1 6-2 2z" class="C"/><path d="m191 343-6-6c4 0 6 1 6 6m334 88-2 3a15 15 0 0 1-3 3l-2-4 7-2zm-97 53h5l-4 4-1-4m41 3-5 5-2-1 7-4zM269 71l-6 4-1-5z" class="B"/><path d="m583 309-3 2 6-7 1 2-2 2zm-41-133-2 9-1-1 2-8h1" class="D"/><path d="M481 432v3l3 2-3 2-2-3 2-4z" class="C"/><path d="m240 139 6 3c-3 2-6 2-6-3" class="B"/><path d="m190 73 1-8 2-3-3 11z" class="D"/><path d="m319 316 5 10c-5-2-3-6-5-10m43 157 5 5c-5 2-6 1-5-5" class="C"/><path d="m490 365 1-8 1 4-1 3-1 1z" class="F"/><path d="m473 431-1-2 1-2 3-1c4 4-1 3-3 5z" class="B"/><path d="m710 185 5-5c0 3 0 6-5 5" class="C"/><path d="m525 382-2 1c-4-1-1-4 0-6l3 2-1 3m1-32 4-5c0 2 4 7-4 5" class="B"/><path d="m473 424 5-10-3 10h-2z" class="F"/><path d="M357 169v-1l6-1h4v1l-3 1h-7z" class="C"/><path d="m279 396 6 6c-5 1-7-1-6-6" class="B"/><path d="m553 337 6-7 1 1-2 3-3 3h-2z" class="E"/><path d="m517 289-1 5-3-5h4z" class="D"/><path d="m305 240 1 3c-5 1-4-3-5-6h1l3 2v1z" class="C"/><path d="M484 279v-2l2-4 1-3 2-1-5 10z" class="F"/><path d="M482 301h1c0 3 1 7-3 8v-1l2-7z" class="C"/><path d="m342 327-1-6c4 0 4 2 4 6h-3zm137 109 2 3-4 1c-1-2-2-4 2-4m208-170-5 5c-2-5 2-5 5-5M216 369l-4-4c3-2 6-1 4 4m460-149 2 4h-6l1-4zM509 376l1-2c3 2 3 5 1 8z" class="B"/><path d="m325 278 3 4v2c-5 0-4-3-3-6z" class="C"/><path d="m703 250-4 4-2-4zM125 94l-8 4c1-4 4-4 8-4" class="B"/><path d="m487 380 1-4c1 3 2 6-1 9l-1-3 1-2z" class="C"/><path d="m182 279 5 4c-4 3-6 1-5-4" class="B"/><path d="m505 415 7-8-5 8h-2zm-178-79 4 8c-4-2-4-4-4-8m68 105-1-6c4 1 5 3 1 6m-136-94-2-1-2-4 1-4 3 7v2zm237 66v-3l1-3h4l-5 6z" class="C"/><path d="m443 82-5 5c1-3 0-8 5-5m-290 26 3-1 2 3c-2 0-4 5-5-2zm214 413-3-3 4-3-1 6z" class="B"/><path d="m394 484 1-1 1 2v6h-2v-7zm105-63 5-6h1v2l-1 3-5 2v-1z" class="C"/><path d="m236 85-5 2 3-5 2 3m137 12a30 30 0 0 1-4-4c2-2 3-1 6 4h-2m30 243v4c-2 0-4 0-4-3l4-1z" class="B"/><path d="m391 126-1-1v-5c5 1 3 4 1 6" class="C"/><path d="m250 330 4 5h-3l-2-5zm10 2 2 2-3 2-3-6 4 2zm509-191 2 3h-7l-1-1 4-2h2M238 393v-2l1-4 1-1 1 8-3-1M212 95l-5 2 1-5 4 3z" class="B"/><path d="m500 287-4 10v-2a13 13 0 0 0 1-2v-2l1-2 2-2z" class="E"/><path d="M393 499v-2l1-1 3 1c-1 4-1 4-4 2" class="B"/><path d="m569 323 5-7-5 7" class="D"/><path d="m465 311-2 5-3-4zm8 14a11 11 0 0 1 0-2l2-1v4l-2 4-2 2 2-7zm13 0a42 42 0 0 1-3 5l-1-7h3a6 6 0 0 0 1 1z" class="C"/><path d="m542 413-3 5-2-6zm49-113 7 2c-3 2-6 3-7-2zm187-128-2 5c-3-3-2-4 2-5M155 305l-5-5c3 0 6 0 5 5" class="B"/><path d="m293 299 2 6-5-2z" class="C"/><path d="m438 516-5 5c0-3-1-7 5-5M59 114l3-4 3 4h-6z" class="B"/><path d="M492 275a9 9 0 0 1 0-2l2-1c2 3-1 5-3 7v-1l1-3z" class="C"/><path d="m207 87-6 1 8-3-2 2" class="D"/><path d="m518 438-3 3-2-5 5 2z" class="B"/><path d="m623 268 5-5-3 4-2 1zm-58-98-8 1 4-1h4z" class="D"/><path d="M367 167h-4c0-4 3-3 5-3zm-193-10h-4v-1h14v1zm523 9h-8c2-4 5-2 8 0" class="B"/><path d="M441 474h-3l4-6h1v3l-2 3zm261-282 5-5c0 3-1 5-5 5" class="C"/><path d="m168 65-6 4-1-1 7-3zm111-26 8-1-8 1m13 24-6 2c1-3 2-5 6-2m269 95 3 3-1 1-5-2z" class="B"/><path d="M335 315h-1l-2-5c3 0 5 1 3 5zm188 80 4-4c3 2-1 3-2 5l-2-1" class="C"/><path d="m472 325-1 7-1 3h-1l3-10z" class="F"/><path d="m528 175-3-3 1-3 2 6m-54 145 2-2h2c2 2 2 2-2 4h-1l-1-2zm17-73 3-6-3 6m40 98v-4l4 1-4 3zm-407-71-2-1-1-3 3-1zm297 260-3 3v-6l3 3z" class="B"/><path d="m580 311-1 3a14 14 0 0 1-4 2l5-5z" class="D"/><path d="m460 495-1 2-2-5 2-1z" class="B"/><path d="m534 210-1 7 1-7" class="D"/><path d="m508 447-5 6a36 36 0 0 1 5-6M338 68l-4-1v-1l4-1v3zm40 20 6 2-6 2z" class="B"/><path d="m277 192 4 7-4-7" class="D"/><path d="m747 123 4 3-4 3z" class="B"/><path d="m495 343 2 5h-3l1-5" class="C"/><path d="M360 513c-2 0-3-1-4-3l5-2zm-58-102-3-2 4-2h1z" class="B"/><path d="M300 232a6 6 0 0 0 1 1v4h-3v-6h1l1 1z" class="C"/><path d="m275 168 4 1-6 2v-2l2-1z" class="D"/><path d="m256 410-3-4 4-2z" class="B"/><path d="m507 269-1 2a10 10 0 0 0-1 2l-2 2c1-2 1-5 3-7l1 1z" class="C"/><path d="m124 222 1 1-1 5c-3-1-2-3 0-6zm280 153h1l1 5h-1c-6 0-2-3-1-5" class="B"/><path d="M526 382v-2l4-3-4 5z" class="E"/><path d="m638 316-5 5c1-2-1-7 5-5m-511-91 4 4-3 1-1-5" class="B"/><path d="m236 314-1-1-2-4c3 0 4 2 3 5" class="C"/><path d="m169 47 7-3-7 3m323 214-3-3 1-1 3 3-1 1zM173 96l1-6c3 2 3 2-1 6" class="B"/><path d="M405 380h1v7l-1-7" class="C"/><path d="m108 258-5-5c3 0 5 1 5 5m535-135a51 51 0 0 1 2 5l-3-1 1-4m-376 65-3 3-1-2 4-1" class="B"/><path d="m89 187 5 5h-2l-3-2v-1z" class="C"/><path d="m551 334 2 3-2 2-2-3v-2h2z" class="E"/><path d="M305 141h1c-1 2-3 2-6 3v-3h5z" class="C"/><path d="m30 179-2-3 3-2 1 1z" class="B"/><path d="M579 328a13 13 0 0 1-1 5l-2-2s-1 0 0 0l2-3h1" class="E"/><path d="M228 304v-2c3 0 4 1 4 5h-1l-3-3zm261-35-1 1-1-1v-4l4-2v2l-2 3v1z" class="C"/><path d="m734 220-3 3-2-6zm-21-99-5-4c2 0 5-1 5 4" class="B"/><path d="M569 169h5l-7 2 2-2z" class="D"/><path d="m499 422 5-2-2 3-3-1" class="B"/><path d="m394 433-2-6c4 1 3 3 2 6" class="C"/><path d="m591 364-4 3-1-4zM411 115l-7-1 6-1 1 2z" class="B"/><path d="m418 474 1 5-3 1 2-6" class="C"/><path d="m499 231 3-4v4h-3z" class="B"/><path d="M383 401c-2-1-2-3-3-5 2 1 5 1 3 5" class="C"/><path d="m522 395 3 1 1 5-4-2v-4z" class="B"/><path d="m470 303-3 7a34 34 0 0 1 3-7" class="C"/><path d="M271 183v-2l2 4h-2z" class="D"/><path d="m569 338-2 2v-5l2 1v2z" class="B"/><path d="m335 297-1-5 4 6-3-1z" class="D"/><path d="m194 290 4 4c-1-1-6 2-4-4" class="B"/><path d="m599 292 3-4c3 3-1 3-3 4" class="D"/><path d="M546 371v-1l5 2-5 2v-3m204-167-4 4c-1-3-1-5 4-4" class="B"/><path d="m532 219-1 6 1-6" class="D"/><path d="M364 89h-3a19 19 0 0 1-2-3c2 0 5-2 5 3" class="B"/><path d="M521 269v4l-2 1v-4zm155-49h-3l4-4h1l1 2z" class="C"/><path d="m60 210-2-1-2-4c3 0 4 1 4 5m629-3 3-3 5 1zm-570-73-2 2v-6h1zm143-70v-1c4-1 3 1 2 4l-2-3zm-35 259 5 4c-4 2-5-1-5-4" class="B"/><path d="m317 310 2 5c-3 0-3-2-2-5" class="C"/><path d="m346 316 2 2-7 1 3-3h2zm-100 83-3-3 2-2zm221-24a16 16 0 0 1-1 1l-1 2h-1c-1-2-2-4 2-4a2 2 0 0 1 1 1zM651 56l4 3-5 1zM316 427l-4-4c4-1 4 1 4 4M204 300l2 1-4 4zm354 34 2-3 4-2c0 4-3 4-6 5zm73-289 5 2c-2 1-4 2-5-2M521 359l1-2h4v2zm45-20-2 4-2-5z" class="B"/><path d="M491 287h-3l1-3 1-1 1 4z" class="C"/><path d="m649 147 2 3-1 1-1-4M443 471v-2l4 1v1h-4zM682 76l2 1v3l-1 1zm-544 96-4-4 6 1-2 3m250-1-6-1a19 19 0 0 1 6 1m271 63 3 1a8 8 0 0 1-4 3v-4h1z" class="B"/><path d="M281 142v-2l3-1h3l-6 3zm16 85 1 3c-2 1-3 0-3-3h2z" class="C"/><path d="m197 101-2 2-1-3 3 1zm167 381c2 3 0 4-4 4l4-4" class="B"/><path d="M271 185h2l1 2v3l-1-1-3-2 1-2zm124 259v-1l1 6-1-5" class="C"/><path d="m357 85-4-2v-2l4 4" class="B"/><path d="m673 220-1 4h-3l4-4" class="C"/><path d="m141 245-3-2 1-2 2 4m218 104-3-3c3-2 3 0 3 3" class="B"/><path d="m548 359-4 4 3-4h1" class="E"/><path d="m632 261 1 3-3-1 2-2M499 407h-2l2-6 1 1z" class="B"/><path d="m633 171-3-1-1-1 4 1z" class="C"/><path d="M548 359h-1l-1-6 3 4-1 2M75 225l-2-2 2-1v3zm477 140v-1l4 2-1 1-3-2" class="B"/><path d="M297 227h-2l-1-5 3 5z" class="D"/><path d="m349 341-2-4c4-2 2 2 2 4" class="C"/><path d="m502 227 2-5c0 2 3 4-2 5m145-92 4 4c-4 0-4-1-4-4m70-34 4 1-1 2-3-3" class="B"/><path d="m503 350-1 3a4 4 0 0 1-2-1v-1l3-1M335 132l-5 2 5-2" class="C"/><path d="m689 80 6 3-6-3M89 147l-5 3c0-4 3-3 5-3m27-49-1 2-2-5 1-1z" class="B"/><path d="m548 316 1 2-1 1-1 2h-2l3-5z" class="G"/><path d="m322 475-5-3c3-2 5 0 5 3m146-37 2-3v5l-1 1-1-3z" class="B"/><path d="M310 251h1l2 3v2l-3-5z" class="C"/><path d="M475 351h1l-2 7-1-1 1-3z" class="E"/><path d="m100 249-3-2c1-1 4-2 3 2m291 255h-3l1-2 2 2zM188 40l5-1-5 1m435 228h2v5l-3-4 1-1z" class="B"/><path d="m564 329-4 2v-1l4-3v2z" class="D"/><path d="m342 497-1-2c2 0 4-1 4 3l-3-1zm-90-92-4-4c2 0 4 0 4 4" class="B"/><path d="m494 271-2 2 2-6v4" class="F"/><path d="M505 399h3l-2 3-1-3zm-159-83h-2l-1-4 3 4" class="C"/><path d="M603 39h4l2 3z" class="B"/><path d="m332 347 1 3-4-2 3-1z" class="C"/><path d="m294 447-2-2 4-1 1 1-3 2zm179-117 2-4 1 4h-3m-41 191-2 3-2-3z" class="B"/><path d="M408 500h-2l-1-1v-2a2 2 0 0 1 1-1l2 1v3" class="C"/><path d="m268 344 1 5h-2l1-5zm-38 39-4-4c2 0 4 0 4 4" class="B"/><path d="m503 276 2-3a20 20 0 0 1-2 6v-3z" class="E"/><path d="m632 261-2 1-2 1 3-4 1 2" class="D"/><path d="m628 43 2 1-4 2-1-1z" class="B"/><path d="m490 312-1 6-1-2a13 13 0 0 0 1-2l1-2z" class="E"/><path d="M489 374v-5h1l1 5h-2" class="C"/><path d="m519 281-1 5-1-2 1-3h1" class="D"/><path d="M658 234v4h-4z" class="C"/><path d="m231 308 1-1 1 2 1 3-3-4zm134 59a13 13 0 0 1 1 4l-3-4h2" class="F"/><path d="M601 356h-2l-2-1 4-1v2zm-246-23 3 4a15 15 0 0 1-3-4M673 97l-3-1 3-4zm-305-5-4-2 5-1zm243 190 3-3 2 3zm-124-17v4l-3-1 3-3" class="B"/><path d="m383 480 3 3c-4 1-4 0-3-3" class="C"/><path d="m507 269-1-1v-1l4-1v2l-3 1z" class="E"/><path d="m153 76-5-1 1-2 4 3zm200 430-3-2 2-2 1 4zm157-297 2-3 3 3h-5z" class="B"/><path d="m500 283-1-2 3-1v2l-2 1z" class="C"/><path d="m500 352 2 1v2c-2 0-5 1-2-3z" class="B"/><path d="m287 210 3 5-3-3v-2z" class="D"/><path d="m97 143-4 3 4-3m250 183 3 3-1 1-2-4zM236 152v-2l4-1 1 1zm-88 0-1-3 1-1 1 4s0 1 0 0h-1zm424 177a9 9 0 0 1-4 0 9 9 0 0 1 4 0M25 152l1-4 2 1-3 3zm128-72-4 2 4-2" class="B"/><path d="m324 329 3 5-3-5m72 0h1v9h-1v-9z" class="C"/><path d="M239 318v1l-3-3 3 2" class="F"/><path d="m518 199 1-4-1 4" class="B"/><path d="M478 318h-2v-2l2-3v5z" class="C"/><path d="m315 468-2-1 2-2v3zm79 23h2l1 3h-3v-3zm-84-28-3-1 5-2zm-48-123h-3v-1l3 1zm237 117-3 3c-2-2 0-3 3-3" class="B"/><path d="m345 128-4 2a10 10 0 0 1 4-2" class="C"/><path d="m134 127-5 3 5-3m350 293-1 3-1-1 2-2m-172-6 1-3 1 1-1 3h-1v-1m-50 1-2-1 6-2-4 3z" class="B"/><path d="m247 70-1 1-2 1-1-1 4-1" class="D"/><path d="m392 538 8-1v1h-8M282 436l-4-4 4 4m46-376-2 1-1-1 3-2v2m378 29 3 2c-1-1-4 4-3-2M510 276v-3h3l-2 3h-1zM387 93l5 2-5-2" class="B"/><path d="M491 265v-2l1-1h3v2l-4 1z" class="F"/><path d="m119 92-3-1 1-1 3 1v1h-1" class="B"/><path d="m322 272-1-4 3 5-2-1" class="E"/><path d="m290 215 3 4h-2l-1-1v-3z" class="D"/><path d="m429 524-2 5h-1l3-5m118-352a5 5 0 0 1-2 1l2-3v2" class="B"/><path d="M633 171v-1l4 1h-4z" class="G"/><path d="m446 466 1-2 2 3-3-1z" class="B"/><path d="m377 170-4-1 4 1" class="C"/><path d="M160 264h-3l1-1 2 1m541-122-1-2h2l-1 2" class="B"/><path d="M629 169v1a12 12 0 0 1-4 0l4-1" class="D"/><path d="m522 385-2 3 2-3" class="E"/><path d="m495 460-2 3 2-3m4-91-1 2-2-2v-1zm163-197-2 1-1-2 3 1z" class="B"/><path d="m553 171-4 1v-1z" class="D"/><path d="m653 300-3 3c-2-3 1-3 3-3M174 99l2 3-1 1-1-4z" class="B"/><path d="m472 362-2 5 2-5" class="E"/><path d="m392 180-1-4 1 4m123 89 1-2 1 1-2 1z" class="B"/><path d="m539 184 1 1v2h-2l1-3z" class="C"/><path d="m84 185 1 2-1 2v-4m289-24-1-2h2l-1 2m-115-10h2l-2 2v-2" class="B"/><path d="m473 425 2-1 1 2-3 1v-2" class="C"/><path d="m496 375-2 1v-2l2 1" class="B"/><path d="m450 332-2-4h2v4z" class="C"/><path d="m542 326 3-4v2l-3 2" class="G"/><path d="M396 489v-4c3 1 3 2 0 4m149-165v-3h2l-2 3z" class="B"/><path d="m545 371 1 3h-3l2-3" class="C"/><path d="M518 389a12 12 0 0 1-3 4v-2l2-2h1" class="E"/><path d="M232 145h-2v-1l1-2zm485 91-1 1-3-1 2-2 2 2zm-458-88 4-1-4 1m-84 16-2 2v-4l2 2m339-1 2-1v2l-2-1" class="B"/><path d="m634 256 1 2-3 1 2-3" class="D"/><path d="m551 331 3-2-2 4-1-2" class="E"/><path d="m110 260-1-1 2-2-1 3m187-95 3-2 1 1zm46-94 3-3 1 1-4 2zm90 7 2-2 1 4zm157 233h2v2l-2-2M243 78l2-2 1 1-3 1" class="B"/><path d="m275 190-1-3 2 3h-1z" class="D"/><path d="M287 210v2l-3-3h2l1 1zm-38 135 3 1v2l-3-3" class="C"/><path d="m90 198 2 2-1 1-1-3z" class="B"/><path d="m339 441 3 3-3-3" class="C"/><path d="m679 218-1-2 4-1-3 3" class="B"/><path d="M535 201v2h-3l-1-1 4-1zm-139 85v-4h1v6h-1z" class="C"/><path d="M688 215v-5h1v6l-1-1zM463 359v-2l3 1-3 1zm-172 85-2-1 2-2h1l-1 3zm184-93-1 3v-3h1zM332 40h4v1h-6l2-1zm293 28 3-2 1 1-4 1z" class="B"/><path d="M257 353h4c-1 3-2 3-4 0z" class="C"/><path d="m549 341-2 2-1-1 3-1zM45 126l3-3c-1 1 1 5-3 3m710 4 1 1-1 3-1-1 1-3zm-98-46 3-2 1 1-4 1zM172 271l-3-3h1l3 2-1 1zm227 109v-1l1-1v6h-1zm226-259a15 15 0 0 1 3 3h-1l-2-3z" class="B"/><path d="m525 245-1 2c-1-1-2-3 1-2m-217 42 2 4-2-4" class="C"/><path d="m229 287 2 2c-1-1-4 2-2-2" class="B"/><path d="M522 396v3h-2l2-3z" class="C"/><path d="M209 164h-3l1-2 2 2" class="B"/><path d="M385 407v3l-2-4 2 1" class="F"/><path d="m116 265-3-3 3 3" class="B"/><path d="m478 313-2 3 1-5 1 2" class="F"/><path d="m458 497-2 4 2-4M68 217l-3-3 3 3m455 209 1 2-1 1v-3zm188-311v-2l2 1-2 1M201 353c-2 0-2-1-3-2 2-1 3-1 3 2m142 139-2-1 1-1 1 2zm162-110v-1l3 2-1 1-2-2zm-16-7 2-1 1 2-1 1zm110-78 1-2h1l-1 3h-1v-1m-387 67-4-2a9 9 0 0 1 4 2" class="B"/><path d="M394 494h3v3l-3-1v-2z" class="C"/><path d="m596 295 3-3-2 3h-1z" class="D"/><path d="m409 496 2-4-2 4" class="C"/><path d="m286 439-4-2 4 2M178 280l-2 1v-2z" class="B"/><path d="M272 227v4h-1v-5a5 5 0 0 1 1 1" class="C"/><path d="m94 244 2-3 1 1-3 2" class="B"/><path d="m487 270-1 3c-3-1-1-2 1-3m-14 87v1l-1 3-1-1v-1l2-2z" class="C"/><path d="M644 172v-3l2 3h-2" class="B"/><path d="M251 335h3l-1 3-2-2v-1z" class="C"/><path d="m134 85-1-1 1-1v2" class="B"/><path d="M390 120v1l-1-3 1 2" class="I"/><path d="M452 505h-2l3-3-1 3z" class="B"/><path d="m385 114-3 1 3-1" class="C"/><path d="m523 355 2-3-2 3m57 19-1-2 1-1v3" class="B"/><path d="M492 355v-3 3" class="F"/><path d="m172 116-1 2-2-1 3-1m14-24h2l-1 3-1-3zm60 235 3 2v1h-1l-2-3zm365 16-2 2 2-2m-118 21 2 2-1 1-1-3" class="B"/><path d="M469 335h1l-1 3v-3z" class="C"/><path d="M596 358a1 1 0 0 1 0 1h-3l1-2 2 1M73 101l2-2a5 5 0 0 1-2 2m190 259h-2l1-1 1 1zm34 22-2 2-1-1 3-1zm203-23v2l-2-1 2-1zm18 3 3-3-3 3" class="B"/><path d="M492 364v-3l1 3z" class="C"/><path d="M235 388h-2l-1-2 3 2m263-5 3 1-3-1M125 132l-3 2c0-1 1-2 3-2m460 237-2 3 2-3m-30-32 2-3-2 3m162-212-2-1 2 1M242 83l-3 1 3-1m43-24 2 1-1 1-1-2m228 308h2l-3 2 1-2zm-212 5-1-3 1 3m322-40-3 3 3-3M171 99l1-2 2 2h-3z" class="B"/><path d="M289 167v1l-2 1v-2h2z" class="D"/><path d="M300 141v2l-3-1 3-1" class="B"/><path d="m469 369-1 2-1-1 2-1" class="C"/><path d="m191 95-1 2-1-1 2-1m450 48 2 3h-1l-1-3zm-404 1 1 1-1 1v-2" class="B"/><path d="M642 172h-3 3" class="G"/><path d="m627 270 2-1v2l-2-1zm-31 25h1l-2 3a4 4 0 0 1 0-2l1-1m-70-114 2-2-2 2M159 302l1-1 1 1h-2zm346 115v-2h2l1 2z" class="B"/><path d="M494 302h-2l2-2v2" class="C"/><path d="m151 296 1-2 1 1-2 1zM333 69l-4-2 4 2M26 172l2-2 1 1-3 1M454 62l2 2-1 1-1-3zM322 421l-1-3h1l1 3h-1" class="B"/><path d="M390 419v-1h2l-2 1zm174-250-3 1 3-1" class="C"/><path d="M617 41h2l-1 3-1-3z" class="B"/><path d="m518 281-1 3v-3" class="C"/><path d="m65 206-2-1 1-1 1 2M612 66h2l-1 1-1-1M226 286l-1 2h-1l2-2zm395-10h2l-1 1-1-1M242 72h2l-3 1 1-1" class="B"/><path d="M549 171v1h-2v-2l2 1z" class="C"/><path d="m290 409 3 1-3-1m28 0v1l-1 2-1-1 2-2z" class="B"/><path d="M519 274h1v3l-1-3z" class="D"/><path d="M479 411v-2h2l-2 2z" class="F"/><path d="m260 413-3-3a11 11 0 0 1 3 3" class="B"/><path d="m485 435 2-3-2 3" class="E"/><path d="m686 215-1 1-1-1h2z" class="B"/><path d="M536 193v3-3" class="C"/><path d="m111 254 1-2 1 1-2 1m106-89h-2l1-3 1 3zm402-4v2l-1-1 1-1m57-1 1 1-1 1v-2m-190 95-1-2h3l-2 2zm37-2v2l-2-2a9 9 0 0 1 2 0zm131-15h1l-1 3-1-2 1-1m-533 26h-2l1-1 1 1zM249 79c0 1-1 2-3 2l3-2m103 3-4-2 4 2m-55 312-2 1v-2l2 1m279-71v2l-1-1 1-1m68-267-2-1 1-1 1 2z" class="B"/><path d="M385 484c1 0 2 1 2 3l-2-3" class="C"/><path d="m325 428-1 2-1-1 2-1M220 316l3 3-3-3M147 78l-1 2-1-1 2-1m-10 86-2 1v-2l2 1z" class="B"/><path d="M495 262h-3v-1l1-1 2 2" class="C"/><path d="m217 313 3 3-3-3m311 84 1 3h-1zm-64-45v-1l3 1h-3zm-157 13 1 2-3-1 2-1zm77-274 3 2-3-2m-53 347v-1h1l-1 1" class="B"/><path d="M484 437a6 6 0 0 1-3-2h3v2m46-61 2-1v2h-1l-1-1z" class="E"/><path d="m255 351 2 1-2-1" class="C"/><path d="M272 152h-3v-1l3 1m3-83v1l-2-3h1l1 2zM129 272v1h-2l2-1m392-3-2 1 1-3 1 1v1z" class="B"/><path d="m485 426-1 2 1-2" class="C"/><path d="M471 359v1h-3l3-1zm-212 0-1 1-1-1h2m252 55v-2l2 1-2 1zM369 89l1-3 1 1-2 2zm170-21-1 2h-1l2-2zm92 45h-2v-1h3v1h-1" class="B"/><path d="M313 256v-2l2 3-2-1" class="E"/><path d="m363 516-3-2 3 2m55 21-2 3 2-3m-80-45-3-2 3 2M89 190l3 2-3-2M674 80h3v1l-3-1" class="B"/><path d="m247 342 2 2-2-2" class="C"/><path d="m232 385-2-2 2 2M28 149l1-2h1l-2 2zm431 300 2-2-2 2M270 187l3 2-3-2" class="B"/><path d="M519 403h-2l2-3v3" class="C"/><path d="m201 297 3 2-3-2m341-121h-1l-2-2h3v2z" class="B"/><path d="m548 319 1-1 2 2-3-1" class="C"/><path d="M144 177v-1l2-2-2 3" class="B"/><path d="m243 337 1 2-3-2z" class="C"/><path d="M484 315v2h-1l1-2m29-173 4 1-4-1m72 166 2-2 1 1zM102 82l1-1v3l-1-2m113 229 2 2-2-2m-66-21h-2v-1l2 1M364 80l-2 2-1-1 3-1zm155 121h2l-1 2-1-2m-68 299 1-2 1 1-2 1m121-118-2-1 2 1zm186-186-1 2-2-1 3-1M198 350l-3-2 3-1zm-36-222-2-2h2v2zm355 261-1 2-2-1 3-1" class="B"/><path d="m392 424-1-2 1 2" class="C"/><path d="M320 425v-2 2m-41 3v1l-1-1h1z" class="B"/><path d="M464 378h1l-1 2h-1l1-2zm-49 107v-2 2m96-90v-1l2-1a4 4 0 0 1 0 2zm-98 95v-3 3" class="C"/><path d="M513 395v-2h2l-2 2" class="E"/><path d="m434 481 1-2-1 2" class="C"/><path d="M621 46h-1l1-1v1" class="B"/><path d="m529 389 2-2-2 2m-133 0h1v3h-1z" class="C"/><path d="M508 443v1l-1-1h1m-33-4h-2 2" class="B"/><path d="M514 405v2h-1l1-2z" class="C"/><path d="m347 500-2-1 2 1" class="B"/><path d="M481 409h-1v-2h2l-1 2z" class="C"/><path d="m545 411-2 1 2-1" class="B"/><path d="m505 402-1 3 1-3m-163 43 2 2-2-2" class="C"/><path d="m163 51 2-2-2 2m31 7h-1l1-1v1m277 376 2-2-2 2m-46 95-1 3 1-3m70-100v2-2z" class="B"/><path d="M485 387v-2 2" class="F"/><path d="m135 72-1-1h2l-1 1zm-5 164h2-2zm535-5 2-2-2 2" class="B"/><path d="M530 229h-1l1-2v2z" class="C"/><path d="M84 226h-1l1-1v1M274 70l-3 1 3-1M114 224h2-2" class="B"/><path d="m290 218 1 1h-1v-1z" class="C"/><path d="M71 215h2-2m637 27h-1l1-1v1m33-30v1l-2-1h2zm-231-1 2 1-1 1-1-2zm235-1-2 1 2-2v1m-678 0h2-2zm38 0v-2h1v2h-1m-6-1v-2 2m662-16-2 2 2-2M257 73h2-2z" class="B"/><path d="M280 273v-2h1l-1 2" class="C"/><path d="M490 283h-1v-2l1 2z" class="F"/><path d="M617 66v1l-1-1h1z" class="B"/><path d="M510 276h1v2h-2l1-2" class="C"/><path d="m324 273 1 2-1-2" class="E"/><path d="M621 66h-1l1-1v1zM513 273l1-2 1 1-2 1zm-13-1h-2 2" class="B"/><path d="M317 272h-1l1-1v1M97 195h-2v-2l2 2z" class="C"/><path d="M166 270h-2 2m89-202 2-1-2 1M117 267l-1-2 1 2m574-7-1-1c-1 0 0 0 0 0l1 1m-576-2h2-2m530-4h-1l1-1v1m-494-5 2 2-2-2m504-5h-1l1-1v1M145 120l-2-1 1-1 1 2m367 33v-2 2m-228-1h2-2zm-18-3v1l-1-1h1" class="B"/><path d="m276 144 2-2-2 2" class="C"/><path d="m645 141 2 1-1 1-1-2zm0 0-2-1 1-1 1 2zm83-5v-2h1v2h-1" class="B"/><path d="M325 129h-1l1-1v1" class="C"/><path d="m217 84 2-2-2 2m-85 40v-1l1 1h-1m33-1v1l-1-1v-1l1 1m550 0-2-1 2 1m6 31h-2 2m-120-38 2 1-1 1-1-2zm-187 0h-3 3m3-3-1 2-1-1 2-1z" class="B"/><path d="M199 111h-1l-1-1 2 1" class="F"/><path d="M72 110v-1l1 1h-1m629-1 1-2 1 1-2 1z" class="B"/><path d="m375 107 2-2-2 2" class="C"/><path d="M125 90h-2 2zm-46 9v1l-1-1h1m23-1v1l-1-1h1z" class="B"/><path d="M587 169h-2 2" class="C"/><path d="M711 189v-1l1 1h-1zm-184-3h1l-1 1v-1z" class="B"/><path d="m402 185 1 2-1-2" class="C"/><path d="M719 180h1v1l-1-1" class="B"/><path d="M646 179h-1v-2l1 2" class="G"/><path d="M726 177v-2 2" class="B"/><path d="M644 172h2v2l-2-1v-1z" class="G"/><path d="m391 172 1-2v1a6 6 0 0 1-1 1z" class="B"/><path d="m235 75 2-2-2 2" class="D"/><path d="M624 169h-2l1-2 1 2zm-44 0 2-2v2h-2" class="C"/><path d="M674 77v1l-1-1h1zm-439 90h-2l1-2 1 2zm5-3v2-2zm124-86 3 1-3 1zm65 2 2-2-2 2m-84 84h-2 2m267-2-2 1v-1h2m94-2v2-2zm-207 1h-2 2m148-4h2-2" class="B"/><path d="m331 307-2-2 2 2" class="C"/><path d="M595 296v2h-2l2-2z" class="D"/><path d="M467 341v-2l1 2h-1" class="F"/><path d="M541 328v-2 2" class="G"/><path d="m564 327 2-2-2 2" class="D"/><path d="m328 301-2-2 2 2" class="C"/><path d="M487 300h-2 2" class="B"/><path d="M467 341h1l1 1v1h-2v-2" class="C"/><path d="M469 343v-1l2 1h-2" class="B"/><path d="M225 300h2v2l-2-2" class="F"/><path d="m193 345-2-1 2 1m59 6h-2 2" class="B"/><path d="m480 342-1-2h1v2" class="E"/><path d="m253 348-1-2 2 2h-1" class="F"/><path d="M487 321v2-2" class="E"/><path d="m198 347 1-2 1 1-2 1z" class="B"/><path d="M491 308h1v2l-1-2" class="E"/><path d="M456 60v-2 2" class="B"/><path d="M453 320v1l-1-1h1zm36-6-1 2 1-2m-24 33 1-3-1 3" class="C"/><path d="M328 284v-2l2 2h-2z" class="D"/><path d="m283 66-2 1 2-1m266 268v2l-2-1 2-1z" class="B"/><path d="m481 335-1 2 1-2" class="C"/><path d="M541 337v-2 2m71-50v-2 2m55-2-1 2 1-2m-479 2-1 2v-1l1-1m166 42 1 2-1-2" class="B"/><path d="M490 369h-1v-2l1 2zm-245-30 2 2-2-2" class="F"/><path d="m304 357 2 2-2-2m273-29-2 2 2-2" class="B"/><path d="m497 293-1 2 1-2" class="C"/><path d="M569 338v-1l2-1-2 2z" class="E"/><path d="m498 289-1 2-1-2h2z" class="C"/><path d="M611 339h2-2zm55-266 1-1-1 1M399 387l1 1a3 3 0 0 1-1-1M255 180v-1h2l-2 1m146 292-1-1 1 1" class="B"/><path d="M457 381v1-2 1z" class="C"/><path d="m626 328-1-2h1v2zM353 73l-2 1v-1h2zm226 248-1 1 1-1z" class="B"/><path d="m436 480 2-1a4 4 0 0 1-2 1" class="C"/><path d="m477 338-1 1 1-1M180 163h-2v-1l2 1z" class="B"/><path d="M421 386v-1 1" class="C"/><path d="m505 229-1 1 1-1" class="B"/><path d="m392 409 1-1-1 1" class="C"/><path d="m305 372-1 1 1-1M99 88l-1 1 1-1zm44 201h1v1l-1-1" class="B"/><path d="m286 296-1-1h1v1" class="C"/><path d="m276 357-1 1 1-1zm252-3 1 1h-1v-1zm-47-88v-1l1 2a4 4 0 0 1-1-1zm-33-141-1-1 1 1" class="B"/><path d="m335 126 1-1v1h-1" class="C"/><path d="m485 261 1-3-1 3" class="B"/><path d="m263 353 1-3-1 3z" class="C"/><g class="B"><path d="m488 400 1-1-1 1M74 140l-1 1 1-1zm590 94 1 1a3 3 0 0 1-1-1m-539-1 1-1v1h-1m23-168 1-1v1h-1m374 169-1 1 1-1zM314 397v2h-1l1-2zM33 150l-1-1 1 1m366 340 1 1h-1v-1M282 152l-1-1 1 1zm294 225v1h-2v-1zM405 537v1-1"/><use href="#B"/><path d="M618 104h-1 1m-542 0v1-1m477 266h-1 1m65-297v1-1m-73 261h-1 1"/></g><path d="M421 376h1-1" class="C"/><path d="M212 91v-1 1m424 22v-1 1m-448 0v1-1m247-28v-1 1m-62 403v-1 1M543 77l2-1-2 1zm3 299v1-1m-21-223v-1 1m-14-9h1-1z" class="B"/><path d="M404 497h-2 2m-76-367v1-1m72 350h1-1m-19 0h-1 1" class="C"/><path d="m306 458 2-1v1a10 10 0 0 1-1 0h-1zm302-162v1-1m97-52h1-1" class="B"/><path d="M312 418h1-1m-14-178v-1 1" class="C"/><path d="M665 238h-1 1" class="B"/><path d="M401 416h1-1m-4 16h1-1" class="C"/><g class="B"><path d="M483 323h-1v-1l1 1M617 71h1-1m12 251v-1 1m-356 72h1-1m478-192h-1 1m-47-2v1-1M465 446h-1 1m153-113h-1 1m-73-2h1-1m27-2h1-1"/><use x="-154" y="116" href="#B"/></g><path d="M516 277h-1 1m-44 9h1-1" class="C"/><g class="B"><path d="M568 329h-1 1m33-213z"/><use href="#C"/><use href="#D"/><use href="#E"/></g><path d="M467 375v-1 1c0 1 0 0 0 0z" class="E"/><g class="B"><path d="M81 96c0 1 0 0 0 0m81 169zm506 17-1 1 1-1"/><use x="-20" y="-60" href="#E"/><use href="#F"/><path d="M674 277h-1 1"/><use href="#G"/></g><path d="M481 273" class="C"/><g class="B"><use x="-100" y="8" href="#D"/><path d="M417 113z"/><use href="#H"/><use x="400" y="-252" href="#G"/><path d="M282 364"/></g><path d="M301 274c-1 0 0 0 0 0" class="C"/><path d="M542 410c-1 0 0 0 0 0m-78-41c0-1 0 0 0 0" class="B"/><path d="M317 275c1 0 0 0 0 0" class="C"/><g class="B"><path d="M544 327c0-1 0 0 0 0"/><use x="-176" y="104" href="#F"/><path d="M584 162c0-1 0 0 0 0"/><use x="464" y="76" href="#C"/></g><path d="M422 474v-1 1" class="C"/><g class="B"><use x="-227" y="-351" href="#H"/><path d="M257 60c0-1 0 0 0 0m495 142-1 1v-1h1z"/><use x="56" y="-82" href="#H"/><use x="-23" y="411" href="#D"/><path d="M89 189v1-1"/></g><path d="M249 330v-1l1 1h-1" class="C"/><g class="B"><path d="M479 330c0-1 0 0 0 0"/><use x="-185" y="44" href="#H"/><path d="M641 132c-1 0 0 0 0 0M297 420c1 0 0 0 0 0"/><use x="159" y="-164" href="#E"/><use x="-144" y="-56" href="#G"/><path d="m624 69 1-1-1 1z"/><use x="-337" y="88" href="#F"/><path d="M642 310c-1 0 0 0 0 0"/><use x="107" y="-28" href="#C"/><use x="40" y="-192" href="#H"/><use x="164" y="120" href="#G"/></g><path d="M486 324v-1 1c0 1 0 0 0 0" class="E"/><path d="m271 180-4-6 3-4 1 10z" class="D"/><path d="m302 237-1-4 4 6-3-2" class="E"/><path d="M287 167v2h-3l3-2z" class="C"/><path d="m313 254-2-3 2 3m-12-22-2-1 2 1m17 30-2-2 2 2" class="E"/><path d="m334 291-2-2 2 2" class="D"/><path d="m572 297-7-3 1-2 2-3 1-2 3-4 4-6 1-2 9-10h4v-1l-3-1v-2l6-6 2-3a168 168 0 0 0 3-6l3-2 1-5h4v-3l6-11 1-1 3-1 1-3 2-3 1-1 2-3c3 3 6 6 5 10l-3 1 1 1v1c-5 1-4 4-5 7l-1 1-5 7-10 10c0 3-14 23-18 24l3 2a4 4 0 0 1-1 2l-2 3h-1l-7 1 3 6-2 3-2 4-1-1a147 147 0 0 0-4-2zm6-8s-1 0 0 0m35-58s-1 0 0 0m1 2s0-1 0 0m-101 56 2 6v2l-1 8h-1c-5 3-5 7-4 12v4l-3-5h-1l3 9v2c-5-1-3-5-5-8l-2-2a6 6 0 0 0-1-1l1-1 4-1-3-1v-2l1-2a23 23 0 0 0 0-2v-2c5-3 4-7 5-11l4-2-1-2-3 2h-1l-1-4 1-1h3a81 81 0 0 0 3 2z" class="H"/><path d="M627 223c1-4-2-7-5-10a26 26 0 0 0 0-2s0-1 0-1l4-5 2-3 1 1 7 1 2 2-11 17z" class="C"/><path d="m636 204-7-2 6-9 1-3h2c4 0 4-3 3-5l1-3h2c0 2-1 5 4 5l-3 10-1 1-1 2h-1l-6 4m8-14h1-1" class="H"/><path d="m509 321 1-4 3-10-4 22-1-2v-2l1-4z" class="D"/><path d="m585 265-8 10 8-11v1c0 1 0 0 0 0zm27-40-6 11-3 2 9-13z" class="G"/><path d="m513 307-3 9c-2-4-2-8 3-11v2" class="C"/><path d="m593 254-6 7 6-9v1a50 50 0 0 0 0 1zm41-61-5 9h-1l6-9" class="G"/><path d="m514 305 1-8-1 8m-7 33c-5-3 0-4 1-7l-1 7" class="D"/><path d="M640 185c2 3 2 5-2 5v-2l2-3z" class="C"/><path d="m617 220-1 3h-3l4-5z" class="G"/><path d="m505 348-1-3 1-3 1-1-1 7z" class="D"/><path d="m597 247-2 5h-2a33 33 0 0 1 4-5" class="G"/><path d="m553 310 3 1-4 3-1-1z" class="C"/><path d="m626 205-3 5c0-2 1-3 3-5m-26 39-2 2a13 13 0 0 1 3-5l-1 3m-28 39-3 4 3-4" class="G"/><path d="m622 213-2 3-1-1 1-2h2zm-21 31v-3l1-2-1 5m2-6 3-2v3h-3v-1z" class="C"/><path d="m563 296-2 3 2-3m4-7-1 3 1-3m-16 24v1l-2 2 2-3zm36-52v2l-2 1a9 9 0 0 1 2-3z" class="G"/><path d="M613 223h3l-3 1v-1z" class="C"/><path d="M619 215v2l-2 1 2-3m3-2h-1l1-2v2m-45 62-1 2 1-2m61-87v2h-1l1-2zm6-6h-1l1-2v2" class="G"/><path d="m217 270 1 3c-2 1-1 6-5 6l-4-2v-2l1-1-2-1v-5 1h-3l-2-3-3-4v-1l-3-3v-3l1-8-5 2h-2v-3c3-3 2-4-1-4l-7-7-5-4-3-2-1-2-1-3-2-3-2-10 11 8-2 1 1 1 1-2 5 4 1 1c0 5 3 9 6 12l6 7 3 2 1 2a1 1 0 0 1-1 0l-1 3h2l4 7 8 6v1l2 4-1 2h2m-16-15-1 1 1 1v-2m11 14-1-1-1 1h2m-6-8-1 1 1 1v-2m3 3s1 0 0 0" class="H"/><path d="m201 245-3-2-6-7c-3-3-6-7-6-12l15 21zm13 18-8-6-4-7a17 17 0 0 1 0-3 302 302 0 0 1 12 16zm2 5-2-4 3 3-1 1z" class="C"/><path d="m216 268 1-1v3h-2z" class="B"/><path d="M287 139h-3l3-1v1m6-4c0 1-1 2-3 2l3-2" class="F"/><path d="m163 210-12-16 1-1a119 119 0 0 1 10 12l1 5zm15 21 5 4 7 7-3 2-2-1-1-3-2-2-2-2v-1l-2-4z" class="C"/><path d="m173 271-3-4-1-2a66 66 0 0 1 7 6h-3z" class="F"/><path d="M197 255v3l-2-1-1-2-3-4v-2h2l4 6z" class="C"/><path d="m246 327 2 3 3 5v1l-6-8 1-1m-55-78v2l-6-8 2 1 4 5zm4 8 2 1v1l3 3a13 13 0 0 1 0 2zm8 9 2 4 1 2-5-7 2 1zm6 12 3 1 2 4c-3 0-5-2-5-5z" class="F"/><path d="m103 201-6-6 6 6" class="C"/><path d="m178 231 2 4-5-6 3 2zm-13-16 4 5-4-5" class="F"/><path d="m203 266-2-1-1-1v-2l3 4" class="C"/><path d="m173 224 1 3-3-3v-1l2 1zm18 28 3 3-3-3" class="F"/><path d="m206 272-1-2 3-1v5l-2-2z" class="C"/><path d="m240 334-3-2 3 2" class="F"/><path d="M208 274a2 2 0 0 0 0-1l2 1-1 1h-2l1-1z" class="B"/><path d="m163 210 2 4-3-3 1-1m80 127h-1l-2-2 3 2m-74-117 2 1a10 10 0 0 0 0 2c-1 0-2-1-2-3zm59 85 3 2-3-2m-45-64 2 1-2-1m-3-5 2 2-2-2m27 39h2v2l-2-2m16 22 2 2-2-2m-8-11 2 2-2-2" class="F"/><path d="M163 210h-1 1c1 0 0 0 0 0" class="H"/><path d="m590 277-4-2c4-1 18-21 18-24l10-10a283 283 0 0 1-24 36m-9 12-3-6 7-1 1 1-2 3-2 3h-1m39-56c1-3 0-6 5-7l-5 7m16-29 6-4-3 6h-1l-2-2zm-21 37a41 41 0 0 1 4-7l-4 7m-43 56v-4l4 3-1 3-2 1-1-3z" class="C"/><path d="m559 323 4-7-4 7m5-8 3-5h1z" class="E"/><path d="m568 309-1 1 3-6-2 5z" class="C"/><path d="m575 299 1-3h1l-2 3m2-3 2-3-2 3" class="E"/><path d="m626 225-2-1 3-1-1 2" class="C"/><path d="M586 283v-1l2-1-2 2" class="E"/><path d="m588 280-2 2 2-3v1" class="C"/><path d="m582 289 2-3-2 3" class="E"/><path d="m643 200 1-2-1 2M445 401v3l-6 20-4 7 7-24a50 50 0 0 1 3-6zm-12 32-1 8-8 19a473 473 0 0 1 9-27zm23-62a225 225 0 0 1-10 27l10-27zm-33 91 1 3-5 8 4-11z" class="C"/><path d="m482 301-2 6 2-6m8-33 1-3-1 3m-16 52 1 2-2 1 1-3m17-45v2-2" class="F"/><path d="M332 375a233 233 0 0 0-2-9l-1-5 6-2 2 2 4 8-2 7 4-1v1c0 4-1 6 3 7l1 2 1 12 3-1 1 1-2 4 3-1 3 8-2 2 3 10 4 1 1 5c0 4-1 8 5 9v2c0 3-1 6 3 6v3l2 2 1 3a2 2 0 0 0-1 1h1v2l-2 3c-7 0-11-9-8-16l-6-4v-1l1-6-3 3-1-2 2-6h-5v-3l-4-15-10-27-5-3v-2m9 10v2-2m19 50h1-1" class="H"/><path d="m361 421-4-1-3-10 2-2 4 7v2l1 4" class="C"/><path d="m371 445-1-2-1-4c5 5 7 12 8 20l-2-2-1-4-1-1v-1l-1-3-1-3zm-10-24-1-4 3 2 4 14a48 48 0 0 1-6-12z" class="F"/><path d="m362 426 5 7v2c-6-1-5-5-5-9m7 13 1 4c-4 0-3-3-3-5l2 1z" class="C"/><path d="m367 374 2 2-2-2" class="F"/><path d="M454 409v-2l1-2 1-4a15 15 0 0 0 1-2l2-2a493 493 0 0 1-7 15l2-3z" class="E"/><path d="M507 292h1v2c-1 4 0 8-4 11l-1-2 2-6v-3l2-2m-8 37v10l-3 1 1-7v-2l2-2z" class="C"/><path d="m441 441 4-10 1-2-4 15-1-3m23-60 1-3 1-1-2 8-1-2 1-2z" class="E"/><path d="M481 407h-1l2-9v5l-1 2v2z" class="F"/><path d="m459 397-2 2 2-7v5z" class="C"/><path d="M496 333v7h-1l1-7" class="F"/><path d="m504 297-1 6 1-6m3-5a7 7 0 0 1-2 2l1-6 1 4" class="E"/><path d="M463 383v2l-1 3 1-5z" class="C"/><path d="m477 350 1-5-1 5m-17 46v-4l1-1-1 5m39-67-2 2a16 16 0 0 1 1-5h1v3z" class="E"/><path d="m502 313 3 1-4 1v-2h1m-61 128v3l-1 1a8 8 0 0 1 1-4m69-154h-3v-3h1l2 3" class="C"/><path d="M500 283h1v4h-1v-2a10 10 0 0 0 0-2zm-51 140v-3h2l-2 3m51-107 1 1v2a3 3 0 0 1-1 0 6 6 0 0 1 0-3" class="E"/><path d="M483 393v3-3" class="F"/><path d="m451 419-2 1 1-2 1 1z" class="C"/><path d="M448 427v-2 2" class="E"/><path d="M486 380v2-2" class="F"/><path d="m505 273 1-2-1 2m-3 34 1 2h-1v-2" class="E"/><path d="M502 309h1l-1 2v-2" class="C"/><path d="M502 313h-1a3 3 0 0 1 0-2l1 2z" class="E"/><path d="m332 377 5 3 10 27 3 14a1428 1428 0 0 1-18-44z" class="C"/><path d="m378 473-7-3-3-5-1-3 4-5h4l3 16z" class="H"/><path d="m371 457-4 4-11-23 7 3c-3 7 1 16 8 16m-67-113-4 1v-13l4 12zm47 81h5l-2 6-3-6zm-45-74-3-1-1-2 2-2 2 5m49 82 3-3-1 6c-1-1-2-1-2-3zm-54-103c-6 0-2-3-2-5l2 5" class="C"/><path d="m385 150-14 3-2-1 6-3 10 1zm-39-2h-16v-1h30v1h-14zm20 4h-5 5m-2-3h3v1h-5v-1zm-59-1c-1 0 0 0 0 0" class="I"/><path d="M167 152h-10 10" class="D"/><path d="m543 77 2-1 3-5 2 1c1 4 4 3 6 3h2l3 4-8 3v-4c-4 6-7 1-10-1z" class="H"/><path d="M556 74c-2 1-5 2-6-2l6 2" class="B"/><path d="m541 64 1-2 1 1-2 1z" class="H"/><path d="m199 88-3 2 3-2" class="D"/><path d="m708 155-1 1v-1h1z" class="H"/><path d="m453 409-1 3 1-3m-8 20v2l-2-1 2-1zm10-24-1 2 1-2m2-6-1 2 1-2" class="C"/><path fill="#f4f4f4" d="m640 143 2 3 3 7c-29 2-58 2-86 0l-1-2 48-31 3-2c8-4 8-4 15 3l3 4 8 10 5 8z"/><path d="m351 396-3 1-1-11 4 10m-8-21-4 1 2-7 2 6m3 8c-4-1-3-3-3-6l3 6m7 17-3 1 1-3 2 2" class="C"/><path d="m511 396 2-1-2 2v-1z" class="E"/><path d="m516 403-1 2 1-2m42-94c0 1 0 0 0 0" class="C"/><path d="m533 375 1-2-1 2" class="E"/><path d="M560 356h-1l1-1v1zM164 210l-2-5-10-12 1-5 4-2a4 4 0 0 1 2 3l-1 3 2-1 9 14 3 4-5 1h-3m2-6v2-2" class="H"/><path d="m160 191-2 1 1-3 1 2z" class="B"/><path d="M167 210h-1 1z" class="H"/><path d="m505 342-1 3 1-3m-6-13v-3 3m2-10v-2l2 2h-2z" class="C"/><path d="m302 348 1 2-4 3 3-5m-7-23v2-2z" class="H"/><path d="m499 285 1 2-2 2 1-4m-18 120 1-2-1 2" class="C"/><path d="M486 294v-1 1m-81 205 1 1-1 2v-3z" class="H"/><path d="m585 265 2-2 3 1v1h-5zm8-12 2-1-2 3v-2m24-35 2-1-2 3v-2m-39 71c-1 0 0 0 0 0m35-58c-1 0 0 0 0 0m1 2c0-1 0 0 0 0m-105 88-1 4-3-9h1l3 5" class="C"/><path d="M508 294v-2l3-2 1 2-4 2" class="B"/><path d="m636 204 2 2-2-2" class="H"/><path d="M644 190h1-1" class="C"/><path d="m197 255-4-6 5-2zm-10-11 3-2c3 0 4 1 1 4l-4-2z" class="B"/><path d="m187 244 4 2v3l-4-5" class="C"/><path d="m201 247 1 3h-2l1-3m1 8-1 2-1-1 2-1z" class="B"/><path d="m200 261-3-2 3 2m-29-38v-2l2 3-2-1m9-4-1 2-1-1 2-1" class="C"/><path d="M211 269h-1l1-1v1m-5-7v1l-1-1h1zm2 7v-1 1zm1-5c1 0 0 0 0 0" class="B"/><path d="M375 457h-4l2-3c1 0 2 1 2 3zm-5-11 2 2-2-2m-29-61v2-2zm19 50h1-1m13 16v1h-1a2 2 0 0 1 1-1M166 204v2-2m1 6h-1 1" class="C"/><defs><path id="B" d="M240 76v1-1"/><path id="C" d="M216 86c0-1 0 0 0 0"/><path id="D" d="M377 58c-1 0 0 0 0 0"/><path id="E" d="M490 413c0 1 0 0 0 0"/><path id="F" d="M369 57c1 0 0 0 0 0"/><path id="G" d="M305 361c0 1 0 0 0 0"/><path id="H" d="M489 411c0-1 0 0 0 0"/></defs></svg>