<svg xmlns="http://www.w3.org/2000/svg" height="150" viewBox="0 0 405 476"><style>.B{fill:#1d1d1d}.C{fill:#222}.D{fill:#161616}.E{fill:#171717}.F{fill:#3e3e3e}.G{fill:#282828}.H{fill:#323232}.I{fill:#2b2b2b}.J{fill:#ededed}.K{fill:#f0f0f0}.L{fill:#8f8f8f}.M{fill:#fcfcfc}.N{fill:#ececec}.O{fill:#eaeaea}.P{fill:#f2f2f2}.Q{fill:#f3f3f3}.R{fill:#f1f1f1}.S{fill:#efefef}.T{fill:#f4f4f4}.U{fill:#f5f5f5}.V{fill:#d8d8d8}.W{fill:#0b0b0b}</style><path d="M217 477H1V1h216v10l-3 1-2-1c-3-1-6-5-8 0h-14l-8-2 3 3h-3l-2 1h-6l-5-2-5 4-5 1-2 1-7 1-5 3h-4l-4 3h-2c-2 0-5-1-5 3h-1l-3 2h-2l-2 2h-1l-2 2h-1c-3 2-8-1-7 5l-5 3-2 2-21 21c-17 17-31 36-41 57a277 277 0 0 0 2 235c17 35 41 64 73 85 22 15 46 25 73 27 11 2 23 1 35 1l-3 3c-3 1-5 1-5 5M176 10l-1-1a2 2 0 0 0 1 1m-15 3s0-1 0 0" class="M"/><path fill="#fff" d="M217 9V1h189v476H217c0-4 2-4 5-5l3-3 8-1v4h2v-5h4l5-2h2v4h-8l3 3a375 375 0 0 0 22 1l2-2c0-4 1-6 5-7l4-3-7 1v-2l4-2c3 0 5-1 5-6l5-1 3-1 2 2-3 2 2 1 1-3 10-3c8 0 8 1 9-7l1-1h5l-6-2 4-2-4-3 4-2 2 2c2-1 5-2 6-4l6-9 1 2-1-4h1l3 3c2 4 5 3 8 3l2-3c0-2 0-5-3-6l-3-5h1a89 89 0 0 1 4 1v-1l-3-2 3-2v3l2-2-2-2c-1 0-1 0 0 0 7 1 10-4 12-9l5 2-2-9-3-1 2-2 3-2c4-3 7-7 10-7 6-1 6-4 6-8v-4l-2 2-2-6 1-1h6l5-2-1-10-4 1c-1 1-1 0-1-1l-1-2 2-2 3-4 1 5 9-2v-15h3c2 0 5 1 5-3s-1-5-5-5l-3-4c-1-3 1-4 4-4l4-3-3-18-2-1-1-3 1-2h1l1 1 1 2 1-2c-1-3 2-7-3-8l1-7 4 1c7 0 7 0 7-7v-56l-10-2a33 33 0 0 1 0-6v1h-2v-2l1-3 2-7h-1l-4 2v-3l-1-3v-3l1-2 5 4 1-1-2-4 1-2 1-2c-1-3 2-7-3-8-3 0-5-1-6-5l-2-4v-1l1-2 1-4-2 2h-4v-2l-1-3-1-3 2-1-2-1-2-1v-3l2-4-2 1-3-7c5 0 6-3 6-7 0-5-4-2-6-3h-3l-2-1 2-7v-8c-1-1-9 0-10 2h-2l-3-6 3-3h-5l1-1a4 4 0 0 1-1 0l-1-1 3-9-2-6c-3 1-8-3-11 3l-1-2 1-7c-3-2-7-5-3-11v-7c-7 1-8-2-8-8-4 1-8-2-10 3h-2l-3 2h-2l-2-2v-9l-7-10c-6-1-8 0-9 5l-1 2-2-2-2-3c0-11-2-12-12-9l-3 1h-1v-3c0-8-1-9-9-5l-3 1h-1l-3-7c0-3-1-4-4-4l-13 2c-2 1-3-1-5-1l-14-1h-4m165 141 3 1-2-6-2 1 1 4m-38 258v-2 2m13-306v1h1l-1-1m12 14h-1 1m-8 267v-1h-1l1 1m0-283h-1 1m-45-51v1-1m60 92h1-1M291 34h1-1m67 351v-1 1m-46 53s1 0 0 0m15-14s0 1 0 0"/><path d="M350 97h2l-1 1 2 3 3 6 4 7 1-1v1l3 7 3 7 2 3 5 11v2a19 19 0 0 0 2 3v3l2 3a33 33 0 0 0 0 2l3 11 2 6 1 6 2 6v3l1 3a28 28 0 0 0 0 3l1 5 1 4v1l1 6v5l1 3v8l1 4-1 28v5l-1 6v4l-1 7-1 5v2a12 12 0 0 1-1 2v5l-1 3-1 3v2l-1 2v2l-1 3v1l-1 3-1 4-1 3v1l-1 3-1 4-1 3-1 3-1 3-1 3-3 6-1 2-1 4-2 4-4 9-6 10-4 8-4 5-1 2-13 17h1v1l-3 2a16 16 0 0 0-2 2h-1a311 311 0 0 0-8 8l-13 13-4 2-25 17-4 1-30 12-2 1-6 1-3 1a17 17 0 0 0-2 0l-8 1c-12 1-24 2-35 0-27-2-51-12-73-27-32-21-56-50-73-85a277 277 0 0 1-2-235c10-21 24-40 41-57l21-21 3-2 4-3 7-5h1l2-2h1l3-1 1-1 3-2h2l5-3h1l5-2 3-1 6-2 6-2 2-1 5-1 10-2h6l2-1h3l5-1 14 1h10l7 1h2l14 3 14 4 6 2 3 1 5 2 2 1 2 1 3 1 3 1 2 1 3 2 5 3 6 3 2 2 4 2 2 2 3 1v1a57 57 0 0 0 5 3v1l3 2 3 2 9 9 17 19 1 2 10 13M226 393l1-3 7-12c2-3 1-8-2-8h-23l-1 38c-1 2-2 3 1 4v1l1 2 2-2 12-18 2 2-1-4h1m-8-119 2 2 13 39 1 2v2l2 3 2 9 4 6 6 19 7-7-1-10v-2a32 32 0 0 0-1-3l-1-13a60 60 0 0 0-2-5l1-2a65 65 0 0 1-2-4l1-2-3-7v-4a29 29 0 0 0-2-3c-7-14-19-25-29-38l-3 1 1 5v1l-1 2h-1l-4-10-1 4c-1 1-2 3-4 3l1-1-3-2-2 2-3-1v-5l-3 1-1-2 1-5-2-2-2 2-3 1-2 2h-2l-3 2-7 3-3 2-7 3-3 2-17 9h-2v2l-25 13-5 5c2 3 4 6 9 5l25-5 3-2 8-1 4-2 11-9 14-16-3 10-13 15-1 4-3 12v4l-1 3v3l-2 8h-2l1 1v6l-2 14c-1 4-1 9 3 13l3-1 5-11c3-1 2-3 1-6l2-5 5-1a190 190 0 0 1-6 18l-3 10c10 1 10 1 14-7l4-5 1-3 1-3c1-1 1-2 3-2v6l-1 1a62 62 0 0 0-1 3l-4 10h18v-32l-3-2-1-1 4-13v-3l2-20 2 1a12 12 0 0 1-1 3l2 4 1 5 12 35a25 25 0 0 0 2 3l10 18c1 2 5 2 8 2l3-3-2-3-8-25a23 23 0 0 1-1-3l-3-11-2-5-5-16a30 30 0 0 0-2-3v-2l-2-3-3-12h2m75-150h1l2-1-2-2 7-7-2-3-15-1a103 103 0 0 0-6 1h-9l-7 2-2 2c1 3 1 6 3 8l12 15c1 5 5 2 8 4-2 5 2 8 4 12l3 2 11 13h2c2-17 2-35 2-52l-9 9-13 14v-3l1-3 7-8 2-2m-138-3v3l1 18-3-1v-3l-2-6-5 1v-2l-2 1 2 2-1 1-2 3-2 4c-6 6-6 8 0 14l15 19v2h1a63 63 0 0 0 1-4v-12l3 1v7l1 3v3l2 3 9 18-3 3c-3-6-9-9-15-11l-6-2-1-2-2 2-1-2h-5l-9-3h-3l-18-3-2 3-1 1c-1 2-2 4 2 5l17 9v2h4l21 11 4 1c12 6 23 13 35 18l1-2-5-8v-1h-2l-13-18 7 2 15 18 4 1h1l4-3 1-8c1-16 1-32-5-48l-5-13-2-3c-4-8-10-15-13-24-3-5-5-8-11-7h-3l2 3v4h-4l-2-3-5 3m-12 5 1-4c3-2 4-5 3-10h-8l-11-1h-4l-8-1h-4l-2-1v-2l-5-1v1l-3 8-2 2v10l-1 1 2 1a586 586 0 0 1 3 38l1 2 1 1 1-2 10-10c4 0 3-3 3-6l4-3c2-1 3-2 0-5l-5-8 5-1 4 5 12-11 4 1-2-4h1m83 51-5 11 2 2-4 9a51 51 0 0 0 0 3l-3 7v3l-2 7 1 2 2-3 16-18c6-9 14-17 15-29v-6l2-9v-5l1-2v-5l1-3c1-2 4-3 0-6 0-6 0-13-7-17-4 12-7 24-12 35l-2-4 11-34c-6-2-10-1-12 5-1 4-4 8-7 12l-2 1 1 1-10 16a20 20 0 0 0 0 3l-4 12v3l-1 16-1 29 1 2v2l1 2 1-3 4-10 12-35 1-6 3-6v-3l1-1 3 1a218 218 0 0 1-7 21m71 89v-1l3-1 2-3 1-13h1l-1-2c0-2-1-3-4-3l-23-1h-2l3 2v2l-7-1c-5-3-9-4-15-3h-28a26 26 0 0 1-3 0h-1l-3 1a29 29 0 0 0 3 1l29 17 23 11 6 2 2 3 5 1a216 216 0 0 1 12 6l3 1 1-1-1-2v-7a15 15 0 0 0-1-3l-3-5-2-1m-37 108c-1-4-3-3-6-2l2 12h1l4 12 1 2 1-3-2-18-1-3m-6 13-5-12h-2l-1 5 1 7 2 3 7 12 2 1a25 25 0 0 1 0-3l-2-10a68 68 0 0 0-2-3M72 178l13 10c2 2 5 2 6-1v-4l-18-9-5-1v2l4 3m243 7 2 2c2 4 5 3 8 1l7-6 7-7-2-1-22 11m3 121c6 2 12 5 19 5l1-2-23-11-2 1 2 7h3m22-1 2-2a43 43 0 0 0-3-1l-2-2-15-12c-1-1-4 1-7 1l3 5 22 11m-11-139-3 2-7 1-3 1c-5 2-3 6-3 11l5-2 25-12 1-2h-3l-12 1m37 102 1 3 3 19 1 2 2-4 4-42h-13l2 22m-100 67 2-3c4-3 4-6 1-10l-12-16-4-3h-1v1l1 4 2 16 1 3-1 2a79 79 0 0 0 2 5l1 6v3a17 17 0 0 0 2-2l4-3a74 74 0 0 0 2-3m-52-4-4-7h-1v36h18l-3-11-2-3-6-13a33 33 0 0 0-2-2m-95-75 16-13-1-1h-28v24l11-7 2-3m140-123-2 2-2 7v3l-3 15v3l-1 10h2l13-14 1-3 2-2a64 64 0 0 0 1-3l1-1-1-3-11-14m18 100-4 3 5 2a59 59 0 0 0 3 0h22l1-1-1-1v-20l-1-3-2 1-12 9-2 3-5 2-2-3 5-5 19-15c3-3 3-5 0-9v-3c-3-3-4-2-6 2l-26 12-3 3a22 22 0 0 1-3 0l-3 2-46 23v1l2 1 20 1 12 1 8-1 7-2 5-3 6-4 1 4M211 42l3-1 17-3 3-1 11-1 3-2-2-1c-13-5-25-8-38-6l-1 6 1 3v7l2-1h1m7 93v-3l9-18h-20v38h1l1-4c3-4 5-9 9-13m53 23-6 7a67 67 0 0 0-1 3l-8 9v-1h-1l2 9c-7 3-13 7-17 13l-13 15-1 3-9 11 1 2c13-5 25-13 38-18a33 33 0 0 0 3-2l7-4 33-15 1-2c1-8-3-11-13-12l-3 2-12 2-3 2h-8l3-3 27-7-15-18-2 1h-2a70 70 0 0 0-1 3m12 157 1-3 6-6-2-3-1-1h-3l-28-8-1 1 3 5 13 16c5 6 6 6 10 0l2-1m-128-11-2-4 4-5v-2l-3 1-35 9 14 19a7 7 0 0 0 2-2l16-16 2 4-6 6c-3-1-2 2-2 4l-5 7v6l3 3v1l3 2 5 7 2-2 2-6v-3l5-32h-1l-4 3m139 113-3 2 3 1c0 1-3 4 2 4 3 1 5 0 3-4l18-17c8-8 8-10 0-18l-5-1v3l-2 2-2 5-3 3-2 5-3 6-1 3-2 2-2 1 1 2-2 1M186 128l5 10 4 4 5 12 2-2v-33c0-2-2-5-3-5h-18l3 11c1 1 2 1 2 3m48 312-22-4v20l43-9v-2l-17-5a29 29 0 0 0-4 0m-93-260 8 3h8l-2-2-20-25-5-1-10 10-1 3c-2 2-4 5 1 7h3l8 3h3l1 1 6 1m174 63-2 3a566 566 0 0 0 0 25l2 3c1 1 2 0 3-1l9-7 3 2-1-5h1a25 25 0 0 0 1-3l17-15-1-1-10-2-11 1h-11M137 364l13-3-1-4-14-18c-2-3-4-3-7 0l-17 20-2 2 1 1-2 5 3-1h6a67 67 0 0 1 3 0l14-1zm163-56-12 14c-2 3-5 6-4 11l-4 3-4 2-10 11c-3 4-5 7-4 12l7 2 30 4h3l2 1 2-1-3-2-4-7-2-2-2-4a44 44 0 0 0-3-1l-8-12 5-1 16 21 2 1a14 14 0 0 0 1-3l1-8-2-8 1-6-2-7 1-8-2-11-2-2-3 1m-195 4-1 5v44l1-2 21-26v-4l-15-20c-2-3-4-2-6 0zm99 102 1-5-1-3-1-36h-18c-3 0-5 0-7 3-2 4-1 6 1 8l23 35 2-2m130-145-1-1h-1l2 2-6 5-1 3c-3 3-3 4 0 7l20 17 16 11 1-1-9-60h-2l-19 17m-20-144v36c0 2 1 3 3 5l7-3 31-7c5-1 5-3 1-6l-33-29-7-5-2 9m-223-7c-1-5-3-2-5 0l-36 32-2 3 3 2 38 11h3l1-5 1-16-2-6 1-7-2-9 1-2-1-3m31-16 4 1h19l-10-55-2-1-6 9-23 39c-1 2-4 3 1 5l5 2c3 3 8 3 12 0m29 322-5 13 7-1h2l4-1h6a51 51 0 0 0 4-2l16-3a73 73 0 0 0 3-1l9-2v-1l-1-5-3-2-22-33-16 29a23 23 0 0 0-1 3l-2 3a20 20 0 0 0-1 3m153-46-2-2h-4l-3-1a84 84 0 0 0-5 0l-26-2 1 3 2 13 1 3-1 1 2 3v4l1 3v3l1 5v6l2 4v7a10 10 0 0 0 3 2l3-2c3-6 6-12 11-18v-4l7-9 2-5 7-11c2-2 1-3-2-3m13-29 1 12 1 1 45-38c-17-6-32-10-48-13l-1 34a63 63 0 0 0 2 4m-50-55 14 3c5 2 11 4 17 0l1-3h1a12 12 0 0 0 0-3l-10-7-4-2-51-26-5-2-1-1-3-1-6-4h-3l-1 1 3 2 6 8 1 2 13 17 3 2c5 6 11 9 18 11 2 0 3 1 5 3h2m-51 134c1 3 4 0 7 1l21 5h4l12 3 3 2c3 1 5-2 4-5v-3a44 44 0 0 1-2-3l-11-21-2-3-2-5-3-4-5-10-4 5-14 19a48 48 0 0 0-1 3l-4 6a14 14 0 0 0-1 3l-2 1a33 33 0 0 0 0 4v2m-90-170-21 17v9c1 4 3 2 5 1l18-9 1 1 1-2h1a49 49 0 0 0 3-3l32-15 5-4 15-6 3-3h1l-2-2-2-1a1171 1171 0 0 0-31 0l-3 1-2-1-8 5-14 9-2 3m10 115-3-1-3 2h-5l-3 1-4-1-3 2-6-1c-2 1-4 0-2 4l2 6a20 20 0 0 0 2 2v2a87 87 0 0 0 2 3l6 12 2 3 16 27 2-7 8-44v-12l-3 1h-4l-4 1m37-149-3-1-5-3-5-2-12-7h-3l-5-4-4-1c-10-5-19-11-30-14-2 11-1 12 6 18l26 21c5 4 10 7 17 6h35l3-1v-1l-20-11M81 353l12 10 3-52-10 2-34 10-3 2 2 4 30 24m98-279 14-19c2-3 1-4-2-5l-47-8h-2c9 16 14 33 26 48zm168 102-20 16c-3 2-3 5-1 7l23 25c2 1 2 3 3 5l3-1c3-21 7-42 8-63l-2-1zM279 59l-5-8-3-2-1 3-6 35-2 16 41-2-24-42m-22-4 4-8 1-4-5-1-40 8-4 2c7 13 16 25 24 37h2zM64 258l-8-8c-3 22-8 42-10 63l9-5 27-22c4-2 4-4 1-7l-19-21m16-58 5-6-39-30-1 6 9 50 2 5 5-2zm5 9-24 27h35v-30l-3-6zm237 29h26l-7-9-23-25c-3-2-5-2-5 2v32h9M201 102V63h-2l-25 35 3 6a145 145 0 0 0 24-2m32-4-26-37v43h21c4 1 5-1 5-6M75 242H63v1l32 34v-35zm93 200-9 3c13 8 27 10 42 9l1-19zm-73-37 23 20 2-2c-7-14-14-27-23-40-12 12-12 8-2 22m-17-21 6-1 6-10-2-3-23-19-7-4c0 4 1 8 3 11l17 26m95-346 26 4-1-13-3-3c-13 0-25 2-36 6l-2 2zM41 287l5-42H32c0 16 2 31 5 46h2l2-4m-6-94-4 41h15c0-13-6-44-10-47zm305-70 10 9 1-1-1-4-18-29c-4-6-4-6-10-1-4 5-4 7 0 11l18 15m-12 261c4 3 6-1 7-3l17-30 1-3-5 2-22 19c-4 4-4 7-2 10l4 5M293 64l13 22 6 8 6-8c2-2 2-3 0-5l-26-25h-4zm-193 3L87 81c-1 1-2 3-1 4l4 6c3 4 5 4 7 0l18-31 1-4-2-1zM80 94l-6 2-18 31v4l4-3 19-17c8-8 8-8 1-17m288 108-5 33h14c-1-14 0-29-6-42h-2zm-249 19-13-9v24h30v-1zm-29 66c-8 5-14 11-21 17l1 2 26-14-6-5m75 100c3-7 3-8-3-11-3 11-7 20-9 31h1zM78 167l-6-1c7 6 14 11 22 13 2-6 0-8-5-9l-11-3m179-67 3-23h-1l-9 27c4 0 7 1 7-4m-12-1 3-2 5-16v-4l-2-1-7 16c-1 2 0 4 1 7m-84 0c3 0 3-3 2-5l-8-16-2 1c-1 7 4 13 8 20M77 310l14-3c4-1 6-3 3-8l-18 9 1 2m75 65-2 16c5-7 8-13 8-21l-1-1-5 6m1-271 2-1-6-20h-2l4 21h2m53 239v10h1v-23h-1zm-80-192v-1 1m141 273v-1h-1l1 1m-12-293v-1h-1l1 1m-151-27v-1 1m45 16 1-1-1 1m151 284h-1v1l1-1M103 87v-1 1m161 121s1 0 0 0M70 179s1 0 0 0m35 209s1 0 0 0" class="W"/><path d="m174 13-10 2 5-4zm47 0-7-1 3-1V9h4v4zM118 33l-7 5c-1-6 4-3 7-5m94-22-8 1c2-6 5-2 8-1m-22 0-4 1-4-3zm-55 13-4 3c-1-4 2-3 4-3m15-6-5 3 5-3m-9 3-4 3 4-3m-12 6-3 2 3-2m-23 14-2 2 2-2m15-10-2 2 2-2m3-2-2 2 2-2m58-17h-2 2m-23 4-2 1 2-1m17-6-1-1 1 1zm-15 3c0-1 0 0 0 0" class="J"/><path d="M391 219v-2l-1-3v-5l1-1 10 2v56c0 7 0 7-7 7l-4-1 1-5v-5l1-5v-32c1-2 2-5-1-6zm-5 77 1-3 1-2 2 1 3 18-4 3c-3 0-5 1-4 4l3 4c4 0 5 1 5 5s-3 3-5 3h-3v15l-9 2-1-6a33 33 0 0 0-1-1l2-4 1-2v-4l1-2 1-4 1-3 1-2v-2l2-4v-3l1-2v-4l1-2v-2l1-3zM246 465l30-12c0 4-2 5-5 5l-4 2v2l7-1-4 3c-4 1-5 3-5 7l-2 2a375 375 0 0 1-22-1l-3-3h8v-4zm93-383a386 386 0 0 1-17-19l3-5c-6 1-7 0-6-6 2-5 6-2 10-3 0 6 1 9 8 8v7c-4 6 0 9 3 11zM221 13V9l14 1c2 0 3 2 5 1l13-2c3 0 4 1 4 4l3 7v3l-3-1-6-2-14-4a2 2 0 0 1 0-1l-2-2h-14zm60 438c7-6 15-11 24-16l4 2-4 2 6 2h-5l-1 1c-1 8-1 7-9 7l-10 3-2-2-3 1zm100-285-3-10a5 5 0 0 1 4-1l1 2-1 2v1l2 4c1 4 3 5 6 5 5 1 2 5 3 8a45 45 0 0 0-1 2l-1 2 2 4-1 1-5-4-2-4-2-6-2-6m-23 208 5-10a42 42 0 0 0 2-2l2 6 2-2v4c0 4 0 7-6 8-3 0-6 4-10 7l-3 2c0-2 2-3 3-5l5-8zM299 43l-2-1-3-4c1-5 3-6 9-5l7 10v6h-3c-1-3-3-4-5-4v-5l-3 3zm51 53-9-12c2-6 7-2 10-3l2 6-3 9m-14 310 12-16h3l2 9-5-2c-2 5-5 10-12 9m12-13s-1 0 0 0m-24 26 6-8 4 5c3 1 3 4 3 6l-2 3c-3 0-6 1-8-3l-3-3zm37-306h-1c0-3 1-5-2-6 1-2 9-3 10-2v8l-2 7-2 1-3-7h2v-1zm6 242 2-4 2-2c0 1 0 2 1 1l4-1 1 10-5 2h-6l1-6M277 30l-2-1-1-2 3-1c10-3 12-2 12 9l-5-1-4-2-3-2zm-10-4-2-1-4-5 3-1c8-4 9-3 9 5v3l-1 1-3-1-2-1zm102 105-1-3v-7h3c2 1 6-2 6 3 0 4-1 7-6 7zm-60 301 13-13 2 4-1-2-6 9c-1 2-4 3-6 4l-2-2z" class="M"/><path d="M319 52c-1 6 0 7 6 6l-3 4-9-8h1l3-2z" class="J"/><path d="M369 131h2l3 7 2-1-2 4-5-10" class="K"/><path d="m388 284 1-5c5 1 2 5 3 8h-2l-1-1z" class="M"/><path d="M368 121v6c-2-1-3-3-4-6l2-1 2 1" class="K"/><path d="m389 198-1-4 3-3h1l-2 7h-1zm-7-48-1-4 2-1 2 6-3-1z" class="M"/><path d="m367 355-1 5-1 2-2 2 4-9z" class="L"/><path d="M358 107c3 1 2 3 2 6l-4-6h2" class="K"/><path d="M261 20a35 35 0 0 1 4 5l-5-2v-3h1" class="J"/><path d="m374 339 1 1-3 5 2-6z" class="L"/><path d="m384 178 3 4-1 2-2-6z" class="K"/><path d="M285 35h4l2 3-6-3z" class="J"/><path d="m233 468 2-1v5h-2z" class="M"/><path d="m391 208-1 1-1-5 2-1z" class="K"/><path d="m353 101-2-3h5zm-21 310v-2l4 2v1z" class="M"/><path d="m294 38 3 4-3-2v-2z" class="J"/><path d="m239 467 5-2-5 2m47-15-1 3-2-1 3-2z" class="M"/><path d="m307 50 3-1v3l-3-2z" class="J"/><path d="m317 52-3 2 3-2" class="M"/><path d="m388 291-1 1v-3l1 2z" class="L"/><path d="m387 190-1-3 1 3m1 8h2l-1 3-1-3zm-5-41-1-2 2-2-1 4zm-5-4-1-3 1 3" class="K"/><path d="m371 349-2 2 1-3 1 1z" class="L"/><path d="m272 28 1-1h1l1 2-3-1" class="J"/><path d="m376 147-2-3 2 1v2" class="K"/><path d="M344 408v-2 2m-8-1 2 1-2 2v-3m40-260v-1h2l-2 1z" class="M"/><path d="M390 287h2l-1 2-1-2" class="K"/><path d="m388 284 1 1-1 1v-2" class="L"/><path d="m357 102 1 1h-1v-1zm12 15-1-1 1 1m-8 266-1-1h1v1" class="M"/><path d="m392 179 1-2-1 2" class="K"/><path d="M361 100h-1 1m-45-51v1-1" class="M"/><path d="M391 203v-1 1zm-15-62h1-1" class="K"/><path d="M291 34h1-1" class="J"/><path d="M358 385v-1 1m-46 53c1 0 0 0 0 0m40-341" class="M"/><path d="M382 160v-1 1" class="K"/><path d="M327 424c0 1 0 0 0 0" class="M"/><path d="M256 210c-13 6-25 14-38 19l-1-2 9-12a17 17 0 0 0 2-2l12-15c4-6 10-10 17-14l4-1 9-1 3-1 12-3 2-1c10 0 14 3 13 12h-1l-33 16-8 4-2 1z" class="P"/><path d="m140 208 5 3a26 26 0 0 0 3 1l12 7 5 2 5 3 3 1 20 10v1l-3 1h-35c-7 1-12-2-17-6l-26-21c-7-6-8-7-6-18 11 3 20 9 31 14a34 34 0 0 0 3 2zm77 27 46-23 3-2a8 8 0 0 0 2-1l4-2 25-13h6v3l-1 8-18 15-6 5v1l-2 2-7 5-5 3-7 2-8 1-11-1-20-1-1-2z" class="Q"/><path d="M187 345h-1l-1 3-3 5c-4 8-4 8-14 7l3-11a21 21 0 0 0 1-2l5-16 22-66 1-4 2-1 1 1v2l1 26-1 21v2l-4 14-2 3c-1 3-6 4-3 7l-4 3-2 4a31 31 0 0 0-1 2z" class="P"/><path d="m228 174 5-19 1-2 11-35c7 4 7 11 7 18v5l-1 4a54 54 0 0 0-1 4v3l-1 4-1 10-1 5c0 12-8 20-14 29l-16 19-3-1 2-6v-3l3-8a14 14 0 0 0 1-2l3-10 3-12 2-3" class="K"/><path d="M109 376h7l2-1h5l2-1h6l2-1h4l3-1h5l2-1v12l-8 44-2 7-16-28-2-3-6-12a30 30 0 0 0-2-3v-1a36 36 0 0 0-2-3l-2-6 2-2z" class="U"/><path d="m129 255 13-10 8-3 3-1h16l17 1h3v2l-4 2-14 8-6 3-31 16-4 2-2 1-18 9c-2 1-4 3-5-2l1-8 20-17a55 55 0 0 0 3-3z" class="R"/><path d="m250 400 2 4 2 3 11 22 1 2 1 4-7 2-13-3-3-1-22-5-6-1v-2l1-3 1-2 1-2 5-6a65 65 0 0 0 1-3l13-19 4-5 5 10 3 5z" class="T"/><path d="m126 196-18-9-1-5 1-1 3-3 18 3 2 1 10 2 4 1 2 1a18 18 0 0 0 2 0l6 2c6 2 11 5 15 11h1l13 18a58 58 0 0 0 2 2l5 7-1 2-36-18-3-2-21-11-4-1zm18 96-25 6c-5 1-7-2-9-5l5-5 25-13 2-2 18-9 3-1 7-4 2-2 8-3 3-2h1l3-2a45 45 0 0 0 2-1l1 5-6 8-14 17-12 9-3 1-9 2-2 1z" class="R"/><path d="M297 297c-5 4-11 2-16 0l-15-3-1-1-5-2c-7-2-13-5-19-11l-2-3-13-17-1-1-6-9 1-1 6 3 3 2h1l5 3 51 26 4 2 10 7a25 25 0 0 0-1 2v1z" class="P"/><path d="m275 272-23-11-29-17v-2h2a8 8 0 0 0 2 0h28c6-1 10 0 15 4l6 4 7 5 2 2 2 2 10 7 2 2 3 5 1 2v8l-1 1h-3l-1-1-11-5a107 107 0 0 0-4-2 91 91 0 0 0-3-2l-5-2z" class="R"/><path d="M316 345v-34c16 3 31 7 48 13l-45 38-1-1-1-13a27 27 0 0 0-1-3z" class="U"/><path d="m80 353-29-24-2-4 3-2 34-10 10-2-3 52-13-10z" class="T"/><path d="m213 150 9-16v-1l1-1c3-4 6-8 7-12 2-6 6-7 12-5l-11 35a164 164 0 0 0-2 5v2l-1 2-2 7-2 5-11 35-4 11h-2v-33l1-17v-2l4-13 1-2z" class="P"/><path d="m167 121-1-5 1-2c6-1 8 2 11 7 3 9 9 16 13 25l2 3 5 12c6 16 6 32 5 48l-1 9-2-1-19-56z" class="S"/><path d="m220 290 1 2 1 3 6 16 2 5 3 11 1 2 8 26a14 14 0 0 0 1 2l-2 3c-3 0-7 0-8-2l-10-19-2-3-12-34-1-6-1-4v-33l1-4 4 11 3 6v2l4 13a25 25 0 0 0 1 3zm-5-27-1-2 2-4c10 12 22 23 29 38a44 44 0 0 0 1 3 88 88 0 0 1 1 4l2 6v3l1 3v3a64 64 0 0 0 1 4l2 14a17 17 0 0 0 1 2v12l-6 7-7-19-2-6-3-10-2-3v-1a9 9 0 0 0-1-2l-13-40-1-2v-1l-2-6-2-3" class="K"/><path d="m160 119 2 2 2 4 2 5 23 69 7 19v2l-3-1-15-18-5-6-9-18-1-2a62 62 0 0 1-1-4 10 10 0 0 0 0-2l-1-8-2-8v-2l-1-6-1-3-1-19 1-2a81 81 0 0 0 3-2z" class="R"/><path d="M269 400v-5a11 11 0 0 0-1-2v-2a12 12 0 0 0-1-2l-2-14v-2l26 2h4l4 1 3 1 3 1v3l-7 11-2 5-6 10-1 3-10 18-4 2-1-3-1-7-1-3-1-7-1-4v-4l-1-2zm-123 36 6-12a85 85 0 0 0 1-3l2-3a42 42 0 0 0 1-3l15-29 23 33 2 3 1 4-1 1-9 2a14 14 0 0 0-2 1l-17 3-3 1-7 1-3 1h-3a179 179 0 0 1-6 0z" class="Q"/><path d="m105 95 22-39 6-9 2 1 10 55h-19l-5-1-11-1-6-1 1-5z" class="T"/><path d="m196 256-1 5v2l-12 37-11 33-2 6-2 4-5 12h-2c-4-3-4-8-3-12l2-14c1-2 0-4-1-6l2-1 2-9v-2l1-4a44 44 0 0 0 1-3l3-13 1-3 12-16 12-16h3z" class="K"/><path d="m179 75-11 15c-12-15-17-32-26-48h2l47 8c3 1 4 2 2 5l-14 20zm-86 70v16l-2 5h-2l-38-11-3-2 2-3 36-32c2-2 4-5 5 1v2a44 44 0 0 0 0 3l1 9v7l1 5z" class="T"/><path d="m347 176 14-12 2 1c-1 21-5 42-8 63l-3 1c-1-2-1-4-3-5l-23-25c-2-2-2-5 1-7l20-16z" class="P"/><path d="m316 165-2-4a873 873 0 0 1 0-36l2-9 7 5 33 29c4 3 4 5-1 6l-32 7-7 2z" class="U"/><path d="m279 60 24 41-41 2 2-16 6-35 1-3 3 2 5 9" class="Q"/><path d="m334 269 19-17h2l9 60-1 1-16-11-20-17c-3-3-3-4 0-7l2-3 5-5v-1" class="P"/><path d="m257 56-18 33h-2c-8-12-17-24-24-37l4-2 40-8 5 1-1 4-4 9" class="U"/><path d="m64 258 19 21c3 3 3 5-1 7l-27 22-9 5c2-21 7-41 10-63z" class="T"/><path d="m80 200-19 23-5 2-2-5-9-50 1-6 39 30z" class="Q"/><path d="m202 415-23-34c-2-2-3-4-1-8 2-3 4-3 7-3h18l1 37v8h-2" class="R"/><path d="m284 340 9 11a25 25 0 0 0 2 2l2 3 2 2 4 8v2l-2-1h-2l-31-4-6-2c-1-5 1-8 4-12l10-11 5-2 3 4z" class="U"/><path d="m85 209 8-9 3 6v30H61l24-27z" class="S"/><path d="M104 360v-43l1-6v-2c2-2 4-3 6 0l15 20v4l-21 27h-1z" class="Q"/><path d="m224 395-13 18-2-1v-42h23c3 0 4 5 2 8l-8 12a46 46 0 0 0-1 3l-1 2z" class="T"/><path d="M307 335v7l1 8-1 7-2 1-17-20-4-6c-1-4 2-7 4-10l12-14 3-1 2 3 1 11v8zM102 162l-1-34v-11l1-1 9 11 2 3 3 4 2 2 6 9-1 4-3 4-4 5-9 10-2 1-1-2a137 137 0 0 1-2-5z" class="S"/><path d="M321 238h-8v-32c0-4 2-4 5-2l23 25 7 9zM147 113c1 4 0 7-3 10l-2 3-2 3-12 11-4-5-20-25h12l9 1a31 31 0 0 0 3 0l12 1 7 1z" class="P"/><path d="M287 153c-2-3-6-6-4-11v-1l13-15 9-9c0 17 0 35-2 52h-2l-11-13-3-3z" class="S"/><path d="M284 111h16v3a110 110 0 0 0-7 10l-2 2-7 9-1 2c-3 5-6 2-8 0l-12-14c-2-2-2-5-3-8 0-1 1-2 3-2l7-1h9l5-1z" class="Q"/><path d="m201 103-24 1-3-6 25-35h2v40z" class="N"/><path d="M233 99c0 4-1 6-5 5h-21V61l26 38z" class="J"/><path d="M117 366h-9l2-5 2-2 16-20c3-3 5-3 7 0l14 19v3l-13 3a12 12 0 0 0-2 0l-15 2h-2z" class="K"/><path d="M75 242h20v35l-32-34v-1z" class="J"/><path d="m338 243 9 1 1 1-17 16a25 25 0 0 0-2 2h-1l-1 2-9 8c-1 1-2 2-3 1l-2-3a566 566 0 0 1 0-25l3-3h22z" class="R"/><path d="m168 442 34-7-1 19c-15 1-29-1-42-9zm-37-265-9-2-2-1c-5-1-3-4-1-7l2-2 9-10 5 1 20 25-1 2a21 21 0 0 0-2 0 76 76 0 0 1-3-1l-9-2-5-2h-2a24 24 0 0 0-2-1z" class="J"/><path d="m238 441 17 4v2l-43 9v-20l23 4a60 60 0 0 0 3 1z" class="S"/><path d="M94 405c-9-14-9-10 3-22 9 13 16 26 23 40l-2 2-24-20z" class="O"/><path d="m77 384-16-26c-2-3-3-7-3-11l7 4 23 19 2 3-6 10-7 1z" class="N"/><path d="m156 295-4 5-1 3-16 18h-2l-14-18 36-9 1 1zm36-158-6-10a9 9 0 0 0-1-2l-4-11h18c1 0 3 3 3 5a732 732 0 0 1-2 34l-6-11-2-5z" class="S"/><path d="m145 135 1-1v-1l5-1 1 6 1 4 1 3v3l1 2v3l2 8 1 12-2 1-15-18c-6-6-6-8 0-14l2-4 2-3z" class="N"/><path d="m164 125-1-4h3c6 13 10 27 15 40l19 56 2 1a13 13 0 0 1-5 2l-1-2-7-19-23-69-2-5z" class="B"/><path d="m173 38-16-4 2-2c11-4 23-6 36-6l3 3 1 13zM40 287l-1 4h-2c-3-15-5-30-5-46h14z" class="O"/><path d="m35 192 1-5c4 3 10 34 10 47H31l4-42z" class="J"/><path d="m340 123-18-15c-4-4-4-6 0-11 6-5 6-5 10 1l18 29 1 4-1 1-10-9zm-43 290 2-3 1-2 4-6 2-5 2-4 2-4 2-2 1-3 4 1c8 8 8 10 0 18l-18 18-4 3c-4 0-1-3-1-5l1-2 1-2 1-2z" class="O"/><path d="m154 336-1 7h-2l-6-6-2-3-3-3v-6l5-8 3-3 5-7 3-3 3-3h1l-5 33a18 18 0 0 0-1 2" class="N"/><path d="m289 306-5 7-2 2-1 1c-4 6-5 6-10 0l-13-16-3-5 1-1 29 8h2l2 1v3z" class="S"/><path d="m276 154 15 18-28 7c-3-1-6 2-6-2l7-10a11 11 0 0 0 1-2l7-7a28 28 0 0 0 1-3h1l2-1z" class="N"/><path d="m328 384-4-5c-2-3-2-6 2-10l22-19 5-2-1 3-17 30c-1 2-3 6-7 3z" class="O"/><path d="M207 149v-35h20l-9 19-1 2-8 14h-2" class="J"/><path d="m293 64-5-8h4l26 25c2 2 2 3 0 5l-6 8-6-8zm-193 3 14-12 2 1-1 4-18 31c-2 4-4 4-7 0l-4-6c-1-1 0-3 1-4l13-14zm108-26V27c13-2 25 1 38 6l-1 2-12 2-2 1-18 3-2 1a6 6 0 0 1-2 0l-1-1z" class="O"/><path d="m278 238-5-2 4-4 4-3 5-4 3-2 11-9 3 2-1 21v1h-24z" class="N"/><path d="M80 94c7 9 7 9-1 17l-19 17-4 3v-4l18-31 6-2" class="O"/><path d="m265 159-12 14h-2l1-11v-2l3-16v-2l2-8 2-1 11 15 1 2-1 1-2 3-2 2a36 36 0 0 0-1 3z" class="N"/><path d="m368 202 1-9h2c6 13 5 28 6 42h-14z" class="J"/><path d="m119 221 17 14v1h-30v-24z" class="R"/><path d="m117 259-11 7v-24h28l1 1-16 14a59 59 0 0 0-3 2z" class="J"/><path d="m223 350 4 10h-18v-36h1l4 7 1 3 7 13 1 3z" class="Q"/><path d="m278 245-2-1v-2l23 1c3 0 4 1 4 4v1l-1 13-2 2-11-7-2-2a440 440 0 0 0-9-9z" class="O"/><path d="M256 329v-3l-1-2-2-16-1-4 1-1h1l3 4 12 15c3 4 3 7-1 10l-2 3-2 3-4 3-2-1-1-7a93 93 0 0 0-1-4zm-62 7v1l5-7 1-4 3 2v32h-18l5-10 1-3 1-1 1-3 1-7zm176-47-3-19v-2l-3-22h13l-5 42a5 5 0 0 1-2 1" class="N"/><path d="m172 333 11-33 12-37 4 2-22 66-5 2" class="C"/><path d="m319 169 8-1 2-1 13-2v2l-24 12-5 2c0-5-2-9 4-11l2-1z" class="O"/><path d="m91 287 5 5-26 14-1-2c7-6 13-12 22-17zm248 18-21-11-3-5c3 0 6-2 7-1l15 12 3 2-1 3" class="V"/><path d="m110 109-6 1 20 24-5 2c-1 0-1 0 0 0l-3-2-3-5-2-2-9-11v-1l3-9 5 1v2z" class="D"/><path d="m165 388-11 19h-1c2-11 6-20 9-31 6 3 6 4 3 12M78 167l11 3c5 1 7 3 5 9-8-2-15-7-22-13l6 1zm237 138-2-6 2-1 23 11-1 2c-7 0-13-3-20-5a18 18 0 0 0-2-1zm1-120 21-11 2 1-7 7-7 6c-3 2-6 3-9-1v-2zM73 175l18 8v4c-1 3-4 3-6 1a157 157 0 0 1-13-11l1-2m183 226-7-12a19 19 0 0 0-2-3l-1-6 1-5h2l5 13 1 3 2 10h-1m1-301c0 5-3 4-7 4l9-27h1l-3 23zm4 296a143 143 0 0 0-5-12l-2-12c3-1 5-2 6 3l1 2 2 18-2 1zM245 98c-1-2-2-4-1-6l7-16 2 1v4l-5 16-3 1m-85 1c-3-7-8-13-7-20l2-1 8 16c1 2 1 5-3 5zM77 309l-1-1 18-9c3 5 1 7-3 8a236 236 0 0 1-14 2z" class="V"/><path d="M207 259a689 689 0 0 1-2 30l-2-26 4-4z" class="H"/><path d="m152 375 5-6 1 1c0 8-3 14-8 21l2-16m1-271h-2l-4-21h2l6 20-2 1z" class="V"/><path d="m193 256-12 16 3-9a54 54 0 0 1 6-9h1l2 2z" class="B"/><path d="M392 229v1a630 630 0 0 1 0-1" class="K"/><path d="m289 256 11 7-3 3a60 60 0 0 1-10-8 43 43 0 0 1 2-2" class="B"/><path d="M257 177c0 4 3 1 6 2l-2 4-4 1-2-8h1l1 1z" class="C"/><path d="M157 161a22 22 0 0 1-2-8h4l1 8h-3m-47-59h11c-3 3-8 3-11 0" class="D"/><path d="M223 13h12l2 2-14-2z" class="J"/><path d="m226 177-3 12-2-1 5-11" class="B"/><path d="m217 266 1 6h-4l-2-6 2-1 3 1z" class="G"/><path d="M206 343v-13h1v23h-1z" class="D"/><path d="m284 333 4 5-4 1-3-3 3-3z" class="G"/><path d="M338 243h-11a75 75 0 0 1 11 0" class="I"/><path d="m306 321-1-11a74 74 0 0 1 1 11" class="G"/><path d="M275 138c2 1 5 4 7-1l1 4c-3-1-7 2-8-3" class="C"/><path d="m260 437 7-2c1 2-1 5-4 4l-3-2z" class="E"/><path d="m281 228-4 4-1-4 2-2 1 1-1-1 3 2zM92 133l-1-9 1 9m163 216-1-9 1 9m21-99-6-4 7-1v1l-1 4z" class="B"/><path d="m173 195 5 5-7-1z" class="D"/><path d="m302 205 1-8c3 3 3 5-1 8" class="B"/><path d="m357 374-4 8a69 69 0 0 1 4-8" class="L"/><path d="m308 350-1-8 1 8" class="G"/><path d="M104 317v8a38 38 0 0 1 0-8" class="H"/><path d="m249 239 8-1-8 1" class="F"/><path d="M191 254h-1l-1-5 2-2 2 2-2 5zm-86 21v8-8M73 175l-1 2-4-2v-2l5 2" class="C"/><path d="m116 158 4-5c0 2 1 5-4 5" class="D"/><path d="m150 242-8 3 8-3" class="C"/><path d="m155 304-2 3-2-4 1-2 3 3z" class="B"/><path d="m147 113-7-1a25 25 0 0 1 7 1" class="D"/><path d="m270 112-7 1 7-1" class="F"/><path d="m199 265-4-2v-2h5l-1 4z" class="I"/><path d="M303 194h-5c1-3 2-4 5 0" class="B"/><path d="m316 165 7-1-7 1" class="F"/><path d="m230 155 1-5 3 3v2h-4z" class="B"/><path d="M322 243h-6 6" class="I"/><path d="M126 103h6-6" class="D"/><path d="m249 308-1-6 1 6" class="B"/><path d="m154 145-1-3h4v3h-3z" class="D"/><path d="m295 424 4-3c2 3 0 4-4 3" class="E"/><path d="m216 256-2 5-1-4 3-1z" class="B"/><path d="m153 138-2-6a22 22 0 0 1 2 6" class="D"/><path d="m102 162 1 5c-3-1-2-3-1-5" class="B"/><path d="M307 335v-6 6" class="G"/><path d="M391 219c3 1 2 4 1 6l-1-6" class="K"/><path d="M302 46c2-1 4 0 5 3l-5-3" class="J"/><path d="m262 361 6 2-6-2" class="L"/><path d="m299 44 3-4v5l-3-1" class="J"/><path d="m239 331 2 6a25 25 0 0 1-2-6" class="G"/><path d="M146 436h6-6" class="I"/><path d="m200 326-1 4-2-1 2-3h1z" class="C"/><path d="M381 166a23 23 0 0 1 2 6l-2-6" class="K"/><path d="m275 272 5 2a16 16 0 0 1-5-2m-50-101 1-5-1 5" class="B"/><path d="M248 171v-5 5" class="C"/><path d="m303 216-3-2 2-1 1 3z" class="B"/><path d="m216 427 6 1c-2 0-5 3-6-1" class="E"/><path d="M252 141v-5c3 2 1 3 0 5" class="C"/><path d="m93 145-1-5 1 5" class="B"/><path d="m107 182 1 5c-3-1-2-3-1-5m33-53 2-3 2 4-4-1" class="D"/><path d="M284 111h-5 5" class="F"/><path d="m135 179 5 1-5-1" class="D"/><path d="m166 257 5-3-5 3" class="C"/><path d="M391 262v5-5" class="K"/><path d="M370 289h2l-1 3-1-3" class="L"/><path d="m306 397-2 5 2-5" class="E"/><path d="m169 344 1-5c1 2 2 4-1 5" class="C"/><path d="m250 400-2-4 2 4" class="E"/><path d="M104 95v5c-4-2-1-3 0-5" class="D"/><path d="m160 119-3 2h-1l4-2" class="H"/><path d="m235 256-5-2 5 2" class="F"/><path d="m251 20 6 1-6-1" class="J"/><path d="m135 156-5-1 5 1" class="D"/><path d="M314 125v4-4" class="F"/><path d="m165 220-4-1 4 1m85-64v-4 4" class="C"/><path d="m283 276 4 2-4-2m-32 45-1-4 1 4" class="B"/><path d="m217 266-3-1 1-2 2 3z" class="H"/><path d="m257 306-3-3 3 3m8-70 4-3-4 3" class="B"/><path d="m230 315-2-4 2 4" class="G"/><path d="m223 242-1 2-2-1 3-1" class="F"/><path d="m327 266 1-3 2 5-3-2" class="D"/><path d="m256 329 1 4-1-4" class="B"/><path d="m297 397 1-5-1 5" class="E"/><path d="m191 138 3 4-3-4" class="F"/><path d="M295 375h-4 4" class="E"/><path d="m126 196 3 1-3 1v-2" class="C"/><path d="m109 376-3 2c-1-3 1-2 3-2" class="B"/><path d="M251 149v-4 4" class="C"/><path d="m145 185-4-1 4 1" class="D"/><path d="m124 149 1-4c2 2 1 3-1 4" class="G"/><path d="m208 408 1 4c-3-1-2-2-1-4" class="I"/><path d="m270 406 1 4-1-4" class="E"/><path d="m245 35 1-2 2 1-3 1" class="C"/><path d="m154 183 1-2 2 2h-3" class="D"/><path d="m290 284-4-1 4 1" class="B"/><path d="m339 305 1-3 2 1-3 2" class="C"/><path d="m310 389-2 4 2-4" class="E"/><path d="M156 174h2l-1 3h-1z" class="D"/><path d="m272 207-4 2 4-2m-115 88-2-1 2-1v2" class="B"/><path d="m151 209 3 1-3-1" class="C"/><path d="m258 340 2 1-2 2v-3z" class="B"/><path d="m148 314-3 3c0-1-1-4 3-3" class="I"/><path d="m167 114-1 2-2-2h3z" class="H"/><path d="m140 331 3 3-3-3" class="I"/><path d="m277 30 3 1-3-1" class="J"/><path d="m272 417 1 3-1-3" class="E"/><path d="m155 289 3-1-3 1" class="B"/><path d="M305 381v-3c2 0 3 1 0 3" class="E"/><path d="m128 276 2-1-1 2-1-1z" class="C"/><path d="M302 376h-3 3m-64 64h-3 3m59-27-1 2-1-1 2-1" class="E"/><path d="M131 275c0-1 1-2 3-2l-3 2" class="C"/><path d="m301 114-1-3 1 3" class="F"/><path d="m256 402 1-1 1 2-2-1" class="E"/><path d="m206 293 2 3-2-3" class="H"/><path d="M316 345v3-3" class="F"/><path d="M380 320v3-3" class="L"/><path d="m165 434 3-1-3 1" class="I"/><path d="M244 434h3-3" class="E"/><path d="m250 314-1-3 1 3" class="B"/><path d="m155 436 3-1-3 1" class="I"/><path d="m193 343-1 2-2-5v-1z" class="C"/><path d="m303 307-3 1a7 7 0 0 1 3-1" class="G"/><path d="M164 304v3-3" class="B"/><path d="m290 306-1-3 1 3" class="F"/><path d="m295 417-1 2h-3zm-78 5-1 3 1-3" class="E"/><path d="m149 361 1-3a7 7 0 0 1-1 3" class="H"/><path d="M305 358h2v2l-2-2z" class="G"/><path d="m112 359-1 2a8 8 0 0 1-2 0l3-2z" class="H"/><path d="m303 368 1-2 2 1-3 1m83-72v3-3" class="L"/><path d="M116 110h-3 3m12 1h-3 3" class="D"/><path d="M140 372h-3 3" class="B"/><path d="m163 175 1 2-1-2m-7-54h1l-1 2v-2" class="F"/><path d="m390 214 1 3-1-3" class="K"/><path d="M342 167v-2h2l-2 2" class="F"/><path d="M207 149h2l-1 3h-1v-3z" class="G"/><path d="M214 219h3l-2 2-1-2z" class="B"/><path d="m293 124 1-2 2 1-3 1" class="C"/><path d="m220 248-1 2-3-1 1-1h3z" class="V"/><path d="m289 223-3 2 3-2" class="B"/><path d="m142 126 2-3-2 3" class="D"/><path d="m209 412 2 1-1 2-1-3" class="I"/><path d="m186 247 2-3-2 3" class="C"/><path d="M227 174v3-3" class="B"/><path d="m229 253-3-1 3 1" class="F"/><path d="M196 256h-2 2" class="B"/><path d="m149 182 3 1-3-1" class="D"/><path d="m264 338 2-3-2 3" class="B"/><path d="m254 407-2-3 2 3" class="E"/><path d="m140 207-3-1 3 1m147-53 2 2-2-2" class="C"/><path d="m266 210-3 2 3-2" class="B"/><path d="M215 272h3l1 1-2 1h-1l-1-2z" class="H"/><path d="M276 242v2l-2-2h2" class="B"/><path d="m224 395 1-2 1 4z" class="E"/><path d="m129 255-3 2 3-2" class="I"/><path d="m217 274 2-1 1 2-3-1m82 84-2-2 2 2" class="G"/><path d="M202 415h2a3 3 0 0 1-2 0" class="I"/><path d="M147 371h-2 2" class="B"/><path d="M149 186h-2l1-2 1 2z" class="D"/><path d="m231 38 2-1-2 1" class="C"/><path d="M299 367h2-2" class="L"/><path d="M134 364h2-2m-26 3h2-2m207-182 1 2-1-2" class="H"/><path d="M255 142v2-2" class="C"/><path d="m121 165-2 2 2-2" class="D"/><path d="M117 366h2-2" class="H"/><path d="M208 165v2-2" class="F"/><path d="m185 348 1-3-1 3" class="C"/><path d="m256 210 2-1-2 1m-40-1v3-3" class="B"/><path d="m283 137 1-2-1 2" class="C"/><path d="M89 166h2-2" class="B"/><path d="m196 421-2-2 2 2" class="I"/><path d="M151 343h2a3 3 0 0 1-2 0" class="H"/><path d="m187 345 1-2-1 2" class="C"/><path d="M219 199v2-2" class="B"/><path d="m219 418-1 2 1-2" class="E"/><path d="M171 347v2-2m19 0v3-3" class="C"/><path d="m224 349-2-2 2 2" class="H"/><path d="m110 178-1 2 1-2" class="D"/><path d="m295 353-2-2 2 2" class="G"/><path d="M161 356h2-2" class="H"/><path d="m243 357-1-2 1 2" class="G"/><path d="M105 169h2l-1 1-1-1z" class="D"/><path d="m255 391-1-3 1 3" class="E"/><path d="m111 389 2 2-2-2" class="B"/><path d="m267 389 1 2-1-2m-42 4 1-3-1 3m75 15-1 2 1-2m-32-15v2-2" class="E"/><path d="M120 175h2-2" class="D"/><path d="M162 169v2-2" class="F"/><path d="M261 396h2l-1 2-1-2zm-36 13-1 3 1-3m44-9 1 2-1-2" class="E"/><path d="m319 169-2 1 2-1" class="F"/><path d="m289 410 1-3-1 3" class="E"/><path d="m119 404 2 2-2-2" class="B"/><path d="m329 167-2 1 2-1" class="F"/><path d="m205 409-1-2 1 2" class="I"/><path d="M271 150v-2 2" class="C"/><path d="M131 178h2-2" class="D"/><path d="m272 180-2 1 2-1" class="C"/><path d="M131 181h-2 2" class="D"/><path d="M133 373h-2 2m-8 1h-2 2" class="B"/><path d="M265 373v2-2" class="E"/><path d="M155 415v2-2" class="I"/><path d="M118 375h-2 2" class="B"/><path d="m145 135-1 2 1-2" class="D"/><path d="m265 165-1 2 1-2M207 33l1 2-1-2" class="C"/><path d="m261 377-1-2 1 2" class="E"/><path d="M287 177h-2 2" class="C"/><path d="m313 384-1 3 1-3" class="E"/><path d="M267 26h2-2" class="J"/><path d="m109 385 2 2-2-2" class="B"/><path d="m193 148-2-2 2 2" class="F"/><path d="m247 387 2 2-2-2" class="E"/><path d="m297 297 2-2-2 2" class="B"/><path d="m186 250-2 2 2-2" class="C"/><path d="m169 288-1 3 1-3" class="B"/><path d="m291 126 2-2-2 2" class="C"/><path d="m144 292 2-1-2 1" class="B"/><path d="m223 294-2-2 2 2" class="G"/><path d="M300 294v-2 2" class="B"/><path d="m268 154 2-2-2 2" class="C"/><path d="m185 125 1 2-1-2" class="F"/><path d="m246 297-1-2 1 2" class="B"/><path d="m221 289-1-2 1 2" class="G"/><path d="m273 155-1 3 1-3m-83 89-1-2 1 2" class="C"/><path d="M287 302h-2 2" class="F"/><path d="M385 301v2-2" class="L"/><path d="m146 133-2-1 2-1v2z" class="D"/><path d="m221 337 2 2-2-2" class="H"/><path d="M367 268v2-2" class="L"/><path d="M200 153h2-2" class="G"/><path d="m203 261-1-2 1 2" class="H"/><path d="m329 263 2-2-2 2" class="I"/><path d="m162 262-2 2 2-2" class="C"/><path d="M102 115v1h-1l1-1" class="G"/><path d="m276 154-2 1 2-1M172 257l-2 2 2-2" class="C"/><path d="m117 259 2-2-2 2" class="I"/><path d="m299 268-2-2 2 2" class="B"/><path d="m334 269-2-1h1l1 1" class="D"/><path d="M229 159v-2 2" class="B"/><path d="m142 273-2 1v-1z" class="C"/><path d="M91 121v-2 2m212 154v-2 2" class="B"/><path d="m329 275-2 2 2-2" class="D"/><path d="m239 278 2 2-2-2m63 7 1-2 1 1-2 1z" class="B"/><path d="m182 252-2 2 2-2" class="C"/><path d="m186 219-1-2h1v2" class="D"/><path d="m265 159 1-2-1 2m-92 65h-2 2" class="C"/><path d="m234 319 2 2-2-2" class="G"/><path d="m133 322 2-1-2 1" class="I"/><path d="m213 150-1 2 1-2" class="G"/><path d="m255 324 1 2-1-2" class="B"/><path d="M207 217h2l-1 2-1-2z" class="F"/><path d="M152 421v2-2" class="I"/><path d="m234 329-1-2 1 2" class="G"/><path d="m378 327-1 2 1-2m3-11v2-2" class="L"/><path d="m228 213-2 2 2-2" class="H"/><path d="M207 213v2-2" class="F"/><path d="m216 333-2-2 2 2" class="H"/><path d="M376 333v2-2" class="L"/><path d="M155 336v-2 2" class="H"/><path d="m143 335 2 2-2-2" class="I"/><path d="M254 337v-2 2" class="B"/><path d="m211 42 2-1-2 1m-3-1 1 1-1 1v-2zm-60 170h-3 3" class="C"/><path d="m282 315 2-2-2 2m-55-73h-2 2" class="F"/><path d="m266 431-1-2 1 2" class="E"/><path d="m259 133-2 1 2-1m56 172 2 1-2-1" class="C"/><path d="M384 305v2-2" class="L"/><path d="M155 241h-2 2" class="C"/><path d="m185 430 2-1-2 1" class="I"/><path d="m273 427 2 3-2-3" class="E"/><path d="M105 309v2-2" class="H"/><path d="M383 309v2-2" class="L"/><path d="M203 312v-2 2" class="H"/><path d="M252 160v2-2" class="C"/><path d="M278 238h2-2m-115 73v2-2" class="B"/><path d="M217 235v2l-1-1 1-1" class="F"/><path d="m217 135 1-2-1 2m16 180 1 2-1-2" class="G"/><path d="m125 151 1-1v1h-1" class="D"/><path d="m267 424-1-1h1v1" class="E"/><path d="m255 131-1-1h1v1" class="C"/><path d="m103 104 1-1-1 1m46 16a3 3 0 0 1 0-1h1l-1 1z" class="D"/><path d="m300 404-1 1v-1h1z" class="E"/><path d="M103 87v-1 1" class="D"/><path d="m196 218 1 2h-1v-2z" class="F"/><path d="M361 113h2v1a6 6 0 0 1-1-1h-1z" class="K"/><path d="M303 238v-1h1a5 5 0 0 1-1 1zM100 127l1 1h-2a3 3 0 0 1 1-1m203 121v-1l1 1h-1m-38 45 1 1-1-1m33-10 1 1-1-1" class="B"/><path d="M105 106" class="D"/><path d="m225 259 1 1-1-1m27 44c1 0 0 0 0 0" class="B"/><path d="M221 133c1 0 0 0 0 0z" class="G"/><path d="M197 427v-1 1" class="I"/><path d="M159 323s0-1 0 0m105-115c1 0 0 0 0 0m35-19h1-1" class="B"/><path d="M104 360h1-1" class="H"/><path d="M70 179c1 0 0 0 0 0" class="C"/><path d="M256 384" class="E"/><path d="M105 388c1 0 0 0 0 0" class="B"/><path fill="#fff" d="m237 15-2-2 2 2m111 378c-1 0 0 0 0 0"/><path d="m278 226 1 1-1-1zm-81 103 2 1-5 7c-3-4 2-5 3-8m-4 14-3-4 4-3-1 7zm83-93a14 14 0 0 1 1-4c4 2 7 5 9 8l-1 1a32 32 0 0 0-2 0l-7-5zm13 6-2 2-2-1v-2a15 15 0 0 1 2 0l2 1" class="W"/><path d="M285 255v2l-2-2h2" class="B"/><path d="M154 145h3l2 6-1 2h-3v-3l-1-2v-3z" class="W"/><path d="m164 125 2 4-2-4" class="H"/><path d="m158 153 1-2v2h-1" class="F"/><path d="m116 134 3 2-3-2m-5-7 2 2-2-2" class="G"/><path d="m154 148 1 2-1-2" class="D"/></svg>