<svg version="1.1" id="Layer_1" xmlns="http://www.w3.org/2000/svg" xmlns:xlink="http://www.w3.org/1999/xlink" x="0px" y="0px"
	 width="100%" viewBox="0 0 512 736" enable-background="new 0 0 512 736" xml:space="preserve">
<path fill="#000000" opacity="1.000000" stroke="none" 
	d="
M41.692722,490.000061 
	C41.772339,470.176117 43.521217,451.066071 46.202038,431.869202 
	C49.198597,410.411316 53.595020,389.307343 59.556843,368.658051 
	C67.256836,341.988373 76.647171,315.824188 87.675865,290.236542 
	C95.244759,272.675995 104.201241,255.776779 111.438324,238.079590 
	C113.062904,234.106903 115.638680,230.534454 117.553383,226.667252 
	C127.143570,207.297440 137.720367,188.451950 148.952438,170.019913 
	C161.115768,150.059708 174.535370,130.887344 188.092270,111.840172 
	C200.330887,94.645164 212.836777,77.661568 226.481796,61.510708 
	C234.498413,52.021854 241.727722,41.848282 248.997803,31.756947 
	C252.374115,27.070410 256.488342,23.865089 261.952728,22.212244 
	C267.456177,20.547585 273.335541,22.333099 277.163971,26.913467 
	C290.016449,42.290310 302.136230,58.232975 314.226624,74.213272 
	C329.746155,94.726006 344.927765,115.464790 358.992889,137.001007 
	C374.079010,160.100616 388.195618,183.762253 401.819489,207.777527 
	C409.095673,220.603500 415.664185,233.776169 422.622894,246.734818 
	C429.741058,259.990479 435.701447,273.890625 441.731903,287.722137 
	C447.367279,300.647614 452.913696,313.600311 457.975403,326.755310 
	C460.176788,332.476410 461.779816,338.427460 463.971954,344.152557 
	C469.626068,358.919098 472.702667,374.422302 477.100372,389.545715 
	C479.181671,396.703217 480.948242,403.947906 481.586700,411.505585 
	C481.952423,415.834381 483.614716,420.162201 484.315125,424.575073 
	C490.704529,464.831238 491.769440,505.087006 483.152344,545.145081 
	C476.211212,577.412292 461.837921,606.160767 441.923309,632.557922 
	C427.585419,651.562988 410.313324,667.109680 391.122986,680.630188 
	C379.861938,688.564209 367.581604,695.052795 354.742737,700.300720 
	C344.454163,704.506287 334.059937,708.446716 323.280365,711.167542 
	C310.216919,714.464722 297.049957,717.215088 283.445435,717.107300 
	C269.115875,716.993713 254.781403,717.268616 240.455536,717.012695 
	C232.327606,716.867554 224.368423,715.133728 216.375687,713.550232 
	C203.620026,711.023132 191.516983,706.691406 179.409027,702.152161 
	C166.242767,697.216248 154.069107,690.459717 142.461182,682.681274 
	C119.358986,667.200500 99.431511,648.507019 83.173843,625.713196 
	C67.924561,604.333191 56.432468,581.347107 49.558537,556.069275 
	C43.726124,534.621460 40.644936,512.796448 41.692722,490.000061 
M205.243851,361.628540 
	C202.973236,368.908081 200.328384,376.043701 197.623550,383.179108 
	C191.686584,398.841003 186.435715,414.761871 180.595901,430.462128 
	C177.564835,438.611176 175.168793,446.708588 175.200821,455.560211 
	C175.238373,465.932892 176.986191,476.088104 178.132034,486.318573 
	C180.050949,503.450989 182.192856,520.558594 184.278992,537.672058 
	C184.730743,541.377869 185.920227,544.672424 188.955750,547.262390 
	C193.955109,551.527832 199.819794,554.232422 205.538254,557.270691 
	C221.083679,565.530212 236.757202,573.583923 251.958832,582.441895 
	C261.289703,587.878967 269.355927,587.079346 278.641693,582.195740 
	C297.611603,572.218872 316.145233,561.388306 335.700592,552.506348 
	C339.675842,550.700806 343.819855,547.670410 344.483337,542.907532 
	C345.812073,533.368835 346.789978,523.783020 348.157623,514.236145 
	C350.294006,499.322754 351.258392,484.224091 353.828522,469.396179 
	C355.659851,458.830536 354.257416,448.559906 351.683746,438.815216 
	C347.418823,422.666962 341.301392,407.007538 335.396576,391.322784 
	C328.025482,371.743378 321.363892,351.891602 314.658813,332.068512 
	C309.930878,318.090851 304.941986,304.249390 298.647980,290.876190 
	C294.530548,282.127686 289.886353,273.735413 284.504272,265.705444 
	C279.057312,257.578613 274.033661,249.166611 268.532654,241.078064 
	C265.812286,237.078064 263.639557,237.366638 261.040314,241.505692 
	C258.741394,245.166580 256.628418,248.945389 254.292572,252.581726 
	C241.844955,271.959839 228.327362,290.649750 221.734543,313.299103 
	C217.056305,329.371002 210.912628,345.016327 205.243851,361.628540 
M375.480713,325.953308 
	C378.916473,308.185242 384.993561,291.088013 388.803650,273.408539 
	C390.306030,266.437042 392.642303,259.646027 394.164825,252.677979 
	C395.768341,245.339493 391.091980,239.522232 381.573792,236.142654 
	C367.069489,230.992691 352.634125,225.643265 338.073395,220.659241 
	C325.040985,216.198380 312.540894,210.322876 299.319885,206.372284 
	C293.180115,204.537659 292.163788,204.999649 293.381866,211.018265 
	C295.685730,222.401825 298.525146,233.675827 301.004578,245.025406 
	C302.735291,252.947617 303.317535,261.251221 306.037537,268.798981 
	C311.288849,283.370941 321.594391,294.496948 333.481537,304.125214 
	C336.074738,306.225647 338.378601,308.578461 340.825623,310.793549 
	C348.575714,317.809021 355.883575,325.380432 364.485229,331.385315 
	C372.333221,336.864044 372.823242,336.534882 375.480713,325.953308 
M228.158035,244.852707 
	C228.834793,241.768738 229.430115,238.664169 230.204147,235.604797 
	C232.238251,227.564957 234.398361,219.556854 236.412384,211.512100 
	C237.554245,206.951035 235.952194,205.495285 231.503387,206.883041 
	C228.022720,207.968796 224.517212,208.987732 221.081772,210.203201 
	C208.879028,214.520569 196.633209,218.729141 184.532181,223.317673 
	C170.117950,228.783356 155.121475,232.728516 141.394012,240.025864 
	C137.809845,241.931168 136.028488,244.479126 136.301575,248.316299 
	C136.642624,253.108795 137.151550,257.878632 138.412506,262.575226 
	C142.794525,278.896637 147.018478,295.260529 151.283737,311.613190 
	C153.441528,319.885986 155.558960,328.169312 157.722763,336.556915 
	C162.074036,335.802460 164.235138,333.225800 166.492920,330.854095 
	C178.767960,317.959778 192.508820,306.702362 206.181686,295.378723 
	C212.307922,290.305084 217.699997,284.705353 220.229507,277.009186 
	C223.595642,266.767517 225.581909,256.164551 228.158035,244.852707 
M455.786011,424.169037 
	C455.675964,419.553009 456.424133,414.736542 452.524323,411.046936 
	C449.372864,408.065308 446.084473,405.283142 442.199158,403.276886 
	C430.521240,397.246765 420.347015,388.928650 409.468964,381.683350 
	C401.622925,376.457550 394.029755,370.852722 386.204498,365.594452 
	C384.811371,364.658325 383.189514,363.497589 380.988586,363.835907 
	C380.786163,364.412994 380.471008,364.994385 380.382996,365.608276 
	C377.979431,382.372772 375.784332,399.170197 373.112457,415.891479 
	C372.199646,421.604126 372.171417,427.372101 370.721436,433.108337 
	C369.105865,439.499695 369.000824,446.794647 373.096680,452.397339 
	C376.227356,456.679749 380.441498,460.432068 384.408752,464.032196 
	C395.233856,473.855499 405.283600,484.454926 415.964874,494.405975 
	C417.365387,495.710693 418.562988,497.506775 421.005035,497.448700 
	C423.560059,494.187866 425.481598,490.522186 427.295441,486.808380 
	C434.279053,472.509460 441.656952,458.378296 447.962738,443.784851 
	C450.634949,437.600647 454.787292,431.943573 455.786011,424.169037 
M151.919144,457.390808 
	C156.996597,452.127625 160.153824,445.680359 159.344543,438.543274 
	C156.796524,416.072052 153.639191,393.668732 150.564789,371.260101 
	C150.249329,368.960785 150.178207,366.304352 148.163300,364.373138 
	C142.435226,367.838501 136.790924,371.025696 131.383041,374.573273 
	C120.820808,381.502045 110.715652,389.100281 99.979340,395.792572 
	C92.370155,400.535675 85.150932,405.900787 77.690208,410.887360 
	C74.465034,413.042999 73.214218,415.887756 73.184776,419.736328 
	C73.138687,425.763550 76.704628,430.269958 78.883064,435.430298 
	C87.349403,455.485504 97.345512,474.793488 106.929977,494.303864 
	C108.935326,498.386017 110.609261,498.472961 113.858452,495.073181 
	C126.035866,482.331360 138.476654,469.854095 151.919144,457.390808 
M129.344894,531.238159 
	C125.388733,529.124939 121.385971,527.093628 117.488960,524.876465 
	C113.208969,522.441406 112.515434,522.761963 112.265579,527.727783 
	C111.747620,538.021973 110.290062,548.233276 109.948257,558.557983 
	C109.343506,576.825317 107.073647,595.013000 107.187988,613.329712 
	C107.209404,616.759827 108.474312,618.214355 111.797806,618.238831 
	C113.788513,618.253479 115.794724,618.710144 117.764755,618.566772 
	C129.239822,617.731750 140.732391,618.158386 152.214966,617.942688 
	C165.681198,617.689758 179.180832,618.138428 192.546356,615.780151 
	C195.896683,615.189026 197.702240,614.065552 196.755386,610.260254 
	C193.228638,596.086975 190.677689,581.564148 183.247253,568.714905 
	C178.949905,561.283691 174.525269,554.002808 166.803711,549.123047 
	C155.194504,541.786316 142.287048,537.367859 129.344894,531.238159 
M355.845367,555.327454 
	C347.862396,565.665283 344.626740,578.167969 340.027893,590.046692 
	C336.924286,598.063232 333.760406,606.068848 332.881104,614.781555 
	C333.612030,615.018921 334.064728,615.184021 334.527405,615.313599 
	C343.341705,617.782166 352.416016,616.278625 361.338867,617.067078 
	C380.438324,618.754761 399.583588,617.598633 418.702209,618.058960 
	C421.311096,618.121765 422.754547,617.092651 422.717560,614.260010 
	C422.617615,606.607971 423.210785,598.893860 422.443359,591.314331 
	C420.753418,574.622437 420.267670,557.858887 418.829346,541.159607 
	C418.352081,535.618225 417.667664,530.094666 417.040527,524.211792 
	C412.320221,525.834595 408.041809,526.717102 404.062042,529.052795 
	C396.047394,533.756409 387.524719,537.600952 379.557007,542.376160 
	C372.007904,546.900513 363.444580,549.477966 355.845367,555.327454 
M235.156723,650.289551 
	C238.450226,655.070557 241.957336,659.720459 244.990021,664.661560 
	C250.290070,673.296814 255.976425,681.664246 261.683838,690.026489 
	C264.017487,693.445801 266.085846,692.941223 268.205811,689.984558 
	C268.975037,688.911804 269.522644,687.682861 270.248444,686.575745 
	C276.334412,677.292725 282.502411,668.062744 288.519379,658.735291 
	C294.996002,648.695312 302.420074,639.286194 308.309723,628.854736 
	C309.843567,626.138062 310.363281,623.768188 306.811035,622.428223 
	C298.101715,619.143066 290.050354,614.497253 281.699829,610.469604 
	C272.434723,606.000854 263.044312,603.833496 253.051865,608.563721 
	C243.779022,612.953369 234.359711,617.038147 224.953552,621.139404 
	C221.379318,622.697876 220.671524,624.941101 222.541733,628.234863 
	C226.603928,635.389282 230.643707,642.556458 235.156723,650.289551 
M330.646271,156.041214 
	C331.353607,155.606445 332.008148,154.986404 332.776978,154.767319 
	C337.413208,153.446121 338.375488,151.083466 335.890472,146.737564 
	C334.319092,143.989441 332.730408,141.296768 330.869812,138.742401 
	C324.416351,129.882446 317.762573,121.156944 311.611694,112.090797 
	C302.550140,98.734406 292.379486,86.229698 282.621277,73.408203 
	C281.085144,71.389877 279.417389,69.352455 276.635376,67.780258 
	C275.263580,80.525124 277.625824,92.476288 278.591736,104.451744 
	C279.618530,117.181602 281.678040,129.826050 283.181427,142.520248 
	C284.429443,153.058228 285.337708,163.639587 286.759399,174.152649 
	C287.582886,180.242355 289.330231,180.947662 294.781494,178.035263 
	C306.954102,171.531937 318.259583,163.596954 330.646271,156.041214 
M245.522308,154.036560 
	C245.779266,144.568436 247.752594,135.301208 248.871414,125.934761 
	C250.387085,113.246132 250.977448,100.463547 253.295151,87.845070 
	C254.405319,81.800827 254.099518,75.508636 253.444107,68.281807 
	C241.278183,79.768936 231.970062,92.124115 222.850922,104.490593 
	C212.931870,117.941795 204.168823,132.244781 194.881958,146.163177 
	C191.647812,151.010254 191.822235,152.182404 196.984879,154.991058 
	C203.251846,158.400528 209.263596,162.217911 215.369629,165.890350 
	C223.701782,170.901657 231.773422,176.436813 241.454727,180.725082 
	C242.862335,171.734436 244.186020,163.279785 245.522308,154.036560 
M322.422852,201.054504 
	C341.535675,208.128433 360.365601,216.022110 379.862915,221.948608 
	C380.951752,219.121292 379.614044,217.836487 378.840271,216.438507 
	C374.183685,208.025467 369.554321,199.595840 364.770233,191.255310 
	C360.323242,183.502411 356.547760,175.341446 350.946899,168.278351 
	C346.952667,163.241394 343.897827,162.515991 338.585388,165.825821 
	C326.167664,173.562454 313.820282,181.412109 301.451385,189.227005 
	C300.473541,189.844803 299.407532,190.456757 299.821777,192.552536 
	C306.895081,195.239319 314.281677,198.045090 322.422852,201.054504 
M172.629028,214.103867 
	C192.051682,206.965271 211.474335,199.826675 231.856461,192.335434 
	C229.624008,190.392441 228.738174,189.383667 227.646347,188.707535 
	C214.964462,180.854416 202.232986,173.081238 189.561646,165.211243 
	C186.880737,163.546143 184.475159,163.962997 182.150650,165.663528 
	C179.981400,167.250473 178.303223,169.308746 176.947189,171.646805 
	C171.128296,181.679535 164.957260,191.525269 159.559723,201.778793 
	C156.218872,208.125305 151.891418,214.022522 149.473099,220.812683 
	C151.191467,221.862488 152.477936,221.373474 153.713623,220.935867 
	C159.787567,218.784744 165.846466,216.591187 172.629028,214.103867 
M324.553070,318.593323 
	C326.343994,329.813751 331.006042,340.175568 334.402832,350.904388 
	C338.309875,363.244812 343.029083,375.328156 347.396057,387.522919 
	C351.110016,397.894165 354.824799,408.265167 358.807831,419.386353 
	C360.504456,415.896088 361.404022,413.345123 361.850983,410.504333 
	C363.318329,401.178619 364.662201,391.796783 366.884552,382.638184 
	C368.647064,375.374420 368.992584,368.135193 368.607819,360.832458 
	C368.281586,354.640594 366.752594,348.788116 361.495728,344.540039 
	C350.645111,335.771698 339.933319,326.831665 329.094116,318.049042 
	C327.544891,316.793762 325.878143,315.385925 323.154816,315.150818 
	C323.696838,316.454895 324.007233,317.201752 324.553070,318.593323 
M398.069092,494.444550 
	C388.117126,484.743774 378.165131,475.043030 367.291199,464.443573 
	C366.373871,469.225922 365.667755,472.108917 365.284943,475.034210 
	C363.028015,492.281128 360.852875,509.538788 358.634155,526.790710 
	C358.145874,530.587463 358.076538,534.266296 360.888184,537.606323 
	C376.181091,529.422363 391.226196,521.341736 406.304138,513.322876 
	C410.042084,511.334930 410.994202,508.294647 408.139343,505.049835 
	C405.078339,501.570648 402.394592,497.694397 398.069092,494.444550 
M150.563583,527.859253 
	C157.414886,530.807129 162.858826,537.016541 171.690369,537.001404 
	C168.683456,513.605103 166.972931,490.396698 163.301071,467.691650 
	C161.091812,467.224548 160.362350,468.307678 159.506592,469.020142 
	C146.604996,479.761444 134.958267,491.825012 123.135933,503.697449 
	C118.285637,508.568298 118.602287,510.431763 124.595413,513.717346 
	C133.026855,518.339722 141.527908,522.835144 150.563583,527.859253 
M163.841431,380.425079 
	C165.299423,390.219574 166.847260,400.002045 168.160583,409.815887 
	C168.554199,412.757111 169.035614,415.582031 170.688950,419.260254 
	C183.441788,383.847412 195.868408,349.340363 208.295044,314.833313 
	C207.857025,314.504333 207.419006,314.175385 206.980988,313.846405 
	C201.288910,317.326385 196.439301,322.003998 191.564377,326.504303 
	C184.132736,333.364929 176.929703,340.533478 168.663940,346.341522 
	C163.324127,350.093567 160.616821,354.500000 161.304749,360.902893 
	C161.977066,367.160278 162.800980,373.401428 163.841431,380.425079 
M128.607330,640.889954 
	C129.955521,642.115540 131.271164,643.379211 132.656982,644.560669 
	C144.369186,654.545837 155.541397,665.270203 170.829758,669.997009 
	C174.900070,671.255432 176.940659,670.392029 178.639404,666.620300 
	C180.808136,661.804932 183.474762,657.214233 185.917053,652.521606 
	C189.785446,645.088745 193.645752,637.651733 198.175232,628.935242 
	C171.743332,630.218506 146.658661,629.748718 121.084236,632.702454 
	C123.676018,635.538452 125.895485,637.967041 128.607330,640.889954 
M398.757080,631.955566 
	C377.273224,630.893677 355.789398,629.831726 334.319855,628.770569 
	C334.231628,630.218018 334.089447,630.595642 334.210480,630.846008 
	C340.322479,643.489197 346.456024,656.122131 352.589935,668.754822 
	C353.668121,670.975281 355.359528,672.068909 357.848175,671.369446 
	C359.917450,670.787903 362.078827,670.323669 363.971741,669.360107 
	C374.538330,663.981934 383.557892,656.417664 392.444855,648.716675 
	C398.151123,643.771851 403.646179,638.583374 410.206146,632.622559 
	C405.831696,632.373657 402.756012,632.198669 398.757080,631.955566 
M437.225098,345.187927 
	C435.830536,340.921997 434.357574,336.679535 433.068878,332.381866 
	C432.206055,329.504425 430.616760,328.501740 427.866180,329.895844 
	C416.908539,335.449615 405.902557,340.913330 395.046722,346.660248 
	C389.986115,349.339264 390.056335,351.735229 394.366577,355.517517 
	C399.019592,359.600616 404.535278,362.353882 409.586945,365.816925 
	C420.952362,373.608276 432.381317,381.307312 443.818939,388.992493 
	C445.116577,389.864410 446.468567,391.221130 448.716370,389.676331 
	C448.627197,386.168304 448.990601,382.502777 447.843109,378.684998 
	C444.546112,367.715607 441.545013,356.658112 437.225098,345.187927 
M86.490738,364.888184 
	C84.791725,373.610779 78.614777,381.632446 81.656914,391.715332 
	C87.477036,389.075470 91.606453,385.452301 96.097786,382.355713 
	C109.912292,372.831238 123.853081,363.489777 137.757492,354.095978 
	C140.078705,352.527740 142.307480,351.078247 138.254929,348.897217 
	C126.861687,342.765594 115.361664,336.815948 104.169907,330.334961 
	C100.033920,327.939880 98.698952,329.428558 97.224297,332.956879 
	C92.984352,343.101532 89.938728,353.638336 86.490738,364.888184 
M337.325012,667.094543 
	C331.424469,657.686523 327.597351,647.009949 320.696411,638.265564 
	C319.647095,638.824341 319.277832,638.909607 319.081818,639.141357 
	C306.044800,654.553589 295.917297,672.026062 284.258331,688.415283 
	C282.300598,691.167236 283.423523,692.560303 286.766663,692.815063 
	C292.299042,693.236633 297.666199,691.804016 302.933929,690.876343 
	C312.042328,689.272339 320.962067,686.431519 329.836578,683.704834 
	C342.222748,679.899170 342.173859,679.739990 337.325012,667.094543 
M208.076263,686.363403 
	C220.387848,689.698730 232.873184,691.812073 245.676743,691.864075 
	C245.098984,687.378967 242.052505,684.389771 239.819260,680.966309 
	C231.153580,667.682251 222.426193,654.438232 213.807205,641.124023 
	C211.480774,637.530212 209.132202,637.532410 207.009567,640.963196 
	C200.208191,651.956238 193.752655,663.144714 188.833557,675.148499 
	C187.689606,677.940063 188.594360,679.541443 191.328171,680.481384 
	C196.668350,682.317444 201.983765,684.225464 208.076263,686.363403 
M77.984825,565.521484 
	C82.838806,576.019104 87.692795,586.516785 92.910255,597.800476 
	C95.076042,592.669861 95.517189,588.416870 95.756935,584.089661 
	C96.390625,572.652344 96.729996,561.177307 97.965195,549.801880 
	C98.832504,541.814514 98.587708,533.875305 98.754494,525.910278 
	C98.814018,523.067688 97.781082,521.869324 94.834801,522.686279 
	C87.800980,524.636597 80.741554,526.494385 73.703064,528.428101 
	C70.268028,529.371826 68.991623,531.482971 69.563599,535.154419 
	C71.153961,545.362793 73.129852,555.435181 77.984825,565.521484 
M431.212494,527.573975 
	C432.015045,534.013245 431.897156,540.515259 432.415833,546.958618 
	C433.390167,559.062195 432.262695,571.248657 433.973846,583.290588 
	C434.548584,587.335327 434.709747,591.677429 437.717438,595.257935 
	C442.968597,586.693726 446.876007,577.929810 450.654022,569.129028 
	C455.496429,557.848633 459.459045,546.286377 460.481628,533.901245 
	C460.662750,531.707458 460.079620,530.650330 458.069916,529.715027 
	C450.950165,526.401550 443.467529,524.409485 435.835632,522.717468 
	C431.981445,521.862976 430.969849,523.304565 431.212494,527.573975 
M388.425812,324.808655 
	C387.375122,328.095764 386.485931,331.388794 387.751617,334.791443 
	C390.319366,334.990723 392.322998,334.117004 394.215302,333.109802 
	C403.598053,328.115875 412.917542,323.002716 422.313538,318.034210 
	C424.758392,316.741333 424.901947,315.240875 424.110474,312.737732 
	C421.007599,302.924225 417.180695,293.382172 413.021820,284.005890 
	C410.538910,278.408051 408.539795,272.420563 403.571808,266.387970 
	C398.425293,286.366150 393.573944,305.198517 388.425812,324.808655 
M128.902695,329.599457 
	C133.178574,331.317352 136.837158,334.810181 143.093338,334.689941 
	C137.484039,311.722412 132.067764,289.545197 126.609406,267.195679 
	C123.327362,268.391998 122.835022,270.511932 122.075241,272.259857 
	C116.839035,284.306091 110.901352,296.050903 106.763336,308.571228 
	C104.464050,315.528107 104.759720,316.714020 111.327232,319.762299 
	C117.216095,322.495636 123.032265,325.349365 128.902695,329.599457 
M441.698822,486.107574 
	C439.126709,492.202484 435.584961,497.870300 433.980347,504.401611 
	C433.311829,507.122711 433.952484,508.477417 436.679352,509.074066 
	C442.213715,510.284973 447.470093,512.341492 452.789917,514.270935 
	C461.324646,517.366333 463.495087,516.224670 464.191284,507.031067 
	C464.969208,496.758179 464.285034,486.382568 464.779602,476.077698 
	C465.152130,468.316589 462.794708,460.920746 462.603912,453.269257 
	C462.562103,451.593140 461.642242,450.159637 459.497070,448.828400 
	C452.144257,460.375244 447.975555,473.342255 441.698822,486.107574 
M264.059418,104.690514 
	C263.440674,108.795876 262.892670,112.913383 262.190277,117.004379 
	C259.823364,130.789993 259.536499,144.798538 257.669617,158.655991 
	C256.612366,166.504044 254.345108,174.347794 255.247406,182.416519 
	C256.268280,191.545685 258.661682,200.194382 264.463440,208.359238 
	C271.791260,201.974411 274.617981,194.446991 274.385620,185.553024 
	C273.741821,160.909195 269.271667,136.617935 267.571136,112.067802 
	C267.298676,108.133865 266.076935,104.265686 265.294037,100.367104 
	C264.999573,100.411003 264.705078,100.454903 264.410614,100.498802 
	C264.286926,101.629288 264.163239,102.759781 264.059418,104.690514 
M91.985970,496.444153 
	C85.619270,479.974976 77.885475,464.138458 70.113838,447.563904 
	C66.782578,454.056091 65.064224,459.838654 65.231453,466.360992 
	C65.550827,478.817688 65.279823,491.288818 65.327324,503.753693 
	C65.337997,506.553955 64.929878,509.430267 66.138176,512.119751 
	C67.026337,514.096619 67.807663,516.375793 70.690659,515.686523 
	C79.361031,513.613586 87.783676,510.807953 96.271690,507.365692 
	C94.826012,503.582581 93.591248,500.351410 91.985970,496.444153 
M292.526031,589.097351 
	C289.177490,591.116455 285.292572,592.280762 282.588776,594.948303 
	C282.610077,596.285278 283.265198,596.784485 283.965454,597.248840 
	C293.160736,603.346802 303.450500,607.030945 313.756409,610.645752 
	C317.517914,611.965027 319.143127,609.489807 320.390228,606.449402 
	C324.851440,595.573181 329.373657,584.721924 333.887268,573.867249 
	C334.532013,572.316772 335.473877,570.559814 334.198273,569.191162 
	C332.595673,567.471741 330.829712,568.888367 329.241486,569.721741 
	C317.204224,576.037842 305.172363,582.364380 292.526031,589.097351 
M205.343124,596.192322 
	C206.898956,599.670288 208.627335,603.083496 209.964447,606.643616 
	C211.446716,610.590149 213.774475,611.349976 217.764923,610.225464 
	C228.419662,607.223022 237.588333,601.101685 247.808807,596.907043 
	C240.699860,589.410522 200.803986,568.228088 194.877441,569.239685 
	C196.909622,578.567871 202.880234,586.353455 205.343124,596.192322 
M243.181915,243.047104 
	C243.367172,244.276337 243.685318,244.937943 244.942169,243.757187 
	C251.403854,237.686829 254.393051,229.944839 255.717133,221.419556 
	C256.074860,219.116241 254.933716,217.227158 253.429321,215.603897 
	C251.583786,213.612549 249.732971,213.714737 249.012527,216.412094 
	C246.723190,224.983383 242.384125,233.104355 243.181915,243.047104 
M280.647400,215.377518 
	C280.203125,214.806549 279.560974,214.411636 278.937561,214.788010 
	C275.309906,216.978149 273.436310,222.520752 274.925232,226.525482 
	C276.499695,230.760315 279.001709,234.474472 281.442627,238.235443 
	C282.801422,240.329071 283.316193,243.126740 286.636566,243.937881 
	C286.723480,242.621597 287.024109,241.594940 286.814941,240.685532 
	C284.919067,232.441666 282.934113,224.218292 280.647400,215.377518 
z"/>
</svg>