<svg xmlns="http://www.w3.org/2000/svg" viewBox="0 0 425 425"><style>.B{fill:#101010}.C{fill:#1f1f1f}.D{fill:#333}.E{fill:#2d2d2d}.F{fill:#ededed}.G{fill:#2a2a2a}.H{fill:#262626}.I{fill:#dbdbdb}.J{fill:#d0d0d0}.K{fill:#efefef}.L{fill:#050505}.M{fill:#e9e9e9}.N{fill:#f3f3f3}.O{fill:#ebebeb}.P{fill:#f0f0f0}.Q{fill:#f5f5f5}.R{fill:#4b4b4b}.S{fill:#fcfcfc}.T{fill:#f6f6f6}.U{fill:#f2f2f2}</style><path fill="#fbfbfb" d="M426 102v324H1V1h425zM31 19a14 14 0 0 1-3 0l-5 2-2 5v375c2 1 4 4 6 4l15 1h356c7 0 10-3 10-10l-1-19V24c-1-3-4-5-7-5H31"/><path d="M361 19h39c3 0 6 2 6 5l-1 1-2-1v1h2l1 10v363l-3 4-6 2h-95l-5 1h-96l-2-1h-27l-3 1-50 1-14-1H41c-7-2-14 1-19-5l-1-5V30l2 7v359h1V30l-3-2 1-3h3l-1-4 5-1c0 2-1 3 2 3l8-1h361l-34-1-5-2M36 370l1 1 1 2h1l-2-4h5v-1l-4-3 1-1 1-5 1-1v-3h2l3 4v2l3 3v1l-2 3 6 1v-6l1 1h4l6-2-1 2-2 2h-3l3 2 3 1 2 2h-1l-7 6h-1l2 1h3l3 2h7v5h-3l-3 2h-3a148 148 0 0 0-5 3h-1l-2-3-2 1 2 7 13-2 3 1c4 1 8 3 13-1l3 1 4 1h108l5-2 11 1h19l2-1 3 1 6 1h132l-1-5h-1l-3 1-1-2 2-2-10 1-3-3h-4l-3-3 4-3 6 1 2-4 1 2c0 3 2 3 4 3l2 1 1-2-3-1v-1h1v-1l-2-1v-1l2-4-6 2-2-3 3-4a13 13 0 0 1 3-1l7-1 2 5 3 1-1-4 1-1c3-2 5-6 9 0l1 4 2 3h2c2 0 4 0 3-4V55l-3-2-2 2h-1l-1 3-1 1h-3v12l-3 4-1 3h-1l-3-3 2-5 1-4-3-1-2-2 1-1 1-3-5 1-4 1-2-1-2-1c-2 0-3-1-5-3v-1l11-8v-1h-2l-6 2c1-2 1-4-2-4l-3-1 3-5h3l2 1 2 1 1-2-3-1v-1h2l5-2c1-1 1-1-2-2H70l-15-1-1 3h4l6 4-3 5 4 4h-2l-2-2-4-1v6h4l5 6-3 2h-3l-2 2h-1l1 2-1 1v2h-1l-1-4 1-1h-1l-1 2-3-4v-1l-2-3-1 3a62 62 0 0 1 2 5v1h-2l-1 2v6a79 79 0 0 0 0 3l-2 4-1-3-2-4-1-2 1-1 1-3-5-6-3-7-1 1-1 134 1 5v179l1-1h1M386 50l-1 1 1 1 1-2h-1M56 57l2 1v-1l-2-1-1-1-1 1 2 1m35-28H58v1h312v-1zm-56-6-1 1h6v-1zm349 352-3 1 1 1 2-2m-327-6 2 1 1-2-3 1M56 38l-2-2-1 1 3 1m348-5v-2l-1 1 1 1m-16 21 1 1 1-2-2 1m-24 328v2-2m10 2h2-2m-314 2 1-1-1-1v2M385 55l-1 1 1 1v-2M40 56l1-1-1-1v2m332-30-1-1-1 1h2M59 54v-2 2m315 319v2-2M47 50l-1 1 1 1v-2m321 319h-1v1l1-1m25-319-1-1 1 1M46 58h-1 1m325 326v1h1l-1-1m3-343v1a1 1 0 0 0 0-1m15 329h-1a1 1 0 0 0 1 0M376 39h1-1M35 376h1-1m10-8h-1 1m332 13s0 1 0 0m-1-350s0-1 0 0M35 50s-1 0 0 0m7 312s-1 0 0 0" class="L"/><path d="m361 19 5 2 34 1H39l-8 1c-3 0-2-1-2-3l3-1h33zm44 6h1l1 10v342l1 19c0 7-3 10-10 10H297l5-2h95l6-2 3-4V35l-1-10zM21 29l3 1v366h-1V37l-1-7-1-1m148 377 3-2h27l2 1-32 1m-148-6c6 6 13 3 20 5H27c-2 0-4-3-6-5m212 6a36 36 0 0 1 8-1l-8 1m-152 0a36 36 0 0 1 8-1l-8 1m16 0a36 36 0 0 1 8-1l-8 1M24 21l1 4h-3l2-4" class="B"/><path d="m33 19-1 1 1-1" class="L"/><path d="m45 78 2-5 2 1 6 13 13 35 4 5h11l2-5c6 6 11 8 20 4l-6-9 2-2 5 6c5 7 9 8 19 5l-13-14 2-2 14 14c2-9 1-16-5-21v-2l5 3c3-7 2-12-2-17v-3l3-3v-8c0-3-1-5-4-6L78 48l-9-4-4 2-4-3 3-5 38 14c19 8 38 13 59 13l81 1c34 1 65-6 96-19l24-9-3 5 3 1c3 0 3 2 2 4-4 3-7 5-11 6l9-9-12 4-47 18-3 3v12l4-1 1 2c-7 6-8 10-5 20l32-24 1 1-3 4-25 20c-6 5-8 9-5 18l15-12h3l-15 17c7 1 13 2 18-3h3l2 3h11l3-3 1-1c2 4 6 4 10 4h4l4-3 11-25v-2l7-16a4 4 0 0 0 1-1h-1l2-4 4 2c-1 3-1 5-3 7v2l-2 4-1 3-1 1-2 6-1 2-2 6-1 2-1 3-1 1v4l-4 11-1 9-1 3v3l-1 7v122l1 4v2l1 4v2l1 3v4l4 9v3l1 2 2 9 2 2 17 46c-4-5-6-1-10 1l1-1-2 1-3-7h2a103 103 0 0 1 3 3v-5l-6-16-16-39-3-3h-12l1 5h-2c-6-7-12-8-19-4l3 6-1 2c-7-10-12-12-22-9l5 7 3 2 1 3v3l-9-9-2-1-3 1c0 5-1 11 3 16v2l-3 2c0 6-1 13 6 17l-5 1v10c-1 4 1 5 4 6l52 21-3 4-30-11c-13-6-27-11-43-12l-104-1-36 3c-23 5-46 14-68 23v-6l13-5 41-17 3-3v-12l-6 2v-2c4-4 8-7 7-13v-2l-1-4v-2l-1 2-12 6 2-4 5-5c6-4 8-10 5-18a24 24 0 0 0 0-2h-1l1 2h-1l-3-2v-3h-2c-7 0-12 0-16 5l-1-2-3-3c-6-1-11-1-15 4h-2c0-2-1-3-2-3h-7c-5-1-7 1-8 5l-13 32c0-3 1-6-3-6 11-23 15-46 15-71v-70c0-15 1-31-2-46-4-19-12-39-18-58l-1-4a42 42 0 0 0-1-2m241 65h-1l-1 3-19 16v-3l24-24-1-4c-5-4-11-5-17-2l-1-1 2-1v-2l-4-2c-8-3-15-8-24-3v-3c2-1 3-2 0-4l-23-9h-4l-1 27-5-2 1-1 1-22-3-1c-10 1-19 6-30 11l4 3-2 1c-8-5-14 0-21 2-5 2-5 3-2 9l-1 1c-7-6-12-6-20 0l4 5 15 17a65 65 0 0 0 3 1l5 6 3 2 21 22a83 83 0 0 1 3 3l2 3h-4l-29-30-3-2-23-23c-8 9-8 13 0 22l21 27-2 2-27-33c-5 9-11 18-5 29l-2 1-4-5-11 28h29c-3-6-7-11-9-17h2l9 15 4 3h30l-2-5 2-2c2 2 5 6 8 7h25l2-4 2-1 4 2 2-12v-6l-2-9a146 146 0 0 0-2-3l-2-6h4v-4l2-16 4 1-1 8-1 4 2 2 1 5c5-4 10-8 15-10l1 3-8 5a232 232 0 0 0-2 2c-6 4-8 8-7 15v22l2-2 17-15v4c-4 5-10 8-12 14 12 4 23 3 34-3l-1 5h21c6-1 12-1 16-5l2 3 27 1-12-31-9 15c-1 1-1 4-3 0l4-8c8-8 6-16 1-24-2-6-2-6-8-3l-1 1 1-21-2-2-1 2-6 4-1 2M137 310v3c-1 5-1 11-3 16l2 2 6-1-1 3c-10 5-4 13-5 20 15-4 64-24 67-28l-24-10c-5-1-9 0-13 3-3 2-6 4-9 4l1-2 9-6v-2l-16-7-7 1-1-2-6-5-2 2zm168-27-4 8h10l1-3c7 5 14 5 22 3l-2-7h2c5 8 10 9 21 6l-26-67-1 1c-1 2-3 3-3 5-3 8-9 16-8 25v6c-2 0-4 0-5 2-4 6-7 12-5 20l-2 1m-83-25-2-1-3-2v29l1 1a71 71 0 0 1 2 3l27 16 5 1h3l3-1 14-5-3-4 3-1c7 5 12 1 20-1l-41-42 2-2 2 2 3 2 35 36c7-8 7-13 2-20l-4-6h4l3 4 5 2 1-3c1-4 3-7 3-11v-10l-16-27-5-4h-30l9 15h-3l-10-13-3-2h-28l2 5 3 2 5 6 3 2 2 4-2 2-17-17-2 12 1 7c1 7 1 14 7 20l-1 1m134-102v-3h-1l-2 4-2 4-17 45v13l11 27 7 19 1 4 2 4h1v-6zm-25-23c-10-1-17 1-22 10-2 2-3 4-2 7l5 14h2l5-5 2 2-5 8 1 5a3 3 0 0 1-1 1l2 3 9 22 2-1 25-62c1-1-1-4-2-4-8-2-14 0-19 7l-5 4 2-3v-2l3-4-2-2m-43 196 4 2c4-11 0-19-9-24-1-1-5-2-7-1l-15 6 2 2 1 3c-5-2-10-3-14-1l-19 7-4 2v2l66 27c2-10 1-17-6-23l1-2M97 287l-1 4c11 2 18 1 24-10 5-8-3-14-4-21h-2l-13 18-1-1 9-16c3-4 3-9 1-14l-5-15-4-7h-1l-27 66c9 2 17 3 23-6l1 2m12-125 5 4 7-15v-6c-3-10-16-15-26-10l6 13h-3l-3-6c-6-10-11-12-22-8l9 24 13 35a373 373 0 0 0 2 4l4 5 7-19c3-7 6-13 0-19v-2h1m175-42c0 6 5 3 9 5v-10l-6 1c8-4 8-14 5-23l-32 19c7 6 15 8 24 8M122 241l1 2c-2 5-5 9-2 14l3 9c2 5 4 5 8 1l29-37 7-5-4 7-30 37c-6 7-6 12 0 20l26-24 1 3-17 16-1 3-5 5c6 5 12 7 20 2-2 6 1 8 4 9a55 55 0 0 1 8 3c5 2 9 1 14-2l3-2h4v1l-10 6c10 4 19 9 30 10v-27l-10 5-10 5 2-4 15-9 3-4v-29l-4 1v-2l5-10v-25l-2-3a252 252 0 0 0-1 4l-8 6-2-2 11-11-7-2h-3c-9-1-17 1-26 4l-1-1-2-1-17-1c-9-1-15 1-20 10l-1-1 4-9h-32l12 34 5-6m137-132c0-1 0-2 2-3l1 1v-1l28-16 3-4V72c-11 2-65 24-67 27l7 4 19 7h4a26 26 0 0 1 3-1M150 98l15 10c3 1 6 3 8 2l28-10v-2l-65-27c-4 15-1 19 6 24l-7-1 1 14c1 4 10 13 13 12l19-7-23-15h5M74 271l21-55v-7l-3-14-3-3-6-18a177 177 0 0 0-2-3l-7-19h-1l-1 2v118l2-1M209 71h-54l5 3 46 18c5 2 10 2 15 0l37-14 17-7zm11 283h53l-3-2-47-19c-6-3-12-3-18 0l-36 14-15 6v1h66m90-140h-17l17 30h2l11-30h-13m-93 90v13l28-8v-2l-28-17zm86-166 2 4 6-8h-9l1 4m-168-17 1 4 9-3-10-7zm-10 17 1-4h-10l5 6c2 2 3 2 4-2m160 165 7 6 1-1v-8l-8 3m-159-17-3-2-6 7h10l-1-5m6 34v1-1m2-110h-1v1l1-1m-41-19s0 1 0 0" class="B"/><path fill="#f9f9f9" d="M72 385c22-9 45-18 68-23l36-3 104 1c16 1 30 6 43 12l30 11 4 2 3 1a356 356 0 0 0 4 2l7 2 1 1c3 4-1 2-1 2H71a129 129 0 0 0-4 0H54l3-3h2l4-2 4-1 3-2h2zM362 38l-24 9c-31 13-62 20-96 19l-81-1c-21 0-40-5-59-13L65 37l-8-3a11 11 0 0 1-1-2h317l-5 4h-1a49 49 0 0 0-3 2h-2"/><path d="m378 91 2-4 1-2 2-7h1l1-3a897 897 0 0 0 2-5l4-11 1-1 1-3 1 6v311l-1-1-1-3-2-4-17-46-2-3-2-8a21 21 0 0 0-1-3 63 63 0 0 0 0-2 1720 1720 0 0 0-3-9 33 33 0 0 0-1-2v-5a18 18 0 0 0-1-2l-1-4v-6a378 378 0 0 0-1-4V158a285 285 0 0 0 0-6l1-7v-3a49 49 0 0 0 1-3l1-9 4-11 1-4v-1l1-3 1-2 2-6 1-2 3-6 1-1zm-13 72-1-2v47h1z" class="S"/><path fill="#fbfbfb" d="M45 78v3l-1 4 3-1c6 19 14 39 18 58 3 15 2 31 2 46v70c0 25-4 48-15 71l-7 16-1 4-1 2-1 1-1-29V215l-1-6V81l2-9a68 68 0 0 1 2 3l1 3m0 10h1-1z"/><path d="M40 193v156l1 6-1 3-2 5v1l-1 2v3h-3V53l1-1 3 8 2 7-2 6v281h1V72l2-2 1 1v1l-2 9v96z" class="S"/><path d="m315 109-15 13c-3-9-1-13 5-18l25-20 3-4-1-1-32 24c-3-10-2-14 5-20l31-18 9-5 2-1 2-2 2-2h2l11-6 6-3a5 5 0 0 1 1 1l-10 8-12 10-2 1-1 1-7 6-4 5 1 1 9-6 2 3-12 13-3 3-7 7-3 3-5 5-2 2" class="M"/><path d="m395 372-1-40V61l-1-7 2-1 3 2v313c1 4-1 4-3 4m1-264v262h1V56h-1z" class="B"/><path d="M87 301c4-5 9-5 15-4l3 3-25 31-26 32-1 1a186 186 0 0 1-5 3l1-3 1-1 3-4 19-32 6-11c2-2 2-3-1-3l4-6v3h1l5-9z" class="O"/><path d="m99 117 6 9c-9 4-14 2-20-4v-1l-3-3-1-2-5-11-20-34a331 331 0 0 0-6-9s0-1 0-1l1-2 4 3 2 4 11 14 5 3v2l20 25 3 5 3 2z" class="F"/><path d="M129 323v4l1 2c1 6-3 9-7 13a507 507 0 0 0-6 4h-2l-32 18-3 2v1a106 106 0 0 0-7 5l-7 2v-3l12-9 1-1 6-6 6-4 14-12 6-4 4-4 2-1 11-7h1" class="K"/><path d="m376 358 3 7h1v1l-2 2-3-4-26-34-20-23-2-3-3-5c7-4 13-3 19 4l4 8 19 32 4 4c1 4 3 8 6 11z" class="O"/><path d="M337 127h-11l-2-3h1l1-4 3-3 3-4 18-21 23-28 2-2h2v1l-8 13-2 3-2 3-3 5-1 2-7 13 1 3a20 20 0 0 1 0 1l-1-1h-2l-8 12-3 6-1 1-3 3" class="P"/><path d="M305 341c-7-4-6-11-6-17l3-2 1 2 28 21 23 19 3 2 2 2 1 1 3 2 3 2 1 2v2h-1a30 30 0 0 0-2-1l-32-20-17-10-2-1-2-1-6-3" class="K"/><path d="M355 106v-1l13-21 11-19 3 2a73 73 0 0 0-2 3l-1 6-2 4v1a3658 3658 0 0 0-7 16 27 27 0 0 0-1 2l-10 25-4 3h-4c-4 0-8 0-10-4l4-6 4-2 6-9m-50 235 6 3c1 6 5 8 9 10l41 24 1 2-6-1-52-21c-3-1-5-2-4-6v-10l5-1M85 121l-2 6H72l-4-5-13-35-6-13a43 43 0 0 0-1-4l-1-6h1l5 8 24 40 4 4 1 2c0 2 0 5 3 3zm30 225v1l2-1 6-1 6-3v12l-3 3-41 17-13 5a11 11 0 0 1-5 1l-1-2 5-2 2-4 8-2 32-19 2-5" class="O"/><path d="m123 301 4 2-12 11-50 50a64 64 0 0 1-1 0l-1-2v-3l2-2 2-3a80 80 0 0 0 8-7l5-4h1l9-10 33-32z" class="G"/><path d="M91 29h279v1H58v-1z" class="B"/><path d="m329 307 20 23 26 34-7 1v-3l-4-6-1-1-15-19-20-27a11 11 0 0 0 1-2z" class="E"/><path d="m41 70-2 2v282h-1V73l2-6 1 1z" class="U"/><path d="M239 393h132s4 2 1-2l4-1 1 5H245l-6-2z" class="B"/><path d="m363 380-2-2-41-24c-4-2-8-4-9-9h2l2 2c6 3 12 5 17 9l32 20-1 4" class="E"/><path d="M87 393h116l-4 2H91l-4-2" class="B"/><path d="m372 64-22 28-18 21-3 1 4-6a2414 2414 0 0 1 21-26l14-19a93 93 0 0 0 0-2h3l1 2z" class="E"/><path d="M77 313c3 0 3 1 1 3l-6 11-19 32-3 4a1 1 0 0 1-1 0l-3-3 2-1z" class="C"/><path d="m64 58 2-2a3212 3212 0 0 1-6-6l1-3 3 2 12 8-1 5-2-1a709 709 0 0 0-6-5l-2 1 8 7 8 7-3 2-14-13v-2" class="I"/><path d="m41 355-1-6V209l1 6v108l1 29v3h-1" class="K"/><path d="M54 363a645 645 0 0 1 29-32 295 295 0 0 1-8 12l-4 4-4 7-2 1-3 4-4 4h-4zM64 58v2a607 607 0 0 0 18 19l-1 2-14-13h-1l-2-3-3-4v-3zm12-1-12-8v-2h1l4 2 24 15v2l-4-2-3-2-10-5" class="B"/><path d="m73 83-5-3-11-14a2 2 0 0 1 0-2h1l4 2 10 13 1 4" class="C"/><path d="m85 355-6 6-1 1-12 8-2-2a28 28 0 0 1 3-3l4-2 2-2 12-9zM368 61v2l-12 10-2-2v-2l8-8a86 86 0 0 0 4-1l2 1m11 4-11 18-1-1v-3h1l1-3 8-12 2 1zm-30 0 12-9v1l-1 4-9 6-4 3a312 312 0 0 0-1-3s1-1 1 0l2-2M57 390l-3 3h13l-12 2-2-7 2-1 2 3m158 3h20l-1 1-19-1" class="B"/><path d="m69 49-4-2v-1l4-2 9 4-5-1-4 2" class="G"/><path d="m390 59-3 11V59h3z" class="B"/><path d="M66 371v3l-4 4h-4v-1z" class="J"/><path d="m53 72-5-8v-1h2l5 8-2 1m9 306 4-3c2-2 4-3 7-3l-2 4-5 2-1 1a234 234 0 0 1-3-1m9 15h12c-4 4-8 2-12 0z" class="B"/><path d="m363 371-3-2 1-4 1-1a13 13 0 0 1 3 2l-2 5z" class="J"/><path d="m48 367 5-3v5l-5-2z" class="B"/><path d="m62 66-4-2v-1a47 47 0 0 1 0-2v-1h1l2 1 3 4z" class="E"/><path d="m41 68-1-1-2-7 5 5-2 3" class="B"/><path d="M360 61a53 53 0 0 0 1-4l5 3-4 1h-2" class="G"/><path d="m61 47-1 3h-3v-6l4 2v1" class="B"/><path d="m58 363 4-4 1 1v2a14 14 0 0 1-5 1m9 2-3 3-3-1v-1l3-2h1l2 1" class="E"/><path d="m371 390-7-2 9-1-2 3zm-2-354 4-4c2 1 2 1 1 2l-5 2zm9 332 2-1 1 3-3-2m-341 1 1-3 4 2v1a116 116 0 0 1-5 0m329 9 1-1 3 1v2c-2 1-4 1-4-2zM42 355v-3l1-1v1l3 7z" class="B"/><path d="M378 62h-3v-2l4-1-1 3z" class="J"/><path d="m366 366-1-1 1-3 2 1a68 68 0 0 0 0 2l-2 1m2 9-2-2 5-2-2 4h-1M42 72v-1l2 4-2-3zm333-12v2l-3 2v-2a3 3 0 0 0-1-1zM56 32l1 2h-3l2-2m-8 25 1-3 2 3h-3m15 331-4 2 4-2" class="B"/><path fill="#737373" d="m33 187 1 4-1-4"/><path d="m48 57 3 1v1l-1 2-2-4" class="J"/><path d="M35 23h5v1h-6l1-1m349 352-2 2-1-1 3-1" class="B"/><path d="M368 375h1v1l1 2-3-1v-2" class="J"/><path d="m57 369 3-1-1 2-2-1zm-18-5-1-1a49 49 0 0 1 2-3l-1 4z" class="B"/><path d="m48 359-2 1v-2h1l1 1" class="I"/><path d="m40 360-2 2 2-4v2" class="K"/><path d="m360 386-3-1 3 1zM56 38l-3-1 1-1 2 2zm348-5-1-1 1-1v2m-16 21 2-1-1 2-1-1zm-18 326h3l-1 2-2-2m-3-342h3l-1 2-2-2z" class="B"/><path d="M34 369h2v1h-1c-1 0 0 0 0 0l-1 1v-2" class="K"/><path d="m37 370 2 3h-1l-1-3z" class="B"/><path d="M61 47v-1l3 1v1l-3-1" class="G"/><path d="m381 70 1-3-1 3" class="C"/><path d="M47 71c1 0 2 1 2 3l-2-1v-2m18 308 1-1 1 2-2-1" class="D"/><path d="M61 366v1l-3-1h3M392 55l-1 2 1-2m-28 327v2-2z" class="B"/><path d="m61 61-2-1 2-2v3" class="C"/><path d="m69 385-2 2 2-2m305-1h2-2m-314 1v-1l1 1h-1M385 56v1l-1-1h1zM56 57l-2-1 1-1 1 2zm-16-2v-1l1 1h-1zm331-8v-1h1l-1 1m0-21h-1l1-1v1m-1 352v-2l1 1-1 1M59 54v-2 2zm315 319v2-2m17-4 2 2-2-2m-4-319-1 2-1-1 2-1zM47 51v1l-1-1h1m318-13 2-2v2zm19 37v3-3m21-50h-2v-1l2 1zm-37 344-1 1v-1h1m25-319-1-1 1 1M46 59l-1-1 1 1zm325 325 1 1h-1v-1M56 57h2v1l-2-1zm318-16v1-1M55 62v-2h1a9 9 0 0 1-1 1v1m334 308h-1 1M376 39h1-1zM35 376h1-1m10-8h-1 1zm332 13c0 1 0 0 0 0M58 63v1h-1v-1h1z" class="B"/><path d="M48 63v1h-1l1-1" class="D"/><path d="M57 63zm319-32c0-1 0 0 0 0m27 371zM58 60v1l-1-1h1M35 50c-1 0 0 0 0 0m352 0zM36 370v-1l1 1zm13-7h1l-1 1v-1" class="B"/><path d="M35 370" class="S"/><path d="M42 362c-1 0 0 0 0 0" class="B"/><path d="M58 377v1l-1-1h1z" class="D"/><path d="m211 221 1 24-5 10-8 6c2 2 2 2 8-3l4-2v29l-3 4-15 9-6 4h-1l-3 2c-4 3-8 4-13 2a55 55 0 0 0-8-3c-3-1-6-3-4-9-8 5-14 3-20-2l5-6 2-2a3289 3289 0 0 1 16-16l21-21 20-20a1129 1129 0 0 0 7-6h2m-54 74h3l35-28-2-2c-12 9-24 18-36 30m137-92c-4 5-10 5-16 6h-21l1-5c-11 6-22 7-34 3 2-6 8-9 12-14l3-4v-2l6-3 20-20 19-19 2-2 2-2 5-4 3 1-1 20 1-1c6-3 6-3 8 3 5 8 7 16-1 24-2 2-3 5-4 9h-1l-3 5-1 5m-27-8 22-27-2-2c-9 9-17 18-23 29l-5 7 2 1 6-8m33-12s-1 0 0 0m-126 33a53 53 0 0 1 29-4l7 2-12 11-21 21-17 18-26 25c-6-8-6-13 0-20l30-37 3-7h2l3-7 1-1 1-1" class="Q"/><path d="M236 233a155 155 0 0 0-2-4l-3-2a493 493 0 0 1-5-6 86 86 0 0 0-3-3l-2-4h28l3 2 11 13 2 3 2 2 2 2 8 10 1 1 5 7 3 4 4 5 5 6c5 7 5 12-2 20a104963 104963 0 0 0-36-36 66 66 0 0 0-2-2l-2-2-2-2-8-8-7-6" class="U"/><path d="m251 252 41 41c-8 2-13 6-20 1l-4-3-4-4-21-17-20-13c-6-6-6-13-7-21a323 323 0 0 0 0-6l1-12 17 17 5 6 10 9 2 2" class="Q"/><path d="M209 169h-3l3 7a28 28 0 0 0 2 3l2 9v5l-2 12-4-3-12-11-3-4a20 20 0 0 0-3-2l-22-22a27 27 0 0 0-2-2l-6-6a21 21 0 0 0-2-2l-15-16-4-5c8-6 13-6 21 1 15 12 28 25 44 35l1-1-1-3c5-1 6 2 6 5" class="N"/><path d="m236 189-18 15h-1v-20c-1-7 1-11 7-15l2-2 8-6 14-11 23-19c6-5 12-4 17 0l1 4-25 24-21 21-2 4-2 3-3 2z" class="Q"/><path d="m156 184-21-26c-8-9-8-13 0-22l23 23 3 3 29 29 15 14-2 3h-25c-3-1-6-5-8-7l-2-2-1-1-11-14z" class="N"/><path d="m82 175 8 18 2 3 3 13v7a1720 1720 0 0 1-22 55h-1V154l2-1a2961 2961 0 0 1 7 19 31 31 0 0 0 1 3" class="T"/><path d="M209 71h66l-17 7-37 14c-5 2-10 2-15 0l-46-18-5-3z" class="P"/><path d="M219 354h-65v-1l15-6 36-14c6-3 12-3 18 0l47 19 3 2zm-83-131c3-9 9-11 18-10l17 1 2 2v1l-1 1-6 6 1 1-6 5-29 37c-4 4-6 4-8-1l-3-9c-3-5 0-9 2-14l4-6 7-11 2-3" class="T"/><path d="m302 269-4-2-4-4-2-3-5-6-2-3-4-4-4-5-6-8-1-1-4-5-10-14h30l5 4 16 27v10c0 4-2 7-4 11z" class="N"/><path d="m233 158-15 11-1-6v-26l2-1 25-15c9-6 16-1 24 2l4 2v2h-1l-1 1-12 9zm119 106-7-18-11-27v-13l18-45 2 13v86l-2 4" class="T"/><path d="m168 204 2 4h-30l-4-3a380 380 0 0 1-14-23c-6-10 0-19 5-28l27 33 11 13 3 4" class="Q"/><path d="M209 169c0-3-1-6-6-5-1-4-2-5-6-5l-5-4v-3l-2 1-31-23c-3-5-3-6 2-8 7-2 13-7 21-2l25 16 2 3 3 4v6l-1 17-1 3h-1" class="T"/><path d="m157 323 9-5c4-3 8-4 13-3l24 10c-3 4-52 24-67 28 1-7-5-15 6-20l4-3 3-1 1-1 4-3 3-2" class="Q"/><path d="M108 163v1c6 6 3 12 0 19l-7 19-4-6-2-3-13-35-9-24c11-4 16-2 22 8l4 6zm208 6 5-9 7-13v-2l5-5c5-7 11-9 19-7 1 0 3 3 2 4l-25 62-2 1-9-23a42 42 0 0 0-1-2v-2z" class="N"/><path d="M317 259v-5c-1-9 5-17 8-25 0-2 2-3 3-5l1-1 26 67c-11 3-16 2-21-6l-11-18-6-7z" class="Q"/><path d="M142 94c-7-4-10-8-6-23l65 27v2l-28 10c-2 1-5-1-8-2l-16-10-7-4" class="N"/><path fill="#f9f9f9" d="M255 304h-9l-26-16c2-4-1-4-2-4v-1l-1-2v-19l4-5 1 1 1 1 15 12 20 15 1 1 2 1 5 5 3 2 3 4-15 5h-2m-34-41h1v-1l-1 1"/><path d="M287 332c7 5 8 12 6 22l-66-27v-2l4-2 19-7c4-2 9-1 14 0l1 3z" class="N"/><path d="M96 285c-6 9-14 8-23 6l27-66h1l4 7 5 15c2 5 2 10-1 14l-10 17-3 7m166-178-2-1-2 3h-3l-3 1-19-7-7-4c2-3 56-25 67-27v14l-3 4-28 16v1" class="Q"/><path d="m69 49 4-2 5 2 47 18c3 1 4 3 4 6v8l-3 3-10-7c-2-1-3-1-3 2l-9-6 1-2-12-8z" class="M"/><path d="m104 73 10 6 12 8c4 5 5 10 2 17l-5-3-19-16-29-22 1-6c3 2 7 3 10 6l3 1 4 3a4690 4690 0 0 0 11 6" class="F"/><path d="m67 365-2-1a4470 4470 0 0 1 50-50l12-11 1-1c3 8 1 14-5 18l-5 5-2 4 1 1v-1h-3c-2 0-3 1-4 3l-5 4-19 14-1 2-12 9-2 2z" class="M"/><path d="m122 241-5 6-13-34h33l-5 10-2 3-5 8-3 7z" class="K"/><path d="m345 303-1-5h12l3 3 16 39 6 16v5l-3-3-6-11h-2l-25-44" class="M"/><path d="m62 66 2-1 2 3 1 1 14 13a15198 15198 0 0 0 31 30l13 14c-10 3-14 2-19-5l-5-6-2-1-6-8a1204 1204 0 0 0-18-23h-2l-1-4-10-13" class="O"/><path d="M304 304a1387 1387 0 0 1 9 10l2 2 43 44 2 3-4-1-21-17-33-26c-4-4-3-10-3-15l3-1zM48 359l-1-1v-4l3-5 2-5 1-1 2-8 13-32c1-4 3-6 8-5h7c1 0 2 1 2 3l-4 6-4 6z" class="F"/><path d="m328 309 20 27 15 19h-3l-7-8-17-15-23-23-1-2-3-2-5-7c10-3 15-1 22 9l2 2z" class="O"/><path d="M353 54v1-1l-2 1h-2l-3 1-1 1-3 2-7 3-31 19-4 1V70l3-3 47-18 12-4-9 9" class="F"/><path d="m82 78-1-1a39 39 0 0 0-2-2 21 21 0 0 1-1-2l3-2 5 4 37 28c6 5 7 12 5 21l-14-14-32-32z" class="M"/><path d="m353 82-20 26-4 6-1 2-3 3-2 2-2 3c-5 5-11 4-18 3l15-17 1-1 7-6 2-2 9-9 1-1 12-11 3 2z" class="F"/><path d="M307 282c-2-8 1-14 5-20 1-2 3-2 5-3 0 3 2 5 3 7 3 7 7 12 11 18l3 7c-8 2-15 2-23-3v-6l-3 1a4 4 0 0 0-1-1" class="N"/><path d="M283 120c-8 0-16-2-23-8l32-19c3 9 3 19-5 24l-4 3z" class="P"/><path d="m75 343 9-12 22-29c4-5 9-5 16-5h2v3l-34 33-9 9-2-1 1 2-5 4v-1a79 79 0 0 0 0-3" class="F"/><path d="M211 128v5h-3l-24-14-4-3c11-5 20-10 31-11v23" class="U"/><path d="m294 203 2-5 4-2-2-3h1c2 3 2 0 3-1l9-15 12 31-27-1-2-4z" class="F"/><path d="m144 306 7-1 16 8-1 1-9 6-4 3c-2 0-2 1-3 2l-2 1a152 152 0 0 0-6 3l-6 2a8 8 0 0 1-1-2l2-16 7-7z" class="P"/><path d="M311 214h12l-11 30h-2l-17-30h18z" class="F"/><path d="m102 148-7-13c10-5 23 0 26 10v6l-7 15-5-5-7-13m115-17v-27h4l23 9c3 2 2 3 0 5l-9 5-18 9a3 3 0 0 0 0-1" class="P"/><path d="m142 94 7 3-4 1 23 15-19 7c-3 1-12-8-13-12l-1-14h7m45 208 5-4-1 4 10-5 10-5v27c-11-1-20-6-30-10l10-6v-1h-4m-85-24 12-18h2c1 7 9 13 4 21-6 11-13 12-24 10l2-4a446 446 0 0 0 4-9" class="K"/><path d="m124 190 10 17h-29l11-28 5 5a722 722 0 0 0 3 6" class="F"/><path d="m261 312 15-6c2-1 6 0 7 1 9 5 13 13 9 24l-5-2-20-13h-3l-1-3-2-1" class="K"/><path d="M328 144c0 1 0 0 0 0l-9 15-5 5h-2l-5-14c-1-3 0-5 2-7 5-9 12-11 22-9l2 1-3 5-1 1-1 3" class="P"/><path d="M217 304v-14l28 17v2l-28 8z" class="F"/><path d="m313 310 23 22 17 15 7 8 3 3 3 4-1 3-3-1h-1l-1-1-2-3-43-44-2-2v-4z" class="H"/><path d="M160 265a421 421 0 0 1 38-39l3 1a426 426 0 0 1-39 40l-2-2" class="G"/><path d="m352 264 2-4v-86l-2-13 2-4h2v111h-3l-1-4" class="S"/><path d="m302 320 33 25 21 17-2 2-23-19-28-21-1-2a8 8 0 0 1 0-2" class="H"/><path d="M192 155a578 578 0 0 0 5 5 855 855 0 0 1 6 4l1 3-1 1c-16-10-29-23-44-35v-3l31 24a50 50 0 0 0 2 1" class="D"/><path d="M233 158a930 930 0 0 1 38-28 452 452 0 0 1-37 31l-1-3m-110-55L86 75l-5-4-8-8 1-2 1 1 29 23a1024 1024 0 0 1 19 15v3" class="C"/><path d="m261 288-2-1-1-1-20-15a742 742 0 0 1-15-12v-2l20 13 20 17-2 1" class="D"/><path d="m82 79 32 31-2 2-31-30 1-3" class="C"/><path d="m345 303 25 44-4-4-19-32c-2-2-2-5-3-7l1-1z" class="H"/><path d="m184 119 24 14h3l1 10-3-4a35 35 0 0 0-2-3l-24-15 1-2m120-38a558 558 0 0 1 32-16l-31 18-1-2z" class="D"/><path d="M106 302a877 877 0 0 1-25 29l23-30 2 1" class="E"/><path d="m217 132 18-9 9-5v2l-25 16-2 1v-5z" class="D"/><path d="m244 180 20-21 1 4a342 342 0 0 1-21 21v-4z" class="G"/><path d="M217 132v17h-4l-1-6a140 140 0 0 0-1-13l5 1 1 1M55 335a76 76 0 0 1-3 9l-2 5h-6l2-4c5-4 6-10 6-16 4 0 3 3 3 6" class="L"/><path d="m267 317 20 12v2l-21-12 1-2" class="D"/><path d="m205 205-14-13 3-1 13 11-2 3" class="H"/><path d="M331 284c-4-6-8-11-11-18h3l11 17-3 1z" class="D"/><path d="m283 120 4-3 6-2v10c-4-2-9 1-10-5" class="J"/><path d="m308 283 3-1v9h-10l5-8h2z" class="I"/><path d="M319 159a125 125 0 0 1 9-15v3l-7 13-2-1" class="E"/><path d="M303 138a162 162 0 0 1-1-4h9l-6 8z" class="I"/><path d="m101 148 8 13-1 1-9-14h2z" class="D"/><path d="m137 310-2-9 2-2 6 6a319 319 0 0 1-6 5" class="J"/><path d="m165 200-10-12 1-3a120 120 0 0 1 11 13 60 60 0 0 1-2 2z" class="C"/><path d="M135 121v-6l10 7-9 3z" class="J"/><path d="M125 139c-1 3-2 3-4 1l-5-6h10z" class="I"/><path d="m286 302 7-2v8l-1 1z" class="J"/><path d="m126 286 1 5h-10l6-7 3 2" class="I"/><path d="M212 128z" class="L"/><path d="M370 347h2l6 11h-2c-3-3-5-7-6-11z" class="H"/><path d="m126 87-12-8c-1-3 0-3 2-2l10 7v3" class="D"/><path d="m239 240-5-5 2-2 7 6-4 1" class="C"/><path d="M81 307a45 45 0 0 1 4-6h2l-5 9h-1v-3zm126-50c-6 6-6 6-8 4l8-6v2z" class="R"/><path d="m125 190-4-6 1-1 5 6-2 1" class="D"/><path d="m102 278-4 8-2-1 3-7h3m35 32 6-5 1 1-6 6-1-2z" class="R"/><path d="m122 241 3-6 1 2-3 6-1-2" class="D"/><path d="m364 130-1 9 1-9m0 163 3 9a59 59 0 0 1-3-9" class="C"/><path d="m153 323 4-3v3l-3 2-1-2" class="D"/><path d="m221 257-3 5-1-7 4 2z" class="F"/><path d="m373 103-2 6 2-6zm-12 49v6a22 22 0 0 1 0-6" class="C"/><path d="m215 230 1 6a21 21 0 0 1-1-6m54 65-3-3 2-1 3 2-2 2z" class="D"/><path d="M319 110h-4l3-3 1 3z" class="G"/><path d="m239 189-3 4v-4h3" class="R"/><path d="M123 344a13 13 0 0 1-6 2l5-3 1 1" class="E"/><path d="M353 268h3v5h-1z" class="M"/><path d="m251 251-2-2 2-2 1 1-1 3m-38-58v-5 5m3-35 1 3h-2l1-3" class="C"/><path d="m131 226 1-3h3c0 1 0 2-2 3h-2" class="D"/><path d="m376 95-2 5 2-5" class="C"/><path d="M218 284c1 0 4 0 2 3-1 0-2-1-2-3" class="F"/><path d="m47 84-3 1 1-4 2 3z" class="K"/><path d="M316 169v4-4" class="E"/><path d="M247 304h4-4" class="J"/><path d="M361 270v4-4" class="C"/><path d="M212 221h-3l1-4 2 4" class="G"/><path d="m168 203-3-3h1a33 33 0 0 0 2 0l1 1-1 2" class="C"/><path d="M356 157h-2l1-4h1z" class="M"/><path d="m337 127 3-3-3 3z" class="R"/><path d="M100 114v1a8 8 0 0 1-1 2l-2-2 3-1" class="E"/><path d="m145 330-3 3v-3c0-1 0-1 0 0z" class="D"/><path d="M296 137h-3l1-2 2 2" class="G"/><path d="m92 196-2-3 2 3zm270-54v3-3z" class="C"/><path d="m258 109 2-3-2 3z" class="I"/><path d="M368 115v4-4" class="C"/><path d="m252 110 3-1-3 1" class="I"/><path d="m231 227 2 2-2-2" class="G"/><path d="m292 261 2 2h-4z" class="E"/><path d="m189 185 2 2-2-2" class="H"/><path d="m183 304 3-2-3 2z" class="K"/><path d="m321 124 2-2 1 2h-3z" class="R"/><path d="m255 251 2 2-2-2z" class="C"/><path d="m161 161-3-2 3 2" class="H"/><path d="m223 218 2 3-2-3z" class="G"/><path d="m95 193 2 3-2-3zm131-26-2 2 2-2z" class="C"/><path d="M135 329v2-2" class="D"/><path d="M130 329v-2 2" class="H"/><path d="M380 365a29 29 0 0 1 1-1l-1 1" class="L"/><path d="M364 289v2-2z" class="C"/><path d="m255 305 2-1-2 1" class="J"/><path d="m304 304-2-1 2 1" class="H"/><path d="m217 204 1 1-1 1v-2" class="C"/><path d="m286 143-2 2 2-2M124 297h-2 2z" class="G"/><path d="M380 85v2-2z" class="C"/><path d="m288 141-2 2 2-2m-85 71h-2 2" class="G"/><path d="M363 284v2-2z" class="C"/><path d="m145 284-2 2 2-2" class="G"/><path d="m378 91-1 2 1-2z" class="C"/><path d="M308 283a3 3 0 0 1-2 0l1-1 1 1" class="D"/><path d="m217 281 1 2-1-2" class="F"/><path d="M362 278v2-2" class="C"/><path d="m333 135-1-1 1 1" class="E"/><path d="M370 99v-2 2" class="C"/><path d="m265 231-2-2 3-1v1l-1 2zm38 38v-2 2" class="E"/><path d="m370 111-1 2 1-2" class="C"/><path d="M215 161h1l1 2-2-2zm-86 162-1-1 1-1v2" class="H"/><path d="m371 316 1 2-1-2" class="C"/><path d="M312 164h2-2z" class="E"/><path d="m83 174-2-2 2 2" class="C"/><path d="M317 175v2-2" class="E"/><path d="m211 178-2-2 2 2" class="C"/><path d="m157 153 2 2-2-2m8 8 2 2-2-2" class="H"/><path d="m368 305 1 2-1-2z" class="C"/><path d="m326 307 1-2 2 2h-3" class="E"/><path d="m309 305 2 2-2-2m-177 15v1-1" class="H"/><path d="m210 169 1-3-1 3" class="N"/><path d="m134 210-1 1v-1h1z" class="C"/><path d="m128 302-1-2h1z" class="G"/><path d="M74 153h-1v-1l1 1" class="J"/><path d="M272 127v-2 2c-1 0-1 0 0 0zm105-46v-1h1a4 4 0 0 1-1 1" class="C"/><path d="M72 271h1l-1 1v-1z" class="J"/><path d="m261 312 2 1-2-1" class="D"/><path d="M93 191c0 1 0 0 0 0" class="C"/><path d="M167 314v-1 1" class="D"/><path d="M206 169h1-1z" class="C"/><path d="M223 258v1l-1-1h1" class="F"/><path d="M173 217v-1h1l-1 1" class="D"/><path d="m329 141 1-1-1 1" class="E"/><path d="M262 107z" class="I"/><path d="M365 164v44h-1v-47z" class="P"/><path d="M52 329c0 6-1 12-6 16l6-16m-3 9s0-1 0 0m-5 11h5l-2 5a342 342 0 0 0-4-3l1-2" class="B"/><path d="M40 193v-16 16zm0-109v-3 3zm5 4h1-1z" class="K"/><path d="m350 80-12 11-2-2a269 269 0 0 0 11-14h2l4-3v4a255 255 0 0 1-3 4z" class="B"/><path d="m346 67 1 3v1l-2 2-9 6-1-1 4-5 7-6" class="G"/><path d="m337 92-10 9-1-2 7-7h4m-18 17-1-2 4-5c2 0 3 1 3 2l-6 5zm17-44v-2l6-4 2 1-8 5" class="B"/><path d="M337 92h-4l2-3 3 2-1 1m-11 11-3-1 2-3 2 2-1 2" class="G"/><path d="m346 56 3-1a9 9 0 0 1 0 2l-2 1-1-2" class="D"/><path d="m345 73 2-1 1 3h-1l-2-2" class="I"/><path d="m345 60-2-1 2-2v3z" class="D"/><path d="M349 57v-2h2l-2 2" class="B"/><path d="m349 65-2 2 2-2" class="G"/><path d="M345 60v-3l1-1v2l-1 2zm6-5h2-2z" class="B"/><path d="M396 107V56h1v314h-1z" class="L"/><path d="M53 72h2a907 907 0 0 1 26 44l-4-4z" class="D"/><path d="M73 83h2l18 24a51 51 0 0 1 0 3L73 85v-2" class="C"/><path d="M93 110v-3l6 7h-2l-4-4z" class="B"/><path d="M85 121c-3 2-3-1-3-3l3 3m-3-3-1-2 1 2" class="D"/><path d="m115 346-2 5-32 18-1-2 1-1 2-2z" class="E"/><path d="m86 350 19-14v3l-15 12-4-1m-6 17v2c-2 2-4 3-7 3l7-5" class="B"/><path d="M105 339v-3l5-4v3z" class="H"/><path d="m111 335-1-3c1-2 2-3 4-3l1 2z" class="B"/><path d="m86 350 4 1-5 4v-3l1-2" class="H"/><path d="m83 364-2 2 2-2" class="D"/><path d="m115 331-1-2h3v1l-2 1m-37 31 1-1-1 1" class="H"/><path d="M117 346h-2 2" class="E"/><path d="M326 307h3l-1 2-2-2zm42-224-13 21-1-2 7-13 1-2 3-5a228 228 0 0 1 2 0l1 1z" class="B"/><path d="m355 106-6 9-4 2 7-12a48 48 0 0 1 2 1s1 0 1 0" class="E"/><path d="m328 116 1-2a26 26 0 0 1 3-1l-3 4-1-1" class="O"/><path d="M328 116v1l-2 3a9 9 0 0 1-1-1l3-3z" class="R"/><path d="m325 119 1 1a10 10 0 0 1-1 4l-1-2 1-3" class="B"/><path d="M367 82h-1l1-3v3zm2-6-1 3 1-3m-7 11-1 2 1-2" class="E"/><path d="M354 105h-1 1m0 259 2-2 4 1 1 1v1l-1 4-1-1-2-2z" class="B"/><path d="m315 346-2-1 2 1" class="O"/><path d="m357 366 2 2-2-2z" class="D"/><path d="m67 354 5-7h3l-8 7z" class="F"/><path d="M63 359h-1l3-4v3a28 28 0 0 1-2 1z" class="I"/><path d="M65 357v-2l2-1-2 3z" class="F"/><path d="M80 343a54 54 0 0 1-1-2l1 1v1" class="I"/><path d="M75 347h-1l1-1v1z" class="F"/><path d="m366 362-3-4 1-2 4 6h-2" class="O"/><path d="m364 356-1 1-2-1 2-1 1 1z" class="J"/><path d="m350 80 3-4a59 59 0 0 0 3-3l12-10-14 19-4-2z" class="I"/><path d="m371 61 1 1-1-1z" class="L"/><path d="m73 63-8-6 2-1a709 709 0 0 1 6 5v2" class="B"/><path d="m75 346-1 1h-2c0-2 1-3 3-4v3" class="I"/><path d="m79 75 2 2-2-2m-12-7v1l-1-1h1" class="C"/><path d="m104 73-11-6v-3l12 7-1 2zm-15-9-3-1 3 1z" class="G"/><path d="m71 363 2-2-2 2" class="H"/><path d="M360 61h1l-7 8-2-2z" class="I"/><path d="m351 67 3 2-1 2v1l-4 3-2-3v-1l4-4z" class="M"/><path d="M353 72v-1l3 2-2 2-1-3z" class="G"/><path d="M361 365v-1h1l-1 1" class="F"/><path d="m43 352 4 2v4h-1l-3-6" class="L"/><path d="M157 294c12-11 24-20 36-29l2 2-36 28-2-1" class="C"/><path d="m157 294 2 1-2-1" class="B"/><path d="M264 195c6-11 14-20 23-29l2 2-23 27h-2z" class="E"/><path d="M264 195h2l-5 8-2-1z" class="R"/><path d="m239 187 2-3a12 12 0 0 1 3 0c-1 2-3 3-5 3z" class="G"/><path d="m299 196-3 2 2-5v1l1 2z" class="D"/><path d="M239 189h-3l3-2v2z" class="B"/><path d="M300 183c-1 0 0 0 0 0" class="F"/><path d="m167 224 5-6-4 7a12 12 0 0 1-1-1" class="D"/><path d="m166 224 2 1h-1l-1-1" class="B"/><path d="m172 218 1-1-1 1" class="D"/><path d="m251 247-2 2-10-8 4-2 8 8zm21-12 5 8a50 50 0 0 1 0 3l-8-10 3-1zm20 25-2 2-4-4 1-3 5 5m-11-13 4 5-2 2-5-7h3zm-16-15 1-3 4 4-3 1-2-2" class="B"/><path d="m283 254 2-2 2 2-1 3-3-3zm-2-7h-3l-1-1v-3l4 4m-14-13 3-1 1 1-2 2-2-2z" class="E"/><path d="m268 291-2 1-5-4h2l5 3z" class="B"/><path d="M244 184h-2l1-4 1 4" class="D"/><path d="m168 199-2 1 1-2 1 1m-38 27h3c-1 4-4 7-6 11l-1-2 4-9m142-99c-1 0-1 0 0 0" class="B"/><path d="m203 164-6-4c4-1 5 0 6 4zm-11-9-2-1 2-2v3zm15-19 2 3-2-3z" class="N"/><path d="M146 330h-4c2-2 3-3 6-3v2zm7-7v2c-1 1-1 2-3 2v-2z" class="B"/><path d="M150 325v2l-1 2-1-2 2-2" class="D"/><path d="M323 266h-3c-1-2-3-4-3-7l6 7z" class="B"/><path d="m221 263 1-1v1h-1z" class="F"/><path d="m258 286 1 1-1-1m9 30-1 2-2-2h3zm-150 13h-2 2m-65 15 1-1-1 1m248-148-2-2 2 2" class="B"/><path d="m361 364-1-1 1 1" class="F"/><path d="M49 338c0-1 0 0 0 0" class="L"/><path d="M347 75" class="M"/></svg>