<svg xmlns="http://www.w3.org/2000/svg" height="150" viewBox="0 0 580 719"><style>.B{fill:#090909}.C{fill:#adadad}.D{fill:#5d5d5d}.E{fill:#202020}.F{fill:#2b2b2b}.G{fill:#313131}.H{fill:#020202}.I{fill:#797979}.J{fill:#d4d4d4}.K{fill:#141414}.L{fill:#fafafa}.M{fill:#f8f8f8}.N{fill:#f3f3f3}</style><path fill="#fbfbfb" d="M1 176V1h580v719H1zm491 521 1-2 1-1 3-4h1l3-3 5-5 4-3 2-2 10-11h1l9-9h1l2-2h1l14-14c6-7 7-16 7-24l-1-89-1-356V95l-3-10v-1l-10-8v-1l-8-7v-1l-12-10v-1l-9-7v-1l-6-6-4-4-4-3v-1l-2-1v-1l-4-3v-1l-4-3v-1c-5-4-9-8-17-8h-99l-250 1-11 1h-3c-6 1-10 6-14 11h-1l-2 3h-1l-3 1-6 6-7 7-3 1-1 3h-2a94 94 0 0 0-2 3l-3 3-5 4-13 13h-1l-1 2-2 1a60 60 0 0 0-2 3v1h-1l-4 4-2 6v2h-1l-3 1 2 5v104l-1 48-1 6v157l2 5v107l-1 90c-1 6-2 13 3 20v1c4 9 11 15 19 19v1l6 4 3 3 2 3 8 6v1l3 2 2 3 3 1 7 8 3 2v1l3 2 1 2 2 2 1 1 7 6 1 1 8 2h346l10 1 8-2h4l3-2 4-2 2-2h1l1-2h1z"/><path d="M457 706H113a31 31 0 0 0-6-3h-1c0-6-5-5-8-6a37 37 0 0 0-2-1s-1 0-1 0l-1-4c0-3-2-5-5-5v-1l4-4h-5l-11-8-4-1h-2v-2l-8-6-2-2 2-4-3-2h-4v-1l-2-1a16 16 0 0 1-2 0l-1-3-3-3-3-2c-1-6-2-6-5-4l-4-7-1-8-3-4v-10l1-4V381l-2-4 1-16 1-2v-59l-2-3a1104 1104 0 0 1 0-46l-1-1 1-49 2-3v-74l-2-3v-19l1-8 1-2c5-3 8-6 7-12 8 0 9-2 7-7h4v-3l1-1 3 2 1-1-3-2 4-4 7 1 1-9 2-3 3-3 1-1 2-1 2-2 4-2 1 2c1-2 5-3 3-6l5 2 6-4-7-2a6 6 0 0 1 2-1l3-3 5 3-2-6 15-10v-1h3c9 4 18 3 27 3l9-2h140c47 1 93-2 140 2h24c3 0 5-1 5-4h15c1 5 5 5 9 6l2 1 5 1 1 4v1-1h3l4 4 2 2 4 4 4 4c1 4 2 7 6 6 0 6 3 8 9 8v4c2 2 3 3 5 3l7 4c1 5 3 8 8 8l-1 5 2-2 5 4 4 2v1l1 11v20l2 4v16l-2 5 1 49-1 39 1 29-1 94 1 105v21l-1 45v59l1 43c0 7-2 10-10 11l4 2c-4 6-12 8-13 16h-3l-1-2-1 1 2 1v2l-9 3-1-2-1 1 2 1-1 6-5 1-3 4-3 6-2 1-3-1-6 7h3l-2 3h-1l-3 3-4 4v1l-2 2-2 2-2 2h-1l-4 1-3 2-3 1c-3-2-5-4-7 0h-2c-6-3-9-3-10 1M61 100l3 1v1l-5 3h8l2 5-2 1 1 1 3-2h3c3 3 4 8 9 7l1 1 1 3c4 0 5 4 9 6 5 2 9 2 13 0 5-3 9-5 9-10l6-1-4-5 2-1 4-1 4-3h3l1 3v5l-1 1-2 1-3-3-2-1-1 2 3 1-5 9-6 5-2 6 9-2 15 2h4l12 2v1h5l12 1 3 7-5 2-3-1 3-2-8 1a25 25 0 0 1-3 1l-4-1-9-1h-11l-4-1a34 34 0 0 0 0-2l-5-1h-3l-3 1-3 1c-7 0-7 0-6 7v3c-4 5-4 8 1 11-2 3 0 8 4 14v3l-4 10a59 59 0 0 0-3-3h-3l-1 5v335l1 8h4l1 1 1-1-2-2a68 68 0 0 1 0-3l2-4 3 3 1 2c0 3-2 6 1 10l-1 1a54 54 0 0 0 0 3l-1 1-5 13-1 7 2 3-1 9v3l7-1h12l3-3 6 1 7 1c2 0 3-2 6-4l2 1c0 5 3 2 5 2l22-4c2-4 2-11-2-15l1-5c-1-6 1-11-1-17l-2-10c-1-5 4-3 7-5v3a4 4 0 0 1-1 2 23 23 0 0 1 1 3v5c-3 3-2 7 3 9l1 1-1 2-1 5c0 2-1 5 3 6l-1 1a54 54 0 0 1 1 4l2 7v2l2-2 3 3 4 2h4l4-1 5 1c2 1 4 2 7-1l16 1c6 2 11 2 17-1l71 1 4 4-4 2 1 4h-1l-2 2 3 2 1 2h3l1 2c2 1 2 5 6 2h1v2l5 6c3 2 4 0 5-2h2l1 1 5 2 1 1v2c-1 4 0 4 5 3l6 1 3 2v2l1 6-4 1-6-1v-1l-2-3-1-4-3 3h-2v-1l-3-1v-1l-3-4-10-6-2 4-1-2c-2-8-10-6-16-8l-1-2-6-7 3-2-16 2-15 1c-3 0-4 2-4 5-3 1-5 3-8 3l-3-2-5-3 2-2h2l2-1 3 3v-7h-3l-5-1-3-1 3-4-5 1h-4l-4 2-4-1-4 1-1-1-7 1-3-1-2-3-2 4h-1l-25-1-5 1-3-1-5-2-1 5-4 13-2 2v-6h-1l1 8 3 3v2h-1l-3 1 1 1 2 1-1 3-6-2a13 13 0 0 1-2 6v3h1v-3l2-2 4 2-2 8-1-1-1-2-2 1 3 3 2 2 1 8c3 4 6 2 10 1l-1-4h1l5 4 1-1-3-6 1 1a22 22 0 0 0 2-3l3-2h3c3 2 4 0 4-3l9-5 3-1 1 1 1-3 5-2h1l3-2 1 1 3 3 2-7 6 2v-6l4-1c5-1 11-4 15 2l-1 1-2 1v-1c-2-2-3 0-3 2l-2 2-1-1c-3-1-3 1-3 3h-2l-2 2-4 1c-2 0-6-2-5 3h-1l-2 3h-3l-6 4-1-1-4-1c1 2-5 1-2 5v1h-1l-1-1-3 2-11 5-2-2-1 1 3 3v1l-2 1h-3l-1 4h148l29 1 16-1 4 1 5-1 1-3-7-3-1-1c2-1 4-2 2-4l-7 2a66 66 0 0 0-4-1s0 0 0-1l-6-4 2-3-4 1v-1l-1-3h8a4 4 0 0 1 2-1l2 2-2 3c3 3 6 1 10 0l1 2 3 1 1 2-2 5 11-2 1 1v2l2 2c2-3 5-6 6-10 0-3-3-6-4-9l4-3-6-3-2-8v-3l1-1-2-2v-1a33 33 0 0 0-1-4v-2c0-3 1-7-3-8l-1-2-7-3-2 3h-36l-9-1-13-1-3-2 1-1 4 1 10-3 2-1 3 1 2 2 3-3h15c3 1 6 2 9-1l3 1h5l8-2 3-1a5 5 0 0 1 2-1l2 1v-6l5-4-5-2v-6l1-3 2-1 1-1-2-2-1-1 2-4c0-2 0-3 2-5l2-1-3-2 1-4v-3l2-10 5 15-2-3-2 1c6 8 1 15 0 22v-1h-1l1 3 1 14-1 4 4 5 11-1 3 1c2 4 4 1 7-1l2 1 2 2c6 3 13 2 19 1 5 0 10 2 10 6l-9 2-6-1h-4l-3-1h-5l-2-1-3-2-19-1 1 1h-1c-5-1-6 2-7 4v-1h-1l1 3 4 5-1 2c-5 3 0 6 1 8l-5 2c6 4 6 4 7 12l3 4-1 1-3 1 1 2 5 4v1l1 3v1l11 2v-7h1l4 2-2-5 1 1h4l4-3 2 5-4 2c-2 1-5 2-5 6-1 2-5 2-4 6h-7l2 3-1 4-2 1 2 2 2-3 2 5-2 3c-7-4-14-6-22-8l-1-2-2 3-6-2-2-3-3 4-40-1-5-2h-76v1h44l4 2h-42l-6 1h-24a1092 1092 0 0 1-50-2l-5-1-6 2h-5l-4 1-10 3-4 2-6 2-1 3v1h-1a43 43 0 0 1-3 0l-1-2 1-5 3-1 3-6-1-1h1l2-2-3-2-8-5v-1l2-4-8-2-12-12v-1l-2 1-7-6-1-2-1-3v-1c1-5-3-4-5-4l-1-2-3-1v-2h4c-2-2-4-3-6 0H97l1-1h1v-1l-3 1-3 3c-4 0-6 0-7 4l-4 2-3 3h-1l-2 2h-3c-4 0-6 1-6 5l-2 2c-4-2-5 0-5 5l-3 6v2h1l1-2h1v1l4 7-1 1 3 1 4 5c0 3 0 5 5 3v1l-1 4 5-2 5 4v1c1 1 3 2 4 5l3 2 1 2 3 1 7 8c1 4 4 7 10 7h1v1c2 1 4 2 5-1l3-2 8-6h1l3-1 2-1h1l1-3 3-4h7l4 2-1 2-4 3c-5 2-6 7-9 12l1 2 1-3h287l21 1 1 1h3l-2-6h-4l-4-5c-2-5-4-9-10-10v-4l2-3 2 2 2 4 2-2 3 1 1 4c-1 2-1 5 2 6l9 1 1-1v1l2 3 1 2c0 4 2 5 6 3l3 2c2 1 4 2 5-1l3-1c4 1 8-2 10-8l2-1 3-4 1-3h2l3-1 1-1h1l2-3c1-2 5-2 4-6l5-5h3v-3h2l2 1 3-2 4-6-1-1 1-2h5l-2-2v-1h2c3-3 2-6-2-7l-5-7-2-2h-4v-1l-5-4v-1l-6-3v-4l-1 1-5-2-1-2a20 20 0 0 1 0-2l-4-1a10 10 0 0 1-2 0s0 0 0-1l-5-2h-1v3l-2 1-3 3-2 1c-5-4 1-5 3-7-6 0-8 3-8 11l-8 6-8 2v-1l13-14c3-3 4-6 2-9-3-2-2-4-1-7l1-3 4 1 5 2-2-5 1-1c1-6 3-12-2-18-2-2-2-5-3-8l-3-5v-3a20 20 0 0 0-1-3l1-1c1-5 2-9-2-12v-7c-3-2-5-4-1-8-6-1-3-7-5-9l-4-7 1-2 5-7 2 12 1 7 8 27 3-3 1 1 3 1 2-6v-18l-1-2h-1v22h-1V195l-2-2-2-3-5 7-5-1 2-3v-5l1-1v-3l3-14 3-1 4-3-1-1-5 4v-1l1-4 1-5 1-2 1-5v-3l-1-5h-3l-8-1-3-1-9-1-4 3-3-1h-16l-4 3c0 1-1 2-3 2h-7a71 71 0 0 1-2-3h-3v1l3 1-1 2h-4l-2-3-1 1 1 4v2h-1l-2 2 3 2v3l1 4v5l-1-1-1-2h-1l2 4 2 5 1 12 1 4-1 2-1 1 1 11 3 2v2l-1 8-4-10v-2c0-3-1-4-4-5l-3-6 1-1 1-8v-1l-2-1-1-3v-9l3-1-1-1h-3v-4l-1-3 1-1c3-3 2-5-3-7l-3-6-1-2h-1v3l-2 1h-1l-1-1h-4v-1l-2 1-7-1c-3-3-5-3-9 0l-1 1-1-1-22 1-7-1c-2-1-3-3-5-3l-4 4a440 440 0 0 1-40 0l-40-1-37-1-7 2-3-1-6 2-9 4v6l-1 3c-3 2-2 4-1 8l1 3-1 1h-1l-4 3 1 1h3a35 35 0 0 1 0 3l-1 1c-2 2-3 5-1 9l-2 9c-1 2-2 4 1 7l-1 3c-2 2-4 4-1 7a40 40 0 0 1 0 3l-1 3v10l-1 1-2 3-6 2v2l6 2v8h-2c-4 4-2 9-1 14l-2 8v6l-1 3-1 9-1 6c-3 3-3 6-1 10l-1 5-1 4v2l-2 1v-1h-1l1 3c0 2-3 5 1 8v6l-1 3c-2 2-5 3-2 7l1 4-1 25c1 2-3 6 3 8v3l2 11v12l-2 2 3 2-1 4-1 3h2l2-1v4l-1 3-3 2 3 4a14 14 0 0 1 2 2l1 2v17-1l-2-3c0 3-4 7 3 8l1 1-1 1 1 7v1l3 7-1 6v4h2l1 1v4l-1 3 2 5a327 327 0 0 1 3 23l-1 1-8 1 1-3c-1-4 4-8-3-11l1-3 1-11h-1l-1-11h1v5c1-9 0-13-6-16l1-5 1-1-3-17-2-3v-5l-2-7 1-1c0-4 2-8-3-12l1-1v-21l-7-9-1 1 1 6h-1l-3 6-3-3 2-5 3-17-2-5 1-4c1-4 3-7-1-11v-7l-1-12-4-7v-3l3-1-1-1h-4v-6l-1-2v-3l-3-5 1-4 4-1-6-4v-1c2-6-2-12-1-16l-3-7c-2-5 0-12-6-17v-5a38 38 0 0 0-2-2v-2c3-5-1-9-1-13l-3-1 1-2-2-4 1-2-1-5h1v-1h-2l-3-5v-3l1-1-1-10-3-15h6v1l-2 2-1 1 1 1 2-2 2-1v3l1 9 2 3-1 6c-2 2-2 3 1 4v1a118 118 0 0 0 5 12v2l2 9 1 3v1l1 2-1 2 2 2v1l-2 5 4 1 2 11c-3 2-1 3 1 3v1c-1 2-2 4 2 6l-1 3h-1l5 11 1 7c1 3-2 7 3 10l-1 1c-3 0-4 1-2 6v-4l1 2 5 3v2h-2c-2 3 0 3 2 4v4h1l1-2c1 1 2 4 4 2l3-1-1-7 1-4 2-3v-9h-2a32 32 0 0 1-1-3l1-1 2-3 3-24-1-6 1-2 4-22v-6l5-31 4-24-2-6 1-1 3-6 3 1v2h1l-1-4-2-8c-1-3-1-7-3-10l-1-1-1-1v-3c4-2 1-5 2-7v-2l1-1 3-3-1-1h-4l1-2 3-4-6-2v-6l-1-5v-5l3-4h-1l-4 1v-2l4-4-1-1-5 1v-6c1-3 2-4-1-5l-8-2-5 5c-2 2-6 3-8 6l-2 7a4 4 0 0 1-2 1l-2 3h-1l-3-4v-1l-1 1 1-5c4-5 10-8 16-11l-1-5 4-2 3 1c4-5 3-8-3-10v-1c-1-3-3-7-3-11l6 5-3 4 9-2c7 4 14 5 22 6l-2 1 10-1 1 1 1 1 2-1 3 1-1 6h-6l1 4 3 4h-3l4 1-3 2v1l8-1 3 1 3 2 6 4h-4v1l6-1 1 1v2l3-2 4 3c1 3 2 3 6 2h2v1l1 3 5 2v2h-3l8 4 2-2 11 4v2c9 5 18 8 26 14 6 3 9 2 15-1h1v2l18-9 2-1 7-3a61 61 0 0 1 2-2l2-1 4 1-1-4v-1l2-2h2l11-3c1-1 4 0 3-4l6-1 2 1v-1l-2-2 13-5 1-2 8-7h1l9-2 1 1 1-3c1-2 6-3 1-7l-6-2-3 4-18-1-3-3h-12l-4 4h-28l-46-1c0-4-3-3-5-3l-4 4-23-1c0-3 1-4 4-4h11l4-3h120l6-1 9 1 3 1 1 2 3-3 17-4-1 1-2 2 1 1 3-3 3-1c-1-1-2-1-2-3h6l1 1h1l-2-3 11-5v2h1l1-8 7-6 5-5-4-4-13-2H150l-5 1h-1l1 5-2-1-6 2c-1 2 0 3 3 4l6 8c1 3-1 4-4 5l-1-2 2-4-11-2v-1l-2-1c0-6-4-6-8-5l-2-2-5-6-1 5h-6l-5 11h-1l-4-3-1 8h-1a55 55 0 0 1-1 3s-1 0-1-1c-5-1-8 2-8 8l-4 3c-4-1-4 2-4 4h-1l-7 3 1 4h-1l-2-1-9 10c-1 1-2 3 1 5l-1 2a39 39 0 0 0 2 2s0 0 0 1m443-31h-1l-1-3-3-2v-1l-4-5-1-7-1 1-3 5-1-1v-2a19 19 0 0 0-3-1l-1-1-2-3-4-3-4-2-1-1-1-3a10 10 0 0 0-3 0l-6 3-1-1-5 3 2 3-4 2c-3-1-2 2-3 3h-1l-2-4-1 1 3 4h-1l-5 1-2 4-2 3h-1c-7 2-15 10-16 17l7-2v5l4-1-1 1-1 2 6 4 6 3v1l-2 3c4 5 4 5 10 4l4 4s1-1 0 0l1 7 7 1v3l6 4 10 5v1l3 2-1 3c3-1 8 2 9-3l3-3 5-1 3-1 3 2-5 8h-1l-5 2-2-1-1 2 3 1v1l-4 1-1 1 2 1-2 4v3l-1 47-2 5v305l3 3-1 43-1 15 2 6-1 1v4a41 41 0 0 1 1 3l1 4-2 3v1l1-1 1 7 3-2v1l4 1a8 8 0 0 1 2 0s0 0 0 1l-1 1 1 2h2l1 1c0 5 3 2 5 3l2 2-1 5 6-3 4 4 5 3 4 2v1l3 1 1 1a50 50 0 0 0 0-3l-1-1 2-28 1 5v19h1v-61l-3 6v-15l2-4v2l1-1v-5h-1c0 1 0 2-2 2v-36l2-2v2l1-1v-5h-1c0 1 0 2-2 2v-59l2-2v-20l-3-3 1-15 2-1v-21l-3-3 1-7-1-5 1-19c2-3 4-6-1-9l1-15 2-6V118c0-2-2-3-3-5l1-2c-3-3-5-3-7 1h-1l-4 2-3-3h-1l1 6-3-2c-1 5-2 6-7 5l-4-1c3-2 4-7 9-6 1-5 6-6 8-8l2-4h4l4-7c-2-2-3-7-8-6v-2c1-3-1-2-3-1h-1v-1l-1-3v-4l-4-3-6-1h-1v-2l-3-2M119 597v1l2 1v1l2 4c1 2 2 4 6 4v2l1 1v-2l1 1 2 1v1l3 6 4 1v3h1l2-3 2 3 12 9 1 3 6 4h1l1-2h1l2-4 1-2c3-2 4-4-1-7v-1l1-4v-3l2-5a58 58 0 0 1 0-4l1-1 3-13v-1l2-3c2-2 1-2-1-3h-3l-9-1-16 2h-4l-4-1a55 55 0 0 1-5 2h-8l-5 3-2-1h-2l-6 1 3 4 1 1v1l2 1m-39 1h1l3 4 1-7h1l2-4 1 1 2-3 4-6 1-4 1-2c3 0 3-3 3-5v-30l1-5c2-4 0-7-4-9V361l1-64c4 0 3-3 3-5l-4-4 1-135a24 24 0 0 1 1-2l-1-3-2 2-1-4 1-1h-2l-3-11-3-2-4-3-1-2-2-3v-2a89 89 0 0 1-5 0l-2-3h-4v-5l-4 2-1-1-4-4-5-2-1 7v145l-1 6-1-6V114h-2l-1 152 1 24-1 24 1 8-1 16v22h1l1-22v4l-2 36v6h1l1-6v31c-1 27 2 54-2 81v94l1 25 1 6-4-1 3 3 5-4 1 1 1 1h7l7-8-2-2 5-4 2-1 2-2h1m134-494-4-1v-1c0-1 0-3-4-2l-2-2 3-1-1-1-5 1-8-5-6-3-7-2c-3-1-4 1-2 4v1l-1 5-1 2 2-1 1 2v2l-1 1v11l3 3v1l-1 2 2 8h2v2l2 4c0 2 1 3 3 5l12 2 2 3c2-1 6 0 7-4h8l7 1 2 3 3-4 20 1h8c2 0 6 1 8-4 3-1 3-3 0-5l-25-14-3-1-1 1-1-1-8-6c-1-4-2-4-6-3l-4-3c0-4-2-1-4-1m114 24-1-1-1-3-3 3-1 3h-2l-4-1 3 5 4 3 3 2 1 1h11l7 1 9-1 16 1 3 2 3-3 22-1 2-2c3-4 4-8 3-13v-1h1l6-2v1h1l-1-2c4 1 1 3 1 4l1 6-1 2v5l-1 3h1l5-2h9l6 2h1l-1-1 1-2 1 1 6 1h17v-1l-5-1 1-2h6l5-1h1l6-1 1-4-1-2 1-2c-3-2-4-8-10-6l-1-2c0-4-3-6-7-6l-2-3-2-1c1-7-7-6-9-11l-1 3-1-2-3-9c-7 2-6-3-6-8h-1l-3 4c0 1-1 2-3 2-4 0-4 2-4 5l-1 5-5-1 4 5-3 11c-1 5-2 6-9 6v-1l2-7 3-3c3-1 1-2 0-4l2-12c0-3-1-3-4-3h-1l-2-1 1-3h-2l-1 5h-1a65 65 0 0 0-2 2l-2 3h-2a86 86 0 0 1-4 3h-2l-1-1-1-2-2 3-3 1-2-3-1 1 1 5h-6s-1 0 0 0l1 2c-3 1-5 3-8 3l-3-2-2 5h-2c-1 0-4 0-2 4l-10 7h-2c-2 0-5-1-5 3l-1 2h-2a20 20 0 0 1-3 1l-5 3h-2M157 352l-1-1-1 1 2 2v14h1l-1-16m227 226h-22v1l22 1h-22v1h25v-1l-3-2M51 427v-17h-1v69h1zM167 33h-2v1h64v-1h-62m112 114h1v-1h-30v1zm257 370v-3h-1v6h1v-3M123 23l-1 2h6v-2h-5m293 607h-1v1c-1 3-1 3 2 3l-1-4M176 507l-2-2v1l2 6zm-68 43-2-2-1 2h3M487 47l-1-3-1 2 2 1M203 630l-3-1v2l3-1m-78-395-1-4-1 1 2 3m56 317-1-2h-1l2 2m158-409h5v-1l-5 1m139 403-2 1 1 1a6 6 0 0 0 1-2m-22 37h-6v1l6-1m73-498-3-1v1h3m-54 41 1-2h-2l1 2M52 109h2l-1-1-1 1m362-25-1 2h2l-1-2M174 499l-1-1-1 1h2m-9-56-1-2-1 1 2 1m159 155 2-1-1-1-1 2m-229-6 1-2h-2l1 2m314-477 1-2-1-1v3m-15-40 1 1h1l-2-1m4 8 1 1 1-1h-2M56 652v-2l-1 1 1 1m46-57h2v-1l-2 1m305-40-1-2-1 1 2 1M139 99l1 1 1-1h-2m-29-75-2-1v2l2-1m23 246-1-2-1 1 2 1m48 307 1-2-1-1v3m165-463 2 1 1-1h-3M38 95l1-2-1-1v3m487 521 1-1h-1v1m-398-5h-1l1 2a2 2 0 0 0 0-2m20-578h-1v1h3v-1a17 17 0 0 0-2 0M83 660v1-1m-3-540 2-1h-1l-1 1m25 28h1v-2h-1v2m422 475 1-1-1-1v2M411 110l-1-1-1 1h2M143 669h-2 2m181-525v-2 2M140 687l-1 1 1 1v-2m198-571v2-2M119 684v1l2-1h-2m383-23 1-1-1-1v2m-79-7 1-1-1-1v2m-25-507 1 1 1-1h-2m135 503-1 1 1 1v-2M142 322l1 1 1-1h-2M84 49v-2 2m457 593-1-1-1 1h2M187 150h-2 2m346 482h2-2m-493 5h-2 2m79-603h-1v1l1-1m415 593 1-1-1-1v2m-27 29-1 1h2l-1-1M133 274v2-2m267-131 1 1v-2l-1 1m-20 485v2-2m10-536v-2 2m42 490v-1h-2v1h2M419 83v2-2m-252 1-1-1-1 1h2m277 500-2-1v1h2m-330 2v-2 2m5 0 1-1-1-1v2m213-464-1 1 1 1v-2M177 581h-2 2m-18 0 1 1 1-1h-2M381 75h2-2m136 534h-2 2m-169 0 1-1-1-1v2M81 66v-1h-1l1 1m102 70-1-1-1 1h2m-50 128-1-1-1 1h2M78 604l-1 1 1 1v-2m393 0h-2 2m47 9 1 1 1-1h-2m-19 51 1 1-1-1M167 472h1-1m308-334-1-1 1 1m-369 27v-1h-1l1 1m370 10v1h1l-1-1m45-100-1 1 1-1M226 618l1 1-1-1m241-117v-1h-1l1 1M154 143l1 1-1-1m-37 59-1 1 1-1m-1-65-1-1 1 1M447 34v1-1M117 216l1-1-1 1m364 342h-1 1M126 681l-1-1 1 1m-4-543v1-1M79 49l-1-1 1 1m-23 57-1-1 1 1m142 39h-1v1l1-1m-34-73 1 1-1-1m-35 189h-1 1m23 115 1-1-1 1m301-270v-1 1M68 73l1 1-1-1m414-31h1v-1l-1 1M181 151h1-1m-70 443v1-1m361 95v-1 1m-20-587h-1 1m22 422h-1 1m-64 54v1-1m-304 0h-1 1m262-478v1-1m106 483v-1 1M74 114v1-1m64 186h-1 1m-29-115v1-1m18 73v-1 1m38-188v-1 1m-47 52v-1 1m23 502v1-1M478 41v1-1M73 53h-1 1m401 87v1-1m6 445v-1 1M161 81h-1 1m245 1v-1 1M107 185s0 1 0 0m38 440s0 1 0 0m391-518s0-1 0 0m-58 447s0-1 0 0M138 23s0 1 0 0m-22 101s0 1 0 0m-44-7s0-1 0 0m134 511s1 0 0 0M144 23s1 0 0 0m-24 208s1 0 0 0m376 441s1 0 0 0M225 105s1 0 0 0m272 580s0-1 0 0M74 118s0-1 0 0m48 116s0 1 0 0m43 37s1 0 0 0m-44 417s0 1 0 0m-71-80s0 1 0 0m481-502s0-1 0 0M141 302s0 1 0 0m34 307s0-1 0 0m231-63s-1 0 0 0M114 23s0 1 0 0m371 674s0 1 0 0m-271-76s1 0 0 0m235-480s1 0 0 0M162 33s0 1 0 0m70 0s1 0 0 0m316 54s1 0 0 0M265 648s1 0 0 0M152 33s1 0 0 0m25 617s0-1 0 0m9-1s0 1 0 0m219-63s-1 0 0 0M138 35s-1 0 0 0m-13 548s1 0 0 0m30 73s1 0 0 0m262-5s0 1 0 0m58-456s-1 0 0 0m-290-42s-1 0 0 0m200 479s-1 0 0 0m87-438s0-1 0 0m34-147s-1 0 0 0M117 600s1 0 0 0M95 139s0 1 0 0m34-27s0 1 0 0m17 555s0 1 0 0m15-526s-1 0 0 0m-4 501s0-1 0 0m315-515s0-1 0 0" class="H"/><path d="M535 655c1-8 9-10 13-16l-4-2c8-1 10-4 10-11l-1-43v-59l1-45v-21l-1-105 1-94-1-29 1-39-1-49 1-5a770 770 0 0 1 1 35l1 356 1 89c0 8-1 17-7 24l-15 14zM458 16c0 4-2 5-5 5h-24c-47-4-93-1-140-2H149l-9 2c-9 0-18 1-27-3l10-1 250-1zM31 377l2 4v229l-1 4h-1V377z" class="B"/><path d="M31 377v40l-2-4V256l1-6 1 1v126z" class="C"/><path d="m31 121 2 3v74l-2 3a15 15 0 0 1 0-5zm524 0-2-4V97l-1-11 3 9v26z" class="B"/><path d="m35 637 5 6 5 4v1l3 1v1l3 2 1 3c-8-4-15-10-19-19l2 1z" class="C"/><path d="m489 25-5-1-2-1c-4-1-8-1-9-6 7-1 11 3 16 8M73 673l4 1 11 8h5l-5 4h-2l-8-7-2-2a27 27 0 0 1-2-2z" class="B"/><path d="M30 614h2v11l1 9c-5-6-4-13-3-20" class="C"/><path d="M534 67c-2 0-5-1-7-3-2 0-3-1-5-3v-4l12 10zm-23 610a30 30 0 0 1 3-6l3-4 5-1-11 11zM110 18v1L95 29c4-5 8-10 15-11zm413 642 9-3-9 9v-6zm29-575-4-2-5-4-2 1 1-4 10 9z" class="B"/><path d="M52 69a13 13 0 0 0-1 1l-3 3h-2l13-12-2 3-5 4v1z" class="C"/><path d="m57 64 2-3 6-5-1 9-7-1zm465-7c-6 0-9-2-9-8l9 8M39 80c2 6-1 9-6 12v-3l3-5 3-4m7-7h1c2 5 1 7-7 7v-1l2-3a11 11 0 0 1 2-1l2-2zm10 584h4l3 2-2 3-4-2-1-3zm401 49c1-4 4-4 10-1v1h-10M33 634l-1-9 3 3 1 8h-2l-1-2zM542 75c-5 1-7-2-8-7l8 7m-39 608-3 1 6-7 3 1a14 14 0 0 1-4 4 18 18 0 0 0-2 1zM98 697c3 1 8 0 8 6h-3z" class="B"/><path d="m79 44-4 2 7-7h1v1l-4 4" class="C"/><path d="M513 48c-4 2-5-1-6-5l6 5" class="B"/><path d="m63 665 7 6a60 60 0 0 1-7-6" class="C"/><path d="m98 697 5 5-7-5h2" class="I"/><path d="m94 29 3 6-5-3 2-3z" class="B"/><path d="M467 706v-1h2l6 1z" class="I"/><path d="m89 35-2 1-4 3 6-6a2 2 0 0 1 0 2" class="C"/><path d="M89 687c3 0 5 2 5 5l-1 1-1-1-3-3a9 9 0 0 0 0-2z" class="B"/><path d="m104 704 2-1 1 1 4 2z" class="I"/><path d="m56 657 1 3-5-5h2l2 2M32 92v3a19 19 0 0 1-1 2l-2-4z" class="C"/><path d="m475 706-6-1c2-4 4-2 7 0l-1 1zM31 97l1-2-1 7v-5z" class="B"/><path d="m35 84-2 5 2-5" class="C"/><path d="m503 684 2-2-4 5 2-3" class="D"/><path d="M493 29h-3l-1-4 4 4m4 4-4-4 4 4M111 706a26 26 0 0 1-3-2l5 2h-2M471 16l-6 1 6-1" class="B"/><path d="m494 694 3-4-3 4" class="D"/><path d="m503 39-4-4 4 4M89 35v-2l2-1-2 3z" class="B"/><path d="M89 687v2l-3-3h2l1 1z" class="I"/><path d="m482 702 4-1-4 2v-1" class="D"/><path d="m70 50-3 3 3-3" class="C"/><path d="M482 702v1l-3 1 3-2" class="B"/><path d="m89 689 3 3-3-3" class="I"/><path d="m497 690 3-3-3 3" class="D"/><path d="m73 673 1 2-3-2h2" class="C"/><path d="M93 693h1l1 3-2-3" class="I"/><path d="m42 76-2 3 2-3" class="C"/><path d="m487 701 2-2-2 2m2-2 2-2-2 2m2-2 1-2-1 2" class="D"/><path d="m76 677 2 2-2-2" class="I"/><path d="m73 47-1 2 1-2" class="C"/><path d="m499 35-2-2 2 2m33 620h2l-1 2-1-2z" class="B"/><path d="m46 73-2 2 2-2" class="C"/><path fill="#fefefe" d="m183 183 1-2 1-6v-2l1-8v-2l1-3c0-6 5-7 8-10h33l21-1h40l8-1 32 1 8-1 8 1h24l3 1h20l1 1c4 1 5 4 6 7l1 5 1 2a305 305 0 0 0 1 16l3 12-1 2 4 29 3 17 1 5 1 11v2l1 6 1 3 2 12v4l4 30 3 16v2l1 15v3l-1 44-1 3-3 21v2l-1 11-1 3-1 9-1 3-3 22v2l-1 9-1 3-1 12-1 3v5l-1 3v2l-1 3-2 19-1 2-1 11-1 5v4l-1 4-5 17-3 1H193l-3-2-4-13v-2l-1-8a32 32 0 0 1 0-3l-2-7v-1l-2-11v-3l-4-30v-4l-1-5-2-11v-3l-2-19-3-13v-3l-2-12v-4l-3-21v-2l-2-11v-46l1-3 1-12 1-3 3-19v-4l1-7 1-7v-6l1-3 1-11 1-2 1-10 1-2v-10l1-2v-3l1-2v-5l1-1v-3l1-4v-9l1-4 1-1 2-19v-4z"/><path fill="#fcfcfc" d="m491 143 2-5 3-3 5-4h1l6-4 14-12 4-3 6-1v199l1 3-1 16 1 8-1 20 1 4-1 8 1 24-1 16 1 24v57l1 3-1 3v35l1 2-1 5v46l-1 28-3 1-5-4-3-2-7-6-1-1-12-8h-1l-5-9-4-12v-2l-1-20 1-44V143m3 91v-80h-1v94h1v-14m2 32v-16h-1v38h1zM76 600l-2 1c-6 1-10 5-13 9h-6V116l2-6 4 2 4 4 3 1 2 1v1l13 9 1 1c3 8 8 14 10 21 2 8 1 17 1 25v389l1 5-1 2-2-1c2 7 0 12-4 18l-7 8h-1l-2 2-3 2z"/><path d="M447 682H139l7-11 4-3 4-3 2-2h1c5-2 9-5 14-6l30-6 47 1h138c16 0 31 1 45 11a8 8 0 0 0 0 1l10 9 4 5 2 4z" class="M"/><path d="M143 41h304l-10 12-8 7c-10 6-22 10-35 11h-9l-17-1H186c-21 0-35-12-46-29h3z" class="L"/><path d="M481 530h-2l-7-32-14-53-15-62c-2-11-5-23-2-35l14-57 11-45 7-32 1-3 3-11 4-7v292z" class="N"/><path fill="#f7f7f7" d="M114 547v-2a8 8 0 0 0 1-2v-2l4-12v-2l8-33v-2l5-15 15-62 4-18h1l2 4c2 6 2 13 3 19v2l2 11v2l1 6 1 6 3 20a111 111 0 0 0 0 6l2 10 3 22v4l2 10v4l1 12 4 20v6l1 11-26 4h-3l-13 2h-27l1-9 5-22zm296 25v-5l1-3 11-87 11-77 2-5 1 3 18 72 6 24v3l11 42v2a16 16 0 0 0 1 2v4l7 30v1l-3 2-5-1h-10l-25-3h-3l-23-4z"/><path d="M119 194v-2l-2-14-3-4v-7a424 424 0 0 0-4-15l1-6 14-1h4l5 1a107 107 0 0 0 13 1h2l4 1h8l2 1 12 1h2l-1 11v2l-2 12v2l-2 10-8 60-1 18-1 3-5 32v2l-3 23h-2l-3-5v-5l-4-13v-2l1-2-14-59-4-8a3 3 0 0 1 0-2v-4l-7-28-2-3z" class="L"/><path fill="#fcfcfc" d="M419 149h8l11-2h3l16-2h2l9-1h9l1 1v4l-2 13-1 2-1 3-15 60-2 14-1 2-8 33-1 4-1 3-3 12v3l-1 1-1 6v2l-4 5-4-1-4-22-1-3-1-5v-2l-1-5v-2l-1-6v-2l-5-44-2-3v-3a119 119 0 0 0-1-13l-2-6v-2a497 497 0 0 0-1-25l-2-3-1-2 1-3-2-7v-2a10 10 0 0 1 2-1l5-1h2m23 128 1 1v-1a2 2 0 0 0-1 0m-12-4-1 1 1 1v-2z"/><path d="M426 272v3l1 4v2l1 5v4l4 23v2l2 10h2l5-18v-2l2-6v-1l1-3 3-12v-3l2-5 6-22 2-10v-2l2-5 7-27c1 4 4 5 7 5l-7 32-11 45-14 57c-3 12 0 24 2 35l15 62 14 53 7 32-2 3-8-27-1-7-2-12-6 7-6-24-18-72-1-3-2 5-11 77-11 87-1 3-1-14c1-8 6-15 0-23l2-1 2 3-5-16v-11l1-4 1-4v-3l2-5v-2a125 125 0 0 0-1-5l1-3 1-9 1-3 3-21v-3a98 98 0 0 0 2-13l1-10 1-3 2-20 1-4c4-14 4-28 2-43v-3l-2-15v-3l-5-43-2-2v-5l-2-11v-3l-2-6 1-2-2-11v-5l-1-5-3-30 2 2 1-1-4-4a15 15 0 0 1 0-2c3 0 4 1 4 4v2l4 10 1-8 2 5v4l5 33 2 13v3l1 5m-14 251h2l-1-1-1 1" class="B"/><path d="M379 633h1l11 8-1 2a89 89 0 0 1-5 0H197v-4a25 25 0 0 1 3-2l14-8h1l5-3 1-1h2l5-3a34 34 0 0 1 3-1l3-1 4-3h1l10-6 1-1h2l4-2 3-2 16-8 4-4c9-4 18-5 27-2l8 5 2 1 15 9a15 15 0 0 0 1 1l15 7v1l3 1 1 1 7 4a6 6 0 0 0 1 1l7 3 1 1 12 6zm1-544-32 18-11 6h-1l-2 2h-1l-33 18h-2c-6 2-10 0-15-3l-36-20-3-1-3-1-2-2-5-2h-1l-2-2-2-1-20-11-14-10h22l24-1 24 1 8-1 46 1h74l-2 3-11 6z" class="M"/><path fill="#f9f9f9" d="M140 325v2l2 5v2c0 4 1 8 3 11v3l-1 31 1 2-1 2a113 113 0 0 0-3 14l-3 9-3 16-1 5-1 3-1 3-1 6-2 7c-4 2-4 4-1 6l-1 2c-2 1-5 2-1 4l-1 2-2 2a538 538 0 0 0-4 18c0 2-3 5 0 7l-1 2-1 5-1 2-4 9-1-6V226l-1-10 2-3 1 2v4l5 20 3 9v11l6 19 2 3v8l6 27 5 9z"/><path d="M60 97v-3l3-6 7-7h1l7-7 5-4 4-3 7-7 1-1 2-2 6-5h1l10-11 6 1a49 49 0 0 1 2 2l8 5v1l2 1v1l5 3 4 3 1 1 13 12v8l-4 3-7 5-24 23a39 39 0 0 0-3 2l-14 13c-2 2-4 2-6 0l-13-8-1-1-9-6v-1l-7-4v-1l-3-3-3-2-1-2zm444 510v1l6 3 5 5 11 9 1 7-1 1-2 2h-1l-2 2-3 3-5 5h-1l-3 3-5 5a294 294 0 0 0-13 12l-9 7-3 3-4 3a10 10 0 0 0-1 2 12 12 0 0 1-2 1l-4-1-11-8h-2v-1l-2-1v-1l-2-1-1-1-8-6-8-8c-4-3-5-6-1-9l7-6 25-23 11-10 3-3 1-1 3-3 2-1h7l2 2 1 1 2 1a19 19 0 0 0 1 2l6 4zm-383 72-3 2h-5l-2-2-5-5-1-1-11-10-4-4-6-4a93 93 0 0 0-11-11v-1l-13-13 4-7 2-2 5-4a18 18 0 0 0 3-3h1l1-2c2 0 2-1 3-2l4-3 3-2 7-4h2c7-1 12-1 18 3l9 9 1 1 21 20 4 4 1 1a17 17 0 0 0 1 0l6 10-1 2-5 5-1 1-2 2a99 99 0 0 0-7 6l-11 8-8 6zM485 53l2 1 2 2 2 2v1l3 2v1l7 5h1l1 2 2 2 2 2 12 12 4 3 2 3c3 3 3 5 0 8l-2 2h-1l-26 22-3 2-1 1c-2 3-4 1-7 0v-1l-3-2v-1l-15-12h-1l-7-8h-1l-4-3v-1l-8-7v-1l-10-9h-1l-3-3-1-1c-1-3-1-5 1-7l10-8h1l8-6 4-3h1l6-4c4-3 7-7 12-5h1l6 6 4 3z" class="M"/><path fill="#f4f4f4" d="M198 626h-1l-4 3-1 1-4 1-9 3 2-15 1-10v-2h1v-3l1-2 1-4v-1l1-6 1-2 2-5 6-1h4l26 1 29 1 4-1 4 1a40 40 0 0 0 2 3l-1 3h-2l-5 4-4 1-2 2-6 3-8 5-2 2h-4l-7 5-4 2-2 1-4 2-6 2-9 6z"/><path fill="#f9f9f9" d="m327 139-1-1v-7h3l2-2 9-5h1l4-3a31 31 0 0 1 2-2h1l7-4 34-19h3l4-3h1l9-6 2 1v9l-2 12-2 8-1 4v2h-1v3l-2 3-1 6-1 1-1 3-22 1-1-1a401 401 0 0 0-38-1l-9 1z"/><path d="M236 118a4 4 0 0 0 1 0l28 16-5 4-11 1h-26l-6 1h-16l-13-1-3-13v-2l-1-3-1-2-2-7v-2l-2-8a12 12 0 0 1 1-3l-2-7 1-2 9 2 20 11h2v1l5 2 1 1 8 4 1 1 11 6z" class="M"/><path d="m353 606-1-1-5-3h-2l-4-3h-1l-6-3v-1l-5-2-6-6 15-2 17-1 36-1 2 1c4 1 6 3 7 7 0 7 2 13 4 19l4 10v5l1 3-1 2-3 4a6 6 0 0 1-2 0l-2-2-3-1v-1l-4-2-3-1-2-1-6-3-3-2-1-2-6-2-3-2-3-2-4-1c-3-3-7-5-10-6z" class="L"/><path d="M425 138h-10l-4-1 1-3-1-2 1-3 9-39 2-3 4 1 11 9 1 2 10 9c0-1 0-1 0 0l2 1 2 3 7 6 1 2 9 7 1 3-7 4h-2l-4 1h-7l-18 2h-2l-6 1zm20 449h7l7 2h2c3 0 8 0 9 4 0 2-4 5-6 7l-29 27-3 3h-1l-10 5v-1l-1-3v-2l-2-6v-2l-5-25v-3l-1-8h5l21 1h3l4 1z" class="N"/><path fill="#f7f7f7" d="m158 633-2-2-11-10a40 40 0 0 0-3-3l-9-7-1-2-6-6-5-4-2-2-2-2v-3l4-2h2l14-2h4l4-1a45 45 0 0 1 5 0l15-2h10l1 6-1 2-2 12-1 2v3l-2 6v2l-2 4-1 6c-1 7-3 8-9 5z"/><path d="M447 41h-92l-209-1-1-4 5 1h266v-1H145l5-1h285l13 2 4 4-5 5 2-4-2-1zM54 267l1 70v276l-4 4-3-3 4 1-1-6-1-25v-94c4-27 1-54 2-81l-1-32 1-35-1-5V114h2v147l1 6" class="B"/><path d="M167 96v2l1 9 4 14v2a160 160 0 0 0 3 14h-22a18 18 0 0 1-1-1 132 132 0 0 0-16-2l-18-4 5-7 1-1 4-4 1-1 3-2 5-5 2-3h2l2-3a18 18 0 0 1 1-2l16-13c1-1 4 0 5 1l2 6z" class="L"/><path d="m490 193 1 3v306l-1 3-2-2V198l2-5zM145 383v-2l2-7 2 4-3 17-2 5 3 3 4-6-4 18-15 62-5 15c-3-6-4-6-8-2l-1-1 1-2 7-27v-2l1-4 1-2 1-6 2-7 2-6v-3l1-3a111 111 0 0 1 1-5l7-25v-2l3-12z" class="B"/><path d="m96 569-1-5V175c0-8 1-17-1-25-2-7-7-13-10-21l5 3 2 3 3 10 1 1 1 4 1 1v407l-1 11z" class="C"/><path d="M481 530V194l2 1v333h1v-22h1l1 2v18l-2 6-3-2zm-373 1v4l-4 1-1-8V193l2-4v344zm425-218-1-3V114c1 1 3 2 3 4v189l-2 6z" class="B"/><path d="m143 40-3 1c11 17 25 29 46 29h182l17 1-5 1H224l-17 1h-10a23 23 0 0 0-2-1h-2l-7-1c-8 0-15-1-23-5l-5-2-7-5-3-4a25 25 0 0 0-2-2l-6-8-2-4 5-1z" class="G"/><path d="m436 627 28-27c2-2 6-5 6-7-1-4-6-4-9-4l-2-1 8-2c0-4-5-6-10-6-6 1-13 2-19-1l-2-2 25 2a210 210 0 0 1 10 1v3c-1 3-2 5 1 7 2 3 1 6-2 9-5 4-9 9-13 15l-5-1c2 4 3 4 5 1l8-1v2l-26 23a26 26 0 0 1-1 0c-1-4 2-5 4-6l4-2-2-5-4 3-4-1m13-2s-1 0 0 0" class="B"/><path d="M198 573h187v1h-16l-16 1H204l-3-1-3-1z" class="D"/><path d="M431 662c-14-9-29-10-45-10H273l5-1h120l7 1h2c8 1 15 3 23 7l1 3" class="F"/><path d="m163 265 1-18 8-60 2-10 2 5-4 24-5 31v6l-4 22" class="E"/><path d="m438 97-11-9-4-1-2 3-9 39-1-5c0-1 3-3-1-3l-7 2v-2l1-3c7-1 8-2 9-7l3-11-4-5 5 1 1-5c0-3 0-5 4-5 2 0 3-1 3-2l3-4h1c0 5-1 10 6 8l3 9z" class="B"/><path d="m466 209-7 27-2 5 2-14 15-60 1-3h1a77 77 0 0 1-1 5v1l-4 15v4l-1 4-1 4-2 7-1 5z" class="D"/><path d="M234 72h25l-3 3h-11c-3 0-4 1-4 4h-24l3-3h9c3 0 5-1 5-4zm-95 35-2 3-5 3v-4l-1-3h-3l-4 3-4 1a971 971 0 0 1 30-28l2 5c-6 3-12 6-16 11v5l3 4M97 534v-5c4 1 6 4 4 8l-1 5v30c0 2 0 5-4 5v-8l1-11v-22a25 25 0 0 1 2-1l-2-1z" class="B"/><path d="m447 41 2 1-3 4-6 7-2 4-11 7a101 101 0 0 0-8 3l-18 5h-7c13-2 25-6 35-12l8-7 10-12z" class="G"/><path d="m128 231 4 8 14 59-1 2-2-1-1-7-3-10v-4l-2-5v-1l-1-3-2-12-2-5v-1l-1-2v-3l-1-1v-4l-2-10" class="C"/><path d="m84 118 13 7c2 2 4 2 6 0l14-13 5 4-6 1c0 5-4 7-9 10-4 2-8 2-13 0-4-2-5-6-9-6l-1-3" class="B"/><path d="m247 111 36 19c5 3 9 5 15 4-5 2-8 3-14 0-8-6-17-9-26-14v-2l-11-5a17 17 0 0 1 0-2z" class="E"/><path d="m353 650-32 1-5-2h-44v-1h76l5 2zm-32-74a356 356 0 0 1 23 0l-10 3-4-1-1 1 3 2 12 2-22 3-1-4 4-2-4-4zM32 361l-1-33v-31l2 3v59l-1 2zm439 178a1204 1204 0 0 1-7-36c2 2-1 8 5 9-4 4-2 6 1 8v7c4 3 3 7 1 12zm-219 57 4-1 4-2 5 3 3 3-8 5c-5-5-11-2-17-1l1-2 6-3 2-2z" class="B"/><path d="m249 148-21 2a427 427 0 0 1-30 0l3-1h4l7-1z" class="D"/><path d="m314 596-8-4c-9-3-18-2-27 2l-3 1c0-3 1-5 4-5l15-1 16-2-3 2 6 7z" class="B"/><path d="m201 651-30 6c-5 1-9 4-14 6v-1l1-3 7-2 3-2 10-3 4-1h6l11-1 2 1z" class="F"/><path d="m169 505-3-22a207 207 0 0 1-1-10c5 2 6 6 5 15v-5h-1l1 11h1l-2 11m-3-416h-6l-16 13 2-6c2-3 6-4 8-6l5-5 8 2c3 1 2 2 1 5l-2-3zm-53 126-1-2v-4l-5-21 3 3 5-10 2 8-6 1 3 15v10h-1zm38 362 26-5-1-11c4 3 4 10 2 14l-22 4c-2 0-5 3-5-2z" class="B"/><path d="m389 96-34 19-7 4 10-8 3-3h2l4-2 8-5 5-2a48 48 0 0 0 2-1 69 69 0 0 1 4-2h2a6 6 0 0 1 1 0z" class="E"/><path d="m108 531-3 2v-11l5-3 3-14 3-9v7l-2 4v3l-1 2v1a300 300 0 0 0-5 18z" class="J"/><path d="M162 341v38l-2-5v-25l1-4v-4h1z" class="D"/><path d="M129 283v-2l-4-19c6 4 4 11 6 16l3 7c-1 4 3 10 1 16l-6-18z" class="B"/><path d="M300 133a1065 1065 0 0 1 34-16l-3 1a10 10 0 0 1-2 2l-3 2-6 4h-2l-18 9a50 50 0 0 1 0-2" class="E"/><path d="M176 555a288 288 0 0 1-4-20l-1-12 8-2 1 2c-2 2-7 0-6 5l2 10c2 6 0 11 0 17z" class="B"/><path d="m261 138 4-4-28-16h2l2 1 25 13c3 2 3 4-1 5z" class="D"/><path d="M479 577a448 448 0 0 1-4-26c1 3 1 6 3 8 5 6 3 12 1 18z" class="B"/><path d="M407 201v5l4 30 1 5-4-17a777 777 0 0 1-4-29l3 6z" class="D"/><path d="m438 586-21-1h-5l1 8-4-5c1-3 2-6 7-4h1l-1-2 19 1 3 3" class="B"/><path d="m129 284 6 17v2l1 4a57 57 0 0 0 1 4l2 6a33 33 0 0 0 0 2l1 2v4l-5-9-6-27v-5z" class="J"/><path d="m322 586 23-3a94 94 0 0 1 10 0l-17 2-15 2 6 6h-2l-1-1a35 35 0 0 0-3-1l-1-1-1-4h1z" class="C"/><path d="m107 188 4 21-6-2v-18l2-1z" class="J"/><g class="B"><path d="m522 115-14 12a56 56 0 0 1-6 4l5-8a46 46 0 0 1-3-3h4c5 2 6 0 7-5l3 2-1-6h1l3 3 1 1zm-54 89 1-7h5l5-7 2 3-4 7-3 11h-3l4-13-5 2c0 3 0 3-2 4zm65 363v-13l3-7v61h-1v-19l-2-5v-6c3-4 3-7 0-11zM496 123l26-22-1 4c-2 2-7 3-8 8-5-1-6 4-9 7l-3 2-5 1z"/></g><path d="m349 107 31-18-8 8-1 1-13 6-6 3h-3z" class="E"/><path d="m158 420-4-19-2-5-2-5 1-1 7 9v21zm27 177a9 9 0 0 1-1 1v4a8 8 0 0 1-1 2h-1l-3-3 2-3 4-13 1-5 5 2-2 2-2 5-1 2-1 6z" class="B"/><path d="m407 620-3-10c-2-6-4-12-4-19-1-4-3-6-7-7h6l1 1 3 9v2l1 3a11 11 0 0 0 0 2l1 2v4l2 7v6zm-225-11-1 10-2 15 9-3v2l-2 1-4 1-3 1-1-9v-2l1-8a34 34 0 0 0 1-4l2-4" class="C"/><path d="M169 438a114 114 0 0 1 5 32l-3-3 1-2-1-6v-2l-1-4-1-15zm39-335-20-11-9-2c-3-2-2-4 1-3l7 3 6 3 9 4 2 2a38 38 0 0 1 3 1l1 3z" class="D"/><path d="m146 53 2 2 3 4 4 12-13-12c3-1 5-2 4-6z" class="B"/><path d="m95 571 1 6-1 3v3l-5 6-2 2-3 3v1l-3 1 7-8c4-6 6-11 4-18l2 1z" class="C"/><path d="M158 300a581 581 0 0 1 2-3l-2 3" class="E"/><path d="m119 194 2 3 7 28v4l-2-1-4-15-1-7-1-2z" class="C"/><path d="m149 320 3 5h2l3-23 1 3-1 11v5a166 166 0 0 0-2 6c-2 3-3 0-5-1l-1-3-1-3z" class="E"/><path d="m413 596 5 25-3-3c-1-8-1-8-7-12l5-2c-1-2-6-5 0-8m-5 24-1-5 6 2-4 3c1 3 4 6 4 9-1 4-4 7-6 10l-2-3c6 0 4-3 4-6v-2l-1-3a88 88 0 0 0 0-5zm2-48a368 368 0 0 1 23 4c-2 2-4 5-6 1l-3-1-11 1c-2 0-3-3-3-5z" class="B"/><path d="m366 79-18 1 3-4h12l3 3z" class="E"/><path d="m533 393-1-24 3 2v21l-2 1zM110 152v2l4 18v5c-4-5-6-10-4-13-5-3-5-6-1-11l1-1zm423 281-1-24 3 2v20l-2 2z" class="B"/><path d="m147 374-2 7-1-2 1-31 2 3v23z" class="J"/><path d="M51 427v52h-1v-69h1zm8 183h2l9-4 2 1-7 8h-7l-1-2 2-3z" class="B"/><path d="m123 123-5 7 18 4-15-1-5-4 5-5 2-1z" class="C"/><path d="m144 634-21-20 8 6h1l13 12-1 2z" class="F"/><path d="m442 62-10 8c-2 2-2 4-1 7l-6 2c1-7 9-15 17-17" class="B"/><path d="M125 262a383 383 0 0 1 4 19l-2-3-6-19v-9l2 3v1a32 32 0 0 0 1 3l1 5" class="J"/><path d="M168 33h61v1h-64v-1h3z" class="B"/><path d="M180 523v-4l-1-2-2-21v-2l4 29h-1z" class="D"/><path d="m412 165 2 3 1 25h-1a46 46 0 0 0 0-3l-1-3-1-13-1-5 1-4z" class="C"/><path d="m217 140 6-1h26v1h-20a76 76 0 0 0-4 1l-8-1z" class="D"/><path d="m121 248-3-9a324 324 0 0 1-4-20 408 408 0 0 1 4 14l1 3v2z" class="J"/><path d="m347 615-15-7 2-4 10 6c2 1 2 3 3 5" class="B"/><path d="m209 91 20 10-3 1-5-3a35 35 0 0 0-2 0l-2-1-8-4v-3z" class="E"/><path d="M474 43c-5-1-8 3-12 6l-6 3v-1l4-3 4-4 7-4a27 27 0 0 0 2 1l1 2z" class="C"/><path d="M433 644c-4 3-3 6 1 9l8 7h-4l-1-1-2-2-3-1-4-5v-5l2-2a23 23 0 0 1 3 0z" class="F"/><path d="m108 579 21-1-2 3h-12l-7 1v-3zm5-32-4 22-2-2 1-7 5-13" class="B"/><path d="m253 585-28-1v-1h24l4 2zm-80-464-5-14-1-9h1l2 4v3a12 12 0 0 0 1 2l1 6a56 56 0 0 0 1 4v4z" class="C"/><path d="m164 398 3 21h-1l-1-2v-8l-1-11z" class="D"/><path d="M201 73h7l1 6-8 1v-7z" class="B"/><path d="m406 109 2-12v-9c2-1 3-1 3 2l-2 13a26 26 0 0 0-1 3l-2 3z" class="D"/><path d="m523 101 2-2c3-3 3-5 0-8l-2-3c5-1 6 4 8 6l-4 7h-4z" class="B"/><path d="m276 595 3-1-4 4-16 8v-2l9-5 8-4z" class="C"/><path d="M441 146h-11l3-3 16 1-8 2z" class="B"/><path d="M110 152h-1v-2c-1-7-1-7 7-7h3l2 1 4 1-14 1-1 6z" class="C"/><path d="m466 111 15 11-9-4-6-4v-3m-96 504 3 2 4 3v2h-8l-1-7h2z" class="B"/><path d="m490 571 5 12 5 9h-2l-3-2-3-8-1-5-1-2 1-4z" class="D"/><path d="m165 467-4-20 2 2 3 17-1 1m285 201h1l2 2v2l-8-1c-3-1-3-4-2-7l7 4z" class="B"/><path d="m167 302-3 19-1-2v-2l1-4 1-6 2-5z" class="D"/><path d="m331 606-15-8c5 2 13 0 15 8" class="B"/><path d="M194 80a318 318 0 0 1 15 11h-6l-4-3-4-4-1-4m55 60v-1l11-1a84 84 0 0 1 5-1c-1 5-5 4-7 4-3 1-6 0-9-1z" class="E"/><path d="m433 138 18-3v3l-12 1-6-1z" class="B"/><path d="M114 177v-3l3 4 2 14h-1a41 41 0 0 0-1-1v-2l-2-8-1-4z" class="C"/><path d="m60 630 13 13-3 1-4-4-2-2-4-8m397 42 11 8 4 1c-1 3-3 2-5 1l-4-2-5-4-1-1v-3" class="F"/><path d="m446 92 8 6c-6 2-6 2-10-3l2-3" class="B"/><path d="M158 633c6 3 8 2 9-5l1-5 1 1v6a10 10 0 0 1-1 2l-2 4-2 1-6-4z" class="D"/><path d="M110 527c0-5 2-9 3-14h3c-2 6-4 11-3 16l-3-2z" class="B"/><path d="M156 137h19l1 1-2 1h-4l-13-1-1-1z" class="C"/><path d="m70 81-7 7-3 6c-3-1-2-3-1-4l9-10 2 1zm44-40-10 11 4-11z" class="B"/><path d="M353 139h21l-4 1h-17v-1z" class="C"/><path d="M366 149h-21a225 225 0 0 1 21 0" class="D"/><path d="M113 603c-6-3-11-3-18-2l2-2h14l1 2 1 2z" class="F"/><path d="m449 107-9-8v-3c2 5 10 4 9 11m-51 523v1l3 1 2 2-10 2 2-5 3-1zm-251 29h1l2-2 1-1 2 1-1 4 2 2a3 3 0 0 1 0 2h-3l-4-1v-5z" class="B"/><path d="m400 163-1-5c-1-3-2-6-6-7l1-2h2l4 5 1 7v2h-1z" class="D"/><path d="M155 79v-8c6 2 7 5 3 10l-3-2zm-36 450-4 12c-3-3-1-6-1-10l5-2" class="B"/><path d="m490 549 1 20-2-5 1-15z" class="D"/><path d="M414 193h1v3l2 5-1 2v3l-3-1-1-11 2-1zM147 351l-2-3v-3l-3-11a20 20 0 0 1 0-2l4 7 1 12zm175-221 1-3 3-3 1 4-3 4-3 1h-2l-3-4 5 1h1zm156 472-2 3h-3c0-7 2-10 8-10-2 2-8 3-3 7" class="B"/><path d="m381 89 10-6 2-3v-1c5 3 0 4-1 7h-2l-9 3z" class="E"/><path d="m122 213 4 15a83 83 0 0 1-4-11c-3-1-3-2 0-4zm336-110 8 7h-7l-1-7z" class="B"/><path d="m70 605-9 5c3-4 7-8 13-9l-4 4z" class="C"/><path d="M183 187c-1 6-1 13-3 19v-5l1-10a118 118 0 0 1 2-4m-18 397-15 3a122 122 0 0 1 15-3m242-74 1 6a242 242 0 0 1-2 12l-1 1z" class="D"/><path d="M340 599h1l2 3c0 2-1 4-4 2l-5-7 6 2z" class="B"/><path d="m441 147 8-3h4l4 1-16 2z" class="D"/><path d="m133 611 9 7-1 4h-1v-3l-4-1-3-7M451 56l-8 6 1-3 2-4 5-1v2" class="B"/><path d="m492 664 11-11c2 4-2 4-4 6l-2 3v1h-1l-4 1z" class="F"/><path d="m390 150-18-1h14l4 1" class="D"/><path d="m509 73 5 1 4 3-1 4-8-8z" class="B"/><path d="M403 179a93 93 0 0 1-2-14h1v4l1 2v8z" class="D"/><path d="m421 635 10-5 1 7-11-2M121 248l-2-9h3c0 4 4 8 1 13l-1-2-1-2z" class="B"/><path d="m145 621 11 10a129 129 0 0 1-11-10" class="D"/><path d="m509 73 8 8 2 3-12-11h2" class="C"/><path d="m396 572 5-17v11h-1l-2 5-2 1" class="D"/><path d="m83 128-13-9h2a12 12 0 0 0 2 1 58 58 0 0 1 3 2l3 2 3 4z" class="C"/><path d="m173 262-1 2-1 1c-1-4-3-9 2-13v10z" class="E"/><path d="m94 664 11 9h-3l-8-7v-2z" class="F"/><path d="m198 626 9-6 6-2-8 5a143 143 0 0 0-4 2l-3 1z" class="C"/><path d="m476 161 2-12h2v4l-1 4-1 3-2 1z" class="D"/><path d="M491 59a4 4 0 0 1 0-1l2-6 1-1 1 7c1 2 3 3 3 5l-4-2-3-2zM254 585l-5-2 3-2h4l5-1-3 4zm3-3s1 0 0 0M94 60l-7 7c-1-6 2-9 7-7m139 515h16c-5 3-10 3-16 0M436 82l9 8-5-2-6-4 2-2z" class="B"/><path d="M145 146h-11l10-1 1 1" class="C"/><path d="m338 113 10-6h1a41 41 0 0 1-1 3l-10 3z" class="E"/><path d="M369 643" class="G"/><path d="m470 127-9-7c6-3 7 3 10 5a29 29 0 0 0-1 2zm-77-49v2h-8l2-4 6 2zm82 602 1-2 3-3 3-3h2c-1 6-5 9-9 8zM273 79l-8 1 3-4c2 0 5-1 5 3M98 297l-1-8 4 3c0 2 1 5-3 5zm43-239-4-3 1-1s0-1 0 0l-1 1-5-3 11 1-2 5zm-6 520 13-1c-2 1-3 3-5 3l-8-2z" class="B"/><path d="m501 593 12 8a3 3 0 0 1-2 0l-2-2-5-2-1-2a34 34 0 0 0-2-1v-1z" class="D"/><path d="M181 110v3a23 23 0 0 0 0 3l-3-2 1-11 2 7zm276 35a36 36 0 0 1-4-1l3-3 9 1-6 3z" class="B"/><path d="M279 147h-29v-1h30v1h-1" class="K"/><path d="M473 605h3l-11 10v-2l8-8m-327 66-7 11h-1a11 11 0 0 1-1 0c3-4 4-9 9-11" class="F"/><path d="m492 582 3 7-3 3-2-7 2-3M183 119v2l1 3 1 2-1 1-2 1-2-8 1-2 2 1zm-60 4h-2l5-9 3 2-1 2-4 4-1 1z" class="B"/><path d="M353 606a86 86 0 0 1 10 5l-5-1-4-2-1-2" class="C"/><path d="M183 537v8c-4-2-5-6-1-9a7 7 0 0 1 1 1zm-26-221 1-11 2-1v9l-3 3" class="B"/><path d="m405 193-2-12 2 2v10z" class="D"/><path d="m441 673-9-9c5 0 7 4 9 9" class="F"/><path d="m83 39 3-2 8 1-6 4-5-2v-1z" class="B"/><path d="M526 625a138 138 0 0 1-11-9h4l2 2z" class="F"/><path d="m214 629-14 8h-1l1-2 11-5 2-1a5 5 0 0 1 1 0" class="G"/><path d="m137 588-14 2 5-3h9v1z" class="D"/><path d="M102 673h3l1 1 5 5v2c-5 0-8-3-9-8z" class="B"/><path d="M327 139h9l1 1-10-1" class="E"/><path d="M247 110v3l-2 3-8-4h4l4-2h2z" class="B"/><path d="m337 148-8 1 3-4c2 0 3 2 5 3m-162 27a56 56 0 0 1 1-11l1 2v3l-2 6z" class="E"/><path d="m156 649-6-10a46 46 0 0 1 8 6v4h-2z" class="F"/><path d="m183 537-1-1-1-6-1-2 1-2 2 11z" class="D"/><path d="m176 136-4-13h1a190 190 0 0 1 2 7v1l1 4v1" class="C"/><path d="m383 623 6 3c-3 1-6 3-9 0z" class="B"/><path d="m176 161 1-11 2 10-3 1" class="E"/><path d="M201 140h8c0 4-4 3-6 4l-2-4z" class="B"/><path d="M430 146h8l-11 2 3-2" class="D"/><path d="m385 579 2 1v1h-25v-1l23-1z" class="B"/><path d="m140 135 12 1-12-1" class="C"/><path d="M195 150c-3 3-8 4-8 9l-1-3 1-2 8-4m41-33-11-5 3-1 8 6z" class="D"/><path d="m379 632-12-6h4l2 2 6 4z" class="G"/><path d="m122 612-9-8v-1h2l1 1 5 4v2l1 2" class="F"/><path d="M148 315v3l-4-3-1-2v4c-2-5-1-6 3-6l2 4z" class="B"/><path d="m176 238-1 2-1 3-6-1v-2l7-2h1z" class="E"/><path d="m518 640 3-3h1l1 1-4 6-4 1 3-5zM170 139h2l1 2 1-2 2-1c-1 2 2 5-2 7h-1zm-26 495 1-2 7 2-2 4c-1 1-1 0-2-1l-4-3zm-5-352 3 10-5-10h2z" class="B"/><path d="m322 133 2-1a10 10 0 0 1 2 0v6l-4-1v-4M149 315l-3-4v-2l-1-7 4 13" class="C"/><path d="M399 136v-1l2-6 1-3 1-1c1 4 0 8-3 12l-1-1z" class="E"/><path d="m184 127 1-1 3 13-2-6-2-3a36 36 0 0 0 0-3zm2 431c1 4 3 8 3 13h-1l-2-8v-3a7 7 0 0 1 0-2z" class="D"/><path d="m199 88 4 3-7 1v-1l3-2-4-1h1z" class="B"/><path d="m174 473 2 11h-1v-1l-1-3v-7z" class="D"/><path d="M176 161h3l2 8h-4v-6l-1-2zm-13 158 1 2v3l-2 5c-4-2-1-5-1-8l2-2z" class="B"/><path d="m129 673 11-8-3 4a20 20 0 0 0-2 2l-2 1-4 1z" class="F"/><path d="m162 385 2 11-2-11m5 38 2 12-1-2-1-3a104 104 0 0 0 0-4v-3" class="D"/><path d="m116 129 5 4-8 2zm55 390-2-10c7 2 2 6 2 10" class="B"/><path d="m175 150-12-1 2-1h4a109 109 0 0 0 5 1l1 1" class="C"/><path d="m130 49-8-5c4-1 8-1 8 5" class="B"/><path d="M416 206v-3a65 65 0 0 1 2 11l-1-5-1-3" class="C"/><path d="M385 579h-23v-1l23 1z" class="B"/><path d="m168 302-3 5c-2-3-2-6 2-9h1z" class="E"/><path d="m377 148-5 1h-3v-1c3-3 5-3 8 0z" class="B"/><path d="m297 148-8 1c2-5 5-3 8-1" class="E"/><path d="m533 337-1-8c5 2 3 5 1 8m-482 0v23h-1l1-23zm15 284-3 2h-3c0-4 1-6 6-4v2z" class="B"/><path d="m406 87-9 6 2-3a27 27 0 0 0 3-2 7 7 0 0 1 2-1h2zm-3 455a51 51 0 0 1 1-11h1a94 94 0 0 0 0 4 44 44 0 0 0 0 2l-2 5" class="D"/><path d="m418 623 2 6a18 18 0 0 1-5-3l-1-2 4-1zM51 289v-24 24z" class="B"/><path d="m352 139 1 1h-8v-1z" class="E"/><path d="m186 634 2-1 1 4c-4 1-7 3-10-1h4c3 2 3-1 3-2zm-6-21-1 3-5-1v-4zM74 110l9 6c-5 2-6-3-9-6m86 323-3-11c5 3 3 7 3 11" class="B"/><path d="m249 611-10 6v-2l4-2 2-1a34 34 0 0 0 2 0l2-1" class="C"/><path d="m234 608 2-2 4-2v6z" class="B"/><path d="m450 667-7-3-1-3 8 6" class="F"/><path d="m391 640-11-7 4 1a72 72 0 0 0 4 2l1 1 2 3" class="G"/><path d="m115 594-2-4 6-1-2 3-2 2m106 31-2 1-4 1c-3-3 3-2 2-4l4 2z" class="B"/><path d="m162 329 2-5-1 11-1-6m9-64h1l-1 10-1-1 1-9z" class="D"/><path d="m267 587 2-1v7l-3-3 1-3" class="B"/><path d="m121 679 8-6a64 64 0 0 1-8 6m363-7a11 11 0 0 1-1 0l8-7-1 3-4 3-2 1z" class="F"/><path d="m102 52-4 5v-8z" class="B"/><path d="m340 124-9 5-1-1 6-3 2-1h2" class="C"/><path d="m402 161-2-7c4 2 5 4 2 7M77 74l-5 6-2-3zm92 383c-6-1-2-5-2-8l2 4v4z" class="B"/><path d="m224 111-8-4 2-1 5 3 1 2" class="D"/><path d="M60 623h3l-3 6-2 1h-1l3-7z" class="F"/><path d="M173 262v-10h1l-1 10" class="D"/><path d="M147 659v5h-6l6-5" class="F"/><path d="M230 608h3l-1 7-3-4 1-3zm-42 25 1-2 3-1 3 6-1 1zm297-507c3 1 5 3 7 0 0 5-5 2-8 3z" class="B"/><path d="m126 603 6 6h-3l-1-1-2-5z" class="I"/><path d="m125 145-4-2v-2h4l4 2v1l-4 1z" class="E"/><path d="m77 648 7 6-6-3-1-3" class="F"/><path d="m174 244 1-4v10l-1-6" class="D"/><path d="m399 584-6-1h-2l1-2c3 0 5 1 7 3" class="B"/><path d="m514 601 7 6h-1l-5-3-1-3z" class="D"/><path d="M71 617h-3c-1-4 1-5 6-5v2l-3 3zm389-499-7-6c4-1 7 1 7 6M148 369l-1-10c4 3 2 6 1 10" class="B"/><path d="m494 62 4 2h1l2 3z" class="C"/><path d="m118 231-3-11 3 5v6m270 405-4-2 6-2c2 2 0 3-2 4zM67 105l7 4-4 1zm103-3-1-3 4-2 1 1zm221 539-2-4a49 49 0 0 1 7 3l-1 3-4-2zM155 327l2-6 1 6h-3m21-198-2-6 5 2-3 4z" class="B"/><path d="m184 548 2 8-2-3v-5" class="D"/><path d="M385 574v-1h8l-8 2v-1z" class="E"/><path d="m199 650-11 1 5-2 6 1zm315-49 1 3-5 3 1-6h3" class="B"/><path d="m410 153 1 7h-1v-4l-1-3h1z" class="C"/><path d="M158 64a26 26 0 0 1 5 2l-8 2 3-4z" class="B"/><path d="m183 187-2 4c-2-3-1-6 2-8v4" class="E"/><path d="m459 145 6-2h3l-9 2" class="D"/><path d="M82 596a17 17 0 0 1 3-1l-1 7-3-4v-2h1" class="B"/><path d="M438 638h1l-6 6c-1-4 3-4 5-6" class="F"/><path d="m145 302 1 7c-5-2-2-6-3-9h2v2" class="B"/><path d="m160 374 2 6v2c-6-1-2-5-2-8z" class="E"/><path d="m161 148-8-1v-1l5 1 3 1z" class="C"/><path d="m84 655 6 5h-2z" class="F"/><path d="m120 42-6-1 1-5zm36 607h2a11 11 0 0 1 1 0l-4 6v-4zM464 44l-4 3-2-2 5-3 1 2M169 630v-6c5 2 4 4 0 6m-43-27 2 4c-3 1-4-1-5-4h3z" class="B"/><path d="m230 608-1 2-1 1-3 2h-2a44 44 0 0 1 7-5z" class="C"/><path d="M153 146v1h-4a9 9 0 0 0-2 0l-1-1-2-1 9 1" class="E"/><path d="m186 71 7 1-9 1 2-2zm-25 270v4h-2c-3-3 0-4 3-6v1l-1 1zM64 102l3 2-8 1zm400 32 7-4-1 3-6 1zM166 426l1 4-1 1-3-3 3-2z" class="B"/><path d="M266 586v4l-3 1 1-3-2-2h4z" class="C"/><path d="M401 566v-5l5 1-5 4zM79 44l4-4c2 3-2 4-3 6l-1-2z" class="B"/><path d="m240 604-4 1 8-4-1 2-3 1z" class="C"/><path d="m181 110-2-7v-1l2 8" class="D"/><path d="M536 518v2h-1v-6h1v4z" class="B"/><path d="M169 284v7h-2l1-8 1 1m5 189-3-6 3 3v3z" class="E"/><path d="m382 98-2 1a14 14 0 0 1-1-4l1-1 2 4z" class="B"/><path d="m93 601-7 4c1-4 3-4 7-4" class="F"/><path d="m157 353 1 15h-1v-15z" class="B"/><path d="m369 575 8-1c-2 3-5 2-8 1" class="E"/><path d="M226 102h5v2c-3 1-4 1-5-2m3 480-4 1 2-4 2 3zm174 11-3-8c4 1 3 5 3 8" class="B"/><path d="m186 165-1 8-1-3z" class="D"/><path d="m45 647-4-4c2-2 3-2 4 4m180-506 4-1-2 4-2-3M70 644h3l1 4c-4 2-4 0-4-4z" class="B"/><path d="M197 639v4l-4-1 1-3z" class="G"/><path d="M345 138v2h-8v-1l8-1zm63 492c1 3 3 6-3 6v-2l3-4" class="C"/><path d="M123 23h5v2h-6l1-2zm248 603h-5l-1-3 4-1zM165 147l-2 1h-2v-2l7-1-3 2m-44 461-5-4c2 0 6-1 5 4" class="B"/><path d="m527 632-1-7c4 1 5 4 1 7" class="F"/><path d="m165 90 2 2 1 4-3-6m316-41-6-5 4 2 2 3z" class="C"/><path d="m365 623 1 3-7-3h6" class="G"/><path d="m167 292 2-1-1 7h-1v-6z" class="D"/><path d="M370 140h5l-2 3-3-3m-3-34-4 2 1-5 3 3z" class="B"/><path d="M155 651v4l-2 2-2-1 4-5" class="F"/><path d="m224 111-1-2c3-2 4-2 5 2h-4m234 565 5 4c-3 2-5 1-5-4m-9 3 2 5-3-1 1-4z" class="B"/><path d="M132 113a29 29 0 0 1 5-3l-5 5v-2" class="C"/><path d="m358 622-7-4 2-1 2 1z" class="G"/><path d="m491 596-6 1v-2l1-1 5 2z" class="F"/><path d="m354 608 4 2c-5 2-6 2-4-2m84-551 2-4-2 7v-3zm-267 50-1-2 4-2h1z" class="B"/><path d="m391 641 4 2h-5l1-2" class="G"/><path d="M398 651h-4l2-4 2 4z" class="B"/><path d="m212 148-7 1 7-1" class="E"/><path d="m161 441-2-6 2 6" class="B"/><path d="m533 111-7 1c2-4 4-4 7-1" class="D"/><path d="m169 274 1 1v3l-1 1v-5z" class="E"/><path d="m183 119-1-1-1-2v-3l2 6z" class="D"/><path d="m510 611-5-3a21 21 0 0 1 5 3" class="F"/><path d="m137 307-2-4 6 3z" class="B"/><path d="m186 165-2 5c-1-3-2-5 2-7v2z" class="E"/><path d="m178 92 2 7-2-1v-6z" class="D"/><path d="m425 138 6-1v3z" class="B"/><path d="m184 553 2 3v2c-4 0-3-3-2-5z" class="E"/><path d="m176 591-1-6h2v3l-1 3zm348 18 5 4-5-2v-2z" class="D"/><path d="m82 70-4 4c0-2 0-5 4-4" class="B"/><path d="M515 615c-2 0-3-2-5-3l5 3" class="F"/><path d="m176 135-1-3 4-1 1 1-4 3zm300 27 2-2a12 12 0 0 1-1 4h-1v-2" class="B"/><path d="M174 148h-5l4-3h1v3" class="E"/><path d="m398 571 2-4 1 5zm78 9 3-2 2 5-5-3z" class="B"/><path d="m504 653 5-5-5 5m0-47-5-3 5 1zm14 34-3 5h-2l5-5z" class="F"/><path d="m228 622-5 3c2-1 3-3 5-3" class="G"/><path d="M68 617h2l-4 4v-2l2-2z" class="F"/><path d="m239 582-6 1 6-1M193 93l-5-3 5 3m214 521-2-7 2 7" class="B"/><path d="m198 573 3 1v2h-5v-3a7 7 0 0 1 2 0z" class="E"/><path d="M126 603h-3l-2-4 5 4" class="I"/><path d="M210 575h6c-2 3-4 2-6 0m151-467-3 3c-2-3 1-3 3-3m143 489 4 2c-1 0-4 3-4-2" class="B"/><path d="m340 599-6-2v-1a23 23 0 0 1 6 3z" class="C"/><path d="m433 630 2-3 2 5zm-78-12-2-1 2-3v4z" class="B"/><path d="M171 459v6-6" class="E"/><path d="m416 631 1 3c-3 0-3 0-2-3v-1l1 1zm-95-45 1 4-3-2 2-2zm-145-79v5l-2-6v-1l2 2z" class="B"/><path d="M183 545v-6l2 6h-2z" class="D"/><path d="M137 588v-1l4-1v1zm343-439h-1v-3l1-1v4z" class="B"/><path d="M179 211v4l-1 2c-3-2-1-4 1-6m1-10v6c-3-2-2-4 0-6z" class="E"/><path d="m32 257-1-6 1 6m379-120 4 1-5 2 1-3" class="B"/><path d="M177 228v5-5" class="D"/><path d="m183 178-3 1-1-1 4-3v3z" class="E"/><path d="m501 131-5 4v-1l5-3zM239 615l-1 2-4 1c-1-5 3-3 5-3m-128-16c1-3 3-2 5 0h-5z" class="B"/><path d="m189 584 2-2 4 1-6 1z" class="C"/><path d="m142 332-2-5h1v2l1 3" class="J"/><path d="m77 648 1 3-4 2 1-5h2z" class="B"/><path d="m77 647-2 1a9 9 0 0 1-1 0l-1-4 4 3z" class="F"/><path d="m234 618 4-1a11 11 0 0 1-4 3v-2z" class="C"/><path d="m432 78 3 3-3 1z" class="B"/><path d="m260 593-4 1 5-3-1 2" class="C"/><path d="M81 124a11 11 0 0 1-4-2h4v2zm338-57 2-1 2 2-4 1v-2zm-92 526h2l3 2c-3 4-3 0-5-2" class="B"/><path d="m234 105 4 1-1 2h-2z" class="E"/><path d="m477 169 4-4 1 1-5 3z" class="B"/><path d="m451 56 1-2v-1h3l-4 3z" class="C"/><path d="m108 551-3-1 1-2 2 3z" class="B"/><path d="m346 119-1 2-3 1c-1-4 2-3 4-3z" class="E"/><path d="m449 679-1 4h-1l-1-4h3z" class="F"/><path d="m204 99-2-1 4-2 1 1zm145 476h4l-2 3-2-3" class="B"/><path d="m201 148-4 2h-2a21 21 0 0 1 6-2" class="E"/><path d="M524 609v2l-4-3 1-1 3 2z" class="B"/><path d="m183 178 1-3a26 26 0 0 1 0 6l-1-3" class="D"/><path d="m454 99 5 3-5-3M139 316c-1-1-2-2-2-5l2 5m272-147 1 5-2-5z" class="B"/><path d="m256 607-4 3 1-2 3-2v1" class="C"/><path d="m348 110 1-3h3c1 3-2 2-4 3z" class="B"/><path d="m396 93-4 3 4-3" class="D"/><path d="m244 109-3 3-1-2v-1a7 7 0 0 0 1-1z" class="E"/><path d="m347 603 4 2-4-2" class="C"/><path d="m326 131-2 1 3-4h2v3h-3z" class="E"/><path d="m435 658 2 1 1 1-1 2z" class="B"/><path d="m90 660 4 3v1h-2l-1-1a24 24 0 0 1-1-3z" class="F"/><path d="M177 493v3l-2-5h2v2z" class="E"/><path d="M169 279h1v5l-1-1v-4m9-62 1-2v5l-1-3" class="D"/><path d="m488 47-3-1 1-2zM204 630l-4 1v-2l4 1" class="B"/><path d="m117 592 2-3 2 1-4 2z" class="D"/><path d="m132 252 1 5h-3l2-5zm5 21 1 5c-3-1-2-3-1-5" class="B"/><path d="m485 53-4-3v-1h2l2 4z" class="C"/><path d="m70 118-2-1-1-1 3-2v4zm138-15-1-3c3-1 3 1 3 3h-2m196-16-1 1v-5h2zM52 69v-1l4 2-1 1-3-2" class="B"/><path d="M169 457v-4h1l1 4h-2" class="E"/><path d="m214 106-4-2h4v2" class="D"/><path d="M201 576v-2l3 1-3 1m-5-3v3l-3-3h3z" class="B"/><path d="m332 596-3-3 5 2-2 1z" class="C"/><path d="m452 53-3-3 1-1zm34 618 4-3-4 3" class="B"/><path d="M113 681h5c-1 3-3 2-5 0" class="F"/><path d="m201 626 4-2c0 2-1 4-4 2m-1 9-1 2-3-3 1-1 3 2z" class="B"/><path d="m61 112-4-2 4 2" class="C"/><path d="m164 409 1 3-3-1 2-2m266 235-2 2-2-2z" class="B"/><path d="m321 133 1 4-3-4h2z" class="E"/><path d="M158 648v-3l3 1-3 2zm173-530 3-1 1 3zM97 151l1-3 1 3h-2m331 500-1 3-2-2 3-1zM129 143l-4-2 4 2m66 440 4-1-4 1zm-74-442v2h-2v-1l2-1m264 433v1l-4-1h4M125 235l-2-3 1-1zm56 317-2-2h1l1 2z" class="B"/><path d="m339 143 5-1v1h-5" class="E"/><path d="M402 551v-4l1 1v2l-1 1" class="D"/><path d="m478 546-1 2-1-1 2-1m56-12v-1l1-3h1v6h-1z" class="B"/><path d="m343 602-2-2 4 1-2 1" class="C"/><path d="m373 628-2-2 4-1zm46-559-2 3-1-1 3-2zM182 609h-3l-1-1 4-1v2" class="B"/><path d="m404 118-1 3v-4l1 1" class="C"/><path d="m97 599-2 2h-1l3-3v1zm398 0h-1v-2l3 2h-2m-37-464 4-1-4 1" class="B"/><path d="m59 610-2 3h-2v-2l4-1" class="C"/><path d="m176 625-3-2 2-1 1 3zm3-24-1-7h1v7z" class="B"/><path d="m523 88-4-3h1l3 2v1M193 629l4-3-2 3h-2" class="C"/><path d="m215 627 4-1-4 3v-2" class="G"/><path d="M141 588v-2h4l-4 2z" class="D"/><path d="m479 157 1-4-1 4m-34 429h-4 4M64 638l2 2-3-1 1-1z" class="B"/><path d="m83 607-3 3 3-3" class="F"/><path d="m456 583-6 1v-1z" class="B"/><path d="m509 648 3-3v3z" class="F"/><path d="M159 345h1v4l-1-4z" class="E"/><path d="m142 329-1-2h3l1 1-3 1zm31-212-1-4 1 4" class="B"/><path d="M522 115v-1a16 16 0 0 1 4-2l-4 3z" class="D"/><path d="m215 106-1-2c2 0 4-3 4 1l-2 1h-1zM51 321v-8 8zm483 173v-1l1-3h1v6h-1zM51 377v7h-1l1-7zm113-64-2 3 2-3" class="B"/><path d="m342 122 3-1-4 3 1-2" class="C"/><path d="m533 361-1-4 1 4M240 109v1l-5-2h2l3 1zm-92 211 1 3c-2 0-4 0-1-3M523 87l-3-2c2-1 4-2 3 2M138 41l2 4c-3 0-4-1-2-4m391 44h-3v-1l3 1zm-54 41-1-2h2l-1 2M168 655l-3 2 3-2m-117-3-3-2 3 2M48 73l3-3v3h-3zm88 196 1 3c-2 0-4-1-1-3" class="B"/><path d="m165 417 1 2-1 1-2-1 2-2z" class="E"/><path d="M398 630h-3l-1-1v-1l4 2z" class="C"/><path d="M249 611h-2c0-1 0-3 3-1l-1 1M89 660l2 3-3-3h1m381-467 1-4-1 4m-58-44-2 1-1-3 1-1 2 3zm43-96h-1c0-1-1-4 2-2v1l-1 1m71 581 2 1h-2v-1M483 49h-2l-1-3 3 3m10 77 2-3-2 3m-95-54h3l-2 3-1-3M51 109l2-1 1 1h-3zm115 527 2-3-2 3" class="B"/><path d="m483 598-3 3 3-3" class="F"/><path d="m482 123 3 2-3-2m-156-1 3-2-3 2m-142 8 2 3-2-3m224-24 1-3c1 1 3 2-1 3M86 595l2-4a8 8 0 0 1-2 4M195 72l2 1-1 1-1-2m210 531-1-2 2 1-1 1zm4-450 1 3-3-1 2-2m92 441 1 1-1 1v-2zM414 84l1 2h-2l1-2zm-1 103 1 3-1-3M174 499h-2l1-1 1 1zm230 100-1-3 1 3m92-465h-3l1-2 2 2zM165 443l-2-1 1-1 1 2m159 155 1-2 1 1-2 1zM126 114h-3l1-2 2 2zm281 538h-2l1-2 1 2" class="B"/><path d="m174 480 1 3a3 3 0 0 1-2 0l1-3z" class="E"/><path d="m95 592-1-2h2l-1 2m313-478 1-2 1 1-2 1m44 473h-3 3M394 74l2 2h-1l-1-2z" class="B"/><path d="M177 491h-1v-2l1 2z" class="D"/><path d="M398 83h2l-1 1-1-1m22 548 1 3-1-3M56 652l-1-1 1-1v2zm45-57 3-1v1zm350-457h5v1l-5-1zM164 637l2-1-1 2-1-1m255-489-2 1v-3l2 2zM177 588v-3c2 1 3 1 0 3m226-417v-2h2l1 1-3 1m-15-75h-2l1-3 1 3z" class="B"/><path d="m79 610-2 2 2-2" class="F"/><path d="m129 241 1 3-1-3m301 418 2-3-2 3zm-245-99 1 3-1-3M501 67l-2-3 3 3h-1z" class="B"/><path d="M119 142v1h-3l3-1z" class="E"/><path d="m427 64 2 2-1 1-1-3m-271 73 1 1-4-1h3zm251 418-2-1 1-1 1 2M119 236l-1-3 1 3m277-88-1 1-1-3h1l1 2zm125 470-2-2 2 2" class="B"/><path d="M529 613h3l1 1-1 1-3-2" class="D"/><path d="m398 136 1 1-1 2v-3" class="C"/><path d="M139 99h2l-1 1-1-1zm266 438v-2l3 1-3 1M217 98l-5 1v-1h5zM110 24l-2 1v-2l2 1zm107 593 2-2-1 3a7 7 0 0 1-1-1zm2-518h2l-2 2v-2zm-86 171-2-1 1-1 1 2" class="B"/><path d="M172 610v-3 3" class="D"/><path d="m166 431 1-1 1 3-2-2" class="E"/><path d="M95 583v-3 3" class="K"/><path d="M244 583h-3 3m12 23-2 2c-1-2 0-4 2-2" class="B"/><path d="m182 605 1-1v3l-1-2" class="C"/><path d="M161 146v1h-3l3-1" class="E"/><path d="M410 160h1v3l-1-3m-8 5h-1l-1-2h1l1 2M207 92l1-1 1 3-2-2z" class="B"/><path d="M377 622v-2h2v1l-2 1" class="D"/><path d="m180 576 1-2 1 1-2 1zm166-462h3l-1 1-2-1m111 558v3l-2-3h2zM37 94l1-2 1 1-2 1zm176 534-2 2a4 4 0 0 1 2-2M70 110l-2 2-1-1 3-1zm455 506v-1h1l-1 1" class="B"/><path d="M394 628v1l-3-2 3 1" class="D"/><path d="m358 104 2 1v1l-2-2" class="B"/><path d="m234 618-1 2h-2l3-2" class="G"/><path d="m97 57-2 2 2-2" class="B"/><path d="M370 615h-2a3 3 0 0 1-1-1 7 7 0 0 1 3 1M76 600l3-2-3 2" class="C"/><path d="M115 603h-1l-2-2 3 2zm110 10 3-2-3 2m185-444-2-3h1l1 3zM128 611l-1 2-1-2h2zm19-578h2v1h-3v-1h1zm94 86-2-1 2 1M137 682h1v3l-1-3z" class="B"/><path d="M176 238h-1l1-3v3" class="D"/><path d="M150 326v2h-1l1-2M83 660v1-1zm75-1-1 3 1-3m337-69 3 2-3-2m2 72 2-3-2 3" class="B"/><path d="m143 104-2 3 2-3" class="C"/><path d="m80 120 1-1h1l-2 1z" class="K"/><path d="m194 639-1 3 1-3m212-108h-1v-2l1-1v3" class="B"/><path d="M151 665h2l-2 2v-2z" class="F"/><path d="m67 116 1 1-3-1h2z" class="C"/><path d="M487 54h1-1zm-382 94v-2h1v2h-1m28 524 2-1-2 1" class="B"/><path d="M453 672v-2l2 1-2 1z" class="F"/><path d="M527 622v-1l1 1h-1zm-392 49 2-2-2 2m275-561h-1l1-1v1M143 669h-2 2" class="B"/><path d="M487 54h1l1 2-2-2" class="C"/><path d="m180 528 1 2-1-2" class="E"/><path d="M170 618v-2 2m309-473-2-1 2 1m12-2v2-2" class="D"/><path d="M324 144v-2 2z" class="E"/><path d="M417 146h-3v-1l3 1zM140 688v1l-1-1h1m198-572v2-2zM119 684h2l-2 1v-1zm54-67v3h-1l1-3zm329 43v-1l1 1h-1zm-51-551-2-1 2 1" class="B"/><path d="M111 681v-2l2 2h-2z" class="F"/><path d="m334 115 2-2-2 2" class="E"/><path d="M423 653v-1l1 1h-1m-24-506h1l-1 1v-1M193 629h2l-2 1v-1M473 41l-2-1 2 1M157 353l-2-1 1-1 1 2zm376 298v1l-1-1h1M143 322h1l-1 1v-1M132 51l-2-1 2 1m400 604-2-1 1-1 1 2zm-484-6-3-1 3 1M84 49v-2 2m456 593h-1l1-1v1M187 150h-2 2m346 482h2-2m-493 5h-2 2" class="B"/><path d="M97 151h2l-2 2v-2" class="K"/><path d="M522 637h-1l2-2-1 2m-368 28v-2h2l-2 2" class="F"/><path d="m177 625 1 2-2-2z" class="B"/><path d="M526 634v1h-2l2-2v1z" class="F"/><path d="m523 660-2-1 1-1 1 2z" class="B"/><path d="m187 154-1 2 1-2" class="E"/><path d="m120 34-2 1v-1h2zm414 592v-1l1 1h-1zM92 664h1l1 2-2-2zm415-8 1 1h-2l1-1zM133 274v2-2zm267-131 1-1v2l-1-1M140 321l-1-2 1 2m240 307v2-2M56 656l-2-1 2 1m436-518h1-2a5 5 0 0 1 1 0z" class="B"/><path d="m119 597 2 2-2-2" class="I"/><path d="m124 257-1-3 1 3m362 337-1 1v-1h1M390 92v-2 2m100 483 1 2-1-2" class="B"/><path d="M403 125h-1v-2l1 2" class="C"/><path d="M113 215h1l-1 2v-2z" class="J"/><path d="m117 595 2 2-2-2" class="I"/><path d="M81 596v2h-2l2-2" class="C"/><path d="m115 594 2-2v2h-1z" class="D"/><path d="m507 73-2-2a3 3 0 0 1 2 0v2" class="C"/><path d="M494 597v1l-2-1h2z" class="F"/><path d="m116 193-1 2-1-1 2-1zm1-2 1 1-2 1 1-2z" class="B"/><path d="m91 134-2-2 2 2" class="K"/><path d="M188 571h1c1 0 1 0 0 0l-1 2v-2" class="E"/><path d="m495 600 2-1v2l-2-1z" class="F"/><path d="M178 224v2-2" class="D"/><path d="M507 71h-2v-2l2 2m-96 61v2-2m60 55v-2 2m-39 395h-2v-1h2v1M419 83v2-2zm-253 1h-1l1-1v1zm278 500h-2v-1l2 1zm-330 2v-2 2zm5-1v-1l1 1h-1z" class="B"/><path d="m338 124-2 1 2-1" class="E"/><path d="m120 204 1 2-1-2m212-81v1l-1-1h1" class="B"/><path d="M231 104v-1l2 1h-2" class="E"/><path d="m131 249 1 1-1-1m244-148-1-1c-1 0 0 0 0 0l1 1zm-25 516-3-1 3 1m40-531h2l-1 2-1-2zM177 581h-2 2zm-4-98h2v1l-2-1m-13 98h1l-1 1v-1zm-71 11 1-3-1 3M381 75h2-2m-58 516 3 1-3-1m78-503-2 2 2-2" class="B"/><path d="m504 69 1 2-2-1 1-1z" class="C"/><path d="m131 610 1-1 1 2-2-1zm272-60v-2l2 1-2 1M60 97l1 2-1-2m412 446-1-2 1 2m-364-8 2 1-1 1-1-2zm6 8v2-2m403 66h-2 2m-169-1v-1l1 1h-1z" class="B"/><path d="m179 517 1 2-1-2" class="E"/><path d="m163 419 2 1-2-1M81 66l-1-1h1v1zm164 546-2 1 2-1m-63-476h-1l1-1v1zm-4-39v1l-2 1 2-2m-46 167h-1l1-1v1zm273-79v-2l1 1-1 1M78 605v1l-1-1h1m393-1h-2 2z" class="B"/><path d="m75 614-1-2h2l-1 2z" class="F"/><g class="B"><path d="m61 99 2 2-2-2m458 514h1l-1 1v-1M181 169l1 3h-1v-3zm351 446 1-1v2l-1-1zm-33 49 1 1-1-1M167 471l1 1-1-1zm308-333a3 3 0 0 1-1-1l1 1m-369 27-1-1h1v1zm370 10 1 1h-1v-1zm45-100-1 1 1-1zM226 618l1 1-1-1m241-117-1-1h1v1M154 143l1 1-1-1m255 445-1-2h1v2zM161 321l-1-2h1v2zm-44-119-1 1 1-1m-1-65-1-1 1 1zm359 33v-1h2l-2 1"/><use href="#B"/><path d="M117 216v-1h1l-1 1zm364 343-1-1 1 1zM126 681l-1-1 1 1z"/><use x="-325" y="104" href="#B"/><path d="M57 630h1v2h-1v-2zM79 49l-1-1 1 1m-23 57-1-1 1 1m142 39-1 1v-1h1m-34-73a3 3 0 0 1 1 0v1l-1-1zM97 598l2-1v1h-2zm32-336-1-1a3 3 0 0 1 1 1m280 291-1-2h1v2zM152 376l1-1-1 1m300-270 1-1a3 3 0 0 1-1 1M68 73l1 1-1-1m414-31 1-1v1h-1M181 150l1 1-1-1"/><use x="-336" y="560" href="#B"/><path d="m471 689 1-1-1 1m19-104v1-1zm-38-483h-1 1M114 531l-1-2 1 2zm360-7h-1 1m-64 54v1-1M74 120l-2-1 2 1m32 458h-1 1m262-478v1-1M118 225l1-1v1a6 6 0 0 1-1 0zm356 358v-1 1M74 114v1-1m416-85v1-1zm-354 74v-1 1zm2 197h-1 1M95 146l-1-1h2a4 4 0 0 1-1 1zm234-17v-1h1l1 1c0 1 0 0 0 0h-2m-11-3h2-2M173 617l1-2-1 2zm331-13v-1 1zm-94-483 1 1h-1a6 6 0 0 1 0-1m-301 64v1-1m18 73v-1 1m38-188v-1 1m-47 52v-1 1m23 502v1-1M478 41v1-1"/></g><path d="M369 148v1h-2l2-1z" class="D"/><path d="M73 53h-1 1m358 87h1-1zm43 0v1-1" class="B"/><path d="M386 149h-1l1-1v1z" class="E"/><g class="B"><path d="M480 585v-1 1m-348 35h-1l1-1v1m-3-10 1-1v2a4 4 0 0 1-1-1m32-529h-1 1m245 1v-1 1M107 185c0 1 0 0 0 0m38 440c0 1 0 0 0 0"/><use href="#C"/><use x="-58" y="447" href="#C"/><use href="#D"/><path d="M438 60zm-322 64c0 1 0 0 0 0m-44-7c0-1 0 0 0 0"/><use href="#E"/><use x="-62" y="-605" href="#E"/><use x="-86" y="-397" href="#E"/><path d="M496 672c1 0 0 0 0 0"/><use x="19" y="-523" href="#E"/><path d="M497 685c0-1 0 0 0 0M74 118c0-1 0 0 0 0"/><use x="-16" y="211" href="#D"/></g><path d="M165 271c1 0 0 0 0 0" class="E"/><g class="B"><path d="M121 688c0 1 0 0 0 0m-71-80c0 1 0 0 0 0"/><use x="-5" y="-1" href="#C"/><use x="3" y="279" href="#D"/><path d="m371 98 1-1-1 1M175 609c0-1 0 0 0 0m-54 1v-1 1"/><use href="#F"/><use x="-24" href="#D"/><path d="M485 697c0 1 0 0 0 0m-271-76c1 0 0 0 0 0"/><use x="243" y="-487" href="#E"/><use x="24" y="10" href="#D"/><path d="m130 245 1 1-1-1m366 418h1-1"/><use x="26" y="-595" href="#E"/><path d="M410 140zm138-53c1 0 0 0 0 0"/><use x="59" y="20" href="#E"/><path d="M512 648"/><use x="-54" y="-595" href="#E"/><use x="-359" y="543" href="#C"/><use x="48" y="626" href="#D"/><use x="-1" y="40" href="#F"/><use x="-268" y="-511" href="#F"/><use x="-81" y="-45" href="#E"/><path d="M155 656c1 0 0 0 0 0"/><use x="279" y="628" href="#D"/><path d="M475 195c-1 0 0 0 0 0m9-171zM185 153c-1 0 0 0 0 0m200 479c-1 0 0 0 0 0m87-438c0-1 0 0 0 0m34-147c-1 0 0 0 0 0"/></g><path d="M322 130h-1 1z" class="E"/><use x="-89" y="-28" class="B" href="#E"/><path d="M95 139c0 1 0 0 0 0" class="K"/><g class="B"><use x="-9" y="89" href="#D"/><path d="M146 667c0 1 0 0 0 0"/><use x="-245" y="-405" href="#F"/></g><path d="M392 150h-1 1" class="D"/><g class="B"><use x="-379" y="535" href="#C"/><path d="M472 127c0-1 0 0 0 0"/></g><path d="M425 350h1c2 15 2 29-2 43l1-43zm-8-66 2 2 5 43-3-15a954 954 0 0 1-4-30m6 113a225 225 0 0 1-2 20l2-20m-7 49a262 262 0 0 1-2 21l2-21m8-114a129 129 0 0 1 2 15l-2-15m-13 150 1 5v2l-2 5 1-12m9-62-1 10 1-10m-8-174 2 11-2-11m6 188a55 55 0 0 1-1 9l1-9m-5 36a48 48 0 0 1-1 9l1-9m0-211 2 6-2-6m-4 238v4-4m-1 8v2-2" class="D"/><path d="m161 341 1-1v1h-1z" class="H"/><path d="M494 235v13h-1v-94h1zm2 31v22h-1v-38h1v16z" class="N"/><path d="M533 567c3 4 3 7 0 11v-11" class="H"/><path d="m524 609-3-2 3 2" class="D"/><path d="M467 204c3-1 3-1 3-4l5-2-4 13h3l-1 3c-3 0-6-1-7-5l1-5M114 531l-1-2c-1-5 1-10 3-16l-2-3 1-3 1-4v-2c2-1 4-2 4-4l-1-7h1c3-4 4-4 7 2v2l-4-2-3 15a265 265 0 0 0-2 17l1 3v2a33 33 0 0 1-5 2m3-11v-1h-1l1 1z" class="H"/><path d="m119 527-1-3 2-16 1 2h1l-2-3 3-15 4 2-8 33z" class="B"/><path d="M147 147h2-2m278 117a115 115 0 0 1-2-13l-5-33 2 2 5 44z" class="C"/><path d="m456 243-1 10-6 22a691 691 0 0 1 7-32z" class="D"/><path d="m441 307-5 18h-2l-1-10 3 5 2-8 3-5zm-9 6-3-23 4 21-1 2" class="C"/><path d="m432 313 1-2 4 1-1 8-3-5-1-2z" class="L"/><path d="m442 299-1 6 1-6m-14-13-1-5 1 5m-2-14-1-5 1 5m-9-71-2-5 2 5m10 78-1-4 1 4m20 1v3-3" class="C"/><path d="M443 295v3-3" class="D"/><path d="M442 277h1v1l-1-1zm-12-3v1l-1-1h1z" class="L"/><path d="m408 206-1-3 4 4-1 1-2-2zm4 317 1-1 1 1h-2" class="H"/><path d="M412 489v-2 2" class="E"/><path d="m209 80-1-7 16-1h10c0 3-2 4-5 4h-9l-3 3-8 1zm31 29a8 8 0 0 1-3-1l1-1 3 1-1 1z" class="H"/><path fill="#fefefe" d="m105 208 6 1 1 4-2 3 1 10v273l1 6-2 14-4 3-1-2v-3l1-4-1-8V208m3 152v128h1V354h-1zm0-83v3h1v-62h-1zm1 222-1-1v6h1z"/><path d="m125 460-6 27c-3-2 0-5 0-7a538 538 0 0 1 4-18l2-2m16-63" class="J"/><path d="m119 490 1 7c0 2-2 3-3 4v-7z" class="B"/><path d="m144 383-2 12a81 81 0 0 1 2-12m-2-49 3 11a68 68 0 0 1-3-11m-13 112-1 6c-3-2-3-4 1-6m3-13-1 6 1-6m-13 57-2 4a17 17 0 0 1 1-5l1 1c1 0 1 0 0 0m8-36-1 4c-4-2-1-3 1-4m7-27-1 3 1-3" class="J"/><path d="m479 675-3 3 3-3m-26-6-2-1 2 1m-342 10-5-4 5 4m33-45 4 3-4-3m-73-17 3-3-3 3m78 40-1 2 1-2" class="F"/><path d="m491 59 3 2-3-2M185 597l1-6-1 6m2-8 2-5-2 5m-3 13v-3 3m68-6-2 2 2-2m148-467-1 6 1-6m-71 0h2l-2 2v-2z" class="C"/><path d="m185 124-1-3 1 3" class="D"/><path d="m379 619-2 1-4-3 6 2zm29 6 1 3-1-3m-7 7-2-1 2 1" class="C"/><path d="M145 36h271v1h-4a740092 740092 0 0 1-267-1zM51 289v-24zm0 32v-8 8" class="H"/><path d="m124 122 4-4-4 4" class="C"/><path d="m97 534 2 1-2 1v-2" class="K"/><path d="m105 505 1 8-1-8m0 12 1 3-1-3" class="J"/><g class="H"><path d="m151 59-3-4 3 4m306 555c-2 3-3 3-5-1l5 1z"/><use x="43" y="79" href="#F"/></g><path d="m116 503-1 4 1-4m-2 7 2 3-3-1 1-2z" class="B"/><path d="m113 512 3 1h-2l-1-1z" class="H"/><path d="M417 584" class="N"/><g class="H"><path d="M186 634c0 1 0 4-3 2 1-1 1-2 3-2m252 26-1-1 1 1M174 139l-1 2-1-2h2zm-52 78z"/><use x="51" y="-46" href="#E"/><path d="m137 55 1-1c0-1 0 0 0 0l-1 1zm40 111v1-1"/></g><path d="m117 520-1-1h1v1z" class="B"/><path d="m120 507 2 3h-1l-1-3z" class="H"/><path fill="#f4f4f4" d="M108 359v-5h1v134h-1zm0-82v-59h1v62h-1zm1 223v4h-1v-6l1 2z"/><defs><path id="B" d="m448 34-1 1 1-1"/><path id="C" d="M536 107c0-1 0 0 0 0"/><path id="D" d="M138 23c0 1 0 0 0 0"/><path id="E" d="M206 628c1 0 0 0 0 0"/><path id="F" d="M406 546c-1 0 0 0 0 0"/></defs></svg>