<svg xmlns="http://www.w3.org/2000/svg" height="150" viewBox="0 0 425 425"><style>.B{fill:#0e0e0e}.C{fill:#181818}.D{fill:#2a2a2a}.E{fill:#1e1e1e}.F{fill:#f0f0f0}.G{fill:#f2f2f2}.H{fill:#222}.I{fill:#f5f5f5}.J{fill:#101010}.K{fill:#ededed}.L{fill:#f4f4f4}.M{fill:#efefef}.N{fill:#d2d2d2}.O{fill:#c7c7c7}.P{fill:#f1f1f1}.Q{fill:#eee}.R{fill:#252525}.S{fill:#fdfdfd}.T{fill:#e9e9e9}.U{fill:#0c0c0c}</style><g class="S"><path d="M264 426h-47l-8-3 2 3h-8l-1-2-1 2H1V1h248c-1 6 1 9 7 9l1 1v3l-2-1h-4l-7-2c-2-4-3-1-5 0h-5l-5-1h-6l-14-1c-3-3-6-3-8 0l-12 2h-4l-10 1c-2-3-6-2-8 2h-2c-4-5-9-3-11 3l-1 1-6 2h-10l-2-1-3-1h-2v6l-1 1-10 3-1-3-5 2 1 8-1 1-3 2-11 7-3 2-3 2-6 5-9 8-3 2v1l-3 2-5 6-3 2-3 4-2 2-2 3-3 4-2 2-16 23-4 8-2 4-2 4-1 3-1 3-1 2-2 4-3 11v1l-4 8v2l-1 3v3l-1 3v1l-2 10v4l-1 6v32l1 11v4l1 4v3l1 8 1 4 1 2v4l2 6 1 2 3 10 1 4 2 3v2l7 14v1l4 7 9 14 3 4 7 10a64 64 0 0 0 4 4l4 5 6 6 2 2 5 4 2 3 2 2 4 3 5 4 3 2 5 3 2 2 5 4 3 1 6 3 4 3h1l2 2 4 1 2 2 3 1 4 2 17 6 5 2v1l8 5 1-3 2 1h2l9 2 5 1 11 1 8 5 3 1v-1h-3v-4h10l-1 5h15l2 1v-1h-2l-9-1 1-4 9-1h4l3 1v2h-7v1l7-1c4 0 7 1 8-4h7l3-1 5-1 2 2h7zm-70-2h1v-1l-1 1m-21-7h1v-1l-1 1m-16-2s1 0 0 0"/><path d="m257 11-1-1c-6 0-8-3-7-9h177v195l-3 3v-5h-1v7l-4-4v-6l-1-3v-3l-2-14 2-2-3-1v-2l3-9-4-3c1-4-2-5-5-6l-1-2v-2l-1-3-4-8-1-3v-1l-2-3-6-12-2-3v-1l-2-3-3-5-2-3-2-3-3-4-2-3h-1l-1-1-3-4-1-1-2-3-5-5a29 29 0 0 0-3-3l-2-2-3-3-6-5-2-3h-1l-2-2-2-2-4-3-2-1-2-2-2-1-2-2-5-3-2-2-10-5-4-3-3-1-8-4-4-2-2-1-2-1-6-2-4-1-2-1-4-2-4-1-2-1h-2l-2-1h-2l-3-1 1-3h-4m12-1-1 2 4-1v-1zm151 181 1 1v-6h-1zm4-5-1 2h1v-2zM264 426l1-10 1-4 5-1 2 2 3-4a165 165 0 0 1 11-4l2-1 5-2 12-6 7-3 3-2 2-1 3-2 5-3 3-2 8-5 4-6 1 1 6-5 5-4 2-3 4-3v-1l2-2 2-2 4-5h1l2-2 3-4 1-2 3-4 2-2v-1l6-8 2-4 1-2 2-2 2-2 3-6 2-4 2-4 1-2 1-4 2-2 2-6 1-4 3-7 1-2 2-6 5-1-2-5c2-2 3-5 0-7l1-10h1l3-3-3-1 1-2v-3l1-26 2 17c2-3 3-5 1-9-2-2-1-6-1-8h2v4l3 3v209zm149-152 1-2h-1v2M277 413s0-1 0 0"/></g><path d="m426 217-3-3v-4h-2c0 2-1 6 1 8 2 4 1 6-1 9l-2-17-1-13 4 4v-7h1v5l3-3v5c-3 3-3 6 0 8v8z" class="F"/><path d="M426 209c-3-2-3-5 0-8v8" class="S"/><path d="m211 426-2-3 8 3h-6m-10 0 1-2 1 2h-2z" class="I"/><path d="M418 197v13a911 911 0 0 1-1 28l-1 7-1 10-3 13-2 6-1 2c-2 2-2 5-3 7l-2 4-2 6-1 2-2 4-1 2c-2 1-6 1-2 4l-2 4-3 6-1 2-2 3h-1l-2-1v1l2 1-2 4c-3 2-7 4-6 9l-2 3-3 3-5-1 3 3-3 4c-5-2-1 2-2 2-4 0-7 1-5 6l-1 1-2 2-1 1-3 3-3 3-4 4-6 4a26 26 0 0 0-2-1l1 1-4 6-8 5-3 2-5 3-3 2-3 1-2 2-7 3c-5 2-10 1-12 6l-5 2-2 1-11 4-5 1-5 2-10 2-5 1a29 29 0 0 0-3 0l-7 1-8 1h-7l-9 1h-16l-8-1-11-2a132 132 0 0 0-5 0l-9-2a23 23 0 0 0-2-1h-2l-9-3-3-3-2 1-17-6-4-2-3-2-3-1-3-2-2-1h-1l-4-3-6-3-3-2-5-3-2-2-5-3-3-2-5-5-4-3-2-2-2-2-5-5a64 64 0 0 0 1-3l-1-1-2 3-6-7c0-4-1-4-4-4-1-3 1-8-5-5l-6-9c0-4-1-4-3-4l-9-15c-1-2 0-6-4-6v-1l-7-14v-2l-1-3-2-4-1-10 1-2h-1v2h-2l-1-2-2-6v-4l-1-2-1-4-1-8v-3l-1-4v-4l-1-11v-24l1-8v-6l1-4a76 76 0 0 0 2-11v-3l1-3v-3l1-2 3-9c1-4 6-6 4-11l1-4 1-2 1-3 2-3 2-4 2-5 3-7a463 463 0 0 1 18-25l3-4 3-3h3l-1-3 3-3 2-3 6-5 2-3h1c4 2 1-2 2-2l9-8 6-5 3-2 3-2 11-7 1 2 2-4 1-1 16-8 1-1 4-2h2l2-1h1l7-3 6-2 2-1 10-3h2l8-2 10-1h4l12-1 8-1 14 1 1 2 1-2 4 1h7l3 1h5l7 2h6a35 35 0 0 0 3 0l3 1 2 1h2a17 17 0 0 0 2 1 36 36 0 0 1 2 1h4l4 3h2l4 2 6 2h2l2 1 4 2v2l-2 1 1 1 1-2 8 2 3 1 5 3a132 132 0 0 1 18 12l2 1 3 2 1 1c0 4 2 4 4 3l2 2 2 2 1 1 3 2 5 5 3 3 2 2 3 3 5 6 2 2 1 1c-3 5 1 3 3 4l1 1 1 2 2 1 3 5 2 2 2 4 3 4a1 1 0 0 0 0 1l2 2v1l2 3 6 12v1l-2 1 2 1h2v1l1 3c2 3 3 5 3 9a84 84 0 0 0-2 4h1l3-1v1l2 4 5 16v2l1 3 1 14 1 3a72 72 0 0 0 1 3v6M86 341l-1 1v1-1l1-1m96-12v-1h-2l1 1m161-4h1v-1l-1 1h-1v1l1-1m-160 20 2-1 18 20 4 2 3 6-1 1 1 3 3-3v-42l-9-1-3 1h-13c-5 0-8 5-5 9l1 5h-2 1M331 55h-1 1v1h1a38 38 0 0 1-1-1m-33 73a58 58 0 0 1-2-1l21-20 7-8-1-1-32 2a53 53 0 0 0-3 1h-7l-3 1c-3 5-3 10 1 16a25 25 0 0 0 3 1v2l-2 4-4-5h-1a37 37 0 0 0-1 2c-4 10-6 21-7 32l3 2 13-15c6-6 6-6 2-12l2-3v-1h1l4 5c3 1 3 0 3-3l2 1 1 1h1l-1-1m-66-60-1 2-5-5-2-6-1 1-3-3-1 1v39h25l2-3 1 1 3-5-4-1-2-3 3-3h6l2-3 27-42 1-1-3-1-47 7-4 2-8 2 7 10 3 2v2l3 2 1 2-3 3m-35 189v-1 1M144 98h-3l-3 3-6-1h-4l-17-1-2 2 2 1 14 16-3 5-8-9a45 45 0 0 0-3-1l-12-13-1 1-1 10a77 77 0 0 1 1 3l-1 7a61 61 0 0 0 1 4v12l1 3c1 3-1 9 6 10l5-1 4-2 10-10c3-3 4-5 3-9l-1-3 3-4 4 4 2-1 16-15 2-6-12-3 2-1h4v-1h-3m-13-55v1l1 2-3 4-22 29-1 3-2 1a36 36 0 0 0-1 3l-3 6h3l29 3h3l8 1h8l-1-3 1-4-2-3-1-10-2-3-1-6-1-3v-7l1-4-3 1-1-10-3-3v-2l-2 1-3 3h-2m236 184h-1v1l1 1v2l-3 1h-4v1l-3 6-2 1-2-3v5l-8 6-2-1-1-4 6-3-1-1 26-23h-43l-2 6 1 4v13l1 2v1l-1 4 5-2 6 1 3 4 4 2 2 5v1h1v-2c7 4 14 8 21 14h3l17 11-2-18-1-3-1-10-1-3-4-24-2-2-12 8-1-1m-202-82v-1l-3-1-4-20-1-4a38 38 0 0 1 0-2l-1-2-2 2-10 8c-4 4-5 7 0 10l2 4v3l4-1 13 14 1-5a51 51 0 0 0-1-4l1-1h1m119 2v1l-11 10 1 2h7a58 58 0 0 0 3-1l13-2-1 2-1 4h-8l-1-2h-1v4l-12 1-4 2-17 11-5-3v-1c7-5 12-11 13-21 0-5 2-10 4-15v-3l2-5v-3l2-9c0-6-1-8-7-10-1 4-3 8-6 11l-3 1 2 3-8 18-1 4-19 46v3l3-3 3-1 1 5v3h5l8-3 4 1-1-3 65-27 4-4-6-3-15 1 1-2 3-4 6-1-12-14-6 3-2 3h-3v-2l-1 1 1 2M90 101l-2 2h-1l-4-5 5-3-1-2-10-9c-9 4-30 33-28 39l6-3 2-1v-2l8-5a23 23 0 0 0 2-3l14-8-1 3 1 4-21 14a45 45 0 0 0-2 3l-8 4c-2 0-5-1-3 4l-4 1c-2 2-1 3 2 3l2 1h4l31 8 1 1 2-2 8 2v-18l-1-5 1-3a89 89 0 0 0-1-5v-3l-1-3v-8a40 40 0 0 1 0-2v-2h-1v3m121-78h-2l-30 2-3 1-16 4v1l5 2 39 8 1 2 2-3c3 0 4 0 4-4V25l2-1h2v-1h-4m112 252v-1h-3l-6 2-10 10c-4 4-4 7 0 10l1 3-1 2-2 2-5-4v-2l-1-2a30 30 0 0 0-2 3l-1 1-6 4c-5 5-12 9-10 18l1 3 1 2c3 1 6 3 10 0l8 1a103 103 0 0 0 4 0h24l-2-3-19-19 3-3 1-1 19 18h1l-3-42-2-2m-156-2 1 3-1 1-2 1h-2l2-7-6-4 1 6-15 14c-7 8-7 8-1 16a31 31 0 0 0 3 2l7 7 3-5a58 58 0 0 0 0-3l2-7 1 1v4l3 2-2 12c0 3 1 6 6 6l1-3 6-13 1-1-1-1 6-12 1 1 3 3a119 119 0 0 1-7 15h-1l-1 4h-3l3 2-2 7 7 1 2-4 3-3 2-4h1l1-3 10-14h2l-1-3 6-10c5-6 7-13 6-21v-28l-1-2-1-1-10 22a39 39 0 0 0 0 4l-7 12-2 8-8 17-2-4-1-2 3-8 19-43 2-8-1-1a41 41 0 0 1-2 3l-5 3c-1-2-3-3-3-5l5-6h-5l-3 2-9 3-6 1-2-1v1a8 8 0 0 1 3 1l-4 1-5 3c-10 5-20 9-31 12l-2 2h-3l-1-1h-1l1 3-1-1-3 2-14 7-6 4c1 4 5 4 8 4l5-1 18-3 3-2 13-2 1 3 1-1-1-3c10-1 18-5 23-13l14-12 1 6c-9 6-14 14-18 22l-6 10-1-1a24 24 0 0 0 0 3m161-140v4h1l1-4v-3h-1l-1 3M181 84v1a28 28 0 0 1 0 3c1 7 4 9 11 9l18 1 2-2V54l-1-1a40 40 0 0 1-1 1h-1l-2-2v6l-8 7-4-3 4-4 2-3h1l1-3 3-4c1-4-2-3-4-2l-4-2h-3l-20-4h-3l-14-3h-10l1 2 2 6c0 3 0 4 4 4l12 21v3h4l6 8 5 1 1 2h-2m123-38-1 1 2 2 10 14-1 2h3l15 23 1 1 1-2 12-9c2-2 2-3-2-4l1-2-1-1v2l-7-8-1-2-3 1c-8-6-17-11-25-18h-4m57 291h3l-1-3 15-19 1-4 2-7-4 1-27 19-10 7a12 12 0 0 0 1 3l10 11 1 1 1-3 6-4 2-2m-218 46 1-5h-1l-2 5h-1l4-17v-3l3-9 2 6c-1-3 2-6-2-9l3-18h-6l-43 3 10 17a43 43 0 0 0 3 2v2l-1 2c4 2 2 3-2 4l-12-18-3-2-3-4-8 8c-2 2-2 4 0 6l12 12 2 4v2h1v-3l21 12 1-1-8-14 5-2 8 12 4 4 3 4c1 4 4 5 7 1l2-1M60 195l2-2 14-11 2-3c2-3 8-4 3-9l-3-1v-5l-4 2-23-15-3-1-9-6h-3v3l2 16 1 3-1 3a88 88 0 0 0 2 6l2 13 1 3 2 10 2 3 5-2 3-4h2l2-3h1m276-44v1l-1 2-4 1c-1 1-3 4 1 5l3-1h4v-2l10-4v-1h-11l1-2-3 1M297 44h-1l-2 1c-2-6-3-2-5 0l-1 6-1 3a42 42 0 0 0 0 4l-1 1-3-1 2 8-1 1v4l-1 2v3l-2 4v5l-1 9h17a34 34 0 0 0 4-1l23-1 1 3 1-1v-3h1l1-1-2-1-3-6-1-5v-1h-1l1 2-3 1-1-4-2-8-3 3-8-14h1v-1l-2 2v-1a17 17 0 0 0-2-2l-5-8v-3m-99 155-3-3-1-3 6-1 1 2 2 1v-7a32 32 0 0 1-2-3l-7-17c0-2-1-3-3-5l-12-32h6l1 3 13 34 2 3 8 20v3c1 1 3 2 3-2l1-5v-3c1-11 1-22-2-33l-2-3v-3l-3-2-9-18 5-3 7 11c1 1 2 3 4 0l2-1v-1h-3v-27h-20l2 6 6 11-6 2-7-13 3-1-5-1c-2-4-6-5-10-4l1 4 6 21h-5v-2c5-1-1-3 0-5l-2 1-4-12-3-3c-4-5-5 1-8 2l2 6 1 7 1 3 4 20 1 3 8 21-4 5-10-7h-3c-16-5-32-10-50-10l-2 4 2 3 18 8 41 18 1 2 3-2 4 3h4l2 2h3l9 5 3-2m-49 185v2l-1 4 19-2 3-1 38-8-16-19-3-1 1-2 1-1-2 2-2-3 2-3-5 1-8-8-2 2-5 5-1 5-3 2-1 3-6 8c-4-1-1 3-2 5l-5 6-2-1v4m-18-246-3-1-1 1c1 1 2 1 2 3l-7 6-3 3h-1v-2l-2 1 3 2 1 2 32 7h7l-15-15-11-8-2 1m38-56v-6l-3 3-4-6-1 1 5 12 3 3a127 127 0 0 0 2-5l-2-2m219 111 1 1-2 14h18v-15l-1-5c-2-10-3-20-8-29l-7 30-2 4-1 2h1l1-2M122 331c2 0 4 1 4-3l24-2 2 3v-5l2-3 1-3h-4l-9-10v-3h-4c-5-5-6-5-11 0l-3 4-10 7 1 1-11 12h17l-1 2h-1v1l3-1M66 211c2-1 6 2 8-2h21v-25c0-3-1-5-4-6l-2 1-30 24h-3l1 3v4l9 1m232 13v2l9 1 15 9v-20h-30l1 1-1 3-2 3-4-2c-5-4-10-6-16-5l-25-1a89 89 0 0 0-5 1h-6l3 1 1 1 4 1 8 5c2 5 6 6 11 3l33 16-1 5-54-23-5-1-2 3c7 5 14 10 19 17 6 6 12 11 20 14h3l37 8 5-1 4-4-5-4-8-4a21 21 0 0 0-3-1l-8-4 1-5 26 10v-9l-3-2-9-7-2-4-3 2-13-8-2-3 3-3 5 4v1h-1m-14 135c-3 2-2 4 2 6l1 1v3l2 4v4l2 4 2 5 3-6 13-15 5 1-9 11-1 6h2l2-3 30-20 5-2-1-3 4-2c2-2 2-4-2-5l-9-11-8 7-5-2 5-7-38-4c-3-1-6-3-8 2h-1l-1 1 2 2a286 286 0 0 1 3 23m71-195 1 2-13 8-4 2h5l2 4-4 3-5-2c-3-1-7 1-8 4v23h43l-7-7v-2h-3l-1-1 2-5 17 12 2-2 4-19v-5l3-15v-4l1-11-3-3-2 2-4 1-2 3h-2l-3 3-5 2a35 35 0 0 0-2 2l-6 3v-2c-1 2-5 2-3 5h-2l-1-3c-1-5-3-5-9-1l-13 6v2h5l13-6 4 1M80 265l12-5-3-2-12 7 1 1 2-1m195 78 2-1 1-6-3 3v-1l-1-1 1-3-3-2-3 3c2 3 4 5 5 9v3l1-4M83 152h-3v1a21 21 0 0 0 2 1l12 5-1-7h-4l-3-1-1-2-2 3m4 16 5-1v-2l-14-6-1 1 9 9 1-1m-8 103-3 2 3 1c9 1 15-2 14-7l-14 4m87 79 3-8c2-3 1-5-3-5l-2-1a19 19 0 0 1 1 4l-2 2v-2h-1l2 3-2 7 5 1-1-1m187-86c-6-7-13-10-17-7l2 4h-2v1a24 24 0 0 1 3-1l11 5 3-2M160 84c1-2 1-4-3-4a18 18 0 0 1-1-3h-1l-1 2 3 14c1 3 2 3 5 2v-6l1-1-3-1v-3m108 262-6-14c-4 2-5 4-3 7a10 10 0 0 1 2 5l-5 1v-1l-3-2-6 4-12 14-2 3-5 2-2-4 9-8h4l-3-3 11-13 1-4-3-2h-26v37l1-1 5-3 4 2-5 7-1 3c-1 3 1 3 3 4l13 3 1 2 2-2 11 3h4l18 4h6a24 24 0 0 0 1 0l3-1-2-1-16-27a26 26 0 0 0-2-2l-3-6 9-1-3-6m-2-264 1-5-2-1-8 11-1 3c1 4 3 4 6 1l1 1c0 1 0 0 0 0l-1-2 3-4h2l-1-4m10-5v-2a42 42 0 0 1-2 2l-3 5-1-4-2 1 2 6-3 10c4 1 5 1 6-2l3-16m19 129-2 3h29v-20l-25 14a23 23 0 0 0-2 3m-70-79 14-23h-20v30l4-3 2-4m43 144v7l3 16 4 11 9-6 1-2c4-5 4-7-1-11l-14-16-1-2-1 3m32 10 4-2 3-4 2-1 2-1-2-1c-12-3-24-7-38-8l8 9-1 2h3l13 11 5-2 2 2 1-1-2-4m-82 10-2-1-1 1 4 4v29h22v-4l1-1-2 1-5-9-2-3-5-6-2-7h1v-1l-2 1-2-3v-3l-3 1-2 1m-18 10v2l-1 3-8 14c-2 3-1 4 2 5l4 2h14v-3l1-18v-16h-2l-7 10-3 1c-1 0-1 0 0 0m-61-84v-2l-2 1h-35v23l2-1 5-2zM24 194v15h15l1-4 2-2-3-1 1-1 2-1-4-2 1-2c3-2 0-3-2-5v-2l-1-3-3-19-1-3-3 2-5 24a79 79 0 0 0 0 4m112 15 3-1-29-19-2-3-1 1-5-2v23l5 2 2 1h24l3-2m-15 71v2l2-1 7 8 2 2 1-2 24-21 2-3h-3l-36 6-1-1-1 2-1 5 4 2v1m-86-31 2-6v-3l2-15-1-9 2-2-1-1-4 4H24v17l1 4-1 3v1l2 2v8l2 3 1 9-2 5h2l2-2 2-3 2-11v-4M259 27a50 50 0 0 0-3 0l-13-3h-3l-4-1h-4l-10-1-3-2h-1l1 4v16h3l38-6 4-2 2-1-1-2-4-1-2-1M83 328l-4-1-4-4c2-4-2-1-3-2l-14-10-1-3 1-4 29 21c1 1 3 3 4-1l1-7v-5l2-23v-10l-5-1-3 1-4 1-36 7-3 2h-2l-2 1 2 1 6 6 3 1 7 7-1 4-7-3-1 1 8 14 2 2 9 12c9 11 9 11 20 1l1-2-5-6m3-256-2 3 1 3 7 6c2 3 4 2 6 0l22-33 2-5-1-1-1 2h-2l-2 2-4 2-2 2-23 17-2-2-1 1 2 3m293 45a449 449 0 0 1-19-27l-9-9-12 13-1 1h4v1a38 38 0 0 0 4 2l7 7 4 1 19 13c1 1 3 4 5 0l3 1c0-4 0-4-5-3m24 132v-3l1-2a30 30 0 0 0 0-3v-25h-17l1 4 3 21 1 4 4 22h1l1-2 5-16M219 391v13h11a39 39 0 0 0 4-1h4a95 95 0 0 0 4-1l26-5v-1l-9-4a56 56 0 0 0-3 0l-17-4a53 53 0 0 0-3 0l-18-3c-3 2-3 3 1 6m-42-1-3 2-14 3v2l20 5h3l5 1h3l19 2v-20l-25 4-1-2-2 3h-5m148-282-18 16-2 3c-7 7-7 7-1 14l6 7c3 3 6 4 10 4l3-2 2-4 3-37c1-1-1-2-1-3-4-2-2 1-2 2M96 241l2-1-2-2v-22l-39-1-3 1 2 2 12 14-4 3-15-14-3 2-2 1v5l-2 7v6l-5 37-1 2 3-1 5-3 38-23c2-2 2-3-1-4-4-3-7-6-9-10l4-3 5 6-1 3 4-2 2 4 1-1c5 1 8-2 9-6m16 37-3-1c-6-3-8-1-9 5l-1 7a69 69 0 0 0 0 4l-1 4-2-4-1 10c1-1 2-3 4-3v24l26-26c2-2 2-5 0-7l-10-11v-6l-3 4m113-95c3-1 2-2 0-4a528 528 0 0 1 11-27l20-47c-9-2-9-1-14 6a897 897 0 0 1-23 36c-3 5-3 5 0 7v37l2 2v-5l2-1 1-3 1-1m6 58 2 6 1 2 8 22 2 3 10 25-2 2h4l5 15 1 3 3-3c3-2 4-5 3-8l-4-23 1-1-2-1-4-21a42 42 0 0 0-2-2l-9-10-2-2-13-15h-1l-2-2h-2v5c-2 3 0 4 3 5m-38-22 2-3-4-1-30-1-7 3-3 1a66 66 0 0 0-3 2l-31 17a22 22 0 0 0-2 3l-9 5c-5 2-4 6-4 10l29-11 43-17 3-2c5-2 10-5 16-6m75-10h3l1 1a7 7 0 0 1 1-2l27-13 18-10a98 98 0 0 0 2-3c2-3 5-6 1-10l-3 1-44 18-35 15-3 4 6-1 23 1 3-1m-72 0 2-1-3-1-2-2c-1-6-4 0-7-2l-83-34c-2 5-1 8 3 10l42 27 10 2 38 1m22 32v3l-1 23-3 5 1 1 4-3-1 3 2 4 1 3-3 2 2 1 2-2 25 39c2 3 4 5 8 5v2l2-3-1-5-11-30-2-2v-3a54 54 0 0 1-2-3l-6-16a53 53 0 0 0-2-3l-8-20 1-1h-2l-4-9h-1a11 11 0 0 0 0 2l-1 3v4m146-100 12-2 6-2a12 12 0 0 1 3-1l2-2-2-1-6-5-3-1-3-3 1-2-4 1-7-6-3-1-20-15-1-2-2 2-1-1-1 3-2 16v3l-1 7a68 68 0 0 0 0 3v15h5l4-1 20-3a34 34 0 0 0 3-2m-32 146 1 23 2 4-1 7c1 2 0 5 4 3l9-5 2 3 2-7 32-20 2-3 3-1-1-2-14-5 1-2h-1l-3 3-15-5h-3l-22-3h-3l4 3-1 3 2 4m8-20-10-4-1 1c1 2 0 4 2 5 3 3 14 4 19 2zm-184 69-2 12 2 1 6-17c-4-1-6 0-6 4m112-12 4-1-1-2-3 3m-53-91-1 5h2l-1-5m-3-219h-8v1h11l-3-1m12 86h8v-1l-8 1m-60 291 6-1v-1l-6 2m106-288h-2v2l2-2m61 210v-5h-1l1 5M296 98h3v-1h-6v1h3m-34 115h4v-1l-4 1M121 43l3 1v-1h-3m265 184v5h1l-1-5M263 26l4 1 1-1h-5m73 149-1 1 3-1-1-1-1 1m-14 80h-1v1l1-1m5-61-1 4h1v-4M148 66v4h1l-1-4M86 277l-4-1v1h4m129-13 1-4h-1v4m15-243-4-1v1h4m102 89v-1h-1l1 1M177 95l-1 1 2 1-1-2m95-61v1h3v-1a24 24 0 0 0-3 0M162 211v1h3v-1a24 24 0 0 0-3 0m77 200h-2v1l2-1M154 35h1v-1h-3v1a17 17 0 0 0 2 0m3 332 1-1-1-1v2m172-201 1 2v-3l-1 1m-304 0 1 1 1-2-2 1m295-2h1v-3h-1a24 24 0 0 0 0 3M216 37v3h1l-1-3m66 315v-1h-1l1 1M93 98v2h1l-1-2m123 59-1-2-1 1 2 1m-84 174h1v-1h-3v1h2m122 9 1-1-2-1 1 2m160-157v-2h-1l1 2M307 95h-1v1l1-1M195 21h2v-1l-2 1m162 242 1 1 1-1h-2m-140 15 1-1-1-1v2M93 262l-1 1 1 1v-2m-58 12h-1v2h1v-2M178 38v-1h-2v1h2m163 227v-2 2m-304-7h-1v2h1v-2M257 37l1-1h-2l1 1m23 307v-2h-1l1 2m-11-16v2l1-1-1-1m-34 29 1-1-1-1v2m95-53 1-2h-1v2M207 407l-1 1h2l-1-1m26 2 1 1 1-1h-2M98 283v-1h-1l1 1m59 113h-2 2m-21 3v-2 2m273-223h1v-2h-1v2M77 155h-2 2m-42-1-1 2h1v-2m4 57-1 1h2l-1-1m75-59 1 1 1-1h-2m205-42-1-1-1 1h2m-46-5h1v-2h-1v2m9-7 2 1v-1h-2m-96 48 1-2h-1v2m50-47v1h2v-1h-2m43-19-1-1v1h1M41 233v-2h-1l1 2M250 37l-1 1h2l-1-1m-40 192-1-1h-1l2 1m200 14 1 1v-2l-1 1M232 41h2v-1l-2 1M39 239v1h1l-1-1m-20 0-1-1v2l1-1m80-4-1 1 1 1v-2m276-16 1 1 1-1h-2M90 87l1 1 1-1h-2M26 269v-1h-1l1 1m111-139h1-1m126 22 1-1-1 1M151 82l1-1-1 1m-24 16h1v-1l-1 1m283 160v1h1l-1-1m-169-57h1v-1l-1 1M112 96l-1-1 1 1m42-36h-1 1m198 209-1-1a2 2 0 0 0 1 1M211 101l-1-1 1 1m163 225h-1 1M141 220h-1 1m136 41 1 1-1-1m-30 29h1-1m71-53-1-1 1 1m-41 0 1 1-1-1m-30 104-1 1h1v-1M25 262l1-1-1 1m266-58h1-1m42 56h-1 1M186 39l1 1-1-1m-27-16v1-1m-33 9h-1v1l1-1m90 305-1-1 1 1m24-298h-1v1l1-1m-26 239v-1h-1l1 1m59 72-1 1 1-1m80-272h-1 1M125 48h1-1M22 157l-1 1 1-1m90 176-1-1 1 1m-38-66h1-1m69-222v1h1l-1-1m131 167-1 1h1v-1m60 42h-1 1m70-84v-1 1m3 1h1-1M274 313v1h1l-1-1m129-99-1-1 1 1M217 393l-1 1h1v-1m-28-116v-1h-1l1 1M105 52h1-1m185-24v1-1m74 128-1 1h1v-1M15 184h1-1m268 208 1 1-1-1M53 95l1-1-1 1m320 210 1-1h-1v1m-41-57h1v-1l-1 1M186 102v1-1m119-59 1-1-1 1M135 395h1v-1l-1 1m11-233h1v-1l-1 1M45 124v-1h-1l1 1m258 33 1 1-1-1m-161-34v-1h-1l1 1m263 133v-1h-1l1 1m-131-93v1-1M170 319v1h1l-1-1M21 195h1-1m390-28h-1 1M125 379v1-1M269 99v1-1m77 177v1-1m48 24h-1 1M256 112h-1 1M77 260v1-1m20-6h1-1m109-120h-1 1M83 360v1-1m309-229h1-1M97 279h1-1m48 105h-1 1M63 197v-1 1m107 131h1-1M277 86h1a1 1 0 0 0-1 0m122 183v1-1m-200-40v-1 1m-10-7v1-1m28 100h-1a1 1 0 0 0 1 0m-12-95h1-1M99 190h1-1m214-18h-1 1m-87 13v1-1m-10 3h1-1m32-102h-1 1m124 118v-1 1M43 143v1-1m146 59v-1 1m45-189v1-1m-60 83v-1 1m121 169v1-1m-55-116h1-1m105 0h1-1m4-1v1a1 1 0 0 0 0-1M133 32v1-1m-4-1h-1 1m67 200h1-1m167-1v-1 1M223 408s0-1 0 0m-2 0s1 0 0 0M85 84s0-1 0 0m236 9s1 0 0 0m20-4s0 1 0 0m22-10s0-1 0 0M216 33s1 0 0 0M42 226s0 1 0 0m355 46s1 0 0 0m-195-46s0-1 0 0m-18-1s1 0 0 0m-55 0s0 1 0 0m-86-1s0 1 0 0m-16 49s-1 0 0 0m281 5s0-1 0 0M269 32s1 0 0 0M117 281s0-1 0 0m5 4s-1 0 0 0m123 0s0-1 0 0m-104-76s0 1 0 0m204 35s1 0 0 0M26 259s0-1 0 0m91-221s-1 0 0 0m41 222s0-1 0 0m216-53s1 0 0 0m-112 25s-1 0 0 0M86 266s0 1 0 0m80 1s1 0 0 0m-101 2s-1 0 0 0m54-232s-1 0 0 0m154 234s0-1 0 0m-71-43s-1 0 0 0m46-100s1 0 0 0m-50 235s0 1 0 0m136 3s0-1 0 0m8-298s1 0 0 0m-178 2s0-1 0 0m-52 247s-1 0 0 0m187-27s-1 0 0 0m-68-95s0 1 0 0m151 102s1 0 0 0m-98-113s0-1 0 0m-7-131s-1 0 0 0M122 374s0-1 0 0m231-56s-1 0 0 0m-207 10s0 1 0 0m111 1s-1 0 0 0m114 0s-1 0 0 0" class="U"/><path d="m129 27-14 7-2-7 5-2 1 3 10-3v2z" class="G"/><path d="M11 201" class="B"/><path d="m165 14-10 3h-1c2-6 7-8 11-3" class="G"/><path d="M211 418h6l-1 4 9 1h-15zm45-4 10-2-1 4h-7l-2-2" class="I"/><path d="M137 24h-2l-5-3v-3h2l3 1 2 1v3a7 7 0 0 0 0 1z" class="S"/><path d="M25 292a178 178 0 0 1 7 13l-7-13" class="B"/><path d="m175 12-8 2c2-4 6-5 8-2" class="G"/><path d="m233 418 8-2c-1 5-4 4-8 4v-2" class="I"/><path d="m155 410 9 2-1 3z" class="K"/><path d="M23 141c3 5-2 7-3 11l3-11" class="B"/><path d="m193 417 8 1v4z" class="I"/><path d="M209 9h-8c2-3 5-3 8 0m-72 14v-3h8l-5 3h-3z" class="G"/><path d="m21 273 1 10-3-10h2zm-7-100a67 67 0 0 1-1 10l1-10M140 23l5-3a7 7 0 0 1 2 0l-7 3M20 153a48 48 0 0 1-3 8c0-3 1-5 3-8m35 189c5-4 3 1 4 4l-4-4" class="B"/><path d="m130 21 5 3-4 2-1-2z" class="G"/><path d="m93 49-6 5 6-5M32 307c4 0 3 4 4 6l-4-6" class="B"/><path d="m244 11-5 1v-1c2-1 3-4 5 0" class="G"/><path d="M12 187a22 22 0 0 1 0 6v-6m47 159c3 0 4 0 4 4l-4-4m-43-81 2 6-2-6" class="B"/><path d="M260 14h-3v-3h4z" class="G"/><path d="m113 36-2 4-1-2 3-2M69 357l2-3 1 1-1 3-2-1z" class="B"/><path d="m177 415 5 1-5-1" class="I"/><path d="M152 406a14 14 0 0 1 3 2l-5-1 2-1M45 328c2 0 3 0 3 3l-3-3m181 89h4-4M14 255l1 4-1-4m115 144 4 1-4-1" class="B"/><path d="m233 420-7 1v-1h7z" class="I"/><path d="m113 390 4 3-4-3m76-379h-4 4M12 236v4-4M234 11h-5 5M57 84l-3 4 3-4m-25 37-1 4 1-4m48 247 4 2-4-2M15 169v3-3m1-6v3-3m-3 81v3-3M78 62c-1 0 2 4-2 2l2-2" class="B"/><path d="m248 416 3-1-3 1" class="I"/><path d="m135 19-3-1 3 1" class="G"/><path d="m61 79 2 2h-3l1-2m178-68v1a6 6 0 0 1-3 0l3-1M89 375l3 2-3-2M225 10l-1 2-1-2h2M16 261v2-2" class="B"/><path d="M201 422h3v1l-3-1z" class="I"/><path d="M154 17h1l-2 1 1-1" class="B"/><path d="m130 24 1 2-1 1-1-2 1-1z" class="S"/><path d="m97 380 2 1-2-1m-21-17 2 2-2-2m28 23 3 1-3-1M253 14h-2l2-1v1M23 287l2 2-2-2" class="B"/><path d="M166 413h2-2" class="K"/><path d="m118 393 2 1-2-1m6 3 2 1-2-1" class="B"/><path d="M253 14v-1a3 3 0 0 1 2 0l-2 1z" class="G"/><path d="m99 45-2 2 2-2M75 65l-2 2 2-2m-8 8-2 2 2-2m-41 62-1 2 1-2m2-6v3-3m26-41-2 2 2-2" class="B"/><path d="m194 424 1-1v1h-1zm-21-7 1-1v1h-1m52 6h2v1l-2-1z" class="I"/><path d="M157 415c1 0 0 0 0 0" class="K"/><path d="M130 18v1-1" class="G"/><path d="m414 166-5-16v-2c2 1 5 2 4 6l4 3-3 9z" class="F"/><path d="m307 32-8-2v-2l8 4m68 56c-2-1-6 1-3-4l3 4m-32-33c-2 1-4 1-4-2l4 2" class="B"/><path d="m275 18-4-1 4 1" class="G"/><path d="m407 144-3 2h-1l2-4 2 2zM291 24l-6-1 6 1" class="B"/><path d="m415 171-1-3 3 1-2 2z" class="F"/><path d="M269 10h3v1l-4 1 1-2z" class="G"/><path d="m389 107-3-4 3 4" class="E"/><path d="m359 70-3-3 3 3m-45-34-4-3 4 3" class="B"/><path d="M420 190v-4h1v6l-1-2z" class="F"/><path d="m364 75-3-3 3 3" class="B"/><path d="m418 191-1-3 1 3" class="F"/><path d="m417 188-1-3 1 3m-9-40 1 2-2-3 1 1M281 21h-2 2" class="B"/><path d="M265 15h-2 2m4 1h-2 2" class="G"/><path d="M295 26h-2 2m52 33-2-2 2 2" class="B"/><path d="m384 99-2-2 2 2" class="E"/><path d="m350 62-2-2 2 2m27 29-1-2 1 1zm-44-43-2-1 2 1" class="B"/><path d="M377 91v-1l2 2-2-1z" class="E"/><path d="m337 51-2-2 2 2" class="B"/><path d="M424 186v2h-1l1-2" class="F"/><path d="M401 129h-2v-2l2 2zm-8-15-2-2 2 2m-2-4-2-2 2 2" class="E"/><path d="m361 72-2-2 2 2m41 61-1-2 1 2m-31-50-2-2 2 2m-45-40-2-1 2 1" class="B"/><path d="m412 268 3-13c3 2 2 5 0 7l2 5z" class="F"/><path d="M294 402c2-5 7-4 11-6l-11 6m85-69c-1-4 3-6 6-8l-6 8m-16 20c-3-4 0-5 4-5l-4 5m43-70 2-7-2 7m10-38 1-7v7h-1zm-24 70 2-6-2 6" class="B"/><path d="m271 411 5-2-3 4-2-2" class="I"/><path d="M417 245v-4l3 1-3 3z" class="F"/><path d="m348 368 4-4-4 4m49-63c-5-3-1-3 1-4l-1 4m6-12 1-6-1 6m-30 49-4-3 5 1-1 2m-18 19 3-3-3 3m45-62 1-4-1 4" class="B"/><path d="m418 239-1-1 1-2v3" class="F"/><path d="M368 348s-4-4 1-2l-1 2" class="B"/><path d="M413 274v-2h1l-1 2m-4 2 1-2-1 2" class="F"/><path d="m318 390 2-2-2 2m59-54 1-2-1 2m-51 49 2-2-2 2m33-28 2-2-2 2m-72 48 2-1-2 1m101-86 1-2-1 2m-75 74 2-2-2 2m74-72-2-1v-1l2 1v1" class="B"/><g class="I"><use href="#B"/><path d="M150 96h-7l-9-1h-2l-29-3h-3l4-6 1-3a9 9 0 0 0 1-1l2-3 21-29 3-5 2-2 2-3h2l1 1 1 3 2 10 1 3 1 8 1 2 1 7 1 2 2 11 1 3 1 4a8 8 0 0 1-1 2zm75 277 4-7v-1l4-2 2-3 12-14 6-4a50 50 0 0 1 3 3 20 20 0 0 0 0 1l5 7 4 6 2 3 16 26-1 2h-7l-19-4a42 42 0 0 0-3-1l-12-2h-2l-13-3c-2-1-4-1-2-4zm-79-19-2 10v2l-4 18c-2 4-5 3-6-1l-3-4-4-4-8-13-5-5-1-2-2-2-10-17 44-3h5l-4 19v2zm189-33-1-8v-3l-2-24-1-3v-6l22 4h2l16 4h2l14 4v2l-2 2-3 2-31 21-4 2-10 6-2-3z"/></g><path fill="#f8f8f8" d="m43 188-3-14-1-5v-4a25 25 0 0 0-1-2l-1-17 2-1 10 5 2 2 23 15 4 2a4 4 0 0 0 1 0l2 2c5 4-1 5-3 8a33 33 0 0 0-2 3l-14 11-3 2-3 3-1 1-4 3-5 2-1-3-2-11v-2z"/><path d="m231 60-1-1-2-3-7-9 9-2 3-1 48-8v2l-26 43-2 2h-3l-4-4-4-5-6-5v-1l1-1-1-2a51 51 0 0 0-2-2l-3-3z" class="L"/><path d="m388 146 2 3-1 12v3l-3 16a64 64 0 0 0-1 4l-3 19-2 2-18-13-15-13-3-3v-2l12-8 2-1 3-2 6-4a47 47 0 0 0 3-2l4-3a70 70 0 0 0 3-2 18 18 0 0 0 2-1 97 97 0 0 0 3-2l3-1zm-48-44 20 14 3 2 8 6a17 17 0 0 0 2 1l3 2 3 2 6 4v3a54 54 0 0 1-3 1l-6 2-13 2-3 1-20 4-3 1h-5v-18l1-8v-2l2-17 1-2 2 1 2 1zM43 236l1-8 1-4 1-2h3l16 13 2 2a46 46 0 0 0 4 4l10 9v4l-37 23-6 3-1-1 5-38zm14 68-8-7a18 18 0 0 0-2-1l-6-5v-2h3a20 20 0 0 0 3-1l35-8 5-1a13 13 0 0 0 2 0h5v10l-2 24v4l-1 8h-4l-29-21h-1z" class="I"/><path d="m369 228 12-8 1 2 4 25 1 2 1 11 1 2 2 18-18-11-2-1-21-13h-1l-3-4-1-3 8-6 2-2 2-1 8-7 2-2a42 42 0 0 0 2-2z" class="L"/><path d="m323 84 3 5v2a10 10 0 0 0-2 0l-24 2-3 1h-17l1-10 1-4 1-5 1-2v-3l1-3v-2l1-6 1-2v-3l1-4 2-5c1-2 2-6 5 0l2 3 5 7 2 2h1l8 14 5 6 2 3 3 4z" class="I"/><path d="m170 352 4-5 2-2 8 8 3 2 2 3 1-1v2a21 21 0 0 0 2 2l16 18-39 8h-2l-19 3 1-4 2-3v-1l5-8 3-4 5-8 2-3 2-3z" class="L"/><path d="m168 69-13-20-4-5-2-5v-2h9l15 3h2l21 4 2 1 4 1 4 2-3 4-2 3-3 3-4 5-2 2-10 11-1 1-4 4-7-8-2-4zm117 287-4-21v-2l8-1 38 3-5 8-14 22-12 15-3 6-2-6a24 24 0 0 0-1-3l-1-5-1-3-1-4v-3l-1-4-1-2" class="I"/><path d="m153 259-14 2-2 1-18 4-5 1c-3 0-7 0-8-4l6-4 15-7a35 35 0 0 0 2-1s1 0 1 0l1-1 3-1 3-1 30-13 5-2 4-2v-1l5-1 10-4a57 57 0 0 0 2 0l5-1-6 6a22 22 0 0 0-2 3l-13 12c-5 8-13 12-23 13l-1 1z" class="F"/><path d="M168 277v-2l1-2v-1h-1l6-11c4-8 9-16 18-22l4-4 5-3v6l-18 43-3 9-1 2-5 13-1 1-6 13a74 74 0 0 0-1 3c-4 0-5-3-5-6l2-13 5-26z" class="P"/><path d="M47 137h-3v-3l3-2 4-3 7-4 2-2 21-15 6-4 2-1h2v8l1 2v4a84 84 0 0 0 0 4v4l1 4v18l-9-2h-2l-32-7-3-1z" class="I"/><path d="M255 325c-4 0-6-2-8-5l-25-40h-1a82 82 0 0 1-1-4l-1-3-1-3v-27a19 19 0 0 0 0-2v-2a19 19 0 0 0 0-2l1-3 1-1 4 8 1 1 8 21a44 44 0 0 0 1 3l7 16a20 20 0 0 0 1 3l1 2 1 2 12 30 1 5-2 1z" class="M"/><path d="m296 249 9 3 2 1 8 4 5 4-5 4h-4l-38-7a15 15 0 0 0-2-1c-8-2-14-7-20-13-5-7-12-12-19-17l2-3 5 1 54 23 3 1z" class="P"/><path d="m178 309 6-13-1-1 9-18 2-7 6-13 1-3 9-22 1 1 1 2v28c1 8-1 15-6 21l-7 11-1 2-9 15a32 32 0 0 0-2 2l-3 4-2 4-3 3-6-1 2-8v-1h1l1-4 1-2z" class="F"/><path d="m193 206 3 1v2l-38-1-10-2-42-27c-4-2-5-5-3-10l84 34 6 3z" class="K"/><path d="m177 193-5-2-3-1-41-17-18-8-2-3a69 69 0 0 1 3-3c17-1 33 4 50 9l2 1 11 6 4 3 8 7 3 3 5 5 2 3 1 3-2 1-10-4a6 6 0 0 0-2-1 49 49 0 0 0-3-1l-3-1z" class="G"/><path d="m317 185-17 10-27 13-2 1h-4a20 20 0 0 0-2 1l-24-1h-5l3-3 35-15 45-18 2-1c4 4 1 7-1 10a86 86 0 0 0-3 3" class="M"/><path d="m118 237 30-17 3-2 4-1 6-2h30l4 2-3 1-16 7a23 23 0 0 0-3 1l-42 18-29 11c0-4-1-8 4-10l9-6 3-2z" class="Q"/><path d="M264 139c-2 5-4 10-4 15-1 10-6 16-13 21l-3 3-12 13-3 2-2-1 19-46 1-4 8-18a64 64 0 0 0 1-3l5-12c6 2 7 4 7 10l-2 10-1 2-1 6v2z" class="F"/><path d="M211 152a82 82 0 0 1 1 35v5l-3-1-8-21a23 23 0 0 0-1-3l-14-33-2-3a44 44 0 0 0-1-2l-7-21-1-4c4-1 8 0 10 4l2 2 8 13 1 2 10 18 2 3 1 3 2 3z" class="Q"/><path d="m168 146-4-21-1-2-1-8-1-5c2-1 3-7 7-2l2 4 5 12 1 3 1 2 1 2 13 32 3 5 7 18 1 2 1 4-2 1a15 15 0 0 0-1-2l-6-5-6-6-9-9-2-2-8-21-1-2z" class="F"/><path d="m233 246-3-5-2-5v-5h2l2 2h1l13 16 3 2 8 9a36 36 0 0 0 2 3l4 20 1 2 4 23c1 3 0 6-4 8h-3l-5-15-2-2-10-26a32 32 0 0 0-1-3l-9-22-1-2z" class="G"/><path d="M219 190v-37l1-6 22-36c5-7 5-8 14-6l-20 48a16 16 0 0 0-1 2l-10 25a54 54 0 0 0-1 3l-1 1a36 36 0 0 0-1 3l-1 2-2 1zm19 28-1-1-1-1h34c6-1 11 1 16 5l4 2 1-1 2 3 13 9 5 2 9 6 3 3v8l-27-11h-2l-34-15h-4v-1l-6-3-9-4-3-1z" class="P"/><path d="m273 167 12-2 2-1 8-1 2-1 15-2 6 3-4 4-65 27a51 51 0 0 0-3 2l-8 3h-5l2-3 14-13 3-3 18-12 3-1z" class="F"/><path d="m97 111 1-10 1-1 13 13 2 2 8 9 3 2 1 2c2 4 1 6-2 9l-10 10-5 2-4 1c-7-1-5-7-6-11v-2l-1-13a38 38 0 0 0 0-3v-8l-1-2z" class="L"/><path d="M282 120a9 9 0 0 0-1-1l-2-2c-4-5-4-10 0-15l2-1h8l2-1 32-2 1 1-7 8-21 20 1 1h-2l-3 1-5-5zm-70-66-1 42-1 1h-18c-7 0-10-2-11-9l2-4 3-3 11-13 3-3 7-8 3-2v-1a13 13 0 0 1 2 0z" class="G"/><path d="m304 305 19 19 2 3h-25a27 27 0 0 0-3 0l-9-1-9-1-1-2-1-2c-2-9 5-13 10-18l7-4a25 25 0 0 1 3 0l5 5a17 17 0 0 0 2 1" class="I"/><path d="m115 281 10 10c2 2 2 5 0 7l-26 26v-32a32 32 0 0 0 0-3l1-7c1-6 3-8 9-5l3 1 3 3z" class="G"/><path d="m202 363-18-18h-1l-1-5c-3-4 0-9 5-9h25v39l-3 2-4-6a63 63 0 0 0-3-3z" class="F"/><path d="m340 245-7-1-3-2v-1l-1-2v-17l1-6h43l-26 23 1 1-6 3-2 2z" class="L"/><path d="M57 216h39v25c-1 4-4 7-9 6l-1 1-3-4-2-2-6-5-2-2-2-2-2-2-13-13 1-2" class="I"/><path d="m365 201 7 7h-43v-23c1-3 5-5 8-4l6 3h1l1 1 16 13 1 2 3 1z" class="K"/><path d="m150 326-25 2-4 1h-17l11-12-1-1 10-7 3-4c5-5 6-5 12 1l3 3 9 9 2 3-1 4a8 8 0 0 1-2 1zm158-202 17-16a17 17 0 0 0 2-2c0 1 2 2 1 3l-3 37-3 4a18 18 0 0 0-2 1c-4 1-7 0-10-3l-6-7c-6-7-6-7 1-14z" class="G"/><path d="M57 209v-3l3-3 29-24 2-1c3 1 4 3 4 6v25H57z" class="M"/><path d="m305 299-1-3c-4-3-4-6 0-10l10-10 7-2 2 1 1 2c2 14 4 28 4 42h-1l-20-19a27 27 0 0 0-2-1z" class="L"/><path d="m224 59 2 6 5 6 10 12 2 1v1l1 1 2 4v5l-2 2h-25V58h1l3 2 1-1z" class="I"/><path d="M219 368v-37h26l3 2-1 4-12 14-1 2-8 9-1 1-5 5h-1z" class="F"/><path d="M111 100h21l7 1h2l12 2-2 6-16 15-2 1-4-4-4-4-14-15v-2z" class="P"/><path d="m306 377 8-11v-1l2-3 12-17 7-8 10 11v5l-3 2-4 4-30 21-2-3" class="M"/><path d="m188 403-6-1-2-1-20-4v-2l15-3 2-1 6-1a15 15 0 0 0 2-1l25-4v20l-20-2h-2z" class="Q"/><path d="m341 331 9-7 28-19h3l-3 7-1 3-14 19-2 3-2 2-6 5h-2l-10-11v-2zm-74 66-26 5a31 31 0 0 0-3 1h-5l-3 1h-11v-19l18 3h2l18 4h2l9 4-1 1zM179 25l31-2 1 2v11c0 4-1 4-5 4h-2l-39-7-5-2v-1l17-4 2-1z" class="F"/><path d="m308 47 26 17 2 2 8 7h1v5l-11 9h-2l-15-22-2-2-10-15v-1z" class="Q"/><path d="M405 193v15h-18l3-15v-4l6-30c5 9 6 19 8 30l1 4z" class="M"/><path d="m396 266-4-22-1-3-3-22v-3h16v26l-1 2v3l-1 2-4 16-2 1z" class="F"/><path d="m113 365 9 14-1 1-21-12h-1l-2-3-12-12c-2-2-2-4 0-6l8-8 3 4 3 3 12 17a34 34 0 0 0 2 2zm267-246c-1 4-3 1-4 0l-20-13-3-2-8-6-3-2-1-1-1-1 11-13 9 10 3 3 16 23a29 29 0 0 0 1 2M81 100l-14 10a39 39 0 0 0-2 2l-9 5-2 3-5 3c-2-6 19-35 28-39l10 9v2l-4 4-2 1zm3-25 2-3 1-1 23-18 2-2 4-2 3-2h3l-2 4-22 33c-2 2-4 3-6 0l-7-7zM57 309l1 2 14 11a84 84 0 0 1 3 2l5 3a48 48 0 0 0 3 2l5 5-1 2c-11 10-11 10-20-1l-9-12-2-2-8-14 1-1 7 3h1z" class="K"/><path d="m236 23 5 1h2l14 3a14 14 0 0 0 2 1l2 1a127 127 0 0 0 4 1l1 1-3 1-4 2-38 6-2-1V23h14a18 18 0 0 0 3 0" class="P"/><path d="m38 217 1 8-3 16v2l-1 7a26 26 0 0 0-1 3l-1 11-2 2a13 13 0 0 1-1-2l-2-10a29 29 0 0 0-1-3l-1-8-1-2a90 90 0 0 0 0-4 47 47 0 0 0-1-3v-17h12a43 43 0 0 0 2 0z" class="M"/><path d="m120 271 36-6v3l-23 21-3-1-8-7-1-1-1-1-3-3 1-4 2-1zm36 36-2 5-7-7-3-2c-6-8-6-8 1-16l15-15 4-1-2 8-3 16v2l-2 8-1 2" class="Q"/><path d="m107 209-5-1v-23l5 2 1-1 2 3 29 19-4 1z" class="T"/><path d="M39 205v4H24l1-16v-3l4-24 3-2 1 3 3 20 1 2v3l1 4v2l1 3v4z" class="Q"/><path d="M118 150h2l2-3 8-7 1-2h1l1-1 11 8 15 15h-7l-32-7-2-2v-1z" class="K"/><path d="M102 238v-22h36l1 1-30 19-5 2h-2z" class="P"/><path d="m199 302 4-2 7-10h2v16l-1 18h-18c-3 0-4-1-2-4l9-14 1-3-2-2v1z" class="K"/><path d="m223 293 2 1 3 8 5 7 2 3 5 8h1v4h-22v-33l2-1a31 31 0 0 0 2 3z" class="L"/><path d="M157 117v3l1 3 4 20 1 1v3l1 3-1 5-14-14-2-2-3-4c-5-3-4-6 0-10l11-8h2zm146 162-3 3-2 2-4 2-13-12-2-1-8-9c14 1 26 5 38 8a4 4 0 0 1 0 2l-2 1z" class="K"/><path d="m270 271 14 15c5 4 5 6 1 11l-1 2-9 6-4-11-3-16v-8l2 1zm-58-138c-1 3-2 1-3 0l-7-11-1-1-7-11-2-6h20v29z" class="T"/><path d="M284 129c5 6 5 6-1 12l-13 15-3-2c1-11 3-22 7-32l2-1 4 4 4 4" class="K"/><path d="m223 131-4 3v-30h20l-14 24z" class="M"/><path d="m297 157-14 2-2 1h-7l-1-2 12-10 1-2 1-1 3-2 5-3 12 14-7 2z" class="K"/><path d="m298 203 24-14v20h-29l2-4a58 58 0 0 0 3-2" class="T"/><path d="M293 216h29v20l-16-10-7-4-5-3-1 1v-4" class="G"/><path d="m249 183-14 13-2-1-1-4 12-13a38 38 0 0 0 3-1l5 2v1c-3 0-4 1-3 3m79 161-12 18h-5l3 3h-6l14-22 6 1zm33-146-16-13 2-6 15 13-1 6" class="B"/><path d="m341 268 9 3c-5 2-16 1-19-2-2-1-1-3-2-5l1-1z" class="N"/><path d="m159 295 3-16 3-1 2-1h1a758 758 0 0 1-8 25v-5l-1-2z" class="B"/><path d="m271 82 4-5h1l-3 16c-1 3-2 3-6 2l4-11a43 43 0 0 0 0-2zm61 78c-4-1-2-4-1-5l5-2h2l11-1v1l-11 4-1 2h-3l-2 1zm-75-73 8-11 2 1-2 6-1 3-2 4v1c-3 3-5 3-5-2a53 53 0 0 1 0-2zm5 257c-1-2-1-4-3-5-2-3-1-5 3-7l6 15-2 1-4-4z" class="N"/><path d="m161 89 1 6c-3 1-4 1-5-2l-3-14 2-1 1 2 3 5v2l1 2" class="O"/><path d="m339 261-3-4c4-3 11 0 17 8h-3l-11-4c-1 0 0 0 0 0z" class="N"/><path d="m171 85-2 4-3-3-5-12 1-1 5 6 2 3 2 3z" class="O"/><path d="m350 163-12 6h-5v-2l14-6c2 0 2 1 3 2" class="N"/><path d="M156 336c0-4 2-5 6-4l-6 17-2-1zm7 7 2-3 1-3c4 0 5 2 3 5l-3 8v1l-4-1 1-7z" class="O"/><path d="m262 344 4 4 2-1 3 5-9 1-6-7 6-2m-2 3s-1 0 0 0" class="B"/><path d="m80 271 13-4c1 5-5 8-15 7l2-3m6-103-9-8 1-1 14 6v2l-5 1h-1z" class="O"/><path d="M107 209a462 462 0 0 1 2 2l-2-2" class="J"/><path d="m193 325 18-1v3h-14l-4-2z" class="B"/><path d="M81 152h9l3 1 1 6-12-5-1-2m194 187v1l1 2-1 1h-1l-5-8 4-3a66 66 0 0 1 1 3v2l1 2zM78 265h-1l12-7 3 2-12 5h-2" class="N"/><path d="m194 186 5 5-5 2c-2-2-4-3-5-6l5-1zM81 101l2-2a30 30 0 0 1 4 4l-5 4-2-3 1-3m203 28-4-4 2-4c2 0 3 2 5 3v2h-1l1 1-3 2zm66 34c-1-1-1-2-3-2 5-4 7-4 8 2zm-94 64h4c-4 3-8 2-10-4l6 3v1zM113 365l-1-2c3-1 5-2 1-4l1-2 4 5-5 3zm251-133-7 6 3-6h4m-75 100-8 1c2-5 5-3 8-1M125 118l3 3-2 5h-1l-2-2z" class="B"/><path d="m177 170 2 1-1 7-4-3 3-5" class="C"/><path d="m318 77-4-6 2-3zM202 238l-1-6 2-3 1 1zm84 120v5l-1 2c-3-2-4-4-1-7h1zm13-136 7 4h-8l1-2zm-103 13-4 3-1-5 1-2 4 4M177 81l5-4 2 1-2 3zm161 279 4-4 1 2-5 2M98 297l1 2-4 4 1-10 2 4" class="B"/><path d="M279 326h9c-3 3-6 1-9 0" class="R"/><path d="M246 94v-4h4l-4 4z" class="B"/><path d="M65 209h8c-1 4-5 1-8 2v-2" class="J"/><path d="M65 209v2l-8-2h8m241 168 2 3-2 3h-2l2-6M200 121l1 1-4 3-2-2 5-2zm94 121h2v6h-2zm-8-183-1 6-2-7 3 1zm-18 265 3-3 1 2-4 1zm79-5 4-3-2 6zM179 131l-2-2h6l1 2h-5zm21-66a6 6 0 0 1-3 3l-5-3 2-2 6 2m20 82-2 6c-2-1-2-1 2-6m-56 124-4 1-1-5zm53-4 1 3-3 3-1-1 3-5zm-40-140-2-3 2-2c-1 2 5 4 0 5m42 258v4c-4-1-4-2 0-4" class="B"/><path d="m228 236 2 5c-2-1-4-2-2-5" class="E"/><path d="m121 329 4-1c1 4-1 3-4 3v-2zm88-138 3 2c0 3-2 2-3 1v-3M30 264a3 3 0 0 1 0 2l-1 3h-2l3-5m185-31 1 5h-2z" class="B"/><path d="M275 390h6a21 21 0 0 1-6 0" class="H"/><path d="M271 82v2l-3-5 2-1 1 4zM147 354l-1-2c5 2 2 5 3 8l-2-6z" class="B"/><path d="m57 215-2 3-1-2 3-1z" class="D"/><path d="m212 14 3 1h-11v-1h8zm34 65 4 4h-4zm135 40-1-2c4-1 4-1 4 3l-3-1zM222 22l-3 1-1-3 1-1 3 3zm154 117 6-2a24 24 0 0 1-6 2m-153-39 9-1v1h-9zM78 168l-4-1 4-3zM289 45l-1 5a16 16 0 0 1 1-5m-71 246 1 3-4-3 1-1 2 1zm-25-86-6-2c1 2 5-4 6 2m33-13 3 1-3 2v-3m-188 4-1-4c2 1 4 2 1 4m352-7-1 4h-2l3-4" class="B"/><path d="m161 215-6 2a24 24 0 0 1 6-2" class="J"/><path d="m194 270-2 7a28 28 0 0 1 2-7m146-25 2-1 1 4-3-3zM151 45l3 4c-3 0-3-1-3-4m-5 94 3 2-3 1v-3m-96-10-3 3c-2-4 1-3 3-3m186 80h5-5m-75-99v5a15 15 0 0 1 0-5m150 126-5-2 3-3zm50-74-2 3c-3-3 1-3 2-5v2zm-16 191v-5c3 1 3 3 0 5M39 169l1 5-1-5m237 173-1-2 3-4-2 6zM67 237l-2-2 4-3c0-1 0-1 0 0zm83 96-5-1 5 1M42 236v5-5m152-68-2-5a17 17 0 0 1 2 5m-52 140-3-2 3-1zm-69-73 2 2-4 3c0 1 0 1 0 0zm91 155 6-1v1h-6zM323 83l-3-3 2-2z" class="B"/><path d="m206 48-3-2c1-1 4-2 3 2" class="D"/><path d="m39 144-3 2v-2h3m148-34-1-2 4 1-3 1zm-28 260-3 4c1-1-2-5 3-4m-44-90-2-1 2-5zm54-198-2-3 2-3zm-26-25-1-2 3-2-2 4m67-3-3 3v-5l3 2zm-50 30-3-3c4-1 4 1 3 3" class="B"/><path d="m335 321 2 3c-3 2-2-1-2-3" class="H"/><path d="m172 233-5 2a17 17 0 0 1 5-2m125-76 3-1-3 3zm-166-19-1 2-3-2 1-1 3 1zm140-35-3 2v-2h3zm-60 270-2 3v-3h2M38 216l-2 1 3-4 1 1-2 2zM287 54v3-3m24 212 4-1-4 1M127 375l3 4-3-4M324 92l2-1v3l-1 1zM153 321l-1-3h3l-2 3m34 34-2-2 4-1-2 3" class="B"/><path d="m261 316 3 1-2 2-1-3z" class="E"/><path d="m185 318 2-4-2 4" class="B"/><path d="M92 317v-4 4" class="H"/><path d="M93 129v-4 4" class="C"/><path d="m331 312-1-4h1v4m-86-97-4 1 4-1m91-149-2-2 2-1v3" class="B"/><path d="m105 150 4-1-4 1" class="D"/><path d="m330 277 1 2-4-2zm-56 67 1-1-1 4v-3zm22-246h-3v-1h6v1h-3zM151 381v2h-2v-3l2 1zm70-101-1 3-2-1 3-2zm82-1 4-3-4 3" class="B"/><path d="M87 325h4c-1 3-3 1-4 0" class="H"/><path d="m299 284 1-2 2 3-1 1-2-2z" class="B"/><path d="M94 289v-4 4" class="H"/><path d="m169 190 3 1-2 2-1-3z" class="E"/><path d="m195 200 2-1h1l-3 1z" class="B"/><path d="m51 202 4-3-4 3" class="C"/><path d="m365 201-3-1 3-1v2m-326 0-1-2 4 1-3 1m207-5 3-1 1 2-4-1m18-110 1-3 2 3z" class="B"/><path d="m93 121-1-4 1 4" class="C"/><path d="m405 193-1-4 1 4M345 78v-4c3 1 3 2 0 4m41 106v-4 4" class="B"/><path d="M81 254v-4c3 1 3 2 0 4" class="D"/><path d="M373 285h-2l2-3h1zm-207 52-1 2-1-3 2 1M60 203l-2 2-2-2h4z" class="B"/><path d="m297 48-2-3 1-1h1z" class="E"/><path d="M39 205v-2h3l-3 2m223 8 4-1v1zm76-61-2 1v-2l3-1-1 2zm7 96 1 3-3-3zM79 271l-1 3-2-1 3-2zm43-229 2 1v1l-2-2zm255 110c-1 1-1 2-3 2a7 7 0 0 1 3-2" class="B"/><path d="m157 268-1-3h3l-2 3" class="D"/><path d="m111 159-2 2 2-2" class="C"/><path d="m198 297 1-2 2 2h-3zm96 0 2-2 1 3-3-1" class="B"/><path d="m57 198 2-3-2 3" class="C"/><path d="M287 164h-2v-3h1l1 3M161 89l-1-2 3 1-2 1m143 216-2-1 3-3 1 1-2 3zm40-131v2h-5zm42 53 1 5h-1zM263 26h5l-1 1zM142 383l1-5h1l-2 5zm70-250v-1l3-1v1zm-45-63 3 3h-3v-3z" class="B"/><path d="m223 131 2-3-2 3" class="C"/><path d="M373 124h-2l3-2zm-18 116-1 2-1-5zm-99-120-1 4-3-3 4-1m-31 244 1-2 2 3c1 0 0 0 0 0l-3-1zm-55-12-2 4 2-4M87 70v1l-3-2 1-1 2 2zm54 31h-2l3-3v1l-1 2m189 141 3 2-4 2z" class="B"/><path d="M334 310v3-3" class="H"/><path d="M399 127v2l-2-1 2-1zm-63 48a13 13 0 0 0 1-1l1 1-3 1a6 6 0 0 1 1-1M177 311l-1 4 1-4" class="B"/><path d="M111 100v2l-2-1 2-1m21 0h-3 3" class="C"/><path d="m199 58 2-3-2 3m-59-14-1-3 1 3m45 37-1 3-1-3h2m94 192 1 1-2 1z" class="B"/><path d="m363 93-3-2 3 2" class="E"/><path d="m202 363 3 3-3-3m80-283-1 4 1-4" class="B"/><path d="m292 129 3-1c0 2 0 3-3 1m-19 38-3 1 3-1" class="C"/><path d="m33 167-1-3 1 3M284 67v3-3m-80-27h2l-1 3-1-3m146 225h3-3m39-101v-3 3" class="B"/><path d="M201 193h2v2l-2-2z" class="D"/><path d="M24 190v3-3m31-70 1-2 1 1-2 1m164 70 2-1v4zm35 109 1 2h-3l2-2" class="B"/><path d="M230 404h3-3m76-102-1-1v-2l2 1-1 2" class="R"/><path d="M265 29h-4 4" class="B"/><path d="m158 123-1-3 1 3" class="C"/><path d="M238 403h3-3" class="R"/><path d="m177 193 3 1-3-1m204 112h-3a6 6 0 0 1 3 0" class="E"/><path d="M322 256h-1v-1l1 1m5-62v4h-1l1-4z" class="B"/><path d="M98 121v3-3" class="D"/><path d="M340 101h-2l1-2 1 2M81 243l2 1-3 2zm67-177 1 4h-1v-4zm196 118h-1a18 18 0 0 1 3-4c1-1 1-1 0 0l-2 4" class="B"/><path d="M253 386h3-3" class="H"/><path d="m75 323-2-2c0 1 4-2 2 2m150-140v-3c2 1 3 2 0 3m166 58 1 3-1-3" class="B"/><path d="m233 195 2 1-2 2v-3" class="C"/><path d="M35 253v-3 3" class="B"/><path d="M331 283v3-3" class="H"/><path d="M385 136v-3l2 1-2 2zm-341-2v3c-2 0-3-1 0-3m42 143h-4v-1l4 1z" class="B"/><path d="m288 369 1 3-1-3" class="H"/><path d="M93 152h-3 3" class="C"/><path d="M215 264v-4h1l-1 4zM24 234l1 3-1-3m62-83-2 1 1-3 1 2" class="B"/><path d="M236 23h-3 3" class="D"/><path d="m290 377 1 3-1-3" class="H"/><path d="M235 353v-2l4 2z" class="B"/><path d="m164 150-1-3 1 3m-21-54h3-3" class="C"/><path d="m337 147 3-1-3 1m24 190 1-3 2 3zM260 34l3-2-3 2M82 145h2l-1 2-1-2m-33 76-3 1 3-1m339-5v3-3M233 44h-3 3" class="B"/><path d="m151 218-2 2 2-2" class="J"/><path d="M230 21h-4v-1l4 1m8 197 3 1-3-1m99-59 1-1 1 1h-2M185 389l-2 1 1-3 1 2m38-97-2-2 2-1v3zm21-206-1-2 3-1zM130 289h3l-1 2-2-2z" class="B"/><path d="M99 289v3-3" class="H"/><path d="m45 224-1 4 1-4m252-63-2 1 2-3zm11-114h-3v-1l3 1zm-11 47h3-3m32 128v3-3M150 326l2-1v4zm177-220-2 2c0-1-2-4 2-2" class="B"/><path d="M297 327h3-3" class="R"/><path d="m170 112-1-4 1 4m162-1-1-2h1v2zM117 277l3 2-3-2m61-182v2l-2-1 2-1" class="B"/><path d="m219 273 1 3-1-3" class="E"/><path d="M273 34h2v1h-3v-1h1" class="B"/><path d="M198 199h-1l-1-3 2 3" class="D"/><path d="m114 115-2-1 2 1" class="C"/><path d="M163 211h2v1h-3v-1h1z" class="J"/><path d="M99 369v-1l1 3h-1zm84-285-2 3v-3z" class="B"/><path d="m353 104 3 2-3-2" class="E"/><path d="m239 411-2 1v-1zm54-191-2 2a22 22 0 0 1 2-2" class="B"/><path d="m59 195 3-2-3 2" class="C"/><path d="M154 35h-2v-1h3v1h-1zm29 260-2-3 2 3zm-27 72 1-2 1 1-2 1" class="B"/><path d="m45 201 1 3-1-3" class="O"/><path d="M211 373h-2v-1l3-1-1 2z" class="R"/><path d="m131 250-1 1-1-3h1l1 2m22 9v-1l2 3-1 1-1-3z" class="B"/><path d="m340 94 1 1h-3l2-1" class="E"/><path d="M175 315v1l-3-1h1zm81 30-2-3 2 3m73-179 1-1v3l-1-2m-304-1h2l-1 2-1-2m295-2v-2h1v3h-1v-1M216 37l1 3h-1v-3zm66 316-1-2h1z" class="B"/><path d="m342 96 3 2-3-2" class="E"/><path d="m180 325 2-3-2 3" class="B"/><path d="m282 390 1-1h2l-3 1z" class="H"/><path d="m255 325 2-1-2 3a9 9 0 0 1 0-2M94 97v3h-1l1-3m122 60-2-1 1-1 1 2zM83 329l-3-2 3 2m49 2h-2v-1h3v1h-1m197-198v4h-1l1-4z" class="B"/><path d="m122 147-2 3 2-3" class="D"/><path d="M253 340v-2l2 1-2 1M112 51l-2 2a4 4 0 0 1 2-2m206 134 2-3-2 3m96-2-1-2h1v2zM60 122l-2 2 2-2m248-27-2 1v-1z" class="B"/><path d="m76 182 2-3-2 3" class="C"/><path d="m195 21 2-1v1z" class="B"/><path d="m247 177-2 1 2-2v1" class="C"/><path d="m247 142-1 4 1-4" class="B"/><path d="m169 273-1 2-1-3h2v1" class="D"/><path d="m244 97 2-2-2 2" class="B"/><path d="m294 297 3 1v1h-3v-2" class="O"/><path d="m282 38-1-2 2 1-1 1z" class="B"/><path d="M137 262h2-2" class="D"/><path d="m235 265-2-2 2 2" class="E"/><path d="m307 253-2-1 2 1m51 10h1l-1 1v-1m-20-2h1l-3 1v-1zm-79 1-2-2 2 2m130 0-1-2 1 2m-211 47-1 2 1-2m39-32v-1l1 1h-1M93 263v1l-1-1h1z" class="B"/><path d="m248 250-2-1 2 1" class="N"/><path d="m120 271-1 1v-2l1 1zm189 3v-2l2 1-2 1M27 251l1 3-1-3m8 23a11 11 0 0 1 0 2h-1v-2h1z" class="B"/><path d="m242 271 2 2-2-2" class="E"/><path d="M200 254v3-3M178 38h-2v-1h2v1zm-29-1v2-2m-20 213-2 2 2-2m212 15v-2 2m30 3 2 1-2-1m-101 2h-2l1-2 1 2M37 258v2h-1v-2h1zm234 0h2-2" class="B"/><path d="M323 274h-2 2" class="D"/><path d="M158 37h-2 2m238 229h2l-1 1-1-1m-318 0 2-1-2 1" class="B"/><path d="m324 277-1-2 1 2" class="D"/><path d="m257 37-1-1h2l-1 1zm18 298-2-3 2 3" class="B"/><path d="M239 388h-2 2" class="H"/><path d="M351 344h2l-1 2-1-2m-175 1-2 2 2-2" class="B"/><path d="m99 345-2-2 2 2" class="E"/><path d="m280 344-1-2h1v2m79-5 2-2-2 2m-78-6v2l-2-1 2-1z" class="B"/><path d="m111 353 2 2-2-2" class="E"/><path d="M137 23h2l-2 1v-1zm203 308 1 2-1-2" class="B"/><path d="m211 25-1-2h2v1l-1 1z" class="D"/><path d="M212 24v-1h3v1h-3z" class="B"/><path d="M243 24h-2 2m-66 367-2 1 2-1" class="D"/><path d="m203 330-2 1 2-1" class="B"/><path d="M259 392h-2 2" class="H"/><path d="m269 328 1 1-1 1v-2m-2 33-2-2 2 2" class="B"/><path d="M149 383h2l-1 2-1-2z" class="D"/><path d="M224 373v2-2" class="H"/><path d="M341 372a14 14 0 0 1-1-1l1 1zm-197-6v-2 2" class="B"/><path d="m285 365 1-2 1 2h-2" class="H"/><path d="m235 360-2 2 2-2" class="B"/><path d="m179 25-2 1 2-1" class="D"/><path d="m192 361-2-2 2 2m-27-2-1 2 1-2" class="B"/><path d="M286 358h-2l1-2 1 2z" class="H"/><path d="M235 356v-1l1 1h-1zm-45 1 1-1a12 12 0 0 1-1 1z" class="B"/><path d="M167 387h2-2" class="D"/><path d="M41 289v2l-2-1 2-1m160 14-1 3 1-3m-57 0 2 2-2-2m186 1v-2h1l-1 2zM207 407a3 3 0 0 1 1 1h-2l1-1M47 297h2-2" class="B"/><path d="m159 295 1 2h-1v-2" class="D"/><path d="m383 295 2-2-2 2" class="E"/><path d="m299 30-1 2-1-1 2-1zM179 292l1-2 1 2h-2m209-1-1-2 1 2M188 403h2-2" class="B"/><path d="m244 289-1-2 1 2" class="E"/><path d="M234 409h1l-1 1v-1zM47 287l-3 2 3-2m217-2-1-1h2l-1 1" class="B"/><path d="m243 284-2-2 2 2" class="E"/><path d="m98 284-1-2h1v2m257-3h-2 2m-318-2 1 1-2 1 1-2M259 28l-2-1 2 1" class="B"/><path d="m277 321 1 2-1-2" class="R"/><path d="m56 321 2 2-2-2" class="B"/><path d="m166 322 1-2-1 2" class="D"/><path d="m241 320 1-1-1 1z" class="B"/><path d="M89 279h-2 2" class="H"/><path d="M157 396h-2 2z" class="B"/><path d="M378 315v-3 3" class="E"/><path d="m188 314 1-2-1 2m47-3-2-2 2 2m-99 88v-2 2zm103-16h2l-1 2-1-2m-59 19h2-2m-23-95v-2 2m71-250 2 2-2-2m181 119a11 11 0 0 1 0-2h1v2h-1M201 55l2-2-2 2m120 117-2 1 2-1" class="B"/><path d="m81 171-2-2 2 2" class="C"/><path d="M87 95v-2 2m112 72 2 3-2-3" class="B"/><path d="m163 169-2-1 2 1m-31-74h2-2" class="C"/><path d="M38 163v2-2" class="B"/><path d="m304 57-2-2 2 2" class="E"/><path d="M403 249v-2 2m-71-89 2-1-2 1" class="B"/><path d="m281 160 2-1-2 1" class="C"/><path d="m91 178-2 1 2-1" class="H"/><path d="m369 157-2 2 2-2" class="B"/><path d="m150 96 1-2-1 2" class="C"/><path d="M77 155h-2 2m159 0v-2 2m-201-1v2h-1l1-2m55-53v-3h1v3h-1m120-3 2-1a3 3 0 0 1-2 1" class="B"/><path d="M81 152v2l-1-1 1-1" class="C"/><path d="m231 61 2 2-2-2" class="B"/><path d="M305 46v1a4 4 0 0 1 0 1l-2-1 2-1z" class="E"/><path d="M122 47h-2l1-2 1 2zm114 169v1l-2-1h2zm-97 1-1-1 1-1v2m-100-6 1 1h-2a3 3 0 0 1 1-1zM283 73v2-2m43 18v-2l2 1-2 1m-55 118 1-1v2l-1-1zm-6 1 2-1-2 1" class="B"/><path d="M196 209v-2l2 1-2 1z" class="J"/><path d="m380 205 2-1-2 1m-83-2-2 2 2-2" class="B"/><path d="M115 152h1l-1 1v-1" class="C"/><path d="m118 47-2 2 2-2" class="B"/><path d="M183 196h2-2" class="E"/><path d="m262 91 1 1-1-1z" class="B"/><path d="M43 188v2-2" class="O"/><path d="m37 189-1-2 1 2" class="B"/><path d="m202 188-1-2 1 2" class="D"/><path d="m222 187 1-3-1 3M212 54h-2l1-1 1 1z" class="B"/><path d="m363 118-2-2 2 2" class="E"/><path d="M291 100h-2 2m38 33v-3h1l-1 3" class="B"/><path d="M266 131v-2 2" class="C"/><path d="m379 129-2-2 2 2" class="B"/><path d="M125 126h1v2l-1-2zm182-2-1 2 1-2m-174 1 2-1-2 1m30-2 1 2-1-2m-18-56-1-2 1 2" class="C"/><path d="M333 119v2-2" class="B"/><path d="M276 121h-2l1-1 1 1m3-4 2 2-2-2" class="C"/><path d="M332 129v2-2" class="B"/><path d="m157 117-2-1 1-1 1 2" class="C"/><path d="m97 111 1 2-1-2" class="D"/><path d="M92 113v-2 2" class="C"/><path d="m281 101-2 1 2-1M65 112l2-2-2 2m271-12-1 2 1-2m-18 10h-1l1-1v1z" class="B"/><path d="M90 101h1v1l-2 1 1-2z" class="C"/><path d="M273 105a11 11 0 0 1 0-2h1v2h-1zm9-7h2v1l-2-1m38 53 2-1-2 1m-269 0-2-1 2 1m330-2-2 2 2-2m-170 3-2-3 2 3" class="B"/><path d="m118 150-2-1 2-1v2z" class="C"/><path d="m387 146-2 2 2-2" class="B"/><path d="m168 146 1 2-1-2" class="C"/><path d="m284 146-1-1 1-1v2z" class="B"/><path d="m289 143-2 2 2-2" class="C"/><path d="m208 146-1-3 1 3m-22-1v-1h1l-1 1z" class="B"/><path d="M163 144v-1l2 1-1 1-1-1z" class="C"/><path d="m213 187-1-2 1 2m147-45h3-3m-45-79 1 2h-2z" class="B"/><path d="M264 139v-2 2" class="C"/><path d="M99 137v2-2" class="D"/><path d="M47 138h3-3" class="B"/><path d="m133 137-1 1 1-1" class="D"/><path d="M236 99h2v1h-2v-1zm-98-60-2 1 2-1" class="B"/><path d="M175 40h-2 2" class="D"/><path d="m84 75 1 2-1-2" class="B"/><path d="M219 40h2-2" class="D"/><path d="M279 80h-1v-1l1 1" class="B"/><path d="m220 233-1 1v-2l1 1" class="E"/><path d="m108 79-2 2 2-2m122 152h-2 2m-189 2-1-2h1v2zM250 37l1 1h-2l1-1zm119 191-2 2v-2h2zM253 83l2-2-2 2m-43 146-2-1h1l1 1M171 84l-2-2 2 2" class="B"/><path d="M147 76v-2 2" class="C"/><path d="m105 83-1 3 1-3m68 144 3-2-3 2m156 12 1 2-1-2m58 10-1-2 1 2m-250-2-3 2 3-2" class="B"/><path d="m233 246 1 2-1-2" class="N"/><path d="M404 244v-2 2m-81 0-2-2 2 2m87-1 1-1v2l-1-1" class="B"/><path d="M218 241v2-2" class="E"/><path d="m37 243-1-2 1 2m-12-2v2l-1-1 1-1M232 41l2-1v1h-2zm-76 37h-2l1-1 1 1m120-1h-1l1-2v2z" class="B"/><path d="M96 241v-2l2 1-2 1" class="J"/><path d="M102 238h2-2" class="B"/><path d="M218 237v2-2" class="E"/><path d="m117 237-2 2 2-2m-78 2 1 1h-1a9 9 0 0 1 0-1m-20 0-1 1v-2a3 3 0 0 1 1 1z" class="B"/><path d="M99 236v1l-1-1h1z" class="J"/><path d="M198 44h-2 2" class="D"/><path d="m257 87-1 2 1-2m119 132h1l-1 1v-1zm-184 0 3-2-3 2m1 5-2 1 2-1" class="B"/><path d="M150 90v-3 3" class="C"/><path d="m382 222-1-2 1 2M332 87h2l-1 2-1-2zM133 43l-1 2-1-2zM91 87h1l-1 1v-1M26 269l-1-1h1v1m111-140 1 1-1-1zm-16 202-2 1v-1h2z" class="B"/><path d="m167 277-2 1 2-1" class="D"/><path d="M142 99v-1h3v1zm121 53 1-1-1 1z" class="C"/><path d="m151 82 1-1-1 1m-24 16 1-1v1h-1zm283 160 1 1h-1v-1" class="B"/><path d="m241 201 1-1v1h-1" class="C"/><path d="M112 96a3 3 0 0 1-1-1l1 1zm42-35-1-1 1 1zm198 208-1-1 1 1m-3-13v-1a13 13 0 0 1 1 2h-1zm-174-26h-2v-1l2 1c1 0 0 0 0 0zm36-129-1-1 1 1m162 226v-1 1zM145 99v-1h2v1z" class="B"/><path d="M141 220h-1 1" class="J"/><path d="m277 261 1 1-1-1m-30 28 1 1a3 3 0 0 1-1-1m71-52-1-1 1 1m-41 0 1 1-1-1m-30 104v1h-1l1-1zM25 262l1-1-1 1zm267-59v1-1zM163 342v1l-1-3h1zm170-81-1-1h1v1M186 39h1v1l-1-1m-26-16-1 1 1-1m-34 9-1 1v-1h1zm90 305-1-1 1 1m24-298-1 1v-1h1zm-26 239-1-1h1v1m59 72-1 1 1-1m80-271-1-1 1 1zM125 47l1 1-1-1M22 157l-1 1 1-1zm90 176-1-1 1 1m-38-66h1-1m69-222 1 1h-1v-1zm131 167v1h-1l1-1zm60 42h-1 1m70-84v-1 1m3 0 1 1a3 3 0 0 1-1-1zM274 313l1 1h-1v-1zm129-99-1-1 1 1z" class="B"/><path d="M160 299v3-3" class="D"/><path d="M217 393a3 3 0 0 1-1 1l1-1zm-28-116-1-1h1v1M105 52h1-1m185-24v1-1m74 128v1h-1l1-1M15 183l1 1a3 3 0 0 1-1-1zm42 122v-1 4c0 1 0 0 0 0zm226 87 1 1-1-1M53 95l1-1-1 1m320 210v-1h1l-1 1zm-41-57 1-1v1h-1M187 102l-1 1 1-1zm118-59 1-1-1 1zM135 395l1-1v1h-1zm-14-115 1 1-1 1v-2z" class="B"/><path d="m146 162 1-1v1h-1" class="C"/><path d="m45 124-1-1h1v1z" class="B"/><path d="m303 157 1 1-1-1" class="C"/><g class="B"><path d="M168 272h-1v-2l1 1v1m-26-149-1-1h1v1M21 273v-2h1l-1 2zm384-17-1-1h1v1zm-18-63v2h-1l1-2zm-112-30-1 1a3 3 0 0 1 1-1zM170 319l1 1h-1v-1zM21 194l1 1a3 3 0 0 1-1-1zm346 34h-1v-1l1 1zm44-60-1-1 1 1zM126 379l-1 1v-1h1M269 99v1-1m77 177v1-1m48 24h-1 1M345 72v1l-1-2a6 6 0 0 1 1 1m-89 40h-1 1"/><use href="#C"/><path d="M97 254h1-1m109-120h-1 1m-9 123v-1 1"/><use href="#D"/><path d="m235 65 1 2h-3l2-2m157 66h1-1M97 279h1-1m44 105h-1l2-1-1 1"/></g><path d="m287 127-1-1a5 5 0 0 1 1 0v1" class="C"/><g class="B"><path d="m231 71 2-4v1l-2 3"/><use href="#E"/></g><path d="M298 129h1-1z" class="C"/><path d="m225 242-1-1h2a4 4 0 0 1-1 1" class="E"/><g class="B"><path d="m322 78-1-1h1v1zm9-23 1 1h-1v-1zM63 197v-1 1m118 131h-1 1zm-11 0h1-1M277 86h1-1m-95 259h-1 1zm160-20 1-1v1a6 6 0 0 1-1 0m57-56v1-1m-200-40v-1 1m-10-7v1-1M305 57l1-1v1h-1"/><use x="72" y="-62" href="#E"/><path d="m342 325-1 1v-1a6 6 0 0 1 1 0zm14-160v1a15 15 0 0 1-1-3 11 11 0 0 1 1 2m-151 62h1-1"/></g><path d="M99 190h1-1" class="J"/><g class="B"><path d="M86 168v1-1M331 55h-1 1zm-18 117h-1 1M174 306v-1h1a4 4 0 0 1-1 1m52-121v1-1m-10 3h1-1m32-102h-1 1m124 118v-1 1M43 143v1-1m146 59v-1 1m45-189v1-1m52 133-1 2-1-2zM174 96v-1 1"/><use x="218" y="5" href="#C"/><path d="M240 149h1-1"/><use href="#F"/><use x="266" y="-212" href="#D"/><path d="M133 32v1-1M85 342v1-1m44-311h-1 1"/><use x="-149" y="82" href="#F"/><path d="M226 294h-1 2v1l-1-1zm137-64v-1 1m-182 99v-1h1a5 5 0 0 1-1 1z"/><use href="#G"/><use href="#H"/></g><path d="M220 58h-1c-1 0 0 0 0 0h1z" class="T"/><g class="B"><path d="M167 73zm14 11"/><use x="-192" y="-329" href="#B"/></g><path d="m267 397 1-1-1 1" class="D"/><g class="B"><use x="100" y="-315" href="#H"/><use href="#I"/><use x="86" y="-334" href="#B"/><path d="M152 406"/><use href="#J"/><path d="M42 226c0 1 0 0 0 0"/><use x="181" y="239" href="#J"/><use href="#K"/><path d="M184 225c1 0 0 0 0 0"/><use x="-212" y="136" href="#I"/><use href="#L"/><path d="M131 43z"/><use href="#M"/><use x="85" y="-130" href="#G"/><use x="53" y="-1" href="#J"/><path d="M297 44h-1 1"/></g><path d="M292 216v1-1z" class="D"/><g class="B"><use x="-160" y="-132" href="#B"/><use href="#N"/><use x="22" y="-123" href="#G"/></g><use x="-200" y="120" class="J" href="#I"/><g class="B"><path d="M345 244c1 0 0 0 0 0m-148 13"/><use x="-176" y="33" href="#K"/><use x="-5" y="-247" href="#N"/><use x="-44" y="34" href="#K"/><path d="M233 233zm141-26c1 0 0 0 0 0"/><use x="140" y="-53" href="#N"/><use x="43" y="42" href="#L"/><use x="-55" y="-141" href="#H"/><use x="-57" y="-16" href="#N"/><use href="#O"/><path d="M273 271c0-1 0 0 0 0m-71-43c-1 0 0 0 0 0"/></g><path d="m297 128 1 1-1-1z" class="C"/><g class="B"><path d="m163 144 1 1h-1v-1zm112 195v-1 1m-189 2zm-1 1 1-1-1 1m97 3h2-2zm-15 6h-1 1m169-200"/><use x="32" y="95" href="#J"/><path d="M85 358"/><use x="-143" y="274" href="#I"/><use x="57" y="-47" href="#B"/></g><path d="M219 368h1-1" class="C"/><g class="B"><use x="121" y="-340" href="#H"/><use x="-59" y="-338" href="#G"/><use x="-7" y="280" href="#O"/><use x="177" y="5" href="#N"/><use x="188" y="-29" href="#L"/><use x="161" y="-111" href="#H"/><path d="m199 302 1-1-1 1z"/></g><path d="M108 186z" class="J"/><g class="B"><use x="61" y="-224" href="#G"/><use x="158" y="16" href="#O"/><path d="M114 316c1 0 0 0 0 0"/><use x="-155" y="-39" href="#B"/><use x="326" y="45" href="#M"/><path d="M224 59z"/><use x="-195" y="239" href="#I"/><path d="M149 329z"/><use x="135" y="44" href="#N"/><use x="249" y="44" href="#N"/><path d="M149 329zm32 0"/></g><g class="U"><path d="m231 71 2-3h3v1a4 4 0 0 0 0 1v-1l6 5 4 5v4l-3 1a30 30 0 0 0 0-3l-2 1-10-11m6 2v1-1m107 111a21 21 0 0 1 2-4l1-1-2 6-1-1M73 235l-2 5-4-3 2-5 2 1 2 2M186 81h-4l2-3 2-1-2-1h-2l10-11 5 3-11 13z"/><path d="m184 78-2-1v-1h2v2zm-15 195v-1 1m9-95 1-6 9 9-2 4z"/></g><path d="m186 185 2-4 6 5-5 1-3-2m63-2c-1-2 0-3 3-3l-3 3" class="C"/><path d="m73 235-2-2 2 2" class="D"/><path d="m241 83 2-2v3l-2-1" class="B"/><g class="U"><path d="m314 365-3-3h4l-1 3"/><use x="233" y="74" href="#M"/><path d="M256 227zm43-3z"/></g><path d="M237 73v1-1m-1-4v1-1c0-1 0 0 0 0zm-52 9v-2l2 1-2 1z" class="B"/><defs><path id="B" d="M277 413c0-1 0 0 0 0"/><path id="C" d="M77 260v1-1"/><path id="D" d="M83 360v1-1"/><path id="E" d="M145 384h-1 1"/><path id="F" d="M345 149h1-1"/><path id="G" d="M223 408c0-1 0 0 0 0"/><path id="H" d="M221 408c1 0 0 0 0 0"/><path id="I" d="M341 89c0 1 0 0 0 0"/><path id="J" d="M216 33c1 0 0 0 0 0"/><path id="K" d="M202 226c0-1 0 0 0 0"/><path id="L" d="M43 224c0 1 0 0 0 0"/><path id="M" d="M27 273c-1 0 0 0 0 0"/><path id="N" d="M122 285c-1 0 0 0 0 0"/><path id="O" d="M119 37c-1 0 0 0 0 0"/></defs></svg>