<svg xmlns="http://www.w3.org/2000/svg" width="100%" viewBox="0 0 425 425" height="150" xmlns:v="https://vecta.io/nano"><style><![CDATA[.B{fill:#1d1d1d}.C{fill:#292929}.D{fill:#f4f4f4}.E{fill:#181818}.F{fill:#c7c7c7}.G{fill:#e8e8e8}.H{fill:#ececec}.I{fill:#d3d3d3}.J{fill:#f1f1f1}.K{fill:#dcdcdc}.L{fill:#efefef}.M{fill:#e5e5e5}.N{fill:#bababa}.O{fill:#949494}.P{fill:#7e7e7e}.Q{fill:#f6f6f6}.R{fill:#fbfbfb}]]></style><path fill="#fcfcfc" d="M426 111l.095 311c.004 3.424-.672 4.098-4.096 4.095-139-.111-278-.111-417 0-3.424.003-4.098-.671-4.095-4.095V5C.902 1.577 1.576.902 5 .905h417c3.423-.003 4.115.668 4.099 4.095L426 111z"/><path fill="#0e0e0e" d="M408.793 136l.103 263.985c.003 7.948-2.405 10.555-10.372 10.558-73.829.029-147.659.003-221.488-.01l-155.486-.041c-6.788-.003-8.213-1.245-8.234-8.13l-.141-102.993.07-273.487c.005-10.85-1.024-10.953 10.897-10.953l376.48-.058c6.288-.001 7.88 1.508 7.914 8.638l.255 98.993.001 13.5z"/><path d="M415.998 207v192.858h-.71V26.343l.71-.003V207z" class="D"/><path d="M336 414H178.155v-.707h181.489l.024.707H336z" class="Q"/><path d="M180 11H50.152v-.709h157.494l.02.709H180z" class="D"/><path d="M10.996 315.067V399.9l-.722-.001v-93.605l.722-.05v8.823z" class="J"/><path d="M102 413.002h65.849v.706H82.354l-.029-.706H102z" class="D"/><path d="M10.998 58v21.87l-.711-.005v-61.52l.711-.014V58z" class="J"/><path d="M413 77.36l-.124 2.347-.522-.007V26.243l.646-.011V77.36z" class="Q"/><path d="M357.955 12h-27.846l.003-.722h37.578l.049.722h-9.783z" class="D"/><path d="M390.954 413.001h9.881l-.012.698h-30.707l-.007-.698h20.846zM412 395.706v-8.654c1.145 4.3 1.16 8.591.711 13.252-1.093-1.544-.554-2.896-.711-4.598z" class="Q"/><path fill="#f9f9f9" d="M99.684 381.876c3.381-.73 6.507-1.392 9.958-2.301 1.103-.487 1.907-.566 3.014-.672l31.935-6.42c1.156-.413 1.959-.472 3.054-.614 1.747-.19 3.198-.328 4.985-.612.783-.191 1.23-.232 2.013-.296l24.897-2.496c1.833-.56 3.281-.409 5.067-.542l11.925-.549c8.8-.599 17.17-.329 26.017-.241l14.999.897c1.275-.024 2.09-.028 3.203.093 3.342.359 6.381.679 9.842.909.87-.057 1.317-.017 2.098.075l14.93 1.786c.869.022 1.31.114 2.079.286 1.716.334 3.104.591 4.915.767.867-.01 1.31.064 2.083.21 1.388.31 2.446.554 3.918.765.857.023 1.301.077 2.077.17 5.887 2.094 11.821 2.461 17.918 3.879a5.4 5.4 0 0 1 2.091.424c23.95 5.461 47.387 11.505 70.475 19.37H47.792l-.206-.586 23.047-6.37c1.081-.616 1.88-.799 3.023-.887 2.089-.413 3.87-.79 5.982-1.383.771-.341 1.216-.442 2.007-.552 3.129-.696 5.917-1.359 9.015-2.281.737-.432 1.17-.59 1.943-.822 1.801-.364 3.268-.638 5.055-1.114.797-.425 1.261-.68 2.027-.895z"/><path d="M42.145 114.605l2.378 9.012c.389 1.126.769 1.817 1.158 2.794.154 1.522.324 2.748.741 4.259.382.721.514 1.158.745 1.923.103 4.948 2.42 9.104 2.955 14.018.668 1.072.862 1.877 1.027 3.019.146 1.09.227 1.874.529 2.994.269 1.874 1.041 3.232 1.343 5.038.063 1.102.094 1.882.358 2.979.385.75.522 1.19.725 1.969.165 1.427.249 2.518.523 3.979.261.819.318 1.27.378 2.064l1.713 12.899c.227.859.262 1.308.317 2.094l.607 8.924c.311 1.165.342 1.976.486 3.078l-.069 30.931c-.103 1.568-.015 2.697-.256 4.133-.328 2.365-.589 4.401-.779 6.876-.019 1.241-.022 2.05-.156 3.152-.299 1.037-.557 1.775-.766 2.906-.02.829-.073 1.266-.124 2.035-.155.911-.293 1.492-.344 2.362.251 1.432-.61 2.302-.811 3.682-2.72 7.632-4.856 15.091-6.279 23.122.362 1.288-.492 1.841-.713 2.9-.264.741-.448 1.189-.546 1.997-.076.774-.206 1.198-.347 1.962-.446 1.492-.845 2.653-1.469 4.109-1.257.79-2.675.829-2.954 2.708-.439.453-.631.679-.791.932-.257.408-.245.87-.232 1.316.011.4.056.332.035-.204-.012-.301.037-.602.264-1.192.894-.81 1.456-.445 2.158.338-.699 4.097-1.554 7.879-2.64 11.979-1.078.925-1.306 1.763-1.042 3.081-1.62 7.72-3.338 15.108-5.236 22.853-.726 1.135-1.646 1.712-1.391 3.121-.104 1.387-.325 2.506-.725 3.924-.73 1.01-1.389 1.684-.899 3.035-.258 1.933-.621 3.544-1.195 5.432-.445 1.631-3-2.375-2.397 1.266.266 1.605.675 3.24.56 5.248-.058 1.217-.117 2.093-.428 3.19-.771.566-1.34.704-2.369.441-.531-8.66-.759-17.128-.761-25.596l.201-241.315c1.286-1.049 1.463-1.916.437-3.139-.388-1.295-.509-2.427-.487-3.875 4.379-1.533 5.71-.76 5.208 3.039-.375 2.836-.282 5.646-.283 8.464L30.49 324.65c0 1.663-.103 3.33.027 4.479l-.004-217.787.043-24.477c.016-1.472-.933-3.48 1.915-4.04 3.556 7.306 4.759 14.99 7.163 22.753.353 1.379.356 2.426 1.09 3.591.24 1.262.386 2.233.762 3.493.345.73.459 1.17.658 1.94zm329.089 43.721c.227-.834.365-1.276.458-2.066.254-1.114.306-1.927.457-3.03l.574-3.922c.358-1.467.196-2.642.627-4.05l1.573-7.873a9.33 9.33 0 0 1 .322-2.116c.264-1.079.435-1.822.552-2.947.174-1.176.198-2.01.535-3.094.247-.722.393-1.153.506-1.928l.384-3.073c1.356-2.182 1.101-4.433 1.505-6.91.231-1.174.269-2.007.591-3.09.263-1.029.428-1.766.556-2.884.331-2.202 1.094-3.917 1.529-6.078.269-.757.407-1.191.469-1.969.081-2.204.72-3.942 1.372-6.034.283-.752.464-1.173.62-1.947.13-1.174.128-2.028.645-3.082l1.929-7.157c-.282-1.231.531-1.796.648-2.851.276-.712.504-1.134.717-1.915l.315-2.042c.258-.765.459-1.192.635-1.977.215-1.149.242-1.985.593-3.066l4.503-13.902c.489-.676.897-.785 1.454-.3l.161 259.117-.163 5.432c-1.574 1.449-2.314 2.565-.389 4.224.347 2.248.431 4.305.389 6.788-1.741 1.432-1.651 2.68-.384 4.232.34.614.422 1.054.381 1.814-1.378 1.909-2.377 3.85-5.196 3.574-1.977-6.267-3.614-12.352-5.207-18.822 1.391-1.431.767-2.216-.501-3.166-3.257-7.928-3.776-16.223-5.711-24.594 2.889-1.096 1.374-3.333 1.766-4.403.068.632-.491 1.217-1.905 1.414-2.845-9.447-4.597-19.054-5.615-29.206.04-.878-.002-1.335-.19-2.119-1.514-7.312-1.959-14.407-2.479-21.891.565-1.201.795-2.016.084-3.158-.334-1.646-.469-3.027-.517-4.818.145-2.225.386-4.048-.261-6.151-.23-.745-.311-1.181-.331-1.95 1.403-10.74.819-21.167.172-31.971.031-6.416.281-12.454.463-18.954.02-.896.089-1.333.167-2.104.307-2.09.587-3.85.799-5.988.4-2.77-.033-5.208.394-7.999z" class="R"/><path fill="#fafafa" d="M192.348 55.977c-18.024-.855-35.14-4.946-52.183-9.292L78.283 30.303c-.661-.519-.762-.931-.428-1.626l255.594-.385c1.67 1.146 1.678 2.407.749 4.055-.707.416-1.123.546-1.867.669-1.2-.002-2.082-.05-3.105.689l-23.821 6.325c-.961-.004-1.503.089-2.239.534-3.979 1.181-7.716 2.222-11.825 3.279-.917.102-1.449.229-2.197.586-5.251 1.353-10.145 3.052-15.716 3.62-.984-.018-1.526.077-2.258.54-4.627 1.182-9.014 2.217-13.803 3.255a17.89 17.89 0 0 0-2.238.334c-1.281.331-2.301.611-3.719.879-.954-.039-1.495.02-2.265.348-1.289.277-2.323.451-3.752.603-.939-.016-1.476.035-2.258.271-1.939.285-3.619.495-5.723.681-.96.009-1.493.06-2.28.229l-9.674.859c-1.608-.05-2.764-.107-4.25.153l-22.629.273c-2.228-.702-4.071-.408-6.231-.498z"/><path d="M212.1 231.277l.946-6.836a8.81 8.81 0 0 1 .162-2.168c.61-2.98 1.152-4.39 3.892-1.604l53.629 54.035 46.709 46.164c1.657 1.652 4.984 3.472 3.896 5.735-1.13 2.35-4.788 1.532-7.386 1.564-3.69.046-6.691-1.9-9.413-4.104-22.835-18.494-46.962-35.288-70.171-53.291-4.426-3.433-9.621-5.875-14.798-8.829-1.893-.662-3.315-1.447-4.161-3.308-.133-1.233-.296-2.117-.63-3.292-.399-.782-.654-1.263-.722-2.084-.489-3.313-.973-6.356-1.642-9.791-.269-.85-.334-1.31-.389-2.121l.048-7.908c-.065-.899-.042-1.358.031-2.16zm33.084-52.091l72.897-72.738c.703-.701 1.371-1.483 2.196-2.006 1.568-.993 2.183-4.224 4.387-3.099 1.854.946 1.863 3.716 1.931 5.885.131 4.143-1.142 7.711-3.761 11.05-17.095 21.788-34.014 43.714-50.069 66.288-2.011 2.828-4.017 5.742-5.464 8.875-3.586 7.765-9.547 11.845-17.895 13.228-9.168 1.518-18.218 1.066-27.292-.471-.794-.134-1.781-.03-1.923-1.122-.185-1.425 1.133-1.892 1.918-2.683l23.072-23.206zm-81.847 25.876c-4.62-2.636-6.743-6.85-9.016-10.889-8.019-14.253-18.737-26.568-28.428-39.614a1514.88 1514.88 0 0 0-28.817-37.539c-3.194-4.031-2.938-8.331-2.488-12.761.341-3.359 2.165-3.936 4.613-1.486l26.019 26.105 46.918 46.745 26.805 26.702c.758.76 2.161 1.366 1.79 2.765-.422 1.592-1.954.918-2.957 1.001-11.403.947-22.828 2.376-34.439-1.03zm-44.956 68.36c12.821-17.377 27.014-33.326 37.377-52.027 2.522-4.551 5.982-7.39 11.461-8.518 10.284-2.118 20.454-2.461 30.729-.557 1.013.188 2.516-.229 2.84 1.372.264 1.302-1.088 1.543-1.73 2.185l-73.199 73.021-25.901 26.15c-1.31 1.327-2.592 2.829-4.668 2.026-2.062-.797-1.206-2.892-1.431-4.388-.538-3.573.258-6.813 2.545-9.821l21.977-29.443zm69.543-3.669c-2.894.996-4.557 3.124-6.765 5.024-.77.843-1.385 1.39-2.342 1.967-2.53.613-3.96 2.29-5.66 4.058-.762.797-1.35 1.354-2.277 1.944l-31.402 23.149c-8.57 6.53-16.888 13.391-25.348 20.068-4.076 3.217-8.846 2.491-13.415 1.867-3.419-.467-1.843-2.284-.448-3.68l28.887-28.888 38.736-38.723c12.164-11.997 23.841-24.496 36.688-35.794.611-.537 1.073-1.291 2.453-1.158l-.063 34.285c-.007.847-.917 1.687-1.69 2.8-.83.92-1.478 1.461-2.45 2.067-4.613 2.117-8.155 5.188-11.727 8.694-.685 1.428-1.6 2.063-3.177 2.32zm129.587 42.407l-54.463-55.018c-13.461-13.71-27.676-26.687-40.28-41.233-.709-.818-2.309-1.275-1.723-2.698.416-1.012 1.675-.788 2.67-.877 9.121-.809 18.231-1.044 27.394-.469 6.65.417 10.908 4.131 13.539 9.509 6.782 13.861 17.163 25.144 26.137 37.42l32.94 43.684c2.904 3.859 4.418 8.192 3.352 13.08-.257 1.18.532 2.997-1.219 3.418-1.462.351-2.274-1.091-3.192-2.028-.579-.591-1.195-1.147-2.088-1.89-1.342-.851-2.548-1.347-3.069-2.897zM202.578 161.416c4.678 7.037 7.456 14.302 6.419 23.136-.003 1.279.006 2.104-.224 3.218l-1.254 8.67c-.179 1.042.237 2.54-1.284 2.914-1.146.282-1.692-.793-2.384-1.485l-34.932-34.88-55.658-55.75c-1.75-1.757-3.376-3.663-4.868-5.644-.961-1.277-3.281-2.294-2.573-3.92.82-1.882 3.364-1.753 5.26-2.028 4.411-.639 8.206 1.026 11.521 3.75 19.881 16.337 40.892 31.186 61.493 46.57 5.526 4.127 12.319 6.585 16.319 13.064 1.221.484 1.719 1.272 2.166 2.384zM310.613 95.16l5.718 2.355c-4.459 6.549-10.551 11.453-15.94 16.947L250.44 164.45c-10.955 10.822-21.459 22.112-33.125 32.202-.817.707-1.345 2.222-2.755 1.648-1.427-.581-.721-2.055-.762-3.104l-.842-25.935c-.101-5.169 2.945-8.58 6.947-11.339 25.692-17.708 50.454-36.655 74.862-56.078 2.972-2.365 6.379-4.182 9.887-6.483 2.044-.397 3.786-.394 5.96-.203z" class="D"/><path d="M185.108 279.254l18.778-13.023c.854-.591 1.599-1.88 3.138-.558.637 1.036.779 1.805.332 2.985-.26 9.785-.553 19.227-.256 28.65.121 3.855-.761 6.305-4.81 7.643-.919.707-1.514 1.223-2.42 1.792-12.41 5.08-23.715 11.742-35.501 17.426-8.589 4.142-16.649 10.105-27.01 8.709-5.566-.75-11.105-1.699-17.781-2.733 10.173-9.623 21.008-16.637 31.303-24.794a8.34 8.34 0 0 1 2.203-2.097c3.332-1.061 5.358-3.51 7.958-5.578.258-.98.747-1.338 1.632-1.672 6.882-4.854 13.458-9.648 20.168-14.756.752-.837 1.342-1.393 2.266-1.994zm30.595-14.416l31.718 23.764 52.526 39.272c.504.378.862.951 1.669 1.863-13.074 3.063-25.361 5.339-37.821-1.629-13.56-7.582-27.649-14.219-41.833-21.36-1.283-.036-1.817-.77-2.732-1.454-4.109-1.322-5.582-3.632-5.439-7.878.351-10.48.134-20.98.202-31.937.456-.796.916-.929 1.711-.643zm-61.317-49.866l-53.677 72.142c-1.483 1.991-2.635 4.224-4.032 6.283-.86 1.268-2.003 2.328-3.689 2.147-2.099-.225-1.856-2.058-2.064-3.445l-1.633-11.851c-1.637-10.005 2.161-18.57 6.969-27.239-.081-1.619.651-2.555 1.599-3.735 2.603-4.515 4.93-8.81 7.296-13.44.837-1.974 1.425-3.708 2.529-5.573 2.857-5.052 5.781-9.708 8.03-14.67 1.133-2.5 2.507-3.044 4.911-3.02l32.957.215c.822.589.982 1.147.805 2.186zm150.359-63.753c6.394-6.85 11.182-14.538 16.754-21.618 1.884-2.393 2.956-5.981 7.278-5.879.925.93 1.234 1.719 1.211 2.954.114 1.721.221 3.117.503 4.897.417 1.169.502 1.978.559 3.099l1.058 10.669c.261 2.26-.331 4.273-1.427 6.577.095 1.318-.645 1.862-1.184 2.842l-22.748 45.192c-2.269 4.741-4.929 6.381-10.169 6.126-10.081-.491-20.203-.143-31.108-.143 6.015-11.667 15.241-20.236 21.056-31.196-.396-.477-.513-.67-.382-.633 1.935.937 2.515-.54 3.187-1.439l13.738-18.866c.176-1.233.959-1.696 1.674-2.584zm22.394 107.677c8.682 12.477 4.135 25.199 2.018 38.58-5.57-4.683-8.768-10.501-12.671-15.646l-46.746-62.518c-.298-.4-.756-.723-.931-1.164-.656-1.657-3.062-2.959-2.385-4.566.815-1.933 3.279-.745 4.963-.764l28.455-.064c2.658-.032 4.233.763 5.468 3.226l21.829 42.916zm-176.941-61.077c1.443 2.913 5.808 4.605 4.536 7.34-.819 1.761-5.175.481-7.937.506l-25.986.019c-2.035.003-3.711-.002-4.888-2.372l-24.235-47.954c-2.772-5.406-1.959-11.041-1.514-16.643.342-4.305 1.147-8.572 1.721-12.859.152-1.132-.094-2.61 1.298-2.941 1.372-.326 1.906 1.12 2.569 2.015l28.716 38.807 25.72 34.082zm-5.536-106.914c11.632-1.912 20.939 3.492 30.353 8.395l29.482 15.514c2.011 1.022 2.623 2.211 2.612 4.216l-.137 32.436c-.005.904.478 2.105-.844 2.532-1.113.359-1.81-.506-2.602-1.102L131.254 98.39c-1.268-.962-4.085-1.317-3.275-3.718.736-2.181 3.248-1.896 5.559-2.391 1.193-.25 2.006-.265 3.103-.459 1.7-.168 3.104-.269 4.897-.535 1.198-.255 2.011-.276 3.124-.381zm123.014.052c8.704-1.011 16.799.602 25.222 2.899.62.5.726.975.57 1.824-12.3 8.4-23.563 17.685-35.375 26.221-13.696 9.898-26.485 21.029-40.851 30.015-.817.511-1.491 1.643-2.498 1.277-1.456-.53-.77-2.012-.777-3.052l-.124-30.452c-.033-2.492.752-3.945 3.016-5.083l42.619-21.633c1.44-.725 3.191-.834 5.137-1.455 1.131-.439 1.941-.512 3.061-.561z" class="Q"/><path d="M364.356 33.155c-10.212 7.952-21.545 13.82-33.394 18.566-22.769 9.119-46.354 10.768-70.529 6.423 34.028-9.051 67.943-18.433 102.707-26.134.628.261.832.49 1.216 1.144zM158.18 58.538c-37.476 4.301-83.392-7.24-101.573-25.272 2.074-1.955 4.37-.985 6.521-.44l94.501 24.067c.711.481.853.899.551 1.646z" class="H"/><path d="M207.325 312.655l-.225 25.75c.021 2.753-.759 3.684-3.609 3.596-9.352-.291-18.434-2.498-27.665-3.617-4.781-.579-9.546-1.311-14.297-2.101-1.058-.176-2.432-.46-2.614-1.89-.126-.985.816-1.359 1.555-1.704 15.02-7.008 29.146-15.882 45.187-21.621 1.064.082 1.442.6 1.668 1.588zm43.961 25.393l-31.897 3.719c-4.295.589-5.833-.314-5.576-4.967.421-7.623.198-15.287.106-22.932-.035-2.933.583-4.141 3.689-2.584l41.823 20.85c1.193.599 3.229.962 2.766 2.952-.387 1.662-2.234 1.076-3.423 1.392-1.592.423-3.272.511-5.311.903-.897.334-1.387.541-2.176.666z" class="D"/><path d="M57.927 120.722l-.046 17.816c.105 1.277.122 2.098-.126 3.205l-1.045 6.768-.809.073-6.857-25.214c-.56-.823-.802-1.341-.556-2.245l-13.83-54.667c-.636-2.501-2.387-6.552-.381-7.322 2.701-1.037 3 3.357 4.314 5.321C49.266 80.41 56.65 97.596 57.603 117.534a8.69 8.69 0 0 1 .324 3.188z" class="G"/><path d="M56.713 271.753c4.36 34.256-4.417 65.014-23.053 93.666-1.336-4.676 14.912-73.004 22.028-93.159.365-.474.563-.618 1.025-.507z" class="L"/><path d="M326.224 243.838l-13.326-27.042c-1.494-3.047-.962-4.292 2.845-4.141 7.296.288 14.613.139 21.919.023 2.416-.038 3.781.37 3.383 3.249l-5.363 39.948c-.111.827-.261 1.759-1.199 1.954-1.2.249-1.767-.708-2.208-1.609l-6.05-12.381z" class="J"/><path d="M80.996 220.349c.022-7.471.022-7.485 7.301-7.52l16.454.002c4.951.054 5.274.635 3.063 4.996-.449.886-.929 1.756-1.377 2.988.559 1.412-.448 1.919-.992 2.931-5.396 8.009-8.47 16.86-13.071 24.917-1.624 2.844-3.034 5.795-5.769 9.051-2.254-12.046-3.949-23.388-5.192-35.253a8.23 8.23 0 0 1-.417-2.113z" class="D"/><path d="M339.937 203.8c-.252 2.005-1.44 2.035-2.637 2.037l-22.971.032c-2.061.008-3.538-.651-2.385-2.905 6.999-13.695 13.259-27.783 21.075-41.047l1.608.078 5.309 41.806z" class="J"/><path d="M380.32 330.621c2.553 11.626 7.04 22.43 7.747 34.835-16.98-18.078-28.64-64.992-21.975-90.561l14.228 55.725z" class="G"/><path d="M92.5 170.425l15.462 30.512c1.895 3.658 1.156 5.023-3.05 4.895-6.649-.202-13.309-.2-19.96-.064-2.406.049-3.207-.634-3.133-3.077.364-12.003 2.543-23.775 4.389-35.587.191-1.225.444-3.004 1.9-3.243 1.626-.268 1.788 1.623 2.43 2.673.691 1.13 1.209 2.366 1.962 3.892z" class="L"/><path d="M386.63 61.259l-11.86 48.812-6.941 27.034c-.472 1.813-1.124 3.579-1.694 5.366l-1.548-.231c0-5.039.409-10.117-.073-15.109-1.752-18.133 1.423-34.876 12.117-50.059 3.287-4.667 4.948-10.44 8.446-15.476.441-.895.956-1.042 1.553-.336z" class="H"/><path d="M207.049 87.08c-.013 5.966-.228 11.451.027 16.914.193 4.144-1.344 4.647-4.623 2.97l-27.89-14.235c-1.991-1.021-3.919-2.166-6.498-3.6 6.454-2.668 12.621-3.19 18.662-4.16 5.398-.867 10.871-1.288 16.252-2.235 3.472-.612 4.563.616 4.07 4.347z" class="D"/><path d="M245.739 87.211c2.435.646 4.718.258 6.83 1.887-2.917 3.04-6.845 4.019-10.24 5.698-8.147 4.029-15.955 8.754-24.52 11.962-2.728 1.022-3.977 1.145-3.907-2.311.123-6.14.082-12.287-.069-18.427-.075-3.054 1.16-3.549 3.937-3.086l27.969 4.277z" class="J"/><path d="M109.383 374.069a434.68 434.68 0 0 1-42.739 9.914c13.006-14.915 44.224-22.521 71.908-17.098l-29.169 7.183z" class="M"/><path d="M321.343 74.733c-5.437 5.674-10.849 10.535-18.518 12.499-7.467 1.913-14.506.999-21.583-1.291-.889-.288-2.087-.37-2.092-1.697-.003-.991.89-1.377 1.616-1.714 11.26-5.227 21.523-12.669 33.941-15.325 5.825-1.246 6.317-.879 6.91 5.325.176.931.105 1.416-.274 2.203z" class="J"/><path d="M121.339 88.805c-7.287-2.715-13.722-5.984-19.053-11.304-2.31-2.306-2.832-4.564-2.399-7.6.372-2.612 1.369-3.222 3.962-2.907 7.592.923 14.293 4.174 20.981 7.504l16.279 8.293c.652.946.713 1.745.043 2.845-5.264 1.159-10.248 2.015-15.655 2.992-1.524.345-2.633.386-4.158.177z" class="L"/><path d="M325.102 377.843l-42.167-10.958c15.681-7.035 60.461 3.573 73.298 17.441-11.362-.79-20.864-4.616-31.132-6.483z" class="M"/><path d="M273.521 341.473c7.965.601 14.306 4.141 20.548 7.997 2.923 1.806 5.993 3.376 9.252 5.196-5.076 1.808-51.903-3.981-66.885-8.548 12.206-1.622 24.221-4.599 37.085-4.645z" class="G"/><path d="M344.207 187.229c-1.36-7.838-1.605-15.83-3.765-23.266-4.275-14.717 1.765-26.289 9.661-37.577.858-1.227 1.405-3.017 3.991-3.522-.808 18.177-5.1 35.605-7.102 53.726.012.958-.089 1.481-.418 2.221l-1.508 8.177c-.257.388-.433.363-.859.241z" class="H"/><path d="M180.039 347.157c-20.982 4.114-41.802 7.028-62.782 8.526-.472-1.801.803-1.957 1.575-2.356 4.273-2.21 8.737-4.094 12.845-6.571 8.348-5.034 17.057-6.875 26.724-4.859 6.817 1.422 13.783 2.129 21.086 3.226 1.085.535 1.104 1.162.551 2.033z" class="G"/><path d="M68.52 309.512l11.566-22.47c.615-1.159 1.109-3.245 3.032-2.743 1.654.432.78 2.29 1.079 3.486.361 1.444.216 3.038.701 4.424 3.818 10.893-1.172 19.351-7.517 27.408-1.005 1.277-2.297 2.615-3.748 3.193-2.864 1.141-6.267 1.156-8.578-.669-2.099-1.658-.027-4.304.664-6.397.672-2.034 1.729-3.941 2.801-6.231zm275.644-15.765l11.001 22.158c.949 1.953 3.278 4.268.845 6.209-2.341 1.868-5.593 2.654-8.391.678-6.12-4.321-10.871-9.881-12.118-17.452-.981-5.953.638-11.879 1.776-17.738.208-1.069.578-2.503 1.958-2.575 1.14-.059 1.368 1.216 1.78 2.1l3.148 6.62z" class="H"/><path d="M75.974 137.069c4.694 8.235 6.312 16.686 4.995 25.696-1.064 7.277-2.151 14.551-4.31 21.861-3.832-19.721-7.192-39.39-8.234-59.563 3.685 3.202 4.866 7.875 7.548 12.006z" class="G"/><path d="M81.546 134.581l-14.002-28.317c-1.824-3.519-.844-4.692 2.708-5.192 7.676-1.079 14.984 4.552 16.307 13.067 1.061 6.825-.586 13.509-1.837 20.165-.369 1.962-1.576 2.513-3.175.277z" class="H"/><path d="M337.299 135.106c-1.325-6.501-2.98-12.786-2.8-19.358.268-9.842 7.266-15.871 16.896-14.526 2.845.397 3.895 1.079 2.448 4.102-4.581 9.575-9.1 19.175-14.626 28.663-.656.579-1.018 1.128-1.917 1.118z" class="L"/><path d="M344.82 238.799c3.091 18.648 7.073 36.991 8.391 56.757-3.194-2.539-3.671-5.579-5.289-7.791-8.616-11.782-8.461-24.705-5.621-38.12.687-3.244 1.017-6.564 1.612-10.244.277-.512.451-.629.906-.601z" class="M"/><path d="M304.156 336.076c6.606-.276 11.964 1.388 15.825 6.504.789 1.045 1.668 2.198 1.936 3.426.638 2.927 1.422 6.456-.776 8.587-2.051 1.989-4.646-.582-6.725-1.608-7.282-3.593-14.434-7.452-21.607-11.264-.979-.52-2.463-1-2.259-2.362.221-1.478 1.797-1.115 2.879-1.323l10.727-1.959z" class="L"/><path d="M110.684 350.777c-1.541.73-2.732 1.712-3.952 1.748-2.351.071-5.071 3.937-6.89.297-1.7-3.401-2.082-7.454 1.27-10.585 4.272-3.991 9.237-6.424 15.224-6.039 4.129.266 8.25.717 12.358 1.219 1.062.13 2.559.083 2.906 1.459.457 1.812-1.343 2.149-2.375 2.679l-18.542 9.223z" class="H"/><path d="M33.002 82.652c-3.292 1.242-1.939 3.912-1.943 5.783l-.063 122.969v113.472 4.903l-.995.033v-4.978l-.033-240.44c-.001-2.399 1.163-5.846-3.862-5.36-.537-6.315-.688-12.642-.806-19.41.283-.878.659-1.085 1.446-.856 1.432 4.978 2.58 9.75 3.754 14.887-.518 1.343-.533 2.267.567 3.239.847 1.89 1.423 3.648 1.933 5.759z" class="J"/><path d="M77.903 277.884c-2.87 4.952-4.457 10.235-8.767 14.069 1.238-17.159 3.701-34.072 7.653-50.864 1.096 12.192 8.796 24.055 1.114 36.795z" class="M"/><path d="M247.003 65.335l25.305-.024.168 1.29-17.458 2.823c-12.319 1.852-24.644 3.678-37.083 4.541-1.421.099-3.487 1.619-4.001-1.159-.426-2.303.735-3.679 2.971-4.425a55.15 55.15 0 0 1 16.627-2.841l13.47-.205z" class="K"/><path d="M186.631 72.384l-37.897-5.647.048-1.137 8.59.001 29.872.052c6.031.017 11.836 1.184 17.555 3.115 2.111.712 2.42 1.908 2.32 3.709-.127 2.29-1.747 2.071-3.241 1.904l-17.247-1.995z" class="H"/><path d="M70.673 235.754l-5.753 36.781-1.268-.031.066-27.714c.269-8.49 1.93-16.84 3.774-25.122.391-1.757 1.264-3.415 1.985-5.088.433-1.004 1.311-1.599 2.388-1.428 1.424.226 1.009 1.436.995 2.364-.1 6.666-1.126 13.235-2.188 20.239zm80.444-154.505c-5.942-2-10.561-5.477-15.295-9.087 15.744.454 31.181 2.785 46.451 6.83-10.222 1.861-20.264 5.037-31.156 2.257z" class="M"/><path d="M284.155 73.726c-13.883 10.917-29.057 9.758-44.992 5.576 1.999-3.004 5.188-2.806 7.869-3.147l35.5-4.042c1.078.229 1.551.635 1.623 1.614z" class="G"/><path d="M356.277 273.199l-7.625-56.167c-.173-1.315-1.498-3.298.354-3.939 1.988-.687 2.067 1.614 2.59 2.892 3.751 9.159 5.922 18.726 6.318 28.575.381 9.475.118 18.976.087 28.929-.755.94-1.187.518-1.725-.29zm.121-182.725c-1.426-1.993-3.294-3.628-1.296-5.945 6.717-7.788 11.88-16.8 19.082-24.203.316-.325.81-.477 1.249-.725 1.32 1.029.659 2.303.242 3.122l-14.074 27.392c-1.712 3.546-3.032 2.627-5.203.359zM67.618 199.297c-5.099-15.543-3.795-31.173-3.211-46.776 2.598 17.428 7.32 34.572 7.456 53.203-3.046-1.912-3.224-4.196-4.245-6.427zm-6.559-106.92c-5.756-10.49-11.128-20.882-16.503-31.274-.401-.775-.703-1.662.176-2.175.889-.519 1.476.24 1.993.922l18.532 24.496c3.653 4.907-1.291 6-4.197 8.03zm294.303 64.807c.939-2.631.149-5.423 1.77-8.099 2.85 9.845.029 34.254-6.046 53.533-.471.718-.897.861-1.653.543 1.493-12.64 3.25-25.03 4.991-37.423.275-1.959.48-3.928.655-6.313-.06-.957.006-1.484.283-2.241zm-3.158 214.517l-17.088-8.827c-1.322-.722-4.289-1.184-2.619-3.684 1.259-1.883 3.203-4.416 6.078-2.341 7.103 5.125 14.067 10.44 21.08 15.688.793.593 1.802 1.289 1.155 2.395-.677 1.158-1.8.478-2.623.058-1.918-.976-3.769-2.084-5.982-3.29zm-273.458-4.985c-5.732 2.622-10.763 5.92-17.049 7.54.204-2.253 1.673-2.997 2.87-3.907l15.912-12.018c1.319-.974 2.801-1.868 4.348-2.359 2.606-.827 4.026 1.014 5.088 2.979 1.321 2.443-1.11 2.72-2.335 3.4-2.758 1.532-5.655 2.814-8.834 4.366z" class="K"/><path d="M69.439 64.555c-2.296-2.466-5.234-3.95-6.192-7.097 1.384-.99 2.471-.456 3.394.225l15.017 11.261c1.29.99 2.866 2.311 1.263 4.068-1.371 1.502-3.35 1.676-4.896.216-2.871-2.709-5.563-5.607-8.585-8.673zm290.715 267.394c4.923 5.927 8.091 12.578 10.022 19.863-5.016-4.184-9.007-9.006-12.013-14.639-1.276-2.392-.943-4.069 1.991-5.224z" class="I"/><path d="M244.662 357.426l-6.255-2.238c10.293-1.544 20.022.962 31.14 2.474-5.751 1.89-14.538 1.687-24.884-.237z" class="F"/><path d="M64.575 335.551l-10.393 13.8c-.626.815-1.117 2.437-2.595 1.371-.972-.701-.422-1.837.04-2.722 2.372-4.549 4.634-9.164 7.204-13.599 2.118-3.654 3.392-3.397 5.744 1.15z" class="I"/><path d="M68.152 77.909c-3.15-4.66-7.68-8.006-8.748-13.675 5.884 4.238 10.87 9.333 15.704 14.584.579.629.742 1.6-.228 2.088-1.08.543-2.149 1.87-3.512.536-1.055-1.033-2.045-2.135-3.217-3.533zM358.57 348.394c1.851 2.803 6.098 6.353 4.382 7.671-2.599 1.995-4.474-2.827-6.664-4.628-2.387-1.963-4.194-4.646-6.173-7.081-.952-1.17-1.031-2.464.312-3.468 1.396-1.044 2.262-.489 3.166.893 1.441 2.204 3.149 4.234 4.977 6.613z" class="F"/><path d="M349.297 75.285l10.976-10.715 1.091.953c-2.66 6.087-7.471 10.691-11.808 15.613-.598.679-1.621.785-2.162-.01-.522-.766-1.165-2.001-.882-2.645.5-1.132 1.665-1.971 2.785-3.197z" class="I"/><path d="M68.087 347.046l-5.77 5.892c-.696.698-1.474 1.542-2.495.63-1.028-.918-.212-1.808.338-2.58 2.001-2.808 4.148-5.517 6.039-8.396 1.417-2.157 3.738-2.266 5.043-1.135 1.805 1.564-.745 2.664-1.558 3.891-.358.539-.904.953-1.597 1.698z" class="F"/><path d="M81.558 61.374c-1.816-2.235-6.631-2.946-5.445-5.024 1.657-2.904 4.497 1.036 6.959 1.515 2.277.443 4.27 2.342 6.389 3.597 1.408.833 2.489 1.942 1.337 3.557-.973 1.364-2.364 1.616-3.842.436l-5.399-4.081z" class="I"/><path d="M343.364 91.146c-1.015 1.417-1.853 2.451-3.409 2.331-1.928-.149-4.455.745-5.523-1.251-1.406-2.627 1.732-3.509 2.919-5.08 1.018-1.346 2.194-3.304 4.427-1.745 1.889 1.319 3.278 2.921 1.585 5.744z" class="K"/><path d="M316.281 86.228l1.998-1.229c1.359-.769 2.798-2.993 4.106-1.855 1.719 1.496 1.886 4.205 1.312 6.504s-2.707 1.258-4.203 1.439c-.798.097-1.638-.155-2.459-.243-1.304-.14-3.129.069-3.551-1.218-.553-1.687 1.213-2.454 2.798-3.398z" class="I"/><path d="M369.063 193.447c1.548-.212 1.932.749 1.929 2.042l-.073 27.638c-.004.549-.57 1.094-1.247 1.762-1.14-10.241-.732-20.617-.609-31.442z" class="D"/><path d="M344.961 353.923c-1.928-1.284-4.335-2.22-2.232-4.658 1.961-2.273 3.131.133 4.314 1.319 3.222 3.231 6.987 5.992 10.158 11.331-5.697-1.737-8.393-5.485-12.24-7.992z" class="F"/><path d="M180.263 355.756c-7.361 2.826-14.832 2.929-22.742 3.026-.836-.343-.994-.741-.732-1.495 7.559-1.182 14.9-2.095 22.645-3.04.839.261 1.034.674.83 1.509z" class="L"/><path d="M67.712 359.447c-1.71-.041-2.2-.766-1.224-1.8 2.605-2.758 5.18-5.581 8.073-8.013 1.287-1.082 3.698-1.794 4.914-.08 1.15 1.62-.955 2.517-2.071 3.326-3.071 2.226-6.23 4.331-9.692 6.567z" class="I"/><path d="M200.191 358.719c.3-3.106 2.914-1.813 4.479-2.125 5.48-1.09 10.999-.973 16.243 2.318-6.793 0-13.586 0-20.722-.193z" class="F"/><path d="M337.594 342.902c-1.64 3.276-3.87 2.989-5.911 1.332-2.425-1.968-2.005-4.805-1.102-7.331.524-1.465 1.944-.91 2.918-.155 1.97 1.525 3.874 3.133 4.095 6.154z" class="I"/><path d="M85.012 344.8c-2.277-1.758-2.561-3.378-.429-5.012 1.722-1.32 2.808-4.27 5.468-3.262 1.389.526 1.968 2.79 1.353 4.446-1.012 2.726-2.595 4.977-6.393 3.829z" class="K"/><path d="M333.01 60.924c3.86-2.103 7.213-4.554 12.84-4.392-4.255 3.269-7.321 6.169-11.311 7.839-1.198.501-2.66 1.523-3.607.136-1.209-1.77.543-2.581 2.077-3.583z" class="N"/><path d="M389.744 344.398c2.456-.023 2.118-3.928 5.049-3.426.476 3.707.569 7.436.522 11.597-.75 1.014-1.446 1.137-2.59.72-2.03-2.662-2.217-5.683-2.982-8.891z" class="D"/><path d="M98.085 85.361c.217-1.439.527-2.504 1.899-1.888 1.199.538 2.441 1.192 3.354 2.105 1.303 1.303 5.242 1.726 3.122 4.298-1.681 2.04-5.47 1.737-8.008.829-2.042-.731-.178-3.259-.367-5.344z" class="I"/><path d="M222.827 366.889c-8.186.414-16.574.522-25.411.48.053-1.23 1.003-1.402 2.04-1.356 7.719.342 15.474-.76 23.371.877z" class="E"/><path d="M84.765 93.26c-1.745-.032-3.137.195-4.347-.173-1.694-.516-2.554-2.006-2.752-3.76-.223-1.974 1.33-2.537 2.723-2.959 3.418-1.037 4.254 2.411 6.097 3.915 1.552 1.266.715 2.637-1.721 2.977z" class="K"/><path d="M351.28 62.809c-3.018 3.272-5.795 6.185-8.736 8.923-1.225 1.14-2.942 2.037-4.316.246-1.503-1.959.764-2.585 1.71-3.335 3.351-2.658 6.869-5.106 10.646-7.79.784.313.967.875.697 1.957z" class="G"/><path d="M332.608 324.193c-.055-1.175-.154-2.027.03-2.813.359-1.537-.539-3.879 1.169-4.464 1.945-.666 2.164 1.99 3.27 3.048 1.166 1.115 2.576 2.845 1.307 4.293-1.467 1.675-3.711 1.67-5.776-.064zm-243.801-1.304c-1.245 4.018-3.795 1.877-5.665 1.427-1.495-.36-1.026-1.943-.216-2.859 1.339-1.513 1.583-4.694 4.367-4.084 2.832.62 1.101 3.33 1.514 5.516zm-14.192 9.438c.766-.678 1.276-1.321 1.83-1.362 1.682-.123 4.303-.942 4.734.817.482 1.965-1.418 4.38-3.403 4.731-2.068.366-4.084-.976-3.161-4.186z" class="I"/><path d="M333.867 76.882c2.524 2.722.084 3.763-1.234 4.944-.893.8-2.417.886-3.083-.168-.889-1.408-.895-3.269-.111-4.723 1.042-1.933 2.657-1.482 4.429-.053z" class="K"/><path d="M344.153 336.3c-1.049-.239-1.774-.341-2.253-.739-1.276-1.058-2.88-2.528-1.669-4.07.974-1.24 3.252-.834 4.703-.309 2.069.748 1.591 2.557.722 4.112-.228.407-.705.676-1.503 1.005z" class="I"/><path d="M88.547 82.252c-1.764-1.821-1.874-3.519-.307-4.977.862-.802 2.313-.829 3.231-.084 1.785 1.45.618 3.43.28 5.031-.472 2.232-1.854.995-3.203.031z" class="F"/><path d="M209.985 318.269v17.376l-.617.005v-22.779c1.101 1.718.398 3.381.617 5.398z" class="E"/><path d="M334.269 32.686c-.343-1.238-.324-2.422-.334-3.963 1.095-.451 2.219-.545 3.748-.506 1.14.648 2.032.991 2.323 2.275-1.493 1.898-3.619 1.556-5.737 2.194z" class="F"/><path d="M29.236 349.707c-1.685-1.921-2.926-4.188-1.597-6.888.296-.601-.002-1.875 1.037-1.659.552.115.897 1.222 1.635 2.07.454 2.288-.116 4.251-1.075 6.477z" class="G"/><path d="M378.127 294.885c2.071-1.167 1.627-3.253 2.221-4.957 1.702 6.363 1.702 6.363-1.152 7.47-.672-.894-.912-1.588-1.069-2.513z" class="D"/><path d="M371.013 158.094c1.326 2.306.377 4.732-.043 7.513-1.473-2.213-1.252-4.779.043-7.513z" class="C"/><path d="M395.263 356.562c1.014 2.184.923 4.137.251 6.571-2.454-1.504-2.312-3.55-2.646-5.702.63-.977 1.298-1.166 2.395-.87z" class="P"/><path d="M209.034 91.051c2.17 3.938.384 8.406-.021 12.809l.021-12.809z" class="E"/><path fill="#fcfcfc" d="M340.304 30.848c-.595-.981-2.213-.664-2.176-2.214 1.623-.318 3.287-.353 5.362-.325.791.349.978.724.735 1.469-1.331.54-2.452.814-3.921 1.07z"/><path d="M25.644 353.427c.696-.353 1.258-.373 2.24-.377.012 1.722-.397 3.428-.951 5.48-.359.757-.697.897-1.294.528-.144-1.949-.137-3.623.006-5.63z" class="G"/><path d="M180.11 347.483c-.319-.684-.273-1.216-.223-2.019 1.812-.779 3.454-.53 5.126.57-1.288 1.933-3.001 1.491-4.903 1.449z" class="O"/><path d="M384.126 322.306c1.753-.308 3.845-.161 4.202 1.549.322 1.544-1.652.918-3.023 1.14-.658-.791-.951-1.583-1.179-2.69z" class="D"/><path d="M357.269 207.15c1.211 1.871.979 3.798.454 6.091-2.501-1.917-1.929-3.941-.454-6.091z" class="N"/><path d="M86.879 100.111c1.165-.387 2.409-1.147 2.669.319.189 1.067-.266 2.465-1.851 2.311-1.544-.15-1.941-1.076-.818-2.63z" class="O"/><path d="M395.57 356.354c-.634.493-1.286.609-2.273.707-.536-1.042-.736-2.067-.937-3.484.703-.451 1.406-.509 2.462-.572.479.988.604 1.98.748 3.349z" class="R"/><path d="M192.33 56.181c1.564-1.684 3.519-1.308 5.648-.121-1.667.93-3.496.465-5.648.121z" class="F"/><path d="M44.379 289.803c-.794-.046-1.314-.318-2.105-.695-.08-1.667-1.042-4.221 2.63-3.037.143 1.195-.054 2.351-.525 3.733z" class="M"/><path d="M395.314 327.605c-1.397.307-2.912.591-3.188-1.215-.253-1.654.679-2.366 2.655-2.372.487 1.063.578 2.133.532 3.587z" class="D"/><path d="M310.894 94.946c-1.599.329-3.347.376-5.517.305 1.366-2.034 3.353-1.477 5.517-.305z" class="B"/><path d="M369.322 227.367c2.817 1.028 1.627 3.186.88 5.435-1.281-1.43-.733-3.293-.88-5.435z" class="D"/><path d="M383.048 97.039c-.085 1.712-.468 3.53-1.051 5.632-1.86-1.978.053-3.651 1.051-5.632zm-1.826 7.991c.48 1.874-.267 3.631-1.153 5.67-1.225-1.933-.153-3.75 1.153-5.67z" class="C"/><path d="M317.222 311.871c1.205.79 2.069 1.605 2.999 2.717-1.684.492-3.031-.512-4.437-1.278-.357-.194-1.483-.541-.331-1.209.386-.224.947-.146 1.769-.231z" class="E"/><path d="M395.314 338.606c-1.926.396-2.737-.835-2.907-2.285-.151-1.29 1.111-1.238 2.407-1.307.454 1.067.546 2.138.5 3.592z" class="D"/><path d="M180.448 356.173c-.428-.511-.482-.922-.573-1.645 1.415-.485 2.867-.657 4.756-.755.549.263.662.453.631.94-1.356 1.467-2.92 1.437-4.814 1.46z" class="P"/><path d="M156.599 356.941c.439.46.469.841.489 1.51-1.641.743-3.252.676-5.047.257.759-2.46 2.789-1.377 4.558-1.767z" class="N"/><path d="M184.745 367.644c-1.212.464-2.644.683-4.426.774.826-2.17 2.546-1.443 4.426-.774zm3.146-97.662c.592-.837 1.497-1.501 2.738-2.211.253 1.165.813 2.659-.216 3.488-.966.778-1.475-.68-2.522-1.277z" class="E"/><path d="M53.283 157.8c-.664-1.275-1.097-2.735-1.458-4.517 1.489.924 1.881 2.527 1.458 4.517z" class="B"/><path d="M32.33 337.781c-1.221.082-2.247-.112-2.109-1.487.107-1.068 1.01-1.153 2.169-1.314.281.846.216 1.699-.059 2.801z" class="G"/><path d="M107.539 230.055c-.344 1.652-1.046 3.368-2.046 5.264-.278-1.851-.062-3.809 2.046-5.264zm-49.53.861c-.251-1.01-.23-2.146-.033-3.577 1.383.914 1.311 2.167.033 3.577z" class="B"/><path d="M215.328 258.684c1.262.609 2.418 1.617 3.737 2.915-1.967.489-3.705.132-3.737-2.915z" class="C"/><path d="M207.481 269.004c-.4-.759-.471-1.521-.412-2.649 1.334-.255 2.45.127 2.519 1.506.055 1.111-1.018 1.004-2.107 1.143z" class="E"/><path d="M121.049 88.993c.997-.358 2.114-.452 3.629-.395-.701 1.899-2.051 1.688-3.629.395z" class="C"/><path d="M323.745 334.432c.642 1.357.354 2.176-.901 2.235-.835.039-1.701-.437-1.604-1.356.133-1.267 1.221-1.235 2.505-.878z" class="P"/><path d="M284.346 74.032c-.605-.474-.884-.941-1.279-1.658 1.099-1.018 2.629-1.488 3.39-.138.615 1.09-1.065 1.276-2.111 1.796z" class="O"/><path d="M351.429 63.098c-.364-.424-.404-.99-.484-1.98.755-1.376 1.793-3.125 2.871-1.552.977 1.426-1.366 2.209-2.387 3.532z" class="K"/><path d="M373.162 145.013c.177 1.076.055 2.226-.299 3.635-1.308-1.084-1.229-2.356.299-3.635z" class="C"/><path d="M221.201 56.445c.641-1.809 2.015-1.461 3.616-.674-.832 1.256-2.111.737-3.616.674zm123.16-26.327c-.39-.443-.435-.813-.47-1.463 1.237-.636 2.855-1.354 3.198.437.206 1.077-1.497.841-2.728 1.026z" class="F"/><path d="M33.976 330.763c-2.255-1.094-2.243-1.17.56-2.751.095.814-.124 1.656-.56 2.751z" class="G"/><path d="M336.779 135.172c.759-.354 1.277-.527 2.061-.77.171 1.024.264 2.312-1.262 2.436-.933.076-1.465-.45-.799-1.667z" class="B"/><path fill="#fafafa" d="M25.66 83.426c.953-.281 1.844-.295 2.087.738.238 1.01-.357 1.499-1.594 1.792-.447-.698-.539-1.438-.493-2.531z"/><path d="M112.784 378.642c-.621.444-1.415.667-2.513.788.195-1.515 1.136-1.646 2.513-.788z" class="E"/><path d="M350.893 94.791c-.796 1.013-1.437 1.056-1.804.022-.234-.66.025-1.279.716-1.445.809-.195 1.015.474 1.088 1.424zm33.467-2.789c.17.794.043 1.634-.303 2.718-1.343-.821-1.258-1.792.303-2.718z" class="C"/><path d="M158.309 58.9c-.355-.496-.343-.89-.324-1.578 1.042-.312 2.5-.727 2.727.611.231 1.359-1.22.921-2.403.967z" class="N"/><path d="M136.772 91.542c-.639.419-1.443.627-2.546.71.307-1.358 1.265-1.405 2.546-.71z" class="C"/><path d="M267.819 90.703c-.645.423-1.451.612-2.561.695.25-1.521 1.211-1.599 2.561-.695z" class="B"/><path d="M144.808 90.643c-.657.386-1.471.549-2.583.594.349-1.369 1.307-1.406 2.583-.594zm-3.607-4.689c-.144-.756.042-1.498.239-2.628 2.082.567 2.069 1.579-.239 2.628z" class="C"/><path d="M40.612 304.879c-1.834-.787-2.124-1.794.119-2.828.275.841.201 1.721-.119 2.828z" class="M"/><path d="M97.728 335.772c-.153-1.416.475-1.959 1.597-1.566.283.099.604.814.511 1.129-.271.923-1.024 1-2.108.437z" class="P"/><path d="M58.414 195.739c-.459-.641-.684-1.49-.765-2.569 1.312.342 1.509 1.235.765 2.569z" class="B"/><path d="M147.771 371.601c-.618.435-1.408.653-2.501.773.211-1.469 1.152-1.579 2.501-.773z" class="E"/><path d="M31.348 76.628c-1.862.164-3.085-.388-1.125-2.505.581.635.858 1.372 1.125 2.505z" class="R"/><path d="M389.173 72.998c.191.785.103 1.633-.215 2.708-1.281-.793-1.141-1.747.215-2.708z" class="C"/><path d="M58.152 120.88c-.386-.68-.524-1.51-.519-2.633 1.537.366 1.586 1.327.519 2.633zm-6.712 28.862c-.561-.58-.895-1.355-1.184-2.448 1.645-.068 2.007.838 1.184 2.448zm6.508-7.802c-.293-.738-.317-1.579-.151-2.682 1.409.592 1.477 1.54.151 2.682z" class="B"/><path d="M329.299 33.963c-.109-1.766.845-2.07 2.5-1.187-.589.568-1.381.903-2.5 1.187z" class="F"/><path d="M331.305 134.813c-.443-.643-.655-1.45-.753-2.557 1.505.241 1.664 1.181.753 2.557z" class="B"/><path d="M371.951 153.032c.218.739.191 1.581-.071 2.652-1.229-.718-.986-1.64.071-2.652zm4.21-24.021c.175.759.076 1.592-.219 2.677-1.264-.755-1.084-1.7.219-2.677zm.872-4.987c.218.74.177 1.575-.046 2.671-1.235-.672-1.122-1.62.046-2.671z" class="C"/><path d="M330.249 126.814c-.567-.607-.879-1.403-1.155-2.528 1.711-.067 2.227.793 1.155 2.528z" class="B"/><path d="M240.888 367.892c-.705.315-1.578.358-2.663.233.572-1.231 1.481-1.294 2.663-.233z" class="E"/><path d="M57.073 240.92c-.259-.705-.273-1.53-.132-2.625 1.256.572 1.285 1.501.132 2.625z" class="B"/><path d="M370.046 238.372c2.123.096 2.619.993.597 2.571-.436-.686-.567-1.44-.597-2.571z" class="D"/><path d="M379.147 114.008c.171.762.071 1.598-.248 2.674-1.249-.783-1.022-1.719.248-2.674z" class="C"/><path d="M40.887 109.131c-1.08-.379-1.213-1.468-1.187-2.873 1.413.284 1.343 1.409 1.187 2.873z" class="B"/><path d="M73.779 388.652c-.602.527-1.389.82-2.487 1.035.018-1.663.934-1.962 2.487-1.035z" class="E"/><path d="M77.739 28.305c.319.513.277.887.22 1.546-1.118.363-2.585.479-2.717-.808-.14-1.369 1.334-.722 2.497-.737z" class="F"/><path d="M332.521 100.894c.425-1.152 1.053-1.673 1.837-1.001.68.583.641 1.516-.025 2.07-.804.669-1.406.106-1.812-1.069z" class="O"/><path d="M208.97 187.968c-.301-.754-.336-1.611-.15-2.713 1.414.628 1.418 1.584.15 2.713zm6.977 76.794c-.393.325-.824.326-1.576.291-1.003-.417-1.325-1.074-.673-1.546 1.059-.767 1.807-.18 2.249 1.255z" class="C"/><path d="M356.083 273.264c.512-.097.967.157 1.646.55.462.807.484 1.681-.235 1.777-1.379.185-1.351-1.026-1.411-2.327z" class="P"/><path d="M207.536 312.783c-.519-.321-.819-.848-1.321-1.604.147-.836.694-1.106 1.251-.666.681.537.563 1.323.07 2.271z" class="C"/><path d="M55.053 251.873c-.143-.912.02-1.992.426-3.306.487.929.843 2.105-.426 3.306zm42.681-2.765c-.028 1.012-.457 2.077-1.169 3.351-.453-1.116-.992-2.552 1.169-3.351z" class="B"/><path d="M154.572 215.309c-.374-.472-.424-1.032-.5-2.013 2.67-.513 1.896.652.5 2.013z" class="F"/><path d="M99.787 381.607c-.315.51-.783.817-1.53 1.044-.103-1.004.2-1.746 1.53-1.044zm-17.929 5.138c-.375.41-.878.609-1.635.693.036-1.04.485-1.614 1.635-.693zm10.931-3.146c-.327.45-.802.705-1.548.905-.078-.985.288-1.638 1.548-.905zm210.183-6.318c-.486.191-1.024.127-1.758-.139.482-1.17 1.116-1.126 1.758.139zm-20.037-4.361c-.437.251-.965.288-1.698.147.318-1.032.916-1.163 1.698-.147zm-5.984-.921c-.446.222-.97.219-1.703.042.358-1.08.969-1.118 1.703-.042zm-6.994-.969c-.458.217-.988.206-1.713-.004.405-1.106 1.018-1.086 1.713.004zm-115.135-.318c-.388.358-.933.495-1.667.516.186-.847.683-1.242 1.667-.516z" class="E"/><path d="M251.152 338.305c.37-.469.868-.717 1.64-.864.058 1.116-.436 1.626-1.64.864z" class="C"/><path d="M252.935 368.933c-.431.254-.954.289-1.697.167.284-1.062.883-1.217 1.697-.167z" class="E"/><path d="M25.368 359.079c.39-.529.682-.562 1.208-.299.042.661.007 1.6-.325 1.72-.789.286-.961-.466-.883-1.42z" class="O"/><path d="M185.388 354.97c-.291-.152-.312-.346-.327-.831.433-.832 1.019-1.149 1.425-.444.39.677-.201 1.049-1.098 1.275z" class="E"/><path d="M293.606 95.985c-.262-.43-.254-.902-.276-1.726 1.35-.009 2.07.521.276 1.726z" class="B"/><path d="M349.108 203.214c.465-.28.863-.258 1.562-.235.077.515-.018 1.303-.397 1.478-.638.295-1.065-.29-1.165-1.243z" class="O"/><path d="M346.738 179.022c-.235-.532-.203-1.102.066-1.841 1.32.51 1.139 1.164-.066 1.841zm23.094-6.92c.261.441.286 1.003.143 1.709-.914-.351-.931-.935-.143-1.709z" class="C"/><path d="M55.232 168.876c-.367-.395-.524-.907-.549-1.669 1.047.105 1.467.632.549 1.669zm-.845-6.069c-.37-.347-.537-.832-.74-1.584.929-.061 1.501.37.74 1.584z" class="B"/><path d="M202.634 161.365c-.668-.271-1.212-.935-1.83-1.918 1.216-.379 2.01.107 1.83 1.918zm152.555-4.38c.271.518.283 1.089.061 1.84-1.32-.429-1.214-1.09-.061-1.84z" class="C"/><path d="M329.674 154.929c-.042-.664.26-1.425.788-2.405.492.753.576 1.677-.788 2.405zm-25.075-3.887c-.05.682-.457 1.423-1.155 2.311-.423-.878-.32-1.795 1.155-2.311z" class="B"/><path d="M375.103 135.004c.239.485.241 1.04.023 1.785-1.229-.424-1.059-1.063-.023-1.785z" class="C"/><path d="M47.459 132.779c-.442-.336-.692-.813-.866-1.558 1.009-.06 1.536.385.866 1.558zm-1.695-6.391c-.47-.4-.839-1.119-1.113-2.135 1.088.079 1.347.843 1.113 2.135zm2.547-5.433c.455.437.605.972.669 1.78-1.22.002-2.378-.258-.669-1.78zm-5.889-6.158c-.396-.345-.603-.827-.758-1.576.94-.008 1.46.444.758 1.576zm14.841 69.071c-.329-.396-.453-.906-.467-1.662.972.141 1.385.667.467 1.662z" class="B"/><path d="M386.87 82.118c.187.603.109 1.387-.194 2.381-.642-.623-.713-1.434.194-2.381zm1.084-4.11c.212.456.2.988.012 1.732-1.141-.381-.929-1.011-.012-1.732z" class="C"/><path d="M321.406 75.024c-.196-.462-.129-.949.135-1.75 1.643.415 1.502 1.091-.135 1.75z" class="B"/><path d="M386.706 61.366c-.429.214-.748.088-1.326-.075-.257-.771-.426-1.696.692-1.668.838.021.688.825.635 1.743z" class="C"/><path d="M395.565 59.046c-.531.355-.834.247-1.331-.036-.298-.796-.491-1.744.679-1.733.847.008.766.841.652 1.769z" class="P"/><path d="M27.092 58.617c-.433.42-.806.482-1.468.554-.535-.786-.704-1.612.311-1.962.876-.302 1.025.448 1.158 1.408z" class="O"/><path d="M235.129 55.393c.085-1.126.702-1.407 1.745-.673-.421.419-.953.62-1.745.673zm8.009-.89c.06-1.134.667-1.459 1.744-.737-.416.443-.948.664-1.744.737zm6.035-.921c-.028-1.129.562-1.497 1.711-.759-.391.426-.909.629-1.711.759zm5.964-1.226c.052-1.087.668-1.362 1.71-.718-.4.42-.92.632-1.71.718zm16.093-3.538c-.165-1.224.317-1.814 1.661-.995-.37.525-.865.801-1.661.995zm17.953-4.253c-.11-1.083.459-1.511 1.652-.925-.365.463-.863.708-1.652.925zm14.039-3.764c-.132-1.194.375-1.734 1.661-.974-.367.514-.865.792-1.661.974z" class="F"/><path d="M365.722 32.055c.632-1.045 1.196-.919 1.518-.33.363.664-.151 1.045-1.026 1.192-.414-.228-.572-.409-.492-.862z" class="N"/><path d="M213.817 253.118c.482.373.735.876.887 1.656-1.108.053-1.743-.381-.887-1.656z" class="C"/><path d="M170.943 282.87c.253-.589.856-1.152 1.777-1.739.187 1.013-.285 1.715-1.777 1.739z" class="E"/><path d="M47.097 281.958c-.184-.445-.162-.969.068-1.673 1.035.444.819 1.028-.068 1.673z" class="B"/><path d="M185.042 279.128c-.247.581-.845 1.139-1.755 1.75-.199-.986.247-1.713 1.755-1.75z" class="E"/><path d="M48.041 277.877c-.175-.638-.06-1.439.293-2.444.598.667.74 1.517-.293 2.444z" class="B"/><path d="M178.878 276.859c.256-.601.871-1.168 1.805-1.761.208 1.044-.27 1.759-1.805 1.761zm-16.097 18.858c-.217.641-.634 1.056-1.343 1.561-.256-.874-.642-2.161 1.343-1.561zm-9.768 7.411c-.221.604-.801 1.19-1.688 1.845-.243-.983.134-1.771 1.688-1.845z" class="E"/><path d="M372.51 263.239c1.06.044 1.641.498.678 1.647-.416-.378-.613-.882-.678-1.647z" class="D"/><path d="M202.889 258.85c-.108-.978.539-1.557 1.768-1.908.215 1.054-.175 1.87-1.768 1.908z" class="E"/><path d="M199.932 306.874c.26-.59.861-1.14 1.774-1.68.186 1.045-.332 1.679-1.774 1.68zM56.19 245.881c-.269-.427-.311-.985-.196-1.691.861.325.993.888.196 1.691z" class="B"/><path d="M211.793 241.112c.381.409.545.932.571 1.709-1.11-.097-1.465-.664-.571-1.709zm7.269 64.34c.942-.614 1.653-.104 2.432.899-.878.579-1.804.571-2.432-.899zm-7.145-74.424c.287.445.354.985.249 1.747-1.129-.267-1.195-.897-.249-1.747zm1.127-9.017c.276.468.313 1.014.156 1.776-1.256-.318-1.203-.968-.156-1.776z" class="C"/><path d="M105.612 223.916c-.113-.695.134-1.493.611-2.519.687.766.843 1.704-.611 2.519zm-24.848-3.789c.374.393.536.905.578 1.667-1.028-.095-1.511-.598-.578-1.667zm253.096-89.845c-.095.463-.228.706-.361.95-.132-.243-.381-.493-.368-.729.018-.335-.006-1.045.729-.221zm-47.599 44.116c-.533-.365-1.612-.197-1.484-1.276.018-.152.614-.412.675-.352.289.287.485.667.829 1.292.114.278-.007.277-.019.336z" class="B"/><path d="M41.403 102.723c.154.123.176.338.197.552-.11-.154-.22-.307-.197-.552z" class="E"/><path d="M57.064 271.7c-.275.315-.463.321-.931.279-.56-.705-.415-1.27.257-1.494.138-.046.501.587.673 1.214z" class="N"/><path d="M96.637 246.752c-.015.244-.142.376-.27.508.052-.206.105-.413.27-.508z" class="B"/><path d="M365.658 31.721c.274.244.245.425.258.878-.258.467-.558.663-1.119.919-.44-.185-.618-.431-1.015-1.077.378-.527.976-.655 1.876-.72z" class="H"/><path d="M209.446 272.533c-.033-.056.033.056 0 0z" class="B"/><path d="M345.092 238.584c-.173.383-.353.407-.805.425-.248-.719-.338-1.591.805-.425z" class="N"/><path d="M343.999 187.337c.133-.17.306-.134.733-.018.005.574-.308.637-.733.018z" class="C"/><path d="M98 394.002h260.846v.704H66.355l-.017-.704H98z" class="J"/><path d="M35.396 102.447c-1.275.111-1.374-.589-1.17-1.394.037-.146.529-.337.696-.26.604.278.853.798.474 1.654z" class="H"/><path d="M34.926 318.975c-.116.53-.231.799-.347 1.069-.761-.699-.743-1.406-.021-2.119.123.263.245.527.368 1.051z" class="K"/><path d="M41.997 288.998l-.251 3.346c-1.079-1.213-.679-2.073.011-3.137l.24-.209z" class="M"/><path d="M36.924 311.986c-.113.53-.228.8-.343 1.069-.76-.697-.752-1.405-.03-2.123.124.264.247.529.373 1.054z" class="K"/><path d="M383.723 290.147c.179 1.132.179 2.041.179 4.04-1.017-2.192-1.23-3.245-.179-4.04zm-.336 11.314c-.804.228-1.094-.055-.971-.678.025-.13.209-.305.34-.325.63-.095.894.211.632 1.003zm.254 5.641c-.278-.273-.393-.678-.45-1.09-.01-.07.224-.175.346-.263.096.406.192.813.105 1.354zm.476 7.195c.714-.844.743-.158.77.203.018.238-.239.496-.373.746-.144-.242-.289-.483-.397-.948zm.13-16.285c.164-.109.33-.055.496-.002-.165.055-.329.109-.496.002zm7.353 32.261c-.157-.125-.18-.341-.202-.556.112.155.225.31.202.556z" class="D"/><path d="M301.748 313.551c-.001-.635.361-1.177.787-.733.402.42-.053.835-.787.733z" class="H"/><path d="M204.004 231.153v-5.875l.655-.004v15.67l-.655.021v-9.812z" class="L"/><path d="M295.173 203.017c.716.058 1.04.096 1.352.178.151.04.281.162.42.247-.272.164-.544.471-.817.472-8.347.025-16.694.021-25.039-.899l24.084.002z" class="G"/><path d="M204.003 128.101v-5.782l.641-.017v13.403l-.641.065v-7.669z" class="J"/><path d="M366.995 116.538v-11.204l.645-.017v14.372c-1.154-.647-.439-1.799-.645-3.151z" class="L"/></svg>