<svg xmlns="http://www.w3.org/2000/svg" width="100%" viewBox="0 0 531 748" height="150" xmlns:v="https://vecta.io/nano"><style><![CDATA[.B{fill:#b0b0b0}.C{fill:#373737}.D{fill:#272727}.E{fill:#5f5f5f}.F{fill:#323232}.G{fill:#202020}.H{fill:#d7d7d7}.I{fill:#303030}.J{fill:#f7f7f7}.K{fill:#080808}]]></style><path fill="#fefefe" d="M532 218v531H1V1h531v217M147.928 702.055s-.129.108.049.739l5.941 3.136 71.937-.007 78.281.027 17.814-.073 47.84.188 23.915.098c5.075.031 8.741-2.292 10.31-7.033.96-2.901.958-6.119 1.705-9.908-.022-.772-.044-1.544.334-2.929.364-3.123.728-6.245 1.45-10.007-.008-.479-.016-.959.46-2.001.147-1.784.294-3.568.755-6.1.027-1.079.053-2.159.501-3.863l3.284-23.122a7.05 7.05 0 0 1 .464-2.924c.469-3.781.939-7.562 1.729-11.954.034-.459.068-.917.627-1.789-.054-.868-.108-1.737.154-3.37.024-1.091.048-2.183.553-3.792.189-1.141.379-2.282.846-4.057-.025-.455-.05-.91.235-2.049l4.681-32.938c.007-.459.013-.918.396-1.632-.04-.573-.08-1.145.17-2.357.079-1.149.159-2.299.684-4.03.086-1.462.173-2.924.607-5.011-.012-.469-.024-.938.493-1.96l2.373-16.814c.084-.332.014-.629.292-1.46l4.01-25.886c-.038-1.085-.076-2.171.299-3.867l4.482-31.076c.03-.773.06-1.545.529-2.909.405-2.799.81-5.597 1.599-9.01-.044-.475-.089-.951.289-2.057l3.776-27.013c.001-.767.002-1.534.467-2.899.638-5.14 1.275-10.281 2.329-16.132.06-1.092.119-2.184.6-3.833.058-1.15.115-2.299.519-4.148-.013-.775-.026-1.549.406-2.898.356-2.803.711-5.605 1.336-9.14.035-.773.07-1.546.605-2.858.188-1.461.376-2.923.843-5.153.131-1.626.262-3.252.903-5.104.064-1.026.128-2.053.366-3.779.122-.951.244-1.903.829-3.31.07-1.672.14-3.345.383-5.673.134-1.114.268-2.228.865-3.869.002-.897.005-1.794.245-3.459.104-1.337.209-2.673.713-4.399-.013-.871-.026-1.742.133-3.239.036-.646.072-1.292.592-2.082.028-.757.055-1.515.25-2.936.159-1.126.318-2.251 1.005-3.919.032-1.217.063-2.434.28-4.339.041-.71.082-1.421.662-2.608l1.075-8.15c.014-.684.028-1.368.623-2.345.101-1.664.203-3.327.535-5.666.086-.945.172-1.889.724-3.358l1.251-10.486c.027-.358.054-.715.632-1.448.088-1.091.176-2.182.517-4.034.088-1.337.176-2.675.789-4.49.027-.908.054-1.817.316-3.3.018-.412.036-.825.549-1.828.104-1.86.209-3.72.56-6.154-.005-.416-.01-.831.467-1.859.09-1.856.181-3.711.494-6.146.014-.413.029-.825.46-1.473-.028-.579-.056-1.158.137-2.427.08-.958.159-1.916.817-3.331l2.162-16.662c.086-.958.172-1.916.834-3.308.108-1.408.217-2.817.521-4.911.023-.712.046-1.424.574-2.665l1.089-9.089c.037-.661.075-1.321.663-2.47.128-2.034.256-4.068.593-6.781.061-.708.122-1.415.663-2.435-.019-.889-.037-1.778.177-3.355.165-1.439.33-2.877.941-4.662-.034-.887-.069-1.773.078-3.159.033-.351.067-.703.631-1.558l1.571-11.883c.061-1.021.121-2.043.641-3.644l1.154-9.958c-.017-.369-.033-.737.513-1.269.087-1.061.174-2.122.475-3.79.082-.637.164-1.274.671-2.284a39.02 39.02 0 0 1 .311-3.767c.14-1.117.281-2.233.827-3.952l1.085-9.136c.085-1.266.169-2.532.806-4.294.113-1.719.225-3.439.506-5.757.004-.414.008-.827.513-1.628.048-1.194.096-2.389.321-4.28.144-1.431.288-2.863.806-4.573a10.72 10.72 0 0 1 .057-2.257c.019-.376.038-.752.626-1.569.11-1.706.22-3.411.534-5.857.117-1.017.233-2.034 1-3.391.019-.944.039-1.889.263-3.517.059-.71.118-1.419.551-2.613-.037-1.172-.075-2.344.066-4.025.049-.355.099-.709.655-1.314.023-1.055.046-2.109.231-3.867.106-.954.213-1.908.816-3.141.045-1.057.091-2.114.281-3.837.142-1.117.284-2.234.941-3.863l1.049-8.994c.03-.368.061-.736.622-1.408.056-1.353.113-2.706.309-4.822.057-1.29.115-2.579.748-4.249.09-1.074.179-2.149.514-3.954.093-1.019.185-2.038.723-3.671.387-3.531.774-7.062 1.427-11.253.058-.709.116-1.417.579-2.37-.037-.581-.075-1.162.055-2.474.003-.997.006-1.995.563-3.446.639-4.343 1.628-8.675 1.756-13.033.056-1.897-1.655-3.846-2.841-6.312-.782-.614-1.564-1.228-2.636-2.39-.755-.21-1.51-.421-3.159-.827l-291.976.088c-1.98.001-3.961.232-6.845.095l-124.661-.021c-1.148 0-2.296.211-4.209.011-7.912-.095-10.19 1.248-13.002 7.562.177 1.423.354 2.846.48 4.858.081.384.161.767-.182 1.747l1.792 10.063c.043.464.085.928-.353 1.785.524 1.998 1.049 3.995 1.575 6.647a5.44 5.44 0 0 1 .051 2.504l1.973 10.358c.092.346.183.691-.145 1.483.383 1.325.766 2.65 1.182 4.701.146.958.291 1.916.067 3.48l2.859 17.443c.125.645.251 1.29-.048 2.369.365 1.324.731 2.648 1.123 4.628.108.647.217 1.294-.08 2.394.405 1.278.81 2.556 1.169 4.522.116.679.232 1.358-.021 2.514.328 1.29.656 2.579.962 4.425.083.36.166.721-.225 1.401.344 1.051.688 2.102 1.023 3.916.182 1.258.363 2.516.163 4.165.335.997.67 1.994 1.021 3.724.166.957.332 1.915.28 3.676.538 2.016 1.076 4.031 1.485 6.831.151.772.302 1.544.17 3.12l3.734 24.854c.171.447.343.893.277 2.06.398 1.627.796 3.255.99 5.482.116.612.232 1.224.092 2.502.526 2.765 1.052 5.531 1.469 9.107.176 1.064.352 2.128.286 4.023l2.576 16.671 4.526 28.846c.152.568.304 1.136.229 2.365l1.069 7.898 5.431 35.055c.156.445.313.889.242 2.162l4.024 29.537 3.982 25.813c-.028.335.084.614.065 1.522l5.623 36.977c.147.442.295.884.193 2.034.316 1.421.631 2.841.83 5.042.213.749.425 1.497.431 3.052.606 3.374 1.212 6.749 1.67 10.834.138.453.276.907.157 2.017.322 1.094.644 2.188.833 3.983.117.454.235.909.041 2.063.397 1.4.794 2.799 1.063 4.992.179.77.357 1.539.37 2.916.216.778.433 1.555.521 3.044.155.448.311.896.254 2.165l1.651 10.869c.138.435.276.869.212 2.177l3.087 19.445c.134.573.269 1.147.125 2.383l3.621 23.94c.134.456.268.912.14 2.201 1.023 5.697 2.047 11.395 2.914 17.913.185 1.083.37 2.167.369 4.062l4.821 33.04 2.875 18.787c.157.454.314.908.222 2.155.928 5.389 1.856 10.778 2.663 16.941.164.755.329 1.509.219 3.068l4.4 30.065c.679 4.385 1.675 8.722 2.354 13.771.1.458.201.915.044 2.2l3.952 24.882c.174.76.349 1.52.271 2.909.36 1.204.72 2.407.935 4.21.115.385.229.77.056 1.842.636 3.424 1.273 6.848 1.786 11.044a9.06 9.06 0 0 1 .177 2.976c.327 1.414.653 2.828.848 5.015.153.761.305 1.522.157 2.917.806 1.544 1.612 3.089 2.504 4.488z"/><path fill="#0e0e0e" d="M87.698 301.934c-.156-.445-.313-.889-.175-1.978-.849-9.484-1.832-18.348-3.193-27.154-.822-5.318-2.23-10.546-3.374-15.815-.152-.568-.304-1.136-.259-2.482.222-2.595.496-4.451.229-6.225l-4.602-28.717c-.627-3.59-1.774-7.089-2.684-10.629-.176-1.064-.352-2.128-.222-3.856-.303-3.479-.911-6.293-1.519-9.108-.116-.612-.232-1.224-.145-2.526-.183-2.297-.569-3.905-.955-5.513-.171-.447-.343-.893-.225-2.002-.142-5.044-.366-9.46-1.068-13.799-.611-3.778-1.76-7.468-2.671-11.197-.151-.772-.302-1.544-.189-3.008-.334-2.776-.933-4.859-1.532-6.942-.166-.957-.332-1.915-.312-3.58-.151-1.608-.488-2.507-.826-3.407-.182-1.258-.363-2.516-.346-4.509-.117-1.657-.433-2.579-.748-3.502-.083-.36-.166-.721-.056-1.715-.133-1.845-.459-3.057-.785-4.268-.116-.679-.232-1.358-.148-2.744-.188-1.895-.576-3.081-.964-4.268-.108-.647-.217-1.294-.134-2.634-.169-1.918-.53-3.144-.891-4.369-.125-.645-.251-1.29-.146-2.684-.753-6.266-1.736-11.784-2.719-17.302-.146-.958-.291-1.916-.303-3.621-.209-1.965-.553-3.182-.896-4.4-.092-.346-.183-.691-.104-1.723-.479-3.879-1.128-7.072-1.778-10.265-.139-.637-.277-1.274-.253-2.613-.31-2.581-.784-4.459-1.257-6.337-.043-.464-.085-.928.119-2.002-.374-3.756-.994-6.902-1.615-10.048-.081-.384-.161-.767-.005-1.866.104-1.931-.03-3.147-.163-4.364 2.258-6.093 4.536-7.437 12.834-6.818.291 3.921 2.57 4.069 5.096 4.068l120.228.062c3.481.01 4.446-1.308 4.063-4.382 1.98-.124 3.961-.355 5.941-.356l292.494.345c1.322.603 2.127.773 2.931.943.782.614 1.564 1.228 2.476 2.533.524 3.424 1.221 6.154 1.234 8.888.017 3.405-.53 6.812-.833 10.219-.003.997-.006 1.995-.327 3.486a5.67 5.67 0 0 0-.141 2.225c-.058.709-.116 1.417-.625 2.621-.774 4.121-1.098 7.746-1.422 11.372-.093 1.019-.185 2.038-.692 3.603-.501 1.627-.588 2.707-.675 3.787-.057 1.29-.115 2.579-.539 4.511-.403 1.923-.438 3.204-.473 4.485-.03.368-.061.736-.459 1.616-.644 3.339-.919 6.166-1.195 8.992-.142 1.117-.284 2.234-.782 3.942-.378 1.569-.401 2.548-.423 3.526-.106.954-.212 1.908-.656 3.486-.358 1.581-.38 2.537-.401 3.493-.049.355-.099.709-.498 1.508-.263 1.651-.177 2.858-.09 4.065-.059.71-.118 1.419-.569 2.534-.435 1.421-.478 2.436-.52 3.452-.117 1.017-.233 2.034-.732 3.649-.495 2.298-.608 3.999-.721 5.699-.019.376-.038.752-.367 1.518-.247.975-.183 1.56-.12 2.146-.144 1.431-.288 2.863-.806 4.805-.398 1.726-.423 2.941-.447 4.156-.004.414-.008.827-.426 1.722-.49 2.245-.567 4.009-.644 5.773-.085 1.266-.169 2.532-.598 4.42-.612 3.453-.879 6.285-1.147 9.116-.14 1.117-.281 2.233-.806 3.933-.373 1.574-.362 2.566-.352 3.557a7.44 7.44 0 0 1-.678 2.427c-.49 1.49-.548 2.463-.606 3.437.017.369.033.737-.318 1.618-.66 3.684-.953 6.855-1.246 10.026-.061 1.021-.121 2.043-.588 3.611-.836 4.311-1.266 8.075-1.695 11.84-.033.351-.067.703-.46 1.448-.295 1.3-.23 2.206-.165 3.112-.165 1.439-.33 2.877-.883 4.796-.348 1.382-.309 2.284-.269 3.186-.061.708-.122 1.415-.59 2.675-.517 2.607-.626 4.663-.736 6.718-.037.661-.075 1.321-.464 2.546-.649 3.394-.945 6.224-1.242 9.053-.023.712-.046 1.424-.494 2.65-.507 1.953-.589 3.392-.672 4.832-.086.958-.172 1.916-.687 3.44-1.056 5.894-1.684 11.224-2.312 16.553-.08.958-.159 1.916-.6 3.327-.305 1.038-.249 1.624-.193 2.21-.014.413-.029.825-.465 1.662-.466 2.394-.51 4.364-.554 6.334.005.416.01.831-.425 1.659-.498 2.386-.556 4.359-.615 6.333-.018.412-.036.825-.45 1.602-.413 1.381-.429 2.397-.445 3.413-.088 1.337-.176 2.675-.716 4.538-.507 1.645-.561 2.765-.614 3.884-.027.358-.054.715-.457 1.594-.697 3.844-1.019 7.166-1.341 10.488-.086.945-.172 1.889-.703 3.406-.52 2.177-.595 3.781-.67 5.386a9.29 9.29 0 0 1-.373 2.629c-.648 3.068-.965 5.559-1.282 8.051-.041.71-.082 1.421-.49 2.607-.391 1.786-.416 3.095-.441 4.404-.159 1.126-.318 2.251-.81 3.937-.356 1.213-.378 1.866-.401 2.519a7.88 7.88 0 0 1-.449 2.408c-.291 1.366-.242 2.262-.192 3.157-.104 1.337-.209 2.673-.69 4.505-.362 1.494-.347 2.493-.332 3.491-.134 1.114-.268 2.228-.815 3.929-.42 2.239-.426 3.891-.432 5.543-.122.951-.244 1.903-.748 3.431-.419 1.527-.457 2.477-.494 3.428-.131 1.626-.262 3.252-.849 5.341-.6 2.051-.743 3.641-.886 5.23-.035.773-.07 1.546-.52 2.851-.732 3.415-1.049 6.299-1.366 9.183.013.775.026 1.549-.416 2.78-.466 1.72-.475 2.984-.485 4.248-.06 1.092-.119 2.184-.686 3.797-1.1 5.751-1.693 10.98-2.286 16.21-.001.767-.002 1.534-.51 2.783-.977 2.54-1.666 4.576-1.879 6.66l-1.812 20.503c.044.475.089.951-.376 1.865-.849 3.347-1.189 6.254-1.528 9.162-.03.773-.06 1.545-.576 2.842-1.147 3.354-2.097 6.152-2.414 9.02-.815 7.364-1.349 14.76-1.996 22.143.038 1.085.076 2.171-.37 3.757-1.665 8.985-2.845 17.47-4.025 25.955.222.261.291.558-.25 1.328-1.119 5.935-1.782 11.433-2.445 16.93.012.469.024.938-.419 1.792-.503 1.993-.551 3.6-.598 5.208-.079 1.149-.158 2.299-.618 3.887a4.52 4.52 0 0 0-.166 2.173c-.007.459-.013.918-.518 1.815-2.099 10.44-3.731 20.436-5.25 30.45-.129.853.487 1.819.757 2.732.025.455.05.91-.36 1.712-2.488 1.416-2.983 2.671-.892 4.229-.024 1.091-.048 2.183-.477 3.769-.361 1.426-.318 2.357-.274 3.288-.034.459-.068.917-.583 1.833-.905 4.325-1.328 8.194-1.75 12.062.013.786.026 1.573-.419 2.903-.882 2.292-1.507 4.019-1.692 5.791-.605 5.795-1.049 11.606-1.555 17.411-.027 1.079-.053 2.159-.543 3.733-.567 2.386-.672 4.277-.776 6.168.008.479.016.959-.441 1.922-.772 3.702-1.079 6.919-1.386 10.137.022.772.044 1.544-.409 2.805-.742 1.073-1.192 1.64-1.247 2.243-1.135 12.525-7.143 13.05-16.776 13.074-6.051.015-12.101.452-18.152.7-15.707.049-31.413.099-47.694-.33-1.645-.773-2.715-1.323-3.786-1.324-29.641-.047-59.283-.056-88.924.029-1.238.004-2.473.987-3.71 1.513-23.679.104-47.359.208-71.525-.2-2.202-1.427-3.917-2.341-5.633-3.255 0 0 .129-.108.126-.38-.735-1.798-1.467-3.324-2.199-4.85-.153-.761-.305-1.522-.177-2.907-.096-2.113-.473-3.602-.851-5.091-.152-.759-.303-1.518-.164-2.944-.402-4.133-1.096-7.598-1.789-11.064-.115-.385-.229-.77.024-1.57-.105-1.752-.578-3.088-1.05-4.424-.174-.76-.349-1.52-.201-2.953-.498-6.886-1.232-13.111-2.188-19.302-.303-1.958-1.201-3.825-1.827-5.733-.1-.458-.201-.915.023-2.013-1.112-11.373-2.437-22.123-4.044-32.831-.567-3.776-1.821-7.449-2.761-11.169-.164-.755-.329-1.509-.196-2.947-.706-6.139-1.708-11.596-2.711-17.052-.157-.454-.314-.908-.198-2.03.321-1.161.461-1.665.403-2.146l-5.273-42.666c-.335-2.473-1.911-4.778-2.913-7.16-.185-1.083-.37-2.167-.252-3.96-.783-6.485-1.869-12.261-2.955-18.036-.134-.456-.268-.912-.068-2.008.023-4.206-.041-7.816-.665-11.326-.757-4.256-1.988-8.428-3.013-12.637-.134-.573-.269-1.147-.181-2.482-.093-6.626-.357-12.495-.824-18.347-.037-.461-1.489-.809-2.284-1.209-.138-.435-.276-.869-.136-1.915-.387-4.101-1.051-7.59-1.715-11.08-.155-.448-.311-.896-.203-1.868-.031-1.392-.324-2.26-.618-3.128a9.11 9.11 0 0 1-.278-2.958c-.165-2.114-.587-3.578-1.009-5.042-.117-.454-.235-.909-.08-1.928-.101-1.735-.474-2.905-.847-4.075-.138-.453-.276-.907-.127-2.016-.392-4.099-1.071-7.542-1.751-10.985-.213-.749-.425-1.497-.353-2.871-.099-2.125-.482-3.625-.866-5.124-.147-.442-.295-.884-.134-1.973-.434-7.365-.93-14.122-1.993-20.788-.871-5.466-2.418-10.823-3.665-16.229-.254-.221-.367-.499-.123-1.525.254-1.683.439-2.696.31-3.667L90.65 314.61c-.634-4.277-1.948-8.453-2.951-12.675m54.121-165.448c-.687-.452-1.374-.904-2.506-1.476-.287-.178-.434-.435-.398-1.521-.772-.423-1.544-.845-2.927-1.495l-23.155-22.544-1.203.914 1.208 9.332 5.111 35.038 13.502 92.255c2.125 14.79 3.961 29.621 5.629 45.195l1.391 5.717c.125 1.378.25 2.756-.109 4.468l1.451 3.413c.003.752.006 1.504-.475 2.652.35 1.223.7 2.446 1.382 4.44.344 2.728.687 5.456.539 8.524l1.622 3.381a6.27 6.27 0 0 1-.571 2.768l2.117 10.35c.138 1.379.276 2.759-.072 4.516a65.45 65.45 0 0 0 1.043 3.232c.061.888.123 1.775-.183 3.321.362 1.047.724 2.094 1.441 3.816.063.75.127 1.499-.228 2.472l1.069 2.628c.1 1.387.201 2.774-.127 4.379l1.15 2.588c.062 1.074.124 2.148-.315 3.663.426 1.528.853 3.055 1.588 5.317.069 1.057.138 2.114-.229 3.414l1.094 2.596c.085 1.06.171 2.119-.263 3.692l2.336 10.324c.043 1.058.086 2.116-.358 3.578l1.421 4.402c.052 1.058.105 2.117-.308 3.487.252.576.505 1.152.994 2.167.092.341.051.664-.428 1.774l1.413 4.505c.013 1.026.026 2.052-.564 3.294l1.762 4.804c-.003 1.072-.006 2.144-.504 3.675l1.696 5.237c.008.75.016 1.499-.498 2.719l2.124 8.362c.121 1.059.242 2.118-.147 3.583l1.58 4.456c.298 2.469.597 4.938.456 8.021.295 1.065.589 2.129 1.221 3.922.093 1.062.187 2.125-.185 3.495.263.926.527 1.852 1.076 3.558.127 1.379.254 2.758-.071 4.468.29.917.579 1.834 1.227 3.426.052.753.105 1.506-.328 2.65.353 1.223.706 2.446 1.384 4.352.051.748.103 1.496-.338 2.621.317 1.233.633 2.467 1.259 4.392.056.75.112 1.499-.34 2.637l1.505 4.405c.043 1.059.085 2.117-.411 3.663.607 2.535 1.213 5.071 2.141 8.363.014 1.081.029 2.161-.409 3.577a50.85 50.85 0 0 1 1.495 3.427c.013 1.071.026 2.142-.42 3.686.426 1.512.851 3.025 1.594 5.217.074.741.147 1.482-.292 2.69l2.193 8.417c.069 1.381.137 2.761-.267 4.446.282.927.563 1.853 1.17 3.55.087 1.386.174 2.771-.223 4.468.34.919.68 1.838 1.398 3.497.337 2.736.674 5.472.543 8.598a65.78 65.78 0 0 0 1.232 4.414c.093 1.063.185 2.126-.274 3.699l3.29 16.29c.07 1.07.141 2.141-.281 3.601l1.445 4.399c.054 1.061.108 2.122-.337 3.585.401 1.217.802 2.434 1.527 4.247-.003.448-.005.897-.436 1.563l1.082 2.642c.102 1.383.204 2.766-.171 4.469l1.324 3.445c.038.749.076 1.497-.407 2.692l1.577 5.338c.028 1.061.056 2.122-.483 3.675l1.951 15.389 1.401.388c.773-1.043 1.547-2.086 2.5-3.794 3.281-4.489 6.561-8.978 10.54-13.488 1.714-2.717 3.427-5.434 5.294-8.689.357-.425.714-.85 1.789-1.371 2.945-3.782 2.532-7.448-.609-11.802.015-1.07.03-2.139.522-3.624l-1.599-4.347c-.033-1.061-.066-2.121.324-3.411-.233-.623-.467-1.246-1.033-2.598-.11-1.062-.22-2.125.125-3.529a99.84 99.84 0 0 0-1.267-3.505c-.074-1.382-.148-2.763.27-4.46-.332-.922-.665-1.845-1.352-3.52-.083-1.38-.165-2.761.273-4.573l-2.08-7.462c-.067-1.388-.134-2.776.294-4.578l-1.626-4.316c.009-.748.019-1.495.543-2.685-.388-1.54-.775-3.081-1.516-5.346-.282-2.417-.563-4.833-.36-7.617-.313-1.227-.626-2.454-1.246-4.429-.065-1.071-.131-2.142.288-3.608l-1.472-4.381c-.059-1.061-.118-2.122.325-3.564-.339-1.231-.679-2.462-1.345-4.427-.04-1.067-.079-2.133.356-3.608-.355-1.219-.71-2.438-1.436-4.237-.015-.452-.03-.904.446-1.729-.323-1.232-.646-2.463-1.277-4.391-.041-.753-.082-1.506.367-2.779l-1.772-6.25c-.096-1.365-.193-2.73.314-4.431l-1.716-5.473c-.11-1.774-.219-3.548.149-5.731a91.07 91.07 0 0 0-1.563-4.349c-.045-1.063-.089-2.126.306-3.417l-1.122-2.628c-.12-1.378-.241-2.756.092-4.449-.22-.575-.44-1.15-.933-2.338-.035-.884-.069-1.768.233-3.373-.303-.668-.607-1.336-1.183-2.717-.167-1.758-.333-3.516.014-5.6l-1.483-3.518c-.008-1.386-.016-2.772.563-4.609l-1.688-6.321c-.132-1.538-.264-3.076-.1-5.271l-1.377-3.835c-.1-1.384-.2-2.767.186-4.551a83.35 83.35 0 0 0-1.475-4.331c-.044-.747-.087-1.493.324-2.548l-.995-2.275c.026-.608.052-1.216.366-2.553-.413-1.318-.826-2.636-1.561-4.698.004-1.077.008-2.154.482-3.7-.431-1.515-.863-3.029-1.623-5.219-.044-.748-.089-1.496.327-2.571-.279-.922-.558-1.845-1.154-3.461-.035-.754-.07-1.507.371-2.704-.342-1.535-.684-3.07-1.381-5.411-.421-3.368-.842-6.736-.759-10.505l-1.439-4.355c-.044-.743-.088-1.486.355-2.631-.326-1.229-.652-2.459-1.271-4.38-.053-.744-.106-1.487.309-2.539a67.48 67.48 0 0 1-1.077-2.396c-.062-1.448-.124-2.897.279-4.754-.387-1.208-.773-2.416-1.531-4.34-.056-1.065-.112-2.13.264-3.422-.236-.624-.473-1.248-1.036-2.608-.083-1.066-.166-2.132.172-3.403l-1.029-2.654c-.179-1.703-.358-3.406-.095-5.337l-1.163-2.637c-.416-2.714-.832-5.428-.718-8.685-.361-2.511-.722-5.023-1.421-8.133.006-.452.013-.904.515-1.734-.352-1.226-.705-2.452-1.417-4.271-.008-.455-.016-.91.47-1.826l-1.656-5.369c-.205-2.003-.409-4.006.045-6.285l-1.569-5.529c-.118-1.448-.236-2.896.118-4.646l-1.253-3.526c-.096-1.385-.192-2.77.22-4.631l-1.721-5.294c.013-1.063.025-2.126.57-3.68l-2-7.088c-.019-.587-.038-1.174.307-2.54-.443-1.658-.886-3.316-1.612-5.675-.015-.749-.03-1.499.487-2.808l-3.358-18.262c-.024-1.068-.048-2.136.401-3.6-.365-1.215-.73-2.43-1.476-4.448-.263-2.645-.526-5.29-.168-8.157l-1.504-3.644c-.107-1.453-.213-2.905.13-4.781l-1.472-4.354c-.011-1.07-.022-2.139.436-3.631-.404-1.206-.808-2.412-1.562-4.389-.31-2.728-.621-5.456-.469-8.507a65.47 65.47 0 0 0-1.316-3.467c-.069-1.065-.137-2.131.261-3.505-.293-.922-.586-1.845-1.22-3.529-.09-1.385-.18-2.77.158-4.374l-1.053-2.642c-.12-1.381-.24-2.762.111-4.452l-1.163-3.529c-.059-1.065-.119-2.131.304-3.514l-1.442-3.411c-.027-.752-.055-1.504.38-2.671-.336-1.216-.673-2.431-1.344-4.239-.044-.449-.087-.899.335-1.713-.628-.468-1.256-.936-1.748-1.579 0 0-.109.193-.121-.516M97.131 81.533c.715.443 1.43.885 2.788 1.462 2.005 2.128 4.011 4.256 6.053 6.923.664.083 1.328.165 2.92.075l60.124 1.087c1.152.975 2.3 2.794 3.458 2.8l88.893.175c2.914.008 3.942-1.094 4.523-4.107 5.038.097 10.077.194 15.125 1.106 1.14.983 2.257 2.784 3.425 2.819 8.295.247 16.603.037 24.903.184 2.874.051 3.979-1.019 4.509-4.046 2.384.09 4.769.181 7.163 1.082 1.151.97 2.254 2.701 3.463 2.778 4.96.319 9.953.135 14.934.135l96.628-.038c2.039-.003 5.084 1.16 5.63-2.932.799-.625 1.597-1.25 2.607-2.524 2.238-2.172 4.476-4.344 7.434-6.441.796-.944 1.592-1.887 2.585-3.349.446-.302.892-.604 2.093-.789.498-.723.996-1.446 1.699-2.735.9-.769 1.801-1.537 3.458-2.253.76-1.096 1.52-2.192 2.422-3.717.217-.241.488-.354 1.496-.301a40.82 40.82 0 0 0 1.917-2.495l4.554-5.207H77.51c6.051 5.96 11.23 11.063 16.379 16.86 1.1.921 2.201 1.842 3.135 2.855 0 0 .14-.128.107.594m112.88 545.474s.077.049-.653.045c-1.114 1.996-2.227 3.992-3.443 6.652-1.525 1.814-3.049 3.627-5.385 5.456-.447 1.103-.893 2.207-1.424 3.92-.716.968-1.433 1.936-2.779 2.928l-2.658 1.208.059.982c1.066 0 2.132 0 4.125-.206h156.388c-1.874-3.079-3.06-5.029-4.192-7.704-.704-.76-1.409-1.52-2.324-2.382 0 0-.041-.23.128-.991-.938-.973-1.876-1.946-3.108-3.13 0 0 .073-.354.155-1.083-.651-.561-1.301-1.121-2.456-1.839-.215-.457-.43-.914-.54-2.093-.614-.598-1.228-1.196-2.364-1.984-.226-.489-.453-.977-.632-2.157l-2.35-2.09c-2.075-4.452-5.444-5.534-10.343-5.388-13.953.417-27.927.181-41.893.138l-64.681-.801c-.908.423-1.816.846-2.836 1.93-1.213 1.551-2.426 3.102-4.383 4.663-.788 1.335-1.576 2.669-2.412 3.926m-66.013-502.003s-.284.281-.137.947l6.82 4.64c.409-.071.818-.141 2.105.171l144.785.035 98.855-.031c3.2 0 6.46.239 8.31-3.712.28-.171.423-.421 1.073-.916 1.324-1.398 2.647-2.795 4.321-4.386 0 0 .064-.395.705-.554.53-.658 1.059-1.315 2.188-2.211 1.733-1.862 3.465-3.723 5.83-5.775.533-.655 1.067-1.31 2.181-2.205 2.655-2.669 5.311-5.339 8.758-8.129l2.081-3.31c-2.907 0-4.876 0-6.846 0-50.06.011-100.12-.009-150.18.053l-42.779.246-99.624.04c-1.461.002-2.921.33-4.376.589 0 0-.038-.075-.376-.539-.56.032-1.12.065-2.528-.203h-6.406l-.193 1.343 6.425 5.913s-.088.063.009.735c2.235 1.927 4.47 3.853 6.96 6.369 2.815 2.751 5.629 5.502 8.624 8.893 1.045.762 2.09 1.523 3.414 1.998m36.502 543.142c-.389.809-.778 1.618-1.236 2.741 0 0-.304.104-.995.157-.368.757-.736 1.514-1.177 2.672 0 0-.33.238-.991.354-.307.758-.614 1.515-.979 2.936-1.095 1.309-2.191 2.618-3.999 3.994-.714 1.179-1.974 2.334-2.026 3.541-.102 2.373.963 3.433 3.577.901.413.058.825.116 1.57.855 1.272.209 2.544.601 3.816.601l186.563.001c1.491-.001 2.982-.782 5.318-1.426 2.321.082 4.643.165 7.213.794l4.676-1.322c-.509-.668-1.019-1.337-1.914-2.151 0 0-.13-.391-.001-1.152-1.05-1.174-2.1-2.348-3.634-3.708-.212-.451-.424-.903-.422-2.095l-3.349-3.322c-2.806-3.979-5.612-7.958-8.399-12.683-1.26-.779-2.52-1.558-4.603-2.115-42.276.009-84.551-.015-126.827.046l-45.196.389c-.336.844-.671 1.688-1.137 3.084-.475.582-.95 1.164-2.112 1.834-.351.759-.703 1.517-1.175 2.843-.595.744-1.19 1.487-2.563 2.231M340.451 259.49c-.038-.9-.077-1.8.157-3.425.103-1.025.207-2.051.842-3.543-.026-.907-.052-1.814.195-3.448.092-1.028.185-2.056.764-3.639.039-1.201.078-2.403.398-4.33.077-1.033.154-2.066.697-3.523-.039-.592-.077-1.184.13-2.574.134-1.667.268-3.335.865-5.424-.041-.593-.082-1.187.093-2.427.028-.679.056-1.358.587-2.684.154-1.87.308-3.741.618-6.319.045-.721.089-1.441.611-2.721.042-1.201.085-2.401.388-4.437v-8.876c-2.973 3.569-5.32 6.203-7.467 8.991l-50.201 65.064c-5.167 6.497-7.284 12.907-7.231 21.217l.176 155.907c.005 3.958.316 8.028 1.257 11.855l16.798 66.639c.48 1.889 1.14 3.733 1.717 5.597 3.279-17.003 5.701-33.775 7.994-50.565l10.865-80.642 10.676-77.714c.03-1.217.059-2.435.335-4.387.078-1.029.156-2.059.706-3.599a15.19 15.19 0 0 1 .185-3.358c.098-.713.195-1.426.816-2.509-.044-.61-.089-1.22.095-2.63.154-1.663.308-3.326.916-5.416-.06-.595-.12-1.191.048-2.618.177-2.317.355-4.633 1.152-7.309-.002-.929-.004-1.857.201-3.481.061-.72.123-1.44.674-2.769l.978-10.409c.168-1.662.335-3.324 1.018-5.513.047-1.202.095-2.404.31-4.311.05-.722.1-1.443.582-2.615-.039-.585-.078-1.169.159-2.542.142-1.669.283-3.337.895-5.513m-165.907 30.584c.094.635.188 1.269-.053 2.339.199.858.397 1.715.525 3.262.288 1.103.576 2.206.529 3.65.204.55.407 1.1.596 2.321.165 1.106.331 2.211.04 3.808.357 1.166.715 2.332 1.043 4.26.211 1.756.421 3.511.296 5.612.204.551.407 1.102.594 2.291.1.412.201.824-.009 1.963.342 1.466.684 2.932 1.03 5.037.128.405.255.809.075 1.885.382 1.347.765 2.694 1.198 4.813.139 1.554.278 3.107.052 5.002.262.547.524 1.094.743 2.282.123.407.246.815.049 2.061l1.89 12.032c.122.714.243 1.428.017 2.804.478 1.311.956 2.623 1.374 4.695.11 1.263.22 2.527.003 4.142.204.547.408 1.094.578 2.373.169.699.338 1.398.293 2.805.226 1.158.452 2.316.676 4.253.202 1.014.404 2.027.383 3.682.213.845.426 1.69.629 3.349.191 1.339.381 2.678.217 4.696.333 1.15.667 2.301.994 4.093.124.407.247.815.026 2.006l1.831 10.111c.231 1.427.463 2.853.35 4.609.19.559.38 1.117.554 2.463.27 2.07.539 4.14.47 6.57.33.706.66 1.412.938 2.965.417 2.833.834 5.665.939 9.042.243.542.486 1.084.717 2.405a19.76 19.76 0 0 1 .131 3.844c.344 1.449.688 2.898.998 5.08.16.706.32 1.413.329 2.69.163.539.326 1.078.453 2.344.146.708.293 1.417.125 2.84.293 1.48.586 2.959.858 5.217.176 1.02.352 2.039.23 3.638.259.529.517 1.057.842 2.342.244 1.742.488 3.484.368 5.671.252.847.504 1.693.677 3.266.157.708.314 1.417.15 2.943.608 3.116 1.217 6.232 1.772 10.19.18 1.667.361 3.334.245 5.559.255.536.509 1.072.771 2.423.23 1.334.459 2.667.376 4.626.257.844.514 1.688.715 3.173.107.41.214.819.049 1.921.32 1.149.64 2.297.875 4.224.133 1.029.266 2.058.198 3.814.348 1.126.696 2.251 1.022 4.157.133 1.031.266 2.061.026 3.759.316 1.157.633 2.314.894 4.112.115.41.231.82.001 2.001.604 3.134 1.207 6.268 1.766 10.219.217 1.334.434 2.668.322 4.631.272.846.544 1.691.893 3.368.461 3.337.922 6.675 1.06 10.74.345 1.466.689 2.932 1.026 5.036.081.415.162.83-.131 1.917.358 1.152.717 2.304.982 4.271.13 1.352.26 2.704.06 4.717l1.26 4.665c.12.608.24 1.217.05 2.186a10.15 10.15 0 0 1 .616 2.275c.109.409.218.819-.044 1.895.326 1.16.652 2.319.986 4.204.167.704.334 1.407.208 2.794.266 1.159.532 2.319.764 4.197.2 1.421.4 2.842.172 4.85l1.528 7.538 1.381-.144c.705-1.251 1.409-2.503 2.653-4.139 1.136-1.852 2.273-3.704 4.056-5.655.354-.736.709-1.472 1.491-2.535.296-.445.591-.89 1.526-1.456.319-.748.638-1.497 1.434-2.743 2.437-3.344 4.726-6.809 7.354-9.995 2.478-3.003 3.36-6.03 2.761-10.012l-5.537-41.058-15.803-117.232-13.037-97.953-14.044-105.927c-1.281-10.424-3.22-19.84-12.689-26.052-2.029-1.331-3.548-3.439-5.461-5.824-.953-.776-1.906-1.552-3.242-2.781-.6-.497-1.201-.993-1.875-2.139-1.187-.89-2.374-1.779-3.842-3.271-2.597-2.413-5.194-4.826-7.871-7.849l-1.49-.723c-.011.526-.021 1.051-.131 2.338.475 3.345.95 6.69 1.105 10.382.193.555.386 1.11.554 2.388.223 1.419.447 2.838.301 4.685.263.861.525 1.721.732 3.364.169 1.021.339 2.041.131 3.672a19.5 19.5 0 0 1 .926 3.36c.587 3.732 1.175 7.463 1.42 11.531.171.555.342 1.111.488 2.392.159.705.318 1.411.165 2.76.286.838.571 1.676.892 3.33.187 1.335.374 2.67.279 4.639.273.841.547 1.682.815 3.338.177 1.343.354 2.685.169 4.642.249.853.499 1.705.766 3.195.088.413.176.826-.039 1.929.376 1.138.753 2.277 1.074 4.194.161 1.023.322 2.047.145 3.698a15.7 15.7 0 0 1 .873 3.338c.172 1.344.344 2.688.162 4.649.28.848.561 1.695.815 3.368.456 3.344.912 6.688 1.18 10.741.257 1.149.514 2.298.753 4.172.129.712.258 1.423.107 2.837.367 1.134.734 2.268 1.089 4.129.202 1.438.405 2.877.267 4.663.211.544.423 1.089.624 2.36.166.704.332 1.408.159 2.722a20.08 20.08 0 0 1 .763 3.342c.175 1.018.349 2.036.241 3.689a18.76 18.76 0 0 1 .82 3.338c.178 1.341.357 2.682.223 4.698.404 1.316.807 2.632 1.153 4.59m-16.537 357.649c.185.702.37 1.404.208 2.722.288.847.577 1.694.831 3.301.247 1.742.494 3.484.417 5.621.345.709.69 1.419 1.106 2.957.348 2.498.697 4.997.735 8.238l.723 5.167c.754-.156 1.508-.313 2.748-.93 1.918-2.76 3.836-5.521 6.353-8.54.598-1.099 1.196-2.198 2.246-3.799 3.27-4.939 7.288-8.786 5.995-16.307-4.2-24.416-7.046-49.063-10.574-73.598l-10.94-74.06-15.722-109.227-10.147-68.656-10.057-72.126-10.718-71.563-11.228-77.055c-.234-1.591-.518-3.554-1.542-4.588-7.474-7.547-15.131-14.914-22.78-22.287-.519-.501-1.436-.589-2.596-1.032l6.441 43.356 9.273 63.237 10.182 69.103 8.923 58.679 8.836 62.28 13.69 90.793 13.461 90.858 8.638 61.289c.5 2.481.999 4.963 1.455 8.173a8.25 8.25 0 0 1 .08 2.841c.352 1.138.705 2.276 1.039 4.257.198 1.665.396 3.33.253 5.524.321.733.643 1.466.982 3.033.44 2.812.879 5.623.988 9.043.254.855.508 1.709.703 3.297m246.57-303.697l33.889-234.204-1.424-.531c-6.33 6.221-12.157 13.087-19.114 18.501-8.99 6.995-12.337 15.737-13.635 26.754-3.213 27.27-7.569 54.404-11.357 81.608l-8.226 60.812-13.802 95.302-12.99 94.959-17.037 120.631c-.261 1.881.412 4.289 1.487 5.89 4.997 7.437 10.268 14.69 15.496 21.969.878 1.223 2.023 2.255 3.693 4.086l43.021-295.777m-24.01 233.08l-9.532 63.195c-1.38 8.089-.558 14.739 5.152 20.952 3.916 4.261 6.941 9.34 10.365 14.053l1.266-.433 89.026-603.144c-2.098 1.464-3.069 1.977-3.837 2.704L452.52 94.051c-1.092 1.071-2.041 2.682-2.277 4.167l-5.317 35.531-14.308 100.28-9.715 64.648-9.788 68.64-8.164 54.259-10.319 72.146-12.065 83.383m-34.727-74.835l15.017-106.781 15.76-114.226 16.379-114.629c.657-4.619 1.032-9.278 1.67-15.124-1.991 1.351-2.863 1.774-3.521 2.416l-28.431 27.929c-1.393 1.401-2.439 3.606-2.726 5.573l-4.814 36.123-16.231 119.163-13.935 105.922-14.193 103.364c-1.653 10.616-.868 19.314 6.355 27.525 5.148 5.853 9.424 12.472 15.01 19.988l13.661-97.242m-88.405-16.392c.766-3.746 1.866-7.459 2.235-11.244 1.065-10.903 2.536-21.831 2.603-32.757l.134-148.939c-.006-3.339-.25-7.361-2.035-9.909l-55.152-77.469c-.653-.912-1.515-1.674-2.279-2.506l-.816.501 44.288 329.983 1.716-.071 9.305-47.588M184.5 140.701h-24.416c1.093 1.638 1.426 2.386 1.971 2.918l30.735 29.721c1.967 1.838 5.091 3.442 7.689 3.453l148.918.055c2.449-.008 5.391-1.341 7.249-3.009 6.79-6.096 13.255-12.559 19.77-18.956 4.39-4.31 8.66-8.742 14.025-14.174-69.468 0-137.204 0-205.94-.007m45.785 83.471l36.822 51.353c4.069 5.652 6.333 5.524 10.571-.008l55.204-71.903 12.23-16.202H204.411l25.874 36.761m38.95 383.414h56.413l-21.407-30.037c-1.953-2.848-4.117-3.792-7.421-3.755-12.32.136-24.668.513-36.955-.137-7.879-.417-13.363 1.48-17.605 8.558-5.062 8.447-11.184 16.259-17.565 25.37h44.54m-.73-43.85h29.448l-24.753-98.756-1.793.034-19.223 98.722h16.32z"/><path d="M192.553 41.564c.835 3.205-.13 4.523-3.612 4.513l-120.228-.062c-2.526.001-4.805-.147-4.714-3.912 1.144-.479 2.293-.69 3.441-.691l125.113.151z" class="K"/><path d="M225.405 705.771c.787-.679 2.022-1.662 3.26-1.666l88.924-.029c1.071.002 2.141.552 3.331 1.217-5.515.471-11.15.654-16.785.658-26.094.018-52.188-.013-78.731-.18zM87.585 302.348c1.117 3.808 2.431 7.984 3.065 12.261l5.353 39.146c.129.971-.056 1.984-.224 3.451-1.524-7.985-3.027-16.428-4.283-24.907-1.455-9.829-2.693-19.69-3.911-29.951zm32.154 218.99c1.096 1.976 2.671 4.281 3.006 6.754l5.273 42.666c.058.48-.082.984-.344 1.786-1.217-5.714-2.296-11.724-3.207-17.76l-4.728-33.446zm249.691 184.56c5.69-.416 11.741-.853 17.792-.868 9.633-.024 15.641-.549 16.776-13.074.055-.603.505-1.17 1.089-1.887-.112 2.943-.111 6.162-1.071 9.062-1.569 4.74-5.235 7.064-10.31 7.033l-24.275-.266zM130.583 595.334c1.077 3.318 2.332 6.991 2.898 10.767 1.607 10.708 2.932 21.458 4.13 32.486-1.09-4.064-2.087-8.401-2.766-12.786l-4.263-30.467zM73.518 209.351c1.031 3.125 2.178 6.624 2.805 10.213l4.602 28.717c.267 1.774-.007 3.63-.164 5.933-1.687-8.935-3.261-18.351-4.787-27.776-.899-5.551-1.72-11.114-2.455-17.087zm7.324 47.967c1.258 4.938 2.666 10.166 3.488 15.484 1.361 8.806 2.345 17.671 3.25 26.801-2.089-11.158-3.953-22.605-5.782-34.057-.419-2.623-.716-5.265-.956-8.228zm14.837 101.973c1.383 5.062 2.93 10.42 3.801 15.885 1.063 6.667 1.559 13.424 2.054 20.439-2.161-11.795-4.076-23.888-5.855-36.324zm321.279 252.316c-.425-.572-1.042-1.538-.912-2.391 1.519-10.014 3.151-20.011 5.091-30.144-1.115 10.643-2.57 21.418-4.179 32.534zm13.954-95.991c.44-7.078.974-14.473 1.789-21.837.317-2.868 1.267-5.666 2.232-8.673-1.069 9.95-2.442 20.078-4.021 30.51zm6.895-45.041a468.28 468.28 0 0 1 1.601-20.187c.213-2.084.902-4.12 1.71-6.313-.808 8.638-1.954 17.411-3.311 26.5zM66.692 161.336c1.053 3.327 2.203 7.017 2.813 10.795.701 4.339.925 8.755 1.127 13.44-1.514-7.743-2.798-15.788-3.941-24.235zM426.56 545.348c.93-8.2 2.11-16.685 3.633-25.286-.899 8.257-2.141 16.629-3.633 25.286zm-313.82-72.051c1.165 3.877 2.395 8.049 3.152 12.306.624 3.51.688 7.12.763 10.975-1.51-7.457-2.782-15.203-3.915-23.281zm-3.25-21.933c.895-.036 2.348.312 2.385.773.467 5.852.73 11.72.915 18.059-1.22-5.815-2.311-12.105-3.3-18.832zm27.882 189.994c.755 1.495 1.654 3.361 1.956 5.319.956 6.191 1.69 12.416 2.276 18.918-1.609-7.748-2.985-15.786-4.232-24.237zm271.638 23.278c.296-5.493.74-11.304 1.344-17.099.185-1.773.81-3.499 1.529-5.428-.691 7.284-1.677 14.749-2.873 22.527zM116.494 499.353a211.93 211.93 0 0 1 3.164 17.209c-1.249-5.398-2.272-11.096-3.164-17.209z" class="D"/><path d="M497.525 64.039c.026-3.18.573-6.587.556-9.992-.014-2.734-.711-5.464-1.096-8.617.918 1.504 2.629 3.453 2.573 5.35-.128 4.358-1.117 8.69-2.033 13.259z" class="E"/><path d="M423.88 563.615a175.19 175.19 0 0 1 2.051-16.457c-.377 5.234-1.082 10.707-2.051 16.457zm18.149-122.969c.361-4.93.954-10.16 1.846-15.555-.338 4.975-.976 10.115-1.846 15.555z" class="D"/><path d="M56.854 96.308c1.168 5.215 2.151 10.732 2.931 16.669-1.174-5.176-2.145-10.771-2.931-16.669z" class="E"/><path d="M127.688 575.33c1.127 5.059 2.129 10.515 2.896 16.267-1.164-5.093-2.092-10.482-2.896-16.267z" class="D"/><path d="M465.781 281.203c.339-5.101.967-10.43 1.91-15.982-.33 5.103-.976 10.428-1.91 15.982z" class="E"/><path d="M412.718 638.559c.171-3.586.594-7.454 1.338-11.474-.148 3.63-.618 7.41-1.338 11.474zm-6.864 48.042a70.14 70.14 0 0 1 1.007-9.511c-.078 2.958-.442 6.081-1.007 9.511z" class="D"/><path d="M494.956 83.663c.101-3.318.425-6.944 1.067-10.735-.07 3.366-.457 6.897-1.067 10.735z" class="E"/><path d="M102.722 406.336a81.57 81.57 0 0 1 1.928 10.226c-.82-3.074-1.426-6.448-1.928-10.226zm4.911 32.007a77.39 77.39 0 0 1 1.845 10.323c-.82-3.127-1.385-6.52-1.845-10.323zm338.259-24.72c.094-2.597.411-5.481 1.009-8.53-.075 2.638-.431 5.44-1.009 8.53z" class="D"/><path d="M474.73 220.171c.164-3.512.594-7.277 1.344-11.214-.146 3.539-.613 7.25-1.344 11.214z" class="E"/><path d="M142.601 675.271c.837 3.121 1.531 6.586 1.995 10.334-.866-3.142-1.502-6.566-1.995-10.334z" class="D"/><path d="M458.848 328.212c.089-3.06.411-6.383 1.024-9.97-.069 3.059-.43 6.383-1.024 9.97zm18.129-123.53c.063-2.881.356-6.053.947-9.468-.04 2.897-.379 6.037-.947 9.468z" class="E"/><path d="M71.771 196.304c.736 2.481 1.344 5.295 1.701 8.369-.777-2.506-1.303-5.271-1.701-8.369z" class="D"/><path d="M50.74 55.293c.833 2.848 1.454 5.994 1.828 9.4-.844-2.861-1.442-5.981-1.828-9.4zm3.035 20.999c.832 2.896 1.482 6.089 1.963 9.699-.827-2.856-1.487-6.129-1.963-9.699zm427.181 103.38c.065-2.53.333-5.362.873-8.44-.042 2.548-.356 5.344-.873 8.44z" class="E"/><path d="M435.91 481.622a52.05 52.05 0 0 1 1.117-8.56c-.088 2.667-.493 5.465-1.117 8.56z" class="D"/><path d="M469.908 253.693c.044-2.565.341-5.395.916-8.466-.036 2.573-.35 5.387-.916 8.466zm21.05-142.984c.018-2.571.294-5.398.851-8.473-.01 2.574-.302 5.396-.851 8.473zm-35.102 236.998c.048-2.253.365-4.744.945-7.476-.05 2.252-.363 4.745-.945 7.476zM52.207 67.242c.714 1.682 1.187 3.56 1.496 5.814-.688-1.622-1.212-3.62-1.496-5.814z" class="E"/><path d="M65.005 151.386c.708 1.681 1.307 3.764 1.705 6.148-.738-1.715-1.276-3.73-1.705-6.148zm342.718 523.181c-.137-1.61-.033-3.501.377-5.512.159 1.663.012 3.447-.377 5.512zm-259.835 27.912c1.626.599 3.341 1.513 5.113 2.752-1.637-.595-3.331-1.516-5.113-2.752z" class="D"/><path d="M471.637 242.113c-.166-1.811-.056-3.866.356-6.134.175 1.821.047 3.855-.356 6.134z" class="E"/><path d="M422.821 570.6c-.175-1.317-.127-2.924.202-4.605.195 1.389.108 2.852-.202 4.605z" class="D"/><path d="M462.888 302.66c-.189-1.678-.131-3.652.244-5.751.212 1.735.108 3.595-.244 5.751zm1.033-8.003c-.197-1.664-.153-3.634.202-5.738.22 1.721.129 3.576-.202 5.738z" class="E"/><path d="M105.475 425.287c.578 1.114 1 2.578 1.229 4.296-.59-1.147-.987-2.546-1.229-4.296zm39.084 263.998c.517 1.139.894 2.628 1.056 4.354-.542-1.177-.869-2.591-1.056-4.354zm1.016 7.965c.883 1.208 1.615 2.734 2.307 4.605-.845-1.199-1.652-2.743-2.307-4.605zm270.217-79.62c-2.331-1.299-1.837-2.553.513-3.653.106 1.112-.083 2.253-.513 3.653z" class="D"/><path d="M450.766 384.219c-.225-1.424-.219-3.076.115-4.987.257 1.414.187 3.086-.115 4.987zm34.828-238.121c-.172-1.48-.059-3.18.335-5.109.17 1.477.06 3.183-.335 5.109zm-2.82 20.091c-.199-1.516-.122-3.28.284-5.225.217 1.538.104 3.258-.284 5.225z" class="E"/><path d="M70.68 188.292c.505 1.248.891 2.856 1.176 4.853-.499-1.238-.897-2.865-1.176-4.853zm377.126 213.315c-.107-1.32.036-2.909.497-4.576.129 1.384-.059 2.845-.497 4.576z" class="D"/><path d="M457.532 337.12c-.215-1.459-.14-3.063.264-4.902.228 1.429.127 3.093-.264 4.902z" class="E"/><path d="M141.592 669.248c.599 1.021 1.071 2.357 1.249 3.81-.655-1.088-1.015-2.291-1.249-3.81zm-40.11-270.957c.509 1.146.892 2.645 1.049 4.381-.543-1.185-.858-2.606-1.049-4.381zm3.092 20.971c.502.842.875 2.011 1.043 3.396-.528-.879-.85-1.974-1.043-3.396zm340.405 1.398c-.201-.986-.191-2.25.101-3.62.225 1.043.168 2.193-.101 3.62z" class="D"/><path d="M488.038 130.743c-.274-.965-.36-2.172-.186-3.569.298.983.336 2.155.186 3.569zm-426.183-.5c.511.973.836 2.184.981 3.751-.509-.934-.837-2.223-.981-3.751zm406.923 130.979c-.206-1.223-.123-2.662.286-4.272.219 1.238.11 2.647-.286 4.272zM50.507 48.876c.41 1.106.544 2.322.466 3.959-.389-1.002-.566-2.426-.466-3.959zm433.312 109.873c-.226-1.022-.201-2.237.109-3.614.237 1.032.189 2.227-.109 3.614zm8.801-58.545c-.23-1.129-.195-2.41.137-3.951.241 1.093.184 2.446-.137 3.951zM55.63 88.207c.553.995.896 2.212 1.089 3.814-.533-.941-.916-2.266-1.089-3.814zm399.29 266.48c-.239-1.039-.214-2.348.085-3.789.242 1.085.211 2.302-.085 3.789zM59.692 116.207c.573 1.008.934 2.234 1.089 3.824-.571-.959-.936-2.283-1.089-3.824zm1.034 7.012c.591.96.979 2.146 1.19 3.697-.582-.914-.987-2.192-1.19-3.697zm1.919 12.928c.552.762.868 1.684.989 2.96-.538-.698-.882-1.749-.989-2.96zm431.01-44.977c-.201-.89-.114-1.97.265-3.232.202.893.113 1.968-.265 3.232zm-40.651 275.615c-.249-.702-.299-1.597-.093-2.65.268.714.28 1.585.093 2.65zm36.74-248.492c-.226-.839-.203-1.817.102-3.054.237.799.192 1.856-.102 3.054zm-1.052 6.993c-.232-.831-.211-1.787.067-3.016.233.782.21 1.837-.067 3.016zm-1.605 11.514c-.282-.846-.24-1.861.093-2.94.271.881.251 1.826-.093 2.94zm-8.494 56.446c-.223-.892-.165-1.866.218-3.052.238.849.151 1.91-.218 3.052zm1.215-5.969c-.223-.805-.234-1.796.052-3.043.251.782.206 1.819-.052 3.043zM63.785 144.193c.528.704.865 1.603 1.008 2.845-.529-.655-.864-1.652-1.008-2.845zm385.762 247c-.218-.838-.18-1.788.152-2.965.231.799.167 1.826-.152 2.965z" class="E"/><path d="M106.835 433.241c.377.564.67 1.432.765 2.468-.415-.609-.631-1.387-.765-2.468z" class="D"/><path d="M462.007 307.731c-.246-.777-.23-1.793.065-2.887.252.831.225 1.739-.065 2.887zm-1.318 8.473c-.221-.931-.168-2.051.212-3.316.238.946.151 2.037-.212 3.316zm13.374-91.395c-.288-.733-.353-1.639-.149-2.689.304.743.338 1.63.149 2.689zm-1.135 8c-.28-.746-.32-1.648-.088-2.687.29.753.309 1.642.088 2.687zm-20.914 141.903c-.247-.735-.262-1.734-.019-2.843.256.786.253 1.683.019 2.843z" class="E"/><path d="M415.062 624.74c-.306-.724-.35-1.656-.147-2.699.301.756.355 1.624.147 2.699z" class="D"/><path d="M494.226 42.352c-.66.104-1.465-.066-2.34-.571.685-.124 1.44.086 2.34.571zM464.908 286.85c-.265-.469-.321-1.055-.126-1.748.279.472.307 1.051.126 1.748zm32.075-216.995c-.261-.455-.32-1.032-.144-1.737.272.453.309 1.034.144 1.737zm-11.975 79.988c-.251-.446-.314-1.032-.151-1.736.264.453.301 1.025.151 1.736z" class="E"/><path d="M422.002 576.824c-.26-.45-.331-1.028-.167-1.726.276.453.316 1.026.167 1.726z" class="D"/><path d="M453.687 361.342c-.219-.581-.197-1.234.075-2.116.222.529.194 1.287-.075 2.116z" class="E"/><path d="M404.497 344.456l-42.941 295.347-3.693-4.086-15.496-21.969c-1.075-1.6-1.748-4.009-1.487-5.89l17.037-120.631 12.99-94.959 13.802-95.302 8.226-60.812 11.357-81.608c1.298-11.017 4.646-19.759 13.635-26.754 6.958-5.414 12.785-12.28 19.114-18.501l1.424.531-33.969 234.635zm-242.316-73.498l.293 4.842c.262 1.506.519 2.323.776 3.141l.33 4.937.933 5.211.613 6.784c.387 2.202.775 3.629 1.163 5.056l.064 1.998.882 4.015.006 2.061.866 7.971 1.297 8.793c.257 1.172.464 1.693.672 2.214l.558 5.767c.209 1.172.398 1.687.586 2.201l.271 3.822c.208 1.153.395 1.682.582 2.211l.183 3.882c.36 1.811.705 2.937 1.051 4.062l.158 4.863a9.83 9.83 0 0 0 .637 2.186l.164 2.908.778 4.105.16 2.914.908 4.07 1.312 10.871.855 5.088.118 2.915c.236 1.481.458 2.307.68 3.134l.156 2.943 1.13 4.989-.015 3.936c.423 2.044.849 3.384 1.276 4.723l-.102 2.283a11.19 11.19 0 0 0 .564 2.124l.142 2.918c.333 1.803.655 2.928.978 4.053l.282 4.851c.354 1.731.726 2.761 1.098 3.792l.389 5.374 1.109 6.011.049 4.874a18.83 18.83 0 0 0 .945 3.127l.491 5.844c.279 1.336.567 2.102.855 2.868l.092 3.134a13.6 13.6 0 0 0 .492 2.17l.391 4.769c.237 1.163.445 1.692.653 2.221l.154 3.888c.368 1.819.717 2.939 1.065 4.059l.305 5.935 1.137 5.197.32 4.874 1.25 5.991.125 2.938.785 4.084.092 1.981.913 4.021.131 3.901a45.31 45.31 0 0 0 .83 4.107l.17 3.894a32.75 32.75 0 0 0 .995 4.066l.221 3.923.736 4.085.897 7.973.949 5.066-.024 2.957c.378 1.814.752 2.915 1.126 4.015l.208 4.908 1.552 7.15.296 4.826a27.68 27.68 0 0 0 .813 3.15l.25 4.843c.28 1.515.532 2.332.784 3.15l.365 3.809a13.54 13.54 0 0 0 .574 2.204l.105 3.895c.376 1.825.746 2.937 1.116 4.049l-.079 3.984-.075 11.122a30.64 30.64 0 0 1-1.473 1.648c-2.131 3.028-3.86 5.682-5.59 8.337l-10.312 13.949c-1.127-.045-2.215-.47-2.37-1.117-.933-3.919-1.653-7.888-2.445-11.841l-.098-3.921c-.357-2.174-.699-3.61-1.042-5.046l-.143-2.903c-.292-1.474-.555-2.291-.817-3.108l-.34-4.8c-.229-1.171-.425-1.69-.62-2.209a55.27 55.27 0 0 0-.021-1.983c-.353-1.763-.676-2.887-1-4.011l-.198-3.904a46.22 46.22 0 0 0-.917-4.067l-.276-3.978-2.673-16.034-.304-3.906c-.263-1.84-.5-2.964-.738-4.088l-1.03-8.877c-.311-1.492-.603-2.316-.896-3.139l-.242-4.831c-.226-1.509-.471-2.344-.717-3.18l-.178-4.895c-.551-3.212-1.129-5.672-1.708-8.131a76.62 76.62 0 0 1-.243-2.927c-.386-2.132-.749-3.559-1.113-4.986l-.003-3.912c-.336-1.487-.707-2.275-1.079-3.064l-.084-3.987c-.548-3.198-1.055-5.651-1.562-8.104l-.115-3.898c-.328-1.838-.669-2.954-1.01-4.07a54.85 54.85 0 0 1-.153-2.919 40.46 40.46 0 0 0-.782-4.098l-.159-2.915c-.301-1.805-.597-2.938-.893-4.072l-.184-2.9c-.267-1.466-.507-2.291-.747-3.116a121.83 121.83 0 0 1-.371-4.831c-.2-1.52-.41-2.345-.621-3.171l-.319-3.859c-.273-1.736-.508-2.8-.743-3.864l-.923-8.179c-.366-1.878-.705-2.983-1.044-4.088-.121-1.059-.242-2.118-.371-3.918-.537-3.191-1.066-5.642-1.595-8.092l-.03-2.963c-.402-2.137-.798-3.56-1.194-4.982l.012-3.915c-.385-1.907-.773-3.114-1.161-4.321l-.027-3.709c-.365-1.979-.742-3.328-1.119-4.676.173-.307.214-.631.177-1.359-.158-.956-.371-1.524-.585-2.092l-.207-3.892c-.328-1.841-.606-2.964-.884-4.088l-.135-3.961c-.608-3.875-1.209-6.963-1.811-10.051l-.266-3.81c-.222-1.157-.436-1.683-.649-2.209l-.237-3.903c-.372-2.164-.716-3.595-1.059-5.026l-.236-3.85a12.14 12.14 0 0 0-.671-2.177l-.34-4.807a12.42 12.42 0 0 0-.61-2.204c-.063-.75-.127-1.499-.197-2.894-.36-1.707-.714-2.769-1.069-3.831l-.19-3.214c-.188-1.387-.369-2.223-.551-3.059l-.413-4.916c-.528-3.88-1.056-6.982-1.584-10.085l.02-2.921c-.382-1.462-.748-2.258-1.113-3.055l-1.019-8.89c-.295-1.847-.603-2.989-.91-4.13-.003-.752-.006-1.504-.097-2.927-.352-1.473-.615-2.275-.879-3.077l-.392-4.897c-.37-2.414-.723-4.065-1.075-5.716l-5.928-44.433-13.502-92.255-5.111-35.038-1.208-9.332 1.203-.914 23.528 22.981c1.085.894 1.797 1.35 2.509 1.807.008.337.156.594.707 1.151.927.855 1.59 1.33 2.253 1.806 0 0 .109-.193.094.194.422.777.86 1.167 1.298 1.556l.166 1.98c.306 1.762.576 2.892.846 4.021l.097 2.912c.325 1.461.635 2.267.946 3.072l.166 3.874a21.44 21.44 0 0 0 .705 3.16l.376 4.789c.214 1.169.411 1.692.608 2.215l.267 4.829c.25 1.504.503 2.334.756 3.164l.273 3.876c.307 1.49.546 2.3.786 3.11l.991 8.915a47.75 47.75 0 0 0 1.034 4.08l.028 3.923c.339 1.83.683 2.946 1.026 4.062l.305 4.926c.289 1.478.594 2.388.898 3.297l.799 8.66c.338 1.856.665 2.987.993 4.118l.034 3.977c.929 6.531 1.896 12.29 2.864 18.049l.016 2.951c.406 2.385.841 4.069 1.276 5.752.019.587.038 1.174.035 2.328.482 2.715.986 4.863 1.491 7.011l-.038 3.946c.404 2.176.809 3.595 1.214 5.014z" class="J"/><path fill="#f5f5f5" d="M380.639 576.67l11.992-82.947 10.319-72.146 8.164-54.259 9.788-68.64 9.715-64.648 14.308-100.28 5.317-35.531c.236-1.485 1.186-3.096 2.277-4.167l20.486-19.619c.768-.728 1.74-1.24 3.837-2.704l-89.026 603.144-1.266.433c-3.423-4.713-6.449-9.792-10.365-14.053-5.71-6.214-6.532-12.864-5.152-20.952 3.582-20.996 6.405-42.121 9.604-63.63z"/><path fill="#f6f6f6" d="M154.341 621.876a8.47 8.47 0 0 1-.106-2.772c-.279-3.124-.83-5.624-1.382-8.124l-8.984-60.714-13.461-90.858-13.69-90.793-8.836-62.28-8.923-58.679-10.182-69.103-9.273-63.237-6.441-43.356c1.16.444 2.077.532 2.596 1.032L98.44 95.28c1.024 1.034 1.308 2.997 1.542 4.588l11.228 77.055 10.718 71.563 10.057 72.126 10.147 68.656 15.722 109.227 10.94 74.06 10.574 73.598c1.294 7.521-2.725 11.368-6.587 16.586-1.146 1.446-1.699 2.612-2.253 3.779-1.918 2.76-3.836 5.521-6.315 8.32-1.241-1.647-1.92-3.333-2.6-5.019-.348-2.498-.697-4.997-.931-8.252-.222-1.369-.559-1.982-.896-2.594-.247-1.742-.494-3.484-.477-5.76-.073-1.484-.411-2.434-.748-3.385-.185-.702-.37-1.404-.296-2.638-.038-1.479-.335-2.426-.632-3.373-.44-2.812-.879-5.623-1.114-9.116-.146-1.415-.496-2.148-.846-2.881-.198-1.665-.396-3.33-.335-5.622-.16-1.859-.58-3.091-.999-4.322z"/><path d="M345.799 502.716l-13.62 96.797c-5.586-7.516-9.862-14.135-15.01-19.988-7.223-8.211-8.008-16.909-6.355-27.525 5.35-34.358 9.607-68.888 14.193-103.364l13.935-105.922 16.231-119.163 4.814-36.123c.286-1.967 1.333-4.172 2.726-5.573l28.431-27.929c.659-.642 1.531-1.064 3.521-2.416l-1.67 15.124-16.379 114.629-15.76 114.226-15.057 107.226zm-120.601 86.538c-1.136 1.852-2.273 3.704-4.03 5.622-1.918-1.259-3.216-2.584-4.513-3.909-.2-1.421-.4-2.842-.332-4.814-.068-1.81-.403-3.07-.739-4.329-.167-.704-.334-1.407-.249-2.666-.121-1.808-.494-3.062-.868-4.315-.109-.409-.218-.819-.102-1.694-.027-1.034-.279-1.602-.531-2.171-.12-.608-.24-1.217-.184-2.462-.251-1.988-.678-3.338-1.105-4.689-.13-1.352-.26-2.704-.083-4.647-.1-1.845-.508-3.099-.916-4.353-.081-.415-.162-.83-.005-1.795-.155-2.105-.548-3.659-.941-5.213-.461-3.337-.922-6.675-1.193-10.596-.125-1.527-.44-2.469-.755-3.412-.217-1.334-.434-2.668-.343-4.651-.371-3.88-1.05-7.11-1.729-10.341-.115-.41-.231-.82-.062-1.726-.079-1.759-.442-3.02-.805-4.282-.133-1.031-.266-2.061-.144-3.689-.188-1.827-.632-3.057-1.076-4.287-.133-1.029-.266-2.058-.101-3.671-.101-1.833-.502-3.083-.902-4.332-.107-.41-.214-.819-.054-1.695-.045-1.421-.357-2.376-.669-3.331-.23-1.334-.459-2.667-.464-4.518-.083-1.166-.391-1.816-.699-2.465-.18-1.667-.361-3.334-.252-5.671-.387-3.893-1.063-7.115-1.74-10.337-.157-.708-.314-1.417-.179-2.659-.007-1.415-.306-2.296-.606-3.177-.244-1.742-.488-3.484-.533-5.717-.115-1.137-.429-1.784-.743-2.431-.176-1.02-.352-2.039-.278-3.684-.098-2.186-.446-3.746-.793-5.307-.146-.708-.293-1.417-.209-2.61-.024-1.133-.278-1.782-.532-2.43-.16-.706-.32-1.413-.213-2.706-.171-2.142-.609-3.697-1.046-5.252-.117-1.028-.234-2.057-.122-3.586-.059-1.15-.346-1.799-.633-2.448-.417-2.833-.834-5.665-1.07-9.258-.139-1.361-.459-1.963-.78-2.565-.27-2.07-.539-4.14-.568-6.745.01-1.109-.22-1.683-.451-2.257-.231-1.427-.463-2.853-.463-4.909-.419-3.841-1.069-7.053-1.719-10.265-.124-.407-.247-.815-.13-1.738-.133-1.763-.507-3.01-.881-4.257-.191-1.339-.381-2.678-.344-4.593-.059-1.522-.346-2.468-.633-3.414-.202-1.014-.404-2.027-.366-3.633-.074-1.851-.388-3.11-.702-4.369-.169-.699-.338-1.398-.25-2.595.002-1.074-.253-1.651-.508-2.228-.11-1.263-.22-2.527-.136-4.522-.277-2.03-.749-3.328-1.22-4.626a8.28 8.28 0 0 1-.08-2.773c-.429-4.501-1.143-8.37-1.856-12.24-.123-.407-.246-.815-.122-1.689-.044-1.03-.334-1.593-.624-2.156-.139-1.554-.278-3.107-.25-5.394-.241-2.072-.649-3.412-1.057-4.751-.128-.405-.255-.809-.141-1.765-.159-2.105-.561-3.659-.962-5.213-.1-.412-.201-.824-.065-1.697-.008-1.032-.251-1.604-.494-2.176-.211-1.756-.421-3.511-.355-5.873-.104-1.785-.484-2.965-.864-4.145-.165-1.106-.331-2.211-.266-3.796-.01-1.047-.25-1.615-.49-2.183-.288-1.103-.576-2.206-.587-3.84.029-1.41-.218-2.288-.466-3.167-.094-.635-.188-1.269-.111-2.575-.223-1.978-.618-3.286-1.012-4.593-.178-1.341-.357-2.682-.282-4.582-.095-1.51-.442-2.462-.79-3.414-.174-1.018-.349-2.036-.291-3.612-.064-1.503-.36-2.449-.657-3.394-.166-.704-.332-1.408-.259-2.612-.015-1.069-.269-1.639-.523-2.208-.202-1.438-.405-2.877-.364-4.886-.189-1.801-.621-3.031-1.052-4.261-.129-.712-.258-1.423-.143-2.708-.107-1.818-.459-3.063-.81-4.308-.456-3.344-.912-6.688-1.111-10.592-.068-1.515-.394-2.47-.719-3.425-.172-1.344-.344-2.688-.245-4.586-.089-1.507-.448-2.459-.807-3.411-.161-1.023-.321-2.047-.203-3.661-.164-1.825-.607-3.059-1.051-4.293-.088-.413-.176-.826-.026-1.701-.056-1.424-.349-2.385-.643-3.347-.177-1.343-.353-2.685-.293-4.596-.099-1.513-.435-2.459-.77-3.404-.187-1.335-.374-2.67-.341-4.582-.12-1.517-.46-2.457-.801-3.396-.159-.705-.318-1.411-.235-2.616.032-1.076-.178-1.652-.388-2.227-.587-3.732-1.175-7.463-1.529-11.759-.105-1.511-.443-2.459-.782-3.407-.169-1.021-.339-2.041-.237-3.648-.031-1.459-.333-2.333-.635-3.207-.223-1.419-.447-2.838-.441-4.77-.002-1.083-.232-1.652-.462-2.222-.475-3.345-.95-6.69-1.101-10.354.675-.442 1.026-.564 1.378-.686 2.597 2.413 5.194 4.826 7.924 7.894 1.35 1.525 2.566 2.395 3.783 3.266.6.497 1.201.993 1.984 2.057 1.195 1.328 2.206 2.089 3.218 2.85 1.754 1.75 3.273 3.858 5.302 5.189 9.469 6.212 11.408 15.628 12.689 26.052l14.044 105.927 13.037 97.953 15.803 117.232 5.537 41.058c.599 3.982-.284 7.009-2.761 10.012-2.628 3.186-4.917 6.652-7.919 10.29-.879 1.053-1.194 1.811-1.508 2.57-.296.445-.591.89-1.445 1.523-.899.941-1.239 1.693-1.579 2.446z" class="J"/><path d="M338.966 267.996c-.05.722-.1 1.443-.543 2.607-.406 1.76-.42 3.078-.434 4.396-.168 1.662-.335 3.324-.882 5.58-.616 3.871-.853 7.147-1.089 10.424-.061.72-.123 1.44-.584 2.566-.407 1.415-.414 2.424-.421 3.433-.177 2.317-.355 4.633-.89 7.445-.286 1.18-.216 1.865-.145 2.55-.154 1.663-.308 3.326-.829 5.459-.328 1.157-.289 1.843-.25 2.53-.098.713-.195 1.426-.694 2.58-.353 1.437-.305 2.432-.257 3.427-.078 1.029-.156 2.059-.654 3.555-.431 1.788-.442 3.109-.454 4.43l-10.138 77.205-10.865 80.642c-2.293 16.79-4.715 33.562-7.994 50.565-.577-1.865-1.237-3.708-1.717-5.597l-16.798-66.639c-.941-3.828-1.252-7.897-1.257-11.855l-.176-155.907c-.053-8.31 2.064-14.72 7.231-21.217 17.049-21.437 33.492-43.356 50.201-65.064 2.146-2.788 4.493-5.422 7.467-8.991 0 3.803 0 6.34-.439 9.385-.435 1.835-.43 3.161-.425 4.488-.045.721-.089 1.441-.537 2.59-.508 2.465-.613 4.501-.718 6.537-.028.679-.056 1.358-.44 2.431-.304 1.081-.252 1.768-.2 2.456-.134 1.667-.268 3.335-.771 5.472-.322 1.156-.274 1.842-.226 2.529-.077 1.033-.154 2.066-.671 3.56-.442 1.782-.444 3.103-.446 4.424-.092 1.028-.185 2.056-.687 3.55-.379 1.46-.348 2.455-.316 3.449-.103 1.025-.207 2.051-.712 3.549-.343 1.469-.284 2.464-.225 3.46-.142 1.669-.283 3.337-.793 5.486-.319 1.158-.271 1.835-.222 2.512zM455.634 77.815l-1.75 1.194-2.893 2.987-7.152 6.837c-1.252.67-2.066 1.019-3.332 1.251l-77.194-.139-42.307.337-8.028-.287-31.972.243-16.014-.278-82.584-.016c-4.467.003-8.935.21-13.402.323l-60.766-.42-2.305-.468-6.409-6.759c-1.049-.853-1.705-1.331-2.361-1.81 0 0-.14.128-.078-.238-1.014-1.305-2.09-2.244-3.166-3.182L77.51 61.224h394.425c-1.833 2.095-3.193 3.651-5.061 5.506-1.036.919-1.565 1.538-2.095 2.158-.324-.014-.595.099-1.193.665-1.187 1.33-1.992 2.334-2.798 3.339l-3.122 2.66c-.958.991-1.496 1.627-2.033 2.263z" fill="#fafafa"/><path fill="#f8f8f8" d="M257.35 486.297l-9.22 47.17-1.716.071-44.288-329.983.816-.501c.765.832 1.627 1.594 2.279 2.506l55.152 77.469c1.784 2.548 2.029 6.57 2.035 9.909l-.134 148.939c-.068 10.926-1.538 21.854-2.603 32.757-.37 3.785-1.469 7.498-2.32 11.662z"/><path fill="#fff" d="M140.404 122.365c-2.815-2.751-5.629-5.502-8.508-8.919-2.374-2.569-4.683-4.471-6.993-6.374 0 0 .088-.063.076-.377.337-2.423.685-4.532 1.033-6.642.56-.032 1.12-.065 1.881.52.259 1.524.317 2.43.375 3.336l.781-.159-.987-3.338c1.461-.176 2.921-.504 4.382-.506l100.104.457c2.246 1.183 4.032 2.513 5.776 2.461 34.253-1.024 68.516 1.681 102.811-1.498 17.128-1.588 34.561-.786 51.89 1.28 9.106 1.086 18.583-1.293 27.901-1.405 2.503-.03 6.02-1.44 8.073 1.797-2.655 2.669-5.311 5.339-8.644 8.071-1.164.819-1.649 1.576-2.134 2.332-1.733 1.862-3.465 3.723-5.881 5.652-1.171.813-1.659 1.558-2.147 2.302 0 0-.064.395-.598.474-1.834 1.544-3.133 3.008-4.431 4.472-.005.329-.147.578-1.05.784-3.092.674-5.562 1.868-8.033 1.871l-238.236.155c-1.98.002-3.959.824-5.938 1.263-.409.071-.818.141-1.593-.227-2.444-1.915-4.523-3.391-6.601-4.867 0 0 .284-.281.203-.527-1.225-.961-2.368-1.677-3.512-2.392M313.5 104.999h22.194l-.025-.711h-61.541l-.002.711H313.5m105.226 3.537l.837-.793c-.109-.114-.307-.334-.314-.328-.294.247-.57.515-.523 1.121z"/><path d="M185 140.704l205.44.003-14.025 14.174c-6.516 6.397-12.98 12.86-19.77 18.956-1.858 1.668-4.799 3.001-7.249 3.009-49.639.161-99.279.159-148.918-.055-2.598-.011-5.722-1.615-7.689-3.453-10.411-9.73-20.535-19.767-30.735-29.721-.545-.531-.878-1.279-1.971-2.918l24.916.003zm45.085 83.167l-25.675-36.46h140.701l-12.23 16.202-55.204 71.903c-4.237 5.533-6.501 5.66-10.571.008l-37.021-51.654z" fill="#fafafa"/><path d="M375.645 676.579l.909 1.79 3.233 4.032.302.891c-.946 1.142-2.065 1.784-3.183 2.426l-7.833-.306c-55.498-.032-110.127-.014-164.755.028l-30.406.172-1.888-.28c-.496-1.538-.341-2.97-.187-4.402l3.615-4.368a29.11 29.11 0 0 0 1.311-2.611l.686-.491c.741-.992 1.127-1.732 1.512-2.472 0 0 .304-.104.624-.413a33.27 33.27 0 0 0 1.693-2.433l2.152-2.616c.743-1.106 1.119-1.826 1.495-2.546l1.76-2.193c.758-1.177 1.181-1.907 1.605-2.637l44.393-.389 127.468.067c1.742.991 2.842 1.869 3.942 2.748l8.621 12.518c1.112 1.548 2.022 2.516 2.931 3.483zm-36.783-51.259l.947 1.889 1.99 2.283.914 1.779 2.105 2.16s-.073.354.065.797c1.026 1.445 1.913 2.446 2.801 3.448a5.39 5.39 0 0 0 .159.603c.796 1.16 1.474 1.946 2.151 2.733l4.247 6.979c-52.607 0-104.498 0-156.834-.266-.447-.758-.449-1.25-.451-1.742l2.506-3.363c.864-1.465 1.371-2.47 1.878-3.476l4.94-5.892c1.513-2.366 2.66-4.282 3.807-6.198 0 0-.077-.049.274-.084 1.169-1.324 1.987-2.612 2.805-3.901l4.015-5.036c1.191-.598 2.006-.813 2.821-1.028l64.32.282 41.893-.138c4.899-.147 8.268.936 10.569 5.948.843 1.114 1.46 1.667 2.077 2.221M287.672 644h-6.023l.07 1.373h60.569l.004-1.373h-54.621m34.599-23.998H275.1l.003.719h52.819l.008-.719h-5.658z" class="J"/><path fill="#f5f5f5" d="M268.758 607.586h-44.064c6.381-9.112 12.503-16.923 17.565-25.37 4.242-7.078 9.726-8.975 17.605-8.558 12.288.65 24.635.274 36.955.137 3.304-.036 5.468.907 7.421 3.755 6.638 9.679 13.598 19.136 21.407 30.037-19.739 0-38.076 0-56.89 0z"/><path fill="#f4f4f4" d="M268.005 563.736h-15.821l19.223-98.722 1.793-.034 24.753 98.756h-29.947z"/><path d="M429.395 102.939c-2.449-3.177-5.966-1.767-8.469-1.737-9.318.112-18.795 2.491-27.901 1.405-17.328-2.066-34.761-2.868-51.89-1.28-34.295 3.179-68.558.474-102.811 1.498-1.744.052-3.53-1.278-5.316-2.371 13.933-.556 27.885-.815 41.838-.833l150.18-.053h6.846c-1.018 1.619-1.549 2.465-2.477 3.371zM152.347 130.57c1.54-.631 3.519-1.453 5.499-1.455l238.236-.155c2.471-.003 4.941-1.198 7.815-1.819-1.01 3.865-4.27 3.626-7.47 3.626l-98.855.031-145.224-.227z" class="H"/><path d="M321.01 90.686c14.097-.523 28.199-.717 42.301-.742l77.159.365a1.49 1.49 0 0 1 .501.796c.153 4.022-2.892 2.858-4.931 2.862l-96.628.038c-4.981 0-9.974.184-14.934-.135-1.209-.078-2.311-1.808-3.468-3.183z" class="K"/><path d="M174.077 685.954c9.969-.401 20.104-.505 30.24-.513l164.333.085c-1.045.589-2.536 1.37-4.027 1.371-62.188.052-124.376.038-186.563-.001-1.272-.001-2.544-.392-3.982-.942z" class="F"/><path d="M169.01 90.673c4.462-.519 8.929-.727 13.397-.729l82.136.161c.766 2.856-.262 3.958-3.177 3.95l-88.893-.175c-1.158-.006-2.305-1.826-3.463-3.206zm112-.028c10.361-.494 20.726-.581 31.539-.515.773 2.907-.332 3.977-3.206 3.926-8.3-.148-16.607.062-24.903-.184-1.169-.035-2.285-1.835-3.43-3.226z" class="K"/><path d="M158.454 243.678c-1.233-5.479-2.201-11.239-2.997-17.39a190.35 190.35 0 0 1 2.997 17.39zm27.211 381.58c1.075 3.707 1.795 7.676 2.729 11.595.154.647 1.243 1.072 2.28 1.449-.393.893-1.166 1.936-1.939 2.979l-1.401-.388c-.65-5.13-1.301-10.26-1.668-15.635zm-8.137-55.955c1.146 4.834 2.015 9.923 2.776 15.414-1.09-4.785-2.071-9.972-2.776-15.414z" class="C"/><path d="M125.588 99.903c.076 2.259-.272 4.369-.641 6.836-2.141-1.643-4.261-3.643-6.382-5.643l.193-1.343 6.83.15m-3.227 1.601l.194.108s-.029-.211-.194-.108z" class="H"/><path d="M216.441 591.26c1.511 1.032 2.809 2.357 4.457 3.808-.354 1.377-1.058 2.629-1.763 3.88l-1.381.144-1.314-7.831zm-35.03-251.019c.873 3.45 1.587 7.32 2.039 11.458-.908-3.501-1.553-7.269-2.039-11.458zm18.041 128.981c.837 2.813 1.514 6.035 1.927 9.507-.871-2.866-1.48-5.982-1.927-9.507z" class="B"/><path d="M208.497 613.987c-.345-3.401-.332-6.85-.17-10.688 3.061 3.192 3.473 6.858.17 10.688z" class="C"/><path d="M206.408 519.204c.851 2.845 1.53 6.076 1.924 9.547-.889-2.894-1.493-6.028-1.924-9.547zm129.856-228.506c-.008-2.972.228-6.249.747-9.715.021 3.011-.241 6.21-.747 9.715z" class="B"/><path d="M142.578 327.292c.795 2.846 1.324 5.948 1.707 9.438-.755-2.803-1.364-5.992-1.707-9.437z" class="C"/><path d="M188.505 391.199c.822 2.82 1.472 6.032 1.88 9.51-.845-2.862-1.449-5.99-1.88-9.51z" class="B"/><path d="M150.656 383.275c.861 2.832 1.463 5.92 1.96 9.412-.809-2.782-1.514-5.969-1.96-9.412zm50.769 240.735c1.38-2.644 3.109-5.299 5.164-8.058a60.34 60.34 0 0 1-5.164 8.058z" class="C"/><path d="M124.952 107.408c2.261 1.567 4.571 3.469 6.817 5.744-2.298-1.555-4.534-3.481-6.817-5.744zm18.835 18.21c2.005 1.143 4.083 2.619 6.243 4.395-2.002-1.154-4.086-2.608-6.243-4.395z" class="H"/><path d="M167.64 501.264c.776 2.209 1.283 4.662 1.67 7.482-.726-2.168-1.333-4.704-1.67-7.482z" class="C"/><path d="M152.68 611.267c.725 2.213 1.276 4.712 1.577 7.472-.751-2.222-1.251-4.703-1.577-7.472z" class="B"/><path d="M161.271 261.754c-.771-1.903-1.275-4.051-1.633-6.497.731 1.885 1.315 4.068 1.633 6.497zm7.101 54.951c-.545-2.15-.826-4.572-.962-7.4.505 2.106.866 4.617.962 7.4zm3.364 211.53c.835 2.226 1.413 4.686 1.824 7.507-.805-2.183-1.443-4.729-1.824-7.507zm-14.117-94.972c.789 2.215 1.318 4.666 1.708 7.484-.749-2.171-1.359-4.71-1.708-7.484z" class="C"/><path d="M171.479 680.965c.202 1.398.047 2.83.248 4.49-1.668 2.517-2.734 1.457-2.631-.916.052-1.207 1.312-2.362 2.383-3.574z" class="F"/><path d="M161.458 670.19c.835 1.314 1.514 3 2.512 4.878-.436.348-1.19.504-1.943.661l-.568-5.538z" class="B"/><path d="M209.723 627.053c-.782 1.918-1.929 3.833-3.391 5.867.799-1.877 1.912-3.873 3.391-5.867z" class="G"/><path d="M204.25 568.787c-.776-1.92-1.291-4.055-1.662-6.544.736 1.874 1.33 4.101 1.662 6.544z" class="C"/><path d="M344.927 224.795c-.146-1.713-.041-3.749.389-5.86.171 1.796.017 3.666-.389 5.86z" class="B"/><path d="M186.377 440.755c-.666-1.525-1.038-3.275-1.295-5.412.606 1.471 1.097 3.329 1.295 5.412zm8.15 58.918c-.652-1.477-1.058-3.214-1.362-5.341.604 1.434 1.106 3.258 1.362 5.341zm-1.513-10.774c-.689-1.36-1.076-2.888-1.303-4.67.641 1.331 1.123 2.916 1.303 4.67z" class="C"/><path d="M405.486 126.221c.976-1.381 2.275-2.845 3.934-4.293-.964 1.414-2.288 2.812-3.934 4.293z" class="H"/><path d="M377.03 685.992c.994-.915 2.113-1.557 3.252-2.626.53.241 1.039.91 1.549 1.578-1.559.44-3.117.881-4.8 1.048z" class="F"/><path d="M196.324 446.196c.505 1.203.852 2.764.961 4.56-.532-1.244-.825-2.723-.961-4.56z" class="B"/><path d="M156.408 425.312c.644 1.193 1.039 2.616 1.296 4.406-.607-1.147-1.076-2.662-1.296-4.406z" class="C"/><path d="M178.259 319.217c.557 1.191.958 2.745 1.115 4.53-.586-1.235-.928-2.701-1.115-4.53z" class="B"/><path d="M137.23 291.804c.502 1.27.855 2.921 1.091 4.941-.491-1.274-.866-2.917-1.091-4.941z" class="C"/><path d="M194.372 433.22c.547 1.175.985 2.73 1.173 4.506-.594-1.228-.938-2.677-1.173-4.506z" class="B"/><path d="M166.537 300.7c-.635-1.196-1.022-2.623-1.277-4.414.597 1.152 1.06 2.667 1.277 4.414zm-1.694-11.748c-.648-1.402-.967-2.941-1.131-4.73.59 1.364 1.025 2.978 1.131 4.73zm-9.638 128.003c.69 1.099 1.078 2.306 1.331 3.832-.634-1.029-1.133-2.376-1.331-3.832zm-6.749-48.663c.593 1.21.936 2.641 1.154 4.438-.552-1.162-.978-2.69-1.154-4.438zm36.093 247.976c.603 1.213.945 2.649 1.155 4.451-.56-1.166-.988-2.697-1.155-4.451zm-6.033-229.556c-.507-1.219-.775-2.659-.916-4.463.47 1.171.812 2.706.916 4.463z" class="C"/><path d="M210.439 548.183c.555 1.19.948 2.745 1.107 4.53-.579-1.234-.924-2.7-1.107-4.53z" class="B"/><path d="M201.384 549.751c-.557-1.226-.856-2.674-1.03-4.482.512 1.18.9 2.72 1.03 4.482zm-30.977-29.426c.593 1.191.956 2.618 1.184 4.409-.562-1.148-.987-2.66-1.184-4.409zm10.19-119.645c-.604-1.195-.973-2.626-1.2-4.417.573 1.153 1.004 2.668 1.2 4.417zm-20.935-148.41c-.618-1.294-1.053-2.977-1.317-5.012.614 1.306 1.057 2.964 1.317 5.012zm2.773 18.45c-.659-1.181-1.064-2.6-1.364-4.39.609 1.137 1.113 2.644 1.364 4.39z" class="C"/><path d="M379.851 682.022c-1.051-.818-2.038-2.017-3.055-3.559 1.02.83 2.07 2.005 3.055 3.559z" class="F"/><path d="M176.363 370.775c-.545-.928-.839-2.056-1.016-3.524.5.881.884 2.102 1.016 3.524z" class="C"/><path d="M179.363 326.167c.562 1.004.97 2.343 1.186 4.03-.575-1-.957-2.347-1.186-4.03zm6.151 42.991c.421.905.736 2.164.81 3.625-.466-.956-.692-2.114-.81-3.625zm1.975 15.995c.551.907.925 2.154 1.061 3.596-.571-.955-.904-2.106-1.061-3.596z" class="B"/><path d="M152.618 397.232c.521.922.799 2.045.983 3.515-.472-.874-.849-2.094-.983-3.515zm29.15 11.977c-.571-.975-.997-2.314-1.259-3.987.577.986.991 2.304 1.259 3.987zm14.666 103.544c-.526-.928-.814-2.06-.965-3.526.493.885.848 2.103.965 3.526zm-14.816 84.479c.573.923.896 2.047 1.087 3.512-.534-.876-.935-2.093-1.087-3.512zm26.913 1.489c-.609-.904-.979-2.016-1.208-3.469.577.86 1.012 2.061 1.208 3.469zm-28.023-9.467c.539.92.833 2.035 1.018 3.5-.494-.869-.879-2.087-1.018-3.5z" class="C"/><path d="M215.437 582.165c.482.918.818 2.177.903 3.628-.517-.968-.783-2.127-.903-3.628zm-1.155-6.989c.559.92.933 2.174 1.049 3.62-.583-.967-.909-2.127-1.049-3.62zm-1.902-11.019c.593 1.02 1.02 2.371 1.216 4.052-.614-1.02-.998-2.371-1.216-4.052z" class="B"/><path d="M176.529 561.249c.472.929.709 2.053.814 3.521-.438-.879-.743-2.102-.814-3.521z" class="C"/><path d="M211.36 555.164c.595.918 1.003 2.172 1.15 3.609-.62-.969-.978-2.121-1.15-3.609z" class="B"/><path d="M202.477 556.738c-.622-.894-.996-1.994-1.265-3.449.574.844 1.043 2.043 1.265 3.449zm-2.954-19.988c-.48-.941-.717-2.066-.825-3.528.442.89.754 2.117.825 3.528zm-.957-8.023c-.576-.92-.91-2.039-1.092-3.495.546.873.94 2.086 1.092 3.495zm-1.157-7.953c-.524-.945-.797-2.08-.918-3.55.491.897.83 2.128.918 3.55z" class="C"/><path d="M205.528 513.144c.549.928.912 2.19 1.019 3.628-.573-.98-.889-2.137-1.019-3.628z" class="B"/><path d="M183.448 420.752c-.566-.925-.888-2.05-1.061-3.512.534.879.919 2.096 1.061 3.512z" class="C"/><path d="M204.394 505.198c.544.867.988 2.097 1.188 3.534-.592-.919-.94-2.045-1.188-3.534z" class="B"/><path d="M195.436 506.769c-.506-.948-.767-2.083-.876-3.55.475.9.798 2.132.876 3.55z" class="C"/><path d="M203.355 497.177c.536.903.937 2.152 1.081 3.597-.576-.954-.897-2.102-1.081-3.597z" class="B"/><path d="M166.53 493.246c.595.922.936 2.038 1.137 3.498-.557-.872-.974-2.088-1.137-3.498zm-.927-7.023c.512.954.777 2.097.873 3.564-.486-.909-.803-2.142-.873-3.564zm-1.049-6.98c.538.938.834 2.072.973 3.535-.51-.894-.863-2.117-.973-3.535zm26.955-1.512c-.588-.916-.936-2.036-1.133-3.492.558.872.965 2.08 1.133 3.492z" class="C"/><path d="M154.191 622.222c.568.885.988 2.117 1.157 3.554-.602-.932-.954-2.07-1.157-3.554z" class="B"/><path d="M212.794 623.076c-.446 1.284-1.264 2.572-2.409 3.935.461-1.261 1.249-2.595 2.409-3.935z" class="G"/><path d="M159.591 445.24c.593.902.932 2.007 1.181 3.47-.539-.851-.987-2.059-1.181-3.47zm-15.125-300.499c-.501-.922-.771-2.052-.91-3.518.468.879.804 2.095.91 3.518z" class="C"/><path d="M331.111 328.723c-.258-1.066-.246-2.386.061-3.807.267 1.117.237 2.335-.061 3.807z" class="B"/><path d="M152.52 200.719c-.568-.905-.912-2.02-1.1-3.478.545.861.935 2.064 1.1 3.478zm-1.045-7.985c-.559-.905-.883-2.021-1.093-3.483.519.86.923 2.066 1.093 3.483z" class="C"/><path d="M338.248 274.735c-.244-1.055-.23-2.373.092-3.78.261 1.113.213 2.315-.092 3.78zm-174.003-55.533c.595.889 1.039 2.123 1.23 3.558-.629-.937-1.005-2.076-1.23-3.558z" class="B"/><path d="M364.102 660.205c-1.11-.506-2.21-1.384-3.541-2.486 1.03.555 2.29 1.335 3.541 2.486z" class="F"/><path d="M139.581 308.237c.549.944.857 2.086.986 3.547-.528-.903-.878-2.126-.986-3.547z" class="C"/><path d="M93.905 77.737c1.092.591 2.168 1.53 3.264 2.789-1.079-.6-2.18-1.521-3.264-2.789z" class="I"/><path d="M173.547 285.147c.55.97.945 2.278 1.197 3.935-.546-.966-.949-2.282-1.197-3.935zm2.861 20.062c.608.934.988 2.114 1.106 3.518-.619-.941-.977-2.107-1.106-3.518z" class="B"/><path d="M167.483 306.755c-.529-.938-.81-2.065-.95-3.53.493.889.845 2.115.95 3.53z" class="C"/><path d="M168.76 163.77c-1.179-.546-2.396-1.416-3.605-2.64 1.194.536 2.381 1.426 3.605 2.64z" class="B"/><path d="M196.642 645.996c.317.48.319.972.302 1.833-1.084.369-2.15.369-3.216.369l-.059-.982 2.973-1.22z" class="G"/><path d="M155.527 221.734c-.564-.933-.891-2.065-1.038-3.519.545.892.91 2.106 1.038 3.519zm19.76 142.055c-.501-.942-.759-2.084-.876-3.558.467.898.793 2.128.876 3.558z" class="C"/><path d="M346.169 215.711c-.243-1.047-.248-2.373.056-3.79.267 1.11.224 2.31-.056 3.79z" class="B"/><path d="M153.809 209.043c-.615-.799-.919-1.709-1.086-2.843.557.761.977 1.747 1.086 2.843z" class="C"/><path d="M183.333 355.166c.645.966 1.116 2.264 1.424 3.914-.642-.959-1.12-2.271-1.424-3.914zm158.833-109.454c-.242-1.043-.24-2.364.061-3.783.26 1.103.221 2.304-.061 3.783zm-173.728 3.467c.445.89.797 2.135.912 3.591-.492-.938-.749-2.087-.912-3.591z" class="B"/><path d="M173.539 349.723c-.578-.921-.923-2.046-1.098-3.5.557.879.944 2.087 1.098 3.5z" class="C"/><path d="M169.344 256.191c.571.879 1.003 2.109 1.198 3.547-.603-.927-.971-2.061-1.198-3.547z" class="B"/><path d="M461.167 72.918c.427-1.031 1.233-2.036 2.348-3.151-.45.985-1.21 2.081-2.348 3.151z" class="I"/><path d="M173.919 168.683c-.932-.443-1.944-1.204-2.947-2.306.962.436 1.915 1.212 2.947 2.306zm-3.091 497.706c.254-1.037.807-2.203 1.727-3.398-.231 1.07-.829 2.169-1.727 3.398z" class="B"/><path d="M347.769 637.296c-.972-.621-1.86-1.623-2.739-2.962.947.635 1.885 1.609 2.739 2.962z" class="G"/><path d="M375.752 676.209c-1.016-.597-1.926-1.564-2.812-2.865.988.609 1.954 1.552 2.812 2.865z" class="F"/><path d="M140.494 122.685c1.054.395 2.198 1.111 3.283 2.216-1.103-.372-2.148-1.134-3.283-2.216z" class="H"/><path d="M154.207 408.863c.53.947.907 2.296 1.14 3.912-.527-.992-.91-2.251-1.14-3.912z" class="C"/><path d="M163.547 214.116c.474.654.768 1.616.814 2.721-.496-.709-.746-1.562-.814-2.721z" class="B"/><path d="M451.35 82.033c.467-.937 1.294-1.837 2.434-2.765-.483.915-1.278 1.859-2.434 2.765z" class="I"/><path d="M162.524 206.126c.477.628.813 1.573.914 2.679-.508-.68-.782-1.521-.914-2.679z" class="B"/><path d="M183.61 610.194c.501.657.764 1.474.908 2.601-.461-.607-.804-1.524-.908-2.601zm-14.281-96.914c.597.621.969 1.409 1.186 2.511-.574-.572-.993-1.458-1.186-2.511zm37.03 71.52c-.479-.646-.731-1.464-.849-2.595.448.599.762 1.511.849 2.595z" class="C"/><path d="M161.367 198.152c.496.618.836 1.557.939 2.667-.523-.669-.809-1.507-.939-2.667z" class="B"/><path d="M174.595 549.194c.535.668.827 1.491.949 2.613-.511-.62-.851-1.539-.949-2.613z" class="C"/><path d="M158.4 178.126c.527.643.865 1.59.963 2.695-.544-.692-.848-1.541-.963-2.695z" class="B"/><path d="M149.447 179.789c-.471-.649-.71-1.459-.843-2.586.429.597.752 1.511.843 2.586z" class="C"/><path d="M157.533 171.181c.487.659.789 1.533.847 2.601-.506-.666-.769-1.527-.847-2.601z" class="B"/><path d="M205.344 576.821c-.5-.664-.755-1.486-.881-2.616.462.614.794 1.536.881 2.616z" class="C"/><path d="M208.488 534.125c.479.628.795 1.571.881 2.682-.501-.677-.773-1.522-.881-2.682z" class="B"/><path d="M173.642 541.18c.482.683.727 1.519.791 2.643-.463-.638-.745-1.564-.791-2.643zM148.39 172.81c-.486-.676-.74-1.506-.819-2.629.466.629.759 1.552.819 2.629zm-2.871-22.036c-.551-.647-.862-1.452-1.031-2.57.518.596.895 1.503 1.031 2.57zm.865 7.038c-.474-.673-.713-1.5-.8-2.626.446.625.741 1.548.8 2.626z" class="C"/><path d="M172.489 277.131c.489.635.836 1.587.936 2.689-.524-.69-.801-1.531-.936-2.689zm14.088 99.996c.399.626.687 1.572.75 2.687-.436-.676-.649-1.521-.75-2.687zm-11.919-84.932c.416.661.663 1.539.669 2.604-.44-.671-.639-1.529-.669-2.604zm160.666 4.627c-.303-.829-.296-1.838.007-2.906.299.869.301 1.798-.007 2.906z" class="B"/><path d="M200.935 639.152c-.102.998-.609 2.004-1.43 3.164.132-.95.578-2.053 1.43-3.164z" class="G"/><path d="M145.4 348.638c.537.733.891 1.794 1.074 3.164-.533-.74-.895-1.787-1.074-3.164zm-6.795-46.435c.506.635.769 1.437.964 2.566-.448-.582-.827-1.491-.964-2.566zm46.129 127.063c-.52-.702-.892-1.732-1.106-3.071.524.709.889 1.725 1.106 3.071zm2.6 19.553c-.563-.641-.87-1.445-1.05-2.575.52.587.913 1.499 1.05 2.575zm-8.028-56c-.452-.663-.675-1.49-.752-2.624.424.615.703 1.538.752 2.624z" class="C"/><path d="M332.185 320.738c-.284-.739-.332-1.734-.12-2.838.292.788.324 1.685.12 2.838z" class="B"/><path d="M141.507 321.229c.611.627.977 1.424 1.211 2.537-.573-.578-1.015-1.473-1.211-2.537z" class="C"/><path d="M158.389 650.136c.511.642.848 1.593.938 2.697-.535-.694-.823-1.541-.938-2.697z" class="B"/><path d="M144.599 342.225c.425.647.606 1.483.664 2.561-.385-.629-.646-1.501-.664-2.561z" class="C"/><path d="M157.469 644.121c.462.643.759 1.59.826 2.702-.483-.689-.737-1.544-.826-2.702zm45.143-152.004c.468.643.781 1.598.854 2.699-.496-.698-.753-1.542-.854-2.699zm-37.13-264.993c.527.639.886 1.591.996 2.69-.554-.694-.859-1.535-.996-2.69z" class="B"/><path d="M219.822 616.747c-.635.475-1.45.69-2.585.957.588-.371 1.496-.794 2.585-.957z" class="G"/><path d="M166.525 235.116c.502.646.827 1.602.908 2.704-.524-.7-.805-1.548-.908-2.704zm174.659 17.639c-.297-.761-.328-1.755-.086-2.852.3.804.326 1.711.086 2.852z" class="B"/><path d="M163.639 473.196c.466.659.706 1.484.794 2.613-.441-.613-.731-1.53-.794-2.613z" class="C"/><path d="M340.216 259.744c-.294-.742-.353-1.738-.146-2.843.304.79.343 1.69.146 2.843z" class="B"/><path d="M162.641 465.182c.443.672.654 1.497.711 2.627-.417-.622-.68-1.548-.711-2.627z" class="C"/><path d="M198.647 463.2c.481.659.781 1.54.827 2.592-.505-.676-.757-1.523-.827-2.592z" class="B"/><path d="M161.592 457.612c.455.757.689 1.821.794 3.193-.425-.757-.719-1.821-.794-3.193z" class="C"/><path d="M171.513 270.112c.466.64.762 1.586.835 2.699-.484-.686-.744-1.54-.835-2.699z" class="B"/><path d="M163.486 278.79c-.493-.667-.749-1.484-.855-2.604.464.616.777 1.535.855 2.604z" class="C"/><path d="M350.022 640.651c-.705-.424-1.383-1.211-2.073-2.32.692.438 1.397 1.198 2.073 2.32z" class="G"/><path d="M441.32 91.07c-.349.035-.433-.416-.397-.643.85-.576 1.664-.925 2.81-1.271-.466.629-1.265 1.254-2.413 1.914z" class="I"/><path d="M344.86 633.067c-.653-.22-1.266-.804-1.894-1.717.634.231 1.285.792 1.894 1.717zm-3.008-3.936c-.627-.259-1.201-.879-1.782-1.827.607.27 1.221.868 1.782 1.827z" class="G"/><path d="M187.887 658.153c-.022.73-.445 1.46-1.138 2.361.066-.673.401-1.517 1.138-2.361z" class="F"/><path d="M159.625 659.169c.499.415.836 1.028 1.023 1.983-.495-.367-.84-1.076-1.023-1.983z" class="B"/><path d="M176.431 674.01c.003.665-.324 1.389-.951 2.221.007-.648.314-1.406.951-2.221z" class="F"/><path d="M338.885 624.974c-.64-.208-1.257-.762-1.844-1.648.642.212 1.255.758 1.844 1.648z" class="G"/><path d="M155.504 632.085c.52.468.87 1.202 1.007 2.199-.534-.469-.856-1.201-1.007-2.199z" class="B"/><path d="M184.58 663.027c-.033.676-.409 1.396-1.091 2.218.045-.657.396-1.416 1.091-2.218zm-5.966 7.989c-.04.714-.425 1.453-1.13 2.246.048-.705.416-1.462 1.13-2.246zm2.274-2.871c-.069.708-.527 1.416-1.27 2.275.103-.657.492-1.466 1.27-2.275z" class="F"/><path d="M147.347 164.861c-.411-.413-.608-.936-.666-1.717.386.364.633.986.666 1.717zm35.328 438.273c.409.41.605.929.676 1.713-.38-.359-.635-.981-.676-1.713z" class="C"/><path d="M177.687 315.154c.411.4.655.972.671 1.684-.431-.41-.635-.961-.671-1.684zm155.474-.353c-.301-.501-.34-1.187-.125-1.944.298.539.342 1.149.125 1.944zm1.045-8.018c-.298-.471-.369-1.156-.196-1.92.304.516.364 1.111.196 1.92zm-158.494-7.628c.408.397.648.965.666 1.677-.426-.406-.63-.956-.666-1.677zm163.47-31.385c-.264-.452-.313-1.129-.131-1.893.269.498.308 1.083.131 1.893zm-168.452-2.609c.425.395.679.965.699 1.671-.446-.408-.657-.952-.699-1.671zm172.541-27.368c-.281-.474-.329-1.16-.13-1.918.285.521.324 1.113.13 1.918zm.996-7.999c-.283-.476-.335-1.164-.14-1.922.289.524.33 1.117.14 1.922zm-183.539-36.64c.381.408.591.983.572 1.697-.401-.418-.572-.973-.572-1.697zm-4.075-29.005c.39.396.62.965.635 1.687-.409-.403-.602-.958-.635-1.687z" class="B"/><path d="M170.297 327.869c-.429-.407-.636-.928-.721-1.714.396.357.669.979.721 1.714z" class="C"/><path d="M456.011 77.874c.16-.695.698-1.332 1.553-2.039-.18.652-.678 1.375-1.553 2.039z" class="I"/><path d="M157.05 152.63c-.311.427-.663.549-1.288.61-.263-.587-.253-1.112-.242-1.638.497.241.993.482 1.53 1.028z" class="B"/><path d="M143.456 138.764c-.67-.207-1.108-.596-1.599-1.286.575.168 1.203.636 1.599 1.286zm-1.631-1.923c-.657-.121-1.32-.596-2.025-1.392.645.132 1.332.585 2.025 1.392zm-2.932-2.977c-.735-.082-1.447-.539-2.226-1.319.705.099 1.477.522 2.226 1.319z" class="C"/><path d="M410.514 121.278c.167-.665.655-1.41 1.526-2.104-.146.709-.676 1.367-1.526 2.104zm8.023-7.971c.17-.661.655-1.417 1.528-2.117-.146.712-.679 1.367-1.528 2.117z" class="H"/><path d="M97.147 81.171c.673.117 1.328.595 2.056 1.381-.643-.135-1.358-.577-2.056-1.381z" class="I"/><path d="M128.065 100.454l.984 3.296-.781.159-.206-3.104c-.032-.385.006-.31.003-.351z" class="H"/><path d="M105.953 89.648c.532-.162 1.083-.055 1.822.285-.476.15-1.139.067-1.822-.285z" class="I"/><path d="M193.571 427.079c.443.377.73 1.026.795 1.787-.465-.43-.708-.973-.795-1.787z" class="B"/><path d="M207.283 590.87c-.391-.413-.571-.94-.619-1.725.364.365.598.988.619 1.725z" class="C"/><path d="M225.521 589.204c.017-.703.357-1.455 1.042-2.233-.01.711-.364 1.447-1.042 2.233zm3.021-3.98c-.005-.698.309-1.456.95-2.26.008.703-.311 1.451-.95 2.26zm-14.863-14.065c.407.388.659.956.691 1.671-.428-.399-.637-.945-.691-1.671zm-12.223-86.058c.456.37.764 1.02.844 1.778-.483-.427-.737-.963-.844-1.778z" class="B"/><path d="M190.271 469.875c-.428-.415-.635-.944-.694-1.73.404.367.659.992.694 1.73z" class="C"/><path d="M465.121 68.907c.187-.639.717-1.259 1.567-1.871-.194.635-.71 1.263-1.567 1.871z" class="I"/><path d="M189.234 462.841c-.394-.405-.562-.968-.582-1.706.368.399.588.974.582 1.706z" class="C"/><path d="M197.404 455.119c.463.357.777 1.004.859 1.763-.49-.416-.749-.945-.859-1.763z" class="B"/><path d="M188.592 457.333c-.456-.405-.744-1.171-.887-2.151.449.455.752 1.122.887 2.151z" class="C"/><path d="M195.665 441.084c.33.363.583 1.011.626 1.782-.375-.418-.538-.957-.626-1.782z" class="B"/><path d="M171.431 335.848c-.399-.412-.587-.926-.644-1.699.373.36.614.978.644 1.699z" class="C"/><path d="M191.708 415.164c.49.422.81 1.024.976 1.962-.485-.37-.815-1.076-.976-1.962z" class="B"/><path d="M182.313 413.827c-.424-.401-.62-.956-.663-1.689.399.393.645.964.663 1.689z" class="C"/><path d="M190.686 406.146c.403.41.633.984.631 1.699-.423-.417-.613-.976-.631-1.699z" class="B"/><path d="M153.721 405.167c.446.412.659.98.699 1.716-.427-.408-.679-.984-.699-1.716zm-3.937-28.045c.431.404.644.93.703 1.721-.41-.356-.666-.978-.703-1.721z" class="C"/><path d="M184.7 364.158c.419.401.674.978.689 1.686-.444-.415-.648-.963-.689-1.686z" class="B"/><path d="M147.585 362.153c.421.407.628.923.707 1.701-.392-.356-.656-.974-.707-1.701zm26.751-5.33c-.455-.402-.677-.958-.736-1.693.432.394.701.966.736 1.693zm-27.697-1.679c.4.408.59.927.658 1.707-.371-.358-.619-.977-.658-1.707zm25.65-13.273c-.403-.416-.589-.945-.635-1.73.378.369.614.993.635 1.73z" class="C"/><path d="M180.642 336.148c.473.393.763.956.829 1.665-.487-.401-.749-.948-.829-1.665z" class="B"/><path fill="#f6f6f6" d="M313 104.999h-38.875l.002-.711h61.541l.025.711H313z"/><path d="M418.563 108.366c.116-.436.392-.703.685-.95.008-.006.205.213.314.328-.279.264-.558.529-1 .622z" class="H"/><path d="M288.152 644h54.141l-.004 1.373H281.72l-.07-1.373h6.503z" class="J"/><path fill="#f4f4f4" d="M322.73 620.002h5.2l-.008.719h-52.819l-.003-.719h47.63z"/><path fill="#fff" d="M122.444 101.452c.082-.052.111.16.111.16s-.194-.108-.111-.16z"/></svg>