<svg version="1.1" id="Layer_1" xmlns="http://www.w3.org/2000/svg" xmlns:xlink="http://www.w3.org/1999/xlink" x="0px" y="0px"
	 width="100%" viewBox="0 0 448 464" enable-background="new 0 0 448 464" xml:space="preserve">
<path fill="#000000" opacity="1.000000" stroke="none" 
	d="
M449.000000,108.531342 
	C446.929321,121.107658 444.838989,133.212006 442.792480,145.323746 
	C439.577606,164.349686 437.262817,183.585754 432.846588,202.327469 
	C430.448486,212.504471 424.451050,221.824051 420.157104,231.565643 
	C412.505432,248.924911 404.712830,266.226349 397.374207,283.717712 
	C393.034302,294.061707 385.851898,302.389252 379.230743,311.105133 
	C364.132141,330.980591 348.734070,350.628387 333.485992,370.390503 
	C327.274780,378.440460 318.574615,383.614380 310.845581,389.865967 
	C286.514740,409.545746 261.932678,428.915131 237.429047,448.380951 
	C232.592529,452.223175 230.223831,452.271942 225.488770,448.502289 
	C195.522598,424.645935 165.453278,400.915924 135.715851,376.777283 
	C126.608139,369.384308 120.920540,358.825073 113.694931,349.697723 
	C99.751289,332.084167 85.959167,314.350006 72.196106,296.594666 
	C69.005661,292.478760 67.436958,287.451477 65.328934,282.750366 
	C55.052639,259.833252 45.038860,236.796066 34.533646,213.984894 
	C28.722893,201.367340 26.980206,187.912125 24.774477,174.480011 
	C22.375374,159.870300 19.694048,145.306870 17.305046,130.695587 
	C14.354266,112.648430 11.475954,94.587982 8.774146,76.502235 
	C7.622567,68.793625 8.485288,67.552528 15.567435,64.844154 
	C47.284519,52.714802 79.018433,40.629395 110.754219,28.549026 
	C117.132187,26.121222 123.663513,24.055618 129.905334,21.323206 
	C135.278839,18.970901 140.748596,18.551458 146.467133,18.540522 
	C204.292252,18.429937 262.117157,18.170570 319.942261,18.110048 
	C328.996307,18.100571 336.853485,22.810505 345.060791,25.885660 
	C379.496063,38.788048 413.857300,51.888092 448.622803,64.957870 
	C449.000000,79.354225 449.000000,93.708458 449.000000,108.531342 
M218.525894,344.137451 
	C220.205139,351.756653 219.907074,360.181671 227.816055,365.148438 
	C230.043259,366.547089 231.581909,367.153534 234.029449,365.465881 
	C239.372559,361.781494 243.253937,357.559204 243.103699,350.503174 
	C243.040955,347.557220 243.947052,344.586212 244.451691,341.633240 
	C249.132767,314.241364 253.808014,286.848480 258.529724,259.463593 
	C259.052307,256.432617 258.005402,255.107208 254.902573,255.118927 
	C239.236511,255.178116 223.570160,255.191177 207.903961,255.173706 
	C205.038193,255.170517 203.998367,256.471680 204.446838,259.229797 
	C206.235840,270.231964 207.942184,281.247894 209.784271,292.241089 
	C212.641541,309.292633 215.584747,326.329742 218.525894,344.137451 
M374.955139,113.132210 
	C370.418152,109.564949 364.520203,110.128586 359.503479,108.033997 
	C357.498505,107.196884 355.690887,107.581841 353.712921,108.241325 
	C332.407166,115.344902 311.065338,122.340225 289.757446,129.437485 
	C282.726501,131.779358 275.765167,134.330231 268.181213,136.992981 
	C278.385040,153.703903 288.211395,169.796661 298.104004,185.997879 
	C303.214661,183.675186 306.382751,179.899521 310.137512,176.950943 
	C330.160736,161.226990 350.071869,145.360382 370.041718,129.568298 
	C371.551178,128.374619 372.544098,127.002838 372.893005,125.067230 
	C373.571472,121.303444 374.388123,117.564545 374.955139,113.132210 
M124.631081,154.835175 
	C137.730942,165.199478 150.830795,175.563797 164.497330,186.376434 
	C174.758453,169.600388 184.589828,153.526947 194.237823,137.753326 
	C193.260696,135.975128 192.100876,135.748703 190.998550,135.381439 
	C167.524521,127.560486 143.926865,120.083511 120.642250,111.733704 
	C110.468117,108.085281 100.858749,106.999153 90.822197,111.244698 
	C89.568092,111.775192 88.293388,112.054291 87.815063,113.524689 
	C87.049034,115.879547 90.269981,127.425789 92.172272,128.942978 
	C102.806793,137.424698 113.453621,145.891006 124.631081,154.835175 
M140.357468,36.213799 
	C139.477158,34.523994 138.629715,32.902103 136.194977,34.030636 
	C132.893204,35.561058 129.314896,36.343731 126.195015,38.438595 
	C108.822029,50.103764 91.258904,61.488659 73.993362,73.309082 
	C69.336441,76.497330 63.664944,78.401527 59.924709,83.081894 
	C62.542561,85.152946 65.270638,84.795692 67.896179,84.797874 
	C95.841721,84.821167 123.787292,84.818161 151.732849,84.819923 
	C152.730698,84.819992 153.735870,84.868202 154.725235,84.769623 
	C162.213684,84.023361 164.721481,79.721436 161.184387,73.330292 
	C154.430481,61.126724 147.526825,49.006042 140.357468,36.213799 
M316.935242,46.403309 
	C315.775299,48.417389 314.605499,50.425869 313.457214,52.446568 
	C309.106415,60.102859 304.730042,67.744957 300.439331,75.434814 
	C299.384735,77.324837 298.247955,79.458328 300.732727,81.176460 
	C303.447479,83.053581 306.053284,84.888031 309.741058,84.873352 
	C338.694183,84.758141 367.647980,84.821388 396.601562,84.797546 
	C398.855316,84.795692 401.237976,84.954292 403.186676,82.702461 
	C401.718414,81.600487 400.453644,80.546974 399.089508,79.643517 
	C385.508636,70.649033 371.959686,61.604992 358.300873,52.730118 
	C349.939484,47.297295 342.001923,41.172234 333.097137,36.619736 
	C325.165466,32.564751 324.582916,32.864372 320.240662,40.548462 
	C319.258606,42.286358 318.274231,44.022961 316.935242,46.403309 
M399.045868,133.464233 
	C398.209015,135.091766 397.440247,136.758698 396.524811,138.340729 
	C387.621490,153.727051 378.816406,169.167419 370.588196,184.929520 
	C367.720093,190.423630 368.836884,192.526886 374.757660,192.878098 
	C388.362366,193.685135 401.972504,194.424454 415.562897,195.428909 
	C418.846375,195.671585 420.037476,194.353775 420.678986,191.482971 
	C422.083252,185.199142 421.331970,178.971710 420.890717,172.650620 
	C419.559570,153.581741 418.658173,134.483139 417.525757,115.399879 
	C417.307404,111.719650 416.801483,108.056496 416.428192,104.385460 
	C416.108032,104.338257 415.787872,104.291046 415.467712,104.243843 
	C410.098877,113.761833 404.730011,123.279823 399.045868,133.464233 
M53.804817,194.841583 
	C65.105309,194.202866 76.408493,193.607849 87.705246,192.908722 
	C94.267319,192.502609 95.450813,190.254349 92.277657,184.529861 
	C80.414085,163.127609 68.563126,141.718338 56.667072,120.334152 
	C53.644062,114.900040 50.472012,109.548828 47.376801,104.174026 
	C46.006523,104.917717 46.202473,105.848862 46.146580,106.615501 
	C45.154556,120.222282 44.097416,133.825333 43.252026,147.441483 
	C42.489147,159.728714 41.560829,172.027328 41.455940,184.327316 
	C41.362064,195.336487 42.322636,195.803543 53.804817,194.841583 
M289.725677,384.164703 
	C298.314819,379.757568 306.956604,375.470886 314.341400,369.057098 
	C317.128113,366.636841 317.969452,364.458679 316.095123,360.952911 
	C312.019012,353.328735 308.425751,345.447906 304.434052,337.776581 
	C302.079742,333.251984 299.340790,328.927521 296.690002,324.367126 
	C291.421326,326.866150 287.036194,329.582825 284.415863,334.628906 
	C281.734711,339.792114 278.787476,344.818146 275.920898,349.883972 
	C265.677185,367.986633 255.406433,386.074066 245.192169,404.193298 
	C244.526871,405.373474 243.105148,406.485229 244.415527,408.746918 
	C259.336700,400.662598 274.214111,392.602020 289.725677,384.164703 
M192.822144,359.643646 
	C188.780243,352.569336 184.554611,345.592010 180.752335,338.391174 
	C177.482635,332.198944 173.416214,327.071564 166.429840,324.668457 
	C164.875107,325.451141 164.345428,327.098511 163.606583,328.549896 
	C159.229263,337.148895 154.909973,345.777557 150.517715,354.368866 
	C144.317932,366.495758 144.108185,366.779053 155.570663,374.194580 
	C169.962967,383.505493 185.605194,390.634308 200.572784,398.952515 
	C206.566452,402.283508 212.689789,405.381195 218.754105,408.585083 
	C219.027008,408.256836 219.299911,407.928589 219.572815,407.600342 
	C210.756470,391.838135 201.940125,376.075928 192.822144,359.643646 
M273.066772,242.481781 
	C272.214386,244.422958 270.699615,246.108795 270.713196,248.335571 
	C270.972992,248.677307 271.121124,249.094635 271.377777,249.178024 
	C285.276917,253.693527 299.181854,258.191040 313.095520,262.661591 
	C315.443024,263.415863 316.684387,262.064423 317.946991,260.247345 
	C322.513672,253.675400 325.955597,246.451660 330.138672,239.666351 
	C331.882874,236.837082 331.274963,234.973206 329.080536,232.719772 
	C324.444366,227.958984 320.125549,222.890671 315.628418,217.992645 
	C309.944122,211.801620 304.211884,205.654526 298.058685,199.011703 
	C289.587830,213.698547 281.477356,227.760605 273.066772,242.481781 
M138.268234,227.761658 
	C137.092102,229.157364 136.038345,230.683899 134.714859,231.922104 
	C131.768051,234.679016 131.112183,237.125992 133.681717,240.905121 
	C137.583923,246.644287 140.948746,252.806534 143.973434,259.063812 
	C145.906006,263.061798 148.192017,263.295441 151.930695,262.041473 
	C160.267563,259.245270 168.758362,256.910950 177.121445,254.188828 
	C182.365112,252.482071 187.875717,251.307846 192.917099,248.086700 
	C183.515823,231.598495 174.430008,215.663544 164.896133,198.942810 
	C155.771805,208.819229 147.260269,218.032379 138.268234,227.761658 
M69.220695,202.124252 
	C61.792358,202.199570 54.409096,202.791336 45.353863,203.875931 
	C61.058735,225.002625 77.353912,244.132523 93.157341,264.321106 
	C95.340279,259.877838 93.973419,256.198517 93.999321,252.627396 
	C94.113853,236.831116 94.025169,221.032974 93.927391,205.236038 
	C93.915169,203.260986 94.592133,200.473587 91.029701,200.680801 
	C84.068520,201.085678 77.111275,201.558212 69.220695,202.124252 
M409.277130,214.798187 
	C411.550781,211.268890 415.635986,208.865494 416.146301,204.268860 
	C415.681091,203.889343 415.440735,203.520370 415.178558,203.504181 
	C401.228333,202.642776 387.276154,201.813477 373.324524,200.974915 
	C369.454803,200.742340 369.169708,203.224030 369.165161,206.183456 
	C369.137970,223.837524 369.023041,241.491470 368.995392,259.145569 
	C368.993225,260.531006 368.508545,262.110992 370.136383,263.700592 
	C383.102295,247.517975 395.979034,231.446640 409.277130,214.798187 
M208.282394,122.658638 
	C208.175140,125.122765 206.506134,127.322922 206.983841,130.097290 
	C223.445923,130.097290 239.826355,130.097290 256.501587,130.097290 
	C253.458160,119.032562 250.417969,108.678627 247.824341,98.213997 
	C246.752197,93.888176 244.352798,92.732208 240.317627,92.871674 
	C234.000992,93.089989 227.667526,93.171364 221.352936,92.960014 
	C217.911865,92.844841 216.225037,94.080421 215.348999,97.384911 
	C213.176865,105.578506 210.745132,113.703270 208.282394,122.658638 
M182.186905,292.601105 
	C179.895432,297.032715 177.592529,301.458496 175.317719,305.898651 
	C174.307083,307.871277 173.489670,309.957153 174.670059,312.093109 
	C177.710052,317.593872 180.138977,323.437012 185.032379,327.806641 
	C190.608810,332.786163 196.834167,336.984192 202.028656,342.437653 
	C204.690002,345.231689 208.003571,347.404480 211.729462,350.432739 
	C206.855255,321.346283 202.146561,293.247498 197.437866,265.148712 
	C197.090729,265.106995 196.743591,265.065308 196.396454,265.023590 
	C191.757599,273.989136 187.118729,282.954651 182.186905,292.601105 
M273.950378,279.472748 
	C271.173492,274.772552 269.584229,269.374878 265.502625,264.158447 
	C260.715729,293.333923 256.115479,321.371552 251.338272,350.487885 
	C259.050964,343.845154 265.691101,337.818390 272.667297,332.209595 
	C278.871979,327.221161 283.731506,321.306274 287.447632,314.303802 
	C288.907379,311.553192 289.210999,309.111694 287.743042,306.298584 
	C283.206818,297.605652 278.789551,288.850616 273.950378,279.472748 
M257.361481,55.071590 
	C267.195557,60.990559 277.081482,66.825920 286.834991,72.874817 
	C290.154846,74.933716 292.083191,74.362274 293.927368,70.970009 
	C298.529877,62.504002 303.421204,54.195564 308.102295,45.771450 
	C310.404968,41.627499 313.666260,37.974773 315.004364,33.204548 
	C308.565460,32.307369 251.817886,42.747292 243.856476,46.264511 
	C247.631714,50.032909 252.452942,51.967125 257.361481,55.071590 
M193.771317,62.262165 
	C202.475204,56.956371 211.179092,51.650578 220.779953,45.798008 
	C213.650848,44.362526 207.673340,43.129639 201.683731,41.958607 
	C186.199753,38.931324 170.708923,35.938988 155.224838,32.912254 
	C152.894165,32.456669 150.703629,32.473686 148.704590,33.974632 
	C149.046738,36.279591 150.247208,37.879822 151.235611,39.599701 
	C157.111847,49.824749 163.067993,60.007229 168.733826,70.348358 
	C171.350601,75.124451 171.796524,75.470024 176.491043,72.617165 
	C182.021667,69.256210 187.575668,65.933739 193.771317,62.262165 
M351.763580,297.318634 
	C352.912109,294.276306 354.060608,291.233948 355.209137,288.191620 
	C338.412903,297.646637 322.436523,307.773376 306.403168,317.809113 
	C303.544983,319.598114 304.449677,321.628784 305.549652,323.784973 
	C309.557831,331.642212 313.405334,339.590942 317.710449,347.282928 
	C319.694122,350.827240 320.264618,355.239197 324.760864,358.837982 
	C334.896240,338.753021 342.087463,317.882324 351.763580,297.318634 
M113.650673,290.970581 
	C111.932724,289.760956 110.234024,288.510620 107.293327,287.976959 
	C117.949059,311.722961 126.806648,335.604614 138.356461,358.907288 
	C139.659866,357.542145 140.107407,357.240723 140.325836,356.820251 
	C146.218307,345.477844 152.056885,334.107330 157.982758,322.782471 
	C159.381927,320.108521 157.999969,318.969879 155.927765,317.669556 
	C142.010605,308.936218 128.150894,300.111328 113.650673,290.970581 
M341.392334,190.945129 
	C343.544556,191.096588 345.710419,191.142075 347.846619,191.417679 
	C357.475281,192.659988 360.797882,190.294922 362.414703,180.721863 
	C364.073456,170.900620 365.999054,161.140228 368.220093,151.427765 
	C368.970123,148.148010 370.264069,144.785461 369.076202,140.298447 
	C348.645477,156.493622 328.664276,172.332474 307.778229,188.888565 
	C319.580109,189.630264 330.004913,190.285431 341.392334,190.945129 
M125.385765,190.886459 
	C134.597824,189.424271 144.067078,190.559006 154.219666,188.444534 
	C133.689529,172.082672 113.946579,156.348190 93.593956,140.127792 
	C93.108772,146.486908 95.340958,151.115845 96.192024,155.986801 
	C97.789230,165.128235 99.333374,174.291183 101.366066,183.340424 
	C102.998077,190.605881 105.621788,192.187775 113.009369,191.690491 
	C116.819931,191.433990 120.629738,191.166260 125.385765,190.886459 
M232.499939,246.947372 
	C240.359680,246.947372 248.219421,246.947372 257.301605,246.947372 
	C248.341019,229.698776 240.134186,213.901108 231.352097,196.996094 
	C222.657135,214.087357 214.576508,229.971054 205.935059,246.957169 
	C215.283981,246.957169 223.391983,246.957169 232.499939,246.947372 
M208.939285,223.549484 
	C214.001160,213.720612 219.063034,203.891739 224.599365,193.141571 
	C206.678955,193.480820 189.936218,194.702499 172.296432,196.153473 
	C181.309830,211.888641 189.813004,226.733093 198.990646,242.755020 
	C202.715393,235.632294 205.693207,229.937912 208.939285,223.549484 
M275.791748,222.314438 
	C280.007538,213.740433 285.957214,206.078659 290.223663,195.879318 
	C272.651489,194.843704 256.095825,193.868011 238.159454,192.810944 
	C247.041855,210.040817 255.266373,225.994568 263.878632,242.700485 
	C268.098511,235.500916 271.773010,229.231766 275.791748,222.314438 
M285.883392,187.768555 
	C286.822113,187.649353 287.898224,188.074265 289.074402,186.470016 
	C280.459747,172.253998 271.700806,157.799866 262.454681,142.541824 
	C253.689758,156.679718 246.378601,170.101074 238.615601,184.289291 
	C254.705368,187.220825 270.051056,185.826492 285.883392,187.768555 
M207.673172,154.779388 
	C205.390427,150.893234 203.674622,146.636734 200.326492,142.915024 
	C191.335678,157.894669 181.962967,172.068680 173.456787,187.738495 
	C190.890228,186.778687 207.342010,185.872910 224.870605,184.907852 
	C218.857498,174.347549 213.462662,164.873062 207.673172,154.779388 
M277.510681,115.931206 
	C275.591827,119.483116 272.633606,122.518677 271.654968,127.258400 
	C295.341644,119.419121 318.458405,111.768448 341.575195,104.117783 
	C331.207886,99.998955 320.831116,97.227661 310.541962,94.162086 
	C304.627167,92.399811 298.656708,93.168083 292.695679,93.040054 
	C290.519745,92.993324 289.492493,94.468239 288.570709,96.132484 
	C285.026886,102.530708 281.458710,108.915459 277.510681,115.931206 
M187.728165,119.699257 
	C183.567627,112.317352 179.265335,105.010292 175.310349,97.519859 
	C173.513443,94.116623 171.142960,93.127609 167.382187,92.939034 
	C151.127563,92.123947 136.773148,99.338249 121.379906,104.047081 
	C144.247940,111.631035 167.115982,119.214989 190.377350,126.929382 
	C190.446854,123.562691 188.756378,122.169350 187.728165,119.699257 
M233.850906,176.145660 
	C240.790619,163.958572 247.730331,151.771500 255.013351,138.981506 
	C238.829453,138.048782 223.766800,138.212357 207.724060,138.855392 
	C215.758759,152.917877 223.327698,166.165161 231.261459,180.050964 
	C232.458771,178.337677 233.010468,177.548218 233.850906,176.145660 
M298.582733,294.173157 
	C303.572601,286.928955 307.380188,279.043182 311.897980,270.516846 
	C298.671631,266.339386 286.000763,262.337372 273.329926,258.335388 
	C273.041382,258.670654 272.752838,259.005951 272.464294,259.341217 
	C279.481537,273.074554 286.498779,286.807861 293.512665,300.534546 
	C296.775482,299.278564 297.153961,296.779999 298.582733,294.173157 
M159.571976,286.016205 
	C162.489563,290.922394 164.750534,296.244659 168.610748,301.251862 
	C176.661728,287.112549 183.373154,273.137848 190.293045,259.268036 
	C190.002945,258.941345 189.712830,258.614655 189.422729,258.287994 
	C176.755005,262.347961 164.087280,266.407959 151.206375,270.536285 
	C153.170090,276.627716 156.617386,280.777771 159.571976,286.016205 
M324.839935,297.370819 
	C331.975922,291.979980 340.335663,288.302795 347.740326,281.986145 
	C339.301147,279.249054 331.798187,277.095276 324.521393,274.343445 
	C320.587463,272.855774 318.766693,274.282867 317.008545,277.448212 
	C311.616577,287.156189 306.070251,296.778320 300.624695,306.456757 
	C299.852570,307.829041 298.552002,309.184326 300.168915,311.718628 
	C308.922546,308.460327 315.888092,301.843994 324.839935,297.370819 
M153.740585,291.720062 
	C152.126465,288.823700 150.508652,285.929352 148.898880,283.030579 
	C143.314499,272.974487 143.317841,272.981140 132.408752,276.414490 
	C131.145966,276.811920 129.772873,276.915527 128.567856,277.429504 
	C124.432793,279.193298 119.769958,279.786133 115.204231,282.911591 
	C131.441299,292.987183 146.916748,302.590179 162.392197,312.193176 
	C162.813995,311.748596 163.235794,311.304047 163.657593,310.859467 
	C161.910233,304.007477 157.484085,298.431488 153.740585,291.720062 
M120.950500,218.603409 
	C122.774155,221.725800 124.597809,224.848190 126.949089,228.873947 
	C136.539001,218.365372 145.727341,208.296829 154.915665,198.228287 
	C154.757309,197.845154 154.598938,197.462021 154.440567,197.078888 
	C140.006851,197.896500 125.573143,198.714096 110.147995,199.587860 
	C113.918823,206.258743 117.235123,212.125519 120.950500,218.603409 
M347.990631,199.259979 
	C334.815460,198.519501 321.640320,197.779022 308.465179,197.038528 
	C317.482147,207.995895 325.930115,218.855942 336.290588,228.573486 
	C341.882874,218.809387 347.128296,209.650940 352.275024,200.664780 
	C351.182068,199.085495 349.897827,199.508301 347.990631,199.259979 
M360.731171,271.332642 
	C361.539215,265.847107 356.855621,263.607269 354.059418,260.358429 
	C348.907501,254.372452 343.470032,248.632233 337.704376,242.298325 
	C332.858490,250.362366 327.903046,257.508911 324.385742,266.222870 
	C335.216095,269.658997 345.696960,273.162292 356.306366,276.219482 
	C358.816956,276.942963 360.583252,274.937683 360.731171,271.332642 
M108.704224,260.212708 
	C107.081192,262.101013 105.475456,264.004578 103.830948,265.873962 
	C101.543282,268.474457 101.618767,271.614380 102.992287,274.251984 
	C104.396469,276.948486 107.308510,276.024170 109.742081,275.372101 
	C113.107185,274.470337 116.509705,273.670593 119.807213,272.562378 
	C126.017647,270.475128 132.164490,268.198669 138.805573,265.834320 
	C134.151489,257.908447 130.777542,250.176163 125.456612,243.024246 
	C118.860886,247.948334 114.687698,254.493256 108.704224,260.212708 
M180.154236,84.771591 
	C186.467651,84.782089 192.781693,84.855110 199.094330,84.790405 
	C213.449753,84.643288 210.227646,86.589249 214.066864,73.256790 
	C215.485748,68.329414 217.860321,63.448090 217.403534,58.034386 
	C216.766113,57.999683 216.365967,57.847897 216.137039,57.984039 
	C203.450821,65.528191 190.722321,73.004265 178.147049,80.729691 
	C175.155228,82.567680 176.238647,84.180031 180.154236,84.771591 
M286.323853,82.075691 
	C272.993408,73.846901 259.662964,65.618103 246.577499,57.540539 
	C245.151443,58.737495 245.156372,59.596874 245.321976,60.386566 
	C246.890289,67.865829 249.457123,75.053810 251.751160,82.322487 
	C252.453659,84.548347 254.147659,84.816841 256.069672,84.812248 
	C264.864410,84.791229 273.659332,84.796288 282.453735,84.732376 
	C284.042572,84.720840 285.925629,85.024582 286.323853,82.075691 
M232.521912,84.803131 
	C235.959579,84.625572 239.455612,85.276169 242.747055,84.311493 
	C242.934662,83.773514 243.169968,83.449234 243.129562,83.164017 
	C241.607193,72.417877 237.350815,62.407661 234.683533,51.967033 
	C234.244965,50.250317 233.074402,49.069225 231.018188,49.319664 
	C228.480774,49.628712 228.019653,51.680237 227.481583,53.587288 
	C225.138458,61.891636 222.798096,70.197456 220.570038,78.533035 
	C220.081085,80.362297 219.085022,82.253532 220.347137,84.801231 
	C223.965973,84.801231 227.766983,84.801231 232.521912,84.803131 
M115.362663,241.854553 
	C116.648911,240.330688 117.884537,238.760071 119.236130,237.296570 
	C120.500832,235.927124 120.974075,234.593735 119.960922,232.823441 
	C114.136414,222.646225 108.361572,212.440567 102.059502,201.346008 
	C101.215828,219.600220 102.426720,236.645798 102.211143,254.623734 
	C107.607666,250.540146 111.052147,246.259506 115.362663,241.854553 
M361.002747,222.500549 
	C361.002747,215.790665 361.002747,209.080795 361.002747,201.074081 
	C354.705383,212.194702 349.007751,222.248535 343.321259,232.308701 
	C342.662903,233.473328 341.859467,234.791977 342.879486,236.010788 
	C348.325775,242.518661 353.834503,248.976700 360.987457,255.758423 
	C360.987457,244.052475 360.987457,233.776337 361.002747,222.500549 
M254.862564,93.976295 
	C257.098389,103.774780 260.327850,113.258446 263.668121,123.940285 
	C269.841553,113.118454 275.379028,103.411400 281.378632,92.894279 
	C271.891815,92.792488 263.493744,92.539848 254.862564,93.976295 
M201.022354,118.407074 
	C203.804550,110.117371 206.166321,101.717003 208.120468,93.265465 
	C199.459442,93.265465 191.252686,93.265465 181.735748,93.265465 
	C187.808868,103.812225 193.284485,113.321365 198.813934,122.923996 
	C200.413467,121.722763 200.484100,120.344223 201.022354,118.407074 
M431.163818,128.822830 
	C433.396545,115.024765 435.629303,101.226700 437.995880,86.601524 
	C434.035126,88.179909 432.102051,90.608444 429.582153,92.081902 
	C425.107056,94.698669 423.904449,98.405106 424.297882,103.378052 
	C425.440704,117.824402 426.278534,132.294876 427.291199,147.589554 
	C429.650085,141.213776 429.644714,135.307831 431.163818,128.822830 
M404.050537,63.481934 
	C393.392487,59.437576 382.734467,55.393219 372.076416,51.348866 
	C384.291656,60.651489 396.874878,69.068161 409.533051,77.370560 
	C411.273804,78.512291 413.100952,80.230324 415.458618,79.481918 
	C420.265656,77.956017 425.006195,76.220573 431.234161,74.066452 
	C421.418549,70.250702 413.092773,67.014099 404.050537,63.481934 
M53.288265,65.892616 
	C46.702324,68.851501 39.468323,70.205437 32.055107,74.193138 
	C37.538403,76.009781 42.070007,77.428070 46.536133,79.029037 
	C48.497940,79.732285 50.054089,79.271324 51.672470,78.205803 
	C65.326729,69.216042 78.997681,60.251633 92.663620,51.279610 
	C92.565948,51.098129 92.468285,50.916649 92.370621,50.735168 
	C79.570335,55.671356 66.770050,60.607544 53.288265,65.892616 
M25.455654,87.930260 
	C24.898325,90.981140 26.090010,93.808052 26.582373,96.724403 
	C29.497740,113.992714 32.413914,131.260895 35.329815,148.529114 
	C35.749355,134.011307 37.796890,119.691338 38.628746,105.289757 
	C39.147831,96.303070 34.651451,90.323479 25.455654,87.930260 
M359.312317,313.806030 
	C364.917114,306.466156 370.521912,299.126312 376.146118,291.761047 
	C373.800781,289.639191 371.201996,289.467407 368.929565,288.546417 
	C365.826447,287.288788 363.667023,287.795898 362.432770,291.384521 
	C361.143188,295.134033 359.273224,298.680573 357.735809,302.348907 
	C354.238708,310.693054 350.789948,319.057434 347.321503,327.413574 
	C347.594025,327.571655 347.866577,327.729706 348.139130,327.887787 
	C351.704865,323.370850 355.270599,318.853912 359.312317,313.806030 
M111.400627,317.047302 
	C108.134689,309.425415 104.833572,301.818359 101.612938,294.177368 
	C98.539413,286.885406 98.289459,286.784149 91.069672,289.416626 
	C87.376244,290.763306 86.978584,292.652405 89.416153,295.656921 
	C93.801857,301.062744 97.859985,306.741974 102.380806,312.028320 
	C106.728630,317.112427 109.900383,323.195953 116.221710,328.427704 
	C114.380424,324.051697 113.050598,320.891235 111.400627,317.047302 
M73.991806,252.499405 
	C69.696091,247.174606 65.400375,241.849808 61.104668,236.525024 
	C67.198578,250.984100 72.655579,265.640015 80.967613,280.011871 
	C82.749840,278.661926 83.659447,276.790558 85.031181,275.363342 
	C88.041977,272.230743 88.521248,269.667572 85.122765,266.189514 
	C81.195213,262.170074 77.991707,257.443146 73.991806,252.499405 
M400.175110,238.779816 
	C392.497314,248.356949 384.885742,257.988525 377.095459,267.473297 
	C375.126648,269.870361 374.965271,271.750427 377.194061,273.885498 
	C379.057526,275.670593 380.363525,278.080109 383.110107,279.356598 
	C388.396484,270.040344 391.772736,260.131531 396.151642,250.694366 
	C397.962280,246.792130 400.681335,243.104736 400.175110,238.779816 
M395.466705,119.272980 
	C391.953979,122.059105 388.426178,124.826508 384.934479,127.638756 
	C383.007874,129.190475 380.175751,130.347565 379.751831,132.831604 
	C378.193512,141.963043 375.130890,150.838028 374.552704,161.468597 
	C383.148926,146.041595 391.108765,131.756607 399.068634,117.471611 
	C398.778046,117.293144 398.487488,117.114670 398.196930,116.936203 
	C397.451447,117.579391 396.705933,118.222588 395.466705,119.272980 
M74.030441,135.518234 
	C79.139526,143.542679 82.419266,152.636398 88.931519,161.273041 
	C87.438873,154.096725 85.957817,148.151688 85.299026,142.036407 
	C84.930946,138.619659 84.699844,134.272430 82.591530,132.136673 
	C77.052826,126.525902 70.519241,121.897232 64.382011,116.877289 
	C64.179855,117.110085 63.977692,117.342880 63.775532,117.575668 
	C67.063278,123.350060 70.351021,129.124451 74.030441,135.518234 
M248.341507,366.102539 
	C247.974670,372.636322 245.725937,378.940430 245.799377,387.081238 
	C253.614212,373.368378 260.726501,360.888275 267.838776,348.408203 
	C267.484039,348.153107 267.129333,347.897980 266.774597,347.642883 
	C262.381073,351.357056 257.834045,354.908905 253.661179,358.856323 
	C251.684479,360.726288 248.997864,362.222504 248.341507,366.102539 
M216.194122,376.325195 
	C215.805115,375.056580 214.989670,373.750824 215.096405,372.525391 
	C215.782135,364.652191 211.306854,359.914368 205.482040,355.806885 
	C203.737854,354.576996 202.433075,352.736206 200.731155,351.430542 
	C199.186615,350.245575 197.943726,348.335785 194.929672,348.146729 
	C202.587845,361.590210 209.879166,374.389709 217.170486,387.189240 
	C216.508652,383.774536 216.985977,380.402802 216.194122,376.325195 
M244.176437,417.691162 
	C239.629272,419.637054 238.249573,423.164673 238.891830,428.996735 
	C249.316544,420.740723 259.030518,413.047577 268.744476,405.354431 
	C268.615204,405.161255 268.485931,404.968048 268.356659,404.774872 
	C260.513245,408.962921 252.669800,413.150970 244.176437,417.691162 
M121.978630,94.623070 
	C123.387054,93.887817 125.260971,94.273819 126.630112,92.678566 
	C113.812378,92.285164 101.278717,93.637451 88.317238,92.506187 
	C99.305817,98.794014 110.128952,99.608177 121.978630,94.623070 
M222.869019,427.698120 
	C225.552063,424.653046 224.381424,421.280365 221.848969,419.742279 
	C213.981293,414.963989 206.036224,410.205261 196.975113,407.456696 
	C205.424316,414.126831 213.873520,420.796967 222.869019,427.698120 
M366.058990,92.422791 
	C356.263214,92.422791 346.467438,92.422791 335.338654,92.422791 
	C349.277435,98.255600 361.824829,100.754753 374.193390,92.461876 
	C371.756561,92.461876 369.319733,92.461876 366.058990,92.422791 
M377.639496,104.718506 
	C386.906097,103.528648 393.648926,97.166428 401.551300,93.126083 
	C391.540802,95.707123 381.636108,98.498169 370.798126,102.983673 
	C373.783752,103.813568 375.326294,104.242340 377.639496,104.718506 
M252.383224,35.784218 
	C256.711914,34.932762 261.040619,34.081306 265.369324,33.229851 
	C257.369202,32.411602 249.438431,32.430744 241.507874,32.399368 
	C239.269684,32.390514 238.034180,33.156338 238.280045,35.636246 
	C238.554611,38.405739 240.352448,38.203213 242.274475,37.831200 
	C245.373322,37.231407 248.467392,36.607044 252.383224,35.784218 
M221.869293,32.408428 
	C213.282745,32.408428 204.696182,32.408428 196.109634,32.408428 
	C204.057938,34.482925 212.022522,36.155960 220.010620,37.707993 
	C221.583054,38.013500 223.519974,38.405361 224.358231,36.366711 
	C225.057632,34.665752 224.955704,33.045448 221.869293,32.408428 
M72.004890,99.492371 
	C74.240150,100.591164 76.591377,101.506065 78.686325,102.827332 
	C82.940712,105.510551 86.991142,105.090050 91.403793,102.666138 
	C81.449158,99.172989 72.000237,95.259201 61.760452,93.941093 
	C64.959663,95.668480 68.158875,97.395874 72.004890,99.492371 
M403.903656,101.348991 
	C398.435272,104.131897 392.987335,106.956093 387.491486,109.683647 
	C383.623688,111.603180 382.291534,114.661774 382.770966,119.140930 
	C386.328430,117.735634 388.276947,114.872704 390.921143,112.957428 
	C395.886749,109.360664 400.619690,105.440170 405.395355,101.587318 
	C405.902496,101.178192 405.534363,100.751236 404.854645,100.947029 
	C404.696289,100.992630 404.548920,101.076149 403.903656,101.348991 
M76.807297,110.718994 
	C72.370041,108.585716 68.416626,105.320351 63.560150,104.167976 
	C63.270126,104.643089 62.980106,105.118210 62.690083,105.593330 
	C68.373444,110.103157 74.056801,114.612991 80.887016,120.032867 
	C79.650337,116.021767 80.191200,112.996216 76.807297,110.718994 
M236.829605,388.410553 
	C237.706131,383.080444 238.582657,377.750336 239.508041,372.123077 
	C234.770706,375.294891 233.790695,381.913513 235.982651,395.446655 
	C236.311584,392.827179 236.536560,391.035583 236.829605,388.410553 
M225.608673,385.950836 
	C226.465744,388.751160 226.076187,391.850525 227.654312,394.738220 
	C227.647141,375.006195 227.647141,375.006195 224.136612,373.264740 
	C223.730301,377.313202 225.149658,381.149200 225.608673,385.950836 
z"/>
</svg>